<?xml version="1.0" encoding="UTF-8" standalone="no"?><!DOCTYPE svg PUBLIC "-//W3C//DTD SVG 1.1//EN" "http://www.w3.org/Graphics/SVG/1.1/DTD/svg11.dtd"><svg width="100%" height="100%" viewBox="0 0 256 256" version="1.1" xmlns="http://www.w3.org/2000/svg" xmlns:xlink="http://www.w3.org/1999/xlink" xml:space="preserve" xmlns:serif="http://www.serif.com/" style="fill-rule:evenodd;clip-rule:evenodd;stroke-linejoin:round;stroke-miterlimit:2;"><path id="challenge" d="M256,50c-0,-27.614 -22.386,-50 -50,-50l-156,0c-27.614,0 -50,22.386 -50,50l0,156c0,27.614 22.386,50 50,50l156,0c27.614,-0 50,-22.386 50,-50l0,-156Zm-15,-0l-0,156c-0,19.33 -15.67,35 -35,35c-0,0 -156,0 -156,0c-19.33,-0 -35,-15.67 -35,-35c0,-0 0,-156 0,-156c0,-19.33 15.67,-35 35,-35c0,0 156,0 156,0c19.33,0 35,15.67 35,35Zm-162.58,143.483c0,-0 0.836,0.836 1.968,1.968c2.404,2.403 5.664,3.754 9.064,3.754c3.399,-0 6.659,-1.351 9.063,-3.754c5.384,-5.384 12.416,-12.417 12.416,-12.417c1.668,-1.667 1.668,-4.374 0,-6.042c-1.667,-1.667 -4.375,-1.667 -6.042,0c-0,0 -7.033,7.033 -12.416,12.416c-0.801,0.802 -1.888,1.252 -3.021,1.252c-1.133,-0 -2.22,-0.45 -3.021,-1.252c-1.132,-1.132 -1.968,-1.968 -1.968,-1.968c-1.668,-1.667 -4.375,-1.667 -6.043,0c-1.667,1.668 -1.667,4.375 0,6.043Zm55.989,2.168l78.614,0c3.538,0 6.409,-2.871 6.409,-6.408c0,-3.538 -2.871,-6.409 -6.409,-6.409l-78.614,-0c-3.537,-0 -6.409,2.871 -6.409,6.409c-0,3.537 2.872,6.408 6.409,6.408Zm-55.989,-44.039c0,-0 0.836,0.836 1.968,1.968c2.404,2.404 5.664,3.754 9.064,3.754c3.399,-0 6.659,-1.35 9.063,-3.754c5.384,-5.384 12.416,-12.416 12.416,-12.416c1.668,-1.668 1.668,-4.375 0,-6.043c-1.667,-1.667 -4.375,-1.667 -6.042,0c-0,0 -7.033,7.033 -12.416,12.416c-0.801,0.802 -1.888,1.252 -3.021,1.252c-1.133,-0 -2.22,-0.45 -3.021,-1.252c-1.132,-1.131 -1.968,-1.968 -1.968,-1.968c-1.668,-1.667 -4.375,-1.667 -6.043,0c-1.667,1.668 -1.667,4.375 0,6.043Zm55.989,2.168l78.614,0c3.538,0 6.409,-2.871 6.409,-6.408c0,-3.537 -2.871,-6.409 -6.409,-6.409l-78.614,-0c-3.537,-0 -6.409,2.872 -6.409,6.409c0,3.537 2.872,6.408 6.409,6.408Zm-100.547,-56.775c0,-0 10.901,10.901 18.937,18.937c3.902,3.901 9.193,6.093 14.711,6.093c5.518,0 10.809,-2.192 14.711,-6.093c17.157,-17.158 54.601,-54.602 54.601,-54.602c3.48,-3.479 3.48,-9.13 0,-12.609c-3.479,-3.48 -9.129,-3.48 -12.609,-0l-54.601,54.601c-0.558,0.558 -1.314,0.871 -2.102,0.871c-0.788,-0 -1.544,-0.313 -2.101,-0.871l-18.937,-18.936c-3.48,-3.48 -9.13,-3.48 -12.61,-0c-3.479,3.479 -3.479,9.129 0,12.609Zm100.547,3.796l78.614,0c3.538,0 6.409,-2.872 6.409,-6.409c0,-3.537 -2.871,-6.409 -6.409,-6.409l-78.614,0c-3.537,0 -6.409,2.872 -6.409,6.409c0,3.537 2.872,6.409 6.409,6.409Z" style="fill:#fff;"/></svg>