<?xml version="1.0" encoding="UTF-8" standalone="no"?><!DOCTYPE svg PUBLIC "-//W3C//DTD SVG 1.1//EN" "http://www.w3.org/Graphics/SVG/1.1/DTD/svg11.dtd"><svg width="100%" height="100%" viewBox="0 0 255 256" version="1.1" xmlns="http://www.w3.org/2000/svg" xmlns:xlink="http://www.w3.org/1999/xlink" xml:space="preserve" xmlns:serif="http://www.serif.com/" style="fill-rule:evenodd;clip-rule:evenodd;stroke-linejoin:round;stroke-miterlimit:2;"><path id="home" d="M34.999,138.79l-0,71.159c-0,12.214 4.852,23.927 13.488,32.563c8.636,8.636 20.349,13.488 32.563,13.488l92.781,-0c12.213,-0 23.927,-4.852 32.563,-13.488c8.636,-8.636 13.488,-20.349 13.488,-32.563c-0,0 -0,-71.159 -0,-71.159c-0,-4.384 -3.559,-7.943 -7.943,-7.943c-4.384,0 -7.943,3.559 -7.943,7.943l0,71.159c0,8.001 -3.178,15.673 -8.835,21.331c-5.657,5.657 -13.33,8.835 -21.33,8.835l-92.781,-0c-8.001,-0 -15.673,-3.178 -21.331,-8.835c-5.657,-5.658 -8.835,-13.33 -8.835,-21.331l0,-71.159c0,-4.384 -3.559,-7.943 -7.942,-7.943c-4.384,0 -7.943,3.559 -7.943,7.943Zm217.557,-25.738c-0,0 -72.446,-72.446 -104.523,-104.522c-11.373,-11.373 -29.812,-11.373 -41.186,-0c-32.076,32.076 -104.522,104.522 -104.522,104.522c-3.1,3.1 -3.1,8.133 -0,11.233c3.099,3.1 8.133,3.1 11.232,-0l104.523,-104.523c5.17,-5.169 13.551,-5.169 18.721,0c-0,0 104.522,104.523 104.522,104.523c3.1,3.1 8.133,3.1 11.233,-0c3.1,-3.1 3.1,-8.133 -0,-11.233Z" style="fill:#fff;"/></svg>