<?xml version="1.0" encoding="UTF-8" standalone="no"?><!DOCTYPE svg PUBLIC "-//W3C//DTD SVG 1.1//EN" "http://www.w3.org/Graphics/SVG/1.1/DTD/svg11.dtd"><svg width="100%" height="100%" viewBox="0 0 256 271" version="1.1" xmlns="http://www.w3.org/2000/svg" xmlns:xlink="http://www.w3.org/1999/xlink" xml:space="preserve" xmlns:serif="http://www.serif.com/" style="fill-rule:evenodd;clip-rule:evenodd;stroke-linejoin:round;stroke-miterlimit:2;"><path id="logout" d="M144.375,0l-90.795,0c-29.572,0 -53.58,24.008 -53.58,53.58l0,163.84c0,29.572 24.008,53.58 53.58,53.58c0,0 90.795,0 90.795,0c4.139,-0 7.5,-3.361 7.5,-7.5c0,-4.139 -3.361,-7.5 -7.5,-7.5l-90.795,-0c-21.293,-0 -38.58,-17.287 -38.58,-38.58c-0,-0 -0,-163.84 -0,-163.84c-0,-21.293 17.287,-38.58 38.58,-38.58l90.795,-0c4.139,0 7.5,-3.361 7.5,-7.5c0,-4.139 -3.361,-7.5 -7.5,-7.5Zm111.06,132.64l-0.009,-0.021c-0.296,-0.713 -0.706,-1.388 -1.23,-1.999l-0.393,-0.423l-70.654,-70.655c-2.927,-2.927 -7.68,-2.927 -10.607,0c-2.927,2.927 -2.927,7.68 0,10.607l57.851,57.851l-144.415,0c-4.14,-0 -7.5,3.361 -7.5,7.5c-0,4.139 3.36,7.5 7.5,7.5l144.415,0l-57.851,57.851c-2.927,2.927 -2.927,7.68 0,10.607c2.927,2.927 7.68,2.927 10.607,-0l70.654,-70.655c0.716,-0.716 1.257,-1.541 1.623,-2.422l0.009,-0.021c0.364,-0.882 0.565,-1.848 0.565,-2.86c-0,-1.012 -0.201,-1.978 -0.565,-2.86Z" style="fill:#fff;"/></svg>