<?xml version="1.0" encoding="UTF-8" standalone="no"?><!DOCTYPE svg PUBLIC "-//W3C//DTD SVG 1.1//EN" "http://www.w3.org/Graphics/SVG/1.1/DTD/svg11.dtd"><svg width="100%" height="100%" viewBox="0 0 272 272" version="1.1" xmlns="http://www.w3.org/2000/svg" xmlns:xlink="http://www.w3.org/1999/xlink" xml:space="preserve" xmlns:serif="http://www.serif.com/" style="fill-rule:evenodd;clip-rule:evenodd;stroke-linejoin:round;stroke-miterlimit:2;"><path id="setting" d="M156.815,17.207c-1.44,-9.782 -9.767,-17.073 -19.654,-17.207l-0.202,0c-1.026,0.014 -2.051,0.014 -3.076,0.026c-9.878,0.134 -18.191,7.405 -19.638,17.164c-0.472,3.028 -0.959,6.335 -1.392,9.276c-0.299,2.03 -1.776,3.686 -3.753,4.217c-1.032,0.236 -2.036,0.504 -3.036,0.787c-2.004,0.571 -4.141,-0.118 -5.426,-1.741c-1.885,-2.34 -3.94,-4.934 -5.831,-7.322c-6.138,-7.751 -16.995,-9.901 -25.625,-5.074l-0.174,0.101c-0.882,0.525 -1.77,1.038 -2.651,1.561c-8.488,5.055 -12.052,15.508 -8.425,24.684c1.105,2.857 2.337,5.965 3.432,8.729c0.756,1.907 0.305,4.08 -1.142,5.528c-0.775,0.72 -1.511,1.454 -2.235,2.2c-1.45,1.496 -3.645,1.968 -5.57,1.205c-2.803,-1.084 -5.879,-2.303 -8.711,-3.425c-9.191,-3.644 -19.668,-0.077 -24.728,8.418l-0.101,0.175c-0.501,0.895 -1.013,1.782 -1.515,2.676c-4.824,8.622 -2.683,19.457 5.045,25.59c2.387,1.922 5.007,3.998 7.338,5.843c1.608,1.274 2.303,3.381 1.774,5.359c-0.311,1.011 -0.581,2.015 -0.836,3.022c-0.507,2.021 -2.172,3.528 -4.22,3.829c-2.969,0.463 -6.243,0.945 -9.257,1.389c-9.781,1.44 -17.072,9.768 -17.206,19.655l-0,0.201c0.014,1.026 0.014,2.051 0.026,3.076c0.134,9.879 7.405,18.191 17.164,19.638c3.028,0.472 6.335,0.959 9.276,1.392c2.03,0.299 3.686,1.777 4.217,3.754c0.236,1.031 0.504,2.035 0.787,3.035c0.571,2.004 -0.118,4.141 -1.741,5.427c-2.34,1.885 -4.934,3.939 -7.322,5.83c-7.751,6.138 -9.901,16.996 -5.074,25.625l0.101,0.175c0.525,0.881 1.038,1.769 1.561,2.651c5.055,8.488 15.508,12.051 24.684,8.425c2.857,-1.106 5.965,-2.338 8.729,-3.433c1.907,-0.756 4.08,-0.305 5.528,1.142c0.72,0.775 1.454,1.511 2.2,2.236c1.496,1.45 1.968,3.644 1.205,5.569c-1.084,2.803 -2.303,5.879 -3.425,8.711c-3.644,9.191 -0.077,19.669 8.418,24.728l0.175,0.101c0.895,0.501 1.782,1.014 2.676,1.516c8.622,4.823 19.457,2.682 25.59,-5.046c1.922,-2.386 3.998,-5.007 5.843,-7.337c1.274,-1.609 3.381,-2.304 5.359,-1.775c1.011,0.311 2.015,0.581 3.022,0.836c2.021,0.507 3.528,2.172 3.829,4.221c0.463,2.969 0.945,6.242 1.389,9.256c1.44,9.782 9.768,17.072 19.655,17.206l0.201,0c1.026,-0.013 2.051,-0.013 3.076,-0.026c9.879,-0.133 18.191,-7.404 19.638,-17.164c0.472,-3.028 0.959,-6.335 1.392,-9.276c0.299,-2.03 1.777,-3.685 3.754,-4.216c1.031,-0.236 2.035,-0.504 3.035,-0.787c2.004,-0.571 4.141,0.117 5.427,1.74c1.885,2.34 3.939,4.934 5.83,7.322c6.138,7.751 16.996,9.901 25.625,5.074l0.175,-0.101c0.881,-0.525 1.769,-1.037 2.651,-1.56c8.488,-5.056 12.051,-15.509 8.425,-24.684c-1.106,-2.858 -2.338,-5.966 -3.433,-8.729c-0.756,-1.908 -0.305,-4.08 1.142,-5.528c0.775,-0.721 1.511,-1.455 2.236,-2.2c1.45,-1.496 3.644,-1.969 5.569,-1.206c2.803,1.084 5.879,2.303 8.711,3.426c9.191,3.644 19.669,0.077 24.728,-8.418l0.101,-0.175c0.501,-0.895 1.014,-1.783 1.516,-2.677c4.823,-8.622 2.682,-19.456 -5.046,-25.589c-2.386,-1.922 -5.007,-3.998 -7.337,-5.844c-1.609,-1.274 -2.304,-3.381 -1.775,-5.358c0.311,-1.012 0.581,-2.015 0.836,-3.023c0.507,-2.021 2.172,-3.527 4.221,-3.829c2.969,-0.463 6.242,-0.945 9.256,-1.389c9.782,-1.44 17.072,-9.767 17.206,-19.654l0,-0.202c-0.013,-1.026 -0.013,-2.051 -0.026,-3.076c-0.133,-9.878 -7.404,-18.191 -17.164,-19.638c-3.028,-0.472 -6.335,-0.959 -9.276,-1.392c-2.03,-0.299 -3.685,-1.776 -4.216,-3.753c-0.236,-1.032 -0.504,-2.036 -0.787,-3.036c-0.571,-2.004 0.117,-4.141 1.74,-5.426c2.34,-1.885 4.934,-3.94 7.322,-5.831c7.751,-6.138 9.901,-16.995 5.074,-25.625l-0.101,-0.174c-0.525,-0.882 -1.037,-1.77 -1.56,-2.651c-5.056,-8.488 -15.509,-12.052 -24.684,-8.425c-2.858,1.105 -5.966,2.337 -8.729,3.432c-1.908,0.756 -4.08,0.305 -5.528,-1.142c-0.721,-0.775 -1.455,-1.511 -2.2,-2.235c-1.496,-1.45 -1.969,-3.645 -1.206,-5.57c1.084,-2.803 2.303,-5.879 3.426,-8.711c3.644,-9.191 0.077,-19.668 -8.418,-24.728l-0.175,-0.101c-0.895,-0.501 -1.783,-1.013 -2.677,-1.515c-8.622,-4.824 -19.456,-2.683 -25.589,5.045c-1.922,2.387 -3.998,5.007 -5.844,7.338c-1.274,1.608 -3.381,2.303 -5.358,1.774c-1.012,-0.311 -2.015,-0.581 -3.023,-0.836c-2.021,-0.507 -3.527,-2.172 -3.829,-4.22c-0.463,-2.969 -0.945,-6.243 -1.389,-9.257l0,0.001Zm-14.84,2.185c0.449,3.048 0.937,6.358 1.396,9.299c1.2,8.033 7.115,14.558 14.996,16.537c0.771,0.195 1.551,0.403 2.322,0.643c8.012,2.285 16.424,-0.425 21.484,-6.813c1.826,-2.307 3.881,-4.901 5.792,-7.274c1.598,-2.016 4.354,-2.563 6.546,-1.339c0.861,0.484 1.717,0.978 2.579,1.461c2.123,1.314 3.002,3.954 2.082,6.273c-1.135,2.865 -2.368,5.975 -3.441,8.751c-2.977,7.558 -1.117,16.166 4.719,21.82c0.569,0.554 1.142,1.124 1.69,1.718c5.795,5.985 14.435,7.844 22.011,4.841c2.735,-1.084 5.812,-2.303 8.654,-3.403c2.391,-0.947 5.052,-0.042 6.338,2.114c0.504,0.849 0.998,1.705 1.503,2.554c1.182,2.199 0.623,4.925 -1.333,6.474c-2.416,1.913 -5.039,3.99 -7.356,5.858c-6.357,5.056 -9.05,13.441 -6.824,21.256c0.217,0.765 0.427,1.544 0.605,2.332c2.027,8.081 8.579,14.011 16.642,15.199c2.911,0.429 6.185,0.911 9.195,1.38c2.546,0.375 4.397,2.489 4.433,4.999c0.011,0.988 0.012,1.976 0.024,2.964c-0.076,2.495 -1.923,4.576 -4.391,4.939c-3.049,0.449 -6.359,0.937 -9.3,1.396c-8.033,1.2 -14.558,7.115 -16.537,14.996c-0.195,0.771 -0.402,1.551 -0.642,2.322c-2.286,8.012 0.424,16.424 6.813,21.484c2.306,1.826 4.9,3.881 7.273,5.792c2.017,1.598 2.563,4.354 1.339,6.546c-0.484,0.861 -0.977,1.717 -1.461,2.579c-1.313,2.123 -3.953,3.002 -6.273,2.082c-2.864,-1.135 -5.975,-2.368 -8.751,-3.441c-7.557,-2.977 -16.166,-1.117 -21.82,4.719c-0.554,0.569 -1.124,1.142 -1.717,1.69c-5.985,5.795 -7.844,14.435 -4.842,22.011c1.084,2.735 2.304,5.812 3.403,8.654c0.948,2.391 0.043,5.052 -2.113,6.338c-0.85,0.504 -1.705,0.998 -2.555,1.503c-2.199,1.182 -4.925,0.623 -6.473,-1.333c-1.914,-2.416 -3.991,-5.039 -5.858,-7.356c-5.057,-6.357 -13.442,-9.05 -21.257,-6.824c-0.764,0.217 -1.544,0.427 -2.332,0.605c-8.081,2.027 -14.011,8.579 -15.199,16.642c-0.428,2.911 -0.91,6.185 -1.379,9.195c-0.375,2.546 -2.489,4.397 -4.999,4.433c-0.988,0.011 -1.976,0.012 -2.965,0.024c-2.495,-0.076 -4.576,-1.923 -4.939,-4.391c-0.449,-3.049 -0.937,-6.359 -1.395,-9.3c-1.201,-8.033 -7.116,-14.558 -14.997,-16.537c-0.77,-0.195 -1.551,-0.402 -2.322,-0.642c-8.012,-2.286 -16.423,0.424 -21.484,6.813c-1.826,2.306 -3.881,4.9 -5.792,7.273c-1.598,2.017 -4.354,2.563 -6.546,1.339c-0.861,-0.484 -1.717,-0.977 -2.579,-1.461c-2.123,-1.313 -3.001,-3.953 -2.082,-6.273c1.135,-2.864 2.368,-5.975 3.441,-8.751c2.977,-7.557 1.117,-16.166 -4.718,-21.82c-0.57,-0.554 -1.142,-1.124 -1.69,-1.717c-5.796,-5.985 -14.435,-7.844 -22.012,-4.842c-2.735,1.084 -5.812,2.304 -8.653,3.403c-2.392,0.948 -5.052,0.043 -6.338,-2.113c-0.504,-0.85 -0.999,-1.705 -1.504,-2.555c-1.181,-2.199 -0.622,-4.925 1.334,-6.473c2.415,-1.914 5.038,-3.991 7.356,-5.858c6.356,-5.057 9.05,-13.442 6.823,-21.257c-0.216,-0.764 -0.427,-1.544 -0.605,-2.332c-2.026,-8.081 -8.579,-14.011 -16.642,-15.199c-2.91,-0.428 -6.184,-0.91 -9.195,-1.379c-2.545,-0.375 -4.397,-2.489 -4.432,-4.999c-0.012,-0.988 -0.013,-1.976 -0.025,-2.965c0.076,-2.495 1.923,-4.576 4.392,-4.939c3.048,-0.449 6.358,-0.937 9.299,-1.395c8.033,-1.201 14.558,-7.116 16.537,-14.997c0.195,-0.77 0.403,-1.551 0.643,-2.322c2.285,-8.012 -0.425,-16.423 -6.813,-21.484c-2.307,-1.826 -4.901,-3.881 -7.274,-5.792c-2.016,-1.598 -2.563,-4.354 -1.339,-6.546c0.484,-0.861 0.978,-1.717 1.461,-2.579c1.314,-2.123 3.954,-3.001 6.273,-2.082c2.865,1.135 5.975,2.368 8.751,3.441c7.558,2.977 16.166,1.117 21.82,-4.718c0.554,-0.57 1.124,-1.142 1.718,-1.69c5.985,-5.796 7.844,-14.435 4.841,-22.012c-1.084,-2.735 -2.303,-5.812 -3.403,-8.653c-0.947,-2.392 -0.042,-5.052 2.114,-6.338c0.849,-0.504 1.705,-0.999 2.554,-1.504c2.199,-1.181 4.925,-0.622 6.474,1.334c1.913,2.415 3.99,5.038 5.858,7.356c5.056,6.356 13.441,9.05 21.256,6.823c0.765,-0.216 1.544,-0.427 2.332,-0.605c8.081,-2.026 14.011,-8.579 15.199,-16.642c0.429,-2.91 0.911,-6.184 1.38,-9.195c0.375,-2.545 2.489,-4.397 4.999,-4.432c0.988,-0.012 1.976,-0.013 2.964,-0.025c2.495,0.076 4.576,1.923 4.939,4.392Zm-6.459,40.695c-41.631,-0 -75.429,33.798 -75.429,75.429c-0,41.631 33.798,75.43 75.429,75.43c41.631,-0 75.43,-33.799 75.43,-75.43c-0,-41.631 -33.799,-75.429 -75.43,-75.429Zm0,15c33.352,-0 60.43,27.077 60.43,60.429c-0,33.352 -27.078,60.43 -60.43,60.43c-33.352,-0 -60.429,-27.078 -60.429,-60.43c-0,-33.352 27.077,-60.429 60.429,-60.429Z" style="fill:#fff;"/></svg>