<?xml version="1.0" encoding="UTF-8" standalone="no"?><!DOCTYPE svg PUBLIC "-//W3C//DTD SVG 1.1//EN" "http://www.w3.org/Graphics/SVG/1.1/DTD/svg11.dtd"><svg width="100%" height="100%" viewBox="0 0 132 114" version="1.1" xmlns="http://www.w3.org/2000/svg" xmlns:xlink="http://www.w3.org/1999/xlink" xml:space="preserve" xmlns:serif="http://www.serif.com/" style="fill-rule:evenodd;clip-rule:evenodd;stroke-linejoin:round;stroke-miterlimit:2;"><g><path d="M62.464,0.122c-7.344,-0.894 -13.857,3.27 -18.922,8.216c-3.574,3.489 -5.457,9.307 -6.139,14.174c-0.414,2.953 -0.371,6.059 -1.674,8.741c-1.774,3.647 -5.685,5.756 -9.555,6.966c-3.872,1.21 -7.966,1.778 -11.626,3.526c-5.922,2.828 -10.143,8.62 -11.867,14.953c-1.724,6.333 -1.13,13.141 0.816,19.41c3.508,11.312 12.513,21.756 24.26,23.276c11.034,1.428 22.074,-5.074 33.025,-3.105c4.347,0.782 8.334,2.853 12.364,4.661c9.35,4.196 22.067,9.245 32.326,5.567c9.083,-3.256 11.856,-11.585 11.708,-20.527c-0.058,-3.555 -0.692,-7.198 -2.567,-10.218c-1.437,-2.314 -3.52,-4.141 -5.552,-5.955c-3.656,-3.266 -7.289,-6.664 -9.861,-10.837c-6.836,-11.096 -5.08,-25.645 -10.769,-37.372c-2.611,-5.382 -6.693,-9.933 -11.217,-13.848c-4.249,-3.676 -9.173,-6.949 -14.75,-7.628Z" style="fill:#f6f6f6;fill-rule:nonzero;"/><path d="M130.363,111.553c-1.091,-0.119 -2.183,-0.206 -3.289,-0.26c-0.306,-0.013 -89.616,-0.046 -89.616,-0.046c-0.067,0.007 -0.133,0.007 -0.2,0.013c-0.102,0.008 -0.2,0.019 -0.301,0.027c-0.038,-0 -34.406,-0.04 -34.406,-0.04c-0.067,0.007 -0.133,0.007 -0.2,0.013c-0.479,0.033 -0.96,0.074 -1.432,0.127c-1.225,0.126 -1.225,1.771 0,1.898c0.479,0.053 0.953,0.093 1.432,0.132c0.06,0.007 0.127,0.007 0.186,0.014c0,-0 34.344,-0.047 34.362,-0.047c0.121,0.011 0.239,0.024 0.359,0.033c0.06,0.007 0.127,0.007 0.187,0.014c-0,-0 89.323,-0.04 89.636,-0.053c1.105,-0.053 2.198,-0.14 3.282,-0.26c1,-0.113 1.006,-1.451 0,-1.565Z" style="fill:#c6c6c6;fill-rule:nonzero;"/><path d="M40.483,98.406l8.357,-0.015c-0.002,-1.06 0.855,-1.922 1.916,-1.924c1.059,-0.002 1.92,0.856 1.922,1.916l0.006,2.484c0.002,1.061 -0.856,1.922 -1.916,1.924c-1.061,0.001 -1.922,-0.856 -1.924,-1.916l-8.355,0.016c0.001,1.06 -0.856,1.921 -1.917,1.922c-1.059,0.003 -1.92,-0.855 -1.923,-1.915l-0.004,-2.484c-0.003,-1.06 0.856,-1.921 1.916,-1.923c1.06,-0.003 1.921,0.855 1.922,1.915Z" style="fill:#8695c2;fill-rule:nonzero;"/><path d="M57.421,98.406l8.355,-0.015c-0.002,-1.06 0.857,-1.922 1.916,-1.924c1.061,-0.002 1.922,0.856 1.924,1.916l0.005,2.484c0.001,1.061 -0.857,1.922 -1.917,1.924c-1.059,0.001 -1.92,-0.856 -1.922,-1.916l-8.356,0.016c0.001,1.06 -0.857,1.921 -1.916,1.922c-1.06,0.003 -1.921,-0.855 -1.923,-1.915l-0.006,-2.484c-0.002,-1.06 0.857,-1.921 1.916,-1.923c1.062,-0.003 1.923,0.855 1.924,1.915Z" style="fill:#8695c2;fill-rule:nonzero;"/><path d="M40.483,106.96l8.357,-0.016c-0.002,-1.06 0.855,-1.922 1.916,-1.923c1.059,-0.002 1.92,0.855 1.922,1.916l0.006,2.484c0.002,1.06 -0.856,1.921 -1.916,1.923c-1.061,0.002 -1.922,-0.856 -1.924,-1.916l-8.355,0.016c0.001,1.06 -0.856,1.921 -1.917,1.923c-1.059,0.002 -1.92,-0.856 -1.923,-1.916l-0.004,-2.484c-0.003,-1.06 0.856,-1.921 1.916,-1.923c1.06,-0.002 1.921,0.855 1.922,1.916Z" style="fill:#8695c2;fill-rule:nonzero;"/><path d="M57.421,106.96l8.355,-0.016c-0.002,-1.06 0.857,-1.922 1.916,-1.923c1.061,-0.002 1.922,0.855 1.924,1.916l0.005,2.484c0.001,1.06 -0.857,1.921 -1.917,1.923c-1.059,0.002 -1.92,-0.856 -1.922,-1.916l-8.356,0.016c0.001,1.06 -0.857,1.921 -1.916,1.923c-1.06,0.002 -1.921,-0.856 -1.923,-1.916l-0.006,-2.484c-0.002,-1.06 0.857,-1.921 1.916,-1.923c1.062,-0.002 1.923,0.855 1.924,1.916Z" style="fill:#8695c2;fill-rule:nonzero;"/><path d="M68.768,104.569l-31.271,-0c-0.47,-0 -0.852,-0.381 -0.852,-0.852c-0,-0.516 0.382,-0.898 0.852,-0.898l31.271,-0c0.471,-0 0.853,0.382 0.853,0.853c-0,0.516 -0.382,0.897 -0.853,0.897Z" style="fill:#c6c6c6;fill-rule:nonzero;"/><path d="M51.069,31.753c0.208,-1.845 -0.173,-3.54 0.562,-5.367c1.22,-3.03 5.56,-3.695 8.448,-3.175c1.286,0.232 2.685,0.887 3.021,2.149c0.094,0.359 0.094,0.746 0.258,1.079c0.281,0.574 0.957,0.831 1.373,1.314c0.731,0.85 0.497,2.159 0.029,3.177c-0.61,1.327 -1.546,2.501 -2.706,3.39c-0.526,0.404 -1.121,0.778 -1.407,1.376c-0.379,0.793 -0.216,1.945 -0.988,2.362c-0.621,0.334 -1.427,-0.154 -1.689,-0.808c-0.261,-0.653 -0.139,-1.39 -0.012,-2.083c-1.796,-0.386 -7.213,-0.488 -6.889,-3.414Z" style="fill:#3b2645;fill-rule:nonzero;"/><path d="M107.939,103.701c-0.719,0.355 -1.647,0.205 -2.461,0.031c-2.881,-0.616 -5.77,-1.122 -8.664,-1.666c-1.287,-0.239 -7.431,-1.451 -9.103,-1.804c-4.887,-1.032 -9.502,-2.151 -11.813,-3.083c-3.735,-1.518 -11.238,-9.994 -16.632,-16.619c-3.569,-4.389 -6.219,-7.977 -6.219,-8.184c-0,-0 0.08,-2.357 1.644,-4.241c1.339,-1.605 2.643,-6.958 7.039,-6.093c9.528,1.878 15.72,26.288 19.343,27.113c4.94,1.133 9.454,3.716 14.182,5.407c1.145,0.413 2.238,0.819 3.256,1.205c1.956,0.73 3.957,1.411 5.86,2.273c1.273,0.577 3.066,1.36 3.945,2.47c0.681,0.858 0.802,2.264 -0.038,2.969c-0.106,0.089 -0.219,0.163 -0.339,0.222Z" style="fill:#f5a784;fill-rule:nonzero;"/><path d="M96.814,102.066c-1.287,-0.239 -7.431,-1.451 -9.103,-1.804c-4.887,-1.032 -9.502,-2.151 -11.813,-3.083c-3.735,-1.518 -11.238,-9.994 -16.632,-16.619c-3.569,-4.389 -6.219,-7.977 -6.219,-8.184c-0,-0 0.08,-2.357 1.644,-4.241c1.319,-1.578 2.604,-6.791 6.839,-6.126c0.066,0.007 0.132,0.02 0.2,0.033c3.189,0.626 6.012,3.79 8.483,7.744c4.907,7.843 8.449,18.823 10.86,19.369c4.94,1.133 9.454,3.716 14.182,5.407c1.145,0.413 2.238,0.819 3.256,1.205c0.166,2.164 -0.645,4.388 -1.697,6.299Z" style="fill:#8695c2;fill-rule:nonzero;"/><path d="M66.01,69.679c-1.157,2.331 -3.501,4.169 -5.772,5.327c-0.933,0.479 -1.898,0.879 -2.89,1.219c-1.532,0.532 -3.109,0.939 -4.681,1.325c-3.17,0.772 -6.345,1.478 -9.541,2.124c-2.91,0.586 -5.839,1.465 -8.763,1.891c-0.499,0.073 -0.885,0.499 -0.885,0.998c-0.007,1.978 -0.886,5.634 -2.052,9.642c-0.198,0.686 -0.405,1.379 -0.625,2.078c-2.291,7.464 -5.233,15.321 -5.233,15.321c-1.812,0.945 -4.082,-1.072 -4.082,-1.072c-0,-0 0.759,-9.003 1.718,-17.539c0.033,-0.326 0.067,-0.646 0.107,-0.972c0.439,-3.815 0.844,-7.684 1.657,-11.446c0.713,-3.316 2.757,-4.128 5.68,-5.653c7.87,-4.102 15.834,-8.076 24.204,-11.052c1.99,-0.713 4.574,-1.299 6.698,-0.906c1.018,0.186 1.938,0.766 2.677,1.485c1.783,1.751 2.956,4.873 1.783,7.23Z" style="fill:#f5a784;fill-rule:nonzero;"/><path d="M26.266,109.85c0,0.12 0.009,0.226 0.007,0.339c-0.003,0.147 -0.02,0.287 -0.054,0.42c0,0.027 -0.007,0.047 -0.012,0.067c-0.16,0.533 -0.653,0.892 -1.179,1.058c-0.519,0.16 -1.085,0.147 -1.631,0.14c-2.185,-0.026 -4.262,0.373 -6.472,0.073c-1.325,-0.179 -4.022,-0.646 -3.882,-2.49c-0,-0 0.007,-0.033 0.014,-0.093c0.019,-0.093 0.053,-0.24 0.126,-0.406c0.066,-0.147 0.163,-0.317 0.3,-0.486c0.408,-0.506 1.191,-0.992 2.689,-0.966c0.114,0.002 0.233,0.011 0.352,0.02c0.282,0.021 0.547,0.027 0.794,-0c0.073,-0 0.153,-0.006 0.226,-0.02c0.167,-0.013 0.327,-0.047 0.472,-0.08c0.048,-0.013 0.094,-0.027 0.133,-0.046c0.133,-0.04 0.254,-0.08 0.374,-0.133c0.112,-0.047 0.22,-0.1 0.32,-0.154c0.02,-0.013 0.046,-0.02 0.066,-0.033c0.1,-0.06 0.192,-0.126 0.28,-0.193c0.099,-0.074 0.2,-0.146 0.286,-0.233c0.02,-0.007 0.033,-0.027 0.047,-0.033c0.18,-0.16 0.333,-0.313 0.479,-0.46c0.486,-0.506 0.853,-0.919 1.425,-0.839c1.359,0.193 3.035,1.239 2.549,2.524c0,-0 1.605,0.459 2.111,-0.4c0.333,-0.546 0.446,0.04 0.446,0.393c-0.007,0.593 -0.279,1.165 -0.272,1.785c-0,0.086 0.006,0.166 0.006,0.246Z" style="fill:#ff4590;fill-rule:nonzero;"/><path d="M110.783,111.881l-0.153,-0c-0.194,-0.007 -0.526,-0.06 -0.899,-0.26c-0.612,-0.326 -1.298,-1.099 -1.465,-2.829c-0.02,-0.207 -0.047,-0.407 -0.087,-0.587c-0.032,-0.146 -0.066,-0.286 -0.114,-0.413c-0.04,-0.139 -0.085,-0.266 -0.139,-0.393c-0.006,-0.019 -0.019,-0.039 -0.027,-0.059c-0.019,-0.04 -0.04,-0.087 -0.066,-0.12c-0.114,-0.24 -0.259,-0.446 -0.407,-0.626c-0.013,-0.02 -0.026,-0.05 -0.045,-0.063c-0.148,-0.167 -0.288,-0.303 -0.446,-0.416c-0.021,-0.027 -0.048,-0.047 -0.075,-0.067c-0.005,-0.013 -0.026,-0.033 -0.04,-0.04c-0.185,-0.147 -0.358,-0.273 -0.532,-0.393c-0.585,-0.386 -1.058,-0.672 -1.085,-1.252c-0.006,-0.219 0.006,-0.446 0.04,-0.679c0.159,-1.218 0.859,-2.49 1.998,-2.277c-0,-0 0.166,-1.658 -0.766,-2.004c-0.38,-0.14 -0.294,-0.286 -0.1,-0.386c0.113,-0.06 0.273,-0.1 0.399,-0.12c0.593,-0.106 1.198,0.06 1.812,-0.054c0.079,-0.013 0.16,-0.033 0.24,-0.046c0.253,-0.06 0.505,-0.113 0.758,-0.093l0.066,-0c0.075,0.006 0.148,0.026 0.221,0.047c0.432,0.126 0.785,0.479 1.005,0.885c0.06,0.133 0.12,0.273 0.179,0.413c0.14,0.386 0.2,0.799 0.267,1.212c0.366,2.157 1.132,4.128 1.224,6.358c0.054,1.332 0.08,4.069 -1.763,4.262Z" style="fill:#ff4590;fill-rule:nonzero;"/><path d="M66.198,69.786c-1.345,2.277 -3.81,4.122 -5.96,5.22c-0.933,0.479 -1.898,0.879 -2.89,1.219c-0.372,0.126 -0.745,0.253 -1.126,0.366c-1.171,0.36 -2.364,0.666 -3.555,0.959c-3.17,0.772 -6.345,1.478 -9.541,2.124c-1.152,0.233 -2.311,0.513 -3.47,0.792c-1.764,0.42 -3.528,0.839 -5.293,1.099c-0.499,0.073 -0.885,0.499 -0.885,0.998c-0.007,1.978 -0.886,5.634 -2.052,9.642c-0.198,0.686 -0.405,1.379 -0.625,2.078c-2.604,-0.919 -5.14,-2.025 -7.597,-3.29c0.033,-0.326 0.067,-0.646 0.107,-0.972c0.439,-3.815 0.844,-7.684 1.657,-11.446c0.713,-3.316 2.757,-4.128 5.68,-5.653c7.87,-4.102 15.834,-8.076 24.204,-11.052c2.989,-1.066 7.676,-1.612 10.4,0.479c2.536,1.951 2.456,4.874 0.946,7.437Z" style="fill:#8695c2;fill-rule:nonzero;"/><path d="M24.438,59.802c-0.02,-0.013 -0.034,-0.019 -0.055,-0.039c0.021,0.007 0.041,0.019 0.061,0.025l-0.006,0.014Zm25.774,-10.798c-0.192,-3.365 -0.588,-6.837 -1.384,-6.527c-1.528,0.591 -3.596,4.556 -5.471,10.393c-1.865,5.83 -4.196,7.418 -4.196,7.418c-3.055,-0.144 -6.111,-0.287 -9.166,-0.43c-2.341,-0.105 -4.651,0.21 -6.473,-1.522c-0.603,-0.575 -1.181,-1.197 -1.931,-1.555c-0.75,-0.357 -1.736,-0.382 -2.332,0.196c-1.25,1.215 -1.034,4.007 0.577,4.666c2.609,1.068 5.472,1.684 8.233,2.262c3.982,0.835 8.035,1.602 12.104,1.815c1.475,0.123 3.958,-2.435 6.112,-5.083c2.238,-2.75 4.112,-5.596 4.112,-5.596c-0,-0 -0.009,-2.978 -0.185,-6.037Z" style="fill:#f5a784;fill-rule:nonzero;"/><path d="M50.397,55.041c-0,-0 -1.874,2.846 -4.112,5.596c1.031,-5.686 0.589,-9.829 0.589,-9.829c-0.066,-2.276 2.233,-2.044 3.338,-1.804c0.176,3.059 0.185,6.037 0.185,6.037Z" style="fill:#e0855c;fill-rule:nonzero;"/><path d="M63.701,56.057c-0.013,0.699 0.126,5.706 0.446,6.598c0.028,0.079 0.059,0.127 0.093,0.134c-2.07,0.579 -3.968,0.938 -5.693,1.151c-2.403,0.3 -4.474,0.293 -6.179,0.14c-1.466,-0.599 -1.665,-1.005 -1.665,-1.005c-0.147,-0.094 -0.492,-1.372 -0.519,-1.545c-0.153,-1.006 -0.7,-1.971 -0.88,-2.976c-0.378,-1.998 -0.198,-4.082 -1.384,-5.88c-0.273,-0.399 -0.592,-0.765 -0.806,-1.198c-0.579,-1.145 -0.332,-2.504 0.034,-3.736c0.026,-0.073 0.047,-0.146 0.072,-0.22c0.449,-1.34 0.394,-2.616 0.653,-3.955c0.187,-0.965 1.129,-1.232 2.065,-1.391c0.179,-0.031 0.851,-0.16 0.991,-0.187c0.567,-0.106 1.152,-0.186 1.651,-0.246c0.753,-0.1 1.305,-0.153 1.305,-0.153l0.702,-4.668c0.153,-2.211 5.185,-2.609 5.185,-2.609l-0.599,7.177c-0,0.053 0.272,0.067 0.771,0.08l0.094,-0c0.3,0.007 0.673,0.03 1.106,0.04c0.026,-0 0.053,-0.007 0.087,0.007c0.106,-0 0.206,0.006 0.319,0.013c0.199,0.013 0.405,0.02 0.626,0.04c0.439,0.013 0.899,0.046 1.332,0.14c0.639,0.146 1.192,0.419 1.445,0.992c0.045,0.099 0.079,0.213 0.106,0.339c0.319,1.631 -0.206,3.383 -0.539,4.961c-0.22,1.025 -0.36,2.031 -0.481,3.049c-0.032,0.32 -0.059,0.632 -0.094,0.952c-0.099,1.132 -0.165,2.266 -0.218,3.405c-0.007,0.173 -0.021,0.323 -0.027,0.496l0.001,0.055Z" style="fill:#f5a784;fill-rule:nonzero;"/><path d="M59.574,36.649c-1.777,2.355 -3.916,2.933 -5.4,2.996l0.413,-2.725c0.147,-2.21 5.185,-2.609 5.185,-2.609l-0.198,2.338Z" style="fill:#e0855c;fill-rule:nonzero;"/><path d="M62.188,31.579c-0.032,-1.391 -0.997,-0.933 -1.567,-0.539c0.082,-1.321 -0.001,-2.437 -0.322,-3.231c-1.021,-2.53 -6.141,-3.352 -8.593,-0.156c-0.558,0.728 -0.766,2.12 -0.879,3.759c-0.342,4.962 1.99,6.873 3.617,6.932c1.482,0.054 4.431,-0.398 5.58,-3.693c0.748,-0.481 2.196,-1.604 2.164,-3.072Z" style="fill:#f5a784;fill-rule:nonzero;"/><path d="M53.109,31.813c0,-0 -0.434,0.145 -0.341,-0.613c0.084,-0.681 0.385,-0.578 0.385,-0.578c0,-0 0.299,0.008 0.232,0.605c-0.067,0.596 -0.276,0.586 -0.276,0.586Z" style="fill:#3b2645;fill-rule:nonzero;"/><path d="M57.173,32.061c-0,-0 -0.435,0.145 -0.343,-0.614c0.084,-0.681 0.387,-0.578 0.387,-0.578c-0,-0 0.297,0.009 0.231,0.606c-0.067,0.596 -0.275,0.586 -0.275,0.586Z" style="fill:#3b2645;fill-rule:nonzero;"/><path d="M55.278,33.536c-0.215,-0.04 -0.719,0.072 -0.813,-0.167c-0.079,-0.199 0.313,-1.341 0.371,-1.537c0.062,-0.214 0.123,-0.407 0.185,-0.597c-0.019,-0.014 -0.038,-0.03 -0.058,-0.042c-0.046,-0.027 -0.091,-0.045 -0.136,-0.057c-0.233,0.785 -0.407,1.609 -0.624,2.353c-0.019,0.066 0.028,0.138 0.098,0.139c0.32,0.007 0.626,0.086 0.945,0.099c0.106,0.004 0.143,-0.17 0.032,-0.191Z" style="fill:#e0855c;fill-rule:nonzero;"/><path d="M53.665,29.521c-0.301,-0.167 -0.876,-0.23 -1.111,0.082c-0.043,0.057 0.009,0.147 0.077,0.146c0.154,-0.002 0.291,-0.072 0.445,-0.079c0.167,-0.007 0.322,0.036 0.477,0.092c0.141,0.05 0.245,-0.166 0.112,-0.241Z" style="fill:#3b2645;fill-rule:nonzero;"/><path d="M57.886,30.151c-0.158,-0.443 -0.919,-0.512 -1.254,-0.254c-0.077,0.06 -0.034,0.179 0.046,0.206c0.188,0.066 0.391,0.002 0.588,0.027c0.173,0.022 0.307,0.103 0.466,0.165c0.081,0.033 0.187,-0.058 0.154,-0.144Z" style="fill:#3b2645;fill-rule:nonzero;"/><path d="M55.755,34.737c-0.307,0.137 -0.541,0.303 -0.897,0.304c-0.275,0.002 -0.569,-0.141 -0.834,-0.056c-0.041,0.013 -0.073,0.062 -0.046,0.105c0.191,0.305 0.712,0.352 1.039,0.336c0.351,-0.017 0.77,-0.132 0.961,-0.45c0.089,-0.151 -0.071,-0.308 -0.223,-0.239Z" style="fill:#e0855c;fill-rule:nonzero;"/><path d="M61.45,27.227c0.796,1.03 -0.027,2.39 -0.586,3.334c-0.049,0.081 -0.131,0.174 -0.216,0.139c-0.041,-0.332 -0.017,-0.669 -0.066,-0.999c-0.047,-0.33 -0.185,-0.67 -0.465,-0.851c-0.377,-0.244 -0.894,-0.215 -1.303,-0.377c-1,-0.397 -0.852,-1.789 -1.742,-2.208c-0.965,-0.454 -2.31,0.316 -2.993,0.932c-0.783,0.708 -1.459,1.593 -2.438,1.989c-0.663,0.268 -1.4,0.281 -2.115,0.243c-0.675,-0.036 -1.369,-0.119 -1.964,-0.442c-0.509,-0.275 -1.46,-1.241 -0.802,-1.6c0.316,-0.171 1.056,-0.036 1.419,-0.068c0.439,-0.038 0.871,-0.103 1.285,-0.257c1.066,-0.396 1.425,-1.222 2.194,-1.944c0.72,-0.676 1.747,-1.157 2.712,-1.32c0.953,-0.16 2.082,-0.023 2.966,0.381c1.034,0.472 1.937,1.174 2.799,1.905c0.4,0.339 0.97,0.695 1.315,1.143Z" style="fill:#3b2645;fill-rule:nonzero;"/><path d="M62.122,44.951c-0.572,1.378 -0.572,2.69 -0.212,4.081c0.166,0.633 0.399,1.252 0.759,1.804c0.119,0.18 1.276,1.218 1.276,1.265c-0.025,0.313 -0.051,0.633 -0.072,0.946c-0.059,0.819 -0.172,3.01 -0.172,3.01c-0,0.12 0.012,0.346 0.031,0.652c0.048,0.879 0.122,1.758 0.208,2.637c0.041,0.499 0.22,1.152 0.247,1.731c0.013,0.207 0.005,0.406 -0.035,0.579c-0.013,0.067 -0.032,0.127 -0.052,0.187c-0.04,0.113 -0.093,0.226 -0.153,0.333c-0.786,1.365 -3.063,2.31 -4.388,2.677c-1.272,0.346 -2.583,0.452 -3.902,0.419c-0.612,-0.007 -1.226,-0.046 -1.831,-0.106c-0.719,-0.074 -1.452,-0.174 -2.111,-0.473c-2.384,-1.079 -2.017,-3.995 -2.411,-6.139c-0.378,-1.998 -0.198,-4.082 -1.384,-5.88c-0.273,-0.399 -0.592,-0.765 -0.806,-1.198c-0.579,-1.145 -0.332,-2.504 0.034,-3.736l2.79,-5.566c0.179,-0.027 0.359,-0.067 0.552,-0.1c0.14,-0.033 0.299,-0.06 0.439,-0.087c0.567,-0.106 1.152,-0.186 1.651,-0.246c-0.692,1.978 -1.751,6.319 0.985,6.792c2.158,0.373 3.804,-1.618 4.775,-3.263c0.645,-1.085 1.013,-2.563 1.698,-3.702c0.3,0.007 0.673,0.03 1.106,0.04c0.026,-0 0.053,-0.007 0.087,0.007c0.106,-0 0.206,0.006 0.319,0.013c0.199,0.013 0.405,0.02 0.626,0.04c0.439,0.013 0.899,0.046 1.332,0.14c0.639,0.146 1.192,0.419 1.445,0.992c-0.2,0.02 -0.401,0.033 -0.594,0.079c-1.039,0.214 -1.837,1.093 -2.237,2.072Z" style="fill:#ff4590;fill-rule:nonzero;"/><path d="M63.732,56.709c-3.369,-3.105 -2.15,-9.441 -2.11,-9.765c0.09,2.077 0.661,4.13 2.323,5.157c-0.093,1.135 -0.162,2.264 -0.218,3.405c-0.008,0.166 -0.021,0.329 -0.027,0.496c-0.003,0.08 0.005,0.335 0.032,0.707Z" style="fill:#de3c7c;fill-rule:nonzero;"/><path d="M21.451,54.928l-1.372,8.274c-1.049,-0.174 -2.042,0.536 -2.215,1.586c-0.174,1.049 0.535,2.041 1.586,2.215l2.46,0.407c1.05,0.174 2.041,-0.535 2.216,-1.585c0.173,-1.05 -0.537,-2.042 -1.587,-2.216l1.372,-8.274c1.05,0.174 2.042,-0.536 2.216,-1.586c0.174,-1.049 -0.536,-2.041 -1.586,-2.215l-2.459,-0.408c-1.051,-0.174 -2.043,0.536 -2.217,1.586c-0.175,1.05 0.535,2.042 1.586,2.216Z" style="fill:#3b2645;fill-rule:nonzero;"/><path d="M44.356,67.588l2.441,8.024c-1.019,0.31 -1.593,1.386 -1.282,2.405c0.309,1.017 1.385,1.591 2.404,1.282l2.384,-0.726c1.019,-0.31 1.594,-1.386 1.284,-2.404c-0.311,-1.018 -1.386,-1.592 -2.406,-1.282l-2.44,-8.024c1.018,-0.309 1.592,-1.386 1.282,-2.404c-0.309,-1.018 -1.386,-1.592 -2.404,-1.282l-2.386,0.725c-1.017,0.31 -1.592,1.387 -1.281,2.405c0.308,1.017 1.385,1.591 2.404,1.281Z" style="fill:#3b2645;fill-rule:nonzero;"/><path d="M24.017,59.823c0.081,-0.313 0.16,-0.636 0.118,-0.956c-0.06,-0.459 -0.361,-0.846 -0.66,-1.198c-0.516,-0.608 -1.09,-1.205 -1.827,-1.513c-0.736,-0.308 -1.675,-0.261 -2.235,0.309c-1.133,1.156 -1.001,3.272 0.618,3.715c1.362,0.372 3.506,1.535 3.986,-0.357Z" style="fill:#f5a784;fill-rule:nonzero;"/><path d="M109.304,104.816c-0.239,0.439 -0.851,0.686 -1.218,1.032c-0.127,0.113 -0.466,0.403 -0.705,0.683c-0.148,-0.16 -0.288,-0.303 -0.446,-0.416c0.06,-0.093 0.105,-0.167 0.145,-0.22c0.287,-0.38 0.607,-0.699 0.972,-0.992c0.301,-0.233 0.62,-0.52 1.02,-0.506c0.205,0.006 0.34,0.233 0.232,0.419Z" style="fill:#fff;fill-rule:nonzero;"/><path d="M109.99,106.394c-0.565,0.619 -1.272,1.045 -1.758,1.752c-0.013,0.026 -0.032,0.046 -0.053,0.059c-0.032,-0.146 -0.066,-0.286 -0.114,-0.413c-0.04,-0.139 -0.085,-0.266 -0.139,-0.393c0.48,-0.619 1.106,-1.218 1.877,-1.337c0.187,-0.027 0.334,0.179 0.187,0.332Z" style="fill:#fff;fill-rule:nonzero;"/><path d="M18.423,109.863c-0.026,0.213 -0.339,0.26 -0.454,0.12c-0.411,-0.493 -0.619,-1.172 -0.904,-1.445c-0.333,-0.319 -0.619,-0.665 -0.893,-1.032c0.114,-0 0.233,0.011 0.352,0.02c0.282,0.021 0.547,0.027 0.794,-0c0.671,0.653 1.212,1.578 1.105,2.337Z" style="fill:#fff;fill-rule:nonzero;"/><path d="M20.148,109.118c-0.02,0.213 -0.267,0.279 -0.394,0.106c-0.46,-0.653 -0.758,-1.358 -1.231,-1.977c0.112,-0.047 0.22,-0.1 0.32,-0.154c0.02,-0.013 0.046,-0.02 0.066,-0.033c0.1,-0.06 0.192,-0.126 0.28,-0.193c0.585,0.626 1.039,1.418 0.959,2.251Z" style="fill:#fff;fill-rule:nonzero;"/><path d="M70.213,69.786c-8.577,-1.052 -16.701,1.451 -16.701,1.451l8.018,-9.228c0.066,0.007 0.132,0.02 0.2,0.033c3.189,0.626 6.012,3.79 8.483,7.744Z" style="fill:#6b779c;fill-rule:nonzero;"/><path d="M64.187,61.077l-0.035,0.579c-0.013,0.067 -0.032,0.127 -0.052,0.187c-0.04,0.113 -0.093,0.226 -0.153,0.333c-0.786,1.365 -3.063,2.31 -4.388,2.677c-1.272,0.346 -2.583,0.452 -3.902,0.419c5.246,-4.661 4.834,-16.786 4.834,-16.786l3.382,4.561c-0.059,0.819 -0.172,3.01 -0.172,3.01c-0,0.12 0.012,0.346 0.031,0.652c0.048,0.879 0.122,1.758 0.208,2.637c0.041,0.499 0.22,1.152 0.247,1.731Z" style="fill:#de3c7c;fill-rule:nonzero;"/><path d="M49.517,69.3c-0.023,-0.001 -0.041,-0.002 -0.065,-0.003c0.018,-0.005 0.039,-0.01 0.061,-0.017l0.004,0.02Zm11.298,-24.872c-0.08,0.491 -0.121,1 -0.192,1.545c-0.183,1.406 -0.164,2.831 -0.04,4.241c0.248,2.817 0.912,5.574 1.302,8.369c0.04,0.275 0.555,2.814 0.196,3.028c-2.63,1.56 -5.263,3.118 -7.891,4.681c-2.014,1.197 -3.768,2.731 -6.243,2.284c-0.982,-0.177 -1.979,-0.436 -2.965,-0.13c-0.662,0.206 -1.223,0.717 -1.354,1.399c-0.327,1.697 1.369,3.849 3.056,3.52c2.768,-0.54 5.496,-1.599 8.125,-2.635c3.784,-1.491 7.633,-3 11.103,-5.136c1.552,-0.956 2.08,-2.951 2.316,-4.639c0.417,-2.982 0.087,-6.073 -0.355,-9.033c-0.222,-1.483 -0.495,-2.958 -0.807,-4.424c-0.302,-1.427 -0.627,-3.105 -1.349,-4.373c-0.6,-1.053 -1.985,-1.81 -3.187,-1.478c-0.165,0.045 -0.326,0.109 -0.466,0.205c-0.201,0.137 -0.352,0.333 -0.488,0.533c-0.46,0.683 -0.65,1.346 -0.761,2.043Z" style="fill:#f5a784;fill-rule:nonzero;"/><path d="M58.541,52.149c-0.839,0.575 -1.657,0.992 -2.71,0.913c-0.808,-0.062 -1.43,-0.611 -2.196,-0.662c-0.025,-0.002 -0.046,0.026 -0.038,0.05c0.292,0.831 1.606,1.087 2.385,1.118c1.037,0.041 2.203,-0.286 2.766,-1.212c0.076,-0.125 -0.079,-0.294 -0.207,-0.207Z" style="fill:#de3c7c;fill-rule:nonzero;"/><path d="M84.999,52.462c-1.571,-0.711 -3.287,-1.047 -4.954,-1.463c-1.427,-0.355 -3.225,-1.126 -4.692,-0.998c-0.14,0.013 -0.239,0.126 -0.205,0.269c0.009,0.039 0.017,0.077 0.027,0.115c0.005,0.026 0.033,0.047 0.059,0.046c0.672,-0.024 1.504,0.388 2.154,0.569c0.926,0.258 1.856,0.499 2.783,0.745c1.562,0.416 3.124,0.908 4.741,1.037c0.166,0.013 0.241,-0.25 0.087,-0.32Z" style="fill:#c1cae3;fill-rule:nonzero;"/><path d="M99.153,41.614c-4.299,-0.632 -8.748,-0.602 -13.087,-0.73c-4.522,-0.133 -9.16,-0.425 -13.674,-0.068c-0.201,0.016 -0.197,0.287 -0,0.308c4.408,0.462 8.92,0.388 13.349,0.562c4.423,0.174 8.914,0.629 13.339,0.47c0.294,-0.011 0.395,-0.494 0.073,-0.542Z" style="fill:#c1cae3;fill-rule:nonzero;"/><path d="M82.184,30.219c-1.722,0.315 -3.413,0.799 -5.13,1.149c-1.468,0.298 -3.149,0.339 -4.505,0.989c-0.026,0.013 -0.018,0.054 0.007,0.061c1.383,0.335 3.003,-0.053 4.387,-0.293c1.82,-0.315 3.664,-0.707 5.375,-1.415c0.301,-0.124 0.194,-0.552 -0.134,-0.491Z" style="fill:#c1cae3;fill-rule:nonzero;"/></g></svg>