<?xml version="1.0" encoding="UTF-8" standalone="no"?><!DOCTYPE svg PUBLIC "-//W3C//DTD SVG 1.1//EN" "http://www.w3.org/Graphics/SVG/1.1/DTD/svg11.dtd"><svg width="100%" height="100%" viewBox="0 0 103 110" version="1.1" xmlns="http://www.w3.org/2000/svg" xmlns:xlink="http://www.w3.org/1999/xlink" xml:space="preserve" xmlns:serif="http://www.serif.com/" style="fill-rule:evenodd;clip-rule:evenodd;stroke-linejoin:round;stroke-miterlimit:2;"><g><path d="M18.496,103.314c-2.763,-0.152 -5.606,-1.215 -7.285,-3.416c-2.333,-3.062 -1.907,-7.459 -3.745,-10.841c-1.402,-2.58 -3.983,-4.319 -5.597,-6.772c-2.723,-4.14 -2.237,-9.756 -0.045,-14.2c2.192,-4.445 5.836,-7.974 9.418,-11.399c3.58,-3.426 7.238,-6.937 9.465,-11.364c2.533,-5.033 3.001,-10.807 4.114,-16.331c2.215,-11 8.001,-22.259 18.334,-26.636c4.904,-2.077 10.362,-2.402 15.688,-2.35c8.724,0.087 17.683,1.188 25.352,5.346c7.669,4.158 13.85,11.87 14.225,20.586c0.388,9.016 -5.265,17.784 -3.554,26.645c0.71,3.68 2.64,6.986 4.211,10.388c1.952,4.227 3.392,8.783 3.373,13.439c-0.021,4.656 -1.638,9.436 -5.043,12.612c-4.984,4.647 -12.566,5.011 -19.335,4.227c-6.77,-0.783 -13.67,-2.439 -20.303,-0.874c-5.275,1.245 -9.848,4.414 -14.634,6.956c-3.942,2.095 -8.266,3.765 -12.799,3.578c-3.991,-0.164 -7.891,0.622 -11.84,0.406Z" style="fill:#f6f6f6;fill-rule:nonzero;"/><path d="M99.768,108.89c-1.085,0.12 -2.177,0.207 -3.282,0.26c-0.313,0.013 -89.637,0.053 -89.637,0.053c-0.06,-0.007 -0.126,-0.007 -0.186,-0.014c-0.479,-0.039 -0.952,-0.079 -1.431,-0.132c-1.226,-0.127 -1.226,-1.772 0,-1.898c0.472,-0.053 0.952,-0.094 1.431,-0.127c0.067,-0.006 0.133,-0.006 0.2,-0.013c0,0 89.31,0.033 89.616,0.046c1.105,0.054 2.197,0.141 3.289,0.26c1.006,0.114 0.999,1.452 0,1.565Z" style="fill:#c6c6c6;fill-rule:nonzero;"/><path d="M38.211,40.511c0.292,-0.022 0.585,-0.064 0.869,-0.113c0.961,-0.164 1.957,-0.391 2.897,-0.128c0.995,0.278 1.407,0.466 2.384,0.268c0.895,-0.181 1.608,0.187 2.53,0.145c0.904,-0.04 1.673,-0.67 2.551,-0.892c1.786,-0.454 3.385,0.759 5.113,0.933c1.036,0.104 1.401,-0.272 2.213,-0.673c0.953,-0.469 2.08,-0.245 3.048,-0.673c0.287,-0.127 0.546,-0.307 0.796,-0.497c0.182,-0.138 0.366,-0.289 0.467,-0.494c0.235,-0.473 -0.052,-1.047 -0.429,-1.418c-0.377,-0.371 -0.853,-0.654 -1.133,-1.102c-0.659,-1.057 -0.611,-3.017 -0.936,-4.255c-0.46,-1.756 -0.399,-3.929 -1.647,-5.372c-1.704,-1.954 -5.283,-2.267 -7.659,-1.749c-2.203,0.491 -4.421,1.525 -5.498,3.621c-0.581,1.131 -0.424,2.296 -0.761,3.499c-0.762,2.724 -2.695,4.978 -5.123,6.374c-0.763,0.438 -1.658,0.903 -1.855,1.76c-0.015,0.071 -0.026,0.148 -0.001,0.217c0.032,0.086 0.113,0.143 0.191,0.189c0.591,0.351 1.287,0.412 1.983,0.36Z" style="fill:#3b2645;fill-rule:nonzero;"/><path d="M61.317,51.676c-0.187,0.439 -0.493,0.832 -0.74,1.245c-0.139,0.246 -0.266,0.559 -0.385,0.938c-0.167,0.56 -0.326,1.259 -0.46,2.051c-0.412,2.364 -0.606,5.547 -0.119,8.223c-1.02,0.4 -3.65,1.292 -6.866,1.391c-4.141,0.127 -7.397,-0.326 -8.596,-1.231c0.306,-1.605 1.012,-4.154 0.873,-7.051l0,-0.067c-0.007,-0.166 -0.033,-0.326 -0.054,-0.492c-0.153,-1.398 -0.349,-2.772 -0.553,-4.155c-0.007,-0.053 -0.012,-0.113 -0.026,-0.167c-0.054,-0.306 -0.106,-0.612 -0.166,-0.919c-0.134,-0.705 -0.293,-1.404 -0.486,-2.11c-0.42,-1.552 -1.053,-3.269 -0.827,-4.914c0.107,-0.819 0.719,-1.214 1.465,-1.418c0.492,-0.135 0.986,-0.193 1.446,-0.247c0.172,-0.02 0.339,-0.033 0.499,-0.053c0.106,-0.013 0.213,-0.027 0.32,-0.033c0.026,-0.007 0.059,-0.007 0.086,-0.014c0.206,-0.026 0.406,-0.04 0.579,-0.053c0.027,-0.007 0.047,-0.007 0.067,-0.007c0.592,-0.06 0.998,-0.079 1.185,-0.119c0.087,-0.007 0.127,-0.027 0.127,-0.047l-0.453,-6.271c0,-0 0.73,-0.122 1.623,-0.128c1.318,-0.008 2.97,0.253 3.137,1.558l0.919,4.342c0,0.02 0.047,0.259 0.047,0.259c0.013,0.02 0.06,0.022 0.14,0.027c0.173,0.01 0.519,0.02 0.952,0.047c0.18,0.013 0.373,0.026 0.579,0.046c0.4,0.027 0.841,0.056 1.279,0.113c0.173,0.023 0.333,0.047 0.479,0.074c0.286,0.033 0.579,0.068 0.872,0.113c0.839,0.13 1.606,0.372 1.825,1.218c0.206,0.786 0.306,1.551 0.459,2.324c0.08,0.413 0.173,0.826 0.314,1.245c0.039,0.113 0.072,0.227 0.119,0.34c0.479,1.265 0.872,2.697 0.34,3.942Z" style="fill:#f5a784;fill-rule:nonzero;"/><path d="M81.059,46.039c0.792,-1.834 1.121,-3.955 1.388,-6.035c0.143,-1.062 0.263,-2.109 0.421,-3.101c0.309,-1.918 0.627,-3.833 1.053,-5.73c0.354,-1.557 0.658,-3.788 1.662,-5.053c0.199,-0.256 0.467,-0.455 0.726,-0.655c0.846,-0.677 1.602,-1.48 2.233,-2.367c0.122,-0.166 0.244,-0.357 0.246,-0.573c0.001,-0.207 -0.174,-0.431 -0.38,-0.403c-0.081,0.01 -0.147,0.055 -0.214,0.099c-1.589,1.026 -4.253,2.108 -5.256,3.753c-0.6,0.97 -0.861,2.292 -1.31,3.346c-0.793,1.883 -1.708,3.638 -2.402,5.551c-0.44,1.216 -2.422,6.557 -2.963,8.021c0,0 -3.886,1.146 -8.784,1.052c-0.418,-0.006 -0.812,-0.124 -1.203,-0.163c-4.232,-0.424 -6.268,-1.014 -7.478,-1.164c-0.708,-0.087 -1.14,-0.02 -1.565,0.304c-5.214,4.012 -4.178,8.755 -4.178,8.755c0,0 26.016,-1.062 28.004,-5.637Zm0.632,-17.49c-0.001,0.024 -0.001,0.048 -0.001,0.072c0.014,-0.025 0.01,-0.046 0.001,-0.072Z" style="fill:#f5a784;fill-rule:nonzero;"/><path d="M48.233,36.156l0.213,2.905c2.109,1.476 4.099,1.416 5.12,1.246l-0.573,-2.721c-0.166,-1.307 -1.832,-1.566 -3.137,-1.558c-0.9,0.005 -1.623,0.128 -1.623,0.128Z" style="fill:#e0855c;fill-rule:nonzero;"/><path d="M45.046,32.867c0.312,-0.797 0.909,-0.686 1.405,-0.405c-0.138,-1.326 -0.103,-2.453 0.185,-3.266c0.914,-2.57 5.996,-3.605 8.579,-0.515c0.589,0.704 0.855,2.087 1.036,3.719c0.548,4.943 -1.702,6.95 -3.324,7.078c-1.467,0.115 -4.402,-0.204 -5.704,-3.383c-1.016,-0.097 -2.695,-1.902 -2.177,-3.228Z" style="fill:#f5a784;fill-rule:nonzero;"/><path d="M51.893,34.709c0.214,-0.049 0.722,0.041 0.806,-0.201c0.069,-0.202 -0.371,-1.327 -0.435,-1.52c-0.07,-0.212 -0.141,-0.403 -0.21,-0.589c0.019,-0.015 0.035,-0.031 0.056,-0.045c0.044,-0.028 0.089,-0.047 0.133,-0.062c0.265,0.775 0.474,1.59 0.722,2.325c0.023,0.065 -0.021,0.139 -0.092,0.143c-0.319,0.02 -0.623,0.112 -0.94,0.138c-0.106,0.009 -0.15,-0.164 -0.04,-0.189Z" style="fill:#e0855c;fill-rule:nonzero;"/><path d="M53.336,30.63c0.295,-0.18 0.865,-0.267 1.114,0.035c0.044,0.055 -0.002,0.147 -0.071,0.149c-0.153,0.004 -0.294,-0.059 -0.447,-0.06c-0.167,-0.001 -0.321,0.05 -0.474,0.112c-0.138,0.056 -0.252,-0.156 -0.122,-0.236Z" style="fill:#3b2645;fill-rule:nonzero;"/><path d="M49.145,31.436c0.14,-0.449 0.897,-0.55 1.243,-0.306c0.079,0.056 0.041,0.177 -0.038,0.208c-0.185,0.074 -0.391,0.018 -0.586,0.051c-0.171,0.029 -0.303,0.116 -0.458,0.185c-0.08,0.035 -0.188,-0.051 -0.161,-0.138Z" style="fill:#3b2645;fill-rule:nonzero;"/><path d="M51.467,35.928c0.312,0.125 0.553,0.281 0.907,0.267c0.277,-0.01 0.564,-0.164 0.831,-0.091c0.042,0.011 0.077,0.06 0.052,0.103c-0.178,0.313 -0.696,0.381 -1.024,0.379c-0.351,-0.002 -0.775,-0.099 -0.979,-0.41c-0.095,-0.146 0.059,-0.31 0.213,-0.248Z" style="fill:#e0855c;fill-rule:nonzero;"/><path d="M53.289,32.345c0.352,0.114 0.692,0.209 1.057,0.073c0.23,-0.085 0.38,-0.282 0.604,-0.377c0.035,0.309 -0.283,0.508 -0.533,0.609c-0.386,0.157 -0.85,0.115 -1.218,-0.069c-0.127,-0.063 -0.048,-0.281 0.09,-0.236Z" style="fill:#3b2645;fill-rule:nonzero;"/><path d="M48.926,32.838c0.494,0.131 1.323,0.437 1.567,-0.268c0.039,-0.112 0.181,-0.091 0.2,0.021c0.062,0.39 -0.412,0.613 -0.726,0.673c-0.387,0.075 -0.87,0.018 -1.131,-0.301c-0.048,-0.058 0.026,-0.142 0.09,-0.125Z" style="fill:#3b2645;fill-rule:nonzero;"/><path d="M46.184,26.693c0.537,-0.454 1.12,-0.869 1.78,-1.11c1.084,-0.395 2.278,-0.293 3.427,-0.194c1.216,0.105 2.474,0.212 3.545,0.798c0.968,0.529 2.344,2.202 1.503,3.365c-0.817,1.131 -3.025,-0.886 -3.664,-1.5c-0.265,0.799 -1.193,1.167 -2.03,1.253c-0.836,0.087 -1.715,0.001 -2.489,0.333c-0.517,0.222 -0.884,0.665 -1.233,1.09c-0.14,0.169 -0.28,0.34 -0.378,0.536c-0.174,0.352 -0.196,0.757 -0.216,1.15c-0.153,-0.222 -0.457,-0.269 -0.727,-0.28c-0.269,-0.009 -0.564,-0.01 -0.771,-0.182c-0.149,-0.125 -0.223,-0.318 -0.283,-0.503c-0.209,-0.641 -0.061,-1.448 -0.055,-2.122c0.009,-1.205 0.694,-1.875 1.591,-2.634Z" style="fill:#3b2645;fill-rule:nonzero;"/><path d="M20.419,78.049c0,0 -0.419,1.809 -1.532,3.233c-0.779,0.998 -2.142,3.438 -2.106,4.367c0,0 0.049,0.172 0.177,0.408c0.019,0.034 0.038,0.07 0.064,0.104c0.129,0.204 0.316,0.44 0.596,0.642c0.02,0.015 0.042,0.032 0.066,0.049c0.199,0.14 0.446,0.266 0.742,0.341c0.025,0.006 0.05,0.011 0.074,0.017c0.227,0.056 0.482,0.092 0.77,0.094c0,0 1.255,-2.537 1.955,-3.186c0,0 -0.352,1.711 0.064,2.065l0.371,0.059c0,-0 0.588,-1.797 0.924,-2.574c0.817,-1.889 0.182,-3.874 0.182,-3.874c0,-0 -1.113,-2.566 -2.347,-1.745Z" style="fill:#f5a784;fill-rule:nonzero;"/><path d="M18.426,87.193c0.025,0.005 0.05,0.011 0.074,0.017c0.47,-1.179 1.12,-2.249 1.749,-3.368c0.012,-0.021 -0.018,-0.046 -0.036,-0.028c-0.865,0.968 -1.397,2.153 -1.787,3.379Z" style="fill:#e0855c;fill-rule:nonzero;"/><path d="M17.618,86.803c0.02,0.015 0.042,0.032 0.066,0.049c0.471,-1.182 1.119,-2.249 1.745,-3.37c0.012,-0.021 -0.019,-0.046 -0.033,-0.026c-0.86,0.959 -1.39,2.132 -1.778,3.347Z" style="fill:#e0855c;fill-rule:nonzero;"/><path d="M16.958,86.057c0.018,0.034 0.038,0.07 0.064,0.104c0.458,-1.108 1.073,-2.122 1.666,-3.18c0.014,-0.021 -0.017,-0.046 -0.034,-0.027c-0.826,0.873 -1.316,1.976 -1.696,3.103Z" style="fill:#e0855c;fill-rule:nonzero;"/><path d="M45.11,42.98c0,0 5.794,1.493 1.716,5.249c-5.238,4.828 -13.336,12.689 -15.866,16.187c-2.529,3.498 -8.638,16.332 -8.638,16.332l-2.468,-1.119c0,0 4.696,-13.402 7.537,-18.065c2.84,-4.664 13.303,-19.683 17.719,-18.584Z" style="fill:#f5a784;fill-rule:nonzero;"/><path d="M51.87,75.634c12.52,2.82 28.125,4.461 28.125,4.461c-0.366,1.666 -0.057,4.881 0.516,8.421c1.154,7.103 3.375,15.547 3.375,15.547c2.293,0.694 3.994,-0.719 3.994,-0.719c-0.326,-7.262 1.496,-27.08 -1.987,-29.375c-5.807,-3.825 -26.794,-10.09 -30.322,-10.356c-2.433,-0.178 -4.809,0.244 -5.863,2.186c-0.443,0.819 -0.657,1.918 -0.535,3.351c0.016,0.178 0.035,0.353 0.061,0.527c0.719,4.766 -3.122,4.659 2.636,5.957Z" style="fill:#f5a784;fill-rule:nonzero;"/><path d="M56.704,65.117c0.042,0.191 -4.357,21.456 -16.456,27.559c-7.888,3.978 -16.59,6.578 -25.264,8.191c-0.357,0.066 -0.717,0.133 -1.074,0.188c-0.042,0.966 0.079,2.194 0.528,3.051c0.36,0.687 0.774,1.394 1.538,1.675c0.14,0.052 0.289,0.091 0.403,0.186c0.316,0.261 0.186,0.813 -0.144,1.055c-0.33,0.242 -0.768,0.262 -1.177,0.271c-1.384,0.032 -2.95,0.15 -3.608,-1.226c-0.409,-0.853 -0.733,-1.765 -1.027,-2.662c-0.466,-1.419 -1.871,-5.245 0.044,-5.751c6.415,-1.692 22.63,-10.219 25.347,-11.765c2.455,-1.397 4.947,-16.022 8.967,-20.498c4.019,-4.476 11.221,-3.424 11.923,-0.274Z" style="fill:#f5a784;fill-rule:nonzero;"/><path d="M83.543,102.721c0.049,0.437 0.082,0.878 0.105,1.318c0.053,1.052 -0.704,2.305 0.299,3.074c0.536,0.411 1.266,0.351 1.887,0.39c1.363,0.086 2.729,0.029 4.092,-0.017c0.895,-0.029 1.787,-0.071 2.681,-0.122c0.743,-0.042 1.906,0.097 2.536,-0.32c0.08,-0.053 0.159,-0.122 0.181,-0.219c0.018,-0.085 -0.011,-0.174 -0.053,-0.249c-0.162,-0.296 -0.482,-0.444 -0.784,-0.556c-1.366,-0.508 -2.826,-0.685 -4.18,-1.224c-1.039,-0.413 -2.064,-1.101 -2.653,-2.129c-0.422,-0.736 -0.46,-1.56 -1.276,-1.948c-1.301,-0.619 -3.014,0.366 -2.835,2.002Z" style="fill:#f5a784;fill-rule:nonzero;"/><path d="M87.904,96.843c-2.291,1.563 -5.697,0.263 -5.697,0.263c-2.928,-5.785 -3.158,-16.307 -3.158,-16.307c0,0 -16.785,-1.329 -23.429,-1.329c-1.441,0 -2.532,0.312 -3.433,0.864c-3.262,1.998 -4.049,7.108 -9.791,11.888c-7.327,6.104 -20.965,6.956 -20.965,6.956c-1.981,-1.569 -1.866,-5.215 -1.866,-5.215c0,0 2.067,-2.697 5.937,-5.038c0.706,-0.435 1.482,-0.851 2.309,-1.237c5.184,-2.427 7.682,-4.486 7.838,-4.615c2.572,-9.315 8.576,-19.147 8.576,-19.147c8.119,2.028 15.237,-0.816 15.237,-0.816c-0.516,-0.154 24.421,8.145 27.431,10.648c2.967,2.468 3.302,21.516 1.011,23.085Z" style="fill:#ff4590;fill-rule:nonzero;"/><path d="M79.049,80.799c0,0 -16.785,-1.329 -23.429,-1.329c-1.441,0 -2.532,0.312 -3.433,0.864c0.028,-0.19 0.746,-4.167 7.373,-3.965c6.787,0.208 19.489,4.43 19.489,4.43Z" style="fill:#eb3f84;fill-rule:nonzero;"/><path d="M31.451,88.576c-2.165,0.472 -4.335,0.466 -5.949,0.349c0.706,-0.435 1.482,-0.851 2.309,-1.237c5.184,-2.427 7.682,-4.486 7.838,-4.615c0,0 0.103,4.566 -4.198,5.503Z" style="fill:#eb3f84;fill-rule:nonzero;"/><path d="M61.317,51.676c-0.187,0.439 -0.493,0.832 -0.74,1.245c-0.052,0.093 -0.106,0.193 -0.146,0.306c-0.086,0.187 -0.166,0.393 -0.239,0.632c-0.033,0.114 -0.067,0.234 -0.101,0.353c-0.126,0.493 -0.253,1.066 -0.359,1.698l-14.708,1.332l0,-0.067c-0.007,-0.166 -0.033,-0.326 -0.054,-0.492c-0.033,-0.293 -0.173,-1.505 -0.213,-1.818c-0.099,-0.779 -0.223,-1.555 -0.34,-2.337c-0.007,-0.053 -0.012,-0.113 -0.026,-0.167c-0.054,-0.306 -0.106,-0.612 -0.166,-0.919c0.672,-1.797 1.817,-5.42 1.598,-8.689c0.172,-0.02 0.339,-0.033 0.499,-0.053c0.106,-0.013 0.213,-0.027 0.32,-0.033c0.026,-0.007 0.059,-0.007 0.086,-0.014c0.206,-0.026 0.406,-0.04 0.579,-0.053c0.387,1.805 1.658,5.94 5.094,5.14c3.217,-0.752 3.369,-3.855 3.229,-5.433c0.4,0.027 0.839,0.067 1.279,0.113c0.006,0.453 0.653,1.185 0.899,1.512c0.373,0.499 0.792,0.959 1.191,1.431c1.452,1.718 3.357,3.889 2.318,6.313Z" style="fill:#3b2645;fill-rule:nonzero;"/><path d="M60.431,53.227c-0.086,0.187 -0.166,0.393 -0.239,0.632c-0.033,0.114 -0.067,0.234 -0.101,0.353c-2.443,0.014 -4.893,0.127 -7.33,0.373c-2.045,0.207 -4.082,0.493 -6.106,0.853c-0.586,0.106 -1.185,0.239 -1.785,0.366c-0.033,-0.313 -0.073,-0.626 -0.113,-0.939c0.766,-0.16 1.531,-0.286 2.271,-0.42c1.698,-0.306 3.395,-0.559 5.107,-0.745c2.749,-0.306 5.52,-0.473 8.296,-0.473Z" style="fill:#8695c2;fill-rule:nonzero;"/><path d="M67.815,11.857c-0.009,-0.232 -0.351,-0.292 -0.414,-0.056c-0.635,2.371 -0.675,4.984 -0.822,7.423c-0.16,2.677 -0.259,5.347 -0.22,8.03c0.002,0.173 0.252,0.168 0.264,0c0.205,-2.569 0.371,-5.142 0.595,-7.71c0.22,-2.525 0.693,-5.151 0.597,-7.687Z" style="fill:#c1cae3;fill-rule:nonzero;"/><path d="M77.159,12.386c-2.605,1.843 -4.184,4.972 -5.129,7.938c-0.109,0.34 0.392,0.455 0.522,0.143c1.218,-2.924 3.109,-5.229 4.88,-7.807c0.111,-0.162 -0.111,-0.389 -0.273,-0.274Z" style="fill:#c1cae3;fill-rule:nonzero;"/><path d="M85.868,15.595c-2.331,1.191 -4.508,2.831 -6.643,4.336c-0.253,0.178 -0.037,0.562 0.244,0.418c2.34,-1.2 4.786,-2.525 6.779,-4.26c0.282,-0.245 -0.077,-0.65 -0.38,-0.494Z" style="fill:#c1cae3;fill-rule:nonzero;"/></g></svg>