<?xml version="1.0" encoding="UTF-8" standalone="no"?><!DOCTYPE svg PUBLIC "-//W3C//DTD SVG 1.1//EN" "http://www.w3.org/Graphics/SVG/1.1/DTD/svg11.dtd"><svg width="100%" height="100%" viewBox="0 0 97 123" version="1.1" xmlns="http://www.w3.org/2000/svg" xmlns:xlink="http://www.w3.org/1999/xlink" xml:space="preserve" xmlns:serif="http://www.serif.com/" style="fill-rule:evenodd;clip-rule:evenodd;stroke-linejoin:round;stroke-miterlimit:2;"><g><path d="M52.051,97.907c-5.969,-0.829 -12.044,-0.885 -18.027,-0.167c-4.051,0.486 -8.122,1.328 -12.178,0.89c-4.058,-0.439 -8.239,-2.459 -9.95,-6.163c-2.629,-5.687 1.414,-11.984 4.082,-17.652c3.689,-7.838 4.843,-16.844 3.251,-25.358c-0.844,-4.509 -2.438,-8.917 -2.524,-13.504c-0.136,-7.336 3.615,-14.22 8.223,-19.93c5.15,-6.383 11.685,-11.896 19.461,-14.507c7.775,-2.61 16.888,-1.976 23.496,2.883c4.988,3.669 8.178,9.405 9.721,15.402c1.542,5.997 1.566,12.28 1.183,18.46c-0.342,5.528 -0.984,11.211 0.65,16.503c1.874,6.068 6.524,10.895 8.974,16.754c2.287,5.47 2.545,11.542 2.771,17.466c0.152,3.984 0.289,8.076 -1.013,11.844c-1.563,4.526 -5.052,8.129 -8.82,11.082c-1.943,1.523 -4.212,2.981 -6.672,2.776c-1.709,-0.143 -3.241,-1.076 -4.652,-2.049c-3.523,-2.43 -6.787,-5.274 -9.642,-8.466c-2.851,-3.187 -3.695,-5.62 -8.334,-6.264Z" style="fill:#f6f6f6;fill-rule:nonzero;"/><path d="M95.456,121.838c-1.085,0.12 -2.178,0.207 -3.282,0.26c-0.314,0.013 -89.637,0.053 -89.637,0.053c-0.059,-0.007 -0.126,-0.007 -0.186,-0.014c-0.48,-0.039 -0.953,-0.079 -1.432,-0.132c-1.225,-0.127 -1.225,-1.772 -0,-1.898c0.473,-0.053 0.952,-0.094 1.432,-0.127c0.066,-0.006 0.133,-0.006 0.2,-0.013c-0,0 89.309,0.033 89.616,0.046c1.105,0.054 2.197,0.141 3.289,0.26c1.005,0.114 0.999,1.452 -0,1.565Z" style="fill:#c6c6c6;fill-rule:nonzero;"/><path d="M57.977,72.374c0.127,8.755 -6.439,10.174 -13.643,11.206c-7.198,1.032 -13.024,5.027 -13.024,5.027c-0,0 1.211,5.6 -0.08,11.213c-0.672,2.909 -1.085,5.586 -1.332,7.91c-0.599,5.547 -0.266,9.089 -0.266,9.089l-4.634,0c-0,0 -0.706,-4.428 -1.259,-10.108c-0.652,-6.705 -1.085,-15.155 0.1,-20.168c2.191,-9.276 25.636,-19.456 25.636,-19.456c-0,0 8.376,-3.475 8.502,5.287Z" style="fill:#f5a784;fill-rule:nonzero;"/><path d="M60.767,82.774c-5.867,4.694 -8.656,9.009 -8.656,9.009c1.312,2.97 1.145,10.154 0.712,14.628c-0.052,0.56 -0.08,1.146 -0.08,1.745c-0.046,4.228 0.952,9.122 0.952,9.122l-5.053,0.686c-0,0 -4.102,-24.11 -4.495,-27c-1.065,-7.864 9.915,-25.162 9.915,-25.162c-0,0 6.778,-10.447 10.181,-1.465c3.408,8.976 2.383,13.736 -3.476,18.437Z" style="fill:#f5a784;fill-rule:nonzero;"/><path d="M49.746,45.66c-0,0 -7.377,5.55 -11.86,12.519c-4.485,6.97 -3.904,7.123 -3.904,7.123c-0,0 5.96,-1.001 13.213,-7.461c7.252,-6.46 4.375,-13.751 2.551,-12.181Z" style="fill:#e0855c;fill-rule:nonzero;"/><path d="M65.875,51.341c-0.244,1.019 -0.422,2.024 -0.56,3.043c-0.204,1.438 -0.317,2.883 -0.434,4.341c-0.013,0.167 -0.027,0.327 -0.04,0.493c-0.032,0.393 -0.063,5.387 0.226,6.559c0.04,0.159 0.079,0.247 0.132,0.247c-0.333,0.081 -0.664,0.162 -0.984,0.23c-1.717,0.389 -3.309,0.631 -4.774,0.767c-1.683,0.156 -3.195,0.171 -4.534,0.1c-0.539,-0.032 -1.078,-0.075 -1.618,-0.134c-0.18,-0.08 -0.352,-0.166 -0.525,-0.246c-1.127,-0.538 -1.781,-0.989 -1.781,-0.989c-0.027,-0.02 -0.052,-0.081 -0.065,-0.161c-0.081,-0.333 -0.084,-1.058 -0.104,-1.197c-0.128,-1.006 -0.285,-2.009 -0.44,-3.014c-0.316,-2.011 -0.078,-4.09 -1.214,-5.918c-0.261,-0.406 -0.576,-0.786 -0.777,-1.225c-0.574,-1.224 -0.224,-2.669 0.213,-3.949c0.457,-1.339 0.468,-2.603 0.765,-3.936c0.257,-1.138 1.557,-1.242 2.656,-1.417c0.146,-0.027 0.304,-0.056 0.444,-0.08c1.427,-0.245 2.963,-0.312 2.963,-0.312l0.831,-4.648c0.209,-2.205 4.712,-1.581 4.712,-1.581l-0.256,6.279c-0,0.086 0.7,0.071 1.899,0.162c0.02,0 0.046,0.006 0.067,0.006c0.026,0 0.059,0 0.086,0.007c0.106,0.007 0.213,0.016 0.32,0.027c0.598,0.059 1.318,0.075 1.951,0.234c0.752,0.185 1.378,0.558 1.513,1.37c0.276,1.638 -0.302,3.376 -0.672,4.942Z" style="fill:#f5a784;fill-rule:nonzero;"/><path d="M60.967,38.314l-0.075,1.832c-1.733,2.94 -4.082,3.311 -5.268,3.28l0.631,-3.531c0.209,-2.205 4.712,-1.581 4.712,-1.581Z" style="fill:#e0855c;fill-rule:nonzero;"/><path d="M63.49,27.417c-0.338,0.447 -0.757,0.787 -1.216,1.014c-0.379,0.194 -0.832,0.308 -1.297,0.349c-1.565,0.149 -3.351,-0.56 -3.68,-2.123c-0.343,-1.671 0.312,-3.917 2.056,-4.539c0.432,-0.154 0.898,-0.188 1.357,-0.189l0.439,-0.001c0.48,-0.001 0.973,0.018 1.406,0.224c0.273,0.126 0.5,0.325 0.707,0.545c1.161,1.256 1.259,3.36 0.228,4.72Z" style="fill:#3b2645;fill-rule:nonzero;"/><path d="M63.49,27.417c-0.338,0.447 -0.757,0.787 -1.216,1.014c-0.379,0.194 -0.832,0.308 -1.297,0.349l-1.901,-1.268c-0,0 2.358,-0.064 2.887,-1.763c0.43,-1.366 0.433,-2.938 -0.814,-3.821c0.48,-0.001 0.973,0.018 1.406,0.224c0.273,0.126 0.5,0.325 0.707,0.545c1.161,1.256 1.259,3.36 0.228,4.72Z" style="fill:#25182b;fill-rule:nonzero;"/><path d="M52.368,35.492c-0.013,-0.608 -0.061,-1.207 -0.135,-1.811c-0.061,-0.506 -0.243,-0.975 -0.302,-1.485c-0.12,-1.039 0.16,-2.129 0.806,-2.956c0.646,-0.826 1.664,-1.412 2.66,-1.709c0.808,-0.242 1.698,-0.341 2.555,-0.268c0.793,0.067 1.68,0.212 2.438,0.452c1.135,0.359 2.208,0.983 2.917,1.962c1.094,1.512 1.115,3.568 0.498,5.275c-0.145,0.4 -0.326,0.791 -0.565,1.143c-0.436,0.644 -1.321,0.957 -2.028,1.179c-1.077,0.337 -2.213,0.503 -3.338,0.563c-1.108,0.058 -2.25,0.02 -3.332,-0.248c-0.744,-0.184 -1.646,-0.509 -2.021,-1.238c-0.133,-0.258 -0.146,-0.507 -0.151,-0.79c-0.001,-0.023 -0.001,-0.046 -0.002,-0.069Z" style="fill:#3b2645;fill-rule:nonzero;"/><path d="M63.27,34.442c-0.36,-0.573 -0.882,-0.397 -1.306,-0.091c0.04,-1.09 -0.048,-2.021 -0.318,-2.711c-0.996,-2.54 -6.108,-3.413 -8.591,-0.242c-0.567,0.723 -0.788,2.113 -0.917,3.75c-0.391,4.958 1.922,6.892 3.548,6.968c1.537,0.072 4.663,-0.388 5.744,-4.03c1.199,-0.669 2.401,-2.747 1.84,-3.644Z" style="fill:#f5a784;fill-rule:nonzero;"/><path d="M54.417,35.573c-0,0 -0.437,0.14 -0.336,-0.618c0.09,-0.68 0.392,-0.574 0.392,-0.574c-0,0 0.298,0.012 0.225,0.608c-0.073,0.595 -0.281,0.584 -0.281,0.584Z" style="fill:#3b2645;fill-rule:nonzero;"/><path d="M58.478,35.861c-0,0 -0.437,0.14 -0.337,-0.617c0.09,-0.681 0.391,-0.574 0.391,-0.574c-0,0 0.299,0.011 0.226,0.607c-0.072,0.596 -0.28,0.584 -0.28,0.584Z" style="fill:#3b2645;fill-rule:nonzero;"/><path d="M56.568,37.317c-0.216,-0.043 -0.72,0.064 -0.812,-0.176c-0.076,-0.199 0.327,-1.337 0.386,-1.532c0.064,-0.215 0.128,-0.407 0.19,-0.595c-0.019,-0.015 -0.035,-0.031 -0.056,-0.043c-0.046,-0.028 -0.09,-0.045 -0.136,-0.059c-0.24,0.784 -0.423,1.605 -0.647,2.348c-0.02,0.065 0.026,0.137 0.097,0.14c0.318,0.009 0.625,0.091 0.943,0.108c0.107,0.005 0.146,-0.169 0.035,-0.191Z" style="fill:#e0855c;fill-rule:nonzero;"/><path d="M54.995,33.286c-0.301,-0.171 -0.873,-0.239 -1.111,0.071c-0.044,0.056 0.006,0.147 0.075,0.146c0.152,0 0.291,-0.068 0.444,-0.074c0.167,-0.006 0.324,0.039 0.478,0.096c0.14,0.052 0.246,-0.163 0.114,-0.239Z" style="fill:#3b2645;fill-rule:nonzero;"/><path d="M59.21,33.958c-0.154,-0.445 -0.915,-0.521 -1.252,-0.266c-0.077,0.058 -0.035,0.177 0.044,0.207c0.186,0.067 0.392,0.005 0.587,0.032c0.173,0.024 0.307,0.106 0.465,0.17c0.081,0.033 0.186,-0.056 0.156,-0.143Z" style="fill:#3b2645;fill-rule:nonzero;"/><path d="M57.032,38.522c-0.308,0.135 -0.544,0.298 -0.898,0.296c-0.277,-0.001 -0.569,-0.147 -0.834,-0.065c-0.042,0.013 -0.074,0.062 -0.048,0.105c0.187,0.306 0.708,0.359 1.035,0.346c0.352,-0.013 0.771,-0.124 0.965,-0.441c0.092,-0.149 -0.067,-0.308 -0.22,-0.241Z" style="fill:#e0855c;fill-rule:nonzero;"/><path d="M61.873,34.434c-0.013,0.019 -0.024,0.039 -0.035,0.059c-0.039,0.075 -0.067,0.157 -0.118,0.224c-0.051,0.067 -0.133,0.121 -0.217,0.106c-0.098,-0.017 -0.245,-0.166 -0.309,-0.241c-0.483,-0.565 -0.523,-1.353 -0.476,-2.058c0.132,-1.992 -1.342,-1.845 -2.351,-2.304c-1.009,-0.459 -0.915,-0.868 -0.915,-0.868c-0,0 -0.658,0.545 -1.622,0.563c-0.964,0.018 -1.548,0.416 -1.58,1.239c-0.031,0.824 -1.478,0.479 -1.66,1.187c-0.183,0.708 0.058,-1.261 0.058,-1.261l2.314,-2.517l3.188,-0.265l2.857,1.219l1.803,1.547c0.174,0.833 0.816,2.343 -0.188,2.889c-0.161,0.088 -0.343,0.132 -0.497,0.229c-0.101,0.064 -0.187,0.151 -0.252,0.252Z" style="fill:#3b2645;fill-rule:nonzero;"/><path d="M66.533,48.424c-0.139,0.992 -0.431,1.984 -0.658,2.917c-0.239,1.018 -0.42,2.024 -0.56,3.043c-0.2,1.438 -0.321,2.883 -0.434,4.341c-0.013,0.167 -0.027,0.327 -0.04,0.493c-0.006,0.086 -0.013,0.405 -0.013,0.851c-0.019,1.578 0.013,4.796 0.239,5.708c-0.28,0.2 -0.552,0.357 -0.852,0.477c-1.444,0.612 -3.341,0.637 -4.734,0.767c-1.543,0.143 -3.062,0.187 -4.574,0.1c-0.539,-0.033 -1.078,-0.074 -1.618,-0.134c-0.18,-0.08 -0.354,-0.163 -0.525,-0.246c-0.936,-0.455 -1.607,-0.964 -1.846,-1.15c-0.061,-0.047 -0.092,-0.069 -0.092,-0.069c-0.146,-0.099 -0.292,-3.137 -0.452,-4.142c-0.312,-2.011 -0.082,-4.087 -1.214,-5.918c-0.26,-0.407 -0.577,-0.785 -0.777,-1.225c-0.572,-1.225 -0.22,-2.67 0.213,-3.949c0.46,-1.338 0.466,-2.604 0.765,-3.936c0.26,-1.138 1.557,-1.244 2.656,-1.417c1.904,1.179 4.215,1.331 6.379,1.025c1.085,-0.153 2.151,-0.426 3.197,-0.772c0.352,-0.114 0.69,-0.266 1.017,-0.433c0.02,0 0.046,0.006 0.067,0.006c0.026,0 0.059,0 0.086,0.007c0.106,0.007 0.213,0.016 0.32,0.027c0.598,0.06 1.318,0.081 1.951,0.234c0.752,0.187 1.379,0.558 1.513,1.37c0.113,0.666 0.086,1.345 -0.014,2.025Z" style="fill:#3b2645;fill-rule:nonzero;"/><path d="M39.059,47.218c0.005,-0.02 0.004,-0.041 0.01,-0.061c0.001,0.02 0.008,0.04 0.009,0.06l-0.019,0.001Zm3.586,-4.338c-0.595,-1.087 -2.088,-1.847 -3.318,-1.613c-0.079,0.017 -0.158,0.034 -0.23,0.057c-0.796,0.242 -1.25,1.116 -1.3,1.944c-0.043,0.835 0.226,1.643 0.435,2.447c0.641,2.431 -0.749,4.299 -1.782,6.404c-0.587,1.186 -1.18,2.379 -1.767,3.571c-0.844,1.717 -2.244,3.812 -2.418,5.739c-0.032,0.348 -0.023,0.701 0.02,1.053c0.09,0.689 0.333,1.364 0.733,1.94c0.249,0.362 0.577,0.694 1.003,0.822c0.479,0.145 1.012,0.008 1.433,-0.271c1.503,-0.986 1.969,-2.66 2.605,-4.241c1.105,-2.728 2.006,-5.534 2.862,-8.351c0.826,-2.703 1.668,-5.506 1.983,-8.307c0.049,-0.415 -0.05,-0.824 -0.259,-1.194Z" style="fill:#f5a784;fill-rule:nonzero;"/><path d="M30.338,118.257l-0.007,0.067c-0.007,0.073 -0.032,0.147 -0.053,0.213c-0.138,0.435 -0.512,0.766 -0.925,0.972c-0.134,0.053 -0.281,0.107 -0.42,0.16c-0.393,0.126 -0.806,0.173 -1.225,0.219c-2.171,0.28 -4.169,0.966 -6.399,0.973c-1.331,0 -4.069,-0.087 -4.188,-1.938c-0,0 -0,-0.034 0.006,-0.094l-0,-0.059c0.014,-0.194 0.08,-0.52 0.293,-0.886c0.353,-0.599 1.152,-1.251 2.891,-1.351c0.206,-0.014 0.405,-0.027 0.585,-0.061c0.147,-0.026 0.293,-0.06 0.419,-0.099c0.081,-0.02 0.154,-0.04 0.227,-0.06c0.06,-0.02 0.113,-0.04 0.173,-0.06c0.02,-0.007 0.04,-0.02 0.06,-0.027c0.04,-0.02 0.086,-0.04 0.12,-0.06c0.053,-0.027 0.106,-0.047 0.16,-0.08c0.179,-0.086 0.34,-0.199 0.486,-0.306c0.02,-0.007 0.046,-0.02 0.06,-0.04c0.08,-0.066 0.153,-0.126 0.219,-0.186c0.08,-0.08 0.147,-0.16 0.213,-0.247c0.033,-0.013 0.054,-0.04 0.073,-0.066c0.014,-0.007 0.034,-0.027 0.04,-0.04c0.014,-0.014 0.027,-0.027 0.041,-0.04c0.132,-0.167 0.252,-0.32 0.373,-0.48c0.413,-0.565 0.718,-1.025 1.297,-1.032c0.22,0 0.447,0.027 0.673,0.067c1.212,0.213 2.457,0.959 2.198,2.091c-0,0 1.651,0.233 2.031,-0.686c0.159,-0.373 0.299,-0.28 0.392,-0.087c0.053,0.12 0.087,0.28 0.107,0.407c0.08,0.592 -0.113,1.192 -0.02,1.811c0.006,0.079 0.027,0.159 0.033,0.24c0.053,0.259 0.093,0.512 0.067,0.765Z" style="fill:#8695c2;fill-rule:nonzero;"/><path d="M54.574,118.677c-0,0.073 -0.012,0.146 -0.026,0.219c-0.087,0.446 -0.4,0.826 -0.786,1.086c-0.126,0.073 -0.259,0.146 -0.393,0.219c-0.373,0.173 -0.778,0.273 -1.179,0.38c-2.117,0.566 -4.007,1.518 -6.218,1.818c-1.319,0.179 -4.041,0.466 -4.408,-1.352c-0,0 -0,-0.034 -0.006,-0.093l-0.007,-0.06c-0.014,-0.194 0.007,-0.527 0.173,-0.919c0.266,-0.639 0.972,-1.392 2.676,-1.725c0.206,-0.04 0.4,-0.086 0.579,-0.139c0.034,-0.014 0.061,-0.02 0.094,-0.034c0.107,-0.033 0.205,-0.075 0.306,-0.12c0.126,-0.055 0.239,-0.108 0.353,-0.166c0.039,-0.021 0.06,-0.033 0.081,-0.04c0.039,-0.027 0.079,-0.053 0.112,-0.08c0.16,-0.093 0.306,-0.206 0.439,-0.333c0.054,-0.04 0.101,-0.086 0.147,-0.133c0.02,-0.013 0.04,-0.026 0.053,-0.053c0.074,-0.074 0.14,-0.147 0.201,-0.22c0.059,-0.086 0.119,-0.167 0.173,-0.26c0.026,-0.026 0.046,-0.053 0.059,-0.079c0.014,-0.007 0.033,-0.034 0.04,-0.047c0.127,-0.2 0.236,-0.378 0.34,-0.566c0.337,-0.613 0.565,-1.119 1.145,-1.198c0.213,-0.027 0.44,-0.034 0.679,-0.027c1.226,0.046 2.557,0.619 2.457,1.778c0.047,0 1.671,-0.007 1.918,-0.953c0.107,-0.393 0.26,-0.319 0.379,-0.139c0.066,0.106 0.12,0.266 0.153,0.385c0.166,0.58 0.065,1.196 0.227,1.798c0.021,0.08 0.047,0.16 0.066,0.234c0.087,0.246 0.161,0.492 0.167,0.752l0.006,0.067Z" style="fill:#8695c2;fill-rule:nonzero;"/><path d="M57.977,72.374c0.093,6.678 -3.696,9.088 -8.703,10.307c-1.557,0.386 -3.229,0.652 -4.94,0.899c-0.979,0.14 -1.931,0.333 -2.844,0.566c-5.826,1.478 -10.18,4.461 -10.18,4.461c-0,0 1.211,5.6 -0.08,11.213c-0.672,2.909 -1.085,5.586 -1.332,7.91c-1.684,-0.127 -4.108,-0.413 -6.159,-1.019c-0.652,-6.705 -1.085,-15.155 0.1,-20.168c2.191,-9.276 25.636,-19.456 25.636,-19.456c-0,0 8.376,-3.475 8.502,5.287Z" style="fill:#3b2645;fill-rule:nonzero;"/><path d="M49.274,82.681c-1.557,0.386 -3.229,0.652 -4.94,0.899c-0.979,0.14 -1.931,0.333 -2.844,0.566c1.665,-2.737 8.231,-13.23 12.406,-15.834c3.128,-1.95 -1.206,7.505 -4.622,14.369Z" style="fill:#25182b;fill-rule:nonzero;"/><path d="M60.767,82.774c-5.867,4.694 -8.656,9.009 -8.656,9.009c1.312,2.97 1.145,10.154 0.712,14.628c-0.052,0.56 -0.08,1.146 -0.08,1.745c-1.957,0.113 -3.955,-0.227 -5.905,-0.659c-1.072,-6.292 -2.298,-13.643 -2.691,-16.533c-1.065,-7.864 9.915,-25.162 9.915,-25.162c-0,0 7,-10.694 10.402,-1.712c3.409,8.976 2.162,13.983 -3.697,18.684Z" style="fill:#3b2645;fill-rule:nonzero;"/><path d="M66.533,48.424c-0.139,0.992 -0.431,1.984 -0.658,2.917c-0.239,1.018 -0.42,2.024 -0.56,3.043c-0.2,1.438 -0.321,2.883 -0.434,4.341c-0.013,0.167 -0.027,0.327 -0.04,0.493c-0.006,0.086 -0.013,0.405 -0.013,0.851c-5.34,4.694 -9.201,6.099 -9.201,6.099c-0,0 7.504,-17.378 10.56,-17.738c0.12,-0.013 0.24,-0.013 0.346,-0.006Z" style="fill:#25182b;fill-rule:nonzero;"/><path d="M47.145,48.491c0.004,-0.022 0.008,-0.04 0.014,-0.063c0.001,0.02 0.003,0.04 0.006,0.064l-0.02,-0.001Zm15.581,9.71c1.524,-2.246 2.878,-4.615 3.92,-7.09c0.424,-1.01 0.798,-2.08 0.731,-3.174c-0.082,-1.344 -1.064,-2.847 -2.571,-2.741c-1.169,0.082 -2.609,1.298 -3.336,2.149c-0.725,0.848 -1.263,1.835 -1.812,2.806c-1.831,3.24 -3.836,6.392 -6.163,9.297c-0.417,0.521 -0.859,1.046 -1.445,1.366c-0.582,-1.049 -0.895,-2.355 -1.322,-3.48c-0.472,-1.241 -0.951,-2.481 -1.423,-3.722c-0.833,-2.19 -2.043,-4.182 -1.177,-6.542c0.285,-0.78 0.629,-1.561 0.66,-2.391c0.03,-0.83 -0.342,-1.742 -1.109,-2.06c-1.616,-0.667 -4.087,0.645 -4.052,2.383c0.057,2.82 0.631,5.69 1.199,8.457c0.593,2.883 1.227,5.761 2.071,8.583c0.57,1.903 1.002,4.282 2.882,5.355c2.062,1.176 5.339,-0.697 6.952,-2.046c2.368,-1.98 4.287,-4.632 5.995,-7.15Z" style="fill:#f5a784;fill-rule:nonzero;"/><path d="M23.886,117.664c-0.56,-0.306 -1.039,-0.732 -1.618,-1.025c-0.233,-0.12 -0.48,-0.233 -0.726,-0.326c0.06,-0.02 0.113,-0.04 0.173,-0.06c0.02,-0.007 0.04,-0.02 0.06,-0.027c0.04,-0.02 0.086,-0.04 0.12,-0.06c0.053,-0.027 0.106,-0.047 0.16,-0.08c0.779,0.307 1.538,0.766 2.024,1.332c0.119,0.133 -0.027,0.34 -0.193,0.246Z" style="fill:#3b2645;fill-rule:nonzero;"/><path d="M25.138,116.772c-0.56,-0.3 -1.059,-0.686 -1.632,-0.952c-0.22,-0.106 -0.452,-0.193 -0.686,-0.266c0.08,-0.08 0.147,-0.16 0.213,-0.247c0.033,-0.013 0.054,-0.04 0.073,-0.066c0.014,-0.007 0.034,-0.027 0.04,-0.04c0.014,-0.014 0.027,-0.027 0.041,-0.04c0.838,0.273 1.665,0.772 2.157,1.338c0.134,0.147 -0.033,0.367 -0.206,0.273Z" style="fill:#3b2645;fill-rule:nonzero;"/><path d="M47.816,119.589c-0.539,-0.266 -0.978,-0.693 -1.511,-0.986c-0.4,-0.219 -0.813,-0.379 -1.232,-0.526c0.107,-0.033 0.205,-0.075 0.306,-0.12c0.126,-0.055 0.24,-0.106 0.353,-0.166c0.939,0.28 1.891,0.819 2.337,1.551c0.1,0.167 -0.092,0.327 -0.253,0.247Z" style="fill:#3b2645;fill-rule:nonzero;"/><path d="M48.795,118.53c-0.572,-0.206 -1.099,-0.573 -1.651,-0.839c-0.26,-0.12 -0.52,-0.24 -0.78,-0.353c0.054,-0.04 0.101,-0.086 0.147,-0.133c0.02,-0.013 0.04,-0.026 0.053,-0.053c0.074,-0.074 0.14,-0.147 0.201,-0.22c0.844,0.267 1.69,0.672 2.256,1.219c0.154,0.153 -0.006,0.452 -0.226,0.379Z" style="fill:#3b2645;fill-rule:nonzero;"/><path d="M65.389,91.9c-0.045,-2.051 -0.066,-4.134 -0.451,-6.154c-0.016,-0.088 -0.142,-0.06 -0.148,0.02c-0.139,2.145 0.042,4.309 0.076,6.457c0.033,2.151 -0.08,4.313 0.007,6.462c0.012,0.291 0.421,0.283 0.447,0c0.208,-2.242 0.119,-4.537 0.069,-6.785Z" style="fill:#c1cae3;fill-rule:nonzero;"/><path d="M71.604,82.365c0.002,-3.098 0.003,-6.196 0.001,-9.293c-0.003,-6.182 0.198,-12.413 -0.148,-18.587c-0.016,-0.285 -0.427,-0.285 -0.442,0c-0.346,6.174 -0.145,12.405 -0.149,18.587c-0.002,3.097 -0.001,6.195 0.002,9.293c0.003,3.08 -0.168,6.223 0.069,9.293c0.03,0.385 0.569,0.386 0.598,0c0.236,-3.071 0.066,-6.212 0.069,-9.293Z" style="fill:#c1cae3;fill-rule:nonzero;"/><path d="M27.167,49.272c-0.004,-0.106 -0.164,-0.107 -0.167,0c-0.194,8.074 -0.119,16.191 0.344,24.256c0.021,0.379 0.601,0.385 0.593,0c-0.182,-8.085 -0.48,-16.174 -0.77,-24.256Z" style="fill:#c1cae3;fill-rule:nonzero;"/><path d="M82.207,112.73c-0,4.415 -3.575,7.991 -7.99,7.991c-0.48,0 -0.946,-0.041 -1.404,-0.127c-0.3,-0.046 -0.593,-0.12 -0.886,-0.207c-0.687,-0.206 -1.339,-0.499 -1.938,-0.872c-0.24,-0.153 -0.472,-0.313 -0.692,-0.485c-0.613,-0.48 -1.152,-1.045 -1.598,-1.684c-0.22,-0.307 -0.414,-0.627 -0.587,-0.967c-0.059,-0.113 -0.12,-0.233 -0.173,-0.353c-0.16,-0.346 -0.293,-0.699 -0.392,-1.072c-0.061,-0.179 -0.103,-0.36 -0.141,-0.546c-0.108,-0.541 -0.178,-1.104 -0.178,-1.677c-0,-4.407 3.575,-7.99 7.99,-7.99c0.719,0 1.411,0.093 2.077,0.273c0.273,0.074 0.539,0.16 0.799,0.267c0.612,0.232 1.177,0.556 1.718,0.924c0.13,0.09 0.268,0.185 0.392,0.287c0.048,0.039 0.094,0.073 0.133,0.113c0.047,0.033 0.087,0.066 0.134,0.106c0.206,0.187 0.413,0.38 0.598,0.586c0.101,0.107 0.194,0.207 0.281,0.32c0.12,0.14 0.232,0.286 0.333,0.433c0.959,1.318 1.524,2.936 1.524,4.68Z" style="fill:#8695c2;fill-rule:nonzero;"/><path d="M80.677,111.108c-0,4.414 -3.575,7.989 -7.99,7.989c-0.48,0 -0.946,-0.039 -1.406,-0.126c-0.3,-0.046 -0.592,-0.12 -0.885,-0.206c-0.686,-0.207 -1.338,-0.5 -1.938,-0.873c-0.239,-0.152 -0.473,-0.313 -0.692,-0.485c-0.02,-0.02 -0.047,-0.035 -0.067,-0.061c-0.932,-1.305 -1.471,-2.897 -1.471,-4.615c-0,-4.407 3.575,-7.99 7.99,-7.99c0.719,0 1.411,0.093 2.077,0.273c0.273,0.073 0.539,0.16 0.799,0.267c0.765,0.293 1.478,0.705 2.11,1.211c0.926,1.305 1.473,2.898 1.473,4.616Z" style="fill:#b8c3e3;fill-rule:nonzero;"/><path d="M79.337,106.605c-2.184,1.105 -4.36,2.184 -6.439,3.529c-2.25,1.458 -4.281,3.143 -6.351,4.82c-0.061,-0.179 -0.107,-0.359 -0.141,-0.546c1.845,-1.691 3.955,-3.169 6.02,-4.527c2.017,-1.326 4.155,-2.65 6.386,-3.676c0.132,0.087 0.268,0.185 0.392,0.287c0.048,0.039 0.094,0.073 0.133,0.113Z" style="fill:#fff;fill-rule:nonzero;"/><path d="M80.683,108.05c-1.791,0.892 -3.563,1.817 -5.294,2.829c-2.869,1.685 -5.56,3.59 -8.277,5.5c-0.059,-0.113 -0.12,-0.233 -0.173,-0.353c4.029,-3.236 8.65,-6.159 13.411,-8.409c0.12,0.14 0.232,0.286 0.333,0.433Z" style="fill:#fff;fill-rule:nonzero;"/></g></svg>