<?xml version="1.0" encoding="UTF-8" standalone="no"?><!DOCTYPE svg PUBLIC "-//W3C//DTD SVG 1.1//EN" "http://www.w3.org/Graphics/SVG/1.1/DTD/svg11.dtd"><svg width="100%" height="100%" viewBox="0 0 134 104" version="1.1" xmlns="http://www.w3.org/2000/svg" xmlns:xlink="http://www.w3.org/1999/xlink" xml:space="preserve" xmlns:serif="http://www.serif.com/" style="fill-rule:evenodd;clip-rule:evenodd;stroke-linejoin:round;stroke-miterlimit:2;"><g><path d="M0.826,74.62c-0.538,-1.668 -1.064,-3.426 -0.711,-5.143c0.362,-1.757 1.594,-3.207 2.35,-4.84c2.486,-5.372 -0.438,-11.487 -1.313,-17.318c-1.323,-8.802 2.563,-18.177 9.779,-23.596c7.217,-5.419 17.474,-6.665 25.816,-3.135c6.456,2.733 11.734,8.039 18.587,9.597c4.389,0.997 8.968,0.34 13.474,0.207c6.562,-0.193 13.262,0.784 19.125,3.669c5.864,2.884 10.826,7.81 12.884,13.908c1.669,4.947 1.404,10.413 3.424,15.233c3.057,7.281 10.561,11.58 17.112,16.145c4.184,2.916 8.524,6.885 8.368,11.912c-0.129,4.134 -3.458,7.305 -7.133,8.869c-4.677,1.988 -9.13,1.206 -14.089,1.275c-16.18,0.227 -32.361,0.454 -48.542,0.682c-1.68,0.023 -3.41,0.038 -4.974,-0.563c-1.195,-0.46 -2.219,-1.253 -3.291,-1.944c-3.147,-2.031 -5.814,-2.451 -9.377,-2.792c-3.752,-0.359 -7.341,-1.637 -11.161,-1.857c-6.373,-0.366 -14.396,-0.851 -19.985,-4.124c-5.831,-3.414 -8.4,-10.159 -10.343,-16.185Z" style="fill:#f6f6f6;fill-rule:nonzero;"/><path d="M132.327,101.402c-1.092,-0.12 -2.184,-0.207 -3.29,-0.26c-0.306,-0.013 -89.616,-0.047 -89.616,-0.047c-0.067,0.007 -0.134,0.007 -0.2,0.013c-0.101,0.008 -0.201,0.02 -0.301,0.027c-0.039,-0 -34.406,-0.04 -34.406,-0.04c-0.067,0.007 -0.134,0.007 -0.2,0.013c-0.48,0.034 -0.959,0.073 -1.432,0.127c-1.225,0.127 -1.225,1.771 -0,1.897c0.48,0.054 0.952,0.094 1.432,0.134c0.06,0.006 0.126,0.006 0.186,0.013c-0,-0 34.344,-0.047 34.363,-0.047c0.119,0.011 0.238,0.023 0.358,0.034c0.06,0.006 0.127,0.006 0.187,0.013c-0,-0 89.323,-0.04 89.636,-0.053c1.106,-0.054 2.198,-0.14 3.283,-0.26c0.999,-0.113 1.005,-1.452 -0,-1.564Z" style="fill:#c6c6c6;fill-rule:nonzero;"/><path d="M52.16,57.839c-1.814,5.247 -7.424,13.298 -7.424,13.298l-19.27,-8.005c0.051,-0.693 -0.909,-4.522 -0.744,-5.877c0.011,-0.121 0.035,-0.221 0.067,-0.295c0.063,-0.155 0.133,-0.309 0.197,-0.457c0.324,-0.713 0.656,-1.373 0.913,-1.851c0.256,-0.484 0.436,-0.788 0.436,-0.788c-0,-0 -0.46,-0.956 -1.873,-1.639c-0.814,-0.402 -1.939,-0.705 -3.471,-0.699c-0.1,0.002 -0.186,-0.003 -0.273,-0.008c-1.62,-0.098 -1.026,-1.257 0.127,-2.493c1.367,-1.494 3.531,-3.099 3.531,-3.099l4.956,3.205c0.283,0.148 0.768,-0.209 1.275,-0.812c0.474,-0.55 0.964,-1.313 1.354,-2.1c0.256,-0.511 0.464,-1.036 0.594,-1.511c0.161,-0.596 2.686,1.036 5.885,3.339c3.293,2.368 7.301,5.446 10.189,7.516c1.67,1.203 2.96,2.068 3.531,2.276Z" style="fill:#f5a784;fill-rule:nonzero;"/><path d="M122.293,100.158c-0.462,2.733 -5.147,-0.231 -6.259,-0.9c-0.675,-0.405 -1.273,-0.659 -2.012,-0.923c-0.134,-0.05 -1.505,-0.621 -1.602,-0.499c-0,-0 -1.452,-0.322 -3.742,-0.919c-3.824,-1.005 -9.996,-2.793 -15.621,-5.164c-8.984,-3.793 -14.747,-5.462 -19.131,-6.169c-0.582,-0.094 -1.29,-0.226 -2.106,-0.389c-5.365,-1.071 -15.136,-3.629 -20.072,-7.46c-3.013,-2.334 -5.232,-4.592 -6.657,-6.192c-1.269,-1.433 -1.901,-2.345 -1.901,-2.345c-0,-0 0.887,-0.226 2.079,-1.503c0.925,-0.998 2.055,-2.63 3.031,-5.325c0.039,-0.107 0.069,-0.188 0.094,-0.262c-0,-0 0.329,0.113 0.872,0.314c2.444,0.908 9.228,3.635 9.423,5.895c-0,-0 0.013,0.014 0.047,0.025c0.887,0.388 18.187,8.101 18.241,8.126c3.457,1.599 35.387,17.766 35.946,18.061c1.778,0.954 3.801,1.505 5.675,2.251c1.182,0.461 3.978,1.667 3.695,3.378Z" style="fill:#f5a784;fill-rule:nonzero;"/><path d="M38.43,8.932c-0,-0 -0.594,-1.76 -0.394,-3.556c0.14,-1.258 0.018,-4.05 -0.5,-4.823c-0,-0 -0.131,-0.119 -0.365,-0.254c-0.033,-0.019 -0.069,-0.039 -0.109,-0.054c-0.216,-0.106 -0.5,-0.209 -0.844,-0.235c-0.025,-0.002 -0.053,-0.005 -0.081,-0.006c-0.244,-0.014 -0.52,0.008 -0.811,0.1c-0.024,0.007 -0.048,0.016 -0.073,0.024c-0.222,0.071 -0.457,0.174 -0.704,0.324c-0,-0 0.264,2.818 0.009,3.738c-0,-0 -0.599,-1.641 -1.14,-1.724l-0.345,0.144c-0,-0 0.442,1.839 0.564,2.676c0.297,2.036 1.878,3.393 1.878,3.393c-0,-0 2.295,1.6 2.915,0.253Z" style="fill:#f5a784;fill-rule:nonzero;"/><path d="M35.326,0.104c-0.024,0.007 -0.048,0.016 -0.073,0.024c0.22,1.25 0.228,2.502 0.28,3.785c0.001,0.024 0.041,0.029 0.046,0.004c0.26,-1.271 0.059,-2.565 -0.253,-3.813Z" style="fill:#e0855c;fill-rule:nonzero;"/><path d="M36.218,0.01c-0.025,-0.002 -0.053,-0.004 -0.081,-0.006c0.219,1.253 0.227,2.502 0.283,3.784c0.001,0.025 0.04,0.03 0.042,0.005c0.228,-1.267 0.063,-2.544 -0.244,-3.783Z" style="fill:#e0855c;fill-rule:nonzero;"/><path d="M37.171,0.299c-0.032,-0.019 -0.069,-0.039 -0.109,-0.054c0.192,1.183 0.201,2.369 0.252,3.581c-0.002,0.025 0.038,0.03 0.043,0.005c0.243,-1.177 0.082,-2.373 -0.186,-3.532Z" style="fill:#e0855c;fill-rule:nonzero;"/><path d="M35.824,51.742c-0,-0 -5.715,1.77 -4.217,-3.567c1.925,-6.858 4.691,-17.8 5.008,-22.105c0.316,-4.306 -1.222,-18.436 -1.222,-18.436l2.688,-0.343c-0,-0 3.038,13.872 3.069,19.332c0.031,5.461 -0.99,23.736 -5.326,25.119Z" style="fill:#f5a784;fill-rule:nonzero;"/><path d="M28.407,48.532c-0.699,2.225 -2.576,3.231 -3.945,3.693c-0.814,-0.402 -1.939,-0.705 -3.471,-0.699c-0.1,0.002 -0.186,-0.003 -0.273,-0.008l-0.62,-0.313c-0,-0 0.273,-0.945 0.747,-2.18c1.367,-1.494 3.531,-3.099 3.531,-3.099l4.031,2.606Z" style="fill:#e0855c;fill-rule:nonzero;"/><path d="M23.272,48.527c-0.207,0.591 -0.448,1.148 -0.711,1.653c-0.627,1.219 -1.367,2.448 -1.438,3.814c-0.093,1.867 1.079,3.773 0.443,5.525c-0.308,0.865 -1.013,1.527 -1.382,2.361c-0.019,0.033 -0.031,0.067 -0.044,0.1c-0.519,1.276 -0.143,2.707 0.126,4.053c0.261,1.347 0.368,2.903 -0.543,3.934c-0.527,0.604 -1.326,0.914 -2.123,1.045c-1.785,0.277 -3.866,-0.471 -4.534,-2.156c-0.949,-2.377 1.233,-5.334 -0.093,-7.53c-0.455,-0.743 -1.238,-1.226 -1.759,-1.921c-2.337,-3.12 1.1,-6.271 0.905,-9.47c-0.08,-1.29 -0.785,-2.487 -0.779,-3.779c0.011,-2.305 1.929,-5.169 3.883,-6.31c1.915,-1.106 4.113,-1.059 6.013,-0.02c1.058,0.577 1.796,1.467 2.244,2.497c0.799,1.848 0.495,4.205 -0.208,6.204Z" style="fill:#3b2645;fill-rule:nonzero;"/><path d="M21.123,53.994c-0.093,1.867 1.079,3.773 0.443,5.525c-0.308,0.865 -1.013,1.527 -1.382,2.361c-0.495,-0.736 -0.74,-1.643 -0.612,-2.519c0.087,-0.594 0.328,-1.165 0.415,-1.76c0.181,-1.236 -0.299,-2.477 -0.927,-3.55c-0.394,-0.658 -1.284,-1.797 -0.995,-2.629c0.283,-0.826 1.443,-0.098 1.588,-1.126c0.034,-0.268 -0.018,-0.54 -0.017,-0.813c-0.01,-0.439 0.108,-0.895 0.4,-1.221c0.377,-0.426 0.994,-0.587 1.567,-0.539c0.634,0.054 1.22,0.361 1.669,0.804c-0.207,0.591 -0.448,1.148 -0.711,1.653c-0.627,1.219 -1.367,2.448 -1.438,3.814Z" style="fill:#2c1c33;fill-rule:nonzero;"/><path d="M23.239,41.987c-1.45,-0.772 -2.741,-1.333 -3.655,-1.245c-4.009,0.388 -6.024,5.167 -4.418,7.372c0.594,0.816 1.737,1.588 3.214,2.319c-0.372,0.234 -0.844,0.678 -0.526,1.333c0.384,0.787 2.131,0.448 3.195,-0.278c3.445,0.813 5.411,-1.468 6.154,-2.761c0.811,-1.411 0.425,-4.401 -3.964,-6.74Z" style="fill:#f5a784;fill-rule:nonzero;"/><path d="M22.37,44.137c-0,-0 0.353,-0.293 -0.339,-0.616c-0.622,-0.29 -0.695,0.022 -0.695,0.022c-0,-0 -0.15,0.257 0.391,0.516c0.541,0.26 0.643,0.078 0.643,0.078Z" style="fill:#3b2645;fill-rule:nonzero;"/><path d="M20.429,47.714c-0,-0 0.353,-0.292 -0.34,-0.615c-0.622,-0.291 -0.694,0.021 -0.694,0.021c-0,-0 -0.151,0.258 0.391,0.517c0.541,0.259 0.643,0.077 0.643,0.077Z" style="fill:#3b2645;fill-rule:nonzero;"/><path d="M22.683,46.888c0.081,-0.205 0.442,-0.573 0.29,-0.778c-0.128,-0.172 -1.304,-0.444 -1.5,-0.5c-0.215,-0.062 -0.412,-0.111 -0.604,-0.159c-0.002,-0.024 -0.007,-0.047 -0.006,-0.071c0.001,-0.053 0.01,-0.101 0.024,-0.146c0.789,0.219 1.58,0.507 2.326,0.717c0.066,0.018 0.103,0.096 0.066,0.157c-0.163,0.274 -0.259,0.576 -0.416,0.854c-0.053,0.092 -0.221,0.032 -0.18,-0.074Z" style="fill:#e0855c;fill-rule:nonzero;"/><path d="M20.132,43.394c0.018,-0.346 0.268,-0.865 0.657,-0.899c0.072,-0.006 0.121,0.084 0.083,0.142c-0.082,0.128 -0.214,0.208 -0.301,0.335c-0.095,0.138 -0.141,0.293 -0.176,0.454c-0.032,0.147 -0.271,0.12 -0.263,-0.032Z" style="fill:#3b2645;fill-rule:nonzero;"/><path d="M18.43,47.308c-0.291,-0.369 0.053,-1.052 0.45,-1.199c0.091,-0.033 0.169,0.066 0.15,0.148c-0.043,0.195 -0.206,0.333 -0.288,0.513c-0.073,0.158 -0.076,0.316 -0.107,0.483c-0.016,0.085 -0.148,0.127 -0.205,0.055Z" style="fill:#3b2645;fill-rule:nonzero;"/><path d="M23.449,47.928c0.28,-0.187 0.544,-0.298 0.733,-0.598c0.147,-0.234 0.183,-0.558 0.394,-0.738c0.033,-0.028 0.092,-0.029 0.114,0.016c0.158,0.323 -0.079,0.79 -0.265,1.059c-0.201,0.289 -0.519,0.584 -0.891,0.577c-0.175,-0.004 -0.223,-0.223 -0.085,-0.316Z" style="fill:#e0855c;fill-rule:nonzero;"/><path d="M14.054,48.785c0.919,0.9 1.97,2.106 3.276,2.349c2.677,0.498 -0.143,-3.574 -0.369,-4.289c-0.212,-0.673 -0.221,-1.393 -0.387,-2.079c-0.093,-0.379 -0.739,-1.138 -0.693,-1.451c0.05,-0.334 0.761,-0.732 0.96,-1.031c0.534,-0.803 1.184,-1.081 1.895,-0.665c0.711,0.417 1.198,-0.989 1.893,-0.761c0.696,0.227 -1.094,-0.63 -1.094,-0.63l-3.367,0.596l-1.939,2.546l-0.508,3.063l0.333,2.352Z" style="fill:#3b2645;fill-rule:nonzero;"/><path d="M29.937,63.238c0.107,6.025 -0.739,13.223 -1.254,16.283c-0.456,2.694 -1.986,7.801 -3.411,12.247c-1.424,4.439 -2.73,8.209 -2.73,8.209l-0.162,0.603c-0.177,0.654 -0.775,1.105 -1.453,1.094l-7.352,-0.113c-0.386,-0.006 -0.522,-0.504 -0.199,-0.714c1.469,-0.957 5.169,-1.552 5.576,-1.845c0.14,-0.101 0.361,-0.575 0.607,-1.199c-0,-0 4.183,-14.168 4.558,-18.465c0.382,-4.303 -1.261,-14.898 -0.465,-20.382c0.111,-0.749 0.264,-1.392 0.439,-1.935c0.432,-1.301 1.015,-2.065 1.578,-2.524c0.93,-0.739 1.799,-0.624 1.799,-0.624c0.666,0.339 1.169,1.107 1.544,2.185c0.61,1.766 0.878,4.344 0.925,7.18Z" style="fill:#f5a784;fill-rule:nonzero;"/><path d="M48.629,55.563c-1.068,2.441 -2.972,6.677 -5.83,10.893c-0.089,0.13 -0.175,0.263 -0.265,0.391c-0.187,0.284 -0.381,0.568 -0.582,0.852c-0.116,0.176 -0.232,0.345 -0.355,0.514c-0.291,0.418 -0.595,0.832 -0.906,1.245l-10.717,-4.45c-0.072,-0.264 -0.03,-1.813 -1.535,-3.95c-0.855,-1.212 -2.206,-2.596 -4.348,-4.037c0.432,-1.301 1.015,-2.065 1.578,-2.524c0.075,0.051 0.149,0.103 0.23,0.155c0.756,0.497 1.875,1.112 3.113,1.406c1.399,0.323 2.956,0.231 4.303,-0.936c2.432,-2.117 -0.615,-5.143 -2.708,-6.803c0.474,-0.55 0.964,-1.313 1.354,-2.1c1.427,0.703 3.804,1.651 6.479,1.828c3.293,2.368 7.301,5.446 10.189,7.516Z" style="fill:#ff4590;fill-rule:nonzero;"/><path d="M124.234,96.201c-1.091,1.361 -3.848,0.075 -4.986,-0.488c-1.804,-0.9 -3.566,-2.036 -5.465,-2.728c-0.631,-0.226 -1.255,-0.459 -1.88,-0.699c-3.894,-1.47 -7.75,-3.053 -11.669,-4.468c-0.309,-0.113 -53.67,-21.223 -53.67,-21.223c0.891,-1.663 1.432,-3.065 1.736,-4.225c0.187,-0.716 0.285,-1.319 0.334,-1.832c0.163,-1.735 -0.267,-2.552 -0.267,-2.552c-0,-0 1.215,-0.152 3.3,-0.149c2.132,0.007 5.179,0.169 8.769,0.82c6.518,1.187 15.594,7.362 19.696,10.518c0.359,0.28 0.677,0.533 0.955,0.753c3.456,2.791 8.545,5.966 17.37,10.121c5.853,2.76 11.611,6.409 14.833,8.558c1.635,1.091 2.616,1.796 2.616,1.796c-0.017,0.153 1.316,0.791 1.443,0.862c0.694,0.371 1.279,0.646 2.037,0.883c1.233,0.38 6.573,1.885 4.848,4.053Z" style="fill:#f5a784;fill-rule:nonzero;"/><path d="M80.132,69.175c-1.116,2.656 -2.244,5.063 -3.33,7.21c-0.301,0.593 -0.595,1.172 -0.89,1.724c-4.173,-1.75 -21.988,-8.665 -27.622,-10.844c0.721,-1.201 1.475,-2.662 2.185,-4.375c0.615,-1.492 1.192,-3.169 1.658,-5.051c2.099,0.03 4.966,0.215 8.303,0.818c6.518,1.187 15.594,7.362 19.696,10.518Z" style="fill:#3b2645;fill-rule:nonzero;"/><path d="M76.802,76.385c-4.029,-1.845 -18.113,-8.068 -18.113,-8.068c-0.168,-1.954 -5.258,-4.258 -8.214,-5.427c-0.71,1.713 -1.464,3.174 -2.185,4.375c-1.711,2.861 -3.199,4.278 -3.199,4.278c1.425,1.6 3.644,3.858 6.657,6.192c4.936,3.831 14.707,6.389 20.072,7.46c1.069,-1.679 2.371,-3.86 3.781,-6.502c-6.369,-3.756 -16.124,-9.88 -16.865,-10.351c0.887,0.388 14.172,6.261 18.066,8.043Z" style="fill:#3b2645;fill-rule:nonzero;"/><path d="M110.364,93.191c-3.441,-1.772 -6.927,-3.463 -10.335,-5.296c-3.415,-1.832 -23.166,-11.477 -23.227,-11.51c-0.301,0.593 -0.595,1.172 -0.89,1.724c-0.104,0.199 -0.207,0.39 -0.311,0.584c1.573,0.928 2.942,1.713 3.914,2.23c4.991,2.652 30.07,11.978 30.849,12.268Z" style="fill:#e0855c;fill-rule:nonzero;"/><path d="M76.802,76.385c-3.894,-1.782 -17.179,-7.655 -18.066,-8.043c0.741,0.471 10.496,6.595 16.865,10.351c0.104,-0.194 0.207,-0.385 0.311,-0.584c0.295,-0.552 0.589,-1.131 0.89,-1.724Z" style="fill:#291b30;fill-rule:nonzero;"/><path d="M57.329,68.325c-2.34,0.074 -4.318,-1.492 -6.432,-2.256c-0.17,-0.061 -0.308,0.196 -0.171,0.309c1.047,0.86 2.384,1.406 3.633,1.907c0.974,0.391 2.001,0.869 3.052,0.559c0.285,-0.085 0.22,-0.529 -0.082,-0.519Z" style="fill:#291b30;fill-rule:nonzero;"/><path d="M36.75,59.542c-0.021,-0.248 -0.37,-0.301 -0.441,-0.051c-0.241,0.865 -0.35,1.694 -0.937,2.423c-0.533,0.661 -1.311,1.104 -2.156,1.197c-0.386,0.042 -0.386,0.64 0.013,0.613c2.025,-0.133 3.695,-2.145 3.521,-4.182Z" style="fill:#de3c7c;fill-rule:nonzero;"/><path d="M41.393,51.817c-0.085,-0.336 -0.645,-0.258 -0.611,0.096c0.078,0.823 -0.027,1.552 -0.491,2.255c-0.481,0.728 -1.139,0.886 -1.8,1.355c-0.244,0.173 -0.077,0.512 0.205,0.46c1.841,-0.337 3.16,-2.335 2.697,-4.166Z" style="fill:#de3c7c;fill-rule:nonzero;"/><path d="M33.818,66.606l-3.844,-1.598c-0.072,-0.264 -0.025,-1.817 -1.535,-3.95c-0,-0 2.963,1.563 5.379,5.548Z" style="fill:#de3c7c;fill-rule:nonzero;"/><path d="M29.675,28.411c-0.837,-2.862 -2.085,-5.632 -3.063,-8.45c-0.826,-2.376 -1.354,-5.236 -2.959,-7.24c-0.103,-0.129 -0.376,-0.108 -0.352,0.103c0.037,0.335 0.017,0.305 0.258,0.551c-0.03,0.162 0.054,0.324 0.29,0.502c0.226,0.473 0.422,0.958 0.589,1.454c0.181,0.518 0.336,1.046 0.499,1.57c0.43,1.382 0.874,2.759 1.343,4.129c0.868,2.542 1.705,5.194 2.957,7.577c0.129,0.246 0.513,0.063 0.438,-0.196Z" style="fill:#c1cae3;fill-rule:nonzero;"/><path d="M68.747,14.367c-3.089,2.245 -5.822,5.087 -8.593,7.706c-2.929,2.768 -5.897,5.539 -8.607,8.523c-0.2,0.22 0.113,0.513 0.33,0.316c2.919,-2.634 5.691,-5.436 8.551,-8.134c2.842,-2.681 5.958,-5.188 8.588,-8.078c0.158,-0.174 -0.063,-0.483 -0.269,-0.333Z" style="fill:#c1cae3;fill-rule:nonzero;"/><path d="M72.57,30.148c-2.55,0.73 -4.936,2.113 -7.302,3.287c-2.541,1.261 -5.165,2.48 -7.572,3.984c-0.214,0.134 -0.064,0.521 0.187,0.419c2.466,-1 4.84,-2.28 7.234,-3.44c2.537,-1.23 5.286,-2.296 7.607,-3.906c0.173,-0.12 0.06,-0.405 -0.154,-0.344Z" style="fill:#c1cae3;fill-rule:nonzero;"/><path d="M75.903,44.354c-3.836,-0.684 -8.143,-0.978 -12.015,-0.517c-0.271,0.033 -0.261,0.396 0.009,0.421c3.959,0.365 7.948,0.563 11.913,0.911c0.463,0.041 0.55,-0.733 0.093,-0.815Z" style="fill:#c1cae3;fill-rule:nonzero;"/><path d="M124.234,96.201c-1.091,1.361 -3.848,0.075 -4.986,-0.488c-1.804,-0.9 -3.566,-2.036 -5.465,-2.728c-0.631,-0.226 -1.255,-0.459 -1.88,-0.699c0.534,-1.197 0.967,-2.438 1.387,-3.679c1.635,1.091 2.616,1.796 2.616,1.796c-0.017,0.153 1.316,0.791 1.443,0.862c0.694,0.371 1.279,0.646 2.037,0.883c1.233,0.38 6.573,1.885 4.848,4.053Z" style="fill:#ff4590;fill-rule:nonzero;"/><path d="M122.293,100.158c-0.462,2.733 -5.147,-0.231 -6.259,-0.9c-0.675,-0.405 -1.273,-0.659 -2.012,-0.923c-0.134,-0.05 -1.505,-0.621 -1.602,-0.499c-0,-0 -1.452,-0.322 -3.742,-0.919c0.593,-0.62 1.279,-1.22 1.738,-1.896c0.297,-0.445 0.574,-0.904 0.823,-1.376c0.566,0.295 1.125,0.589 1.684,0.884c1.778,0.954 3.801,1.505 5.675,2.251c1.182,0.461 3.978,1.667 3.695,3.378Z" style="fill:#ff4590;fill-rule:nonzero;"/></g></svg>