<?xml version="1.0" encoding="UTF-8" standalone="no"?><!DOCTYPE svg PUBLIC "-//W3C//DTD SVG 1.1//EN" "http://www.w3.org/Graphics/SVG/1.1/DTD/svg11.dtd"><svg width="100%" height="100%" viewBox="0 0 110 129" version="1.1" xmlns="http://www.w3.org/2000/svg" xmlns:xlink="http://www.w3.org/1999/xlink" xml:space="preserve" xmlns:serif="http://www.serif.com/" style="fill-rule:evenodd;clip-rule:evenodd;stroke-linejoin:round;stroke-miterlimit:2;"><g><path d="M60.124,0.592c-6.323,-1.599 -13.78,0.009 -17.709,5.215c-2.088,2.766 -3.011,6.226 -4.705,9.25c-2.582,4.61 -7.034,8.135 -12.114,9.591c-2.963,0.849 -6.113,1.022 -8.982,2.148c-3.307,1.297 -6.015,3.775 -8.352,6.45c-5.378,6.155 -9.311,14.269 -8.012,22.338c2.157,13.392 17.504,21.852 19.165,35.315c0.593,4.805 -0.685,9.705 0.005,14.496c0.998,6.934 6.363,12.952 13.036,15.082c6.673,2.129 14.342,0.442 19.748,-4.012c2.115,-1.742 3.933,-3.888 6.333,-5.21c5.18,-2.854 11.585,-1.209 17.222,0.581c5.637,1.79 11.928,3.631 17.265,1.083c1.788,-0.853 3.329,-2.153 4.703,-3.58c7.759,-8.055 10.239,-20.775 6.072,-31.155c-1.65,-4.108 -4.257,-7.933 -4.782,-12.328c-0.641,-5.368 1.921,-10.522 4.003,-15.511c2.138,-5.127 3.853,-10.642 3.23,-16.163c-0.623,-5.52 -4.092,-11.027 -9.425,-12.58c-2.799,-0.815 -5.796,-0.495 -8.678,-0.93c-6.511,-0.982 -9.176,-4.965 -12.572,-9.824c-3.403,-4.869 -9.719,-8.806 -15.451,-10.256Z" style="fill:#f6f6f6;fill-rule:nonzero;"/><path d="M66.643,115.826c-5.312,0 -10.562,-0.888 -15.268,-1.783c-2.182,-0.414 -4.132,-0.831 -5.918,-1.75c-2.193,-1.129 -4.16,-3.054 -5.846,-5.725c-2.275,-3.602 -3.589,-7.723 -4.86,-11.708c-0.969,-3.04 -1.972,-6.183 -3.393,-9.066c-1.358,-2.757 -3.134,-5.346 -4.852,-7.85c-0.823,-1.2 -1.674,-2.441 -2.471,-3.688c-4.727,-7.392 -8.251,-16.056 -10.474,-25.752c-0.497,-2.164 -1.003,-4.682 -0.726,-7.17c0.305,-2.731 1.564,-5.027 3.456,-6.302c1.134,-0.763 2.398,-1.047 3.475,-0.78c2.059,0.513 3.236,2.699 3.499,6.499l-0.664,0.046c-0.241,-3.479 -1.248,-5.464 -2.996,-5.898c-0.891,-0.224 -1.964,0.028 -2.942,0.686c-1.729,1.164 -2.883,3.287 -3.165,5.824c-0.267,2.383 0.228,4.836 0.712,6.947c2.206,9.62 5.701,18.214 10.385,25.541c0.792,1.238 1.64,2.474 2.46,3.67c1.731,2.524 3.522,5.134 4.901,7.932c1.442,2.928 2.453,6.095 3.429,9.159c1.259,3.946 2.559,8.025 4.789,11.554c1.622,2.569 3.502,4.416 5.588,5.49c1.706,0.877 3.608,1.283 5.737,1.687c6.5,1.235 14.043,2.458 21.3,1.315c7.733,-1.22 14.267,-5.273 17.48,-10.84c1.996,-3.459 2.798,-7.501 3.574,-11.409c0.68,-3.426 1.384,-6.969 2.886,-10.174c1.131,-2.412 2.703,-4.606 4.223,-6.726c1.007,-1.405 2.048,-2.857 2.946,-4.353c5.448,-9.086 5.924,-21.087 1.214,-30.574c-1.465,-2.95 -3.132,-4.644 -5.098,-5.178c-1.257,-0.341 -2.842,0.092 -3.856,1.055c-0.758,0.722 -1.07,1.603 -0.878,2.481l-0.651,0.143c-0.24,-1.099 0.151,-2.231 1.071,-3.107c1.191,-1.132 2.996,-1.621 4.489,-1.214c2.159,0.586 3.965,2.393 5.519,5.524c4.808,9.685 4.323,21.936 -1.239,31.211c-0.913,1.521 -1.961,2.985 -2.976,4.4c-1.503,2.096 -3.056,4.263 -4.161,6.621c-1.468,3.131 -2.163,6.634 -2.836,10.021c-0.786,3.96 -1.599,8.056 -3.65,11.611c-3.312,5.741 -10.023,9.915 -17.953,11.166c-2.076,0.327 -4.173,0.464 -6.26,0.464Z" style="fill:#6b779c;fill-rule:nonzero;"/><path d="M95.198,41.673c0.345,-0.656 0.573,-1.373 0.667,-2.108c0.013,-0.097 0.023,-0.198 -0.006,-0.293c-0.046,-0.152 -0.183,-0.258 -0.312,-0.352c-0.352,-0.258 -0.823,-0.524 -1.193,-0.293c-0.227,0.142 -0.318,0.421 -0.391,0.678c-0.185,0.649 -0.355,1.303 -0.511,1.961c-0.011,0.048 -0.022,0.1 -0.007,0.146c0.018,0.054 0.068,0.091 0.116,0.122c0.483,0.314 1.079,0.451 1.651,0.381l-0.014,-0.242Z" style="fill:#3b2645;fill-rule:nonzero;"/><path d="M91.181,44.212c0.02,-0.007 0.04,-0.02 0.06,-0.026c-0.02,0.019 -0.033,0.026 -0.053,0.039l-0.007,-0.013Zm-26.081,-3.982c-0,0 1.958,2.79 4.275,5.474c2.23,2.583 4.787,5.067 6.259,4.9c4.061,-0.333 8.09,-1.218 12.045,-2.17c2.743,-0.659 5.586,-1.358 8.163,-2.504c1.592,-0.705 1.725,-3.502 0.44,-4.681c-0.613,-0.559 -1.598,-0.506 -2.338,-0.126c-0.738,0.379 -1.298,1.018 -1.884,1.611c-1.771,1.784 -4.088,1.538 -6.425,1.711c-3.05,0.234 -6.099,0.467 -9.149,0.699c-0,0 -2.377,-1.518 -4.415,-7.291c-2.044,-5.779 -4.228,-9.681 -5.773,-10.227c-0.805,-0.286 -1.098,3.196 -1.192,6.565c-0.086,3.063 -0.006,6.039 -0.006,6.039Z" style="fill:#f5a784;fill-rule:nonzero;"/><path d="M65.1,40.23c-0,0 1.958,2.79 4.275,5.474c-1.199,-5.653 -0.879,-9.808 -0.879,-9.808c-0,-2.277 -2.29,-1.978 -3.39,-1.705c-0.086,3.063 -0.006,6.039 -0.006,6.039Z" style="fill:#e0855c;fill-rule:nonzero;"/><path d="M22.205,41.673c-0.346,-0.656 -0.573,-1.373 -0.667,-2.108c-0.013,-0.097 -0.023,-0.198 0.005,-0.293c0.046,-0.152 0.183,-0.258 0.312,-0.352c0.353,-0.258 0.823,-0.524 1.194,-0.293c0.226,0.142 0.318,0.421 0.391,0.678c0.185,0.649 0.355,1.303 0.51,1.961c0.012,0.048 0.023,0.1 0.008,0.146c-0.019,0.054 -0.068,0.091 -0.116,0.122c-0.484,0.314 -1.079,0.451 -1.652,0.381l0.015,-0.242Z" style="fill:#3b2645;fill-rule:nonzero;"/><path d="M50.778,33.705c0.246,1.019 0.426,2.024 0.566,3.043c0.206,1.438 0.326,2.883 0.446,4.342c0.013,0.166 0.026,0.326 0.04,0.492c0.04,0.446 0.08,6.805 -0.347,6.805c4.994,1.232 8.989,1.278 11.913,0.939c1.451,-0.646 2.303,-1.239 2.303,-1.239c0.147,-0.099 0.14,-1.185 0.167,-1.358c0.126,-1.005 0.28,-2.011 0.432,-3.016c0.313,-2.011 0.074,-4.089 1.206,-5.919c0.259,-0.406 0.572,-0.786 0.772,-1.226c0.573,-1.225 0.22,-2.67 -0.22,-3.948c-0.459,-1.338 -0.472,-2.604 -0.772,-3.935c-0.26,-1.139 -1.559,-1.235 -2.643,-1.412c-0.161,-0.026 -0.32,-0.056 -0.46,-0.08c-1.427,-0.241 -2.963,-0.306 -2.963,-0.306l-0.839,-4.647c-0.213,-2.204 -4.714,-1.572 -4.714,-1.572l0.266,6.279c-0,0.087 -0.725,0.073 -1.964,0.173c-0.027,0 -0.06,0 -0.087,0.007c-0.106,0.006 -0.212,0.015 -0.319,0.026c-0.598,0.061 -1.318,0.08 -1.951,0.24c-0.753,0.186 -1.379,0.56 -1.511,1.372c-0.273,1.638 0.306,3.376 0.679,4.94Z" style="fill:#f5a784;fill-rule:nonzero;"/><path d="M97.284,128.415c-1.085,0.12 -2.177,0.206 -3.283,0.26l-62.775,0.053c-0.06,-0.007 -0.126,-0.008 -0.187,-0.013c-0.106,-0.01 -0.219,-0.02 -0.326,-0.027c-0.366,-0.033 -0.733,-0.067 -1.105,-0.107c-1.225,-0.126 -1.225,-1.77 -0,-1.897c0.366,-0.04 0.739,-0.073 1.112,-0.1c0.106,-0.013 0.213,-0.018 0.319,-0.027c0.067,-0.005 0.133,-0.006 0.2,-0.013l62.756,0.047c1.106,0.053 2.197,0.14 3.289,0.26c1.006,0.112 0.999,1.451 -0,1.564Z" style="fill:#c6c6c6;fill-rule:nonzero;"/><path d="M58.229,57.882c0.592,1.905 1.905,4.903 3.45,8.158c3.529,7.445 8.248,16.212 8.248,16.212c0.067,5.394 1.252,13.977 2.49,21.58c1.412,8.669 2.897,16.08 2.897,16.08c2.624,1.659 3.556,-0.872 3.556,-0.872c-0,0 0.1,-7.318 0.067,-15.687c-0.027,-8.996 -0.2,-19.21 -0.807,-22.839c-1.491,-9.035 -12.145,-33.159 -12.145,-33.159c-0.186,-0.173 -0.372,-0.333 -0.559,-0.479c-2.889,-2.304 -5.093,-1.279 -6.405,1.078c-0.187,0.333 -0.353,0.693 -0.5,1.079c-0.999,2.564 -1.158,6.086 -0.292,8.849Z" style="fill:#f5a784;fill-rule:nonzero;"/><path d="M29.357,101.322l1.026,3.043c5.007,-1.378 9.168,-2.87 12.611,-4.355c11.293,-4.853 14.841,-9.588 14.841,-9.588c4.009,-6.206 4.357,-16.378 3.844,-24.382c-0.432,-6.738 -1.486,-11.946 -1.486,-11.946c-0,0 -0.56,-2.677 -1.672,-5.061c-0.173,-0.373 -0.359,-0.739 -0.565,-1.085c-1.339,-2.318 -3.29,-3.816 -5.853,-1.126c-0.133,0.147 -0.273,0.3 -0.413,0.466c-5.673,6.812 2.583,35.423 -0.433,37.781c-2.89,2.263 -7.859,5.957 -12.331,9.248c-5.109,3.761 -9.569,7.005 -9.569,7.005Z" style="fill:#f5a784;fill-rule:nonzero;"/><path d="M74.475,120.458c0.027,0.194 0.06,0.373 0.093,0.527c0.253,1.184 0.759,1.425 2.524,2.19c2.004,0.872 7.437,2.517 7.97,0.187c-0,0 0.007,-0.028 0.013,-0.08c0.04,-0.367 0.047,-1.831 -2.363,-2.365c-0.486,-0.106 -0.881,-0.267 -1.189,-0.459c-0.259,-0.161 -0.462,-0.339 -0.629,-0.526c-0.153,-0.166 -0.281,-0.345 -0.386,-0.52c-0.108,-0.178 -0.194,-0.338 -0.28,-0.499c-0.266,-0.532 -0.459,-0.965 -0.945,-1.044c-1.153,-0.18 -2.79,0.252 -2.717,1.418c-0,0 -1.419,-0.027 -1.618,-0.86c-0.2,-0.832 -0.706,0.387 -0.473,2.031Z" style="fill:#8695c2;fill-rule:nonzero;"/><path d="M30.243,111.35c-0,0 0.12,-0.021 0.293,-0.094c0.506,-0.219 1.451,-0.912 1.119,-2.989c-0.1,-0.626 -0.06,-1.126 0.059,-1.545c0.04,-0.146 0.087,-0.286 0.147,-0.413c0.106,-0.239 0.243,-0.45 0.386,-0.639c0.109,-0.144 0.216,-0.271 0.327,-0.393c0.415,-0.458 0.779,-0.819 0.665,-1.319c-0.259,-1.138 -1.265,-2.503 -2.323,-2.01c-0,0 -0.493,-1.326 0.212,-1.818c0.7,-0.492 -0.619,-0.512 -2.07,0.306c-0.426,0.247 -0.733,0.453 -0.953,0.681c-0.525,0.545 -0.565,1.211 -0.612,2.749c-0.073,2.183 0.386,7.837 2.75,7.484Z" style="fill:#8695c2;fill-rule:nonzero;"/><path d="M26.552,44.228c-0.018,-0.014 -0.032,-0.025 -0.051,-0.04c0.018,0.007 0.037,0.015 0.061,0.022l-0.01,0.018Zm24.039,-16.203c-1.542,0.547 -2.878,4.047 -4.918,9.827c-2.038,5.777 -4.418,7.289 -4.418,7.289c-3.05,-0.231 -6.1,-0.466 -9.15,-0.695c-2.336,-0.175 -4.653,0.074 -6.423,-1.712c-0.584,-0.59 -1.145,-1.232 -1.883,-1.613c-0.738,-0.379 -1.723,-0.43 -2.336,0.13c-1.29,1.179 -1.152,3.974 0.436,4.68c2.577,1.146 5.419,1.845 8.166,2.505c3.955,0.951 7.98,1.835 12.041,2.166c3.002,0.34 10.539,-10.37 10.539,-10.37c-0,0 -0.513,-12.755 -2.054,-12.207Z" style="fill:#f5a784;fill-rule:nonzero;"/><path d="M55.665,20.668l0.08,1.831c1.738,2.936 4.088,3.303 5.274,3.269l-0.64,-3.528c-0.213,-2.204 -4.714,-1.572 -4.714,-1.572Z" style="fill:#e0855c;fill-rule:nonzero;"/><path d="M53.122,9.775c0.339,0.446 0.758,0.785 1.218,1.012c0.38,0.193 0.832,0.306 1.298,0.346c1.565,0.147 3.35,-0.566 3.676,-2.131c0.339,-1.671 -0.32,-3.915 -2.064,-4.534c-0.433,-0.153 -0.899,-0.186 -1.358,-0.186l-0.44,0c-0.479,0 -0.972,0.02 -1.405,0.226c-0.273,0.126 -0.5,0.326 -0.706,0.546c-1.158,1.258 -1.252,3.362 -0.219,4.721Z" style="fill:#3b2645;fill-rule:nonzero;"/><path d="M53.122,9.775c0.339,0.446 0.758,0.785 1.218,1.012c0.38,0.193 0.832,0.306 1.298,0.346l1.898,-1.272c-0,0 -2.357,-0.06 -2.89,-1.758c-0.433,-1.364 -0.439,-2.936 0.806,-3.821c-0.479,0 -0.972,0.02 -1.405,0.226c-0.273,0.126 -0.5,0.326 -0.706,0.546c-1.158,1.258 -1.252,3.362 -0.219,4.721Z" style="fill:#25182b;fill-rule:nonzero;"/><path d="M64.259,17.829c0.012,-0.609 0.059,-1.208 0.132,-1.812c0.06,-0.506 0.241,-0.976 0.299,-1.485c0.119,-1.039 -0.164,-2.129 -0.812,-2.954c-0.647,-0.825 -1.667,-1.409 -2.663,-1.705c-0.808,-0.24 -1.698,-0.337 -2.555,-0.263c-0.793,0.069 -1.68,0.216 -2.437,0.457c-1.136,0.361 -2.206,0.988 -2.913,1.967c-1.092,1.515 -1.108,3.571 -0.488,5.276c0.145,0.4 0.327,0.79 0.567,1.143c0.438,0.643 1.323,0.954 2.03,1.174c1.078,0.335 2.214,0.499 3.339,0.556c1.109,0.057 2.25,0.017 3.331,-0.253c0.745,-0.185 1.645,-0.513 2.019,-1.242c0.133,-0.259 0.145,-0.507 0.15,-0.791c-0,-0.023 0.001,-0.046 0.001,-0.068Z" style="fill:#3b2645;fill-rule:nonzero;"/><path d="M53.356,16.799c0.358,-0.574 0.881,-0.398 1.306,-0.093c-0.043,-1.09 0.044,-2.021 0.313,-2.712c0.989,-2.541 6.1,-3.425 8.59,-0.258c0.568,0.721 0.792,2.111 0.924,3.748c0.4,4.957 -1.909,6.896 -3.534,6.975c-1.538,0.075 -4.664,-0.379 -5.752,-4.019c-1.201,-0.666 -2.407,-2.743 -1.847,-3.641Z" style="fill:#f5a784;fill-rule:nonzero;"/><path d="M62.21,17.913c-0,0 0.437,0.139 0.336,-0.618c-0.092,-0.68 -0.393,-0.573 -0.393,-0.573c-0,0 -0.298,0.012 -0.224,0.607c0.074,0.596 0.281,0.584 0.281,0.584Z" style="fill:#3b2645;fill-rule:nonzero;"/><path d="M58.151,18.209c-0,0 0.437,0.139 0.335,-0.618c-0.091,-0.68 -0.393,-0.573 -0.393,-0.573c-0,0 -0.298,0.012 -0.224,0.608c0.074,0.595 0.282,0.583 0.282,0.583Z" style="fill:#3b2645;fill-rule:nonzero;"/><path d="M60.063,19.662c0.216,-0.043 0.721,0.063 0.812,-0.178c0.076,-0.199 -0.33,-1.336 -0.389,-1.532c-0.064,-0.214 -0.129,-0.406 -0.192,-0.594c0.019,-0.014 0.036,-0.031 0.057,-0.043c0.045,-0.028 0.09,-0.046 0.136,-0.059c0.241,0.782 0.426,1.604 0.651,2.346c0.02,0.065 -0.025,0.138 -0.096,0.14c-0.319,0.01 -0.625,0.092 -0.944,0.11c-0.106,0.006 -0.145,-0.169 -0.035,-0.19Z" style="fill:#e0855c;fill-rule:nonzero;"/><path d="M61.628,15.628c0.3,-0.172 0.873,-0.241 1.112,0.068c0.044,0.056 -0.006,0.147 -0.075,0.147c-0.153,-0.001 -0.291,-0.068 -0.445,-0.074c-0.167,-0.005 -0.323,0.04 -0.477,0.098c-0.14,0.052 -0.247,-0.163 -0.115,-0.239Z" style="fill:#3b2645;fill-rule:nonzero;"/><path d="M57.415,16.308c0.153,-0.445 0.914,-0.523 1.252,-0.269c0.077,0.059 0.035,0.178 -0.044,0.207c-0.187,0.068 -0.392,0.006 -0.588,0.034c-0.172,0.024 -0.305,0.106 -0.463,0.17c-0.081,0.033 -0.188,-0.056 -0.157,-0.142Z" style="fill:#3b2645;fill-rule:nonzero;"/><path d="M59.601,20.868c0.309,0.134 0.545,0.297 0.899,0.294c0.277,-0.002 0.569,-0.148 0.834,-0.067c0.041,0.013 0.075,0.062 0.048,0.105c-0.187,0.307 -0.707,0.359 -1.034,0.348c-0.351,-0.013 -0.772,-0.122 -0.967,-0.439c-0.091,-0.149 0.068,-0.308 0.22,-0.241Z" style="fill:#e0855c;fill-rule:nonzero;"/><path d="M54.753,16.788c0.012,0.02 0.024,0.04 0.035,0.06c0.039,0.075 0.067,0.156 0.119,0.223c0.051,0.068 0.133,0.121 0.216,0.106c0.098,-0.017 0.245,-0.167 0.308,-0.241c0.483,-0.567 0.522,-1.355 0.473,-2.06c-0.136,-1.991 1.339,-1.847 2.346,-2.308c1.008,-0.461 0.913,-0.869 0.913,-0.869c-0,0 0.66,0.543 1.624,0.559c0.964,0.017 1.549,0.413 1.582,1.237c0.033,0.823 1.479,0.475 1.663,1.183c0.184,0.707 -0.061,-1.261 -0.061,-1.261l-2.318,-2.513l-3.19,-0.259l-2.854,1.226l-1.8,1.549c-0.173,0.833 -0.811,2.345 0.194,2.889c0.161,0.087 0.343,0.131 0.497,0.228c0.101,0.064 0.188,0.151 0.253,0.251Z" style="fill:#3b2645;fill-rule:nonzero;"/><path d="M51.483,48.387c4.994,1.232 8.989,1.278 11.913,0.939c1.451,-0.646 2.468,-1.472 2.468,-1.472c0.146,-0.1 0.282,-3.136 0.434,-4.141c0.313,-2.011 0.074,-4.089 1.206,-5.919c0.259,-0.406 0.572,-0.786 0.772,-1.226c0.573,-1.225 0.22,-2.67 -0.22,-3.948c-0.459,-1.338 -0.472,-2.604 -0.772,-3.935c-0.26,-1.139 -1.558,-1.239 -2.643,-1.412c-3.303,2.031 -7.664,1.046 -10.761,-0.146c-0.106,0.006 -0.212,0.015 -0.319,0.026c-0.598,0.061 -1.318,0.08 -1.951,0.24c0.593,1.591 0.899,3.223 1.039,4.781c0.413,4.807 -0.859,8.916 -0.859,8.916c0.013,0.166 0.026,0.326 0.04,0.492c0.02,0.22 0.04,1.918 0.006,3.562c-0.04,1.645 -0.14,3.243 -0.353,3.243Z" style="fill:#3b2645;fill-rule:nonzero;"/><path d="M51.83,41.582c0.02,0.22 0.04,1.918 0.006,3.562c3.39,-4.534 0.906,-12.664 0.813,-12.97c0.413,4.807 -0.859,8.916 -0.859,8.916c0.013,0.166 0.026,0.326 0.04,0.492Z" style="fill:#25182b;fill-rule:nonzero;"/><path d="M38.926,94.317c0.892,2.31 2.55,4.255 4.068,5.693c11.293,-4.853 14.841,-9.588 14.841,-9.588c4.009,-6.206 4.357,-16.378 3.844,-24.382c3.529,7.452 8.248,16.212 8.248,16.212c0.053,4.202 0.787,10.34 1.692,16.44c0.259,1.752 0.526,3.469 0.798,5.14c2.311,0.266 4.642,-0.046 6.52,-0.479c-0.027,-8.996 -0.2,-19.21 -0.807,-22.839c-1.491,-9.035 -12.145,-33.159 -12.145,-33.159c-0,0 -4.421,2.557 -14.295,-0.067c-3.19,3.836 -1.978,14.562 -0.833,23.638c0.773,6.186 1.5,11.595 0.793,13.536c-0.102,0.28 -0.233,0.48 -0.393,0.607c-1.671,1.311 -11.586,8.696 -12.331,9.248Z" style="fill:#8695c2;fill-rule:nonzero;"/><path d="M61.679,66.04c3.523,7.445 8.248,16.212 8.248,16.212c0.053,4.202 0.786,10.341 1.692,16.44c-0.28,-5.187 0.532,-15.967 -0.4,-18.511c-0.919,-2.51 -9.28,-13.788 -9.54,-14.141Z" style="fill:#6b779c;fill-rule:nonzero;"/><path d="M41.203,92.632c5.991,-3.428 9.044,-4.751 10.452,-5.257c0.706,-0.254 1.196,-0.882 1.283,-1.628c0.649,-5.524 -1.939,-14.335 -2.081,-14.821c0.773,6.186 1.5,11.595 0.793,13.536c-0.102,0.28 -0.233,0.48 -0.393,0.607c-1.671,1.311 -8.896,6.712 -10.054,7.563Z" style="fill:#6b779c;fill-rule:nonzero;"/><path d="M93.124,49.905c-0.043,0.122 -0.095,0.255 -0.209,0.316c-0.099,0.052 -0.218,0.037 -0.328,0.018c-0.373,-0.063 -0.765,-0.164 -1.027,-0.438c-0.507,-0.528 -0.296,-1.389 -0.052,-2.079c0.475,-1.35 0.951,-2.7 1.426,-4.05c0.168,-0.476 1.12,-0.193 1.394,0.053c0.464,0.416 0.334,0.775 0.229,1.349c-0.3,1.631 -0.884,3.269 -1.433,4.831Z" style="fill:#3b2645;fill-rule:nonzero;"/><path d="M24.278,49.905c0.043,0.122 0.096,0.255 0.21,0.316c0.098,0.052 0.218,0.037 0.327,0.018c0.374,-0.063 0.766,-0.164 1.028,-0.438c0.507,-0.528 0.295,-1.389 0.052,-2.079c-0.476,-1.35 -0.951,-2.7 -1.427,-4.05c-0.168,-0.476 -1.119,-0.193 -1.394,0.053c-0.463,0.416 -0.334,0.775 -0.228,1.349c0.3,1.631 0.884,3.269 1.432,4.831Z" style="fill:#3b2645;fill-rule:nonzero;"/><path d="M56.403,37.167c0.816,0.023 1.574,0.352 2.396,0.369c0.847,0.016 1.47,-0.28 2.246,-0.562c0.272,-0.1 0.413,0.26 0.259,0.443c-1.093,1.293 -3.764,1.058 -5.009,0.148c-0.158,-0.116 -0.122,-0.404 0.108,-0.398Z" style="fill:#25182b;fill-rule:nonzero;"/><path d="M30.33,104.944c0.632,0.06 1.191,0.174 1.717,0.559c0.074,0.054 0.141,0.107 0.2,0.167c0.107,-0.146 0.213,-0.273 0.327,-0.393c-0.127,-0.119 -0.254,-0.213 -0.36,-0.293c-0.559,-0.4 -1.265,-0.626 -1.944,-0.52c-0.3,0.04 -0.187,0.453 0.06,0.48Z" style="fill:#6b779c;fill-rule:nonzero;"/><path d="M30.516,106.203c0.339,0.139 0.682,0.185 1.005,0.386c0.066,0.041 0.127,0.086 0.193,0.133c0.04,-0.146 0.087,-0.286 0.147,-0.413c-0.373,-0.326 -0.865,-0.525 -1.345,-0.439c-0.186,0.04 -0.14,0.279 -0,0.333Z" style="fill:#6b779c;fill-rule:nonzero;"/><path d="M30.243,111.35c-0,0 0.12,-0.021 0.293,-0.094c-2.764,-2.543 -2.643,-6.565 -2.431,-10.139c-0.525,0.545 -0.565,1.211 -0.612,2.749c-0.073,2.183 0.386,7.837 2.75,7.484Z" style="fill:#6b779c;fill-rule:nonzero;"/><path d="M74.568,120.985c0.253,1.184 0.759,1.425 2.524,2.19c2.004,0.872 7.437,2.517 7.97,0.187c-0,0 0.007,-0.028 0.013,-0.08c-2.576,2.164 -7.344,-0.686 -10.507,-2.297Z" style="fill:#6b779c;fill-rule:nonzero;"/><path d="M79.462,121.018c-0.02,0.146 0.054,0.266 0.213,0.279c0.46,0.027 0.873,-0.426 1.272,-0.626c0.18,-0.087 0.376,-0.153 0.576,-0.213c-0.253,-0.16 -0.462,-0.339 -0.629,-0.526c-0.047,0.021 -0.093,0.04 -0.14,0.061c-0.44,0.186 -1.212,0.492 -1.292,1.025Z" style="fill:#6b779c;fill-rule:nonzero;"/><path d="M78.796,120.286c0.447,-0.134 0.813,-0.454 1.219,-0.673c0.153,-0.08 0.319,-0.14 0.493,-0.201c-0.107,-0.179 -0.194,-0.338 -0.28,-0.499c-0.16,0.047 -0.313,0.1 -0.446,0.147c-0.48,0.18 -0.999,0.446 -1.205,0.938c-0.067,0.147 0.04,0.347 0.219,0.288Z" style="fill:#6b779c;fill-rule:nonzero;"/></g></svg>