<?xml version="1.0" encoding="UTF-8" standalone="no"?><!DOCTYPE svg PUBLIC "-//W3C//DTD SVG 1.1//EN" "http://www.w3.org/Graphics/SVG/1.1/DTD/svg11.dtd"><svg width="100%" height="100%" viewBox="0 0 105 106" version="1.1" xmlns="http://www.w3.org/2000/svg" xmlns:xlink="http://www.w3.org/1999/xlink" xml:space="preserve" xmlns:serif="http://www.serif.com/" style="fill-rule:evenodd;clip-rule:evenodd;stroke-linejoin:round;stroke-miterlimit:2;"><g><path d="M104.123,105.249c-1.085,0.12 -2.177,0.206 -3.282,0.26c-0.313,0.013 -89.637,0.053 -89.637,0.053c-0.06,-0.007 -0.126,-0.007 -0.186,-0.013c-0.479,-0.04 -0.952,-0.08 -1.431,-0.134c-1.226,-0.126 -1.226,-1.77 -0,-1.897c0.472,-0.054 0.952,-0.093 1.431,-0.127c0.067,-0.006 0.133,-0.006 0.2,-0.013c-0,0 89.31,0.034 89.616,0.047c1.105,0.053 2.197,0.14 3.289,0.26c1.006,0.112 0.999,1.451 -0,1.564Z" style="fill:#c6c6c6;fill-rule:nonzero;"/><path d="M30.909,95.905c-6.772,0.13 -14.805,-0.388 -18.364,-6.152c-2.852,-4.617 -1.455,-10.534 -1.671,-15.956c-0.218,-5.488 -2.18,-10.743 -3.11,-16.156c-0.93,-5.412 -0.631,-11.517 2.996,-15.641c3.338,-3.796 8.757,-5.093 12.449,-8.548c4.198,-3.929 5.514,-9.94 7.888,-15.178c4.054,-8.945 12.173,-16.346 21.86,-17.974c9.686,-1.627 20.538,3.468 24.156,12.6c2.789,7.042 1.305,15.504 5.283,21.95c2.584,4.187 7.062,6.796 10.352,10.455c6.823,7.586 7.797,18.609 8.434,28.792c0.227,3.626 0.417,7.444 -1.192,10.702c-2.134,4.321 -6.864,6.598 -11.263,8.566c-5.208,2.33 -10.598,4.702 -16.303,4.789c-6.958,0.106 -13.46,-3.122 -20.384,-3.207c-6.916,-0.085 -14.113,0.824 -21.131,0.958Z" style="fill:#f6f6f6;fill-rule:nonzero;"/><path d="M51.375,89.655c-0,0.193 -0.007,0.386 -0.007,0.58c-0.093,7.703 -4.508,8.868 -7.804,7.976c-0.598,-0.16 -1.118,-0.725 -1.557,-1.604c-0.52,-1.006 -0.94,-2.41 -1.285,-4.075c-0.054,-0.253 -0.107,-0.52 -0.161,-0.786c-0.931,-4.915 -1.311,-11.646 -1.604,-16.707c-0.026,-0.498 -0.06,-0.985 -0.087,-1.45c-0.133,-2.252 -0.259,-4.036 -0.433,-4.974c-0.099,-0.52 -0.206,-0.773 -0.333,-0.713c-5.646,2.723 -23.95,5.613 -24.942,7.158c-0.999,1.546 -2.255,2.159 -5.142,1.139c-2.557,-0.903 -5.551,-0.033 -7.51,-0.453c-0.664,-0.147 -0.686,-1.084 -0.026,-1.265c4.601,-1.266 9.788,-2.924 9.788,-2.924c-0,0 13.796,-7.49 21.228,-10.167c1.877,-0.68 4.107,-1.651 6.385,-2.098c0.253,-0.046 0.5,-0.092 0.753,-0.126c0.525,-0.073 1.051,-0.113 1.571,-0.113c4.594,0.007 8.962,3.322 10.547,16.799c0.193,1.659 0.345,3.476 0.453,5.46c0.133,2.504 0.192,5.28 0.166,8.343Z" style="fill:#f5a784;fill-rule:nonzero;"/><path d="M35.588,68.268c-0.194,0.973 -0.999,1.738 -1.898,2.157c-0.013,0.007 -0.033,0.014 -0.047,0.021c-0.333,0.153 -0.678,0.265 -1.032,0.359c-0.593,0.153 -1.198,0.239 -1.805,0.34c-0.179,0.026 -0.359,0.06 -0.539,0.1c-0.392,0.059 -0.779,0.132 -1.165,0.212c-1.039,0.201 -2.064,0.433 -3.083,0.701c-0.359,0.086 -0.718,0.178 -1.078,0.285c-1.006,0.273 -2.005,0.579 -2.997,0.913c-0.386,0.133 -0.772,0.265 -1.151,0.405c-0.453,0.16 -0.905,0.333 -1.352,0.506c-0.233,0.094 -0.493,0.207 -0.765,0.32c-0.34,0.153 -0.7,0.306 -1.073,0.446c-0.945,0.346 -1.944,0.552 -2.723,0.107c-1.152,-0.659 -2.271,-2.331 -3.237,-3.263c-0.545,-0.526 -1.137,-1.285 -0.798,-1.971c0.16,-0.32 0.493,-0.513 0.805,-0.693c0.413,-0.232 7.758,-4.134 7.964,-4.234c0.739,-0.38 3.456,-1.718 3.742,-1.858c0.726,-0.353 1.458,-0.699 2.198,-1.012c0.252,-0.113 0.505,-0.213 0.758,-0.306c1.193,-0.467 2.411,-0.833 3.676,-0.979c0.366,-0.04 0.739,-0.067 1.085,0.053c0.46,0.154 0.806,0.533 1.119,0.906c0.906,1.072 1.731,2.211 2.477,3.395c0.579,0.933 1.132,2.012 0.919,3.09Z" style="fill:#8695c2;fill-rule:nonzero;"/><path d="M50.756,75.852l-4.501,16.214l-5.694,-0.32c-0.931,-4.915 -1.311,-11.646 -1.604,-16.707c-0.026,-0.498 -0.06,-0.985 -0.087,-1.45c1.904,-7.658 1.611,-12.532 1.339,-14.536c4.594,0.007 8.962,3.322 10.547,16.799Z" style="fill:#e0855c;fill-rule:nonzero;"/><path d="M73.893,83.676c-0.039,0.147 -0.079,0.286 -0.126,0.433c-1.984,6.984 -5.519,11.985 -8.07,14.901c-2.11,2.417 -4.947,4.122 -8.097,4.747c-7.55,1.512 -13.37,-1.397 -15.993,-6.89c-0.985,-2.065 -1.425,-5.061 -1.551,-8.491c-0.38,-10.399 3.053,-25.23 2.996,-29.942c-0.09,-7.39 2.523,-23.658 1.504,-25.189c-1.025,-1.532 -1.504,-3.29 0.64,-5.241c1.997,-1.824 2.61,-5 3.782,-6.625c0.4,-0.559 1.265,-0.199 1.171,0.473c-0.678,4.728 -1.231,10.147 -1.231,10.147c-0,0 1.058,15.667 1.878,23.518c0.912,8.776 2.131,19.742 3.129,25.962c0.127,0.766 0.247,1.458 0.36,2.07c0.227,1.205 1.524,-1.738 2.956,-3.163c1.851,-1.837 3.655,-3.009 3.655,-3.009l12.997,6.299Z" style="fill:#f5a784;fill-rule:nonzero;"/><path d="M78.961,74.474c-1.499,2.123 -3.282,5.906 -5.194,9.635c-1.857,3.629 -3.822,7.224 -5.726,9.162c-5.44,1.065 -10.8,-12.885 -10.8,-12.885l3.06,-7.586l0.309,-6.489c0.373,-1.559 1.655,-2.773 3.249,-2.957c0.2,-0.023 0.366,-0.04 0.527,-0.06c0.246,-0.026 0.486,-0.047 0.712,-0.059c1.251,-0.101 2.25,-0.094 2.25,-0.094l1.472,-5.3l4.408,-0.38l-0.287,5.893c-0,0.04 0.833,0.1 1.958,0.307c1.685,0.293 4.048,0.898 5.293,2.17c0.873,0.892 0.006,6.891 -1.231,8.643Z" style="fill:#f5a784;fill-rule:nonzero;"/><path d="M78.961,74.474c-0.29,0.417 -0.579,0.873 -0.872,1.365c-1.125,1.877 -2.377,4.434 -3.702,7.051c-0.206,0.406 -0.414,0.813 -0.62,1.219c-1.984,6.984 -5.519,11.985 -8.07,14.901c-2.11,2.417 -4.947,4.122 -8.097,4.747c-7.55,1.512 -13.37,-1.397 -15.993,-6.89c-0.985,-2.065 -1.425,-5.061 -1.551,-8.491c3.468,-0.612 10.759,-4.361 13.869,-6.897c0.127,0.766 0.247,1.458 0.36,2.07c0.227,1.205 1.524,-1.738 2.956,-3.163l1.196,-4.187c-1.292,-0.645 -2.978,-3.296 -1.196,-4.659c2.471,-1.886 3.036,-3.851 3.036,-3.851l0.333,-1.378c0.373,-1.559 1.655,-2.773 3.249,-2.957c0.2,-0.023 0.366,-0.04 0.527,-0.06c0.246,-0.026 0.486,-0.047 0.712,-0.059c-0.892,2.942 -2.244,8.795 1.125,8.882c3.889,0.099 7.438,-5.74 8.676,-8.456c1.685,0.293 4.048,0.898 5.293,2.17c0.873,0.892 -0.008,6.881 -1.231,8.643Z" style="fill:#ff4590;fill-rule:nonzero;"/><path d="M51.654,43.187c0.069,0.676 0.483,5.285 0.524,5.884c0.011,0.306 0.029,0.612 0.034,0.92c0.032,0.9 0.011,1.805 -0.098,2.694c-0.042,0.379 -0.102,0.76 -0.178,1.136c-0.037,0.164 -0.074,0.322 -0.112,0.48c-0.084,0.35 -0.201,0.71 -0.433,0.994c-0.309,0.374 -0.786,0.564 -1.244,0.724c-1.325,0.458 -2.68,0.824 -4.057,1.1c-1.076,0.211 -2.282,0.341 -3.211,-0.24c-0.738,-0.466 -1.158,-1.313 -1.295,-2.182c-0.019,-0.119 -0.038,-0.238 -0.043,-0.358c-0.008,-0.139 -0.012,-0.272 -0.01,-0.414c0.017,-0.849 0.188,-1.699 0.362,-2.533c0.072,-0.349 0.308,-1.639 0.358,-1.932c0.135,-0.776 0.249,-1.557 0.343,-2.338c0.034,-0.251 0.057,-0.501 0.083,-0.751c0.074,-0.719 0.14,-1.435 0.2,-2.162c0.021,-0.264 0.039,-0.526 0.053,-0.789c0.061,-1.03 0.095,-2.065 0.089,-3.094c0.011,-0.223 0.008,-0.45 0.005,-0.67c0.001,-0.061 0.002,-0.115 -0.005,-0.181c-0.011,-0.507 -0.061,-1.125 -0.057,-1.734c0.002,-0.308 0.016,-0.618 0.06,-0.91c0.089,-0.705 0.311,-1.344 0.812,-1.75c1.024,-0.835 2.986,-1.291 4.2,-1.857c0.689,-0.325 1.61,-0.607 2.123,-0.051c0.241,0.263 0.307,0.645 0.357,1.001c0.048,0.337 1.105,8.675 1.14,9.013Z" style="fill:#8695c2;fill-rule:nonzero;"/><path d="M78.089,75.839c-1.125,1.877 -2.377,4.434 -3.702,7.051c-0.201,-12.744 3.163,-16.04 3.163,-16.04l0.539,8.989Z" style="fill:#eb3f84;fill-rule:nonzero;"/><path d="M95.652,102.039c-2.078,0.17 -3.929,-0.764 -3.929,-0.764c-0,0 -8.606,-10.714 -9.202,-14.989c-0.596,-4.276 0.094,-11.723 -0.981,-17.162c-1.076,-5.437 -3.311,-3.352 -3.311,-3.352c-3.947,2.264 -1.86,18.809 -0.681,24.141c0.992,4.489 8.825,11.736 11.276,13.915c0.465,0.413 1.063,0.639 1.685,0.639l7.485,0c0.416,0 0.667,-0.469 0.427,-0.809c-0.525,-0.746 -1.469,-1.725 -2.769,-1.619Z" style="fill:#f5a784;fill-rule:nonzero;"/><path d="M18.676,74.587c-0.34,0.153 -0.7,0.306 -1.073,0.446c-0.619,-1.085 -1.192,-2.198 -1.864,-3.243c-0.806,-1.245 -1.798,-2.263 -2.837,-3.262c0.286,-0.166 0.579,-0.326 0.865,-0.48c2.018,1.838 3.636,4.102 4.909,6.539Z" style="fill:#6b779c;fill-rule:nonzero;"/><path d="M21.944,73.356c-0.386,0.133 -0.772,0.265 -1.151,0.405c-0.394,-0.552 -0.76,-1.118 -1.119,-1.658c-1.212,-1.811 -2.524,-3.476 -3.889,-5.133c0.293,-0.16 0.58,-0.313 0.873,-0.467c1.065,0.973 1.917,2.204 2.736,3.383c0.826,1.192 1.678,2.337 2.55,3.47Z" style="fill:#6b779c;fill-rule:nonzero;"/><path d="M26.019,72.158c-0.359,0.086 -0.718,0.178 -1.078,0.285c-1.012,-0.992 -1.931,-2.098 -2.803,-3.11c-1.106,-1.285 -2.205,-2.617 -3.136,-4.042c0.206,-0.106 0.406,-0.212 0.612,-0.312c1.085,1.378 2.144,2.783 3.316,4.095c0.959,1.072 2.064,2.05 3.089,3.084Z" style="fill:#6b779c;fill-rule:nonzero;"/><path d="M30.267,71.245c-0.392,0.059 -0.779,0.132 -1.165,0.212c-1.171,-1.258 -2.397,-2.463 -3.688,-3.669c-1.306,-1.211 -2.597,-2.457 -3.576,-3.921c0.213,-0.114 0.432,-0.22 0.652,-0.32c1.412,1.638 2.95,3.11 4.588,4.588c1.086,0.972 2.23,1.978 3.189,3.11Z" style="fill:#6b779c;fill-rule:nonzero;"/><path d="M33.643,70.446c-0.333,0.153 -0.678,0.265 -1.032,0.359c-0.912,-1.538 -1.85,-3.043 -3.036,-4.454c-1.259,-1.499 -2.663,-2.851 -4.021,-4.242c0.252,-0.113 0.505,-0.213 0.758,-0.306c2.87,2.277 5.774,5.333 7.331,8.643Z" style="fill:#6b779c;fill-rule:nonzero;"/><path d="M52.114,52.685c-0.042,0.379 -0.102,0.76 -0.178,1.136c-3.248,1.096 -7.283,1.892 -10.352,0.876c-0.019,-0.119 -0.038,-0.238 -0.043,-0.358c-0.008,-0.139 -0.015,-0.272 -0.01,-0.414c3.346,0.768 7.232,-0.24 10.583,-1.24Z" style="fill:#6b779c;fill-rule:nonzero;"/><path d="M52.178,49.071c0.011,0.306 0.029,0.612 0.034,0.92c-3.345,1.059 -6.915,1.553 -10.117,0.356c0.056,-0.294 0.106,-0.594 0.156,-0.887c3.389,0.865 6.628,0.598 9.927,-0.389Z" style="fill:#6b779c;fill-rule:nonzero;"/><path d="M51.856,45.221c0.034,0.405 0.075,0.803 0.111,1.207c-3.037,1.128 -6.638,1.786 -9.373,0.694c0.034,-0.251 0.061,-0.501 0.083,-0.751c3.257,0.636 6.141,-0.222 9.179,-1.15Z" style="fill:#6b779c;fill-rule:nonzero;"/><path d="M51.654,43.187c-2.803,0.997 -5.983,1.639 -8.777,1.022c0.026,-0.264 0.039,-0.526 0.053,-0.789c1.601,0.083 3.168,0.097 4.785,-0.197c1.314,-0.241 2.572,-0.632 3.829,-1.042c0.041,0.337 0.075,0.668 0.11,1.006Z" style="fill:#6b779c;fill-rule:nonzero;"/><path d="M51.208,39.297c-2.675,0.616 -5.458,1.016 -8.189,1.029c0.011,-0.223 0.008,-0.45 0.005,-0.67c0.001,-0.061 0.002,-0.115 -0.005,-0.181c2.712,-0.318 5.374,-0.659 8.058,-1.188c0.048,0.336 0.089,0.673 0.131,1.01Z" style="fill:#6b779c;fill-rule:nonzero;"/><path d="M50.821,36.318c-2.563,0.652 -5.248,1.101 -7.859,1.423c0.002,-0.308 0.016,-0.618 0.06,-0.91c2.523,-0.6 5.085,-1.198 7.636,-1.647c0.059,0.375 0.11,0.751 0.163,1.134Z" style="fill:#6b779c;fill-rule:nonzero;"/><path d="M60.825,88.232c-1.281,-1.856 -3.233,-3.906 -5.472,-4.526c-0.216,-0.059 -0.392,0.116 -0.422,0.3c-0.065,0.057 -0.103,0.147 -0.083,0.241c0.041,0.196 0.068,0.224 0.238,0.328c0.021,0.013 0.046,0.016 0.069,0.015c1.898,1.892 2.177,5.063 3.267,7.353c0.082,0.172 0.35,0.082 0.348,-0.095c-0.016,-1.468 -0.701,-2.99 -1.291,-4.32c-0.361,-0.815 -0.769,-1.865 -1.366,-2.666c0.686,0.384 1.336,0.809 1.953,1.333c0.852,0.721 1.561,1.58 2.392,2.32c0.186,0.167 0.526,-0.053 0.367,-0.283Z" style="fill:#eb3f84;fill-rule:nonzero;"/><path d="M73.228,57.461l-0.113,2.398c-2.151,1.517 -4.101,1.451 -5.194,1.218l0.899,-3.236l4.408,-0.38Z" style="fill:#e0855c;fill-rule:nonzero;"/><path d="M75.798,46.801c-0.261,0.379 -0.599,0.746 -1.026,1.099c-0.192,-0.246 -1.751,-2.105 -5.326,-1.931c-0.113,0.007 -0.233,0.013 -0.353,0.02c-0,0 -0.034,-0.213 -0.034,-0.539l-0,-0.08c0.007,-1.132 0.414,-3.416 3.57,-3.096c0.346,0.033 0.666,0.086 0.966,0.159c2.736,0.613 3.462,2.54 2.203,4.368Z" style="fill:#3b2645;fill-rule:nonzero;"/><path d="M69.795,46.97c-0,0 -2.452,3.991 -4.293,4.644c-1.841,0.651 0.778,2.284 -1.305,4.397c-0,0 0.873,-1.751 -0.024,-2.302c-0.898,-0.549 -2.983,-4.394 0.143,-5.377c1.668,-0.523 4.203,-6.152 5.479,-1.362Z" style="fill:#3b2645;fill-rule:nonzero;"/><path d="M65.71,53.493c-0,0 -0.99,-8.481 5.036,-8.242c8.284,0.329 7.268,6.748 5.825,8.866c-1.441,2.117 -11.284,2.758 -10.861,-0.624Z" style="fill:#3b2645;fill-rule:nonzero;"/><path d="M66.395,49.399c-0.567,0.722 -0.792,2.111 -0.923,3.749c-0.401,4.957 1.909,6.895 3.534,6.974c1.67,0.082 5.222,-0.451 5.991,-5.028c0.385,-2.289 0.462,-4.223 -0.011,-5.436c-0.99,-2.542 -6.1,-3.425 -8.591,-0.259Z" style="fill:#f5a784;fill-rule:nonzero;"/><path d="M67.75,53.577c-0,0 -0.437,0.138 -0.335,-0.619c0.092,-0.679 0.392,-0.573 0.392,-0.573c-0,0 0.298,0.013 0.225,0.609c-0.074,0.594 -0.282,0.583 -0.282,0.583Z" style="fill:#3b2645;fill-rule:nonzero;"/><path d="M71.809,53.872c-0,0 -0.436,0.14 -0.335,-0.617c0.092,-0.68 0.393,-0.574 0.393,-0.574c-0,0 0.299,0.013 0.225,0.608c-0.075,0.596 -0.283,0.583 -0.283,0.583Z" style="fill:#3b2645;fill-rule:nonzero;"/><path d="M69.897,55.325c-0.216,-0.043 -0.72,0.063 -0.811,-0.177c-0.076,-0.199 0.33,-1.337 0.388,-1.532c0.065,-0.214 0.129,-0.407 0.193,-0.595c-0.02,-0.014 -0.036,-0.03 -0.057,-0.043c-0.045,-0.027 -0.091,-0.045 -0.136,-0.059c-0.242,0.784 -0.426,1.604 -0.652,2.346c-0.019,0.065 0.026,0.138 0.097,0.141c0.319,0.009 0.626,0.092 0.943,0.109c0.107,0.006 0.146,-0.168 0.035,-0.19Z" style="fill:#e0855c;fill-rule:nonzero;"/><path d="M68.332,51.291c-0.3,-0.171 -0.872,-0.241 -1.111,0.069c-0.044,0.055 0.005,0.146 0.075,0.146c0.152,0 0.291,-0.068 0.445,-0.073c0.166,-0.006 0.322,0.04 0.477,0.097c0.14,0.052 0.247,-0.163 0.114,-0.239Z" style="fill:#3b2645;fill-rule:nonzero;"/><path d="M72.546,51.971c-0.154,-0.444 -0.913,-0.523 -1.252,-0.268c-0.077,0.058 -0.035,0.177 0.044,0.207c0.186,0.067 0.391,0.005 0.588,0.033c0.172,0.024 0.305,0.106 0.463,0.171c0.081,0.033 0.187,-0.056 0.157,-0.143Z" style="fill:#3b2645;fill-rule:nonzero;"/><path d="M70.359,56.531c-0.308,0.134 -0.544,0.298 -0.899,0.295c-0.277,-0.003 -0.569,-0.149 -0.833,-0.068c-0.042,0.014 -0.075,0.062 -0.049,0.106c0.187,0.306 0.708,0.359 1.035,0.347c0.351,-0.012 0.772,-0.122 0.966,-0.438c0.092,-0.15 -0.067,-0.309 -0.22,-0.242Z" style="fill:#e0855c;fill-rule:nonzero;"/><path d="M75.266,53.14c-0,0 -1.346,-0.608 -1.21,-2.601c0.136,-1.991 -1.338,-1.846 -2.346,-2.307c-1.007,-0.461 -0.912,-0.87 -0.912,-0.87c-0,0 -0.66,0.544 -1.624,0.559c-0.964,0.017 -1.549,0.413 -1.582,1.237c-0.034,0.823 -1.479,0.475 -1.663,1.183c-0.184,0.708 0.06,-1.261 0.06,-1.261l2.318,-2.512l3.191,-0.259l2.853,1.225l1.8,1.549c-0,0 0.456,2.198 0.451,2.31c-0.005,0.112 -0.991,0.538 -1.336,1.747Z" style="fill:#3b2645;fill-rule:nonzero;"/><path d="M74.056,50.539c-0,0 -0.585,3.911 0.781,5.305c1.367,1.396 -1.703,1.709 -0.762,4.524c-0,0 -0.015,-1.957 1.033,-2.056c1.049,-0.1 2.43,-1.065 1.463,-4.195c-0.966,-3.131 -0.551,-6.327 -2.515,-3.578Z" style="fill:#3b2645;fill-rule:nonzero;"/><path d="M75.798,46.801c-0,0 -0.159,-0.139 -0.473,-0.34c-0.053,-0.033 -0.119,-0.066 -0.18,-0.106c-0.073,-0.04 -0.153,-0.086 -0.239,-0.133c-0.18,-0.1 -0.366,-0.193 -0.573,-0.273c-0.107,-0.04 -0.22,-0.086 -0.339,-0.133c-0.72,-0.267 -1.639,-0.499 -2.764,-0.567c-0,0 2.975,0.139 3.148,-1.265c0.087,-0.687 0.042,-1.098 -0.783,-1.551c2.736,0.613 3.468,2.544 2.203,4.368Z" style="fill:#2c1c33;fill-rule:nonzero;"/><path d="M71.175,77.989c-1.088,0.302 -1.912,0.635 -3.046,0.207c-1.093,-0.413 -2.047,-1.187 -2.424,-2.314c-0.088,-0.263 -0.428,-0.194 -0.46,0.061c-0.173,1.374 1.503,2.484 2.603,2.922c1.122,0.445 2.794,0.531 3.556,-0.578c0.103,-0.151 -0.067,-0.344 -0.229,-0.298Z" style="fill:#eb3f84;fill-rule:nonzero;"/><path d="M35.095,35.076c-4.267,1.416 -7.698,3.749 -10.212,7.507c-1.262,1.887 -2.278,3.927 -3.235,5.981c-0.898,1.93 -1.843,3.96 -1.857,6.127c-0.001,0.16 0.255,0.204 0.286,0.039c0.778,-4.018 2.819,-7.957 5.043,-11.382c1.186,-1.828 2.607,-3.538 4.372,-4.836c1.764,-1.298 3.803,-2.12 5.738,-3.113c0.177,-0.09 0.055,-0.386 -0.135,-0.323Z" style="fill:#c1cae3;fill-rule:nonzero;"/><path d="M38.112,39.178c-2.987,1.253 -6.008,3.774 -7.414,6.743c-0.061,0.13 0.104,0.287 0.212,0.164c1.051,-1.195 1.988,-2.446 3.174,-3.52c1.277,-1.156 2.73,-2.095 4.192,-2.997c0.197,-0.121 0.068,-0.487 -0.164,-0.39Z" style="fill:#c1cae3;fill-rule:nonzero;"/></g></svg>