<?xml version="1.0" encoding="UTF-8" standalone="no"?><!DOCTYPE svg PUBLIC "-//W3C//DTD SVG 1.1//EN" "http://www.w3.org/Graphics/SVG/1.1/DTD/svg11.dtd"><svg width="100%" height="100%" viewBox="0 0 100 128" version="1.1" xmlns="http://www.w3.org/2000/svg" xmlns:xlink="http://www.w3.org/1999/xlink" xml:space="preserve" xmlns:serif="http://www.serif.com/" style="fill-rule:evenodd;clip-rule:evenodd;stroke-linejoin:round;stroke-miterlimit:2;"><g><path d="M79.623,96.307c-0.962,2.073 -1.278,4.385 -2.069,6.529c-1.566,4.249 -4.951,7.651 -8.847,9.961c-3.895,2.309 -8.296,3.621 -12.704,4.659c-5.964,1.404 -12.154,2.346 -18.212,1.427c-6.058,-0.919 -12.018,-3.913 -15.403,-9.021c-0.939,-1.418 -1.668,-2.969 -2.645,-4.362c-2.189,-3.12 -5.307,-4.723 -8.267,-6.938c-2.543,-1.905 -4.549,-4.985 -6.156,-7.729c-3.48,-5.942 -5.373,-12.821 -5.319,-19.713c0.025,-3.129 0.452,-6.312 1.805,-9.134c1.436,-2.994 3.824,-5.411 6.21,-7.72c3.479,-3.369 7.13,-6.751 9.224,-11.117c2.128,-4.437 2.456,-9.491 3.673,-14.258c2.677,-10.487 9.964,-19.707 19.548,-24.735c8.412,-4.413 18.672,-5.551 27.578,-2.249c8.907,3.303 16.144,11.264 17.765,20.624c1.674,9.667 -2.343,20.224 1.785,29.124c1.646,3.547 4.353,6.998 6.921,9.932c2.648,3.026 4.017,6.648 4.473,10.695c0.112,0.993 0.16,2 0.02,2.99c-1.507,10.593 -15.288,12.209 -19.38,21.035Z" style="fill:#f6f6f6;fill-rule:nonzero;"/><path d="M69.22,25.173c-0.267,0.42 -0.64,0.732 -1.073,0.966c-0.392,0.226 -0.832,0.386 -1.271,0.512c-1.159,0.327 -2.504,0.414 -3.469,-0.306c-0.553,-0.413 -0.946,-1.072 -1.598,-1.305c-1.032,-0.366 -2.078,0.499 -3.17,0.639c-0.746,0.1 -1.511,-0.166 -2.13,-0.606c-0.613,-0.446 -1.086,-1.051 -1.492,-1.698c-0.446,-0.712 -0.846,-1.517 -1.571,-1.944c-0.646,-0.379 -1.432,-0.393 -2.184,-0.379c-0.933,0.026 -1.978,0.133 -2.571,0.858c-0.253,0.307 -0.472,0.833 -0.785,1.139c-0.226,0.226 -0.499,0.333 -0.872,0.186c-1.046,-0.413 -0.566,-1.544 -0.16,-2.21c0.952,-1.572 2.71,-2.664 4.561,-2.697c0.759,-0.02 1.511,0.127 2.27,0.147c0.799,0.019 1.599,-0.093 2.357,-0.34c0.839,-0.279 1.619,-0.706 2.464,-0.965c1.645,-0.507 3.615,-0.24 4.774,1.031c0.346,0.38 0.613,0.833 1.006,1.166c0.652,0.546 1.538,0.672 2.337,0.939c1.012,0.333 1.957,0.945 2.503,1.85c0.553,0.907 0.646,2.125 0.074,3.017Z" style="fill:#3b2645;fill-rule:nonzero;"/><path d="M68.147,26.139c-0.392,0.226 -0.832,0.386 -1.271,0.512c-1.159,0.327 -2.504,0.414 -3.469,-0.306c-0.553,-0.413 -0.946,-1.072 -1.598,-1.305c-1.032,-0.366 -2.078,0.499 -3.17,0.639c-0.746,0.1 -1.511,-0.166 -2.13,-0.606c-0.613,-0.446 -1.086,-1.051 -1.492,-1.698c-0.446,-0.712 -0.846,-1.517 -1.571,-1.944c-0.646,-0.379 -1.432,-0.393 -2.184,-0.379c-0.933,0.026 -1.978,0.133 -2.571,0.858c-0.253,0.307 -0.472,0.833 -0.785,1.139c-0.573,-2.577 2.723,-3.436 4.661,-3.343c1.298,0.068 2.596,0.593 3.469,1.559c0.526,0.593 0.912,1.351 1.618,1.704c0.652,0.326 1.424,0.24 2.144,0.146c1.165,-0.153 2.47,-0.253 3.389,0.48c0.739,0.593 1.078,1.638 1.937,2.044c0.926,0.433 2.118,-0.046 2.997,0.479l0.026,0.021Z" style="fill:#2c1c33;fill-rule:nonzero;"/><path d="M50.822,74.079c-0.839,0.886 -1.798,1.738 -2.836,2.537c-1.006,0.78 -2.078,1.505 -3.17,2.164c-4.281,2.584 -11.486,7.251 -13.769,8.91c-0.413,0.299 -0.553,0.852 -0.32,1.297c0.912,1.752 1.838,5.401 2.67,9.489c1.651,8.183 2.903,18.132 2.903,18.132c-1.165,1.677 -4.115,0.945 -4.115,0.945c0,-0 -3.789,-8.969 -6.991,-17.233c-2.417,-6.265 -4.495,-12.131 -4.315,-13.363c0.433,-3.016 10.227,-12.451 17.232,-19.016c3.949,-3.709 7.011,-6.499 7.011,-6.712c0,-0 1.019,-0.14 2.397,0.127c1.692,0.333 3.929,1.285 5.507,3.875c1.758,2.896 0.42,6.045 -2.204,8.848Z" style="fill:#f5a784;fill-rule:nonzero;"/><path d="M96.16,91.758c0.046,0.652 -0.127,1.318 -0.333,1.851c-0.253,0.672 -0.566,1.145 -0.566,1.145c0,-0 -9.595,0.666 -18.657,0.859c-7.218,0.147 -14.096,-0 -15.494,-1.026c-1.838,-1.345 -5.54,-9.414 -8.77,-16.945c-0.526,-1.212 -1.032,-2.41 -1.518,-3.563c-2.357,-5.586 -4.202,-10.127 -4.421,-10.187c0,-0 0.239,-1.185 1.118,-2.536c0.913,-1.419 2.524,-3.01 5.281,-3.596c5.38,-1.139 10.32,6.385 10.593,12.471c0.047,1.152 0.187,2.49 0.373,3.909c0.626,4.76 1.832,10.4 2.331,12.65c0.113,0.513 0.605,0.86 1.125,0.779c2.038,-0.306 5.966,-0.066 10.267,0.387c8.403,0.892 18.244,2.597 18.244,2.597c0.274,0.373 0.393,0.785 0.427,1.205Z" style="fill:#f5a784;fill-rule:nonzero;"/><path d="M86.944,127.15c-1.085,0.121 -2.177,0.207 -3.283,0.26l-62.775,0.054c-0.06,-0.007 -0.126,-0.009 -0.187,-0.014c-0.106,-0.009 -0.219,-0.02 -0.326,-0.026c-0.366,-0.033 -0.733,-0.067 -1.105,-0.107c-1.225,-0.126 -1.225,-1.771 0,-1.898c0.366,-0.039 0.739,-0.073 1.112,-0.1c0.106,-0.013 0.213,-0.017 0.319,-0.026c0.067,-0.006 0.133,-0.007 0.2,-0.014l62.756,0.047c1.106,0.054 2.197,0.14 3.289,0.26c1.006,0.113 0.999,1.451 0,1.564Z" style="fill:#c6c6c6;fill-rule:nonzero;"/><path d="M18.52,62.037c-0.021,-0.011 -0.035,-0.014 -0.058,-0.031c0.021,0.003 0.042,0.014 0.063,0.017l-0.005,0.014Zm24.238,-13.909c-0.608,-3.315 -1.431,-6.712 -2.183,-6.306c-1.443,0.777 -3.004,4.967 -4.139,10.992c-1.13,6.016 -3.246,7.88 -3.246,7.88c-3.05,0.237 -6.099,0.473 -9.148,0.709c-2.336,0.188 -4.589,0.786 -6.611,-0.707c-0.67,-0.496 -1.321,-1.042 -2.109,-1.303c-0.789,-0.262 -1.771,-0.164 -2.291,0.483c-1.089,1.36 -0.53,4.105 1.151,4.558c2.722,0.737 5.639,0.993 8.451,1.224c4.054,0.335 8.17,0.594 12.235,0.301c1.48,-0.06 3.626,-2.906 5.435,-5.801c1.879,-3.007 3.386,-6.063 3.386,-6.063c0,-0 -0.377,-2.953 -0.931,-5.967Z" style="fill:#f5a784;fill-rule:nonzero;"/><path d="M43.689,54.095c0,-0 -1.507,3.056 -3.386,6.063c0.319,-5.77 -0.633,-9.827 -0.633,-9.827c-0.349,-2.25 1.961,-2.305 3.088,-2.203c0.554,3.014 0.931,5.967 0.931,5.967Z" style="fill:#e0855c;fill-rule:nonzero;"/><path d="M58.386,60.07c-4.747,1.984 -8.683,2.644 -11.619,2.75c-1.531,-0.413 -1.777,-0.793 -1.777,-0.793c-0.161,-0.073 -0.66,-1.297 -0.706,-1.464c-0.28,-0.979 -0.939,-1.871 -1.246,-2.843c-0.619,-1.938 -0.699,-4.028 -2.097,-5.667c-0.32,-0.36 -0.686,-0.686 -0.952,-1.092c-0.713,-1.059 -0.64,-2.436 -0.426,-3.708c0.013,-0.074 0.026,-0.153 0.04,-0.227c0.246,-1.391 0.066,-2.643 0.16,-4.008c0.066,-0.979 0.972,-1.338 1.877,-1.631c0.173,-0.054 0.826,-0.267 0.959,-0.314c0.553,-0.173 1.119,-0.326 1.611,-0.446c0.733,-0.192 1.272,-0.312 1.272,-0.312l0.12,-4.721c-0.127,-2.211 4.821,-3.23 4.821,-3.23l0.293,7.198c0.007,0.053 0.279,0.027 0.778,-0.02c0.313,-0.033 0.713,-0.066 1.192,-0.106c0.027,-0.007 0.054,-0.014 0.087,-0.007c0.107,-0.014 0.206,-0.02 0.32,-0.027c0.199,-0.013 0.406,-0.026 0.626,-0.04c0.439,-0.04 0.899,-0.059 1.338,-0.02c0.772,0.073 1.445,0.34 1.705,1.126c0.519,1.578 0.212,3.382 0.08,4.987c-0.087,1.045 -0.107,2.064 -0.094,3.089c0.007,0.32 0.014,0.633 0.02,0.952c0.047,1.139 0.12,2.271 0.206,3.409c0.014,0.167 0.02,0.327 0.034,0.494c0.033,0.446 0.959,6.671 1.378,6.671Z" style="fill:#f5a784;fill-rule:nonzero;"/><path d="M70.3,67.549c-0.013,0.019 -0.023,0.034 -0.036,0.054c0.005,-0.019 0.012,-0.038 0.018,-0.063l0.018,0.009Zm-17.349,-21.142c15.439,4.499 17.391,6.41 17.391,6.41c-0.051,3.059 -0.105,6.118 -0.153,9.175c-0.036,2.344 0.35,4.641 -1.328,6.514c-0.666,0.742 -1.41,1.456 -1.666,2.455c-0.172,0.673 -0.032,1.419 0.481,1.888c1.274,1.167 3.996,0.851 4.6,-0.756c0.991,-2.64 1.521,-5.519 2.017,-8.3c0.715,-4.004 1.449,-8.074 1.449,-12.148c0.001,-5.868 -15.419,-10.801 -19.457,-11.994c-0.592,-0.173 -1.051,0.248 -1.61,0.505c-2.179,1.006 -3.253,5.806 -1.724,6.251Z" style="fill:#f5a784;fill-rule:nonzero;"/><path d="M63.766,74.14c-0.686,-0.04 -1.364,-0.023 -2.017,0.026c-0.346,0.026 -0.693,0.053 -1.026,0.107c-3.675,0.519 -6.705,2.23 -8.383,3.369c-0.526,-1.212 -1.032,-2.41 -1.518,-3.563c-0.839,0.886 -1.798,1.738 -2.836,2.537c-0.453,-0.699 -1.026,-1.411 -1.685,-2.117c-2.49,-2.663 -6.126,-5.207 -8.19,-6.558c3.949,-3.709 7.011,-6.499 7.011,-6.712c0,-0 1.019,-0.14 2.397,0.127c0.913,-1.419 2.524,-3.01 5.281,-3.596c5.38,-1.139 10.32,6.385 10.593,12.471c0.047,1.152 0.187,2.49 0.373,3.909Z" style="fill:#8695c2;fill-rule:nonzero;"/><path d="M36.3,116.608c-1.165,1.677 -4.115,0.945 -4.115,0.945c0,-0 -6.718,-16.527 -6.991,-17.233c2.27,-0.153 5.473,-0.592 8.203,-1.844c0.146,0.732 1.005,5.426 1.059,5.733c1.099,6.472 1.844,12.399 1.844,12.399Z" style="fill:#b8c3e3;fill-rule:nonzero;"/><path d="M37.199,119.191c0.006,0.552 -0.36,1.044 -0.812,1.358c-0.453,0.307 -0.993,0.459 -1.518,0.612c-2.098,0.619 -3.962,1.618 -6.166,1.985c-1.318,0.213 -4.029,0.566 -4.441,-1.239c0,-0 -0.007,-0.033 -0.014,-0.093c-0.02,-0.173 -0.033,-0.546 0.14,-0.979c0.253,-0.652 0.932,-1.425 2.63,-1.798c0.367,-0.08 0.69,-0.191 0.972,-0.319c0.152,-0.069 0.295,-0.137 0.426,-0.22c0.041,-0.025 0.08,-0.054 0.114,-0.08c0.226,-0.146 0.413,-0.312 0.572,-0.479c0.02,-0.02 0.04,-0.034 0.054,-0.053c0.166,-0.187 0.306,-0.373 0.419,-0.573c0.013,-0.013 0.027,-0.034 0.033,-0.046c0.127,-0.207 0.227,-0.394 0.326,-0.58c0.313,-0.626 0.54,-1.132 1.113,-1.225c1.351,-0.213 3.269,0.293 3.182,1.664c0,-0 1.665,-0.033 1.898,-1.005c0.153,-0.619 0.439,-0.094 0.539,0.239c0.173,0.574 0.08,1.2 0.266,1.791c0.027,0.081 0.054,0.154 0.081,0.234c0.086,0.246 0.173,0.486 0.179,0.739c0.007,0.02 0.007,0.047 0.007,0.067Z" style="fill:#ff4590;fill-rule:nonzero;"/><path d="M96.16,91.758l-0.333,1.851c-0.253,0.672 -0.566,1.145 -0.566,1.145c0,-0 -6.219,0.433 -13.377,0.699c-0.327,0.014 -4.568,0.147 -5.28,0.16c0.573,-2.936 0.799,-5.846 0.885,-7.657c0.793,0.086 5.054,0.606 5.334,0.646c6.738,0.879 12.91,1.951 12.91,1.951c0.274,0.373 0.393,0.785 0.427,1.205Z" style="fill:#b8c3e3;fill-rule:nonzero;"/><path d="M49.215,21.354c-0.317,-0.49 -0.905,-0.542 -1.45,-0.589c-0.559,-0.049 -1.116,0.015 -1.647,0.194c-0.731,0.247 -0.432,1.275 0.315,1.145c0.408,-0.072 0.833,-0.106 1.246,-0.061c0.417,0.046 0.792,0.265 1.207,0.121c0.319,-0.111 0.535,-0.494 0.329,-0.81Z" style="fill:#ff4590;fill-rule:nonzero;"/><path d="M50.516,34.708c-1.472,2.557 -3.522,3.396 -4.987,3.643l0.073,-2.757c-0.127,-2.211 4.821,-3.23 4.821,-3.23l0.093,2.344Z" style="fill:#e0855c;fill-rule:nonzero;"/><path d="M41.471,30.904c0,-0 -2.133,-8.266 3.87,-8.848c8.252,-0.799 8.982,5.835 6.924,8.906c-1.887,2.814 -10.754,3.352 -10.794,-0.058Z" style="fill:#3b2645;fill-rule:nonzero;"/><path d="M52.481,29.353c-0.204,-1.376 -1.104,-0.802 -1.62,-0.341c-0.084,-1.321 -0.305,-2.417 -0.721,-3.166c-1.326,-2.384 -6.509,-2.565 -8.546,0.91c-0.464,0.792 -0.498,2.199 -0.407,3.839c0.277,4.966 2.828,6.573 4.45,6.43c1.476,-0.129 4.347,-0.944 5.079,-4.356c0.681,-0.569 1.98,-1.864 1.765,-3.316Z" style="fill:#f5a784;fill-rule:nonzero;"/><path d="M43.503,30.711c0,-0 -0.414,0.196 -0.416,-0.566c-0.002,-0.688 0.311,-0.622 0.311,-0.622c0,-0 0.298,-0.029 0.305,0.572c0.008,0.599 -0.2,0.616 -0.2,0.616Z" style="fill:#3b2645;fill-rule:nonzero;"/><path d="M47.565,30.453c0,-0 -0.414,0.197 -0.416,-0.567c-0.001,-0.687 0.311,-0.621 0.311,-0.621c0,-0 0.298,-0.029 0.305,0.571c0.008,0.601 -0.2,0.617 -0.2,0.617Z" style="fill:#3b2645;fill-rule:nonzero;"/><path d="M45.868,32.151c-0.22,-0.013 -0.706,0.161 -0.828,-0.065c-0.103,-0.187 0.145,-1.369 0.177,-1.571c0.035,-0.221 0.072,-0.419 0.11,-0.615c-0.021,-0.011 -0.041,-0.025 -0.062,-0.035c-0.049,-0.021 -0.096,-0.033 -0.143,-0.04c-0.133,0.809 -0.204,1.648 -0.327,2.413c-0.011,0.068 0.044,0.133 0.115,0.126c0.317,-0.033 0.632,0.007 0.949,-0.019c0.106,-0.009 0.122,-0.187 0.009,-0.194Z" style="fill:#e0855c;fill-rule:nonzero;"/><path d="M43.769,28.367c-0.32,-0.129 -0.897,-0.12 -1.091,0.219c-0.036,0.062 0.025,0.145 0.094,0.136c0.151,-0.022 0.279,-0.108 0.431,-0.134c0.164,-0.028 0.325,-0.004 0.485,0.031c0.146,0.033 0.223,-0.194 0.081,-0.252Z" style="fill:#3b2645;fill-rule:nonzero;"/><path d="M48.037,28.469c-0.213,-0.42 -0.977,-0.395 -1.277,-0.096c-0.069,0.068 -0.011,0.181 0.071,0.198c0.195,0.042 0.389,-0.046 0.587,-0.046c0.174,-0 0.318,0.065 0.483,0.107c0.084,0.021 0.177,-0.081 0.136,-0.163Z" style="fill:#3b2645;fill-rule:nonzero;"/><path d="M46.49,33.283c-0.288,0.175 -0.499,0.368 -0.851,0.414c-0.274,0.036 -0.583,-0.069 -0.835,0.047c-0.04,0.019 -0.066,0.072 -0.034,0.111c0.227,0.278 0.75,0.26 1.073,0.204c0.346,-0.061 0.747,-0.226 0.897,-0.566c0.07,-0.161 -0.108,-0.296 -0.25,-0.21Z" style="fill:#e0855c;fill-rule:nonzero;"/><path d="M51.21,25.125c0.918,0.924 0.269,2.375 -0.169,3.382c-0.037,0.086 -0.107,0.188 -0.197,0.164c-0.082,-0.323 -0.099,-0.661 -0.188,-0.982c-0.089,-0.323 -0.267,-0.643 -0.568,-0.788c-0.405,-0.195 -0.912,-0.102 -1.34,-0.212c-1.042,-0.27 -1.067,-1.669 -2.003,-1.975c-1.014,-0.331 -2.251,0.599 -2.853,1.296c-0.69,0.799 -1.251,1.761 -2.173,2.275c-0.625,0.348 -1.354,0.452 -2.067,0.503c-0.676,0.049 -1.374,0.052 -2.005,-0.194c-0.539,-0.209 -1.603,-1.051 -0.993,-1.488c0.291,-0.209 1.043,-0.167 1.4,-0.244c0.429,-0.092 0.85,-0.21 1.241,-0.414c1.01,-0.526 1.264,-1.39 1.937,-2.201c0.63,-0.76 1.59,-1.364 2.528,-1.645c0.924,-0.278 2.062,-0.283 2.989,0.008c1.085,0.341 2.068,0.925 3.015,1.544c0.438,0.288 1.047,0.57 1.446,0.971Z" style="fill:#3b2645;fill-rule:nonzero;"/><path d="M37.199,119.191c0.006,0.552 -0.36,1.044 -0.812,1.358c-0.453,0.307 -0.993,0.459 -1.518,0.612c-2.098,0.619 -3.962,1.618 -6.166,1.985c-1.318,0.213 -4.029,0.566 -4.441,-1.239c0,-0 -0.007,-0.033 -0.014,-0.093c-0.02,-0.173 -0.033,-0.546 0.14,-0.979c0.013,0.021 0.033,0.047 0.04,0.073c1.019,3.216 6.792,1.052 8.842,0.253c1.379,-0.546 2.637,-1.325 3.922,-2.037c0.007,0.02 0.007,0.047 0.007,0.067Z" style="fill:#de3c7c;fill-rule:nonzero;"/><path d="M30.554,119.989c-0.6,-0.139 -1.145,-0.558 -1.698,-0.832c-0.293,-0.146 -0.586,-0.279 -0.866,-0.439c0.153,-0.067 0.295,-0.137 0.426,-0.22c0.041,-0.025 0.08,-0.054 0.114,-0.08c0.166,0.066 0.326,0.14 0.492,0.213c0.58,0.267 1.305,0.519 1.752,0.979c0.166,0.166 0,0.433 -0.22,0.379Z" style="fill:#de3c7c;fill-rule:nonzero;"/><path d="M31.699,119.137c-0.652,-0.033 -1.225,-0.526 -1.791,-0.819c-0.24,-0.126 -0.533,-0.24 -0.806,-0.379c0.02,-0.02 0.04,-0.034 0.054,-0.053c0.166,-0.187 0.306,-0.373 0.419,-0.573c0.213,0.093 0.419,0.207 0.606,0.293c0.599,0.28 1.398,0.54 1.751,1.126c0.1,0.166 -0.026,0.412 -0.233,0.405Z" style="fill:#de3c7c;fill-rule:nonzero;"/><path d="M33.996,101.592c-2.417,1.046 -5.12,1.679 -7.644,1.679c-0.106,-0.274 -0.212,-0.547 -0.326,-0.82c1.738,-0.153 3.456,-0.306 5.167,-0.792c0.919,-0.259 1.791,-0.586 2.637,-0.959c0.053,0.299 0.106,0.593 0.166,0.892Z" style="fill:#fff;fill-rule:nonzero;"/><path d="M34.456,104.209c-2.384,0.733 -4.947,1.125 -7.331,1.012c-0.113,-0.293 -0.234,-0.586 -0.346,-0.879c1.944,-0.107 3.881,-0.187 5.826,-0.612c0.572,-0.127 1.132,-0.28 1.684,-0.454c0.06,0.314 0.113,0.626 0.167,0.933Z" style="fill:#fff;fill-rule:nonzero;"/><path d="M79.786,95.526c-0.346,0.014 -0.699,0.02 -1.045,0.034c0.3,-0.933 0.573,-1.878 0.753,-2.857c0.279,-1.491 0.319,-2.983 0.393,-4.474c0.299,0.033 0.606,0.073 0.905,0.106c0.133,2.331 -0.26,4.907 -1.006,7.191Z" style="fill:#fff;fill-rule:nonzero;"/><path d="M50.822,74.079c-0.839,0.886 -1.798,1.738 -2.836,2.537c-0.453,-0.699 -1.026,-1.411 -1.685,-2.117l4.521,-0.42Z" style="fill:#6b779c;fill-rule:nonzero;"/><path d="M61.749,74.166c-0.346,0.02 -0.693,0.053 -1.026,0.107c-0.672,-5.147 -1.491,-9.921 -4.833,-14.316c-0.141,-0.186 0.146,-0.347 0.292,-0.226c3.862,3.062 5.227,9.221 5.567,14.435Z" style="fill:#6b779c;fill-rule:nonzero;"/><path d="M73.991,65.76c-0.793,-0.574 -2.067,-0.696 -3.012,-0.843c-0.462,-0.071 -1.01,-0.127 -1.425,0.146c-0.317,0.207 -0.577,0.699 -0.351,1.065c0.367,0.592 1.142,0.599 1.755,0.77c0.619,0.17 1.481,0.252 1.993,0.64c1.048,0.795 2.112,-1.002 1.04,-1.778Z" style="fill:#8695c2;fill-rule:nonzero;"/><path d="M20.189,61.129c-0.259,-0.754 -1.466,-0.884 -1.662,-0c-0.15,0.668 -0.134,1.352 -0.218,2.028c-0.086,0.684 -0.352,1.395 -0.262,2.078c0.124,0.946 1.319,1.446 1.89,0.512c0.411,-0.67 0.435,-1.519 0.464,-2.29c0.028,-0.769 0.04,-1.594 -0.212,-2.328Z" style="fill:#8695c2;fill-rule:nonzero;"/><path d="M58.626,59.764c-6.392,3.629 -14.149,2.183 -14.149,2.183c-0.16,-0.073 -0.5,-1.144 -0.546,-1.311c-0.28,-0.979 -0.586,-1.944 -0.893,-2.916c-0.619,-1.938 -0.699,-4.028 -2.097,-5.667c-0.32,-0.36 -0.686,-0.686 -0.952,-1.092c-0.713,-1.059 -0.64,-2.436 -0.426,-3.708l2.077,-5.866c0.173,-0.054 0.826,-0.267 0.959,-0.314c0.553,-0.173 1.119,-0.326 1.611,-0.446c-0.446,2.051 -0.959,6.485 1.818,6.619c3.17,0.147 4.947,-4.574 5.466,-7.704c0.313,-0.033 0.713,-0.066 1.192,-0.106c0.027,-0.007 0.054,-0.014 0.087,-0.007c0.107,-0.014 0.206,-0.02 0.32,-0.027c0.199,-0.013 0.406,-0.026 0.626,-0.04c-0.114,1.152 -0.237,3.262 0.106,5.293c0.349,2.065 1.166,4.029 2.943,4.841c0.047,1.139 0.12,2.271 0.206,3.409c0.014,0.167 0.02,0.327 0.034,0.494c0.007,0.08 0.047,0.333 0.12,0.699c0.306,1.671 1.152,5.666 1.498,5.666Z" style="fill:#ff4590;fill-rule:nonzero;"/><path d="M57.128,54.098c-3.729,-2.664 -3.303,-9.103 -3.303,-9.429c0.346,2.051 1.166,4.015 2.943,4.827c0.047,1.139 0.12,2.271 0.206,3.409c0.014,0.167 0.02,0.327 0.034,0.494c0.007,0.08 0.047,0.333 0.12,0.699Z" style="fill:#de3c7c;fill-rule:nonzero;"/><path d="M30.914,44.364c-6.697,-0.38 -13.524,-0.105 -20.23,0.014c-0.184,0.003 -0.184,0.282 0,0.286c6.706,0.118 13.533,0.394 20.23,0.013c0.201,-0.012 0.202,-0.301 0,-0.313Z" style="fill:#c1cae3;fill-rule:nonzero;"/><path d="M29.894,46.894c-2.73,-0.27 -5.594,-0.049 -8.33,0.096c-0.103,0.005 -0.104,0.156 0,0.161c2.735,0.146 5.601,0.367 8.33,0.097c0.227,-0.022 0.228,-0.332 0,-0.354Z" style="fill:#c1cae3;fill-rule:nonzero;"/><path d="M93.815,78.97c-3.576,-0.241 -7.211,-0.085 -10.795,-0.071c-3.597,0.013 -7.202,-0.029 -10.795,0.188c-0.147,0.009 -0.147,0.22 0,0.229c3.593,0.216 7.198,0.175 10.795,0.189c3.585,0.013 7.219,0.17 10.795,-0.072c0.298,-0.02 0.299,-0.443 0,-0.463Z" style="fill:#c1cae3;fill-rule:nonzero;"/><path d="M66.494,101.126c-4.01,-0.231 -8.07,-0.06 -12.085,-0.041c-3.819,0.018 -7.664,-0.076 -11.476,0.177c-0.125,0.009 -0.106,0.208 0.014,0.217c3.901,0.263 7.839,0.162 11.748,0.182c3.909,0.021 7.861,0.186 11.764,-0.037c0.31,-0.017 0.366,-0.478 0.035,-0.498Z" style="fill:#c1cae3;fill-rule:nonzero;"/><path d="M86.506,13.584c-5.627,-0.26 -11.285,-0.113 -16.916,-0.109c-5.611,0.004 -11.316,-0.282 -16.915,0.114c-0.207,0.015 -0.208,0.308 0,0.322c5.599,0.396 11.304,0.112 16.915,0.114c5.631,0.004 11.289,0.151 16.916,-0.108c0.214,-0.011 0.214,-0.323 0,-0.333Z" style="fill:#c1cae3;fill-rule:nonzero;"/><path d="M78.73,16.514c-2.669,-0.47 -5.465,-0.208 -8.107,0.325c-0.192,0.038 -0.151,0.373 0.047,0.347c2.686,-0.348 5.313,-0.295 8.011,-0.31c0.201,-0.001 0.26,-0.325 0.049,-0.362Z" style="fill:#c1cae3;fill-rule:nonzero;"/><path d="M97.831,99.921c-0.101,0.393 -0.246,0.893 -0.453,1.385c-0.013,0.02 -0.02,0.047 -0.033,0.073c-0.18,0.433 -0.419,0.859 -0.712,1.179c-0.34,0.38 -0.759,0.619 -1.279,0.605c0,-0 -0.033,-0 -0.093,-0.006c-0.14,-0.02 -0.413,-0.087 -0.712,-0.259c-0.614,-0.354 -1.339,-1.186 -1.266,-3.13c0.014,-0.407 -0.019,-0.772 -0.073,-1.099c-0.023,-0.14 -0.053,-0.267 -0.093,-0.386c-0.04,-0.12 -0.08,-0.233 -0.127,-0.34c-0.086,-0.193 -0.186,-0.373 -0.286,-0.526c-0.126,-0.193 -0.246,-0.333 -0.366,-0.466c-0.033,-0.047 -0.073,-0.092 -0.114,-0.133c-0.166,-0.173 -0.323,-0.316 -0.479,-0.459c-0.516,-0.471 -0.959,-0.813 -0.905,-1.385c0.139,-1.359 1.118,-3.09 2.417,-2.663c0,-0 0.392,-1.612 -0.493,-2.091c-0.672,-0.36 0.226,-0.406 0.506,-0.44c0.62,-0.066 2.078,-0.24 2.184,-0.253c0.18,-0.02 0.366,-0.04 0.546,-0.02c0.059,0.007 0.113,0.014 0.173,0.027c0.426,0.119 0.719,0.506 0.932,0.899c0.633,1.198 0.758,2.59 0.872,3.935c0.153,1.844 0.313,3.741 -0.146,5.553Z" style="fill:#ff4590;fill-rule:nonzero;"/><path d="M97.831,99.921c-0.101,0.393 -0.246,0.893 -0.453,1.385c-0.013,0.02 -0.02,0.047 -0.033,0.073c-0.206,0.413 -0.447,0.806 -0.712,1.179c-0.34,0.38 -0.759,0.619 -1.279,0.605c0,-0 -0.033,-0 -0.093,-0.006c-0.14,-0.02 -0.413,-0.087 -0.712,-0.259c3.915,-3.256 2.676,-9.096 1.451,-13.391c0.059,0.007 0.113,0.014 0.173,0.027c0.426,0.119 0.719,0.506 0.932,0.899c0.633,1.198 0.758,2.59 0.872,3.935c0.153,1.844 0.313,3.741 -0.146,5.553Z" style="fill:#de3c7c;fill-rule:nonzero;"/><path d="M94.748,95.706c-0.553,0.307 -1.045,0.52 -1.491,0.992c-0.201,0.213 -0.4,0.447 -0.579,0.686c-0.101,-0.159 -0.22,-0.3 -0.34,-0.433c0.166,-0.213 0.345,-0.399 0.439,-0.512c0.453,-0.539 1.106,-1.159 1.845,-1.186c0.239,-0.006 0.333,0.34 0.126,0.453Z" style="fill:#de3c7c;fill-rule:nonzero;"/><path d="M95.214,96.892c-0.053,0.279 -0.266,0.345 -0.492,0.479c-0.293,0.166 -0.567,0.346 -0.827,0.559c-0.239,0.207 -0.459,0.486 -0.685,0.739c-0.02,-0.14 -0.053,-0.267 -0.093,-0.386c-0.04,-0.12 -0.08,-0.233 -0.127,-0.34c0.173,-0.193 0.359,-0.366 0.526,-0.505c0.353,-0.307 1.13,-1.047 1.612,-0.753c0.074,0.046 0.099,0.127 0.086,0.207Z" style="fill:#de3c7c;fill-rule:nonzero;"/><path d="M81.884,95.453c-0.327,0.014 -0.66,0.027 -0.986,0.04c0.247,-0.799 0.467,-1.598 0.633,-2.424c0.306,-1.538 0.373,-3.049 0.44,-4.581c0.286,0.034 0.572,0.074 0.852,0.114c0.093,2.244 -0.26,4.647 -0.939,6.851Z" style="fill:#fff;fill-rule:nonzero;"/></g></svg>