<?xml version="1.0" encoding="UTF-8" standalone="no"?><!DOCTYPE svg PUBLIC "-//W3C//DTD SVG 1.1//EN" "http://www.w3.org/Graphics/SVG/1.1/DTD/svg11.dtd"><svg width="100%" height="100%" viewBox="0 0 97 112" version="1.1" xmlns="http://www.w3.org/2000/svg" xmlns:xlink="http://www.w3.org/1999/xlink" xml:space="preserve" xmlns:serif="http://www.serif.com/" style="fill-rule:evenodd;clip-rule:evenodd;stroke-linejoin:round;stroke-miterlimit:2;"><g><path d="M8.968,85.373c-3.386,-5.49 -3.239,-12.955 0.359,-18.308c1.57,-2.335 3.753,-4.336 4.631,-7.01c1.681,-5.12 -1.937,-10.27 -3.732,-15.352c-2.714,-7.682 -1.133,-16.487 3.118,-23.438c4.251,-6.95 10.934,-12.171 18.234,-15.79c11.512,-5.707 25.447,-7.591 37.27,-2.558c11.822,5.033 20.554,17.946 18.452,30.622c-0.869,5.235 -3.432,10.239 -3.167,15.539c0.358,7.157 5.716,13.005 7.967,19.808c2.854,8.624 0.152,18.809 -6.575,24.915c-6.726,6.106 -17.096,7.819 -25.445,4.238c-3.262,-1.399 -6.319,-3.553 -9.855,-3.869c-3.8,-0.341 -7.276,1.404 -10.846,2.372c-4.778,1.296 -6.923,0.467 -11.174,-1.62c-6.972,-3.422 -14.429,-1.755 -19.237,-9.549Z" style="fill:#f6f6f6;fill-rule:nonzero;"/><path d="M63.41,71.212c-0.399,0.932 -0.952,1.791 -1.278,2.75c-0.213,0.619 -0.319,1.271 -0.593,1.864c-0.246,0.533 -0.619,0.992 -1.078,1.358c-0.46,0.367 -1.006,0.626 -1.578,0.746c-1.951,0.393 -4.195,-0.739 -5.853,0.353c-0.067,0.047 -0.133,0.095 -0.2,0.146c-0.315,0.246 -0.593,0.539 -0.919,0.766c-1.425,1.006 -3.402,0.533 -4.98,-0.22c-1.572,-0.752 -3.13,-1.771 -4.881,-1.751c-0.612,0.007 -1.225,0.147 -1.831,0.08c-1.106,-0.106 -2.037,-0.859 -2.743,-1.711c-2.89,-3.502 -2.497,-9.362 0.139,-12.891c0.48,-0.646 1.032,-1.278 1.199,-2.064c0.16,-0.753 -0.06,-1.538 0.06,-2.297c0.159,-1.045 0.939,-1.872 1.571,-2.723c0.799,-1.072 1.411,-2.284 1.812,-3.563c0.133,-0.425 0.239,-0.859 0.326,-1.292c0.286,-1.498 0.333,-3.142 1.291,-4.321c1.646,-2.004 5.214,-2.424 7.605,-1.977c2.709,0.519 5.186,1.738 6.079,4.574c0.446,1.438 0.385,2.976 0.486,4.474c0.1,1.498 0.412,3.083 1.444,4.175c0.48,0.506 1.099,0.9 1.412,1.512c0.499,0.966 0.093,2.124 0.027,3.209c-0.033,0.493 0.013,0.992 0.12,1.478c0.153,0.633 0.419,1.239 0.799,1.765c0.106,0.147 0.219,0.293 0.333,0.433c0.579,0.699 1.271,1.332 1.557,2.183c0.321,0.959 0.074,2.018 -0.326,2.944Z" style="fill:#3b2645;fill-rule:nonzero;"/><path d="M62.179,66.085c-0,0.019 -0,0.047 -0.007,0.066c-0.16,0.813 -0.619,1.525 -0.992,2.258c-1.152,2.257 -1.512,4.9 -1.019,7.377c0.093,0.46 0.213,0.926 0.3,1.398c-0.46,0.367 -1.006,0.626 -1.578,0.746c-1.951,0.393 -4.195,-0.739 -5.853,0.353c-0.067,0.047 -0.134,0.094 -0.2,0.146c-0.359,-1.625 -0.14,-3.376 0.253,-5.02c0.06,-0.246 0.1,-0.56 -0.106,-0.706c-0.127,-0.086 -0.293,-0.067 -0.447,-0.067c-1.138,0.014 -2.136,-0.878 -2.556,-1.937c-0.42,-1.059 -0.367,-2.244 -0.194,-3.369c0.173,-1.118 0.453,-2.237 0.467,-3.376c0.006,-1.711 -0.606,-3.403 -0.434,-5.101c0.167,-1.651 1.106,-3.202 2.485,-4.114c0.399,-0.267 1.997,-1.139 2.436,-0.633c0.246,0.286 -0.299,1.938 -0.326,2.351c-0.113,1.704 0.273,3.489 1.392,4.82c1.172,1.392 2.956,2.124 4.734,2.49c0.173,0.034 0.346,0.068 0.513,0.12c0.153,0.633 0.419,1.239 0.799,1.765c0.106,0.147 0.219,0.293 0.333,0.433Z" style="fill:#291b30;fill-rule:nonzero;"/><path d="M69.521,92.829c-5.167,1.964 -11.539,3.589 -16.606,4.354c-0.659,0.313 -4.813,4.787 -7.41,0.546c-0.101,-0.166 -0.2,-0.352 -0.3,-0.546c-1.205,-0.179 -2.477,-0.413 -3.796,-0.678c-4.887,-1.013 -10.327,-2.598 -14.601,-4.395c-4.808,-2.017 -8.137,-4.315 -7.551,-6.379c0.493,-1.745 4.421,-2.338 9.395,-2.344c6.911,-0.006 15.854,1.099 20.409,1.731c3.688,-0.513 10.253,-1.338 16.299,-1.624c6.772,-0.326 12.877,0.026 13.51,2.237c0.652,2.311 -3.602,4.914 -9.349,7.098Z" style="fill:#3b2645;fill-rule:nonzero;"/><path d="M56.704,77.009c-0.066,2.922 0.253,5.612 0.612,7.217c-1.171,0.946 -3.934,1.359 -8.083,1.359c-4.148,0 -7.364,-1.359 -7.364,-1.359c0.546,-3.602 0.306,-7.87 -0.426,-10.081c-0.127,-0.373 -0.266,-0.685 -0.413,-0.926c-0.259,-0.406 -0.573,-0.785 -0.772,-1.224c-0.573,-1.226 -0.22,-2.671 0.22,-3.949c0.04,-0.114 0.073,-0.226 0.106,-0.339c0.359,-1.212 0.393,-2.378 0.666,-3.596c0.193,-0.846 0.951,-1.122 1.777,-1.272c0.3,-0.054 0.593,-0.094 0.867,-0.14c0.159,-0.026 0.318,-0.056 0.459,-0.08c0.664,-0.112 1.344,-0.166 1.884,-0.22c0.433,-0.039 0.779,-0.066 0.952,-0.073c0.08,-0.013 0.126,-0.017 0.126,-0.017c0.007,-0.019 0.047,-0.256 0.047,-0.256c-0,-0.02 0.154,-0.859 0.154,-0.859l0.638,-3.528c0.127,-1.313 1.779,-1.62 3.083,-1.652c0.9,-0.021 1.632,0.08 1.632,0.08l-0.266,6.279c-0,0.02 0.04,0.04 0.126,0.047c0.193,0.033 0.599,0.04 1.192,0.08c0.193,0.012 0.413,0.026 0.645,0.046c0.028,0 0.061,0 0.087,0.006c0.107,0.007 0.213,0.016 0.32,0.028c0.585,0.059 1.292,0.079 1.918,0.232c0.786,0.194 1.411,0.567 1.545,1.379c0.272,1.638 -0.307,3.375 -0.68,4.941c-0.246,1.018 -0.426,2.024 -0.566,3.043c-0.006,0.052 -0.013,0.113 -0.02,0.166c-0.192,1.384 -0.313,2.77 -0.426,4.174c-0.014,0.167 -0.04,0.327 -0.04,0.494Z" style="fill:#f5a784;fill-rule:nonzero;"/><path d="M67.737,45.627c-1.105,-1.664 -2.703,-3.096 -4.301,-4.454c-0.813,-0.7 -1.624,-1.372 -2.371,-2.044c-1.438,-1.306 -2.87,-2.618 -4.228,-4.009c-1.111,-1.146 -2.816,-2.617 -3.329,-4.149c-0.107,-0.305 -0.126,-0.638 -0.154,-0.964c-0.106,-1.08 -0.366,-2.152 -0.765,-3.164c-0.073,-0.193 -0.166,-0.399 -0.346,-0.519c-0.174,-0.113 -0.457,-0.088 -0.546,0.1c-0.035,0.073 -0.033,0.153 -0.033,0.233c-0.007,1.891 -0.553,4.714 0.279,6.452c0.487,1.032 1.452,1.971 2.091,2.923c1.146,1.691 2.117,3.416 3.343,5.041c0.778,1.031 4.175,5.605 5.106,6.857c-0,0 -1.158,3.882 -3.908,7.938c-0.233,0.346 -0.546,0.612 -0.793,0.919c-2.663,3.315 -4.267,4.7 -5.053,5.633c-0.459,0.546 -0.639,0.945 -0.599,1.478c0.519,6.559 5.06,8.277 5.06,8.277c-0,0 13.297,-22.386 10.547,-26.548Zm-14.315,-10.068c0.019,0.014 0.039,0.027 0.059,0.04c-0.013,-0.026 -0.033,-0.033 -0.059,-0.04Z" style="fill:#f5a784;fill-rule:nonzero;"/><path d="M42.761,41.073c1.232,-1.625 2.204,-3.35 3.343,-5.041c0.639,-0.952 1.611,-1.891 2.097,-2.923c0.832,-1.738 0.279,-4.561 0.274,-6.452c-0,-0.08 -0,-0.16 -0.035,-0.233c-0.086,-0.187 -0.368,-0.217 -0.545,-0.1c-0.176,0.116 -0.266,0.326 -0.346,0.519c-0.393,1.012 -0.653,2.084 -0.759,3.164c-0.034,0.326 -0.054,0.659 -0.153,0.964c-0.52,1.532 -2.218,3.003 -3.336,4.149c-1.352,1.391 -2.79,2.703 -4.222,4.009c-0.539,0.485 -1.112,0.971 -1.698,1.464c-1.804,1.539 -3.722,3.136 -4.974,5.034c-1.944,2.936 4.322,15.148 8.177,22.08c1.611,2.889 2.797,4.86 2.797,4.86c-0,0 3.931,-2.093 4.62,-8.513c0.006,-0.053 0.008,-0.103 0.014,-0.156c0.058,-0.565 -0.161,-0.972 -0.679,-1.565c-0.84,-0.958 -2.417,-2.364 -4.975,-5.546c-0.246,-0.307 -0.558,-0.573 -0.798,-0.919c-2.744,-4.056 -3.909,-7.938 -3.909,-7.938c1.019,-1.358 4.409,-5.932 5.107,-6.857Zm3.895,-5.494c0.027,0.007 0.047,-0.006 0.06,-0.02c-0.02,0.007 -0.039,0.014 -0.06,0.02Z" style="fill:#f5a784;fill-rule:nonzero;"/><path d="M95.456,111.009c-1.085,0.121 -2.178,0.207 -3.282,0.26c-0.314,0.014 -89.637,0.054 -89.637,0.054c-0.059,-0.007 -0.126,-0.007 -0.186,-0.014c-0.48,-0.04 -0.953,-0.08 -1.432,-0.133c-1.225,-0.126 -1.225,-1.771 -0,-1.898c0.473,-0.053 0.952,-0.093 1.432,-0.126c0.066,-0.007 0.133,-0.007 0.2,-0.014c-0,0 89.309,0.034 89.616,0.047c1.105,0.054 2.197,0.14 3.289,0.26c1.005,0.113 0.999,1.451 -0,1.564Z" style="fill:#c6c6c6;fill-rule:nonzero;"/><path d="M57.316,84.226c-1.171,0.946 -3.934,1.359 -8.083,1.359c-4.148,0 -7.364,-1.359 -7.364,-1.359c0.546,-3.602 0.306,-7.87 -0.426,-10.081c-0.127,-0.373 -0.266,-0.685 -0.413,-0.926c-0.259,-0.406 -0.573,-0.785 -0.772,-1.224c-0.573,-1.226 -0.22,-2.671 0.22,-3.949c0.04,-0.114 0.073,-0.226 0.106,-0.339c-3.855,-6.932 -10.121,-19.144 -8.177,-22.08c1.252,-1.898 3.17,-3.495 4.974,-5.034c0.613,0.592 3.037,2.99 3.309,3.256c-1.011,1.352 -2.01,2.717 -3.029,4.069c-0.007,0.019 1.158,3.894 3.902,7.95c0.24,0.346 0.552,0.612 0.798,0.919c2.558,3.182 4.136,4.591 4.954,5.522c0.22,0.54 0.465,1.137 0.686,1.745c0.402,1.102 0.76,2.228 0.859,2.914l3.749,-4.815l-0.006,0.22c-0,0.02 0.04,0.04 0.126,0.047c0.786,-0.933 2.39,-2.318 5.053,-5.633c0.247,-0.307 0.56,-0.573 0.793,-0.919c2.75,-4.056 3.908,-7.938 3.908,-7.938c-0.931,-1.252 -1.857,-2.503 -2.79,-3.754l3.743,-3.003c1.598,1.358 3.196,2.79 4.301,4.454c2.75,4.162 -10.547,26.548 -10.547,26.548c-0.006,0.052 -0.013,0.113 -0.02,0.166c-0.192,1.384 -0.313,2.77 -0.426,4.174c-0.014,0.167 -0.04,0.327 -0.04,0.494c-0.066,2.922 0.253,5.612 0.612,7.217Z" style="fill:#ff4590;fill-rule:nonzero;"/><path d="M52.869,56.094l-0.127,2.91c-2.064,1.538 -4.054,1.538 -5.08,1.398l0.492,-2.736c0.127,-1.313 1.779,-1.62 3.083,-1.652c0.9,-0.021 1.632,0.08 1.632,0.08Z" style="fill:#e0855c;fill-rule:nonzero;"/><path d="M55.956,52.711c-0.336,-0.788 -0.93,-0.66 -1.418,-0.363c0.099,-1.33 0.031,-2.455 -0.282,-3.258c-0.99,-2.542 -6.101,-3.425 -8.591,-0.259c-0.567,0.721 -0.791,2.111 -0.924,3.748c-0.4,4.957 1.909,6.896 3.535,6.975c1.469,0.072 4.394,-0.336 5.6,-3.551c1.012,-0.128 2.638,-1.982 2.08,-3.292Z" style="fill:#f5a784;fill-rule:nonzero;"/><path d="M49.167,54.757c-0.216,-0.043 -0.721,0.062 -0.812,-0.177c-0.076,-0.2 0.331,-1.337 0.389,-1.532c0.065,-0.214 0.129,-0.407 0.193,-0.595c-0.02,-0.015 -0.037,-0.03 -0.057,-0.043c-0.045,-0.027 -0.091,-0.046 -0.136,-0.059c-0.242,0.783 -0.426,1.604 -0.652,2.346c-0.02,0.065 0.026,0.138 0.096,0.141c0.32,0.009 0.626,0.091 0.944,0.109c0.106,0.006 0.145,-0.168 0.035,-0.19Z" style="fill:#e0855c;fill-rule:nonzero;"/><path d="M47.602,50.723c-0.3,-0.172 -0.873,-0.241 -1.112,0.068c-0.043,0.056 0.006,0.147 0.075,0.147c0.154,-0.001 0.291,-0.068 0.446,-0.073c0.167,-0.006 0.322,0.039 0.476,0.097c0.141,0.051 0.247,-0.163 0.115,-0.239Z" style="fill:#3b2645;fill-rule:nonzero;"/><path d="M51.816,51.403c-0.154,-0.445 -0.914,-0.523 -1.253,-0.269c-0.076,0.058 -0.035,0.178 0.044,0.207c0.187,0.068 0.392,0.006 0.588,0.034c0.172,0.024 0.306,0.106 0.464,0.171c0.081,0.032 0.187,-0.057 0.157,-0.143Z" style="fill:#3b2645;fill-rule:nonzero;"/><path d="M49.629,55.963c-0.309,0.133 -0.544,0.296 -0.9,0.294c-0.275,-0.002 -0.567,-0.148 -0.833,-0.067c-0.042,0.013 -0.074,0.062 -0.048,0.105c0.187,0.307 0.708,0.36 1.035,0.348c0.351,-0.012 0.771,-0.123 0.966,-0.439c0.091,-0.149 -0.068,-0.308 -0.22,-0.241Z" style="fill:#e0855c;fill-rule:nonzero;"/><path d="M47.7,52.436c-0.348,0.124 -0.684,0.229 -1.054,0.105c-0.233,-0.079 -0.388,-0.272 -0.614,-0.36c-0.026,0.31 0.296,0.499 0.55,0.593c0.391,0.145 0.854,0.089 1.216,-0.105c0.125,-0.067 0.04,-0.283 -0.098,-0.233Z" style="fill:#3b2645;fill-rule:nonzero;"/><path d="M52.076,52.798c-0.489,0.145 -1.309,0.476 -1.573,-0.221c-0.042,-0.11 -0.185,-0.086 -0.199,0.027c-0.051,0.391 0.429,0.6 0.745,0.651c0.389,0.063 0.87,-0.008 1.121,-0.335c0.046,-0.06 -0.029,-0.142 -0.094,-0.122Z" style="fill:#3b2645;fill-rule:nonzero;"/><path d="M54.633,46.573c-0.55,-0.438 -1.146,-0.835 -1.813,-1.056c-1.094,-0.362 -2.284,-0.224 -3.43,-0.091c-1.212,0.141 -2.467,0.286 -3.52,0.903c-0.951,0.558 -2.276,2.271 -1.401,3.409c0.849,1.105 2.996,-0.977 3.617,-1.609c0.288,0.791 1.227,1.13 2.066,1.192c0.839,0.062 1.715,-0.051 2.498,0.258c0.525,0.207 0.903,0.639 1.266,1.053c0.145,0.165 0.29,0.331 0.394,0.525c0.184,0.347 0.218,0.751 0.249,1.143c0.147,-0.227 0.449,-0.284 0.718,-0.302c0.269,-0.018 0.564,-0.028 0.766,-0.205c0.145,-0.13 0.214,-0.325 0.269,-0.512c0.189,-0.647 0.016,-1.449 -0.009,-2.123c-0.046,-1.204 -0.751,-1.854 -1.67,-2.585Z" style="fill:#3b2645;fill-rule:nonzero;"/><path d="M48.088,98.509l-21.28,-6.399c-4.808,-2.017 -8.137,-4.315 -7.551,-6.379c0.493,-1.745 4.421,-2.338 9.395,-2.344c4.714,1.678 11.308,6.263 19.436,15.122Z" style="fill:#291b30;fill-rule:nonzero;"/><path d="M69.521,92.829c-4.448,-0.326 -8.489,-1.365 -8.489,-1.365c-0,0 4.934,-3.502 4.328,-7.97c6.772,-0.326 12.877,0.026 13.51,2.237c0.652,2.311 -3.602,4.914 -9.349,7.098Z" style="fill:#291b30;fill-rule:nonzero;"/><path d="M70.767,97.004c-1.791,0.938 -4.453,1.8 -7.807,2.617c-3.63,0.882 -8.054,1.704 -13.054,2.503c-5.533,0.879 -9.555,2.258 -9.861,-0.273c-0.287,-2.383 6.838,-3.143 9.035,-3.489c0.433,-0.066 1.259,-0.486 2.358,-1.145c4.401,-2.637 13.103,-9.102 17.911,-11.826c3.449,-1.951 6.178,-1.658 7.87,-1.058c1.552,0.552 2.783,2.07 2.91,3.948c0.339,5.014 -7.078,7.53 -9.362,8.723Z" style="fill:#f5a784;fill-rule:nonzero;"/><path d="M62.96,99.621c-3.623,0.885 -8.054,1.704 -13.054,2.503c-5.533,0.879 -9.555,2.258 -9.861,-0.273c-0.287,-2.383 6.838,-3.143 9.035,-3.489c0.433,-0.066 1.259,-0.486 2.358,-1.145c2.523,0.959 7.28,2.503 11.522,2.404Z" style="fill:#e0855c;fill-rule:nonzero;"/><path d="M17.846,88.284c0.128,-1.882 1.358,-3.396 2.912,-3.949c1.691,-0.603 4.416,-0.898 7.866,1.058c5.998,3.401 18.078,12.632 20.272,12.972c2.195,0.34 9.323,1.104 9.035,3.485c-0.307,2.534 -4.327,1.153 -9.862,0.272c-9.635,-1.535 -17.131,-3.162 -20.862,-5.116c-2.281,-1.197 -9.702,-3.713 -9.361,-8.722Z" style="fill:#f5a784;fill-rule:nonzero;"/><path d="M53.714,72.211c-0.94,1.44 -3.521,0.638 -4.778,0.335c-0.12,-0.029 -0.212,0.095 -0.156,0.203c0.497,0.941 1.917,0.907 2.837,0.864c1.013,-0.048 2.058,-0.164 2.658,-1.074c0.231,-0.35 -0.334,-0.678 -0.561,-0.328Z" style="fill:#de3c7c;fill-rule:nonzero;"/><path d="M62.483,47.93c-0.931,-1.252 -1.857,-2.503 -2.79,-3.754l1.379,-1.106c0.726,1.012 1.731,2.85 1.411,4.86Z" style="fill:#de3c7c;fill-rule:nonzero;"/><path d="M40.69,43.849c-1.011,1.352 -2.01,2.717 -3.029,4.069c0.086,-0.22 1.305,-3.256 1.978,-5.108c0.406,0.407 0.779,0.773 1.051,1.039Z" style="fill:#de3c7c;fill-rule:nonzero;"/><path d="M38.607,28.167c-1.151,-0.039 -2.319,0.235 -3.456,0.416c-1.285,0.204 -2.631,0.324 -3.866,0.741c-0.241,0.082 -0.203,0.441 0.062,0.449c1.148,0.035 2.315,-0.197 3.454,-0.353c1.288,-0.178 2.655,-0.249 3.886,-0.67c0.313,-0.108 0.264,-0.572 -0.08,-0.583Z" style="fill:#c1cae3;fill-rule:nonzero;"/><path d="M41.517,21.315c-1.593,-0.743 -2.893,-1.53 -4.306,-2.58c-1.157,-0.861 -2.369,-1.722 -3.841,-1.864c-0.248,-0.024 -0.36,0.378 -0.13,0.48c1.588,0.706 2.875,1.609 4.25,2.665c1.128,0.867 2.383,1.847 3.842,1.983c0.356,0.033 0.509,-0.532 0.185,-0.684Z" style="fill:#c1cae3;fill-rule:nonzero;"/><path d="M49.597,11.953c-0.151,-1.926 -0.147,-3.867 -0.336,-5.787c-0.035,-0.354 -0.518,-0.356 -0.552,0c-0.192,2.014 -0.052,4.093 0.094,6.107c0.132,1.829 0.217,3.749 0.679,5.529c0.1,0.385 0.714,0.312 0.701,-0.094c-0.065,-1.917 -0.437,-3.838 -0.586,-5.755Z" style="fill:#c1cae3;fill-rule:nonzero;"/><path d="M61.078,14.218c-1.987,1.514 -4.003,3.272 -5.718,5.087c-0.259,0.276 0.087,0.788 0.422,0.548c2.03,-1.45 4.053,-3.196 5.819,-4.957c0.335,-0.334 -0.123,-0.983 -0.523,-0.678Z" style="fill:#c1cae3;fill-rule:nonzero;"/><path d="M71.346,28.061c-1.605,-0.521 -3.516,-0.411 -5.196,-0.476c-1.674,-0.067 -3.539,-0.291 -5.16,0.183c-0.164,0.048 -0.163,0.283 -0,0.331c1.619,0.482 3.48,0.324 5.16,0.408c1.704,0.084 3.508,0.442 5.196,0.206c0.355,-0.05 0.285,-0.56 -0,-0.652Z" style="fill:#c1cae3;fill-rule:nonzero;"/></g></svg>