<?xml version="1.0" encoding="UTF-8" standalone="no"?><!DOCTYPE svg PUBLIC "-//W3C//DTD SVG 1.1//EN" "http://www.w3.org/Graphics/SVG/1.1/DTD/svg11.dtd"><svg width="100%" height="100%" viewBox="0 0 133 102" version="1.1" xmlns="http://www.w3.org/2000/svg" xmlns:xlink="http://www.w3.org/1999/xlink" xml:space="preserve" xmlns:serif="http://www.serif.com/" style="fill-rule:evenodd;clip-rule:evenodd;stroke-linejoin:round;stroke-miterlimit:2;"><g><path d="M131.516,99.67c-1.071,-0.118 -2.142,-0.202 -3.226,-0.255c-0.3,-0.013 -87.877,-0.045 -87.877,-0.045c-0.065,0.006 -0.13,0.006 -0.196,0.013c-0.099,0.007 -0.197,0.018 -0.295,0.026c-0.038,0 -33.739,-0.039 -33.739,-0.039c-0.065,0.006 -0.13,0.006 -0.196,0.013c-0.47,0.032 -0.94,0.072 -1.404,0.124c-1.201,0.124 -1.201,1.737 0,1.861c0.471,0.052 0.934,0.091 1.404,0.13c0.059,0.007 0.125,0.007 0.183,0.013c0,0 33.677,-0.046 33.696,-0.046c0.117,0.011 0.233,0.023 0.351,0.033c0.059,0.007 0.124,0.007 0.183,0.013c0,0 87.59,-0.039 87.897,-0.052c1.084,-0.052 2.154,-0.137 3.219,-0.254c0.979,-0.112 0.986,-1.424 0,-1.535Z" style="fill:#c6c6c6;fill-rule:nonzero;"/><path d="M0.997,35.266c-1.388,4.139 -1.412,8.827 0.468,12.767c1.569,3.288 4.371,5.948 5.473,9.42c2.493,7.854 -4.52,16.607 -1.497,24.274c1.693,4.292 6.244,6.926 10.81,7.591c4.566,0.664 9.196,-0.308 13.691,-1.349c4.495,-1.041 9.066,-2.163 13.665,-1.8c6.94,0.549 13.177,4.407 19.98,5.883c9.34,2.026 19.117,-0.542 28.592,0.706c3.781,0.498 7.507,1.603 11.319,1.534c3.813,-0.068 7.929,-1.633 9.64,-5.041c1.974,-3.932 0.131,-8.683 0.74,-13.04c0.673,-4.805 4.25,-8.698 5.663,-13.34c0.852,-2.8 0.886,-5.782 0.73,-8.706c-0.176,-3.3 -0.616,-6.685 -2.226,-9.571c-3.928,-7.042 -13.067,-8.779 -19.957,-12.965c-5.602,-3.404 -9.843,-8.591 -14.613,-13.086c-4.77,-4.495 -10.615,-8.517 -17.169,-8.6c-5.508,-0.069 -10.607,2.638 -15.829,4.394c-5.598,1.881 -11.552,2.696 -17.449,2.387c-5.797,-0.304 -11.702,-1.171 -17.25,1.189c-6.836,2.907 -12.466,10.45 -14.781,17.353Z" style="fill:#f6f6f6;fill-rule:nonzero;"/><path d="M18.51,49.411c-0.304,0.008 -0.681,-0.079 -1.213,-0.219c-1.769,-0.463 -3.589,-0.423 -4.404,-2.448c-0.504,-1.251 -0.212,-2.675 0.21,-3.956c0.422,-1.281 0.974,-2.558 0.977,-3.907c0.001,-0.511 -0.066,-1.068 0.218,-1.492c0.324,-0.483 0.977,-0.603 1.558,-0.627c2.97,-0.123 7.183,1.379 8.096,4.517c-0.82,0.54 -1.315,1.96 -1.752,2.786c-0.721,1.366 -1.382,2.784 -2.224,4.082c-0.593,0.915 -0.909,1.249 -1.466,1.264Z" style="fill:#3b2645;fill-rule:nonzero;"/><path d="M22.268,40.416c0,0 -0.553,-1.233 0.76,-1.555c1.314,-0.322 2.454,1.873 2.039,2.923c0,0 -2.454,-1.055 -2.799,-1.368Z" style="fill:#e0855c;fill-rule:nonzero;"/><path d="M56.897,52.172c0,0 -0.774,3.932 -3.036,8.377c-1.011,1.986 -2.311,4.074 -3.97,5.954c0,0 -0.072,-0.026 -0.19,-0.072c-0.091,-0.033 -0.215,-0.078 -0.358,-0.13c-2.233,-0.823 -10.486,-3.859 -12.341,-4.414c-0.287,-0.091 -0.582,-0.165 -0.887,-0.241c-0.649,-0.161 -1.307,-0.32 -1.979,-0.457c-0.503,-0.098 -1.005,-0.19 -1.508,-0.268c-2.912,-0.477 -5.662,-0.648 -6.614,-0.718c-0.209,-0.016 -0.379,-0.176 -0.398,-0.392c-0.04,-0.385 -0.063,-1.07 -0.007,-1.971c0.041,-0.64 0.124,-1.372 0.28,-2.175c0.079,-0.451 0.19,-0.92 0.32,-1.41c0.197,-0.686 0.451,-1.399 0.745,-2.142c0.02,-0.052 0.046,-0.104 0.065,-0.157c0.007,-0.019 0.02,-0.045 0.033,-0.058c0.059,-0.17 0.137,-0.346 0.222,-0.516c0,0 -0.555,-0.268 -1.339,-0.62c-0.45,-0.203 -0.973,-0.438 -1.508,-0.653c-0.764,-0.333 -1.554,-0.634 -2.187,-0.83c-0.059,-0.019 -0.118,-0.039 -0.177,-0.052c-0.065,-0.032 -0.019,-0.052 0.053,-0.091c0.052,-0.02 0.111,-0.059 0.189,-0.098c0.026,-0.013 0.046,-0.026 0.072,-0.033c0.163,-0.098 0.326,-0.196 0.509,-0.32c0.288,-0.183 0.614,-0.424 0.954,-0.731c0.051,-0.046 0.111,-0.098 0.163,-0.15c0.019,-0.007 0.032,-0.033 0.052,-0.053c0.072,-0.058 0.13,-0.124 0.196,-0.189c0.215,-0.215 0.424,-0.457 0.627,-0.718c0.117,-0.15 0.228,-0.313 0.345,-0.483c0.079,-0.111 0.151,-0.235 0.229,-0.366c0.15,-0.254 0.288,-0.531 0.412,-0.816c0.105,-0.244 0.195,-0.476 0.267,-0.725c0.052,-0.13 0.084,-0.263 0.116,-0.388l2.646,0.995c0.013,0.007 1.09,0.418 1.09,0.418c0.02,-0.045 0.052,-0.11 0.105,-0.222c0.026,-0.052 0.059,-0.111 0.098,-0.169c0.091,-0.19 0.222,-0.445 0.372,-0.732c0.398,-0.751 0.973,-1.762 1.6,-2.709c0.052,-0.091 0.111,-0.176 0.169,-0.261c0.666,-0.993 1.346,-2.566 2.018,-2.253c1.058,0.496 2.461,1.227 4.055,2.102c0.855,0.47 3.343,1.881 3.662,2.064c5.981,3.441 12.811,7.626 14.463,8.638c0.241,0.157 0.372,0.235 0.372,0.235Z" style="fill:#f5a784;fill-rule:nonzero;"/><path d="M21.97,49.203c4.55,1.103 6.289,-3.168 6.219,-4.404l-1.942,-0.733c-0.969,3.746 -4.277,5.137 -4.277,5.137Z" style="fill:#e0855c;fill-rule:nonzero;"/><path d="M19.482,39.275c0.79,-0.254 2.017,0.292 3.372,0.901c4.1,1.842 4.77,3.668 3.985,5.839c-0.786,2.17 -2.633,3.94 -6.594,2.554c-1.98,-0.693 -3.825,-1.301 -4.3,-2.377c-0.71,-1.604 1.112,-6.137 3.537,-6.917Z" style="fill:#f5a784;fill-rule:nonzero;"/><path d="M19.846,48.018c0,0 -1.981,-0.186 -1.582,1.243c0.4,1.429 3.598,1.287 4.155,-0.327c0,0 -1.764,-1.122 -2.573,-0.916Z" style="fill:#f5a784;fill-rule:nonzero;"/><path d="M19.252,49.167c0.147,-0.201 0.465,-0.325 0.691,-0.411c0.237,-0.091 0.527,-0.191 0.783,-0.169c0.08,0.007 0.076,0.122 0.011,0.147c-0.183,0.07 -0.378,0.103 -0.566,0.16c0.051,0.131 0.102,0.265 0.088,0.405c-0.011,0.109 -0.159,0.121 -0.214,0.044c-0.072,-0.099 -0.095,-0.229 -0.113,-0.354c-0.199,0.099 -0.388,0.243 -0.595,0.304c-0.079,0.024 -0.13,-0.063 -0.085,-0.126Z" style="fill:#e0855c;fill-rule:nonzero;"/><path d="M21.892,41.901c0,0 0.3,-0.285 -0.343,-0.534c-0.579,-0.224 -0.625,0.061 -0.625,0.061c0,0 -0.121,0.241 0.383,0.443c0.504,0.2 0.585,0.03 0.585,0.03Z" style="fill:#3b2645;fill-rule:nonzero;"/><path d="M20.163,45.438c0,0 0.301,-0.285 -0.343,-0.534c-0.579,-0.224 -0.625,0.061 -0.625,0.061c0,0 -0.12,0.241 0.383,0.443c0.504,0.2 0.585,0.03 0.585,0.03Z" style="fill:#3b2645;fill-rule:nonzero;"/><path d="M22.763,44.291c0.06,-0.19 0.364,-0.544 0.213,-0.72c-0.125,-0.147 -1.202,-0.321 -1.382,-0.36c-0.651,-0.138 -1.119,-0.177 -1.868,-0.408c-0.033,-0.011 -0.025,-0.072 0.013,-0.07c1.125,0.042 2.342,0.449 3.445,0.68c0.06,0.013 0.098,0.081 0.069,0.138c-0.131,0.257 -0.199,0.536 -0.324,0.795c-0.041,0.087 -0.197,0.042 -0.166,-0.055Z" style="fill:#e0855c;fill-rule:nonzero;"/><path d="M19.828,41.367c-0.005,-0.312 0.189,-0.796 0.539,-0.851c0.063,-0.01 0.113,0.069 0.083,0.124c-0.067,0.121 -0.181,0.201 -0.252,0.32c-0.077,0.13 -0.109,0.273 -0.131,0.42c-0.02,0.134 -0.236,0.125 -0.239,-0.013Z" style="fill:#3b2645;fill-rule:nonzero;"/><path d="M18.336,45.193c-0.285,-0.315 -0.016,-0.951 0.333,-1.108c0.08,-0.036 0.156,0.049 0.144,0.124c-0.027,0.178 -0.165,0.313 -0.228,0.48c-0.056,0.147 -0.049,0.289 -0.067,0.442c-0.009,0.078 -0.126,0.124 -0.182,0.062Z" style="fill:#3b2645;fill-rule:nonzero;"/><path d="M24.444,44.026c0,0 -0.427,1.35 -1.462,2.024c0,0 0.986,0.075 1.577,-0.598c0.592,-0.674 -0.115,-1.426 -0.115,-1.426Z" style="fill:#fff;fill-rule:nonzero;"/><path d="M40.502,25.885c0.052,2.142 -0.947,9.265 -2.102,15.35c-0.092,0.477 -0.177,0.947 -0.275,1.404c-0.751,3.774 -1.541,6.934 -2.128,7.875c-0.516,0.809 -1.332,1.41 -2.285,1.553c-0.549,0.079 -1.038,0.059 -1.476,-0.052c-2.246,-0.561 -2.995,-3.442 -2.253,-6.536c0.091,-0.379 0.758,-3.147 1.026,-4.25c1.292,-5.42 3.081,-13.045 3.251,-14.959c0.215,-2.526 -0.979,-16.721 -0.979,-16.721c0.973,-2.259 3.702,-1.743 3.702,-1.743c0,0 3.369,11.55 3.519,18.079Z" style="fill:#f5a784;fill-rule:nonzero;"/><path d="M37.311,8.9c0,0 -0.241,-1.168 -0.388,-2.65c-0.143,-1.483 -0.436,-4.737 -1.062,-5.634c0,0 -0.159,-0.138 -0.436,-0.29c-0.039,-0.022 -0.082,-0.045 -0.129,-0.062c-0.258,-0.12 -0.594,-0.234 -0.998,-0.256c-0.03,-0.002 -0.063,-0.005 -0.097,-0.006c-0.286,-0.011 -0.611,0.021 -0.95,0.135c-0.029,0.01 -0.057,0.021 -0.085,0.031c-0.26,0.088 -0.534,0.215 -0.821,0.397c0,0 0.375,3.308 0.096,4.395c0,0 -0.741,-1.915 -1.379,-2.001l-0.404,0.178c0,0 0.563,2.152 0.726,3.134c0.395,2.388 2.539,3.767 2.539,3.767c0,0 2.691,0.46 3.388,-1.138Z" style="fill:#f5a784;fill-rule:nonzero;"/><path d="M33.251,0.137c-0.029,0.01 -0.057,0.021 -0.085,0.031c0.286,1.464 0.325,2.937 0.415,4.444c0.002,0.029 0.048,0.034 0.055,0.005c0.237,-1.509 0.01,-3.018 -0.385,-4.48Z" style="fill:#e0855c;fill-rule:nonzero;"/><path d="M34.298,0.008c-0.03,-0.002 -0.063,-0.004 -0.097,-0.006c0.288,1.468 0.326,2.937 0.42,4.443c0.002,0.03 0.048,0.034 0.051,0.005c0.238,-1.496 0.015,-2.994 -0.374,-4.442Z" style="fill:#e0855c;fill-rule:nonzero;"/><path d="M35.425,0.326c-0.039,-0.023 -0.082,-0.045 -0.129,-0.062c0.253,1.387 0.29,2.781 0.379,4.205c-0.002,0.029 0.044,0.035 0.05,0.005c0.26,-1.389 0.042,-2.792 -0.3,-4.148Z" style="fill:#e0855c;fill-rule:nonzero;"/><path d="M51.22,91.572c0,4.329 -3.506,7.835 -7.835,7.835c-0.47,0 -0.927,-0.039 -1.377,-0.123c-0.294,-0.046 -0.581,-0.118 -0.869,-0.203c-0.672,-0.203 -1.312,-0.49 -1.9,-0.855c-0.235,-0.15 -0.463,-0.307 -0.679,-0.477c-0.601,-0.47 -1.13,-1.025 -1.567,-1.652c-0.914,-1.28 -1.443,-2.84 -1.443,-4.525c0,-4.322 3.506,-7.835 7.835,-7.835c0.705,0 1.384,0.092 2.037,0.268c0.268,0.072 0.529,0.157 0.784,0.261c0.751,0.287 1.447,0.695 2.07,1.189c0.091,0.072 0.177,0.142 0.261,0.215c0.205,0.18 0.405,0.372 0.587,0.575c1.3,1.397 2.096,3.271 2.096,5.327Z" style="fill:#d1bace;fill-rule:nonzero;"/><path d="M49.719,89.979c0,4.329 -3.507,7.835 -7.835,7.835c-0.471,0 -0.928,-0.039 -1.378,-0.124c-0.294,-0.046 -0.581,-0.117 -0.868,-0.202c-0.673,-0.202 -1.313,-0.49 -1.9,-0.856c-0.236,-0.15 -0.464,-0.306 -0.68,-0.476c-0.019,-0.02 -0.045,-0.033 -0.065,-0.059c-0.914,-1.28 -1.443,-2.84 -1.443,-4.525c0,-4.322 3.506,-7.835 7.835,-7.835c0.705,0 1.384,0.092 2.037,0.268c0.268,0.072 0.529,0.157 0.784,0.261c0.751,0.287 1.45,0.692 2.07,1.189c0.907,1.279 1.443,2.84 1.443,4.524Z" style="fill:#e8cee5;fill-rule:nonzero;"/><path d="M32.799,57.731c-0.167,-0.947 -0.702,-1.811 -1.532,-2.299c-2.939,-1.733 -5.087,-1.351 -5.658,2.408c-0.651,4.295 -2.792,19.277 -3.54,21.699c-0.544,1.76 -4.098,8.949 -5.999,12.746c-1.569,2.736 -2.244,4.777 -4.939,5.289c-0.689,0.131 -1.4,0.142 -2.08,0.313c-0.681,0.171 -1.359,0.542 -1.669,1.172c-0.072,0.146 -0.109,0.35 0.022,0.448c0.064,0.048 0.15,0.053 0.23,0.056c2.755,0.1 5.51,0.2 8.266,0.3c0.202,0.008 0.41,0.014 0.6,-0.055c0.571,-0.208 0.697,-0.934 0.874,-1.515c0.061,-0.195 0.188,-0.443 0.34,-0.706c0.725,-0.923 7.54,-9.67 9.995,-15.342c1.464,-3.382 5.607,-21.584 5.09,-24.514Z" style="fill:#f5a784;fill-rule:nonzero;"/><path d="M122.124,99.175c-1.371,2.207 -7.821,-1.449 -10.44,-2.964c-0.424,-0.248 -0.745,-0.438 -0.934,-0.535c-0.862,-0.464 -4.087,-1.373 -4.688,-1.541c-3.014,-0.844 -5.778,-1.763 -8.298,-2.717c-9.866,-3.721 -15.964,-7.848 -17.172,-8.272c-19.928,-7.039 -29.134,-14.586 -29.134,-14.586c-5.824,-5.341 -3.803,-9.657 1.766,-9.376c1.411,0.059 3.04,0.425 4.842,1.136c4.211,1.672 10.404,5.338 15.758,8.733c5.941,3.774 10.842,7.205 10.842,7.205c6.131,2.24 12.81,6.078 17.525,9.036c1.273,0.803 2.409,1.541 3.342,2.162l0,-0.072c0,0 5.563,3.832 7.522,4.988c0.255,0.157 0.444,0.261 0.562,0.307c1.834,0.751 10.101,3.924 8.507,6.496Z" style="fill:#f5a784;fill-rule:nonzero;"/><path d="M102.191,85.294c-0.209,0.34 -0.412,0.666 -0.62,0.986c-1.372,2.142 -2.697,3.846 -3.807,5.138c-9.866,-3.721 -15.964,-7.848 -17.172,-8.272c-19.928,-7.039 -29.134,-14.586 -29.134,-14.586c-5.661,-5.19 -3.918,-9.408 1.293,-9.396c1.508,0 3.31,0.366 5.315,1.156c1.28,0.51 2.742,1.202 4.309,2.011c5.302,2.749 11.791,6.883 16.395,9.931c3.493,2.312 5.896,3.996 5.896,3.996c6.131,2.24 12.81,6.078 17.525,9.036Z" style="fill:#ab8da8;fill-rule:nonzero;"/><path d="M78.77,72.262c-12.386,-1.933 -16.924,-7.679 -16.924,-7.679c-1.11,-1.292 -0.666,-1.958 0.529,-2.252c5.302,2.749 11.792,6.882 16.395,9.931Z" style="fill:#826b80;fill-rule:nonzero;"/><path d="M129.842,83.153c-1.156,2.52 -8.88,-0.862 -11.23,-1.855c-0.209,-0.091 -0.372,-0.156 -0.49,-0.202c-0.914,-0.353 -4.231,-0.848 -4.845,-0.94c-3.101,-0.463 -5.96,-1.04 -8.578,-1.667c-10.245,-2.468 -16.812,-5.79 -18.066,-6.065c-4.851,-1.057 -9.121,-2.219 -12.809,-3.371c-12.024,-3.757 -17.913,-7.478 -17.913,-7.478c-1.136,-0.803 -2.026,-1.615 -2.687,-2.391c-4.065,-4.773 0.257,-8.663 8.217,-6.606c9.258,2.396 28.376,12.503 28.376,12.503c5.903,1.357 12.452,4.006 17.394,6.265c1.822,0.829 3.435,1.608 4.715,2.248l-0.02,-0.072c0,0 5.818,3.01 7.985,3.976c0.32,0.137 0.562,0.229 0.692,0.268c1.92,0.509 10.519,2.631 9.259,5.387Z" style="fill:#f5a784;fill-rule:nonzero;"/><path d="M107.211,71.346c-0.75,2.69 -1.623,5.073 -2.512,7.143c-10.249,-2.466 -16.815,-5.792 -18.066,-6.065c-20.649,-4.501 -30.722,-10.849 -30.722,-10.849c-8.076,-5.731 -3.733,-11.391 5.53,-8.997c9.262,2.393 28.376,12.503 28.376,12.503c5.906,1.354 12.45,4.012 17.394,6.265Z" style="fill:#ab8da8;fill-rule:nonzero;"/><path d="M56.897,52.172c0,0 -0.777,3.93 -3.036,8.377c-1.659,2.71 -3.461,4.694 -4.518,5.752c-1.881,-0.692 -8.018,-2.951 -11.022,-3.983c-0.568,-0.196 -1.025,-0.346 -1.319,-0.431c-0.287,-0.091 -0.582,-0.165 -0.887,-0.241c-0.649,-0.161 -1.307,-0.32 -1.979,-0.457c-0.379,-0.562 -0.842,-1.09 -1.358,-1.567c-1.202,-1.13 -2.671,-2.037 -4.048,-2.73c-0.908,-0.457 -1.776,-0.822 -2.494,-1.096c-0.118,-0.046 -0.236,-0.092 -0.347,-0.131c0.079,-0.451 0.19,-0.92 0.32,-1.41c0.197,-0.686 0.438,-1.404 0.745,-2.142c1.554,0.281 3.78,0.503 5.282,-0.098c0.692,-0.274 1.227,-0.725 1.476,-1.416c1.103,-3.063 -1.391,-5.185 -3.154,-6.243c-0.091,-0.058 -0.183,-0.11 -0.268,-0.156c0.209,-0.856 0.451,-1.868 0.719,-2.971c0.359,0.157 0.744,0.294 1.149,0.418c1.815,0.575 4.002,0.855 5.967,0.992c1.104,0.079 2.129,0.111 2.984,0.118c0.32,0.176 0.634,0.359 0.953,0.542c5.981,3.441 12.811,7.626 14.463,8.638c0.241,0.157 0.372,0.235 0.372,0.235Z" style="fill:#3b2645;fill-rule:nonzero;"/><path d="M122.124,99.175c-0.561,0.908 -1.991,0.823 -3.65,0.307c-2.376,-0.744 -5.249,-2.377 -6.79,-3.271c-0.359,-0.659 -0.489,-1.391 -0.287,-2.193c0.182,-0.726 0.705,-1.378 1.417,-1.594c0.078,-0.026 0.156,-0.039 0.241,-0.052c0.255,0.157 0.444,0.261 0.562,0.307c1.019,0.418 3.996,1.573 6.189,2.958c1.77,1.116 3.03,2.389 2.318,3.538Z" style="fill:#ab8da8;fill-rule:nonzero;"/><path d="M129.842,83.153c-0.412,0.894 -1.645,1.044 -3.173,0.823c-2.782,-0.399 -6.536,-2.038 -8.057,-2.678c-0.32,-0.803 -0.399,-1.652 -0.072,-2.409c0.267,-0.614 0.757,-1.084 1.351,-1.391c0.32,0.137 0.562,0.229 0.692,0.268c1.13,0.3 4.591,1.162 6.974,2.383c1.658,0.849 2.801,1.874 2.285,3.004Z" style="fill:#ab8da8;fill-rule:nonzero;"/><path d="M114.062,94.506c-0.251,-0.081 -0.448,0.244 -0.569,0.429c-0.178,0.273 -0.26,0.595 -0.284,0.918c-0.008,0.097 0.15,0.118 0.17,0.023c0.068,-0.314 0.203,-0.595 0.405,-0.845c0.123,-0.15 0.341,-0.245 0.331,-0.456c-0.001,-0.033 -0.021,-0.059 -0.053,-0.069Z" style="fill:#e8cee5;fill-rule:nonzero;"/><path d="M114.675,94.978c-0.46,0.253 -0.781,0.891 -0.511,1.381c0.074,0.134 0.276,0.098 0.318,-0.041c0.103,-0.346 0.178,-0.623 0.478,-0.852c0.281,-0.214 0.043,-0.668 -0.285,-0.488Z" style="fill:#e8cee5;fill-rule:nonzero;"/><path d="M115.718,95.344c-0.539,0.25 -0.632,1.083 -0.374,1.545c0.028,0.051 0.104,0.037 0.121,-0.016c0.071,-0.23 0.156,-0.475 0.256,-0.694c0.095,-0.204 0.249,-0.375 0.319,-0.587c0.065,-0.198 -0.162,-0.322 -0.322,-0.248Z" style="fill:#e8cee5;fill-rule:nonzero;"/><path d="M122.124,99.175c-0.561,0.908 -1.991,0.823 -3.65,0.307c-0.039,-0.333 -0.039,-0.666 -0.039,-0.946c0,-0.542 0.092,-1.058 0.294,-1.516c0.17,-0.652 0.568,-1.09 1.077,-1.383c1.77,1.116 3.03,2.389 2.318,3.538Z" style="fill:#e8cee5;fill-rule:nonzero;"/><path d="M61.035,64.29c-1.878,-0.972 -3.725,-2.001 -5.54,-3.086c-0.359,-0.215 -0.685,0.345 -0.327,0.559c1.294,0.774 2.61,1.509 3.936,2.224c-1.358,0.467 -3.34,-0.565 -4.373,-1.353c-0.332,-0.253 -0.655,0.309 -0.327,0.559c1.316,1.003 3.526,2.009 5.157,1.309c0.096,-0.041 0.147,-0.108 0.163,-0.181c0.329,0.175 0.654,0.357 0.985,0.529c0.369,0.191 0.698,-0.368 0.326,-0.56Z" style="fill:#826b80;fill-rule:nonzero;"/><path d="M62.202,53.951c-0.704,0.412 -1.331,0.95 -2.053,1.331c-0.942,0.498 -1.88,0.622 -2.932,0.626c-0.167,0.001 -0.194,0.237 -0.039,0.286c1.863,0.587 4.057,-0.65 5.14,-2.128c0.051,-0.07 -0.048,-0.155 -0.116,-0.115Z" style="fill:#826b80;fill-rule:nonzero;"/><path d="M120.603,79.011c-0.349,0.194 -0.49,0.467 -0.621,0.842c-0.144,0.412 -0.096,0.677 0.004,1.083c0.052,-0.15 0.144,-0.278 0.202,-0.422c0.07,-0.172 0.116,-0.352 0.191,-0.522c0.132,-0.297 0.297,-0.539 0.397,-0.848c0.032,-0.101 -0.087,-0.181 -0.173,-0.133Z" style="fill:#e8cee5;fill-rule:nonzero;"/><path d="M121.644,79.268c-0.34,0.168 -0.524,0.589 -0.66,0.923c-0.131,0.325 -0.283,0.718 -0.121,1.054c0.035,0.071 0.141,0.078 0.192,0.024c0.227,-0.232 0.272,-0.589 0.411,-0.875c0.145,-0.299 0.4,-0.568 0.485,-0.89c0.05,-0.185 -0.147,-0.315 -0.307,-0.236Z" style="fill:#e8cee5;fill-rule:nonzero;"/><path d="M122.525,80.439c-0.279,0.304 -0.482,0.652 -0.578,1.057c-0.036,0.15 0.158,0.285 0.272,0.158c0.278,-0.308 0.457,-0.671 0.549,-1.073c0.031,-0.135 -0.14,-0.254 -0.243,-0.142Z" style="fill:#e8cee5;fill-rule:nonzero;"/><path d="M129.842,83.153c-0.412,0.894 -1.645,1.044 -3.173,0.823c-0.353,-0.582 -0.516,-1.287 -0.438,-1.946c0.111,-0.921 0.64,-1.489 1.326,-1.881c1.658,0.849 2.801,1.874 2.285,3.004Z" style="fill:#e8cee5;fill-rule:nonzero;"/></g></svg>