<?xml version="1.0" encoding="UTF-8" standalone="no"?><!DOCTYPE svg PUBLIC "-//W3C//DTD SVG 1.1//EN" "http://www.w3.org/Graphics/SVG/1.1/DTD/svg11.dtd"><svg width="100%" height="100%" viewBox="0 0 87 109" version="1.1" xmlns="http://www.w3.org/2000/svg" xmlns:xlink="http://www.w3.org/1999/xlink" xml:space="preserve" xmlns:serif="http://www.serif.com/" style="fill-rule:evenodd;clip-rule:evenodd;stroke-linejoin:round;stroke-miterlimit:2;"><g><path d="M85.812,86.931c-0.076,1.307 -0.308,3.98 -2.124,3.993c-0,-0 -0.033,-0.004 -0.092,-0.011c-0.133,-0.013 -0.366,-0.049 -0.641,-0.187c-0.09,-0.037 -0.18,-0.087 -0.271,-0.151c-0.569,-0.383 -1.167,-1.198 -1.162,-2.897c0.004,-0.368 -0.029,-0.706 -0.097,-1.001c-0.036,-0.161 -0.076,-0.308 -0.123,-0.454c-0.016,-0.031 -0.026,-0.063 -0.036,-0.095c-0.077,-0.182 -0.143,-0.321 -0.214,-0.445c-0.04,-0.081 -0.094,-0.161 -0.141,-0.235c-0.015,-0.025 -0.024,-0.044 -0.039,-0.062c-0.03,-0.043 -0.061,-0.086 -0.097,-0.128c-0.113,-0.147 -0.231,-0.28 -0.361,-0.398c-0.014,-0.012 -0.029,-0.03 -0.037,-0.042c-0.021,-0.018 -0.042,-0.036 -0.057,-0.054c-0.151,-0.136 -0.293,-0.262 -0.431,-0.378c-0.527,-0.442 -0.972,-0.758 -0.936,-1.326c0.08,-1.339 0.974,-3.066 2.263,-2.694c-0,-0 0.323,-1.599 -0.558,-2.031c-0.559,-0.28 0.003,-0.44 0.341,-0.466c0.586,-0.045 1.166,0.181 1.777,0.128c0.077,-0.014 0.156,-0.021 0.24,-0.029c0.253,-0.032 0.499,-0.062 0.74,-0.014c0.026,-0.002 0.046,0.002 0.066,0.007c0.545,0.128 0.928,0.572 1.128,1.064c0.199,0.499 0.233,1.047 0.265,1.582c0.15,2.143 0.712,4.135 0.597,6.324Z" style="fill:#3b2645;fill-rule:nonzero;"/><path d="M82.083,84.009c-0.085,0.211 -0.253,0.299 -0.431,0.422c-0.209,0.151 -0.404,0.302 -0.59,0.484c-0.107,0.109 -0.201,0.222 -0.287,0.343c-0.113,-0.147 -0.231,-0.28 -0.361,-0.398c-0.014,-0.012 -0.029,-0.03 -0.037,-0.042c-0.021,-0.018 -0.042,-0.036 -0.057,-0.054c0.069,-0.099 0.14,-0.189 0.222,-0.277c0.302,-0.326 0.887,-0.933 1.373,-0.79c0.141,0.039 0.226,0.168 0.168,0.312Z" style="fill:#e8cee5;fill-rule:nonzero;"/><path d="M82.543,85.164c-0.315,0.398 -0.883,0.624 -1.277,0.964c-0.077,-0.182 -0.143,-0.321 -0.214,-0.445c0.36,-0.35 0.849,-0.784 1.346,-0.794c0.145,-0.001 0.243,0.152 0.145,0.275Z" style="fill:#e8cee5;fill-rule:nonzero;"/><path d="M85.812,86.931c-0.076,1.307 -0.308,3.98 -2.124,3.993c-0,-0 -0.033,-0.004 -0.092,-0.011c-0.133,-0.013 -0.366,-0.049 -0.641,-0.187c2.667,-1.034 2.072,-4.512 1.824,-6.993c-0.192,-1.97 -0.176,-3.952 -0.929,-5.762c0.517,0.121 0.9,0.562 1.1,1.054c0.199,0.499 0.233,1.047 0.265,1.582c0.15,2.143 0.712,4.135 0.597,6.324Z" style="fill:#e8cee5;fill-rule:nonzero;"/><path d="M78.481,108.343c-1.064,0.117 -2.135,0.202 -3.218,0.254l-61.558,0.052c-0.059,-0.006 -0.124,-0.008 -0.183,-0.013c-0.104,-0.009 -0.215,-0.02 -0.32,-0.026c-0.359,-0.033 -0.718,-0.065 -1.084,-0.104c-1.201,-0.124 -1.201,-1.737 -0,-1.861c0.359,-0.039 0.725,-0.072 1.09,-0.098c0.105,-0.014 0.21,-0.018 0.314,-0.026c0.065,-0.006 0.131,-0.007 0.196,-0.013l61.538,0.045c1.084,0.053 2.155,0.137 3.225,0.255c0.986,0.111 0.98,1.423 -0,1.535Z" style="fill:#c6c6c6;fill-rule:nonzero;"/><path d="M27.791,91.583c-1.946,-1.36 -3.733,-3.141 -6.055,-3.637c-1.732,-0.37 -3.525,0.036 -5.296,0.057c-3.496,0.041 -6.979,-1.517 -9.28,-4.149c-2.301,-2.633 -3.378,-6.293 -2.87,-9.752c0.802,-5.46 5.27,-10.255 4.579,-15.73c-0.453,-3.589 -3.033,-6.471 -5.047,-9.476c-3.23,-4.815 -5.173,-11.155 -2.704,-16.401c2.674,-5.684 9.453,-8.138 13.429,-13.001c2.798,-3.421 4.086,-7.896 6.962,-11.251c2.841,-3.313 6.981,-5.234 11.155,-6.506c5.532,-1.686 11.499,-2.391 17.108,-0.988c6.548,1.637 12.253,6.165 15.623,12.012c3.371,5.848 4.439,12.921 3.276,19.569c-0.614,3.512 -1.819,7.154 -0.717,10.544c1.126,3.465 4.35,5.718 6.995,8.222c2.451,2.321 4.563,5.112 5.517,8.35c0.954,3.237 0.613,6.966 -1.429,9.653c-1.207,1.587 -2.916,2.729 -4.158,4.288c-3.776,4.735 -2.32,11.74 -4.47,17.401c-2.584,6.806 -11.026,10.727 -17.894,8.311c-3.034,-1.067 -5.604,-3.127 -8.455,-4.617c-5.358,-2.803 -11.344,0.546 -16.269,-2.899Z" style="fill:#f6f6f6;fill-rule:nonzero;"/><path d="M31.988,33.786c-0,-0 -0.264,1.194 -0.714,2.97c-0.787,3.1 -2.142,7.976 -3.657,11.344c-0.507,1.125 -1.031,2.082 -1.562,2.75c-2.815,3.561 -14.113,-4.594 -15.555,-5.654c-0.099,-0.076 -0.214,-0.11 -0.332,-0.112c-0.801,-0.007 -3.973,-0.177 -3.926,-2.386c0.054,-2.406 1.72,-5.435 5.347,-2.017c2.239,2.105 10.15,4.725 10.15,4.725l2.575,-16.651c0.141,-0.906 1.239,-1.289 1.904,-0.658c1.416,1.338 3.596,3.448 5.77,5.689Z" style="fill:#f5a784;fill-rule:nonzero;"/><path d="M31.274,36.756c-0.787,3.1 -2.142,7.976 -3.657,11.344c-0.042,-4.804 -0.161,-11.405 -0.161,-11.405c1.384,-0.68 2.68,-0.511 3.818,0.061Z" style="fill:#e0855c;fill-rule:nonzero;"/><path d="M40.285,63.049c-2.099,1.484 -4.426,2.912 -6.749,4.319c-1.102,0.671 -2.165,1.346 -3.163,2.007c-5.021,3.343 -8.502,6.332 -8.502,6.332c1.167,1.402 2.386,4.622 3.491,8.287c2.213,7.354 3.98,16.531 3.98,16.531c-2,1.828 -3.692,1.028 -3.692,1.028c-1.57,-3.054 -4.953,-9.488 -7.798,-15.463c-2.656,-5.579 -4.839,-10.746 -4.632,-12.387c0.204,-1.613 4.54,-6.385 9.036,-10.943c4.967,-5.037 10.129,-9.824 10.129,-9.824c-0,-0 3.004,-3.31 6.464,-5.36c2.389,-1.407 5.006,-2.213 7.004,-0.899c0.841,0.554 1.582,1.492 2.142,2.92c0.069,0.177 0.132,0.355 0.189,0.533c1.541,4.908 -2.422,9.072 -7.899,12.919Z" style="fill:#f5a784;fill-rule:nonzero;"/><path d="M80.766,82.884c-5.492,0.259 -11.21,0.882 -15.832,1.248c-3.991,0.316 -7.166,0.455 -8.686,0.006c-2.963,-0.858 -7.787,-7.88 -10.983,-13.007c-1.906,-3.061 -3.234,-5.451 -3.234,-5.451c-0,-0 -0.791,-1.045 -1.746,-2.631c-2.538,-4.233 -6.226,-12.316 1.027,-14.506c3.103,-0.939 5.198,-0.244 6.872,1.587c2.233,2.446 3.706,6.921 5.801,12.266c0.531,1.346 5.749,14.292 5.749,14.292c1.475,-0.347 3.253,-0.481 5.15,-0.469c7.292,0.043 16.295,2.216 16.295,2.216c1.658,2.141 -0.413,4.449 -0.413,4.449Z" style="fill:#f5a784;fill-rule:nonzero;"/><path d="M29.914,18.163c2.106,-0.587 4.207,-1.202 6.284,-1.882c1.22,-0.399 2.567,-0.423 3.021,-1.828c0.363,-1.121 0.058,-2.534 -0.629,-3.452c-0.663,-0.885 -1.681,-1.465 -2.757,-1.72c-1.075,-0.255 -2.205,-0.204 -3.29,0.008c-1.544,0.302 -3.124,1.015 -3.908,2.379c-0.537,0.934 -0.618,2.034 -0.545,3.088c0.073,1.056 0.413,1.695 0.925,2.603c0.065,0.116 0.532,1.071 0.776,0.978c0.065,-0.025 0.11,-0.17 0.123,-0.174Z" style="fill:#3b2645;fill-rule:nonzero;"/><path d="M29.354,16.491c-0,-0 -1.064,-0.835 -1.693,0.361c-0.63,1.197 1.225,2.834 2.344,2.685c-0,-0 -0.43,-2.636 -0.651,-3.046Z" style="fill:#e0855c;fill-rule:nonzero;"/><path d="M47.648,24.912c-0.224,1.316 -1.063,6.097 -1.046,10.133c0.001,0.321 0.008,0.616 0.023,0.909c0.104,2.083 1.173,11.898 1.343,13.443c0.013,0.13 0.027,0.2 0.027,0.2c-6.738,3.504 -14.517,3.356 -15.504,3.342c-0.073,-0.001 -0.106,-0.003 -0.106,-0.003c-0.021,-0.083 -0.064,-0.216 -0.133,-0.42c-0.606,-1.809 -2.922,-9.254 -4.796,-15.821c-0.029,-0.102 -0.058,-0.198 -0.088,-0.3c-0.967,-3.389 -2.405,-5.965 -2.788,-7.935c-0.143,-0.728 2.157,-1.568 3.279,-1.973c0.164,-0.062 0.336,-0.118 0.508,-0.174c0.888,-0.31 1.794,-0.569 2.524,-0.758c0.441,-0.108 1.507,-0.35 1.507,-0.35l-0.466,-3.971c0.131,0.001 0.269,0.002 0.398,-0.017c0.263,-0.006 0.515,-0.041 0.754,-0.081c0.329,-0.055 0.631,-0.12 0.911,-0.207c0.147,-0.046 0.287,-0.086 0.414,-0.132c0.19,-0.071 0.379,-0.142 0.555,-0.225c0.296,-0.126 0.584,-0.273 0.844,-0.429c0.081,-0.048 0.162,-0.089 0.235,-0.148c0.025,-0.009 0.051,-0.018 0.061,-0.039c0.062,-0.039 0.124,-0.077 0.186,-0.116c0.375,-0.253 0.691,-0.514 0.937,-0.747c0.163,-0.154 0.301,-0.286 0.414,-0.402c0.035,-0.042 0.053,-0.057 0.071,-0.079c0.059,-0.064 0.107,-0.115 0.141,-0.165c0.054,-0.057 0.092,-0.097 0.097,-0.118l0.005,0.089c-0,0.066 0.001,0.125 0.006,0.19c0.051,0.658 0.139,1.495 0.279,2.321c0.081,0.569 0.175,1.131 0.262,1.621c0.155,0.844 0.286,1.448 0.286,1.448c0.18,-0.037 0.367,-0.075 0.555,-0.093c0.012,-0.008 0.038,-0.017 0.058,-0.012c0.103,-0.017 0.207,-0.034 0.304,-0.043c0.737,-0.112 1.453,-0.168 2.127,-0.188c0.301,-0.009 0.59,-0.005 0.873,-0c2.275,0.061 3.98,0.524 4.66,0.766c0.204,0.072 0.319,0.272 0.283,0.484Z" style="fill:#f5a784;fill-rule:nonzero;"/><path d="M37.95,18.329c-0.03,4.682 -4.592,5.333 -5.775,4.967l-0.243,-2.062c3.869,-0.036 6.018,-2.905 6.018,-2.905Z" style="fill:#e0855c;fill-rule:nonzero;"/><path d="M28.92,13.512c-0.438,0.705 -0.204,2.028 0.059,3.489c0.797,4.425 2.406,5.516 4.702,5.279c2.296,-0.238 4.46,-1.603 4.073,-5.781c-0.194,-2.089 -0.338,-4.026 -1.267,-4.748c-1.386,-1.076 -6.224,-0.404 -7.567,1.761Z" style="fill:#f5a784;fill-rule:nonzero;"/><path d="M37.316,15.978c-0,-0 0.298,-1.967 1.588,-1.234c1.29,0.733 0.379,3.802 -1.322,3.953c-0,-0 -0.661,-1.984 -0.266,-2.719Z" style="fill:#f5a784;fill-rule:nonzero;"/><path d="M30.886,16.485c-0,-0 -0.35,0.222 -0.436,-0.462c-0.078,-0.617 0.211,-0.593 0.211,-0.593c-0,-0 0.263,-0.058 0.336,0.48c0.073,0.537 -0.111,0.575 -0.111,0.575Z" style="fill:#3b2645;fill-rule:nonzero;"/><path d="M34.736,15.662c-0,-0 -0.35,0.223 -0.436,-0.462c-0.077,-0.616 0.211,-0.592 0.211,-0.592c-0,-0 0.263,-0.058 0.336,0.48c0.073,0.537 -0.111,0.574 -0.111,0.574Z" style="fill:#3b2645;fill-rule:nonzero;"/><path d="M32.994,17.908c-0.198,0.012 -0.615,0.221 -0.75,0.033c-0.113,-0.157 -0.021,-1.245 -0.015,-1.429c0.023,-0.666 0.098,-1.128 0.055,-1.911c-0.002,-0.034 -0.063,-0.041 -0.071,-0.004c-0.231,1.101 -0.131,2.381 -0.172,3.507c-0.003,0.062 0.054,0.115 0.117,0.1c0.281,-0.064 0.567,-0.063 0.849,-0.122c0.094,-0.019 0.089,-0.18 -0.013,-0.174Z" style="fill:#e0855c;fill-rule:nonzero;"/><path d="M30.866,14.353c-0.302,-0.08 -0.818,-0.009 -0.955,0.317c-0.026,0.059 0.039,0.127 0.099,0.111c0.133,-0.036 0.239,-0.127 0.372,-0.167c0.144,-0.044 0.291,-0.04 0.439,-0.026c0.135,0.013 0.178,-0.199 0.045,-0.235Z" style="fill:#3b2645;fill-rule:nonzero;"/><path d="M34.94,13.83c-0.237,-0.353 -0.92,-0.245 -1.156,0.055c-0.054,0.069 0.01,0.164 0.086,0.171c0.179,0.016 0.343,-0.086 0.521,-0.107c0.156,-0.018 0.292,0.023 0.444,0.042c0.079,0.011 0.151,-0.092 0.105,-0.161Z" style="fill:#3b2645;fill-rule:nonzero;"/><path d="M34.209,18.621c-0.429,0.222 -0.658,0.551 -1.168,0.643c-0.257,0.047 -0.507,0.053 -0.76,-0.022c-0.144,-0.042 -0.136,-0.068 -0.284,-0.064c-0.05,0.002 -0.071,0.056 -0.059,0.097c0.12,0.426 0.801,0.356 1.134,0.304c0.527,-0.082 1.002,-0.347 1.247,-0.84c0.031,-0.063 -0.041,-0.153 -0.11,-0.118Z" style="fill:#e0855c;fill-rule:nonzero;"/><path d="M55.499,66.224c-0.294,0.212 -0.582,0.424 -0.864,0.616c-0.234,0.167 -0.461,0.32 -0.69,0.467c-3.729,2.463 -6.77,3.434 -8.68,3.824c-1.906,-3.061 -3.234,-5.451 -3.234,-5.451c-0,-0 -0.791,-1.045 -1.746,-2.631c-2.099,1.484 -4.426,2.912 -6.749,4.319c-1.102,0.671 -2.165,1.346 -3.163,2.007c-0.949,-0.576 -1.811,-1.142 -2.593,-1.696c-2.867,-2.023 -4.603,-3.815 -5.524,-4.919c4.967,-5.037 10.129,-9.824 10.129,-9.824c-0,-0 3.004,-3.31 6.464,-5.36c2.398,-0.706 4.95,-1.178 7.004,-0.899c0.841,0.554 1.582,1.492 2.142,2.92c0.069,0.177 0.132,0.355 0.189,0.533c2.233,2.446 3.706,6.921 5.801,12.266c0.531,1.346 1.037,2.628 1.514,3.828Z" style="fill:#ab8da8;fill-rule:nonzero;"/><path d="M29.342,100.525c-2,1.828 -3.692,1.028 -3.692,1.028c-1.57,-3.054 -4.953,-9.488 -7.798,-15.463c1.75,-0.282 4.435,-0.871 7.51,-2.096c2.213,7.354 3.98,16.531 3.98,16.531Z" style="fill:#e8cee5;fill-rule:nonzero;"/><path d="M30.39,101.859c0.01,0.097 0.012,0.189 -0.005,0.282c-0.05,0.432 -0.319,0.832 -0.659,1.121c-0.412,0.342 -0.924,0.543 -1.423,0.742c-1.988,0.804 -3.712,1.956 -5.828,2.523c-1.267,0.334 -3.878,0.936 -4.453,-0.786c-0,-0 -0.009,-0.032 -0.022,-0.089c-0.024,-0.11 -0.046,-0.298 -0.032,-0.536c0.008,-0.131 0.032,-0.278 0.076,-0.433c0.184,-0.661 0.774,-1.48 2.395,-2.005c0.35,-0.113 0.659,-0.248 0.919,-0.404c0.143,-0.08 0.273,-0.165 0.395,-0.255c0.031,-0.023 0.054,-0.046 0.078,-0.067c0.167,-0.146 0.296,-0.265 0.409,-0.387l0.129,-0.158c0.018,-0.021 0.036,-0.036 0.047,-0.057c0.052,-0.07 0.104,-0.148 0.149,-0.217c0.08,-0.126 0.146,-0.251 0.206,-0.381c0.012,-0.014 0.023,-0.035 0.028,-0.049c0.115,-0.234 0.189,-0.419 0.263,-0.596c0.246,-0.641 0.419,-1.157 0.969,-1.302c1.299,-0.336 3.218,-0.025 3.265,1.322c-0,-0 1.621,-0.191 1.756,-1.162c0.09,-0.619 0.42,-0.133 0.549,0.183c0.224,0.542 0.192,1.162 0.431,1.722c0.033,0.076 0.066,0.145 0.1,0.221c0.108,0.232 0.215,0.458 0.245,0.704c0.009,0.019 0.011,0.045 0.013,0.064Z" style="fill:#3b2645;fill-rule:nonzero;"/><path d="M80.766,82.884c-5.492,0.259 -11.21,0.882 -15.832,1.248c0.312,-1.644 0.464,-3.312 0.367,-4.976c-0.054,-0.894 -0.11,-2.01 -0.417,-2.937c7.292,0.043 16.295,2.216 16.295,2.216c1.658,2.141 -0.413,4.449 -0.413,4.449Z" style="fill:#e8cee5;fill-rule:nonzero;"/><path d="M23.281,103.49c-0.445,-0.455 -0.841,-0.948 -1.298,-1.396c-0.05,-0.047 -0.101,-0.095 -0.152,-0.142c0.171,-0.141 0.296,-0.265 0.409,-0.387c0.058,0.059 0.11,0.113 0.167,0.167c0.449,0.429 0.888,0.897 1.235,1.421c0.146,0.222 -0.157,0.547 -0.361,0.337Z" style="fill:#e8cee5;fill-rule:nonzero;"/><path d="M24.45,102.162c0.075,0.164 -0.117,0.347 -0.283,0.264c-0.476,-0.242 -0.821,-0.687 -1.234,-1.021c-0.114,-0.094 -0.241,-0.186 -0.368,-0.272c0.08,-0.126 0.146,-0.251 0.206,-0.381c0.012,-0.014 0.023,-0.035 0.028,-0.049c0.156,0.051 0.289,0.142 0.417,0.235c0.471,0.328 1.004,0.683 1.234,1.224Z" style="fill:#e8cee5;fill-rule:nonzero;"/><path d="M30.385,102.141c-0.05,0.432 -0.319,0.832 -0.659,1.121c-0.412,0.342 -0.924,0.543 -1.423,0.742c-1.988,0.804 -3.712,1.956 -5.828,2.523c-1.267,0.334 -3.878,0.936 -4.453,-0.786c-0,-0 -0.009,-0.032 -0.022,-0.089c-0.024,-0.11 -0.048,-0.298 -0.032,-0.536c2.513,1.691 4.922,0.157 7.473,-0.662c1.909,-0.612 3.789,-0.973 4.944,-2.313Z" style="fill:#e8cee5;fill-rule:nonzero;"/><path d="M54.635,66.84c-0.234,0.167 -0.461,0.32 -0.69,0.467c-2.448,-5.862 -4.657,-11.905 -7.897,-17.356c-0.166,-0.285 0.225,-0.58 0.423,-0.303c2.026,2.754 3.23,6.153 4.64,9.243c1.201,2.632 2.417,5.275 3.524,7.949Z" style="fill:#e8cee5;fill-rule:nonzero;"/><path d="M40.285,63.049c-2.099,1.484 -4.426,2.912 -6.749,4.319c-1.102,0.671 -2.165,1.346 -3.163,2.007c-0.949,-0.576 -1.811,-1.142 -2.593,-1.696c7.159,-4.083 12.356,-4.615 12.505,-4.63Z" style="fill:#826b80;fill-rule:nonzero;"/><path d="M47.995,49.597c-6.738,3.504 -14.517,3.377 -15.504,3.342c-0.041,-0.009 -0.081,-0.018 -0.115,-0.028c-0.012,-0.058 -0.055,-0.191 -0.124,-0.395c-0.606,-1.809 -2.922,-9.254 -4.796,-15.821c1.03,-3.368 0.968,-8.577 0.911,-10.382c0.888,-0.31 1.794,-0.569 2.524,-0.758c0.053,1.76 0.52,6.149 3.897,6.266c3.989,0.136 4.77,-5.517 4.917,-7.971c0.737,-0.112 1.453,-0.168 2.127,-0.188c0.301,-0.009 0.59,-0.005 0.873,-0c-0.221,1.846 -0.125,3.503 0.163,4.97c0.694,3.56 2.527,6.012 3.757,7.322c0.051,1.058 0.35,4.06 0.647,6.976c0.301,2.884 0.723,6.667 0.723,6.667Z" style="fill:#3b2645;fill-rule:nonzero;"/><path d="M46.628,35.981c0.048,1.031 0.347,4.033 0.644,6.949c-4.992,-7.136 -4.404,-14.298 -4.404,-14.298c0.694,3.56 2.527,6.012 3.757,7.322l0.003,0.027Z" style="fill:#291b30;fill-rule:nonzero;"/><path d="M12.708,41.864c-0.388,1.405 -1.089,2.677 -1.512,4.061c-0.219,0.715 0.801,1.018 1.219,0.559c1.048,-1.151 1.568,-2.856 1.962,-4.33c0.282,-1.058 -1.382,-1.329 -1.669,-0.29Z" style="fill:#ab8da8;fill-rule:nonzero;"/><path d="M30.353,23.426c0.234,0.33 0.489,0.639 0.742,0.944c0.091,0.11 0.178,0.223 0.259,0.337c1.513,2.12 1.782,4.563 2.532,6.911c0.092,-0.138 0.186,-0.276 0.275,-0.417c-0.222,-0.917 -0.414,-1.837 -0.657,-2.741c0.366,-1.409 0.659,-2.691 1.669,-3.845c0.63,-0.72 1.374,-1.353 1.868,-2.184c0.492,-0.824 0.668,-1.775 0.766,-2.717c0.098,-0.947 0.086,-1.886 0.492,-2.763c0.035,-0.075 0.067,-0.153 0.077,-0.235c0.023,-0.201 -0.095,-0.397 -0.253,-0.523c-0.064,-0.052 -0.14,-0.096 -0.223,-0.102c-0.083,-0.007 -0.173,0.033 -0.206,0.109c-0.021,0.049 -0.016,0.105 -0.012,0.158c0.044,0.585 -0.038,1.172 -0.099,1.751c-0.064,0.616 -0.096,1.234 -0.165,1.849c-0.174,1.563 -0.829,2.609 -1.863,3.734c-1.214,1.32 -1.986,2.588 -2.191,4.277c-0.245,-0.825 -0.548,-1.634 -0.987,-2.408c-0.583,-1.026 -1.384,-1.88 -2.031,-2.859c-0.451,-0.681 -0.741,-1.446 -0.915,-2.241c-0.078,-0.354 -0.197,-0.77 -0.172,-1.134c0.026,-0.375 0.178,-1.135 -0.059,-1.459c-0.366,-0.498 -0.513,0.087 -0.459,0.435c0.117,0.755 0.11,1.527 0.272,2.275c0.192,0.888 0.606,1.751 1.13,2.547c0.067,0.102 0.137,0.202 0.21,0.301Z" style="fill:#ab8da8;fill-rule:nonzero;"/><path d="M38.57,42.753c-0.623,0.714 -0.495,1.964 -0.484,2.841c0.01,0.731 0.23,1.471 0.135,2.202c-0.074,0.562 -0.262,1.377 -0.811,1.662c-0.191,0.1 -0.41,0.132 -0.624,0.152c-0.188,0.017 -0.381,0.025 -0.561,-0.031c-0.277,-0.086 -0.484,-0.312 -0.666,-0.538c-0.703,-0.876 -0.555,-1.659 -0.606,-2.706c-0.049,-0.997 -0.391,-1.583 -1.07,-2.295c-1.83,-1.919 -0.873,-3.556 -0.321,-5.711c0.713,-2.782 0.967,-6.345 -0.218,-9.032c-0.009,-0.021 -0.041,-0.014 -0.039,0.009c0.145,1.761 0.504,3.435 0.427,5.217c-0.085,1.963 -0.603,3.67 -1.129,5.548c-0.29,1.038 -0.505,2.166 0.044,3.162c0.205,0.372 0.521,0.654 0.814,0.954c1.023,1.046 1.028,1.946 1.109,3.318c0.089,1.503 1.568,3.319 3.185,2.163c0.701,-0.502 0.849,-1.418 0.845,-2.217c-0.003,-0.716 -0.153,-1.43 -0.185,-2.146c-0.018,-0.61 -0.096,-1.223 0.077,-1.825c0.034,-0.119 0.079,-0.238 0.157,-0.334c0.141,-0.172 0.366,-0.245 0.578,-0.31c0.118,-0.037 0.242,-0.074 0.364,-0.052c0.154,0.026 0.276,0.139 0.38,0.255c0.291,0.321 0.493,0.7 0.665,1.094c0.04,0.091 0.07,0.282 0.179,0.314c0.109,0.033 0.257,-0.047 0.23,-0.174c-0.225,-1.041 -1.301,-2.864 -2.475,-1.52Z" style="fill:#ab8da8;fill-rule:nonzero;"/><path d="M46.159,50.811l-2.252,1.1c-0.536,0.262 -1.184,0.039 -1.446,-0.497l-2.753,-5.636c-0.262,-0.536 -0.039,-1.184 0.497,-1.446l2.252,-1.099c0.536,-0.263 1.184,-0.04 1.445,0.496l2.753,5.636c0.262,0.537 0.04,1.184 -0.496,1.446Z" style="fill:#e8cee5;fill-rule:nonzero;"/><path d="M46.908,24.439c0.32,-0.071 0.656,0.027 0.892,0.255c1.958,1.89 11.571,11.343 12.425,15.47c0.889,4.302 -12.174,7.617 -13.859,8.026c-0.113,0.027 -0.213,0.088 -0.288,0.176c-0.501,0.587 -2.597,2.837 -4.204,1.431c-1.756,-1.536 -2.966,-4.652 1.822,-5.223c2.955,-0.352 9.811,-4.592 9.811,-4.592l-8.236,-6.316c-0,-0 -2.683,-8.274 1.637,-9.227Z" style="fill:#f5a784;fill-rule:nonzero;"/><path d="M57.546,76.71c-3.923,-0.228 -7.905,-0.032 -11.836,-0.015c-3.929,0.017 -7.915,-0.156 -11.836,0.122c-0.111,0.008 -0.111,0.166 -0,0.173c3.921,0.279 7.907,0.106 11.836,0.123c3.931,0.017 7.913,0.213 11.836,-0.015c0.25,-0.015 0.25,-0.374 -0,-0.388Z" style="fill:#e8cee5;fill-rule:nonzero;"/><path d="M85.886,60.856c-4.348,-0.226 -8.732,-0.069 -13.086,-0.062c-4.328,0.008 -8.774,-0.27 -13.086,0.113c-0.207,0.018 -0.207,0.303 -0,0.321c4.312,0.383 8.758,0.105 13.086,0.113c4.354,0.007 8.738,0.164 13.086,-0.062c0.273,-0.014 0.273,-0.409 -0,-0.423Z" style="fill:#e8cee5;fill-rule:nonzero;"/><path d="M19.205,55.206c-2.959,-0.171 -5.956,-0.042 -8.919,-0.037c-2.947,0.004 -5.989,-0.195 -8.919,0.141c-0.114,0.013 -0.115,0.166 -0,0.179c2.931,0.336 5.971,0.137 8.919,0.142c2.963,0.004 5.96,0.133 8.919,-0.038c0.249,-0.014 0.25,-0.373 -0,-0.387Z" style="fill:#e8cee5;fill-rule:nonzero;"/><path d="M22.205,57.398c-3.063,-0.18 -6.479,-0.353 -9.515,0.119c-0.049,0.008 -0.049,0.091 -0,0.099c3.036,0.472 6.452,0.299 9.515,0.119c0.217,-0.013 0.217,-0.324 -0,-0.337Z" style="fill:#e8cee5;fill-rule:nonzero;"/><path d="M74.384,18.008c-4.124,-0.226 -8.291,-0.066 -12.42,-0.059c-4.125,0.007 -8.303,-0.134 -12.419,0.156c-0.154,0.01 -0.154,0.229 -0,0.239c4.117,0.29 8.294,0.149 12.419,0.156c4.129,0.007 8.296,0.167 12.42,-0.059c0.279,-0.015 0.279,-0.418 -0,-0.433Z" style="fill:#e8cee5;fill-rule:nonzero;"/></g></svg>