<?xml version="1.0" encoding="UTF-8" standalone="no"?><!DOCTYPE svg PUBLIC "-//W3C//DTD SVG 1.1//EN" "http://www.w3.org/Graphics/SVG/1.1/DTD/svg11.dtd"><svg width="100%" height="100%" viewBox="0 0 95 122" version="1.1" xmlns="http://www.w3.org/2000/svg" xmlns:xlink="http://www.w3.org/1999/xlink" xml:space="preserve" xmlns:serif="http://www.serif.com/" style="fill-rule:evenodd;clip-rule:evenodd;stroke-linejoin:round;stroke-miterlimit:2;"><g><path d="M93.603,121.07c-1.065,0.117 -2.135,0.202 -3.219,0.254c-0.308,0.013 -87.895,0.052 -87.895,0.052c-0.059,-0.006 -0.124,-0.006 -0.184,-0.013c-0.47,-0.039 -0.935,-0.078 -1.404,-0.13c-1.201,-0.124 -1.201,-1.737 0,-1.861c0.464,-0.052 0.934,-0.092 1.404,-0.124c0.064,-0.007 0.13,-0.007 0.195,-0.013c0,0 87.576,0.032 87.878,0.045c1.083,0.053 2.154,0.137 3.225,0.255c0.986,0.111 0.979,1.423 0,1.535Z" style="fill:#c6c6c6;fill-rule:nonzero;"/><path d="M15.007,25.398c-2.81,2.359 -4.87,5.49 -6.59,8.732c-1.863,3.517 -3.408,7.465 -2.768,11.394c0.819,5.046 5.017,8.894 6.592,13.758c2.563,7.906 -2.241,16.254 -2.331,24.564c-0.042,3.971 1.03,7.948 3.063,11.36c1.303,2.187 3.164,4.25 5.642,4.838c3.349,0.796 6.637,-1.274 10.008,-1.969c4.041,-0.833 8.462,0.464 11.414,3.35c1.562,1.527 2.711,3.438 4.286,4.95c5.306,5.087 14.5,4.193 20.116,-0.549c5.616,-4.742 8.133,-12.294 8.753,-19.617c0.196,-2.34 0.225,-4.712 -0.215,-7.018c-0.447,-2.348 -1.373,-4.582 -1.853,-6.923c-1.727,-8.422 2.406,-16.77 5.306,-24.864c3.201,-8.938 4.962,-18.821 2.204,-27.906c-2.759,-9.084 -11.005,-16.967 -20.498,-16.883c-1.873,0.017 -3.767,0.328 -5.604,-0.025c-1.579,-0.304 -3.017,-1.08 -4.525,-1.636c-3.172,-1.172 -6.781,-1.344 -9.914,-0.067c-5.336,2.177 -5.965,8.436 -8.211,13.007c-2.856,5.817 -10.124,7.519 -14.875,11.504Z" style="fill:#f6f6f6;fill-rule:nonzero;"/><path d="M39.196,30.95c-0,0 -3.071,3.555 -14.442,8.142c1.512,1.152 8.884,8.109 9.406,8.741c1.185,1.43 0.321,2.598 -0.062,4.143c-0.29,1.176 -0.439,2.224 -1.096,3.299c-0.064,0.103 -0.134,0.21 -0.241,0.267c-0.287,0.152 -0.615,-0.13 -0.775,-0.412c-0.552,-0.973 -0.456,-2.164 -0.566,-3.277c-0.27,-2.712 -2.883,-3.013 -4.881,-4.231c-5.852,-3.568 -11.009,-6.495 -9.316,-10.265c1.961,-4.369 13.074,-13.217 16.173,-13.588c3.099,-0.372 8.636,5.406 5.8,7.181Z" style="fill:#f5a784;fill-rule:nonzero;"/><path d="M37.753,13.896c-0.28,-0.265 -0.34,-0.67 -0.388,-1.303c-0.094,-1.184 -0.164,-2.466 0.489,-3.458c0.659,-1.003 2.037,-1.462 3.167,-1.057c0.482,-1.098 1.529,-1.92 2.703,-2.166c1.175,-0.246 2.447,0.077 3.386,0.824c0.48,0.382 0.883,0.87 1.42,1.17c0.537,0.3 1.292,0.351 1.703,-0.105c0.154,0.458 0.305,0.964 0.127,1.413c-0.205,0.512 -0.767,0.771 -1.138,1.178c-0.564,0.618 -0.479,1.462 -0.548,2.251c-0.041,0.448 -0.18,0.753 -0.356,1.153c-0.2,0.45 -0.284,0.944 -0.547,1.373c-0.081,0.131 -0.34,0.527 -0.427,0.174c-0.512,-0.047 -1.023,-0.098 -1.535,-0.15c-1.736,-0.176 -3.473,-0.365 -5.199,-0.607c-0.716,-0.101 -1.439,-0.199 -2.144,-0.361c-0.33,-0.076 -0.557,-0.181 -0.713,-0.329Z" style="fill:#3b2645;fill-rule:nonzero;"/><path d="M47.598,13.598c-0,0 0.896,-1.012 1.729,0.053c0.833,1.065 -0.698,3.007 -1.825,3.061c-0,0 -0.049,-2.671 0.096,-3.114Z" style="fill:#e0855c;fill-rule:nonzero;"/><path d="M31.104,25.152c0.485,1.25 2.162,5.803 2.843,9.788c0.055,0.322 0.104,0.624 0.142,0.919c0.269,2.046 0.967,11.892 1.075,13.443c0.011,0.131 0.015,0.204 0.015,0.204c7.765,2.394 15.949,0.489 15.949,0.489c0,0 0.018,-0.15 0.06,-0.436c0.242,-1.92 1.25,-9.865 1.924,-16.736c0.343,-3.503 0.598,-6.736 0.621,-8.747c0.01,-0.738 -1.703,-0.712 -2.879,-0.911c-1.644,-0.286 -3.444,-0.4 -4.259,-0.431c-0.071,-0.009 -0.136,-0.011 -0.196,-0.013c-0.156,-0.005 -0.242,-0.006 -0.242,-0.006l-0.068,-1.153c0,-0.013 -0.051,-0.765 -0.051,-0.765l-0.13,-2.071c-0.13,0.022 -0.263,0.046 -0.393,0.055c-0.263,0.038 -0.512,0.052 -0.761,0.055c-0.333,0.004 -0.639,-0.006 -0.932,-0.041c-0.15,-0.018 -0.293,-0.036 -0.43,-0.059c-0.2,-0.033 -0.396,-0.071 -0.583,-0.116c-0.319,-0.075 -0.62,-0.177 -0.906,-0.277c-0.09,-0.03 -0.176,-0.057 -0.258,-0.099c-0.027,-0.007 -0.052,-0.014 -0.072,-0.028c-0.065,-0.028 -0.135,-0.057 -0.2,-0.084c-0.42,-0.183 -0.771,-0.384 -1.06,-0.569c-0.186,-0.117 -0.347,-0.225 -0.474,-0.321c-0.044,-0.034 -0.064,-0.047 -0.082,-0.062c-0.072,-0.053 -0.129,-0.095 -0.173,-0.135c-0.064,-0.048 -0.103,-0.087 -0.116,-0.1c0.022,0.144 0.032,0.208 0.039,0.273c0.061,0.658 0.13,1.5 0.144,2.337c0.021,0.576 0.024,1.144 0.028,1.64c-0,0.856 -0.021,1.475 -0.021,1.475c-0.189,-0.006 -0.376,-0.004 -0.56,0.01c-0.021,-0.007 -0.046,-0.008 -0.066,-0.002c-0.856,0.013 -1.675,0.092 -2.43,0.206c-2.672,0.428 -4.607,1.342 -5.306,1.745c-0.185,0.106 -0.264,0.325 -0.192,0.523Z" style="fill:#f5a784;fill-rule:nonzero;"/><path d="M39.468,16.945c0.866,4.601 5.474,4.423 6.57,3.852l-0.13,-2.071c-3.813,0.657 -6.44,-1.781 -6.44,-1.781Z" style="fill:#e0855c;fill-rule:nonzero;"/><path d="M47.491,10.589c0.556,0.616 0.564,1.959 0.567,3.444c0.006,4.495 -1.382,5.857 -3.684,6.034c-2.301,0.176 -4.673,-0.78 -5.04,-4.959c-0.183,-2.09 -0.387,-4.022 0.397,-4.898c1.172,-1.307 6.052,-1.51 7.76,0.379Z" style="fill:#f5a784;fill-rule:nonzero;"/><path d="M39.671,14.517c0,0 -0.645,-1.882 -1.783,-0.93c-1.138,0.952 0.308,3.808 2.008,3.652c0,0 0.297,-2.069 -0.225,-2.722Z" style="fill:#f5a784;fill-rule:nonzero;"/><path d="M38.381,14.449c0.243,0.05 0.487,0.289 0.658,0.46c0.18,0.179 0.391,0.401 0.477,0.644c0.026,0.077 -0.081,0.12 -0.13,0.07c-0.14,-0.137 -0.249,-0.301 -0.379,-0.449c-0.099,0.1 -0.198,0.201 -0.333,0.246c-0.102,0.035 -0.175,-0.094 -0.128,-0.177c0.061,-0.106 0.169,-0.18 0.276,-0.248c-0.172,-0.141 -0.38,-0.255 -0.522,-0.418c-0.055,-0.062 0.005,-0.144 0.081,-0.128Z" style="fill:#e0855c;fill-rule:nonzero;"/><path d="M46.089,13.866c-0,0 0.384,0.156 0.346,-0.533c-0.034,-0.619 -0.314,-0.545 -0.314,-0.545c0,0 -0.269,-0.01 -0.244,0.532c0.023,0.542 0.212,0.546 0.212,0.546Z" style="fill:#3b2645;fill-rule:nonzero;"/><path d="M42.154,13.745c0,0 0.383,0.157 0.345,-0.532c-0.034,-0.621 -0.311,-0.545 -0.311,-0.545c-0,0 -0.271,-0.011 -0.246,0.531c0.023,0.542 0.212,0.546 0.212,0.546Z" style="fill:#3b2645;fill-rule:nonzero;"/><path d="M44.27,15.643c0.196,-0.024 0.643,0.108 0.743,-0.102c0.082,-0.175 -0.201,-1.228 -0.241,-1.409c-0.141,-0.65 -0.298,-1.092 -0.395,-1.87c-0.006,-0.034 0.054,-0.051 0.069,-0.016c0.423,1.042 0.553,2.319 0.795,3.42c0.015,0.06 -0.032,0.122 -0.096,0.119c-0.288,-0.013 -0.57,0.039 -0.858,0.032c-0.095,-0.002 -0.12,-0.162 -0.017,-0.174Z" style="fill:#e0855c;fill-rule:nonzero;"/><path d="M45.727,11.765c0.282,-0.133 0.803,-0.155 0.997,0.141c0.035,0.054 -0.017,0.132 -0.078,0.126c-0.139,-0.011 -0.258,-0.082 -0.397,-0.097c-0.148,-0.017 -0.293,0.012 -0.436,0.053c-0.129,0.037 -0.211,-0.164 -0.086,-0.223Z" style="fill:#3b2645;fill-rule:nonzero;"/><path d="M41.625,11.979c0.171,-0.39 0.861,-0.406 1.149,-0.153c0.065,0.058 0.018,0.163 -0.056,0.183c-0.172,0.048 -0.353,-0.022 -0.53,-0.011c-0.158,0.009 -0.284,0.074 -0.431,0.121c-0.076,0.024 -0.164,-0.064 -0.132,-0.14Z" style="fill:#3b2645;fill-rule:nonzero;"/><path d="M45.201,17.066c0,0 -1.405,0.167 -2.445,-0.5c-0,0 0.337,0.93 1.194,1.191c0.858,0.262 1.251,-0.691 1.251,-0.691Z" style="fill:#fff;fill-rule:nonzero;"/><path d="M84.612,99.448l0,0.06c0,0.683 -0.035,1.355 -0.1,2.017c-0.034,0.354 -0.078,0.697 -0.134,1.041c-0.16,1.056 -0.402,2.082 -0.721,3.072c-0.115,0.374 -0.245,0.738 -0.383,1.096c-2.905,7.525 -10.206,12.858 -18.75,12.858c-10.081,0 -18.427,-7.424 -19.867,-17.111c-0.034,-0.239 -0.069,-0.478 -0.094,-0.722c-0.085,-0.737 -0.125,-1.489 -0.125,-2.251c0,-0.089 0,-0.184 0.005,-0.274c0,-0.234 0.005,-0.463 0.02,-0.697c0.049,-1.081 0.184,-2.141 0.403,-3.173c0.065,-0.303 0.134,-0.602 0.21,-0.901c0.437,-1.698 1.095,-3.311 1.943,-4.801c2.976,-5.293 8.29,-9.098 14.54,-10.014c0.967,-0.149 1.957,-0.224 2.965,-0.224c10.661,0 19.381,8.306 20.048,18.794c0.026,0.409 0.04,0.817 0.04,1.23Z" style="fill:#ab8da8;fill-rule:nonzero;"/><path d="M83.657,105.638c-0.115,0.374 -0.245,0.738 -0.383,1.096c-1.883,-0.647 -3.771,-1.295 -5.698,-1.803c-4.069,-1.075 -8.212,-1.867 -12.391,-2.365c-3.909,-0.468 -7.854,-0.682 -11.793,-0.642c-2.923,0.034 -5.825,0.363 -8.735,0.557c-0.034,-0.239 -0.069,-0.478 -0.094,-0.722c6.962,-1.26 14.716,-0.682 21.523,0.16c5.677,0.697 11.933,1.723 17.571,3.719Z" style="fill:#e8cee5;fill-rule:nonzero;"/><path d="M84.512,101.525c-0.034,0.354 -0.078,0.697 -0.134,1.041c-5.707,-1.863 -11.474,-3.327 -17.56,-3.994c-7.5,-0.822 -14.979,-0.603 -22.375,0.662c0,-0.234 0.005,-0.463 0.02,-0.697c2.898,-0.817 6.091,-0.936 8.993,-1.095c4.452,-0.249 8.926,-0.125 13.362,0.343c5.918,0.627 11.973,1.798 17.694,3.74Z" style="fill:#e8cee5;fill-rule:nonzero;"/><path d="M84.612,99.448c-2.415,-0.787 -4.825,-1.613 -7.286,-2.261c-3.934,-1.035 -7.932,-1.847 -11.966,-2.365c-3.905,-0.503 -7.849,-0.712 -11.784,-0.553c-2.962,0.119 -5.832,0.593 -8.71,1.095c0.065,-0.303 0.134,-0.602 0.21,-0.901c6.564,-1.534 13.879,-1.265 20.323,-0.493c6.315,0.752 13.013,2.082 19.173,4.248c0.026,0.409 0.04,0.817 0.04,1.23Z" style="fill:#e8cee5;fill-rule:nonzero;"/><path d="M43.882,53.938c-0.064,1.391 -0.248,3.013 -0.508,4.776c-0.466,3.147 -1.189,6.729 -1.971,10.202c-1.81,7.985 -3.926,15.363 -3.926,15.363c-0.09,4.786 -0.927,10.473 -1.887,15.533c-0.307,1.606 -0.62,3.154 -0.927,4.583c-1.109,5.087 -2.114,8.75 -2.114,8.75l-4.872,-0.921c-0.229,-2.769 -0.32,-5.4 -0.312,-7.874c-0,-1.541 0.039,-3.01 0.103,-4.421c0.444,-9.617 2.155,-16.048 2.169,-17.256c0.038,-5.628 0.365,-10.545 0.822,-14.736c1.254,-11.551 3.487,-17.564 3.487,-17.564c3.147,-7.241 7.872,-6.743 9.433,-1.407c0.401,1.364 0.595,3.033 0.503,4.972Z" style="fill:#f5a784;fill-rule:nonzero;"/><path d="M59.377,105.93c-0.026,2.004 -0.124,4.106 -0.301,6.294l-4.87,0.921c-0,0 -0.863,-3.148 -1.867,-7.666c-0.373,-1.658 -0.758,-3.499 -1.13,-5.439c-0.98,-5.112 -1.843,-10.904 -1.933,-15.761c0,0 -2.135,-7.43 -3.944,-15.448c-0.777,-3.441 -1.497,-7.002 -1.958,-10.117c-0.263,-1.769 -0.437,-3.392 -0.504,-4.776c-0.091,-1.939 0.108,-3.613 0.509,-4.972c1.58,-5.338 6.288,-5.828 9.436,1.407c0,0 2.219,5.981 3.467,17.479c0.463,4.204 0.79,9.154 0.836,14.821c0.013,1.201 1.691,7.528 2.154,17.015c0.097,1.952 0.136,4.035 0.105,6.242Z" style="fill:#f5a784;fill-rule:nonzero;"/><path d="M49.017,23.08c0,0 4.253,-1.992 16.507,-1.537c0,0 -3.887,-7.128 -3.981,-8.979c0,0 -1.812,1.723 -3.189,0.221c-1.02,-1.113 -0.907,-2.474 1.037,-3.585c1.944,-1.11 4.096,-1.82 7.984,3.827c3.888,5.647 7.4,10.423 4.317,13.173c-3.576,3.188 -17.331,6.729 -20.313,5.803c-2.98,-0.926 -5.677,-8.46 -2.362,-8.923Z" style="fill:#f5a784;fill-rule:nonzero;"/><path d="M52.854,42.12c-0.666,-2.749 -3.67,-2.455 -3.67,-2.455c0.104,-0.901 0.125,-1.881 0.073,-2.906c-0.008,-0.117 -0.014,-0.228 -0.02,-0.346c-0.045,-0.672 -0.118,-1.364 -0.208,-2.063c-0.014,-0.124 -0.031,-0.255 -0.047,-0.385c-0.491,-4.04 -1.808,-8.136 -2.436,-10.088c-0.241,-0.738 -0.389,-1.162 -0.389,-1.162l-0.184,-3.056c-0,0 0.651,-0.228 2.134,0.862c0.418,0.3 0.901,0.712 1.456,1.26c1.821,1.809 4.087,8.136 5.556,12.987c0.047,0.163 0.099,0.326 0.144,0.49c0.287,0.959 0.536,1.854 0.744,2.631c0.047,0.176 0.092,0.346 0.131,0.509c0.235,0.888 0.399,1.58 0.464,1.972c0.418,2.416 -3.082,4.499 -3.748,1.75Z" style="fill:#ab8da8;fill-rule:nonzero;"/><path d="M36.309,44.039c-0.542,-4.583 -3.212,-3.754 -3.212,-3.754c-0.072,-1.084 -0.118,-2.102 -0.132,-3.075c0,-0.118 -0.005,-0.235 -0.005,-0.352c-0,-0.523 0.005,-1.026 0.013,-1.516c-0,-0.124 0.006,-0.248 0.013,-0.372c0.431,-13.496 6.665,-15.415 6.665,-15.415l0.007,3.115c0,0 0.249,9.93 0.66,16.198c0.007,0.177 0.02,0.347 0.033,0.516c0.078,1.169 0.178,2.179 0.255,2.951c0.015,0.163 0.031,0.314 0.052,0.451c0.039,0.255 0.071,0.47 0.111,0.64c0.665,3.056 -3.917,5.197 -4.46,0.613Z" style="fill:#ab8da8;fill-rule:nonzero;"/><path d="M48.107,20.521c-0.999,0.927 -1.397,2.344 -1.561,3.356c-0.241,-0.738 -0.389,-1.162 -0.389,-1.162l-0.184,-3.056c-0,0 0.651,-0.228 2.134,0.862Z" style="fill:#826b80;fill-rule:nonzero;"/><path d="M40.658,42.786c-0.68,-0.111 -1.339,-0.431 -1.893,-0.96c-1.059,-1.025 -1.248,-2.586 -2.417,-3.532c-0.992,-0.803 -2.174,-1.006 -3.383,-1.084c0,-0.118 -0.005,-0.235 -0.005,-0.352c1.378,0.058 2.775,0.411 3.793,1.318c0.828,0.738 1.103,1.757 1.691,2.658c0.568,0.855 1.332,1.338 2.162,1.501c0.012,0.164 0.031,0.314 0.052,0.451Z" style="fill:#e8cee5;fill-rule:nonzero;"/><path d="M40.351,39.384c-0.379,-0.157 -0.758,-0.385 -1.144,-0.698c-1.135,-0.914 -2.114,-1.92 -3.454,-2.554c-0.906,-0.43 -1.833,-0.652 -2.78,-0.79c-0,-0.124 0.006,-0.248 0.013,-0.372c1.293,0.105 2.578,0.529 3.695,1.143c0.869,0.47 1.581,1.09 2.318,1.737c0.405,0.346 0.828,0.751 1.319,1.018c0.007,0.177 0.02,0.347 0.033,0.516Z" style="fill:#e8cee5;fill-rule:nonzero;"/><path d="M56.138,38.398c-0.575,0.19 -1.188,0.275 -1.795,0.222c-1.313,-0.111 -3.383,-1.58 -5.086,-1.861c-0.008,-0.117 -0.014,-0.228 -0.02,-0.346c0.588,0.072 1.181,0.248 1.627,0.425c1.018,0.392 1.971,0.999 3.054,1.214c0.765,0.15 1.456,0.065 2.089,-0.163c0.047,0.176 0.092,0.346 0.131,0.509Z" style="fill:#e8cee5;fill-rule:nonzero;"/><path d="M55.263,35.258c-0.483,0.045 -0.967,0.019 -1.442,-0.065c-1.319,-0.236 -2.396,-0.81 -3.782,-0.856c-0.339,-0.013 -0.673,-0.006 -1.01,0.013c-0.014,-0.124 -0.035,-0.255 -0.047,-0.385c0.856,-0.098 1.711,-0.098 2.573,0.072c1.051,0.209 1.978,0.711 3.074,0.744c0.171,0.007 0.334,0 0.49,-0.013c0.047,0.163 0.099,0.326 0.144,0.49Z" style="fill:#e8cee5;fill-rule:nonzero;"/><path d="M58.274,79.049c-2.573,1.672 -6.015,2.279 -8.607,2.488c-2.141,0.17 -3.694,0.065 -3.694,0.065l-2.586,-20.952l-2.88,20.325c-5.06,1.835 -12.065,-0.94 -12.065,-0.94c1.064,-23.087 6.966,-32.418 6.966,-32.418c6.785,2.207 16.141,0.066 16.141,0.066c4.773,6.431 6.725,31.366 6.725,31.366Z" style="fill:#3b2645;fill-rule:nonzero;"/><path d="M43.205,49.969c-0.37,0.273 -0.624,0.54 -0.801,0.971c-0.337,0.827 0.12,1.743 -0.257,2.557c-0.273,0.591 -0.804,0.985 -1.01,1.631c-0.181,0.57 -0.164,1.133 -0.006,1.705c0.048,0.174 0.345,0.148 0.325,-0.044c-0.078,-0.807 -0.029,-1.511 0.427,-2.224c0.263,-0.413 0.615,-0.695 0.771,-1.171c0.105,-0.322 0.075,-0.546 0.07,-0.874c-0.014,-0.917 0.007,-1.579 0.637,-2.35c0.082,-0.102 -0.03,-0.294 -0.156,-0.201Z" style="fill:#291b30;fill-rule:nonzero;"/><path d="M44.938,52.788c-0.384,-0.957 -0.375,-1.644 -0.147,-2.64c0.022,-0.094 -0.101,-0.145 -0.154,-0.065c-0.338,0.511 -0.475,1.012 -0.426,1.636c0.06,0.764 0.616,1.45 0.324,2.199c-0.454,1.168 -1.016,2.127 -0.128,3.291c0.092,0.121 0.277,0.021 0.208,-0.121c-0.505,-1.019 -0.356,-1.889 0.16,-2.846c0.115,-0.213 0.301,-0.39 0.345,-0.638c0.074,-0.418 -0.009,-0.386 -0.182,-0.816Z" style="fill:#291b30;fill-rule:nonzero;"/><path d="M49.667,81.537c-2.141,0.17 -3.694,0.065 -3.694,0.065l-2.586,-20.952c-0,0 4.438,10.088 6.28,20.887Z" style="fill:#291b30;fill-rule:nonzero;"/><path d="M34.663,104.395c-1.109,5.087 -2.114,8.75 -2.114,8.75l-4.872,-0.921c-0.229,-2.769 -0.32,-5.4 -0.312,-7.874c1.963,0.241 4.941,0.47 7.298,0.045Z" style="fill:#e8cee5;fill-rule:nonzero;"/><path d="M59.377,105.93c-0.026,2.004 -0.124,4.106 -0.301,6.294l-4.87,0.921c-0,0 -0.863,-3.148 -1.867,-7.666c2.272,0.542 5.112,0.542 7.038,0.451Z" style="fill:#e8cee5;fill-rule:nonzero;"/><path d="M33.181,118.061c-0.001,0.052 -0.006,0.105 -0.013,0.15c-0.162,2.253 -1.997,1.907 -4.72,1.946c-2.174,0.033 -3.33,-1.208 -3.199,-2.52c0.033,-0.366 0.169,-0.745 0.41,-1.097c1.119,-1.613 1.477,-3.761 1.477,-3.761c2.683,-3.219 5.413,0.366 5.413,0.366c-0,0 0.678,2.499 0.632,4.916Z" style="fill:#3b2645;fill-rule:nonzero;"/><path d="M58.313,120.157c-2.788,-0.039 -4.689,0.321 -4.735,-2.096c-0.001,-0.072 -0.005,-0.137 0,-0.209c-0.058,-2.35 0.628,-4.707 0.628,-4.707c-0,0 2.737,-3.585 5.413,-0.366c-0,0 0.358,2.148 1.475,3.761c0.137,0.196 0.241,0.405 0.314,0.607c0.502,1.476 -0.654,3.049 -3.095,3.01Z" style="fill:#3b2645;fill-rule:nonzero;"/><path d="M31.211,114.52c-0.773,-0.484 -2.462,-0.693 -3.251,-0.152c-0.085,0.058 -0.05,0.176 0.051,0.186c0.484,0.046 0.97,-0.104 1.466,-0.071c0.566,0.038 1.043,0.257 1.583,0.396c0.218,0.055 0.341,-0.241 0.151,-0.359Z" style="fill:#291b30;fill-rule:nonzero;"/><path d="M30.866,115.599c-0.975,-0.268 -2.255,-0.475 -3.204,-0.039c-0.162,0.075 -0.111,0.332 0.049,0.373c0.446,0.114 0.896,0.101 1.352,0.127c0.545,0.031 1.074,0.134 1.611,0.242c0.454,0.092 0.649,-0.578 0.192,-0.703Z" style="fill:#291b30;fill-rule:nonzero;"/><path d="M58.365,114.383c-0.957,-0.311 -2.111,-0.228 -2.958,0.337c-0.27,0.18 -0.105,0.697 0.237,0.56c0.86,-0.348 1.625,-0.477 2.535,-0.223c0.436,0.121 0.61,-0.535 0.186,-0.674Z" style="fill:#291b30;fill-rule:nonzero;"/><path d="M58.879,115.614c-0.646,-0.264 -1.455,-0.235 -2.135,-0.115c-0.442,0.078 -1.146,0.195 -1.254,0.719c-0.02,0.103 0.03,0.212 0.137,0.241c0.436,-0.026 0.851,-0.226 1.256,-0.279c0.656,-0.085 1.259,0.033 1.909,0.076c0.4,0.026 0.401,-0.514 0.087,-0.642Z" style="fill:#291b30;fill-rule:nonzero;"/></g></svg>