<?xml version="1.0" encoding="UTF-8" standalone="no"?><!DOCTYPE svg PUBLIC "-//W3C//DTD SVG 1.1//EN" "http://www.w3.org/Graphics/SVG/1.1/DTD/svg11.dtd"><svg width="100%" height="100%" viewBox="0 0 103 120" version="1.1" xmlns="http://www.w3.org/2000/svg" xmlns:xlink="http://www.w3.org/1999/xlink" xml:space="preserve" xmlns:serif="http://www.serif.com/" style="fill-rule:evenodd;clip-rule:evenodd;stroke-linejoin:round;stroke-miterlimit:2;"><g><path d="M101.325,118.81c-1.064,0.117 -2.134,0.202 -3.218,0.254c-0.307,0.013 -87.897,0.052 -87.897,0.052c-0.058,-0.006 -0.124,-0.006 -0.182,-0.013c-0.471,-0.039 -0.934,-0.078 -1.405,-0.13c-1.201,-0.124 -1.201,-1.737 -0,-1.861c0.464,-0.052 0.934,-0.092 1.405,-0.124c0.065,-0.007 0.129,-0.007 0.195,-0.013c-0,0 87.577,0.032 87.877,0.045c1.084,0.053 2.155,0.137 3.225,0.255c0.987,0.111 0.98,1.423 -0,1.535Z" style="fill:#c6c6c6;fill-rule:nonzero;"/><path d="M28.833,25.18c-1.121,4.819 -2.352,9.857 -5.646,13.549c-3.314,3.715 -8.217,5.512 -12.35,8.287c-4.244,2.85 -7.77,6.885 -9.567,11.671c-1.796,4.787 -1.753,10.331 0.556,14.892c1.996,3.943 5.569,7.077 6.786,11.325c0.65,2.268 0.572,4.695 1.216,6.964c1.854,6.524 9.049,9.99 15.742,11.087c6.692,1.097 13.724,0.681 20.032,3.172c3.718,1.468 7.469,3.962 11.363,3.059c2.802,-0.649 4.918,-2.944 7.563,-4.077c3.79,-1.623 8.142,-0.691 12.237,-1.177c5.621,-0.668 10.817,-4.239 13.455,-9.247c2.182,-4.141 2.616,-8.941 3.711,-13.49c1.677,-6.974 4.956,-13.512 6.296,-20.559c1.34,-7.046 0.261,-15.245 -5.281,-19.798c-2.005,-1.647 -4.446,-2.692 -6.482,-4.302c-8.282,-6.555 -7.318,-19.738 -13.813,-28.067c-4.405,-5.648 -11.823,-8.314 -18.984,-8.462c-5.713,-0.118 -11.544,1.248 -16.27,4.459c-7.326,4.978 -8.692,12.671 -10.564,20.714Z" style="fill:#f6f6f6;fill-rule:nonzero;"/><path d="M53.997,51.678c-0.065,1.391 -0.249,3.014 -0.509,4.777c-0.465,3.147 -1.189,6.728 -1.972,10.201c-1.809,7.985 -3.924,15.363 -3.924,15.363c-0.085,4.315 -0.771,9.369 -1.613,14.031c-0.085,0.51 -0.183,1.006 -0.275,1.502c-0.306,1.606 -0.62,3.154 -0.926,4.583c-1.11,5.087 -2.116,8.75 -2.116,8.75l-4.871,-0.921c-0.228,-2.769 -0.319,-5.4 -0.313,-7.874c-0,-1.541 0.039,-3.01 0.104,-4.421c0.033,-0.737 0.078,-1.456 0.124,-2.148c0.575,-8.422 2.032,-13.992 2.044,-15.108c0.039,-5.628 0.365,-10.545 0.822,-14.736c1.254,-11.551 3.488,-17.564 3.488,-17.564c3.146,-7.241 7.872,-6.744 9.434,-1.408c0.4,1.364 0.594,3.034 0.503,4.973Z" style="fill:#f5a784;fill-rule:nonzero;"/><path d="M69.49,103.67c-0.025,2.004 -0.124,4.106 -0.299,6.294l-4.871,0.921c-0,0 -0.862,-3.148 -1.868,-7.666c-0.372,-1.658 -0.757,-3.499 -1.13,-5.439c-0.104,-0.555 -0.209,-1.116 -0.313,-1.684c-0.842,-4.675 -1.541,-9.748 -1.619,-14.077c-0,0 -2.135,-7.43 -3.944,-15.448c-0.777,-3.441 -1.497,-7.001 -1.958,-10.116c-0.262,-1.769 -0.438,-3.393 -0.503,-4.777c-0.091,-1.939 0.107,-3.615 0.509,-4.973c1.578,-5.338 6.287,-5.827 9.435,1.408c-0,0 2.22,5.981 3.467,17.479c0.464,4.204 0.79,9.154 0.836,14.821c0.012,1.109 1.443,6.581 2.03,14.88c0.046,0.692 0.092,1.403 0.124,2.135c0.099,1.952 0.138,4.035 0.104,6.242Z" style="fill:#f5a784;fill-rule:nonzero;"/><path d="M69.262,95.293c-2.566,0.405 -5.367,0.659 -8.253,0.803c-0.842,-4.675 -1.541,-9.748 -1.619,-14.077c-0,0 -2.135,-7.43 -3.944,-15.448c-0.777,-3.441 -1.495,-7.002 -1.958,-10.116c-0.464,3.141 -1.189,6.728 -1.972,10.201c-1.809,7.985 -3.924,15.363 -3.924,15.363c-0.085,4.315 -0.771,9.369 -1.613,14.031c-3.042,-0.137 -5.869,-0.333 -8.273,-0.529c0.575,-8.422 2.032,-13.992 2.044,-15.108c0.039,-5.628 0.365,-10.545 0.822,-14.736c1.254,-11.551 3.488,-17.564 3.488,-17.564c3.146,-7.241 7.867,-6.742 9.434,-1.408c1.195,-4.074 4.231,-5.324 6.999,-2.464c0.863,0.888 1.692,2.161 2.436,3.872c-0,0 0.705,1.893 1.541,5.602c0.652,2.873 1.384,6.849 1.926,11.877c0.464,4.204 0.79,9.154 0.836,14.821c0.012,1.109 1.443,6.581 2.03,14.88Z" style="fill:#ab8da8;fill-rule:nonzero;"/><path d="M64.47,53.715c-2.742,-2.984 -14.75,-3.761 -14.75,-3.761l10.773,-5.713c0.863,0.888 1.692,2.161 2.436,3.872c-0,0 0.705,1.893 1.541,5.602Z" style="fill:#826b80;fill-rule:nonzero;"/><path d="M43.297,115.801c-0.001,0.052 -0.006,0.105 -0.013,0.15c-0.163,2.253 -1.998,1.907 -4.72,1.946c-2.174,0.033 -3.33,-1.208 -3.2,-2.52c0.033,-0.366 0.17,-0.745 0.412,-1.097c0.748,-1.08 1.155,-2.399 1.343,-3.154c0.125,-0.501 0.404,-0.955 0.807,-1.279c1.713,-1.38 3.35,-0.319 4.178,0.441c0.362,0.334 0.613,0.763 0.723,1.243c0.208,0.899 0.502,2.604 0.47,4.27Z" style="fill:#3b2645;fill-rule:nonzero;"/><path d="M68.429,117.897c-2.788,-0.039 -4.689,0.321 -4.734,-2.096c-0.001,-0.072 -0.006,-0.137 -0,-0.209c-0.039,-1.531 0.239,-3.064 0.437,-3.947c0.122,-0.546 0.399,-1.044 0.816,-1.416c0.806,-0.717 2.29,-1.63 3.866,-0.566c0.541,0.366 0.914,0.93 1.078,1.562c0.198,0.767 0.602,2.021 1.318,3.055c0.137,0.196 0.241,0.405 0.314,0.607c0.503,1.476 -0.654,3.049 -3.095,3.01Z" style="fill:#3b2645;fill-rule:nonzero;"/><path d="M58.507,12.948c0.285,-0.309 0.432,-0.711 0.495,-1.095c0.105,-0.632 0.064,-1.304 0.345,-1.879c0.144,-0.296 0.372,-0.558 0.445,-0.879c0.074,-0.322 -0.027,-0.68 -0.261,-0.915c-0.17,-0.172 -0.413,-0.294 -0.491,-0.524c-0.046,-0.138 -0.021,-0.288 -0.03,-0.434c-0.026,-0.44 -0.361,-0.812 -0.752,-1.017c-0.391,-0.205 -0.835,-0.275 -1.268,-0.361c-0.432,-0.085 -0.876,-0.195 -1.226,-0.462c-0.164,-0.123 -0.304,-0.279 -0.484,-0.376c-0.314,-0.169 -0.695,-0.135 -1.046,-0.075c-0.663,0.113 -1.313,0.306 -1.931,0.573c-0.231,0.1 -0.461,0.212 -0.71,0.247c-0.375,0.054 -0.762,-0.07 -1.134,0c-0.569,0.106 -0.959,0.629 -1.235,1.139c-0.08,0.148 -0.161,0.305 -0.3,0.4c-0.152,0.104 -0.346,0.117 -0.521,0.171c-0.47,0.146 -0.793,0.596 -0.923,1.07c-0.138,0.502 -0.084,0.994 -0.032,1.496c0.053,0.494 0.044,0.978 0.166,1.467c1.007,4.028 1.29,2.881 1.29,2.881c1.012,-0.093 2.023,-0.197 3.034,-0.307c1.358,-0.148 2.716,-0.304 4.066,-0.503c0.541,-0.079 1.075,-0.19 1.614,-0.273c0.358,-0.055 0.623,-0.067 0.889,-0.344Z" style="fill:#3b2645;fill-rule:nonzero;"/><path d="M48.652,12.63c-0,0 -0.898,-1.012 -1.731,0.053c-0.834,1.065 0.698,3.007 1.826,3.061c-0,0 0.048,-2.671 -0.095,-3.114Z" style="fill:#e0855c;fill-rule:nonzero;"/><path d="M65.143,24.183c-0.438,1.136 -1.868,4.995 -2.632,8.678c-0.078,0.378 -0.144,0.744 -0.209,1.11c-0.059,0.326 -0.105,0.627 -0.144,0.92c-0.019,0.176 -0.045,0.412 -0.078,0.692c-0.306,2.984 -0.894,11.329 -0.999,12.752c-0.007,0.13 -0.012,0.202 -0.012,0.202c-7.764,2.397 -15.952,0.49 -15.952,0.49c-0,0 -0.013,-0.15 -0.058,-0.437c-0.177,-1.385 -1.862,-16.141 -1.92,-16.735c-0.346,-3.506 -0.601,-6.738 -0.62,-8.749c-0.007,-0.294 0.261,-0.464 0.652,-0.575c0.633,-0.178 1.522,-0.215 2.221,-0.333c1.456,-0.254 3.029,-0.372 3.936,-0.411c0.124,-0.006 0.229,-0.013 0.327,-0.019c0.072,-0.014 0.137,-0.012 0.196,-0.014c0.157,-0.003 0.242,-0.006 0.242,-0.006l0.247,-3.991c0.131,0.027 0.262,0.047 0.393,0.054c0.26,0.039 0.515,0.056 0.763,0.059c0.333,0.003 0.639,-0.014 0.927,-0.046c0.15,-0.017 0.294,-0.033 0.432,-0.059c0.202,-0.033 0.397,-0.065 0.587,-0.111c0.313,-0.078 0.62,-0.17 0.901,-0.281c0.092,-0.026 0.177,-0.052 0.261,-0.098c0.026,-0.006 0.052,-0.013 0.072,-0.026c0.065,-0.026 0.137,-0.059 0.202,-0.085c0.418,-0.183 0.771,-0.385 1.058,-0.568c0.183,-0.117 0.346,-0.228 0.47,-0.32c0.046,-0.039 0.066,-0.051 0.085,-0.065c0.073,-0.051 0.13,-0.091 0.176,-0.137c0.059,-0.046 0.098,-0.078 0.112,-0.092c-0.02,0.144 -0.034,0.203 -0.04,0.268c-0.078,0.653 -0.13,1.502 -0.143,2.338c-0.02,0.574 -0.02,1.142 -0.026,1.638c-0,0.856 0.019,1.476 0.019,1.476c0.156,-0.006 0.307,-0.006 0.457,0.006c0.032,0 0.072,0 0.105,0.007c0.019,-0.013 0.045,-0.013 0.065,-0.007c0.855,0.014 1.678,0.092 2.429,0.209c2.148,0.34 3.611,0.729 4.466,1.078c0.222,0.091 0.383,0.172 0.515,0.248c0.188,0.108 0.588,0.744 0.517,0.94Z" style="fill:#f5a784;fill-rule:nonzero;"/><path d="M56.783,15.973c-0.867,4.601 -5.474,4.429 -6.573,3.857l0.13,-2.073c3.814,0.657 6.443,-1.784 6.443,-1.784Z" style="fill:#e0855c;fill-rule:nonzero;"/><path d="M48.757,9.622c-0.557,0.615 -0.563,1.958 -0.565,3.443c-0.008,4.496 1.38,5.857 3.681,6.034c2.302,0.177 4.675,-0.779 5.041,-4.959c0.184,-2.09 0.388,-4.021 -0.397,-4.898c-1.171,-1.307 -6.052,-1.51 -7.76,0.38Z" style="fill:#f5a784;fill-rule:nonzero;"/><path d="M56.576,13.549c-0,0 0.646,-1.882 1.784,-0.93c1.138,0.952 -0.307,3.809 -2.007,3.652c-0,0 -0.296,-2.069 0.223,-2.722Z" style="fill:#f5a784;fill-rule:nonzero;"/><path d="M57.868,13.481c-0.244,0.05 -0.487,0.289 -0.66,0.46c-0.179,0.179 -0.389,0.401 -0.474,0.644c-0.028,0.077 0.079,0.12 0.129,0.071c0.139,-0.138 0.25,-0.302 0.378,-0.45c0.099,0.1 0.2,0.202 0.333,0.247c0.104,0.034 0.175,-0.095 0.128,-0.178c-0.061,-0.106 -0.17,-0.18 -0.276,-0.248c0.172,-0.141 0.381,-0.254 0.522,-0.417c0.054,-0.062 -0.004,-0.144 -0.08,-0.129Z" style="fill:#e0855c;fill-rule:nonzero;"/><path d="M50.159,12.898c-0,0 -0.383,0.157 -0.345,-0.533c0.034,-0.619 0.312,-0.545 0.312,-0.545c-0,0 0.27,-0.01 0.246,0.532c-0.024,0.542 -0.213,0.546 -0.213,0.546Z" style="fill:#3b2645;fill-rule:nonzero;"/><path d="M54.095,12.777c-0,0 -0.384,0.157 -0.347,-0.532c0.034,-0.62 0.314,-0.545 0.314,-0.545c-0,0 0.269,-0.01 0.245,0.531c-0.025,0.542 -0.212,0.546 -0.212,0.546Z" style="fill:#3b2645;fill-rule:nonzero;"/><path d="M51.98,14.675c-0.199,-0.023 -0.646,0.108 -0.744,-0.102c-0.083,-0.174 0.202,-1.228 0.241,-1.408c0.14,-0.65 0.298,-1.093 0.395,-1.871c0.004,-0.033 -0.054,-0.051 -0.069,-0.016c-0.424,1.042 -0.555,2.32 -0.797,3.42c-0.013,0.06 0.033,0.122 0.098,0.119c0.288,-0.013 0.57,0.039 0.857,0.032c0.097,-0.002 0.119,-0.162 0.019,-0.174Z" style="fill:#e0855c;fill-rule:nonzero;"/><path d="M50.93,10.834c-0.232,-0.06 -0.478,-0.006 -0.717,-0.026c-0.253,-0.021 -0.503,-0.124 -0.757,-0.103c-0.122,0.011 -0.201,0.157 -0.104,0.253c0.333,0.326 1.217,0.437 1.623,0.221c0.144,-0.077 0.108,-0.305 -0.045,-0.345Z" style="fill:#3b2645;fill-rule:nonzero;"/><path d="M55.153,10.298c-0.375,0.159 -0.67,0.338 -1.091,0.362c-0.25,0.015 -0.549,-0.046 -0.751,0.124c-0.032,0.026 -0.04,0.088 -0.016,0.123c0.389,0.571 1.665,-0.095 1.97,-0.497c0.056,-0.074 -0.048,-0.139 -0.112,-0.112Z" style="fill:#3b2645;fill-rule:nonzero;"/><path d="M53.469,15.851c-0.402,-0.098 -0.856,-0.047 -1.268,-0.034c-0.294,0.01 -0.701,-0.048 -0.908,0.19c0.229,0.216 0.618,0.123 0.908,0.118c0.417,-0.008 0.86,0.043 1.268,-0.039c0.12,-0.024 0.114,-0.208 -0,-0.235Z" style="fill:#e0855c;fill-rule:nonzero;"/><path d="M87.714,67.922l-70.154,0c-0.362,0 -0.654,-0.292 -0.654,-0.653c-0,-0.361 0.292,-0.653 0.654,-0.653l70.154,0c0.361,0 0.653,0.292 0.653,0.653c-0,0.361 -0.292,0.653 -0.653,0.653Z" style="fill:#3b2645;fill-rule:nonzero;"/><path d="M19.782,70.624c-0.614,0 -1.111,-0.497 -1.111,-1.111l-0,-4.489c-0,-0.613 0.497,-1.111 1.111,-1.111c0.614,0 1.112,0.498 1.112,1.111l-0,4.489c-0,0.614 -0.498,1.111 -1.112,1.111Z" style="fill:#3b2645;fill-rule:nonzero;"/><path d="M22.005,74.548c-0.614,0 -1.111,-0.497 -1.111,-1.111l-0,-12.336c-0,-0.614 0.497,-1.112 1.111,-1.112c0.613,0 1.111,0.498 1.111,1.112l-0,12.336c-0,0.614 -0.498,1.111 -1.111,1.111Z" style="fill:#291b30;fill-rule:nonzero;"/><path d="M24.228,76.415c-0.614,0 -1.112,-0.498 -1.112,-1.111l-0,-15.699c-0,-0.613 0.498,-1.111 1.112,-1.111c0.614,0 1.111,0.498 1.111,1.111l-0,15.699c-0,0.613 -0.497,1.111 -1.111,1.111Z" style="fill:#3b2645;fill-rule:nonzero;"/><path d="M84.52,70.624c0.613,0 1.111,-0.497 1.111,-1.111l-0,-4.489c-0,-0.613 -0.498,-1.111 -1.111,-1.111c-0.615,0 -1.113,0.498 -1.113,1.111l-0,4.489c-0,0.614 0.498,1.111 1.113,1.111Z" style="fill:#3b2645;fill-rule:nonzero;"/><path d="M82.296,74.548c0.614,0 1.111,-0.497 1.111,-1.111l-0,-12.336c-0,-0.614 -0.497,-1.112 -1.111,-1.112c-0.613,0 -1.111,0.498 -1.111,1.112l-0,12.336c-0,0.614 0.498,1.111 1.111,1.111Z" style="fill:#291b30;fill-rule:nonzero;"/><path d="M80.073,76.415c0.615,0 1.112,-0.498 1.112,-1.111l-0,-15.699c-0,-0.613 -0.497,-1.111 -1.112,-1.111c-0.613,0 -1.111,0.498 -1.111,1.111l-0,15.699c-0,0.613 0.498,1.111 1.111,1.111Z" style="fill:#3b2645;fill-rule:nonzero;"/><path d="M46.821,30.66c-0.346,1.443 -1.032,2.782 -1.691,4.107c-0.294,0.601 -1.462,3.141 -1.508,3.239c-1.822,4.015 -4.394,9.885 -4.584,10.584c-0.607,2.259 -1.828,15.356 -1.841,15.369c-1.247,1.881 -3.63,0.973 -3.63,0.973c-0,0 -0.045,-0.398 -0.105,-1.077c-0.273,-2.912 -0.914,-11.1 -0.169,-15.931c0.209,-1.345 1.025,-4.591 1.997,-8.266c0.797,-3.043 1.15,-5.844 2.103,-8.769c0.712,-2.201 1.757,-4.479 3.565,-6.974c0.346,-0.482 1.599,-1.324 2.213,-1.384c0.372,-0.036 0.529,0.477 0.843,0.614c0.875,0.392 1.606,1.09 2.03,1.953c0.829,1.677 1.208,3.721 0.777,5.562Z" style="fill:#f5a784;fill-rule:nonzero;"/><path d="M33.33,66.354c0.041,-0.447 0.09,-0.896 0.104,-1.33c0.022,-0.691 0.011,-1.145 0.011,-1.145c0.59,-0.853 2.461,-1.058 3.283,-0.522c0.251,0.164 0.448,0.395 0.665,0.601c0.395,0.378 0.861,0.681 1.232,1.083c0.372,0.402 0.649,0.948 0.545,1.485c-0.484,0.092 -0.918,0.23 -1.235,0.621c-0.373,0.459 -0.217,0.882 -0.391,1.39c-0.138,0.405 -0.62,0.564 -1.044,0.626c-1.277,0.183 -3.113,0.251 -3.217,-1.405c-0.028,-0.455 0.005,-0.929 0.047,-1.404Z" style="fill:#f5a784;fill-rule:nonzero;"/><path d="M73.356,63.855c-0.059,0.679 -0.104,1.077 -0.104,1.077c-0,0 -2.384,0.908 -3.638,-0.973c-0.005,-0.013 -1.227,-13.11 -1.834,-15.369c-0.098,-0.379 -0.881,-2.227 -1.861,-4.473c-1.025,-2.35 -4.126,-9.135 -4.23,-9.35c-0.66,-1.325 -1.352,-2.664 -1.692,-4.107c-0.43,-1.841 -0.051,-3.885 0.778,-5.562c0.423,-0.863 1.155,-1.561 2.03,-1.953c0.307,-0.137 0.646,-0.235 0.986,-0.209c0.111,0.007 0.215,0.027 0.32,0.059c0.195,0.06 0.359,0.144 0.515,0.248c0.248,0.157 0.477,0.366 0.686,0.575c1.848,1.854 3.016,4.204 3.865,6.718c1.019,2.997 1.594,6.229 2.351,9.122c0.973,3.675 1.783,6.921 1.992,8.266c0.75,4.831 0.104,13.019 -0.164,15.931Z" style="fill:#f5a784;fill-rule:nonzero;"/><path d="M73.448,66.357c-0.033,-0.494 -0.053,-0.953 -0.066,-1.332c-0.022,-0.692 -0.01,-1.146 -0.01,-1.146c-0.591,-0.853 -2.463,-1.058 -3.283,-0.522c-0.251,0.164 -0.449,0.395 -0.665,0.601c-0.396,0.378 -0.861,0.681 -1.233,1.083c-0.371,0.402 -0.649,0.948 -0.544,1.485c0.007,0.038 1.152,0.297 1.31,0.457c0.377,0.379 0.093,0.716 0.089,1.153c-0.005,0.614 0.426,0.822 0.961,0.925c0.375,0.072 0.75,0.144 1.128,0.201c0.598,0.09 1.244,0.136 1.772,-0.157c0.082,-0.045 0.163,-0.101 0.217,-0.178c0.05,-0.07 0.075,-0.153 0.099,-0.236c0.223,-0.794 0.281,-1.525 0.225,-2.334Z" style="fill:#f5a784;fill-rule:nonzero;"/><path d="M62.511,32.861l0.555,15.65c-9.233,3.604 -19.222,0.242 -19.222,0.242l-0.222,-15.005c-0.098,-0.025 -0.202,-0.054 -0.301,-0.084c-0.447,-0.14 -0.926,-0.294 -1.416,-0.49c-0.288,-0.111 -0.575,-0.229 -0.862,-0.359c-1.254,-0.562 -2.52,-1.254 -3.65,-1.926c0.712,-2.201 1.757,-4.479 3.565,-6.974c0.346,-0.482 1.6,-1.318 2.213,-1.384c0.634,-0.176 1.522,-0.215 2.221,-0.333c1.456,-0.254 3.029,-0.372 3.936,-0.411l3.637,8.991c-0,0 2.742,-5.171 4.081,-9.07c0.032,0 0.072,0 0.105,0.007c0.019,-0.013 0.045,-0.013 0.065,-0.007c0.855,0.014 1.678,0.092 2.429,0.209c2.148,0.34 3.61,0.732 4.466,1.078c0.196,0.059 0.359,0.144 0.515,0.248c0.248,0.157 0.477,0.366 0.686,0.575c1.848,1.854 3.016,4.204 3.865,6.718c-1.168,0.549 -2.514,1.045 -3.682,1.43c-1.665,0.555 -2.984,0.895 -2.984,0.895Z" style="fill:#3b2645;fill-rule:nonzero;"/><path d="M43.622,28.578l-0,5.17c-0.098,-0.025 -0.202,-0.054 -0.301,-0.084c-0.447,-0.14 -0.926,-0.294 -1.416,-0.49c0.979,-2.207 1.717,-4.596 1.717,-4.596Z" style="fill:#27192e;fill-rule:nonzero;"/><path d="M41.072,112.345c-0.788,-0.438 -2.271,-0.777 -3.049,-0.168c-0.05,0.039 -0.055,0.111 -0.044,0.166c0.003,0.019 0.007,0.038 0.01,0.057c0.014,0.077 0.109,0.102 0.169,0.069c0.034,-0.015 0.045,-0.008 0.072,-0.024c0.175,-0.106 0.369,-0.161 0.574,-0.176c0.257,-0.024 0.517,0.025 0.767,0.074c0.48,0.094 0.944,0.259 1.435,0.244c0.126,-0.004 0.183,-0.178 0.066,-0.242Z" style="fill:#27192e;fill-rule:nonzero;"/><path d="M41.58,113.76c-0.385,-0.432 -1.069,-0.503 -1.619,-0.565c-0.52,-0.059 -1.255,-0.15 -1.696,0.179c-0.078,0.058 -0.113,0.206 -0,0.255c0.443,0.197 0.951,0.095 1.43,0.149c0.575,0.064 1.184,0.362 1.756,0.291c0.156,-0.019 0.241,-0.183 0.129,-0.309Z" style="fill:#27192e;fill-rule:nonzero;"/><path d="M68.496,111.811c-0.783,-0.644 -2.774,-0.445 -3.406,0.36c-0.1,0.127 -0.055,0.379 0.149,0.361c0.515,-0.046 0.98,-0.299 1.502,-0.354c0.534,-0.056 1.05,0.14 1.57,0.082c0.198,-0.023 0.382,-0.288 0.185,-0.449Z" style="fill:#27192e;fill-rule:nonzero;"/><path d="M68.922,113.124c-0.623,-0.24 -1.394,-0.127 -2.053,-0.11c-0.472,0.013 -0.992,0.006 -1.316,0.4c-0.145,0.176 -0.016,0.513 0.246,0.422c0.999,-0.348 2.127,0.177 3.123,-0.191c0.259,-0.095 0.254,-0.424 -0,-0.521Z" style="fill:#27192e;fill-rule:nonzero;"/><path d="M25.889,100.576c-0.01,0.044 -0.021,0.088 -0.033,0.128c-0.112,0.204 -0.252,0.358 -0.423,0.462c-0.557,0.346 -1.418,0.218 -2.501,-0.117c-1.429,-0.439 -2.257,-0.446 -4.168,0.178c-0.945,0.308 -1.485,0.177 -1.79,-0.031c-0.175,-0.12 -0.272,-0.264 -0.325,-0.368c-0.047,-0.121 -0.084,-0.259 -0.112,-0.41c-0.053,-0.301 -0.063,-0.667 -0.04,-1.099c0.171,-2.994 4.732,-2.683 4.732,-2.683c-0,0 4.562,-0.311 4.734,2.683c0.03,0.51 0.006,0.925 -0.074,1.257Zm2.994,4.047c-0.04,-0.074 -0.061,-0.11 -0.08,-0.144c-0.185,-0.365 -0.584,-1.448 -0.218,-3.434c0.043,-0.234 0.094,-0.479 0.16,-0.74c0.306,-1.207 0.721,-6.079 -7.516,-6.163c-8.236,0.084 -7.824,4.956 -7.515,6.163c0.081,0.315 0.142,0.61 0.189,0.888c0.318,1.894 -0.065,2.933 -0.249,3.286c-0.019,0.037 -0.041,0.074 -0.06,0.111c-0.701,1.279 -1.097,2.709 -1.097,4.231c-0,4.825 3.909,8.735 8.732,8.735c4.824,0 8.73,-3.91 8.73,-8.735c-0,-1.522 -0.393,-2.949 -1.076,-4.198Z" style="fill:#ab8da8;fill-rule:nonzero;"/><path d="M28.745,100.305c-0.066,0.261 -0.117,0.506 -0.16,0.74c-1.056,0.024 -2.018,-0.224 -2.696,-0.469c0.08,-0.332 0.104,-0.747 0.074,-1.257c-0.172,-2.994 -4.734,-2.683 -4.734,-2.683c-0,0 -4.561,-0.311 -4.732,2.683c-0.023,0.432 -0.013,0.798 0.04,1.099c-0.918,0.396 -1.857,0.634 -2.634,0.775c-0.047,-0.278 -0.108,-0.573 -0.189,-0.888c-0.309,-1.207 -0.721,-6.079 7.515,-6.163c8.237,0.084 7.822,4.956 7.516,6.163Z" style="fill:#826b80;fill-rule:nonzero;"/><path d="M18.254,108.823c-0,-1.643 1.331,-2.975 2.975,-2.975c1.642,0 2.973,1.332 2.973,2.975c-0,1.642 -1.331,2.974 -2.973,2.974c-1.644,0 -2.975,-1.332 -2.975,-2.974Z" style="fill:#826b80;fill-rule:nonzero;"/><path d="M16.381,104.394c-1.262,0.794 -1.521,2.882 -1.354,4.222c0.027,0.22 0.375,0.321 0.427,0.058c0.149,-0.753 0.122,-1.524 0.311,-2.271c0.168,-0.668 0.509,-1.193 0.848,-1.778c0.083,-0.143 -0.085,-0.322 -0.232,-0.231Z" style="fill:#e8cee5;fill-rule:nonzero;"/><path d="M27.372,111.255c-0.015,-0.158 -0.24,-0.258 -0.327,-0.089c-0.293,0.574 -0.443,1.153 -0.875,1.657c-0.311,0.363 -0.85,0.674 -0.891,1.176c-0.004,0.041 0.038,0.08 0.077,0.078c0.532,-0.027 1.061,-0.703 1.371,-1.1c0.366,-0.469 0.705,-1.111 0.645,-1.722Z" style="fill:#e8cee5;fill-rule:nonzero;"/><path d="M34.411,15.26c-3.374,0.622 -6.871,0.099 -10.152,1.361c-0.219,0.084 -0.212,0.457 0.06,0.441c1.988,-0.113 3.95,-0.514 5.941,-0.632c1.439,-0.086 3.134,0.218 4.436,-0.494c0.388,-0.212 0.109,-0.749 -0.285,-0.676Z" style="fill:#e8cee5;fill-rule:nonzero;"/><path d="M35.633,10.566c-1.641,-0.821 -3.347,-1.595 -5.078,-2.204c-0.3,-0.105 -0.476,0.348 -0.212,0.504c1.55,0.919 3.209,1.714 4.862,2.431c0.489,0.211 0.924,-0.483 0.428,-0.731Z" style="fill:#e8cee5;fill-rule:nonzero;"/></g></svg>