<?xml version="1.0" encoding="UTF-8" standalone="no"?><!DOCTYPE svg PUBLIC "-//W3C//DTD SVG 1.1//EN" "http://www.w3.org/Graphics/SVG/1.1/DTD/svg11.dtd"><svg width="100%" height="100%" viewBox="0 0 157 134" version="1.1" xmlns="http://www.w3.org/2000/svg" xmlns:xlink="http://www.w3.org/1999/xlink" xml:space="preserve" xmlns:serif="http://www.serif.com/" style="fill-rule:evenodd;clip-rule:evenodd;stroke-linejoin:round;stroke-miterlimit:2;"><g><path d="M155.378,6.712c-0.614,0 -1.11,-0.498 -1.11,-1.112l-0,-4.489c-0,-0.614 0.496,-1.111 1.11,-1.111c0.614,0 1.112,0.497 1.112,1.111l-0,4.489c-0,0.614 -0.498,1.112 -1.112,1.112Z" style="fill:#3b2645;fill-rule:nonzero;"/><path d="M139.391,131.533c-1.071,-0.118 -2.14,-0.203 -3.224,-0.255c-0.302,-0.012 -9.425,0.062 -11.438,0.008c-0.041,-0.001 -0.08,-0.006 -0.12,-0.008c-0.302,-0.012 -76.32,-0.045 -76.32,-0.045c-0.066,0.006 -0.131,0.006 -0.196,0.012c-0.028,0.003 -0.056,0.005 -0.084,0.008c-3.407,-0.005 -11.278,-0.02 -11.278,-0.02c-0.066,0.006 -0.131,0.006 -0.197,0.012c-0.08,0.006 -0.161,0.015 -0.243,0.022c-1.63,-0 -22.232,-0.034 -22.232,-0.034c-0.066,0.006 -0.13,0.006 -0.196,0.012c-0.027,0.003 -0.055,0.006 -0.084,0.008c-3.407,-0.005 -11.278,-0.02 -11.278,-0.02c-0.065,0.006 -0.13,0.006 -0.196,0.012c-0.47,0.033 -0.94,0.073 -1.404,0.125c-1.201,0.124 -1.201,1.737 0,1.861c0.471,0.051 0.934,0.091 1.404,0.13c0.059,0.006 0.124,0.006 0.183,0.013c-0,0 7.663,-0.015 11.286,-0.021c0.03,0.003 0.059,0.006 0.089,0.008c0.059,0.006 0.123,0.006 0.183,0.013c-0,0 14.962,-0.03 22.234,-0.037c0.085,0.009 0.17,0.017 0.254,0.024c0.06,0.006 0.124,0.006 0.184,0.013c-0,0 7.662,-0.015 11.285,-0.021c0.031,0.003 0.06,0.006 0.09,0.008c0.058,0.006 0.124,0.006 0.183,0.013c-0,0 76.031,-0.039 76.339,-0.052c0.041,-0.002 0.08,-0.006 0.121,-0.007c2.012,-0.054 11.129,0.02 11.437,0.007c1.084,-0.052 2.155,-0.137 3.218,-0.254c0.98,-0.112 0.987,-1.424 0,-1.535Z" style="fill:#c6c6c6;fill-rule:nonzero;"/><path d="M94.158,19.008c5.21,2.607 5.418,9.93 8.706,14.739c6.137,8.977 20.751,6.832 28.693,14.26c4.194,3.923 5.814,10.163 4.784,15.812c-1.028,5.65 -4.465,10.684 -8.883,14.354c-2.918,2.424 -6.671,5.141 -6.216,8.907c0.162,1.343 0.871,2.545 1.369,3.802c2.237,5.633 0.01,12.311 -4.181,16.688c-4.19,4.378 -10.001,6.823 -15.817,8.527c-5.108,1.497 -10.358,2.515 -15.656,3.038c-2.918,0.287 -5.917,0.439 -8.615,1.586c-2.702,1.147 -4.91,3.213 -7.506,4.582c-6.204,3.271 -13.706,2.205 -20.62,1.017c-8.898,-1.528 -17.801,-3.122 -26.509,-5.51c-3.261,-0.896 -6.59,-1.952 -9.183,-4.123c-2.594,-2.17 -4.305,-5.724 -3.38,-8.977c0.777,-2.736 3.146,-4.651 5.082,-6.735c1.936,-2.083 3.602,-5.014 2.556,-7.658c-1.23,-3.11 -5.227,-3.78 -8.087,-5.51c-3.053,-1.846 -4.978,-5.181 -5.836,-8.645c-0.855,-3.463 -0.759,-7.084 -0.559,-10.646c0.179,-3.157 0.457,-6.395 1.834,-9.242c2.628,-5.433 8.778,-8.348 14.754,-9.186c4.84,-0.68 7.288,-0.857 9.908,-5.739c3.181,-5.929 5.262,-12.493 9.289,-17.884c4.028,-5.391 10.876,-9.514 17.349,-7.677c4.075,1.155 7.234,4.426 11.197,5.924c4.516,1.708 8.186,0.892 11.673,-1.96c3.678,-3.006 8.976,-6.184 13.854,-3.744Z" style="fill:#f6f6f6;fill-rule:nonzero;"/><path d="M69.46,98.03c14.235,3.005 31.98,4.754 31.98,4.754c-0.416,1.775 -0.066,5.2 0.586,8.972c1.313,7.567 3.838,16.563 3.838,16.563c2.606,0.742 4.542,-0.765 4.542,-0.765c-0.371,-7.736 1.702,-28.853 -2.259,-31.297c-6.604,-4.076 -30.468,-10.75 -34.48,-11.034c-2.766,-0.19 -5.466,0.261 -6.666,2.33c-0.503,0.872 -0.746,2.042 -0.607,3.569c0.017,0.19 0.039,0.377 0.069,0.562c0.817,5.078 -3.55,4.965 2.997,6.346Z" style="fill:#f5a784;fill-rule:nonzero;"/><path d="M72.822,49.838c-0.116,0.32 -0.338,0.568 -0.468,0.868c-0.158,0.372 -0.138,0.816 -0.295,1.201c-0.046,0.105 -0.392,0.862 -0.516,0.412c-0.085,-0.006 -0.17,-0.013 -0.248,-0.02c-2.129,-0.137 -4.256,-0.294 -6.372,-0.516c-0.602,-0.065 -1.202,-0.091 -1.796,-0.182c-0.522,-0.085 -0.744,-0.19 -0.999,-0.562c-0.046,-0.058 -0.083,-0.125 -0.123,-0.196c-0.518,-0.899 -0.726,-1.959 -0.713,-2.984c0.007,-0.411 0.04,-0.822 0.164,-1.214c0.124,-0.418 0.346,-0.803 0.608,-1.156c0.79,-1.057 1.932,-1.815 3.166,-2.285c-0.065,-0.34 -0.64,-0.549 -0.849,-0.829c-0.248,-0.346 -0.398,-0.77 -0.366,-1.202c0.026,-0.313 0.137,-0.606 0.293,-0.881c0.439,-0.764 1.248,-1.319 2.13,-1.404c0.782,-0.071 1.587,0.242 2.109,0.816c0.064,0.072 0.13,0.151 0.188,0.236c0.503,0.731 0.542,1.756 0.072,2.5c-0.13,0.209 -0.299,0.483 -0.149,0.679c0.064,0.085 0.17,0.124 0.267,0.157c0.817,0.287 1.626,0.614 2.311,1.136c0.909,0.686 1.554,1.717 1.784,2.834c0.175,0.855 0.103,1.762 -0.198,2.592Z" style="fill:#3b2645;fill-rule:nonzero;"/><path d="M71.739,50.565c0,0 0.867,-1.039 1.732,0c0.867,1.039 -0.605,3.027 -1.732,3.115c0,0 -0.13,-2.668 0,-3.115Z" style="fill:#e0855c;fill-rule:nonzero;"/><path d="M77.844,69.615c-0.019,0.307 -0.04,0.62 -0.066,0.927c-0.436,6.223 -1.076,13.045 -1.306,15.422c-0.012,0.17 -0.085,0.875 -0.085,0.875c0,0 -1.409,0.373 -3.623,0.653c-3.1,0.393 -7.763,0.601 -12.334,-0.653c0,0 -0.006,-0.073 -0.019,-0.203c-0.158,-1.548 -1.155,-11.366 -1.488,-13.404c-0.047,-0.293 -0.106,-0.594 -0.171,-0.901c-0.106,-0.522 -0.222,-1.038 -0.351,-1.554c-0.889,-3.519 -2.333,-7.078 -2.79,-8.155c-0.077,-0.196 -0.005,-0.418 0.178,-0.529c0.64,-0.398 2.357,-1.273 4.752,-1.808c0.164,-0.033 0.327,-0.066 0.497,-0.098c0.476,-0.085 0.979,-0.163 1.502,-0.209c0.3,-0.033 0.607,-0.059 0.92,-0.072c0.02,-0.006 0.046,-0.006 0.066,0c0.182,-0.02 0.372,-0.026 0.562,-0.026c-0,0 -0,-0.621 -0.027,-1.476c-0.02,-0.496 -0.039,-1.064 -0.078,-1.639c-0.04,-0.835 -0.135,-1.676 -0.216,-2.331c-0.008,-0.065 -0.019,-0.124 -0.033,-0.182c0,-0.072 0.04,-0.039 0.105,0.006c0.046,0.039 0.104,0.08 0.176,0.131c0.02,0.013 0.039,0.026 0.059,0.045c0.157,0.105 0.32,0.209 0.509,0.321c0.294,0.176 0.652,0.365 1.078,0.535c0.064,0.026 0.137,0.052 0.201,0.078c0.021,0.013 0.047,0.02 0.072,0.026c0.086,0.039 0.172,0.063 0.261,0.091c0.29,0.091 0.595,0.184 0.914,0.249c0.191,0.039 0.387,0.071 0.588,0.098c0.137,0.019 0.282,0.032 0.431,0.045c0.295,0.026 0.602,0.027 0.914,0.013c0.269,-0.011 0.516,-0.032 0.772,-0.078c0.137,-0.013 0.266,-0.042 0.396,-0.068l0.27,2.817c-0,0.013 0.103,1.162 0.103,1.162l0.243,0c0.058,0 0.124,0 0.196,0.007c0.378,0.006 0.978,0.019 1.677,0.058c0.607,0.033 1.293,0.085 1.979,0.164c0.203,0.026 0.411,0.052 0.613,0.078c1.181,0.163 2.892,0.085 2.905,0.823c0.039,2.01 -0.116,5.249 -0.352,8.762Z" style="fill:#f5a784;fill-rule:nonzero;"/><path d="M63.715,54.155c1.006,4.573 5.607,4.259 6.687,3.654l-0.192,-2.065c-3.791,0.773 -6.495,-1.589 -6.495,-1.589Z" style="fill:#e0855c;fill-rule:nonzero;"/><path d="M71.542,47.561c0.576,0.598 0.623,1.941 0.672,3.425c0.145,4.493 -1.202,5.896 -3.496,6.144c-2.295,0.247 -4.696,-0.636 -5.191,-4.803c-0.248,-2.083 -0.511,-4.008 0.248,-4.907c1.129,-1.342 6.001,-1.695 7.767,0.141Z" style="fill:#f5a784;fill-rule:nonzero;"/><path d="M63.846,51.726c0,-0 -0.701,-1.861 -1.81,-0.874c-1.108,0.986 0.423,3.797 2.118,3.589c0,0 0.233,-2.078 -0.308,-2.715Z" style="fill:#f5a784;fill-rule:nonzero;"/><path d="M62.554,51.698c0.245,0.043 0.496,0.274 0.674,0.44c0.185,0.173 0.402,0.389 0.493,0.629c0.029,0.075 -0.075,0.122 -0.126,0.074c-0.143,-0.133 -0.259,-0.294 -0.393,-0.438c-0.095,0.103 -0.192,0.208 -0.326,0.257c-0.101,0.037 -0.177,-0.089 -0.132,-0.173c0.058,-0.108 0.164,-0.186 0.268,-0.257c-0.176,-0.136 -0.389,-0.242 -0.534,-0.401c-0.056,-0.06 -0,-0.144 0.076,-0.131Z" style="fill:#e0855c;fill-rule:nonzero;"/><path d="M68.477,52.711c0.196,-0.03 0.647,0.088 0.74,-0.124c0.077,-0.178 -0.239,-1.222 -0.285,-1.401c-0.16,-0.646 -0.33,-1.083 -0.452,-1.857c-0.006,-0.034 0.053,-0.053 0.069,-0.019c0.456,1.028 0.625,2.301 0.901,3.394c0.015,0.06 -0.03,0.123 -0.093,0.122c-0.289,-0.004 -0.569,0.056 -0.858,0.058c-0.096,0.001 -0.124,-0.158 -0.022,-0.173Z" style="fill:#e0855c;fill-rule:nonzero;"/><path d="M69.815,48.79c0.278,-0.141 0.797,-0.179 1.001,0.111c0.037,0.052 -0.012,0.132 -0.074,0.128c-0.138,-0.006 -0.26,-0.074 -0.399,-0.085c-0.15,-0.013 -0.293,0.022 -0.435,0.067c-0.13,0.04 -0.215,-0.158 -0.093,-0.221Z" style="fill:#3b2645;fill-rule:nonzero;"/><path d="M65.721,49.13c0.16,-0.395 0.848,-0.433 1.142,-0.188c0.067,0.056 0.025,0.162 -0.047,0.185c-0.172,0.053 -0.355,-0.012 -0.532,0.004c-0.157,0.015 -0.282,0.083 -0.426,0.135c-0.075,0.026 -0.167,-0.059 -0.137,-0.136Z" style="fill:#3b2645;fill-rule:nonzero;"/><path d="M67.137,50.366c-0.299,-0.127 -0.653,-0.134 -0.974,-0.107c-0.275,0.024 -0.632,0.056 -0.818,0.277c-0.017,0.02 -0.014,0.063 0.018,0.068c0.264,0.042 0.534,-0.079 0.8,-0.1c0.315,-0.025 0.61,0.043 0.92,0.062c0.101,0.005 0.152,-0.158 0.054,-0.2Z" style="fill:#3b2645;fill-rule:nonzero;"/><path d="M70.554,50.081c-0.305,0 -0.616,0.091 -0.851,0.288c-0.137,0.115 0.038,0.299 0.179,0.232c0.241,-0.112 0.449,-0.199 0.723,-0.182c0.212,0.014 0.401,0.146 0.609,0.128c0.088,-0.009 0.136,-0.089 0.098,-0.169c-0.124,-0.252 -0.503,-0.296 -0.758,-0.297Z" style="fill:#3b2645;fill-rule:nonzero;"/><path d="M69.662,53.967c-0.443,0.092 -0.828,0.23 -1.289,0.157c-0.422,-0.068 -0.717,-0.323 -1.098,-0.465c-0.076,-0.028 -0.13,0.066 -0.099,0.128c0.41,0.788 1.966,0.902 2.602,0.381c0.1,-0.083 -0.011,-0.223 -0.116,-0.201Z" style="fill:#e0855c;fill-rule:nonzero;"/><path d="M126.637,59.403c-2.916,-0.393 -10.761,0.079 -10.929,0.209c-2.087,0.437 -13.846,2.876 -16.153,2.965c-1.919,0.067 -9.708,-0.769 -15.244,-1.384c-1.129,-0.13 -2.162,-0.245 -3.037,-0.347c-0.487,-0.051 -5.358,-0.797 -5.358,-0.797c-3.161,-0.351 -1.878,1.393 -2.159,3.691c-0.056,0.448 -0.015,0.936 0.13,1.471c0.26,0.928 0.957,1.664 1.823,2.076c1.006,0.468 4.239,0.862 8.078,1.142c0.465,0.041 0.942,0.068 1.426,0.1c6.182,0.397 13.374,0.511 15.493,0.195c5.208,-0.768 13.391,-4.012 16.371,-5.243c0.031,-0.005 0.059,-0.005 0.091,-0.016c2.498,-0.847 4.873,-0.354 7.426,-0.635c0.106,-0.011 0.231,-0.039 0.268,-0.138c0.021,-0.051 0.011,-0.109 -0.007,-0.162c-0.219,-0.62 -1.176,-0.324 -1.575,-0.682c0.336,-0.295 0.933,-0.351 1.345,-0.555c0.769,-0.379 1.465,-0.917 2.178,-1.39c0.091,-0.061 0.194,-0.14 0.194,-0.251c-0,-0.16 -0.202,-0.227 -0.361,-0.249Z" style="fill:#f5a784;fill-rule:nonzero;"/><path d="M10.984,59.403c2.917,-0.393 10.763,0.079 10.931,0.209c2.088,0.437 13.846,2.876 16.153,2.965c1.918,0.067 9.708,-0.769 15.245,-1.384c1.128,-0.13 2.161,-0.245 3.036,-0.347c0.487,-0.051 5.358,-0.797 5.358,-0.797c3.162,-0.351 1.878,1.393 2.159,3.691c0.056,0.448 0.015,0.936 -0.131,1.471c-0.26,0.928 -0.957,1.664 -1.823,2.076c-1.006,0.468 -4.239,0.862 -8.077,1.142c-0.465,0.041 -0.943,0.068 -1.426,0.1c-6.181,0.397 -13.373,0.511 -15.493,0.195c-5.208,-0.768 -13.391,-4.012 -16.371,-5.243c-0.03,-0.005 -0.061,-0.005 -0.09,-0.016c-2.499,-0.847 -4.873,-0.354 -7.427,-0.635c-0.105,-0.011 -0.23,-0.039 -0.269,-0.138c-0.02,-0.051 -0.011,-0.109 0.008,-0.162c0.217,-0.62 1.176,-0.324 1.576,-0.682c-0.338,-0.295 -0.934,-0.351 -1.346,-0.555c-0.77,-0.379 -1.466,-0.917 -2.178,-1.39c-0.092,-0.061 -0.194,-0.14 -0.194,-0.251c0.001,-0.16 0.201,-0.227 0.359,-0.249Z" style="fill:#f5a784;fill-rule:nonzero;"/><path d="M73.112,86.343c0.046,0.203 -4.642,22.86 -17.533,29.362c-8.404,4.238 -17.677,7.008 -26.917,8.727c-0.38,0.071 -0.763,0.141 -1.144,0.2c-0.046,1.029 0.084,2.338 0.562,3.251c0.384,0.732 0.825,1.485 1.638,1.785c0.148,0.055 0.308,0.097 0.431,0.197c0.335,0.279 0.196,0.867 -0.156,1.124c-0.35,0.258 -0.817,0.28 -1.253,0.289c-1.474,0.035 -3.143,0.161 -3.845,-1.305c-0.434,-0.909 -0.78,-1.881 -1.093,-2.837c-0.495,-1.512 -1.992,-5.589 0.047,-6.127c6.835,-1.803 24.11,-10.889 27.006,-12.535c2.615,-1.488 5.272,-17.069 9.556,-21.838c4.282,-4.77 11.953,-3.65 12.701,-0.293Z" style="fill:#f5a784;fill-rule:nonzero;"/><path d="M105.474,126.891c0.055,0.466 0.094,0.935 0.119,1.403c0.06,1.122 -0.801,2.456 0.34,3.276c0.609,0.438 1.44,0.373 2.147,0.415c1.55,0.092 3.102,0.032 4.653,-0.017c1.016,-0.032 2.031,-0.077 3.046,-0.131c0.845,-0.044 2.168,0.104 2.885,-0.341c0.091,-0.055 0.181,-0.13 0.205,-0.233c0.022,-0.091 -0.013,-0.186 -0.06,-0.266c-0.185,-0.314 -0.547,-0.471 -0.892,-0.592c-1.552,-0.541 -3.212,-0.729 -4.752,-1.303c-1.181,-0.441 -2.347,-1.174 -3.018,-2.27c-0.478,-0.783 -0.521,-1.661 -1.45,-2.075c-1.477,-0.659 -3.426,0.39 -3.223,2.134Z" style="fill:#f5a784;fill-rule:nonzero;"/><path d="M77.778,70.542c-0.436,6.223 -1.076,13.045 -1.306,15.422c-0.952,0.418 -2.233,0.96 -3.708,1.528c-3.101,0.392 -7.763,0.601 -12.334,-0.653c0,0 -0.006,-0.073 -0.019,-0.203c-0.158,-1.548 -1.155,-11.366 -1.488,-13.404c-0.047,-0.293 -0.106,-0.594 -0.171,-0.901c-0.106,-0.522 -0.222,-1.038 -0.351,-1.554c0.985,-1.391 2.467,-4.505 2.14,-10.492c0.164,-0.033 0.327,-0.066 0.497,-0.098c0.476,-0.085 0.979,-0.163 1.502,-0.209c0.274,2.344 1.371,8.586 5.209,8.494c4.388,-0.104 4.911,-5.537 4.95,-8.684c0.607,0.033 1.293,0.085 1.979,0.164c0.005,2.304 0.274,8.67 3.1,10.59Z" style="fill:#e8cee5;fill-rule:nonzero;"/><path d="M110.432,120.628c-2.605,1.665 -6.477,0.28 -6.477,0.28c-3.33,-6.163 -3.592,-17.374 -3.592,-17.374c0,0 -19.085,-1.417 -26.639,-1.417c-1.639,0 -2.879,0.333 -3.905,0.921c-3.709,2.129 -4.602,7.573 -11.131,12.666c-8.331,6.504 -23.838,7.411 -23.838,7.411c-2.254,-1.672 -2.123,-5.556 -2.123,-5.556c0,0 2.351,-2.873 6.751,-5.367c0.804,-0.463 1.685,-0.908 2.625,-1.319c5.896,-2.585 8.736,-4.779 8.912,-4.917c2.926,-9.924 9.325,-20.012 9.325,-20.012c9.231,2.162 16.204,-0.763 16.204,-0.763c4.03,-0 29.409,8.187 32.739,10.851c3.336,2.67 3.754,22.924 1.149,24.596Z" style="fill:#ab8da8;fill-rule:nonzero;"/><path d="M100.363,103.534c0,0 -19.085,-1.417 -26.639,-1.417c-1.639,0 -2.879,0.333 -3.905,0.921c0.034,-0.202 0.849,-4.44 8.385,-4.224c7.716,0.221 22.159,4.72 22.159,4.72Z" style="fill:#826b80;fill-rule:nonzero;"/><path d="M41.775,115.823c-0.6,-0.207 -1.338,-0.005 -1.967,0.011c-0.559,0.016 -1.226,-0.113 -1.706,0.21c-0.084,0.056 -0.121,0.189 -0.034,0.264c0.451,0.392 1.167,0.325 1.74,0.324c0.655,-0.001 1.465,0.088 2.038,-0.258c0.232,-0.14 0.17,-0.467 -0.071,-0.551Z" style="fill:#e8cee5;fill-rule:nonzero;"/><path d="M51.163,113.106c-0.65,-0.086 -1.172,0.909 -1.479,1.381c-0.431,0.667 -0.774,1.407 -0.87,2.198c-0.038,0.307 0.434,0.409 0.57,0.155c0.344,-0.646 0.612,-1.32 1.016,-1.935c0.294,-0.447 1.07,-0.989 1.002,-1.56c-0.016,-0.143 -0.097,-0.221 -0.239,-0.239Z" style="fill:#e8cee5;fill-rule:nonzero;"/><path d="M55.915,105.556c-0.54,-0.158 -1.045,0.23 -1.528,0.452c-0.635,0.291 -1.247,0.599 -1.813,1.01c-0.24,0.175 -0.104,0.559 0.206,0.49c0.637,-0.143 1.231,-0.379 1.828,-0.64c0.498,-0.217 1.235,-0.373 1.477,-0.891c0.079,-0.168 0.019,-0.366 -0.17,-0.421Z" style="fill:#e8cee5;fill-rule:nonzero;"/><path d="M62.922,102.553c-0.372,0.495 -0.621,1.088 -0.895,1.64c-0.252,0.517 -0.526,1.028 -0.724,1.567c-0.153,0.416 0.499,0.679 0.709,0.299c0.276,-0.502 0.48,-1.047 0.702,-1.576c0.238,-0.568 0.52,-1.139 0.65,-1.743c0.061,-0.28 -0.281,-0.403 -0.442,-0.187Z" style="fill:#e8cee5;fill-rule:nonzero;"/><path d="M60.095,93.314c-0.043,-0.21 -0.342,-0.182 -0.4,0c-0.415,1.321 -0.391,2.847 -0.459,4.219c-0.027,0.566 0.846,0.563 0.878,0c0.078,-1.369 0.254,-2.865 -0.019,-4.219Z" style="fill:#e8cee5;fill-rule:nonzero;"/><path d="M67.859,91.646c-0.235,-0.563 -0.896,-0.922 -1.392,-1.251c-0.424,-0.28 -1.095,-0.794 -1.626,-0.629c-0.108,0.034 -0.173,0.142 -0.145,0.254c0.122,0.481 0.771,0.798 1.152,1.066c0.47,0.329 0.966,0.917 1.532,1.04c0.256,0.056 0.604,-0.184 0.479,-0.48Z" style="fill:#e8cee5;fill-rule:nonzero;"/><path d="M77.031,94.844c-1.322,0.027 -2.797,0.192 -4.084,0.517c-0.303,0.078 -0.22,0.508 0.073,0.527c1.33,0.086 2.805,-0.029 4.12,-0.243c0.458,-0.075 0.344,-0.811 -0.109,-0.801Z" style="fill:#e8cee5;fill-rule:nonzero;"/><path d="M81.024,88.507c-0.503,-0.342 -1.199,-0.227 -1.789,-0.257c-0.64,-0.032 -1.307,-0.12 -1.941,0.007c-0.17,0.034 -0.19,0.283 -0.047,0.364c0.582,0.325 1.279,0.405 1.931,0.491c0.601,0.081 1.302,0.262 1.846,-0.059c0.214,-0.126 0.194,-0.415 -0,-0.546Z" style="fill:#e8cee5;fill-rule:nonzero;"/><path d="M86.887,94.776c-0.121,-0.528 -0.521,-1.013 -0.807,-1.466c-0.29,-0.458 -0.573,-0.965 -0.957,-1.351c-0.209,-0.211 -0.587,0.003 -0.502,0.293c0.152,0.522 0.458,1.016 0.718,1.49c0.258,0.471 0.488,1.056 0.892,1.416c0.294,0.262 0.744,0.008 0.656,-0.382Z" style="fill:#e8cee5;fill-rule:nonzero;"/><path d="M95.986,94.596c-1.092,-0.373 -2.411,-0.482 -3.525,-0.14c-0.301,0.094 -0.22,0.496 0.072,0.527c1.1,0.113 2.137,0.213 3.215,0.479c0.565,0.139 0.782,-0.681 0.238,-0.866Z" style="fill:#e8cee5;fill-rule:nonzero;"/><path d="M99.645,100.723c-0.237,-0.454 -0.833,-0.709 -1.254,-0.976c-0.475,-0.301 -0.935,-0.595 -1.458,-0.805c-0.271,-0.111 -0.446,0.28 -0.269,0.464c0.389,0.409 0.851,0.729 1.307,1.059c0.42,0.305 0.847,0.722 1.375,0.776c0.277,0.029 0.407,-0.309 0.299,-0.518Z" style="fill:#e8cee5;fill-rule:nonzero;"/><path d="M106.416,98.208c-0.264,-0.546 -1.076,-0.681 -1.611,-0.871c-0.691,-0.246 -1.402,-0.551 -2.141,-0.583c-0.171,-0.008 -0.29,0.241 -0.149,0.356c0.53,0.435 1.19,0.669 1.817,0.93c0.565,0.235 1.344,0.751 1.946,0.505c0.145,-0.058 0.207,-0.191 0.138,-0.337Z" style="fill:#e8cee5;fill-rule:nonzero;"/><path d="M105.748,102.956c-0.523,1.239 -1.331,2.937 -0.958,4.306c0.054,0.194 0.318,0.221 0.419,0.056c0.366,-0.595 0.421,-1.297 0.563,-1.969c0.157,-0.751 0.309,-1.507 0.503,-2.247c0.091,-0.353 -0.395,-0.46 -0.527,-0.146Z" style="fill:#e8cee5;fill-rule:nonzero;"/><path d="M105.832,115.797c-0.166,-0.521 -0.63,-0.947 -0.973,-1.364c-0.408,-0.493 -0.815,-0.999 -1.318,-1.4c-0.2,-0.159 -0.472,0.034 -0.357,0.276c0.275,0.578 0.677,1.088 1.065,1.593c0.33,0.43 0.638,0.984 1.108,1.261c0.236,0.14 0.562,-0.094 0.475,-0.366Z" style="fill:#e8cee5;fill-rule:nonzero;"/><path d="M109.772,109.307c-0.019,-0.871 -0.065,-1.737 -0.151,-2.604c-0.032,-0.324 -0.472,-0.325 -0.506,0c-0.086,0.869 -0.131,1.732 -0.15,2.604c-0.019,0.767 -0.11,1.569 0.126,2.307c0.086,0.274 0.468,0.274 0.556,-0c0.233,-0.735 0.143,-1.544 0.125,-2.307Z" style="fill:#e8cee5;fill-rule:nonzero;"/><path d="M46.243,111.819c-2.462,0.503 -4.929,0.497 -6.765,0.373c0.804,-0.463 1.685,-0.908 2.625,-1.319c5.896,-2.585 8.736,-4.779 8.912,-4.917c0,0 0.118,4.864 -4.772,5.863Z" style="fill:#826b80;fill-rule:nonzero;"/><path d="M129.471,118.007l-0,2.919c-0,0.297 -0.074,0.589 -0.216,0.85c-0.172,0.321 -0.345,0.641 -0.496,0.901c-0.502,0.865 -0.28,2.139 0.313,2.935c0.239,0.32 0.399,0.69 0.399,1.088l-0,4.458c-0,0.538 -0.438,0.975 -0.975,0.975l-6.702,0c-0.539,0 -0.976,-0.437 -0.976,-0.975l0,-4.443c0,-0.401 0.163,-0.774 0.403,-1.096c0.601,-0.8 0.819,-2.074 0.318,-2.942c-0.152,-0.267 -0.331,-0.594 -0.508,-0.925c-0.138,-0.261 -0.213,-0.551 -0.213,-0.846l0,-2.899c0,-0.387 0.034,-0.749 0.094,-1.087c0.496,-2.897 2.886,-4.055 2.886,-4.055l-0,-1.248l2.694,0l-0,1.248c-0,0 2.366,1.146 2.879,4.015c0.065,0.351 0.1,0.726 0.1,1.127Z" style="fill:#ab8da8;fill-rule:nonzero;"/><path d="M125.673,112.331l-1.058,0c-0.675,0 -1.224,-0.549 -1.224,-1.225c-0,-0.677 0.549,-1.226 1.224,-1.226l1.058,0c0.677,0 1.226,0.549 1.226,1.226c-0,0.676 -0.549,1.225 -1.226,1.225Z" style="fill:#826b80;fill-rule:nonzero;"/><path d="M129.471,118.007l-0,2.343l-8.653,0l0,-2.343c0,-0.387 0.034,-0.749 0.094,-1.087c1.552,-0.724 4.85,-1.788 8.459,-0.04c0.065,0.351 0.1,0.726 0.1,1.127Z" style="fill:#826b80;fill-rule:nonzero;"/><path d="M129.471,126.935l-0,0.454c-1.19,-0.011 -2.382,-0.045 -3.561,-0.026c-1.11,0.021 -4.502,0.151 -5.092,0.173l0,-0.336c0.545,-0.031 1.09,-0.043 1.625,-0.068c1.109,-0.051 5.788,-0.191 7.028,-0.197Z" style="fill:#826b80;fill-rule:nonzero;"/><path d="M129.471,128.395l-0,0.395c-1.322,0.033 -2.647,0.03 -3.966,0.033c-1.563,0.003 -3.125,-0.022 -4.687,-0.076l0,-0.27c1.564,-0.003 7.331,-0.06 8.653,-0.082Z" style="fill:#826b80;fill-rule:nonzero;"/><path d="M43.947,47.469c-3.584,-0.505 -7.185,-0.797 -10.756,-1.421c-1.733,-0.302 -3.457,-0.645 -5.175,-1.015c-1.59,-0.343 -3.204,-0.816 -4.843,-0.659c-0.181,0.018 -0.257,0.308 -0.045,0.346c6.874,1.216 13.708,3.171 20.729,3.415c0.372,0.014 0.474,-0.612 0.09,-0.666Z" style="fill:#e8cee5;fill-rule:nonzero;"/><path d="M50.08,42.147c-2.242,-1.655 -4.7,-3.088 -7.075,-4.544c-0.264,-0.16 -0.479,0.233 -0.238,0.405c2.273,1.619 4.555,3.324 6.961,4.742c0.395,0.234 0.705,-0.343 0.352,-0.603Z" style="fill:#e8cee5;fill-rule:nonzero;"/><path d="M88.506,33.369c-1.611,1.087 -3.05,2.495 -4.494,3.792c-1.393,1.254 -3.111,2.528 -4.099,4.138c-0.087,0.142 0.084,0.302 0.223,0.224c1.572,-0.887 2.863,-2.403 4.207,-3.602c1.505,-1.343 3.163,-2.58 4.576,-4.016c0.264,-0.268 -0.083,-0.759 -0.413,-0.536Z" style="fill:#e8cee5;fill-rule:nonzero;"/><path d="M103.037,45.126c-3.138,0.176 -6.277,0.348 -9.414,0.534c-2.917,0.174 -5.95,0.16 -8.83,0.683c-0.278,0.051 -0.187,0.449 0.064,0.467c2.997,0.213 6.092,-0.15 9.089,-0.299c3.032,-0.151 6.061,-0.317 9.091,-0.477c0.582,-0.031 0.585,-0.941 -0,-0.908Z" style="fill:#e8cee5;fill-rule:nonzero;"/><path d="M65.713,41.076c-0.26,1.292 1.13,2.024 1.326,2.121c-1.066,-0.202 -1.809,0.007 -1.809,0.007c-0.065,-0.34 -0.64,-0.549 -0.849,-0.829c-0.248,-0.346 -0.398,-0.77 -0.366,-1.202c0.026,-0.313 0.137,-0.606 0.293,-0.881c0.439,-0.764 1.248,-1.319 2.13,-1.404c0.782,-0.071 1.587,0.242 2.109,0.816c-1.41,-0.293 -2.577,0.095 -2.834,1.372Z" style="fill:#291b30;fill-rule:nonzero;"/><path d="M70.683,78.013c-0.514,-0.027 -1.074,0.204 -1.536,0.384c-0.315,0.122 -0.614,0.278 -0.926,0.409c-0.284,0.114 -0.57,0.228 -0.854,0.343c-0.789,-0.477 -0.954,-0.941 -0.496,-1.39c0.599,-1.254 2.447,-1.956 3.493,-2.789c1.254,-0.999 2.489,-2.954 0.127,-3.383c-2.349,-0.428 -6.191,0.854 -7.5,2.907c-0.064,0.101 0.059,0.2 0.154,0.154c1.223,-0.61 2.169,-1.488 3.49,-1.957c0.482,-0.171 0.979,-0.307 1.484,-0.401c0.648,-0.121 3.608,-0.714 2.768,1.394c-0.303,0.762 -1.572,1.329 -2.231,1.78c-0.693,0.476 -1.42,0.957 -1.967,1.605c-0.468,0.551 -1.272,1.75 -0.554,2.415c0.523,0.486 1.261,0.158 1.814,-0.059c0.323,-0.126 0.632,-0.295 0.949,-0.433c0.968,-0.704 1.665,-0.326 2.093,1.133c-0.325,0.323 -0.69,0.587 -1.081,0.819c-0.26,0.154 -0.019,0.57 0.237,0.406c0.684,-0.442 2.008,-1.305 1.912,-2.283c-0.071,-0.713 -0.733,-1.022 -1.376,-1.054Z" style="fill:#ab8da8;fill-rule:nonzero;"/></g></svg>