<?xml version="1.0" encoding="UTF-8" standalone="no"?><!DOCTYPE svg PUBLIC "-//W3C//DTD SVG 1.1//EN" "http://www.w3.org/Graphics/SVG/1.1/DTD/svg11.dtd"><svg width="100%" height="100%" viewBox="0 0 72 139" version="1.1" xmlns="http://www.w3.org/2000/svg" xmlns:xlink="http://www.w3.org/1999/xlink" xml:space="preserve" xmlns:serif="http://www.serif.com/" style="fill-rule:evenodd;clip-rule:evenodd;stroke-linejoin:round;stroke-miterlimit:2;"><g><path d="M68.653,138.537c-1.064,0.117 -2.135,0.202 -3.219,0.254l-61.557,0.052c-0.059,-0.007 -0.124,-0.008 -0.183,-0.013c-0.104,-0.008 -0.215,-0.019 -0.32,-0.026c-0.359,-0.032 -0.718,-0.065 -1.084,-0.104c-1.201,-0.124 -1.201,-1.737 0,-1.861c0.359,-0.04 0.725,-0.072 1.09,-0.098c0.105,-0.013 0.209,-0.018 0.314,-0.027c0.065,-0.005 0.131,-0.006 0.196,-0.012l61.538,0.045c1.084,0.052 2.155,0.137 3.225,0.255c0.986,0.111 0.98,1.423 -0,1.535Z" style="fill:#c6c6c6;fill-rule:nonzero;"/><path d="M29.6,12.842c-1.128,5.909 -6.117,10.213 -10.951,13.794c-4.833,3.581 -10.093,7.272 -12.265,12.882c-2.086,5.389 -0.864,11.475 0.975,16.953c1.839,5.478 4.295,10.869 4.658,16.636c0.455,7.234 -2.419,14.203 -3.934,21.291c-1.516,7.088 -1.293,15.437 4.008,20.38c4.359,4.063 10.914,4.665 15.961,7.833c2.767,1.737 5.29,4.325 8.552,4.509c3.16,0.18 5.981,-2.022 7.921,-4.522c1.94,-2.501 3.351,-5.416 5.57,-7.674c2.591,-2.637 6.096,-4.186 8.87,-6.632c4.031,-3.553 6.226,-8.716 7.953,-13.804c1.215,-3.576 2.275,-7.302 2.022,-11.07c-0.215,-3.222 -1.378,-6.296 -2.545,-9.307c-2.706,-6.982 -5.536,-14.117 -5.688,-21.603c-0.152,-7.434 2.349,-14.627 3.831,-21.912c1.482,-7.286 1.81,-15.376 -2.217,-21.626c-3.034,-4.709 -8.303,-7.764 -13.834,-8.652c-4.69,-0.752 -10.375,-0.18 -14.749,1.805c-4.113,1.867 -3.428,7.003 -4.138,10.719Z" style="fill:#f6f6f6;fill-rule:nonzero;"/><path d="M57.473,13.089c0,0 -0.019,0.398 -0.065,1.077c-0.19,2.919 -0.836,11.106 -2.331,15.762c-0.418,1.299 -1.73,4.374 -3.264,7.854c-2.267,5.165 -5.025,11.239 -6.073,13.868c-0.343,0.861 -3.643,-0.77 -4.518,-0.933c-2.226,-0.425 -2.495,-4.388 -1.77,-7.685c0.287,-1.306 0.725,-2.481 1.254,-3.31c0.059,-0.099 0.126,-0.188 0.196,-0.294c0.047,-0.071 0.085,-0.131 0.131,-0.19c1.214,-1.776 3.205,-4.08 4.962,-6.17c1.639,-1.946 3.075,-3.708 3.512,-4.694c0.953,-2.135 4.212,-14.88 4.212,-14.88c1.541,-1.678 3.754,-0.405 3.754,-0.405Z" style="fill:#f5a784;fill-rule:nonzero;"/><path d="M57.891,11.711c-0.111,0.483 -0.203,0.934 -0.274,1.306c-0.131,0.679 -0.19,1.129 -0.19,1.129c-1.116,1.169 -3.297,-0.032 -3.297,-0.032c0,0 -0.183,-0.235 -0.398,-0.634c-0.405,-0.724 -0.921,-2.004 -0.679,-3.421c0.156,-0.907 0.313,-2.958 0.313,-2.958l0.405,-0.032c0.418,-0.033 0.548,1.306 0.581,1.913c0.013,0.111 0.02,0.202 0.02,0.248c0.026,-0.117 0.065,-0.215 0.13,-0.3c0.216,-0.353 0.66,-0.444 1.11,-0.451c0.51,0 1.013,0.013 1.522,0.039c0.228,0.014 0.479,0.035 0.679,0.138c0.072,0.037 0.137,0.084 0.195,0.143c0.647,0.666 0.066,2.175 -0.117,2.912Z" style="fill:#f5a784;fill-rule:nonzero;"/><path d="M57.891,11.711c-0.111,0.483 -0.203,0.934 -0.274,1.306c-0.078,-0.118 -0.163,-0.235 -0.255,-0.339c-0.404,-0.471 -0.979,-0.765 -1.528,-1.045c-0.646,-0.34 -2.409,-1.346 -1.861,-2.351c0.072,-0.137 0.211,-0.232 0.379,-0.3c0.046,-0.019 0.098,-0.038 0.15,-0.052c0.749,-0.206 1.985,-0.072 2.495,-0.15c0.274,-0.04 0.542,-0.092 0.816,-0.124c0.071,0.039 0.137,0.084 0.195,0.143c0.647,0.666 0.066,2.175 -0.117,2.912Z" style="fill:#e0855c;fill-rule:nonzero;"/><path d="M42.625,30.553c0,0 0.458,-2.82 1.371,-5.563c0.296,-0.886 -0.408,-1.789 -1.273,-1.641c-0.678,0.116 -1.241,0.378 -1.241,0.378c0,0 0.965,-2.881 -0.412,-3.83c-1.377,-0.947 -3.496,0.872 -4.308,2.238c0,0 0.565,-1.1 -0.424,-1.744c-0.988,-0.646 -5.472,4.284 -4.589,8.342c0.882,4.057 1.2,2.92 1.2,2.92c0,0 9.393,-0.579 9.676,-1.1Z" style="fill:#3b2645;fill-rule:nonzero;"/><path d="M32.75,29.9c0,0 -0.865,-1.039 -1.731,0c-0.866,1.039 0.606,3.027 1.731,3.115c0,0 0.13,-2.668 0,-3.115Z" style="fill:#e0855c;fill-rule:nonzero;"/><path d="M48.881,41.954c-0.523,1.234 -2.339,5.734 -3.141,9.696c-0.065,0.321 -0.124,0.621 -0.17,0.914c-0.333,2.037 -1.332,11.858 -1.488,13.405c-0.014,0.13 -0.02,0.202 -0.02,0.202c-7.835,2.155 -15.957,0 -15.957,0c0,0 -0.013,-0.15 -0.046,-0.437c-0.183,-1.926 -0.947,-9.898 -1.411,-16.787c-0.234,-3.513 -0.391,-6.751 -0.352,-8.762c0.013,-0.738 1.724,-0.659 2.906,-0.823c1.652,-0.235 3.453,-0.293 4.27,-0.3c0.071,-0.006 0.137,-0.006 0.195,-0.006l0.242,0l0.105,-1.149c0,-0.014 0.072,-0.764 0.072,-0.764l0.195,-2.065c0.131,0.025 0.261,0.053 0.392,0.066c0.261,0.046 0.51,0.068 0.757,0.079c0.334,0.014 0.64,0.013 0.934,-0.013c0.15,-0.013 0.294,-0.027 0.431,-0.046c0.203,-0.026 0.398,-0.059 0.588,-0.098c0.32,-0.065 0.624,-0.157 0.914,-0.248c0.091,-0.028 0.176,-0.052 0.261,-0.092c0.026,-0.006 0.052,-0.012 0.072,-0.025c0.065,-0.027 0.137,-0.053 0.202,-0.079c0.424,-0.169 0.784,-0.359 1.078,-0.535c0.189,-0.111 0.353,-0.215 0.483,-0.307c0.045,-0.033 0.065,-0.045 0.085,-0.059c0.072,-0.051 0.13,-0.091 0.176,-0.13c0.065,-0.046 0.106,-0.083 0.119,-0.096c-0.025,0.144 -0.039,0.207 -0.047,0.272c-0.082,0.655 -0.177,1.495 -0.216,2.331c-0.039,0.574 -0.059,1.143 -0.078,1.639c-0.026,0.855 -0.026,1.475 -0.026,1.475c0.189,0 0.378,0.007 0.561,0.026c0.02,-0.006 0.046,-0.006 0.066,0c0.855,0.04 1.671,0.144 2.422,0.281c2.657,0.509 4.564,1.482 5.25,1.907c0.182,0.111 0.254,0.333 0.176,0.528Z" style="fill:#f5a784;fill-rule:nonzero;"/><path d="M40.773,33.495c-1.007,4.572 -5.606,4.253 -6.687,3.648l0.195,-2.065c3.791,0.773 6.492,-1.583 6.492,-1.583Z" style="fill:#e0855c;fill-rule:nonzero;"/><path d="M32.948,26.896c-0.575,0.598 -0.623,1.94 -0.671,3.425c-0.145,4.493 1.201,5.896 3.495,6.144c2.296,0.247 4.697,-0.636 5.191,-4.803c0.247,-2.083 0.511,-4.007 -0.247,-4.907c-1.13,-1.342 -6.003,-1.695 -7.768,0.141Z" style="fill:#f5a784;fill-rule:nonzero;"/><path d="M40.644,31.061c-0,0 0.702,-1.861 1.811,-0.874c1.108,0.986 -0.424,3.797 -2.119,3.589c-0,0 -0.232,-2.078 0.308,-2.715Z" style="fill:#f5a784;fill-rule:nonzero;"/><path d="M41.937,31.033c-0.246,0.043 -0.496,0.274 -0.674,0.44c-0.185,0.173 -0.402,0.389 -0.494,0.629c-0.03,0.076 0.076,0.122 0.127,0.074c0.143,-0.133 0.258,-0.293 0.392,-0.438c0.096,0.104 0.193,0.208 0.326,0.257c0.101,0.038 0.178,-0.089 0.133,-0.173c-0.059,-0.108 -0.164,-0.185 -0.269,-0.257c0.176,-0.135 0.389,-0.242 0.535,-0.401c0.056,-0.06 0,-0.144 -0.076,-0.131Z" style="fill:#e0855c;fill-rule:nonzero;"/><path d="M34.25,30.214c0,0 -0.389,0.145 -0.33,-0.543c0.053,-0.618 0.33,-0.535 0.33,-0.535c0,0 0.27,-0.002 0.229,0.539c-0.041,0.541 -0.229,0.539 -0.229,0.539Z" style="fill:#3b2645;fill-rule:nonzero;"/><path d="M38.187,30.214c-0,0 -0.389,0.145 -0.33,-0.543c0.053,-0.618 0.33,-0.535 0.33,-0.535c-0,0 0.269,-0.002 0.229,0.539c-0.041,0.541 -0.229,0.539 -0.229,0.539Z" style="fill:#3b2645;fill-rule:nonzero;"/><path d="M36.014,32.046c-0.197,-0.03 -0.648,0.088 -0.741,-0.125c-0.077,-0.176 0.24,-1.221 0.285,-1.4c0.161,-0.646 0.331,-1.083 0.452,-1.857c0.006,-0.034 -0.053,-0.053 -0.068,-0.019c-0.456,1.029 -0.626,2.301 -0.901,3.394c-0.016,0.06 0.029,0.123 0.093,0.123c0.288,-0.005 0.569,0.056 0.857,0.057c0.096,0.001 0.124,-0.158 0.023,-0.173Z" style="fill:#e0855c;fill-rule:nonzero;"/><path d="M34.676,28.125c-0.279,-0.141 -0.799,-0.179 -1.001,0.11c-0.037,0.053 0.012,0.133 0.074,0.13c0.138,-0.008 0.26,-0.075 0.399,-0.086c0.15,-0.013 0.292,0.022 0.435,0.067c0.128,0.041 0.215,-0.158 0.093,-0.221Z" style="fill:#3b2645;fill-rule:nonzero;"/><path d="M38.769,28.465c-0.159,-0.395 -0.849,-0.432 -1.143,-0.188c-0.066,0.056 -0.024,0.162 0.049,0.185c0.172,0.053 0.354,-0.011 0.532,0.005c0.156,0.014 0.281,0.083 0.426,0.133c0.075,0.027 0.167,-0.058 0.136,-0.135Z" style="fill:#3b2645;fill-rule:nonzero;"/><path d="M35.038,33.44c0,0 1.4,0.209 2.46,-0.425c0,0 -0.365,0.919 -1.23,1.154c-0.865,0.236 -1.23,-0.729 -1.23,-0.729Z" style="fill:#fff;fill-rule:nonzero;"/><path d="M33.393,50.717c-0.868,0.163 -4.818,0.607 -5.51,0.046c-0.346,-0.275 -0.764,-0.921 -1.235,-1.816c-1.24,-2.363 -2.82,-6.503 -4.191,-10.374c-1.339,-3.781 -2.481,-7.3 -2.912,-8.645c-1.502,-4.662 -2.145,-12.857 -2.337,-15.768c-0.045,-0.68 -0.066,-1.071 -0.066,-1.071c-0,0 2.185,-1.24 3.748,0.391c0.012,0.014 3.264,12.759 4.224,14.894c0.379,0.842 1.489,2.259 2.827,3.878c1.848,2.22 4.133,4.819 5.531,6.81c0.091,0.124 0.176,0.255 0.254,0.372c0.066,0.098 0.131,0.196 0.19,0.288c0.783,1.22 1.358,3.225 1.547,5.184c0.261,2.768 -0.254,5.464 -2.07,5.811Z" style="fill:#f5a784;fill-rule:nonzero;"/><path d="M20.89,13.48c-0.216,0.399 -0.398,0.634 -0.398,0.634c0,0 -2.173,1.194 -3.284,0.046c-0.014,-0.014 -0.053,-0.314 -0.138,-0.79c-0.078,-0.431 -0.189,-1.013 -0.34,-1.659c-0.117,-0.476 -0.902,-2.393 -0.496,-2.729c0.09,-0.074 0.209,-0.098 0.32,-0.117c0.445,-0.085 0.895,-0.164 1.339,-0.249c0.77,-0.137 2.057,-0.346 2.363,0.621c0.007,-0.555 0.014,-1.874 0.588,-2.168l0.411,0.032c0,0 0.157,2.051 0.314,2.958c0.242,1.417 -0.275,2.697 -0.679,3.421Z" style="fill:#f5a784;fill-rule:nonzero;"/><path d="M26.547,67.984c-0,0 -4.14,11.167 -4.305,32.3c-0.012,1.671 -3.277,13.306 -1.959,29.551l4.871,0.922c0,0 4.711,-17.16 4.93,-28.866c-0,0 5.968,-20.785 6.407,-30.341c0.439,-9.555 -5.992,-12.644 -9.944,-3.566Z" style="fill:#f5a784;fill-rule:nonzero;"/><path d="M25.787,135.675c-0.001,0.052 -0.007,0.105 -0.013,0.151c-0.164,2.252 -1.998,1.906 -4.721,1.945c-2.174,0.033 -3.33,-1.208 -3.199,-2.521c0.032,-0.365 0.169,-0.744 0.411,-1.096c1.116,-1.613 1.476,-3.761 1.476,-3.761c2.683,-3.219 5.413,0.364 5.413,0.364c0,0 0.679,2.501 0.633,4.918Z" style="fill:#3b2645;fill-rule:nonzero;"/><path d="M45.418,67.984c-0,0 4.14,11.167 4.305,32.3c0.013,1.671 3.277,13.306 1.96,29.551l-4.872,0.922c0,0 -4.71,-17.16 -4.93,-28.866c-0,0 -5.967,-20.785 -6.406,-30.341c-0.439,-9.555 5.992,-12.644 9.943,-3.566Z" style="fill:#f5a784;fill-rule:nonzero;"/><path d="M50.918,137.771c-2.788,-0.039 -4.688,0.321 -4.734,-2.096c-0.001,-0.072 -0.007,-0.137 0,-0.209c-0.058,-2.35 0.627,-4.709 0.627,-4.709c0,0 2.735,-3.583 5.413,-0.364c-0,0 0.359,2.148 1.475,3.761c0.137,0.196 0.242,0.405 0.314,0.607c0.502,1.476 -0.653,3.049 -3.095,3.01Z" style="fill:#3b2645;fill-rule:nonzero;"/><path d="M51.813,37.782c-2.267,5.165 -5.015,11.244 -6.073,13.868c-0.065,0.321 -0.124,0.621 -0.17,0.914c-0.333,2.037 -1.332,11.858 -1.488,13.405c-2.71,0.829 -8.221,1.809 -16.023,-0.235c-0.183,-1.926 -0.947,-9.898 -1.411,-16.787c-1.24,-2.363 -2.82,-6.503 -4.191,-10.374c1.874,-1.182 4.492,-3.298 5.484,-6.321c1.848,2.22 4.133,4.819 5.531,6.81c0.071,-0.006 0.137,-0.006 0.195,-0.006c0.02,0.117 0.04,0.241 0.059,0.378c0.275,1.581 0.823,4.12 1.737,5.472c0.366,0.535 0.79,0.888 1.28,0.907c0.992,0.046 1.944,-1.261 2.709,-2.781c0.645,-1.281 1.15,-2.69 1.45,-3.604c0.033,-0.079 0.052,-0.138 0.065,-0.19c0.02,-0.006 0.046,-0.006 0.066,0c1.214,-1.776 3.205,-4.08 4.962,-6.17c1.012,1.365 3.284,4.081 5.818,4.714Z" style="fill:#e8cee5;fill-rule:nonzero;"/><path d="M49.938,90.767c-3.578,1.73 -6.522,1.926 -8.54,1.697c-1.926,-0.215 -3.017,-0.809 -3.017,-0.809l-2.389,-13.391l-2.331,13.391c-5.06,1.835 -12.034,-1.501 -12.034,-1.501c2.253,-21.671 6.386,-24.923 6.386,-24.923c6.786,2.209 16.14,0.065 16.14,0.065c4.773,6.432 5.785,25.471 5.785,25.471Z" style="fill:#3b2645;fill-rule:nonzero;"/><path d="M17.155,13.324c-0.032,0.013 -0.059,0.032 -0.085,0.046c-0.078,-0.431 -0.189,-1.013 -0.34,-1.659c-0.117,-0.476 -0.894,-2.383 -0.496,-2.729c0.092,-0.072 0.209,-0.098 0.32,-0.117c0.445,-0.085 0.895,-0.164 1.339,-0.249c0.549,-0.098 1.187,-0.221 1.728,-0.022c0.583,0.213 0.859,0.855 0.86,1.42c0.002,1.789 -2.849,3.055 -3.326,3.31Z" style="fill:#e0855c;fill-rule:nonzero;"/><path d="M70.807,9.478l-70.155,0c-0.36,0 -0.652,-0.292 -0.652,-0.653c-0,-0.361 0.292,-0.653 0.652,-0.653l70.155,0c0.36,0 0.652,0.292 0.652,0.653c-0,0.361 -0.292,0.653 -0.652,0.653Z" style="fill:#3b2645;fill-rule:nonzero;"/><path d="M5.098,16.104c-0.614,0 -1.112,-0.498 -1.112,-1.111l0,-12.336c0,-0.614 0.498,-1.112 1.112,-1.112c0.613,0 1.111,0.498 1.111,1.112l-0,12.336c-0,0.613 -0.498,1.111 -1.111,1.111Z" style="fill:#291b30;fill-rule:nonzero;"/><path d="M7.32,17.971c-0.613,0 -1.111,-0.498 -1.111,-1.112l-0,-15.697c-0,-0.614 0.498,-1.112 1.111,-1.112c0.614,0 1.112,0.498 1.112,1.112l0,15.697c0,0.614 -0.498,1.112 -1.112,1.112Z" style="fill:#3b2645;fill-rule:nonzero;"/><path d="M67.612,12.181c0.614,0 1.111,-0.498 1.111,-1.112l0,-4.489c0,-0.614 -0.497,-1.111 -1.111,-1.111c-0.614,0 -1.111,0.497 -1.111,1.111l0,4.489c0,0.614 0.497,1.112 1.111,1.112Z" style="fill:#3b2645;fill-rule:nonzero;"/><path d="M65.389,16.104c0.614,0 1.112,-0.498 1.112,-1.111l0,-12.336c0,-0.614 -0.498,-1.112 -1.112,-1.112c-0.614,0 -1.111,0.498 -1.111,1.112l-0,12.336c-0,0.613 0.497,1.111 1.111,1.111Z" style="fill:#291b30;fill-rule:nonzero;"/><path d="M63.167,17.971c0.613,0 1.111,-0.498 1.111,-1.112l-0,-15.697c-0,-0.614 -0.498,-1.112 -1.111,-1.112c-0.614,0 -1.112,0.498 -1.112,1.112l0,15.697c0,0.614 0.498,1.112 1.112,1.112Z" style="fill:#3b2645;fill-rule:nonzero;"/><path d="M17.182,10.244c0.048,0.094 0.099,0.191 0.181,0.259c0.11,0.089 0.259,0.111 0.4,0.124c0.442,0.04 0.888,0.019 1.324,-0.063c0.394,-0.073 0.803,-0.211 1.056,-0.522c0.312,-0.383 0.311,-0.947 0.129,-1.405c-0.28,-0.712 -0.954,-1.236 -1.699,-1.405c-0.62,-0.141 -2.195,-0.08 -2.447,0.686c-0.127,0.385 0.241,0.758 0.419,1.06c0.24,0.407 0.426,0.844 0.637,1.266Z" style="fill:#f5a784;fill-rule:nonzero;"/><path d="M57.005,10.244c-0.047,0.094 -0.099,0.191 -0.181,0.259c-0.11,0.089 -0.259,0.111 -0.4,0.124c-0.441,0.04 -0.888,0.019 -1.324,-0.063c-0.394,-0.073 -0.803,-0.211 -1.056,-0.522c-0.311,-0.383 -0.31,-0.947 -0.129,-1.405c0.281,-0.712 0.954,-1.236 1.699,-1.405c0.621,-0.141 2.195,-0.08 2.448,0.686c0.127,0.385 -0.241,0.758 -0.419,1.06c-0.241,0.407 -0.427,0.844 -0.638,1.266Z" style="fill:#f5a784;fill-rule:nonzero;"/><path d="M41.398,92.464c-1.926,-0.215 -3.017,-0.809 -3.017,-0.809l-2.389,-13.391c0,0 3.043,4.282 5.406,14.2Z" style="fill:#291b30;fill-rule:nonzero;"/><path d="M25.774,135.826c-0.164,2.252 -1.998,1.906 -4.721,1.945c-2.174,0.033 -3.33,-1.208 -3.199,-2.521c0.535,0.484 1.018,0.829 1.834,1.033c0.83,0.209 1.639,0.156 2.488,0.124c1.26,-0.053 2.409,-0.34 3.598,-0.581Z" style="fill:#291b30;fill-rule:nonzero;"/><path d="M50.918,137.771c-2.788,-0.039 -4.688,0.321 -4.734,-2.096c-0.001,-0.072 -0.007,-0.137 0,-0.209c1.547,1.155 3.487,1.364 5.341,0.693c0.914,-0.333 1.691,-0.889 2.488,-1.398c0.502,1.476 -0.653,3.049 -3.095,3.01Z" style="fill:#291b30;fill-rule:nonzero;"/><path d="M24.327,131.972c-0.755,-0.933 -2.59,-0.868 -3.549,-0.353c-0.301,0.162 -0.093,0.626 0.229,0.543c0.512,-0.131 1.022,-0.241 1.554,-0.18c0.54,0.062 0.964,0.36 1.476,0.488c0.308,0.077 0.471,-0.275 0.29,-0.498Z" style="fill:#e8cee5;fill-rule:nonzero;"/><path d="M23.888,133.074c-0.567,-0.207 -1.22,-0.251 -1.82,-0.272c-0.548,-0.018 -1.118,-0.037 -1.612,0.227c-0.143,0.076 -0.103,0.294 0.044,0.336c0.508,0.145 1.045,0.069 1.568,0.096c0.587,0.031 1.156,0.165 1.739,0.213c0.365,0.03 0.385,-0.49 0.081,-0.6Z" style="fill:#e8cee5;fill-rule:nonzero;"/><path d="M51.436,131.708c-0.373,-1.151 -2.612,-0.544 -3.407,-0.301c-0.316,0.096 -0.276,0.628 0.082,0.601c0.552,-0.042 1.09,-0.193 1.643,-0.224c0.283,-0.016 0.583,-0.019 0.853,0.076c0.258,0.09 0.322,0.168 0.587,0.165c0.157,-0.002 0.292,-0.159 0.242,-0.317Z" style="fill:#e8cee5;fill-rule:nonzero;"/><path d="M51.175,132.673c-0.561,-0.524 -1.803,-0.348 -2.495,-0.21c-0.342,0.069 -1.159,0.405 -0.709,0.863c0.046,0.045 0.12,0.043 0.166,0c0.286,-0.265 1.009,-0.22 1.374,-0.227c0.503,-0.01 1.073,0.203 1.545,0.026c0.18,-0.067 0.279,-0.301 0.119,-0.452Z" style="fill:#e8cee5;fill-rule:nonzero;"/><path d="M32.72,55.479c-0.019,0.053 -0.028,0.105 -0.036,0.158c-0.02,0.052 0.083,0.053 0.063,0c-0.009,-0.053 -0.018,-0.105 -0.027,-0.158Z" style="fill:#d6bed3;fill-rule:nonzero;"/><path d="M43.129,45.127c-0.504,-1.534 -0.733,-3.064 -0.93,-4.663c-0.025,-0.202 -0.291,-0.203 -0.316,0c-0.353,2.886 0.863,6.418 2.389,8.847c0.116,0.183 0.414,0.067 0.355,-0.149c-0.376,-1.386 -1.05,-2.67 -1.498,-4.035Z" style="fill:#d6bed3;fill-rule:nonzero;"/><path d="M32.116,39.915c-0.819,1.3 -1.519,2.669 -2.332,3.974c-0.809,1.299 -1.77,2.515 -2.509,3.854c-0.046,0.083 0.062,0.169 0.132,0.102c2.114,-2.051 3.907,-5.091 4.989,-7.812c0.066,-0.167 -0.191,-0.259 -0.28,-0.118Z" style="fill:#d6bed3;fill-rule:nonzero;"/></g></svg>