<?xml version="1.0" encoding="UTF-8" standalone="no"?><!DOCTYPE svg PUBLIC "-//W3C//DTD SVG 1.1//EN" "http://www.w3.org/Graphics/SVG/1.1/DTD/svg11.dtd"><svg width="100%" height="100%" viewBox="0 0 107 114" version="1.1" xmlns="http://www.w3.org/2000/svg" xmlns:xlink="http://www.w3.org/1999/xlink" xml:space="preserve" xmlns:serif="http://www.serif.com/" style="fill-rule:evenodd;clip-rule:evenodd;stroke-linejoin:round;stroke-miterlimit:2;"><g><path d="M100.652,113.691c-1.064,0.117 -2.134,0.202 -3.218,0.254c-0.307,0.013 -87.897,0.052 -87.897,0.052c-0.058,-0.007 -0.124,-0.007 -0.182,-0.013c-0.471,-0.039 -0.934,-0.079 -1.405,-0.13c-1.201,-0.124 -1.201,-1.737 -0,-1.861c0.464,-0.052 0.934,-0.092 1.405,-0.125c0.065,-0.006 0.129,-0.006 0.195,-0.012c-0,-0 87.577,0.033 87.877,0.045c1.084,0.052 2.155,0.137 3.225,0.255c0.987,0.111 0.98,1.423 -0,1.535Z" style="fill:#c6c6c6;fill-rule:nonzero;"/><path d="M0.703,18.868c-0.916,3.739 -0.864,7.743 -0.259,11.802c1.286,8.635 5.139,16.908 4.992,25.636c-0.089,5.196 -1.605,10.321 -1.363,15.512c0.308,6.556 3.812,13.14 9.661,16.116c5.191,2.64 11.441,2.241 16.851,4.396c3.922,1.564 7.209,4.392 11.008,6.234c6.547,3.172 14.555,3.149 21.083,-0.064c6.527,-3.214 11.43,-9.545 12.909,-16.668c0.723,-3.482 0.665,-7.089 1.363,-10.576c0.731,-3.655 2.298,-7.141 4.546,-10.112c5.226,-6.908 13.767,-10.741 18.884,-17.727c4.261,-5.817 5.706,-13.271 5.77,-20.482c0.051,-5.773 -0.856,-11.903 -4.561,-16.33c-5.597,-6.687 -15.668,-7.384 -24.247,-5.826c-8.579,1.558 -17.027,4.838 -25.721,4.163c-6.314,-0.491 -12.266,-3.046 -18.455,-4.398c-9.908,-2.166 -21.773,2.326 -28.32,10.111c-2.11,2.508 -3.423,5.279 -4.141,8.213Z" style="fill:#f6f6f6;fill-rule:nonzero;"/><path d="M48.865,25.427c-0.096,0.074 -0.163,0.169 -0.195,0.287c-0.099,0.327 -0.32,1.064 -0.647,2.05c-1.39,4.205 -4.713,12.798 -8.279,11.89c-0.829,-0.209 -1.828,-0.653 -2.912,-1.241c-2.572,-1.384 -4.969,-3.114 -7.306,-4.87c-1.411,-1.058 -3.682,-2.26 -4.695,-3.944c-0.268,-0.45 -0.397,-0.947 -0.645,-1.397c-0.7,-1.228 -1.947,-3.33 -0.321,-4.447c0.614,-0.424 1.41,-0.477 2.149,-0.398c2.526,0.281 4.668,1.9 6.666,3.46c2.089,1.626 4.172,3.246 6.255,4.871c0.281,0.222 0.836,0.836 1.253,0.66c0.353,-0.144 2.142,-3.467 2.86,-4.447c1.13,-1.547 2.214,-3.251 2.318,-5.164c0.026,-0.425 -0,-0.856 0.085,-1.267c0.202,-0.992 1.103,-1.743 2.082,-1.913c1.215,-0.209 2.285,0.692 2.997,1.587c1.385,1.73 -1.029,3.798 -1.665,4.283Z" style="fill:#f5a784;fill-rule:nonzero;"/><path d="M39.842,44.257c-0,-0 -4.994,6.758 -12.451,9.976c-0,-0 -0.052,-0.051 -0.144,-0.143c-1.09,-1.11 -8.011,-8.149 -9.546,-9.526c-0.221,-0.203 -0.45,-0.398 -0.698,-0.601c-1.633,-1.364 -3.401,-2.565 -5.21,-3.689c-0.901,-0.555 -2.403,-1.11 -2.984,-2.109c-0.176,-0.307 -0.268,-0.653 -0.229,-1.058c0.078,-0.809 0.659,-1.475 1.215,-2.076c0.594,-0.633 1.182,-1.273 1.769,-1.913c0.438,-0.47 0.738,-0.914 0.927,-1.345c0.64,-1.456 0.027,-2.755 -0.712,-4.512c-0.548,-1.325 -1.808,-3.277 -1.743,-4.759c0.039,-0.986 1.228,-0.679 2.135,-1.071c0.908,-0.392 2.031,-0.222 2.782,0.418c0.633,0.548 0.959,1.319 1.299,2.063c0.092,0.209 0.189,0.411 0.294,0.607c0.294,0.555 0.705,1.09 1.155,1.561c0.087,0.09 0.177,0.176 0.269,0.261c0.417,0.385 0.769,0.267 1.129,0.013c0.221,-0.157 0.444,-0.359 0.692,-0.529c1.233,-0.849 2.507,-1.717 3.963,-2.076c0.352,-0.085 0.719,-0.144 1.077,-0.105c1.417,0.17 1.783,1.247 2.501,2.24c0.973,1.325 1.926,2.67 2.873,4.022c3.943,5.66 8.331,12.36 9.396,13.979c0.156,0.248 0.241,0.372 0.241,0.372Z" style="fill:#f5a784;fill-rule:nonzero;"/><path d="M98.357,28.508c-0.052,0.745 -0.183,1.594 -0.796,2.012c-0.36,0.248 -0.817,0.287 -1.254,0.326c-0.672,0.059 -1.319,0.137 -1.939,0.235c-0.685,0.111 -2.102,0.451 -3.682,0.856c-3.017,0.77 -6.634,1.782 -6.928,1.873c-4.57,1.502 -10.232,3.467 -15.801,5.687c-10.616,4.231 -23.283,10.545 -27.619,18.811c-3.623,6.908 -5.236,17.067 -7.325,26.667c-0.112,1.298 -0.222,2.591 -0.366,3.884c-0.431,4.067 -1.391,7.9 -2.625,11.746c-0.228,0.705 -0.457,1.403 -0.705,2.108c-0.294,0.843 -0.555,1.652 -0.777,2.442c-0.32,1.15 -0.568,2.273 -0.731,3.46c-0.091,0.621 -0.157,1.268 -0.203,1.94c-0.033,0.437 -0.065,0.894 -0.306,1.26c-0.405,0.621 -1.247,0.764 -1.992,0.83c-3.611,-0 -7.182,0.136 -10.812,0.005c-0.216,-0.012 -0.457,-0.025 -0.621,-0.175c-0.248,-0.223 -0.176,-0.66 0.06,-0.895c0.241,-0.242 0.581,-0.333 0.9,-0.418c1.645,-0.425 3.102,-1.123 4.721,-1.56c0.731,-0.197 1.475,-0.399 2.076,-0.856c0.561,-0.437 0.933,-1.031 1.176,-1.697c0.228,-0.634 0.352,-1.332 0.411,-2.031c0.072,-0.777 0.078,-1.547 0.104,-2.213c0.098,-2.579 1.058,-33.835 1.437,-39.156c0.182,-4.166 0.404,-7.528 0.678,-9.18c0.034,-0.209 0.079,-0.418 0.138,-0.62c0.156,-1.483 0.353,-2.951 0.62,-4.395c0.32,-1.697 0.738,-3.362 1.313,-4.955c0.639,-1.757 1.586,-3.552 3.258,-4.382c1.939,-0.966 3.721,-0.529 5.537,0.484c0.358,0.195 0.698,0.431 1.077,0.581c2.259,0.933 4.009,-0.647 5.895,-1.554c1.947,-0.934 3.905,-1.829 5.877,-2.69c5.373,-2.344 10.858,-4.44 16.466,-6.138c8.175,-2.474 17.133,-3.519 23.584,-4.231c1.155,-0.13 2.234,-0.248 3.212,-0.358c0.099,-0.033 0.204,-0.064 0.301,-0.099c0.665,-0.239 1.247,-0.64 1.678,-1.208c0.444,-0.607 0.633,-1.358 0.816,-2.089c0.411,-1.625 1.084,-3.095 1.476,-4.747c0.078,-0.326 0.163,-0.666 0.405,-0.907c0.228,-0.242 0.666,-0.32 0.888,-0.078c0.156,0.163 0.175,0.404 0.189,0.62c0.195,3.623 0.124,7.195 0.189,10.805Z" style="fill:#f5a784;fill-rule:nonzero;"/><path d="M90.686,31.937c-2.331,0.593 -6.863,1.853 -6.928,1.873c-0.918,0.289 -6.57,2.231 -8.161,2.801c-2.503,0.897 -5.08,1.868 -7.64,2.886c-9.735,3.879 -21.164,9.534 -26.365,16.793c-0.474,0.662 -0.895,1.332 -1.254,2.018c-3.623,6.908 -5.236,17.067 -7.325,26.667c-0.112,1.298 -0.222,2.591 -0.366,3.884c-0.209,1.964 -0.542,3.877 -0.973,5.764c-0.052,0.242 -0.11,0.483 -0.17,0.719c-0.25,0.987 -0.496,1.978 -0.783,2.958c-0.052,0.202 -0.111,0.397 -0.17,0.6c-0.17,0.568 -0.346,1.136 -0.529,1.705c-0.228,0.705 -0.457,1.403 -0.705,2.108c-0.294,0.843 -0.555,1.652 -0.777,2.442c-1.776,0.066 -3.578,0.091 -5.321,-0.137c0.072,-0.777 0.078,-1.547 0.104,-2.213c0.052,-1.364 1.058,-33.835 1.437,-39.156c0.182,-4.166 0.404,-7.528 0.678,-9.18c0.034,-0.209 0.079,-0.418 0.138,-0.62c0.156,-1.483 0.353,-2.951 0.62,-4.395c0.32,-1.697 0.738,-3.362 1.313,-4.955c0.639,-1.757 1.586,-3.552 3.258,-4.382c1.939,-0.966 3.721,-0.529 5.537,0.484c0.358,0.195 0.698,0.431 1.077,0.581c2.259,0.933 4.009,-0.647 5.895,-1.554c1.947,-0.934 3.905,-1.829 5.877,-2.69c5.373,-2.344 10.858,-4.44 16.466,-6.138c4.153,-1.26 8.515,-2.148 12.641,-2.807c0.216,-0.033 3.872,-0.575 4.12,-0.608c2.455,-0.326 4.767,-0.593 6.823,-0.816c0.569,1.091 0.953,2.292 1.195,3.389c0.144,0.647 0.235,1.313 0.288,1.979Z" style="fill:#ab8da8;fill-rule:nonzero;"/><path d="M38.462,43.759c-0.418,1.171 -1.189,2.249 -1.974,3.236c-2.435,3.064 -5.492,5.682 -9.097,7.238c-0,-0 -0.052,-0.051 -0.144,-0.143c-1.09,-1.11 -8.011,-8.149 -9.546,-9.526c-0.221,-0.203 -0.45,-0.398 -0.698,-0.601c-1.633,-1.364 -3.401,-2.565 -5.21,-3.689c-0.901,-0.555 -2.403,-1.11 -2.984,-2.109c-0.176,-0.307 -0.268,-0.653 -0.229,-1.058c0.078,-0.809 0.659,-1.475 1.215,-2.076c0.594,-0.633 1.182,-1.273 1.769,-1.913c0.438,-0.47 0.738,-0.914 0.927,-1.345c1.43,0.385 4.766,0.611 6.333,-1.223c1.338,-1.58 1.04,-2.668 0.275,-4.196c0.221,-0.157 0.444,-0.359 0.692,-0.529c1.233,-0.849 2.507,-1.717 3.963,-2.076c0.352,-0.085 4.295,3.12 6.451,6.157c1.445,2.035 2.831,4.113 4.225,6.185c0.655,0.975 1.348,1.935 1.964,2.936c0.573,0.934 0.859,1.799 1.93,2.324c0.138,0.067 0.288,0.132 0.373,0.259c0.076,0.117 0.085,0.264 0.085,0.404c-0.001,0.603 -0.12,1.184 -0.32,1.745Z" style="fill:#3b2645;fill-rule:nonzero;"/><path d="M9.694,43.262c0.856,1.406 1.988,2.661 3.09,4.024c2.07,2.558 4.218,5.113 6.67,7.317c0.918,0.824 1.783,1.487 2.54,1.884c1.049,0.549 2.231,0.085 3.157,-0.495c2.246,-1.406 3.966,-3.716 5.489,-5.836c0.733,-1.022 1.43,-2.07 2.098,-3.136c0.281,-0.447 0.527,-0.96 0.89,-1.344c0.596,-0.628 1.395,-1.06 1.957,-1.725c0.6,-0.711 0.817,-1.733 0.532,-2.618c-0.285,-0.886 -1.072,-1.596 -1.987,-1.763c-0.914,-0.167 -1.915,0.231 -2.444,0.996c-0.534,0.769 -0.632,1.658 -1.061,2.445c-0.094,0.172 -0.229,0.316 -0.364,0.459c-1.127,1.194 -2.198,2.509 -3.48,3.542c-1.06,0.855 -2.021,1.829 -3.039,2.751c0.124,-0.113 -3.258,-5.088 -3.476,-5.429c-0.941,-1.47 -5.223,-9.32 -8.422,-9.313c-0.877,0.002 -1.808,0.103 -2.487,0.657c-0.973,0.795 -1.175,2.206 -1.069,3.458c0.135,1.595 0.668,2.916 1.406,4.126Z" style="fill:#f5a784;fill-rule:nonzero;"/><path d="M17.701,26.08c-0.554,0.274 -1.279,0.535 -2.213,0.718c-2.899,0.555 -4.485,-2.324 -4.485,-2.324l5.249,-0.562c0.092,0.209 0.189,0.411 0.294,0.607c0.294,0.555 0.698,1.097 1.155,1.561Z" style="fill:#e0855c;fill-rule:nonzero;"/><path d="M8.043,20.758c-0.945,-0.775 -0.756,-3.027 -0.412,-4.008c0.411,-1.171 1.297,-2.167 2.412,-2.712c0.74,-0.363 1.564,-0.528 2.388,-0.58c1.432,-0.092 2.918,0.167 4.132,0.934c0.869,0.55 1.584,1.381 1.942,2.35c0.369,0.997 0.081,2.093 -0.131,3.112c-0.013,0.061 -0.362,1.543 -0.593,0.981c-0.09,-0.222 -4.18,0.133 -4.532,0.14c-1.105,0.021 -2.213,0.036 -3.318,0.007c-0.458,-0.013 -1.448,0.107 -1.846,-0.191c-0.015,-0.011 -0.028,-0.021 -0.042,-0.033Z" style="fill:#3b2645;fill-rule:nonzero;"/><path d="M17.795,19.07c-0,-0 0.752,-1.124 1.722,-0.181c0.969,0.942 -0.285,3.073 -1.395,3.279c-0,-0 -0.409,-2.639 -0.327,-3.098Z" style="fill:#e0855c;fill-rule:nonzero;"/><path d="M17.282,16.104c0.636,0.534 0.824,1.864 1.028,3.336c0.616,4.452 -0.575,5.989 -2.831,6.476c-2.256,0.487 -4.737,-0.139 -5.666,-4.23c-0.465,-2.046 -0.929,-3.932 -0.27,-4.907c0.982,-1.453 5.791,-2.316 7.739,-0.675Z" style="fill:#f5a784;fill-rule:nonzero;"/><path d="M10.067,21.054c-0,-0 -0.894,-1.777 -1.892,-0.679c-0.999,1.097 0.819,3.732 2.483,3.346c-0,-0 0.013,-2.09 -0.591,-2.667Z" style="fill:#f5a784;fill-rule:nonzero;"/><path d="M14.691,20.759c0.194,-0.043 0.652,-0.001 0.727,-0.173c0.062,-0.143 -0.337,-0.908 -0.396,-1.04c-0.212,-0.476 -0.417,-0.792 -0.6,-1.371c-0.008,-0.026 0.049,-0.047 0.066,-0.022c0.536,0.739 0.808,1.693 1.17,2.498c0.021,0.045 -0.018,0.098 -0.082,0.104c-0.288,0.027 -0.561,0.103 -0.847,0.134c-0.096,0.011 -0.137,-0.108 -0.038,-0.13Z" style="fill:#e0855c;fill-rule:nonzero;"/><path d="M15.694,17.508c0.262,-0.171 0.775,-0.262 1.006,0.004c0.043,0.049 0.002,0.133 -0.059,0.137c-0.139,0.007 -0.267,-0.047 -0.406,-0.044c-0.151,0.003 -0.289,0.053 -0.425,0.112c-0.124,0.055 -0.232,-0.134 -0.116,-0.209Z" style="fill:#3b2645;fill-rule:nonzero;"/><path d="M11.659,18.275c0.116,-0.409 0.798,-0.519 1.116,-0.306c0.073,0.048 0.041,0.158 -0.029,0.188c-0.165,0.072 -0.352,0.026 -0.528,0.061c-0.155,0.031 -0.271,0.112 -0.409,0.178c-0.072,0.034 -0.172,-0.041 -0.15,-0.121Z" style="fill:#3b2645;fill-rule:nonzero;"/><path d="M13.379,19.302c-0.484,-0.276 -1.243,-0.034 -1.662,0.265c-0.048,0.034 -0.074,0.108 -0.061,0.164c0.009,0.034 0.012,0.061 0.039,0.084c0.078,0.067 0.15,0.063 0.203,0.042c0.23,-0.091 0.476,-0.18 0.72,-0.22c0.232,-0.038 0.47,0.012 0.695,-0.042c0.123,-0.029 0.198,-0.218 0.066,-0.293Z" style="fill:#3b2645;fill-rule:nonzero;"/><path d="M17.163,18.732c-0.354,-0.321 -1.304,-0.153 -1.625,0.16c-0.105,0.103 -0.035,0.296 0.124,0.269c0.251,-0.044 0.473,-0.157 0.733,-0.17c0.237,-0.012 0.469,0.087 0.7,0.043c0.154,-0.029 0.172,-0.209 0.068,-0.302Z" style="fill:#3b2645;fill-rule:nonzero;"/><path d="M9.719,21.493c-0.215,-0.14 -0.554,-0.391 -0.821,-0.314c-0.04,0.012 -0.057,0.057 -0.038,0.094c0.103,0.189 0.344,0.251 0.526,0.355c0.019,0.011 0.04,0.023 0.059,0.034c-0.097,0.099 -0.153,0.241 -0.167,0.386c-0.01,0.114 0.152,0.142 0.204,0.055c0.062,-0.1 0.125,-0.208 0.177,-0.319c0.157,0.091 0.314,0.187 0.442,0.304c0.035,0.032 0.103,0.012 0.1,-0.042c-0.015,-0.277 -0.269,-0.413 -0.482,-0.553Z" style="fill:#e0855c;fill-rule:nonzero;"/><path d="M14.516,22.9c-0,-0 0.678,-0.32 0.854,-1.038c-0,-0 0.771,0.457 1.437,0.398c-0,-0 -0.666,1.247 -2.291,0.64Zm3.923,-2.266c-0,-0 -0.281,0.895 -0.653,1.522c-0.379,0.62 -0.202,-1.051 -1.704,-1.156c-0.783,-0.059 -2.239,0.222 -2.363,1.671c-0.112,1.365 -2.507,1.261 -3.415,-0.209c-0,-0 0.49,2.756 2.494,3.356c1.998,0.608 3.865,0.17 4.903,-1.208c1.038,-1.377 0.797,-3.192 0.738,-3.976Z" style="fill:#3b2645;fill-rule:nonzero;"/><path d="M48.865,25.427c-0.097,0.072 -0.163,0.169 -0.195,0.287c-0.099,0.327 -0.32,1.064 -0.647,2.05c-0.157,-1.998 -1.096,-3.617 -1.227,-3.826c0.783,1.26 2.069,1.489 2.069,1.489Z" style="fill:#e0855c;fill-rule:nonzero;"/><path d="M75.583,36.618c-2.487,0.894 -5.066,1.861 -7.626,2.879c-9.735,3.879 -21.194,9.513 -26.365,16.793c-0,-0 1.776,-5.987 8.194,-10.988c6.32,-4.924 25.209,-8.573 25.797,-8.684Z" style="fill:#826b80;fill-rule:nonzero;"/><path d="M64.553,99.383l8.194,-0.016c-0.002,-1.04 0.839,-1.884 1.878,-1.886c1.04,-0.002 1.885,0.839 1.887,1.878l0.004,2.437c0.002,1.039 -0.839,1.884 -1.879,1.886c-1.039,0.002 -1.884,-0.839 -1.886,-1.879l-8.193,0.015c0.002,1.039 -0.839,1.884 -1.879,1.886c-1.039,0.002 -1.884,-0.839 -1.886,-1.879l-0.005,-2.435c-0.002,-1.04 0.84,-1.884 1.879,-1.886c1.04,-0.002 1.884,0.839 1.886,1.879Z" style="fill:#ab8da8;fill-rule:nonzero;"/><path d="M81.162,99.383l8.193,-0.016c-0.001,-1.04 0.839,-1.884 1.879,-1.886c1.039,-0.002 1.884,0.839 1.886,1.878l0.004,2.437c0.003,1.039 -0.839,1.884 -1.878,1.886c-1.04,0.002 -1.884,-0.839 -1.886,-1.879l-8.194,0.015c0.002,1.039 -0.839,1.884 -1.879,1.886c-1.039,0.002 -1.884,-0.839 -1.886,-1.879l-0.004,-2.435c-0.001,-1.04 0.839,-1.884 1.878,-1.886c1.04,-0.002 1.885,0.839 1.887,1.879Z" style="fill:#ab8da8;fill-rule:nonzero;"/><path d="M64.553,107.77l8.194,-0.016c-0.002,-1.039 0.839,-1.884 1.878,-1.886c1.04,-0.002 1.885,0.839 1.887,1.879l0.004,2.436c0.002,1.04 -0.839,1.883 -1.879,1.885c-1.039,0.002 -1.884,-0.838 -1.886,-1.877l-8.193,0.014c0.002,1.04 -0.839,1.885 -1.879,1.887c-1.039,0.002 -1.884,-0.84 -1.886,-1.879l-0.005,-2.437c-0.002,-1.039 0.84,-1.883 1.879,-1.885c1.04,-0.002 1.884,0.84 1.886,1.879Z" style="fill:#ab8da8;fill-rule:nonzero;"/><path d="M81.162,107.77l8.193,-0.016c-0.001,-1.039 0.839,-1.884 1.879,-1.886c1.039,-0.002 1.884,0.839 1.886,1.879l0.004,2.436c0.003,1.04 -0.839,1.883 -1.878,1.885c-1.04,0.002 -1.884,-0.838 -1.886,-1.877l-8.194,0.014c0.002,1.04 -0.839,1.885 -1.879,1.887c-1.039,0.002 -1.884,-0.84 -1.886,-1.879l-0.004,-2.437c-0.001,-1.039 0.839,-1.883 1.878,-1.885c1.04,-0.002 1.885,0.84 1.887,1.879Z" style="fill:#ab8da8;fill-rule:nonzero;"/><path d="M92.267,105.426l-30.62,-0c-0.474,-0 -0.859,-0.384 -0.859,-0.859c-0,-0.473 0.385,-0.857 0.859,-0.857l30.62,-0c0.473,-0 0.857,0.384 0.857,0.857c-0,0.475 -0.384,0.859 -0.857,0.859Z" style="fill:#c6c6c6;fill-rule:nonzero;"/><path d="M30.721,98.3c-0.052,0.202 -0.111,0.397 -0.17,0.6c-2.351,-0.026 -4.734,-0.033 -7.084,-0.176l0.019,-0.608c2.404,-0.006 4.832,0.105 7.235,0.184Z" style="fill:#e8cee5;fill-rule:nonzero;"/><path d="M31.674,94.623c-0.052,0.242 -0.105,0.484 -0.17,0.719c-2.611,0.013 -5.302,0.143 -7.933,0.039c-0,-0.105 0.005,-0.202 0.007,-0.307c0.003,-0.163 0.013,-0.327 0.013,-0.49c2.683,-0.149 5.438,-0.013 8.083,0.039Z" style="fill:#e8cee5;fill-rule:nonzero;"/><path d="M80.918,34.757c-0.229,0.079 -0.464,0.157 -0.699,0.242c-0.339,-0.98 -0.633,-1.972 -0.914,-2.932c-0.353,-1.214 -0.908,-2.677 -1.045,-4.074c0.216,-0.033 0.431,-0.072 0.646,-0.105c0.288,1.548 0.68,3.05 1.169,4.571c0.248,0.777 0.535,1.541 0.843,2.298Z" style="fill:#e8cee5;fill-rule:nonzero;"/><path d="M84.424,33.614c-0.366,0.105 -0.601,0.177 -0.666,0.196c-0.346,-0.849 -0.659,-1.704 -0.946,-2.566c-0.386,-1.142 -0.915,-2.455 -1.189,-3.754c0.254,-0.032 0.509,-0.072 0.757,-0.105c0.313,1.045 0.535,2.149 0.868,3.128c0.353,1.051 0.751,2.083 1.176,3.101Z" style="fill:#e8cee5;fill-rule:nonzero;"/></g></svg>