<?xml version="1.0" encoding="UTF-8" standalone="no"?><!DOCTYPE svg PUBLIC "-//W3C//DTD SVG 1.1//EN" "http://www.w3.org/Graphics/SVG/1.1/DTD/svg11.dtd"><svg width="100%" height="100%" viewBox="0 0 141 116" version="1.1" xmlns="http://www.w3.org/2000/svg" xmlns:xlink="http://www.w3.org/1999/xlink" xml:space="preserve" xmlns:serif="http://www.serif.com/" style="fill-rule:evenodd;clip-rule:evenodd;stroke-linejoin:round;stroke-miterlimit:2;"><g><path d="M52.235,101.816c-5.046,0.664 -11.025,0.993 -14.314,-2.893c-2.513,-2.967 -2.409,-7.248 -3.174,-11.059c-0.7,-3.483 -2.238,-6.795 -4.447,-9.578c-2.468,-3.107 -5.718,-5.519 -8.219,-8.599c-3.09,-3.803 -4.959,-8.66 -4.834,-13.559c0.126,-4.897 2.34,-9.78 6.18,-12.823c2.363,-1.871 5.217,-3.004 7.746,-4.644c10.655,-6.904 13.77,-21.275 22.997,-29.993c5.057,-4.776 11.793,-7.606 18.698,-8.442c8.831,-1.069 18.766,1.609 23.662,9.035c3.204,4.855 3.997,11.254 8.185,15.29c4.585,4.419 12.092,4.83 16.393,9.525c2.873,3.138 3.742,7.6 4.089,11.84c0.304,3.724 0.252,7.656 -1.526,10.942c-1.502,2.778 -4.231,5.149 -4.261,8.307c-0.024,2.606 1.824,4.786 3.207,6.994c3.752,5.984 4.388,13.808 1.655,20.319c-2.735,6.511 -8.767,11.535 -15.666,13.046c-7.596,1.664 -15.412,-0.744 -22.922,-2.76c-7.511,-2.017 -15.741,-3.612 -22.864,-0.491c-3.641,-1.205 -6.782,-0.957 -10.585,-0.457Z" style="fill:#f6f6f6;fill-rule:nonzero;"/><path d="M56.01,100.558l8.193,-0.016c-0.002,-1.04 0.839,-1.884 1.879,-1.886c1.04,-0.001 1.884,0.839 1.886,1.879l0.004,2.436c0.002,1.04 -0.839,1.884 -1.878,1.886c-1.04,0.002 -1.885,-0.839 -1.887,-1.879l-8.194,0.015c0.002,1.04 -0.838,1.884 -1.877,1.886c-1.041,0.002 -1.885,-0.839 -1.887,-1.878l-0.004,-2.436c-0.002,-1.039 0.839,-1.884 1.878,-1.886c1.041,-0.002 1.885,0.839 1.887,1.879Z" style="fill:#ab8da8;fill-rule:nonzero;"/><path d="M72.618,100.558l8.194,-0.016c-0.003,-1.04 0.839,-1.884 1.879,-1.886c1.04,-0.001 1.884,0.839 1.886,1.879l0.005,2.436c0.001,1.04 -0.84,1.884 -1.879,1.886c-1.04,0.002 -1.885,-0.839 -1.886,-1.879l-8.194,0.015c0.001,1.04 -0.839,1.884 -1.879,1.886c-1.039,0.002 -1.885,-0.839 -1.885,-1.878l-0.005,-2.436c-0.002,-1.039 0.839,-1.884 1.879,-1.886c1.039,-0.002 1.883,0.839 1.885,1.879Z" style="fill:#ab8da8;fill-rule:nonzero;"/><path d="M56.01,108.946l8.193,-0.016c-0.002,-1.04 0.839,-1.884 1.879,-1.886c1.04,-0.003 1.884,0.839 1.886,1.878l0.004,2.437c0.002,1.039 -0.839,1.883 -1.878,1.885c-1.04,0.002 -1.885,-0.839 -1.887,-1.879l-8.194,0.016c0.002,1.039 -0.838,1.884 -1.877,1.886c-1.041,0.002 -1.885,-0.839 -1.887,-1.879l-0.004,-2.436c-0.002,-1.04 0.839,-1.883 1.878,-1.885c1.041,-0.002 1.885,0.838 1.887,1.879Z" style="fill:#ab8da8;fill-rule:nonzero;"/><path d="M72.618,108.946l8.194,-0.016c-0.003,-1.04 0.839,-1.884 1.879,-1.886c1.04,-0.003 1.884,0.839 1.886,1.878l0.005,2.437c0.001,1.039 -0.84,1.883 -1.879,1.885c-1.04,0.002 -1.885,-0.839 -1.886,-1.879l-8.194,0.016c0.001,1.039 -0.839,1.884 -1.879,1.886c-1.039,0.002 -1.885,-0.839 -1.885,-1.879l-0.005,-2.436c-0.002,-1.04 0.839,-1.883 1.879,-1.885c1.039,-0.002 1.883,0.838 1.885,1.879Z" style="fill:#ab8da8;fill-rule:nonzero;"/><path d="M83.723,106.601l-30.62,-0c-0.473,-0 -0.858,-0.384 -0.858,-0.858c-0,-0.474 0.385,-0.858 0.858,-0.858l30.62,-0c0.473,-0 0.859,0.384 0.859,0.858c-0,0.474 -0.386,0.858 -0.859,0.858Z" style="fill:#c6c6c6;fill-rule:nonzero;"/><path d="M139.391,113.218c-1.071,-0.117 -2.14,-0.202 -3.224,-0.254c-0.302,-0.014 -9.425,0.062 -11.438,0.008c-0.041,-0.002 -0.08,-0.006 -0.12,-0.008c-0.302,-0.014 -76.32,-0.046 -76.32,-0.046c-0.066,0.007 -0.131,0.007 -0.196,0.013c-0.028,0.002 -0.056,0.005 -0.084,0.008c-3.407,-0.006 -11.278,-0.021 -11.278,-0.021c-0.066,0.007 -0.131,0.007 -0.197,0.013c-0.08,0.006 -0.161,0.015 -0.243,0.021c-1.63,-0 -22.232,-0.034 -22.232,-0.034c-0.066,0.007 -0.13,0.007 -0.196,0.013c-0.027,0.002 -0.055,0.006 -0.084,0.008c-3.407,-0.006 -11.278,-0.021 -11.278,-0.021c-0.065,0.007 -0.13,0.007 -0.196,0.013c-0.47,0.033 -0.94,0.072 -1.404,0.124c-1.201,0.124 -1.201,1.737 0,1.861c0.471,0.052 0.934,0.091 1.404,0.131c0.059,0.006 0.124,0.006 0.183,0.013c-0,-0 7.663,-0.016 11.286,-0.022c0.03,0.003 0.059,0.006 0.089,0.009c0.059,0.006 0.123,0.006 0.183,0.013c-0,-0 14.962,-0.03 22.234,-0.037c0.085,0.008 0.17,0.016 0.254,0.024c0.06,0.006 0.124,0.006 0.184,0.013c-0,-0 7.662,-0.016 11.285,-0.022c0.031,0.003 0.06,0.006 0.09,0.009c0.058,0.006 0.124,0.006 0.183,0.013c-0,-0 76.031,-0.039 76.339,-0.053c0.041,-0.002 0.08,-0.006 0.121,-0.008c2.012,-0.053 11.129,0.022 11.437,0.008c1.084,-0.052 2.155,-0.137 3.218,-0.254c0.98,-0.111 0.987,-1.424 0,-1.535Z" style="fill:#c6c6c6;fill-rule:nonzero;"/><path d="M85.697,46.738c0.499,2.883 1.351,5.711 2.66,8.331c1.47,2.941 3.823,6.216 7.138,7.248c4.194,1.304 8.767,-11.373 9.338,-13.01c0.039,-0.111 0.109,-0.204 0.205,-0.271c0.632,-0.441 3.075,-2.307 1.834,-4.044c-1.359,-1.897 -4.342,-3.405 -5.376,1.305c-0.422,1.921 -1.692,3.736 -2.748,5.358c-0.848,1.304 -1.709,2.724 -2.747,3.882c-1.163,-4.393 -1.617,-8.91 -3.168,-13.237c-0.389,-1.086 -0.837,-2.18 -1.609,-3.037c-0.77,-0.858 -1.926,-1.447 -3.065,-1.267c-1.249,0.2 -2.215,1.287 -2.612,2.488c-0.397,1.201 -0.327,2.502 -0.195,3.759c0.088,0.833 0.202,1.666 0.345,2.495Z" style="fill:#f5a784;fill-rule:nonzero;"/><path d="M75.425,72.375c12.984,6.566 29.681,12.819 29.681,12.819c-0.859,1.609 -1.401,5.009 -1.743,8.821c-0.676,7.65 -0.55,16.994 -0.55,16.994c2.328,1.386 4.586,0.428 4.586,0.428c1.631,-7.572 9.065,-27.444 5.865,-30.825c-5.332,-5.637 -26.675,-18.225 -30.478,-19.532c-2.625,-0.894 -5.352,-1.154 -7.042,0.537c-0.711,0.714 -1.247,1.783 -1.507,3.294c-0.031,0.188 -0.058,0.374 -0.076,0.56c-0.516,5.118 -4.708,3.885 1.264,6.904Z" style="fill:#f5a784;fill-rule:nonzero;"/><path d="M9.04,113.632c-1.515,-2.533 6.11,-7.272 8.397,-8.736c0.207,-0.128 0.361,-0.233 0.472,-0.308c0.861,-0.59 3.297,-3.201 3.747,-3.684c2.276,-2.443 4.505,-4.605 6.634,-6.525c8.34,-7.501 15.216,-11.262 16.214,-12.196c3.853,-3.619 7.44,-6.662 10.675,-9.204c10.545,-8.285 17.071,-13.439 17.071,-13.439c1.389,-0.512 2.931,1.427 4.011,1.315c6.64,-0.691 7.449,5.447 0.847,11.191c-7.685,6.68 -28.081,17.361 -28.081,17.361c-4.75,4.361 -11.023,8.509 -15.986,11.485c-1.826,1.098 -3.48,2.045 -4.813,2.782l0.076,0.026c-0,-0 -6.149,3.29 -8.304,4.61c-0.314,0.198 -0.538,0.354 -0.653,0.446c-1.604,1.377 -8.649,7.644 -10.307,4.876Z" style="fill:#f5a784;fill-rule:nonzero;"/><path d="M9.04,113.632c-0.537,-0.9 0.075,-2.073 1.191,-3.28c2.026,-2.2 5.727,-4.507 7.206,-5.456c0.898,0.203 1.69,0.646 2.158,1.389c0.376,0.605 0.494,1.319 0.405,2.025c-0.314,0.198 -0.538,0.354 -0.653,0.446c-0.943,0.81 -3.786,3.326 -6.294,4.682c-1.746,0.943 -3.333,1.328 -4.013,0.194Z" style="fill:#3b2645;fill-rule:nonzero;"/><path d="M18.243,108.023c0.04,-0.424 -0.113,-0.713 -0.363,-1.054c-0.276,-0.374 -0.537,-0.492 -0.953,-0.649c0.099,0.136 0.156,0.293 0.248,0.432c0.108,0.165 0.239,0.314 0.343,0.483c0.181,0.294 0.294,0.585 0.506,0.859c0.068,0.089 0.21,0.033 0.219,-0.071Z" style="fill:#e8cee5;fill-rule:nonzero;"/><path d="M17.391,108.78c0.057,-0.399 -0.201,-0.814 -0.413,-1.135c-0.204,-0.311 -0.459,-0.681 -0.851,-0.741c-0.083,-0.013 -0.153,0.077 -0.138,0.154c0.068,0.339 0.354,0.594 0.521,0.888c0.175,0.307 0.258,0.693 0.488,0.962c0.132,0.155 0.366,0.061 0.393,-0.128Z" style="fill:#e8cee5;fill-rule:nonzero;"/><path d="M15.832,108.848c-0.098,-0.428 -0.282,-0.817 -0.578,-1.145c-0.11,-0.122 -0.346,-0.033 -0.304,0.144c0.104,0.43 0.313,0.806 0.611,1.129c0.1,0.107 0.307,0.03 0.271,-0.128Z" style="fill:#e8cee5;fill-rule:nonzero;"/><path d="M9.04,113.632c-0.537,-0.9 0.075,-2.073 1.191,-3.28c0.722,0.041 1.44,0.323 1.971,0.789c0.741,0.652 0.921,1.459 0.851,2.297c-1.746,0.943 -3.333,1.328 -4.013,0.194Z" style="fill:#e8cee5;fill-rule:nonzero;"/><path d="M84.975,29.678c-2.157,-0.35 -4.312,-0.728 -6.452,-1.172c-1.258,-0.261 -2.598,-0.135 -3.206,-1.48c-0.486,-1.075 -0.34,-2.513 0.24,-3.501c0.561,-0.954 1.509,-1.643 2.55,-2.017c1.04,-0.373 2.169,-0.447 3.27,-0.357c1.568,0.129 3.218,0.661 4.149,1.929c0.638,0.869 0.841,1.953 0.885,3.008c0.045,1.059 -0.222,1.732 -0.631,2.691c-0.051,0.123 -0.409,1.124 -0.662,1.058c-0.067,-0.017 -0.127,-0.157 -0.143,-0.159Z" style="fill:#3b2645;fill-rule:nonzero;"/><path d="M85.347,27.953c0,-0 0.965,-0.948 1.722,0.171c0.76,1.119 -0.902,2.953 -2.029,2.929c-0,-0 0.134,-2.667 0.307,-3.1Z" style="fill:#e0855c;fill-rule:nonzero;"/><path d="M68.103,38.357c0.368,1.282 1.733,5.94 2.166,9.953c0.034,0.32 0.06,0.613 0.077,0.906c0.128,2.082 0.157,11.954 0.161,13.509c0.001,0.131 -0.005,0.202 -0.005,0.202c7.086,2.733 14.801,1.721 15.781,1.597c0.072,-0.009 0.104,-0.014 0.104,-0.014c0.012,-0.085 0.04,-0.222 0.084,-0.433c0.402,-1.865 1.876,-9.519 3.009,-16.255c0.018,-0.105 0.035,-0.204 0.054,-0.309c0.584,-3.476 1.645,-5.729 1.807,-7.729c0.06,-0.739 -2.236,-1.786 -3.397,-2.062c-0.169,-0.044 -0.346,-0.08 -0.522,-0.117c-0.917,-0.209 -1.846,-0.365 -2.592,-0.471c-0.452,-0.06 -1.539,-0.183 -1.539,-0.183l0.022,-3.997c-0.131,0.015 -0.268,0.032 -0.398,0.027c-0.262,0.023 -0.515,0.017 -0.759,0.004c-0.332,-0.019 -0.64,-0.05 -0.927,-0.105c-0.151,-0.03 -0.296,-0.054 -0.426,-0.085c-0.197,-0.05 -0.394,-0.099 -0.578,-0.162c-0.308,-0.093 -0.611,-0.206 -0.886,-0.333c-0.086,-0.038 -0.171,-0.069 -0.25,-0.12c-0.026,-0.007 -0.052,-0.013 -0.065,-0.032c-0.067,-0.032 -0.133,-0.064 -0.198,-0.095c-0.401,-0.21 -0.744,-0.434 -1.014,-0.639c-0.179,-0.134 -0.33,-0.25 -0.456,-0.352c-0.039,-0.039 -0.059,-0.052 -0.08,-0.072c-0.065,-0.059 -0.118,-0.102 -0.158,-0.147c-0.06,-0.052 -0.103,-0.087 -0.109,-0.106l0.003,0.087c0.009,0.066 0.014,0.124 0.016,0.19c0.023,0.66 0.028,1.502 -0.018,2.338c-0.018,0.575 -0.05,1.143 -0.081,1.64c-0.06,0.856 -0.124,1.471 -0.124,1.471c-0.182,-0.017 -0.372,-0.034 -0.561,-0.031c-0.013,-0.006 -0.039,-0.013 -0.058,-0.006c-0.105,-0.005 -0.209,-0.01 -0.308,-0.009c-0.744,-0.028 -1.463,-0.004 -2.134,0.051c-0.301,0.024 -0.588,0.062 -0.869,0.098c-2.254,0.313 -3.896,0.962 -4.544,1.278c-0.195,0.095 -0.289,0.306 -0.228,0.513Z" style="fill:#f5a784;fill-rule:nonzero;"/><path d="M77.009,30.737c0.549,4.649 5.156,4.789 6.291,4.293l0.013,-2.076c-3.85,0.395 -6.304,-2.217 -6.304,-2.217Z" style="fill:#e0855c;fill-rule:nonzero;"/><path d="M85.447,24.945c0.513,0.652 0.428,1.992 0.329,3.474c-0.299,4.486 -1.778,5.749 -4.085,5.768c-2.309,0.019 -4.611,-1.097 -4.691,-5.291c-0.04,-2.098 -0.113,-4.039 0.732,-4.86c1.255,-1.223 6.141,-1.093 7.715,0.909Z" style="fill:#f5a784;fill-rule:nonzero;"/><path d="M77.377,28.328c0,-0 -0.516,-1.921 -1.715,-1.048c-1.201,0.872 0.045,3.82 1.753,3.78c0,-0 0.437,-2.044 -0.038,-2.732Z" style="fill:#f5a784;fill-rule:nonzero;"/><path d="M83.825,28.117c-0,-0 0.371,0.183 0.381,-0.507c0.009,-0.621 -0.276,-0.565 -0.276,-0.565c0,-0 -0.267,-0.028 -0.28,0.514c-0.013,0.542 0.175,0.558 0.175,0.558Z" style="fill:#3b2645;fill-rule:nonzero;"/><path d="M79.906,27.729c0,-0 0.372,0.181 0.382,-0.508c0.009,-0.621 -0.276,-0.566 -0.276,-0.566c0,-0 -0.267,-0.028 -0.28,0.514c-0.013,0.543 0.174,0.56 0.174,0.56Z" style="fill:#3b2645;fill-rule:nonzero;"/><path d="M81.887,29.766c0.199,-0.01 0.637,0.152 0.75,-0.05c0.094,-0.169 -0.117,-1.239 -0.144,-1.422c-0.097,-0.659 -0.223,-1.11 -0.268,-1.893c-0.002,-0.035 0.059,-0.047 0.07,-0.012c0.353,1.069 0.396,2.352 0.562,3.467c0.009,0.06 -0.041,0.12 -0.106,0.112c-0.286,-0.033 -0.572,-0 -0.857,-0.027c-0.096,-0.009 -0.108,-0.169 -0.007,-0.175Z" style="fill:#e0855c;fill-rule:nonzero;"/><path d="M83.608,25.997c0.29,-0.113 0.811,-0.099 0.984,0.208c0.031,0.057 -0.025,0.131 -0.086,0.121c-0.137,-0.02 -0.253,-0.098 -0.389,-0.124c-0.148,-0.027 -0.293,-0.007 -0.439,0.024c-0.133,0.028 -0.199,-0.179 -0.07,-0.229Z" style="fill:#3b2645;fill-rule:nonzero;"/><path d="M79.499,25.931c0.197,-0.378 0.888,-0.347 1.155,-0.074c0.062,0.062 0.01,0.163 -0.065,0.178c-0.176,0.036 -0.352,-0.046 -0.531,-0.047c-0.157,-0.001 -0.286,0.054 -0.436,0.091c-0.078,0.019 -0.161,-0.075 -0.123,-0.148Z" style="fill:#3b2645;fill-rule:nonzero;"/><path d="M80.759,30.611c0.451,0.171 0.715,0.473 1.233,0.508c0.26,0.018 0.509,-0.004 0.753,-0.106c0.138,-0.058 0.127,-0.083 0.275,-0.095c0.048,-0.004 0.075,0.047 0.069,0.09c-0.072,0.437 -0.757,0.442 -1.093,0.428c-0.532,-0.024 -1.035,-0.234 -1.333,-0.697c-0.039,-0.059 0.024,-0.156 0.096,-0.128Z" style="fill:#e0855c;fill-rule:nonzero;"/><path d="M89.48,47.822c-0,2.73 -0.835,5.388 -1.411,8.033c-0.28,1.305 -0.495,2.624 -0.666,3.956c-0.124,1.006 -0.169,2.011 -0.235,3.023c-0.006,0.196 -0.019,0.392 -0.085,0.574c-0.378,1.052 -2.585,1.208 -3.526,1.261c-2.096,0.105 -4.264,0.098 -6.352,-0.189c-2.665,-0.366 -5.211,-1.196 -7.327,-2.827c0.111,-0.268 0.203,-0.536 0.274,-0.803c0.438,-1.522 0.341,-2.958 0.328,-4.63c-0.008,-0.679 -0.014,-1.357 -0.027,-2.024c-0.02,-2.201 -0.052,-4.166 -0.105,-4.956c1.078,-1.462 2.625,-4.1 2.919,-7.717c0.124,-1.489 0.034,-3.149 -0.392,-4.957c0.281,-0.039 0.568,-0.078 0.869,-0.098c0.672,-0.059 1.39,-0.077 2.134,-0.051c0.419,2.423 1.588,6.634 5.538,6.059c3.343,-0.496 3.551,-3.592 3.414,-5.342c0.744,0.104 1.671,0.262 2.592,0.471c0.62,2.455 2.058,5.359 2.058,10.217Z" style="fill:#3b2645;fill-rule:nonzero;"/><path d="M114.93,112.032c0.021,1.737 -2.533,2.004 -3.781,2.096c-2.088,0.151 -4.001,-0.352 -6.052,-0.457c-0.508,-0.026 -1.03,-0.046 -1.515,-0.228c-0.47,-0.183 -0.892,-0.544 -1.025,-1.033c-0.012,-0.046 -0.018,-0.065 -0.018,-0.09c-0.046,-0.229 -0.02,-0.464 -0,-0.706c0.005,-0.084 0.012,-0.157 0.026,-0.228c0.039,-0.588 -0.183,-1.137 -0.15,-1.698c0.018,-0.326 0.163,-0.862 0.437,-0.333c0.431,0.836 1.952,0.497 1.952,0.497c-0.379,-1.222 1.253,-2.11 2.534,-2.207c0.542,-0.046 0.861,0.372 1.279,0.875c0.117,0.124 0.235,0.26 0.371,0.404c0.021,0.013 0.034,0.033 0.053,0.053c0.013,0.006 0.027,0.019 0.04,0.032c0.019,0.02 0.032,0.032 0.051,0.053c0.101,0.102 0.209,0.195 0.334,0.287c0.026,0.025 0.058,0.045 0.091,0.071c0.052,0.033 0.073,0.039 0.092,0.053c0.072,0.046 0.151,0.098 0.229,0.132c0.123,0.065 0.254,0.127 0.396,0.181c0.067,0.025 0.093,0.033 0.125,0.045c0.138,0.046 0.281,0.082 0.438,0.112c0.282,0.052 0.601,0.085 0.953,0.078c0.125,-0 0.241,-0 0.353,0.007c1.39,0.045 2.095,0.554 2.435,1.05c0.065,0.085 0.112,0.177 0.151,0.255c0.084,0.157 0.13,0.301 0.155,0.418c0.007,0.039 0.02,0.078 0.02,0.112c0.008,0.032 0.008,0.065 0.013,0.084c0.006,0.059 0.013,0.085 0.013,0.085Z" style="fill:#3b2645;fill-rule:nonzero;"/><path d="M109.408,111.039c0.375,-0.308 0.58,-0.855 0.899,-1.237c-0.177,-0.07 -0.309,-0.132 -0.429,-0.197c-0.328,0.348 -0.735,0.825 -0.735,1.3c0.002,0.138 0.149,0.229 0.265,0.134Z" style="fill:#e8cee5;fill-rule:nonzero;"/><path d="M114.93,112.032c0.021,1.737 -2.533,2.004 -3.781,2.096c-2.088,0.151 -4.001,-0.352 -6.052,-0.457c-0.508,-0.026 -1.03,-0.046 -1.515,-0.228c-0.47,-0.183 -0.901,-0.542 -1.025,-1.033c1.744,0.687 3.637,0.641 5.525,0.79c1.018,0.08 2.22,0.223 3.33,0.151c-0.439,-1.208 -0.079,-2.448 0.731,-3.323c1.39,0.045 2.095,0.554 2.435,1.05c0.065,0.085 0.112,0.177 0.151,0.255c0.084,0.157 0.13,0.301 0.155,0.418c0,0.039 0.015,0.072 0.02,0.112c0.008,0.032 0.008,0.065 0.013,0.084c0.006,0.059 0.013,0.085 0.013,0.085Z" style="fill:#e8cee5;fill-rule:nonzero;"/><path d="M109.557,109.42c-0.112,0.053 -0.216,0.118 -0.321,0.203c-0.364,0.287 -0.645,0.666 -0.848,1.083c-0.124,0.242 -0.548,0.066 -0.444,-0.182c0.216,-0.509 0.523,-0.941 0.954,-1.286c0.072,-0.059 0.15,-0.118 0.234,-0.176c0.099,0.103 0.209,0.195 0.334,0.287c0.026,0.025 0.058,0.045 0.091,0.071Z" style="fill:#e8cee5;fill-rule:nonzero;"/><path d="M81.416,57.389c-0.084,0.143 -1.756,3.669 -4.211,7.091c-2.665,-0.366 -5.211,-1.196 -7.327,-2.827c0.111,-0.268 0.203,-0.536 0.274,-0.803c0.438,-1.522 0.341,-2.958 0.328,-4.63c-0.008,-0.679 -0.014,-1.357 -0.027,-2.024l1.795,3.728l9.168,-0.535Z" style="fill:#291b30;fill-rule:nonzero;"/><path d="M65.857,46.738c0.499,2.883 1.35,5.711 2.658,8.331c1.47,2.941 3.824,6.216 7.137,7.248c4.194,1.304 8.768,-11.373 9.341,-13.01c0.037,-0.111 0.109,-0.204 0.203,-0.271c0.634,-0.441 3.078,-2.307 1.834,-4.044c-1.357,-1.897 -4.339,-3.405 -5.376,1.305c-0.421,1.921 -1.691,3.736 -2.748,5.358c-0.848,1.304 -1.71,2.724 -2.746,3.882c-1.163,-4.393 -1.618,-8.91 -3.168,-13.237c-0.388,-1.086 -0.839,-2.18 -1.609,-3.037c-0.772,-0.858 -1.927,-1.447 -3.065,-1.267c-1.25,0.2 -2.214,1.287 -2.612,2.488c-0.399,1.201 -0.328,2.502 -0.195,3.759c0.087,0.833 0.202,1.666 0.346,2.495Z" style="fill:#f5a784;fill-rule:nonzero;"/><path d="M102.408,72.387c-1.294,3.637 -3.127,6.207 -4.678,7.887c-1.713,1.852 -3.099,2.644 -3.099,2.644c-1.339,-1.502 -18.236,-9.055 -18.236,-9.055l-17.609,12.203c-3.18,-1.261 -5.302,-3.109 -6.679,-4.774c-0.178,-0.215 -0.341,-0.424 -0.49,-0.627c-0.236,-0.313 -0.438,-0.62 -0.621,-0.907c-0.177,-0.274 -0.327,-0.535 -0.457,-0.77c-0.523,-0.96 -0.719,-1.593 -0.719,-1.593c8.71,-10.023 20.058,-15.742 20.058,-15.742c0.079,0.039 0.163,0.078 0.242,0.117c0.346,0.163 0.693,0.313 1.039,0.451c0.593,0.248 1.187,0.457 1.782,0.64c0.333,0.097 0.666,0.189 0.992,0.267c6.908,1.731 13.235,-0.294 13.235,-0.294l15.24,9.553Z" style="fill:#3b2645;fill-rule:nonzero;"/><path d="M97.73,80.274c-1.711,1.847 -3.099,2.644 -3.099,2.644c-1.339,-1.502 -18.236,-9.055 -18.236,-9.055c-0,-0 2.95,-1.614 7.672,0.887c3.545,1.874 10.438,4.388 13.663,5.524Z" style="fill:#291b30;fill-rule:nonzero;"/><path d="M71.159,62.221c-3.167,3.114 -6.576,6.039 -10.05,8.742c-2.042,1.593 -4.197,3.043 -6.15,4.747c-1.436,1.253 -2.683,2.657 -3.963,4.048c-0.177,-0.274 -0.327,-0.535 -0.457,-0.77c2.553,-3.226 6.085,-5.726 9.297,-8.188c3.644,-2.781 6.915,-5.955 10.284,-9.03c0.346,0.163 0.693,0.313 1.039,0.451Z" style="fill:#e8cee5;fill-rule:nonzero;"/><path d="M73.933,63.128c-0.796,0.921 -1.645,1.789 -2.573,2.586c-2.135,1.828 -4.44,3.474 -6.667,5.184c-2.479,1.913 -4.993,3.787 -7.435,5.752c-1.815,1.456 -3.468,3.062 -5.151,4.642c-0.178,-0.215 -0.341,-0.424 -0.49,-0.627c1.396,-1.553 3.042,-2.931 4.603,-4.237c2.14,-1.789 4.361,-3.474 6.574,-5.171c2.501,-1.926 5.074,-3.794 7.509,-5.811c0.959,-0.796 1.821,-1.665 2.638,-2.585c0.333,0.097 0.666,0.189 0.992,0.267Z" style="fill:#e8cee5;fill-rule:nonzero;"/><path d="M55.047,47.29c-3.215,-0.106 -6.457,0.263 -9.674,0.323c-3.229,0.061 -6.458,-0.076 -9.684,-0.007c-0.328,0.007 -0.309,0.458 -0,0.495c3.307,0.4 6.681,0.389 10.006,0.337c3.123,-0.048 6.347,-0.039 9.418,-0.652c0.288,-0.057 0.208,-0.486 -0.066,-0.496Z" style="fill:#e8cee5;fill-rule:nonzero;"/><path d="M59.145,36.718c-3.275,-2.111 -7.136,-3.543 -10.722,-5.045c-0.267,-0.111 -0.45,0.334 -0.196,0.467c3.439,1.803 7.01,3.859 10.725,5.034c0.279,0.089 0.423,-0.308 0.193,-0.456Z" style="fill:#e8cee5;fill-rule:nonzero;"/><path d="M69.568,24.467c-2.056,-4.244 -5.079,-8.171 -7.628,-12.136c-2.461,-3.826 -4.774,-7.891 -7.582,-11.473c-0.162,-0.205 -0.453,0.055 -0.346,0.265c2.156,4.223 5.005,8.185 7.546,12.185c2.431,3.826 4.644,8.029 7.519,11.539c0.239,0.292 0.638,-0.079 0.491,-0.38Z" style="fill:#e8cee5;fill-rule:nonzero;"/><path d="M75.682,9.464c-0.28,-1.404 -0.418,-2.845 -0.746,-4.237c-0.044,-0.183 -0.308,-0.133 -0.316,0.043c-0.131,2.496 0.292,5.713 1.159,8.051c0.126,0.337 0.743,0.327 0.687,-0.093c-0.166,-1.27 -0.534,-2.507 -0.784,-3.764Z" style="fill:#e8cee5;fill-rule:nonzero;"/></g></svg>