<?xml version="1.0" encoding="UTF-8" standalone="no"?><!DOCTYPE svg PUBLIC "-//W3C//DTD SVG 1.1//EN" "http://www.w3.org/Graphics/SVG/1.1/DTD/svg11.dtd"><svg width="100%" height="100%" viewBox="0 0 103 135" version="1.1" xmlns="http://www.w3.org/2000/svg" xmlns:xlink="http://www.w3.org/1999/xlink" xml:space="preserve" xmlns:serif="http://www.serif.com/" style="fill-rule:evenodd;clip-rule:evenodd;stroke-linejoin:round;stroke-miterlimit:2;"><g><path d="M15.703,112.675c-1.188,-4.518 -1.195,-9.453 -2.211,-13.991c-1.343,-5.997 -4.339,-11.469 -7.153,-16.932c-2.814,-5.462 -5.519,-11.141 -6.196,-17.249c-0.677,-6.108 1.013,-12.802 5.732,-16.74c2.982,-2.488 6.867,-3.669 9.933,-6.054c4.349,-3.383 6.578,-8.793 8.091,-14.091c1.513,-5.299 2.533,-10.83 5.238,-15.631c4.181,-7.423 12.604,-12.416 21.112,-11.958c8.507,0.459 16.552,6.66 18.643,14.92c0.77,3.039 0.801,6.311 2.223,9.106c2.04,4.008 6.425,6.129 10.418,8.198c6.89,3.571 13.681,8.008 17.732,14.627c4.052,6.619 4.638,15.88 -0.43,21.756c-6.148,7.128 -18.48,7.543 -22.793,15.909c-2.685,5.21 -1.096,11.534 0.903,17.043c1.998,5.51 4.398,11.315 3.15,17.04c-1.709,7.836 -9.745,12.719 -17.568,14.489c-6.197,1.402 -12.584,1.006 -18.866,0.821c-5.84,-0.171 -11.629,-2.05 -16.43,-5.385c-4.554,-3.163 -8.187,-7.615 -10.428,-12.683c-0.456,-1.033 -0.813,-2.102 -1.1,-3.195Z" style="fill:#f6f6f6;fill-rule:nonzero;"/><path d="M48.387,130.815c-2.023,0 -4.012,-0.21 -5.935,-0.634c-7.098,-1.563 -13.117,-6.088 -16.1,-12.104c-1.404,-2.834 -2.14,-5.962 -2.852,-8.988l-0.141,-0.592c-2.013,-8.517 -4.518,-17.522 -9.171,-25.668c-0.748,-1.311 -1.565,-2.618 -2.355,-3.882c-1.794,-2.871 -3.649,-5.841 -4.852,-9.074c-2.029,-5.457 -1.612,-10.857 1.116,-14.444c0.973,-1.279 2.047,-2.004 3.191,-2.152c0.766,-0.105 1.618,0.153 2.22,0.662c0.5,0.422 0.788,0.978 0.812,1.569l-0.652,0.026c-0.017,-0.405 -0.223,-0.794 -0.581,-1.096c-0.467,-0.395 -1.124,-0.59 -1.715,-0.515c-1.202,0.158 -2.162,1.12 -2.756,1.901c-2.592,3.408 -2.974,8.575 -1.023,13.82c1.18,3.173 3.017,6.113 4.794,8.957c0.793,1.27 1.613,2.582 2.368,3.903c4.695,8.219 7.215,17.278 9.24,25.842l0.14,0.594c0.703,2.989 1.431,6.08 2.802,8.848c2.896,5.839 8.748,10.234 15.656,11.756c6.27,1.382 13.291,0.428 19.766,-2.685c2.82,-1.356 4.948,-2.855 6.505,-4.584c2.033,-2.257 3.294,-5.143 4.261,-7.666c1.673,-4.377 2.959,-8.991 4.202,-13.453c1.85,-6.64 3.763,-13.506 6.995,-19.727c0.946,-1.82 2.018,-3.61 3.055,-5.343c1.872,-3.124 3.807,-6.355 5.029,-9.826c1.149,-3.264 1.205,-5.949 0.166,-7.98c-0.67,-1.308 -2.073,-2.337 -3.577,-2.621c-1.154,-0.217 -2.216,0.036 -2.984,0.714l-0.433,-0.489c0.923,-0.815 2.179,-1.122 3.538,-0.867c1.695,0.32 3.279,1.484 4.037,2.966c1.124,2.196 1.08,5.054 -0.131,8.494c-1.244,3.532 -3.197,6.793 -5.084,9.945c-1.033,1.724 -2.1,3.505 -3.037,5.308c-3.2,6.161 -5.104,12.994 -6.945,19.602c-1.247,4.476 -2.537,9.105 -4.222,13.509c-0.987,2.581 -2.28,5.534 -4.385,7.871c-1.615,1.793 -3.809,3.342 -6.707,4.735c-4.626,2.224 -9.53,3.368 -14.255,3.368Z" style="fill:#ab8da8;fill-rule:nonzero;"/><path d="M55.73,14.373c0.53,-0.627 0.794,-1.937 0.86,-2.738c0.072,-0.87 -0.148,-1.804 -0.773,-2.414c-0.25,-0.244 -0.556,-0.429 -0.785,-0.691c-0.207,-0.238 -0.343,-0.529 -0.533,-0.779c-0.408,-0.538 -1.076,-0.867 -1.75,-0.865c-0.689,0.003 -1.419,0.322 -2.037,0.018c-0.363,-0.179 -0.604,-0.542 -0.957,-0.74c-0.366,-0.207 -0.817,-0.213 -1.228,-0.124c-0.37,0.08 -0.739,0.232 -1.113,0.175c-0.541,-0.082 -0.918,-0.567 -1.396,-0.834c-1.039,-0.578 -2.33,0.043 -2.676,1.13c-0.078,0.246 -0.061,0.514 -0.015,0.768c0.11,0.613 0.533,1.103 0.56,1.711c0.025,0.572 -0.342,1.141 0.023,1.677c0.287,0.42 0.841,0.558 1.078,1.07c0.321,0.691 0.045,1.589 0.287,2.338c0.151,0.468 0.237,1.136 0.678,1.44c0.609,0.42 1.942,0.069 2.665,0.016c0.944,-0.071 1.886,-0.148 2.827,-0.234c1.254,-0.115 2.79,0.043 3.921,-0.617c0.14,-0.082 0.261,-0.186 0.364,-0.307Z" style="fill:#3b2645;fill-rule:nonzero;"/><path d="M46.128,13.933c0,0 -0.865,-1.039 -1.731,0c-0.866,1.039 0.606,3.027 1.731,3.115c0,0 0.13,-2.668 0,-3.115Z" style="fill:#e0855c;fill-rule:nonzero;"/><path d="M60.182,30.685c-0.163,1.731 -0.724,3.311 -1.064,5.015c-0.065,0.306 -0.124,0.607 -0.17,0.901c-0.032,0.215 -0.078,0.509 -0.124,0.881c-0.013,0.072 -0.019,0.143 -0.026,0.216c-0.039,0.241 -0.072,0.496 -0.098,0.763c-0.006,0.053 -1.26,11.747 -1.26,11.747c-7.835,2.154 -15.957,0 -15.957,0c0,0 -0.013,-0.151 -0.046,-0.438c-0.131,-1.332 -0.529,-5.562 -0.927,-10.329c0,-0.039 -0.006,-0.072 -0.007,-0.105c-0.003,-0.137 -0.013,-0.215 -0.013,-0.215c-0.17,-2.018 -0.333,-4.12 -0.464,-6.138c-0.234,-3.513 -0.391,-6.751 -0.352,-8.762c0.013,-0.738 1.724,-0.656 2.906,-0.822c0.868,-0.122 1.762,-0.196 2.533,-0.242c0.724,-0.039 1.345,-0.059 1.737,-0.059c0.071,-0.007 0.137,-0.007 0.195,-0.007l0.242,0c0,0 0.105,-1.148 0.105,-1.162l0.267,-2.817c0.131,0.026 0.261,0.055 0.399,0.068c0.254,0.046 0.503,0.069 0.75,0.079c0.334,0.014 0.64,0.013 0.934,-0.013c0.144,-0.013 0.294,-0.026 0.431,-0.045c0.085,-0.014 0.164,-0.027 0.242,-0.034c0.28,-0.045 0.555,-0.104 0.809,-0.175c0.163,-0.046 0.327,-0.099 0.484,-0.151c0.946,-0.313 1.66,-0.741 2.063,-1.025c0.045,-0.032 0.065,-0.045 0.085,-0.059c0.072,-0.05 0.13,-0.097 0.176,-0.131c0.065,-0.045 0.104,-0.078 0.117,-0.09c-0.026,0.143 -0.037,0.202 -0.045,0.267c-0.082,0.656 -0.177,1.495 -0.216,2.331c-0.039,0.575 -0.059,1.143 -0.078,1.639c-0.013,0.45 -0.183,1.194 0.17,1.442c0.091,0.066 0.235,0.116 0.398,0.151c0.518,0.114 1.292,0.117 1.658,0.111c0.17,0 0.346,-0.014 0.516,-0.026c0.425,-0.027 0.849,-0.066 1.273,-0.039c0.595,0.032 1.221,0.215 1.607,0.672c0.326,0.378 0.444,0.888 0.535,1.377c0.046,0.275 0.085,0.542 0.124,0.817c0.196,1.456 0.228,2.938 0.091,4.407Z" style="fill:#f5a784;fill-rule:nonzero;"/><path d="M54.154,17.524c-1.007,4.572 -5.608,4.259 -6.688,3.653l0.193,-2.065c3.791,0.774 6.495,-1.588 6.495,-1.588Z" style="fill:#e0855c;fill-rule:nonzero;"/><path d="M46.326,10.929c-0.575,0.599 -0.623,1.941 -0.671,3.425c-0.145,4.493 1.201,5.896 3.495,6.144c2.296,0.248 4.697,-0.635 5.191,-4.802c0.247,-2.083 0.511,-4.008 -0.247,-4.907c-1.13,-1.342 -6.003,-1.696 -7.768,0.14Z" style="fill:#f5a784;fill-rule:nonzero;"/><path d="M54.022,15.095c0,0 0.702,-1.861 1.811,-0.875c1.108,0.987 -0.424,3.797 -2.119,3.589c0,0 -0.232,-2.078 0.308,-2.714Z" style="fill:#f5a784;fill-rule:nonzero;"/><path d="M55.315,15.067c-0.246,0.042 -0.496,0.273 -0.674,0.439c-0.185,0.173 -0.402,0.389 -0.494,0.63c-0.03,0.075 0.076,0.121 0.127,0.073c0.143,-0.133 0.258,-0.292 0.392,-0.437c0.096,0.103 0.193,0.208 0.326,0.257c0.101,0.037 0.178,-0.09 0.133,-0.173c-0.059,-0.108 -0.164,-0.186 -0.269,-0.258c0.176,-0.135 0.389,-0.242 0.535,-0.4c0.056,-0.061 0,-0.145 -0.076,-0.131Z" style="fill:#e0855c;fill-rule:nonzero;"/><path d="M47.628,14.248c0,0 -0.389,0.144 -0.33,-0.543c0.053,-0.619 0.33,-0.536 0.33,-0.536c0,0 0.27,-0.002 0.229,0.54c-0.041,0.541 -0.229,0.539 -0.229,0.539Z" style="fill:#3b2645;fill-rule:nonzero;"/><path d="M51.565,14.248c0,0 -0.389,0.144 -0.33,-0.543c0.053,-0.619 0.33,-0.536 0.33,-0.536c0,0 0.269,-0.002 0.229,0.54c-0.041,0.541 -0.229,0.539 -0.229,0.539Z" style="fill:#3b2645;fill-rule:nonzero;"/><path d="M49.392,16.08c-0.197,-0.03 -0.648,0.087 -0.741,-0.125c-0.077,-0.177 0.24,-1.221 0.285,-1.401c0.161,-0.645 0.331,-1.083 0.452,-1.857c0.006,-0.033 -0.053,-0.053 -0.068,-0.019c-0.456,1.03 -0.626,2.302 -0.901,3.395c-0.016,0.059 0.029,0.123 0.093,0.122c0.288,-0.005 0.569,0.056 0.857,0.057c0.096,0.001 0.124,-0.158 0.023,-0.172Z" style="fill:#e0855c;fill-rule:nonzero;"/><path d="M48.054,12.159c-0.279,-0.142 -0.799,-0.18 -1.001,0.11c-0.037,0.053 0.012,0.132 0.074,0.129c0.138,-0.007 0.26,-0.074 0.399,-0.086c0.15,-0.012 0.292,0.022 0.435,0.067c0.128,0.041 0.215,-0.158 0.093,-0.22Z" style="fill:#3b2645;fill-rule:nonzero;"/><path d="M52.147,12.499c-0.159,-0.395 -0.849,-0.433 -1.143,-0.188c-0.066,0.056 -0.024,0.161 0.049,0.185c0.172,0.052 0.354,-0.012 0.532,0.004c0.156,0.014 0.281,0.084 0.426,0.134c0.075,0.027 0.167,-0.058 0.136,-0.135Z" style="fill:#3b2645;fill-rule:nonzero;"/><path d="M48.416,17.473c0,0 1.4,0.21 2.46,-0.425c0,0 -0.365,0.919 -1.23,1.155c-0.865,0.235 -1.23,-0.73 -1.23,-0.73Z" style="fill:#fff;fill-rule:nonzero;"/><path d="M43.366,24.192c2.304,1.607 2.516,4.74 1.392,7.234c-0.755,1.677 -2.169,2.844 -3.018,4.422c-0.845,1.57 -1.852,2.919 -2.967,4.333c-2.481,3.151 -4.847,5.996 -5.754,7.078c-3.14,3.76 -9.72,8.68 -12.087,10.399c-0.544,0.397 -0.867,0.625 -0.867,0.625c0,0 -2.262,-1.198 -1.666,-3.397c0,0 9.039,-9.553 10.332,-11.506c1.592,-2.403 2.678,-5.255 4.006,-7.824c1.532,-2.962 3.13,-5.889 4.793,-8.779c0.762,-1.323 1.725,-3.037 3.4,-3.295c0.666,-0.103 1.351,0.088 1.945,0.408c0.173,0.093 0.337,0.194 0.491,0.302Z" style="fill:#f5a784;fill-rule:nonzero;"/><path d="M18.395,54.905c0.451,-0.03 0.748,-0.002 0.748,-0.002c0,0 2.161,1.2 1.789,2.755c-0.004,0.017 -0.234,0.21 -0.592,0.536c-0.322,0.296 -0.754,0.7 -1.22,1.172c-0.341,0.354 -1.542,2.042 -2.043,1.877c-0.111,-0.036 -0.195,-0.124 -0.27,-0.207c-0.309,-0.33 -0.616,-0.67 -0.925,-1c-0.527,-0.578 -1.391,-1.554 -0.737,-2.329c-0.473,0.291 -1.592,0.989 -2.147,0.66l-0.192,-0.366c0,0 1.65,-1.226 2.333,-1.843c1.069,-0.961 2.427,-1.208 3.256,-1.253Z" style="fill:#f5a784;fill-rule:nonzero;"/><path d="M46.098,39.512c-0.019,0.053 -0.028,0.106 -0.036,0.158c-0.02,0.053 0.083,0.053 0.063,0c-0.009,-0.052 -0.018,-0.105 -0.027,-0.158Z" style="fill:#d6bed3;fill-rule:nonzero;"/><path d="M82.031,134.557c-1.064,0.117 -2.135,0.202 -3.219,0.254l-61.557,0.053c-0.059,-0.007 -0.124,-0.008 -0.183,-0.013c-0.104,-0.01 -0.215,-0.02 -0.32,-0.026c-0.359,-0.033 -0.718,-0.066 -1.084,-0.105c-1.201,-0.124 -1.201,-1.737 0,-1.861c0.359,-0.039 0.725,-0.071 1.09,-0.098c0.105,-0.012 0.209,-0.017 0.314,-0.026c0.065,-0.005 0.131,-0.006 0.196,-0.013l61.538,0.046c1.084,0.052 2.155,0.137 3.225,0.254c0.986,0.111 0.98,1.424 0,1.535Z" style="fill:#c6c6c6;fill-rule:nonzero;"/><path d="M49.807,71.917c-0.913,7.372 -2.03,13.784 -2.03,13.784c0.157,1.782 0.222,3.708 0.222,5.686c0,3.879 -0.255,7.973 -0.594,11.636c-0.412,4.629 -0.954,8.565 -1.248,10.544c-0.006,0.085 -0.019,0.17 -0.032,0.248c0.372,13.131 -3.369,14.874 -5.113,12.04c-1.743,-2.833 0,-11.328 0,-11.328c-0.012,-0.078 -0.026,-0.156 -0.039,-0.229c-0.809,-4.309 -1.253,-8.311 -1.475,-11.889c-0.595,-9.657 0.431,-16.265 0.313,-17.472c-2.096,-21.031 0.829,-32.575 0.829,-32.575c0.654,-2.082 1.489,-3.591 2.409,-4.576c2.129,-2.299 4.688,-1.718 6.301,1.096c0.164,0.275 0.317,0.571 0.457,0.891c0.588,1.34 0.98,3.046 1.104,5.07c0.261,4.31 -0.352,11.015 -1.104,17.074Z" style="fill:#f5a784;fill-rule:nonzero;"/><path d="M60.137,101.861c-0.203,3.642 -0.64,7.756 -1.456,12.177c-0.033,0.163 -0.059,0.326 -0.092,0.489c0,0 1.75,8.495 0,11.328c-1.736,2.821 -5.445,1.104 -5.119,-11.863c0,-0.059 0.007,-0.117 0.007,-0.177c-0.281,-1.873 -0.843,-5.947 -1.28,-10.767c-0.333,-3.662 -0.594,-7.756 -0.594,-11.641c0,-1.985 0.072,-3.917 0.229,-5.706c0,0 -1.112,-6.407 -2.025,-13.771c-0.753,-6.072 -1.371,-12.777 -1.11,-17.087c0.124,-2.024 0.531,-3.73 1.11,-5.07c0.144,-0.332 0.294,-0.63 0.464,-0.91c1.848,-3.213 4.929,-3.493 7.202,0.124c0.555,0.888 1.064,2.004 1.495,3.375c0,0 2.925,11.544 0.829,32.575c-0.117,1.188 0.869,7.566 0.34,16.924Z" style="fill:#f5a784;fill-rule:nonzero;"/><path d="M18.164,61.393c0.459,0.4 1.009,0.828 1.608,0.718c0.569,-0.105 0.962,-0.77 0.78,-1.319c-0.1,-0.299 -0.332,-0.535 -0.558,-0.756c-1.514,-1.494 -3.061,-2.955 -4.638,-4.382c-0.303,-0.274 -0.641,-0.561 -1.048,-0.582c-0.667,-0.035 -1.467,0.574 -1.494,1.266c-0.025,0.64 0.544,0.886 0.982,1.243c1.497,1.215 2.916,2.544 4.368,3.812Z" style="fill:#3b2645;fill-rule:nonzero;"/><path d="M17.936,59.619c0.064,-0.066 0.124,-0.134 0.156,-0.219c0.076,-0.199 -0.024,-0.421 -0.134,-0.604c-0.365,-0.603 -1.128,-1.584 -1.878,-1.673c-0.49,-0.06 -0.966,0.242 -1.257,0.64c-0.451,0.617 -0.535,1.466 -0.279,2.187c0.201,0.569 0.694,1.336 1.268,1.578c0.59,0.249 1.385,0.005 1.627,-0.612c0.146,-0.372 0.099,-0.821 0.345,-1.134c0.046,-0.058 0.1,-0.11 0.152,-0.163Z" style="fill:#f5a784;fill-rule:nonzero;"/><path d="M56.207,24.192c-2.304,1.607 -2.516,4.74 -1.392,7.234c0.755,1.677 2.169,2.844 3.018,4.422c0.845,1.57 1.853,2.919 2.967,4.333c2.481,3.151 4.847,5.996 5.754,7.078c3.14,3.76 9.72,8.68 12.087,10.399c0.544,0.397 0.867,0.625 0.867,0.625c0,0 2.262,-1.198 1.666,-3.397c0,0 -9.039,-9.553 -10.332,-11.506c-1.592,-2.403 -2.678,-5.255 -4.006,-7.824c-1.532,-2.962 -3.13,-5.889 -4.793,-8.779c-0.762,-1.323 -1.726,-3.037 -3.4,-3.295c-0.666,-0.103 -1.351,0.088 -1.944,0.408c-0.174,0.093 -0.338,0.194 -0.492,0.302Z" style="fill:#f5a784;fill-rule:nonzero;"/><path d="M81.178,54.905c-0.451,-0.03 -0.748,-0.002 -0.748,-0.002c0,0 -2.161,1.2 -1.789,2.755c0.004,0.017 0.234,0.21 0.592,0.536c0.322,0.296 0.754,0.7 1.221,1.172c0.34,0.354 1.541,2.042 2.042,1.877c0.111,-0.036 0.195,-0.124 0.27,-0.207c0.309,-0.33 0.616,-0.67 0.925,-1c0.527,-0.578 1.391,-1.554 0.737,-2.329c0.473,0.291 1.592,0.989 2.147,0.66l0.192,-0.366c0,0 -1.65,-1.226 -2.333,-1.843c-1.069,-0.961 -2.427,-1.208 -3.256,-1.253Z" style="fill:#f5a784;fill-rule:nonzero;"/><path d="M81.409,61.393c-0.459,0.4 -1.01,0.828 -1.608,0.718c-0.569,-0.105 -0.963,-0.77 -0.78,-1.319c0.1,-0.299 0.332,-0.535 0.558,-0.756c1.514,-1.494 3.061,-2.955 4.638,-4.382c0.303,-0.274 0.641,-0.561 1.048,-0.582c0.667,-0.035 1.467,0.574 1.494,1.266c0.025,0.64 -0.544,0.886 -0.983,1.243c-1.496,1.215 -2.915,2.544 -4.367,3.812Z" style="fill:#3b2645;fill-rule:nonzero;"/><path d="M81.637,59.619c-0.064,-0.066 -0.124,-0.134 -0.156,-0.219c-0.076,-0.199 0.023,-0.421 0.134,-0.604c0.365,-0.603 1.128,-1.584 1.878,-1.673c0.49,-0.06 0.966,0.242 1.257,0.64c0.451,0.617 0.535,1.466 0.28,2.187c-0.202,0.569 -0.695,1.336 -1.269,1.578c-0.59,0.249 -1.385,0.005 -1.627,-0.612c-0.146,-0.372 -0.099,-0.821 -0.345,-1.134c-0.046,-0.058 -0.1,-0.11 -0.152,-0.163Z" style="fill:#f5a784;fill-rule:nonzero;"/><path d="M60.287,95.456c0.007,0.319 0.007,0.645 0.007,0.985c0,0.666 -0.007,1.358 -0.027,2.07c-0.006,0.268 -0.013,0.535 -0.026,0.81c-0.02,0.822 -0.059,1.665 -0.104,2.54c-2.56,0.737 -5.23,1.083 -7.94,1.187c-0.105,-1.116 -0.326,-4.099 -0.339,-4.426c-0.046,-0.686 -0.144,-2.599 -0.157,-2.86c-0.065,-1.463 -0.098,-2.919 -0.098,-4.355c0,-1.861 0.065,-3.676 0.202,-5.367c0.007,-0.118 0.02,-0.229 0.027,-0.339c0,0 -1.117,-6.406 -2.025,-13.771c-0.097,0.784 -0.196,1.561 -0.3,2.312c-0.842,6.34 -1.73,11.459 -1.73,11.459c0.157,1.782 0.222,3.708 0.222,5.686c0,1.509 -0.039,3.049 -0.105,4.584c-0.013,0.261 -0.208,3.604 -0.235,3.924c-0.072,1.064 -0.163,2.115 -0.254,3.128c-1.391,-0.06 -2.776,-0.157 -4.147,-0.274c-1.077,-0.092 -2.442,-0.144 -3.76,-0.34c-0.059,-0.895 -0.098,-1.763 -0.124,-2.599c-0.014,-0.209 -0.016,-0.424 -0.02,-0.627c-0.016,-0.921 -0.046,-1.795 -0.046,-2.638l0,-0.646c0.027,-6.059 0.594,-10.048 0.503,-10.962c-2.096,-21.031 0.829,-32.575 0.829,-32.575c0.654,-2.082 1.489,-3.591 2.409,-4.576c0.85,0.064 1.679,0.423 2.515,0.666c1.233,0.345 2.5,0.436 3.786,0.43c0.307,0 0.614,-0.013 0.921,-0.019c1.11,-0.039 2.22,-0.131 3.317,-0.163c0.248,-0.007 0.496,-0.014 0.744,-0.014c1.051,0 2.122,0.078 3.141,0.301c0.555,0.888 1.064,2.004 1.495,3.375c0,0 1.008,3.957 1.417,11.466c0.289,5.321 0.281,12.405 -0.588,21.109c-0.091,0.895 0.444,4.707 0.49,10.519Z" style="fill:#3b2645;fill-rule:nonzero;"/><path d="M46.125,113.815c0.144,5.172 -0.346,8.573 -1.103,10.63c-1.163,3.167 -2.952,3.128 -4.01,1.41c-0.248,-0.404 -0.43,-0.927 -0.548,-1.527c-0.731,-3.566 0.548,-9.801 0.548,-9.801c-0.012,-0.078 -0.026,-0.156 -0.039,-0.229c0.536,0.321 0.953,0.647 1.659,0.771c2.67,0.464 3.434,-1.515 3.525,-1.502c-0.006,0.085 -0.019,0.17 -0.032,0.248Z" style="fill:#ab8da8;fill-rule:nonzero;"/><path d="M59.19,124.046c-0.118,0.712 -0.313,1.339 -0.601,1.809c-1.084,1.763 -2.938,1.757 -4.087,-1.651c-0.705,-2.051 -1.156,-5.335 -1.032,-10.212c0.196,-0.013 1.123,1.208 2.717,1.077c0.887,-0.071 1.788,-0.464 2.454,-1.005c0.007,0.137 -0.019,0.3 -0.052,0.463c0,0 1.221,5.916 0.601,9.519Z" style="fill:#ab8da8;fill-rule:nonzero;"/><path d="M44.619,116.885c-0.853,-0.558 -2.533,-0.654 -3.35,0.015c-0.098,0.08 -0.017,0.254 0.103,0.248c0.498,-0.023 0.962,-0.203 1.469,-0.198c0.568,0.007 1.071,0.191 1.615,0.322c0.236,0.058 0.363,-0.255 0.163,-0.387Z" style="fill:#291b30;fill-rule:nonzero;"/><path d="M44.462,118.493c-0.747,-0.564 -1.942,-0.61 -2.834,-0.511c-0.328,0.036 -0.337,0.55 0,0.52c0.477,-0.042 0.942,-0.033 1.416,0.055c0.429,0.079 0.819,0.267 1.241,0.356c0.266,0.055 0.382,-0.266 0.177,-0.42Z" style="fill:#291b30;fill-rule:nonzero;"/><path d="M57.703,116.889c-0.767,-0.263 -2.412,-0.359 -2.995,0.338c-0.078,0.092 -0.038,0.287 0.111,0.27c0.467,-0.053 0.881,-0.251 1.367,-0.266c0.488,-0.014 0.977,0.108 1.46,0.079c0.242,-0.016 0.289,-0.342 0.057,-0.421Z" style="fill:#291b30;fill-rule:nonzero;"/><path d="M58.072,118.576c-0.836,-0.364 -2.906,-0.631 -3.327,0.484c-0.057,0.15 0.134,0.27 0.258,0.199c0.859,-0.486 1.927,-0.537 2.845,-0.152c0.301,0.126 0.527,-0.4 0.224,-0.531Z" style="fill:#291b30;fill-rule:nonzero;"/><path d="M20.209,23.034c-0.009,-0.066 -0.123,-0.066 -0.133,0c-0.493,3.408 -0.204,7.043 -0.203,10.481c0.001,3.692 -0.119,7.411 0.096,11.098c0.014,0.222 0.334,0.223 0.347,0c0.215,-3.687 0.096,-7.405 0.097,-11.098c0.001,-3.436 0.29,-7.075 -0.204,-10.481Z" style="fill:#e8cee5;fill-rule:nonzero;"/><path d="M24.578,24.164c-0.002,-0.273 -0.422,-0.273 -0.424,0c-0.021,3.279 -0.217,6.619 0.003,9.891c0.018,0.269 0.4,0.269 0.418,0c0.22,-3.272 0.024,-6.612 0.003,-9.891Z" style="fill:#e8cee5;fill-rule:nonzero;"/><path d="M69.286,58.504c-0.017,-0.17 -0.248,-0.17 -0.265,0c-0.428,4.244 -0.186,8.631 -0.171,12.892c0.016,4.3 0.021,8.595 0.156,12.893c0.006,0.189 0.29,0.19 0.296,0c0.134,-4.298 0.14,-8.593 0.156,-12.893c0.015,-4.261 0.256,-8.648 -0.172,-12.892Z" style="fill:#e8cee5;fill-rule:nonzero;"/><path d="M77.029,33.352c-0.139,-2.832 -0.107,-5.761 -0.555,-8.563c-0.028,-0.17 -0.275,-0.115 -0.286,0.039c-0.208,3.016 0.117,6.137 0.246,9.155c0.121,2.843 0.093,5.764 0.479,8.585c0.036,0.264 0.434,0.182 0.446,-0.061c0.141,-3.025 -0.182,-6.132 -0.33,-9.155Z" style="fill:#e8cee5;fill-rule:nonzero;"/><path d="M79.038,34.944c-0.005,-0.135 -0.203,-0.135 -0.209,0c-0.162,4.111 -0.391,8.224 -0.064,12.336c0.018,0.217 0.32,0.217 0.337,0c0.328,-4.113 0.099,-8.225 -0.064,-12.336Z" style="fill:#e8cee5;fill-rule:nonzero;"/><path d="M49.507,74.242c0.026,-0.817 0.118,-1.593 0.3,-2.312c-0.097,0.784 -0.196,1.561 -0.3,2.312Z" style="fill:#291b30;fill-rule:nonzero;"/><path d="M60.385,63.828c-1.345,-8.103 -12.491,-8.489 -12.491,-8.489c-0.698,-3.388 3.807,-4.38 3.807,-4.38l2.631,-2.273c1.051,0 2.122,0.078 3.141,0.301c0.555,0.888 1.064,2.004 1.495,3.375c0,0 1.005,3.957 1.417,11.466Z" style="fill:#291b30;fill-rule:nonzero;"/><path d="M59.157,53.231c-8.997,4.23 -18.778,0.353 -18.778,0.353c0.712,-2.018 0.18,-12.202 0.131,-14.143c-0.001,-0.039 -0.006,-0.072 -0.007,-0.105c-0.003,-0.137 -0.013,-0.215 -0.013,-0.215c1.894,-4.381 2.096,-12.817 2.109,-15.722c0.849,-0.124 1.743,-0.196 2.514,-0.242c0.3,3.245 1.365,11.556 4.342,11.191c2.886,-0.359 4.401,-7.757 4.923,-10.982c0.516,0.124 1.292,0.117 1.658,0.111c0.17,0 0.346,-0.014 0.516,-0.026c-0.261,4.426 2.194,13.744 2.272,14.031c-0.013,0.072 -0.019,0.143 -0.026,0.216c-0.039,0.241 -0.072,0.496 -0.098,0.763c-0.006,0.053 -0.013,0.112 -0.019,0.17c-0.569,5.616 0.476,14.6 0.476,14.6Z" style="fill:#ab8da8;fill-rule:nonzero;"/></g></svg>