<?xml version="1.0" encoding="UTF-8" standalone="no"?><!DOCTYPE svg PUBLIC "-//W3C//DTD SVG 1.1//EN" "http://www.w3.org/Graphics/SVG/1.1/DTD/svg11.dtd"><svg width="100%" height="100%" viewBox="0 0 117 112" version="1.1" xmlns="http://www.w3.org/2000/svg" xmlns:xlink="http://www.w3.org/1999/xlink" xml:space="preserve" xmlns:serif="http://www.serif.com/" style="fill-rule:evenodd;clip-rule:evenodd;stroke-linejoin:round;stroke-miterlimit:2;"><g><path d="M61.875,3.051c-3.179,-3.215 -9.577,-3.934 -13.573,-1.944c-7.851,3.907 -7.579,14.168 -9.568,21.403c-1.271,4.623 -3.64,8.981 -7.057,12.344c-5.981,5.885 -14.584,8.3 -21.128,13.552c-7.14,5.729 -11.442,15.076 -10.392,24.169c1.049,9.093 7.774,17.47 16.633,19.77c5.465,1.418 11.331,0.616 16.77,2.131c4.146,1.155 7.808,3.591 11.793,5.218c5.483,2.239 11.462,2.904 17.356,3.488c5.981,0.592 12.194,1.095 17.846,-0.945c6.955,-2.511 12.142,-8.662 14.973,-15.493c2.298,-5.542 3.235,-11.642 2.71,-17.618c-0.349,-3.96 -1.328,-7.886 -1.123,-11.855c0.267,-5.197 2.537,-10.065 3.544,-15.169c1.454,-7.37 0.162,-15.251 -3.57,-21.772c-0.921,-1.608 -2.043,-3.19 -3.667,-4.083c-1.602,-0.88 -3.504,-0.988 -5.332,-1.013c-3.895,-0.053 -7.819,0.177 -11.664,-0.444c-3.846,-0.621 -7.704,-2.214 -10.145,-5.25c-1.643,-2.041 -2.563,-4.626 -4.406,-6.489Z" style="fill:#f6f6f6;fill-rule:nonzero;"/><path d="M115.944,102.051l-70.155,0c-0.361,0 -0.653,-0.292 -0.653,-0.652c-0,-0.362 0.292,-0.654 0.653,-0.654l70.155,0c0.36,0 0.652,0.292 0.652,0.654c-0,0.36 -0.292,0.652 -0.652,0.652Z" style="fill:#ab8da8;fill-rule:nonzero;"/><path d="M48.012,104.754c-0.614,0 -1.111,-0.498 -1.111,-1.111l-0,-4.49c-0,-0.613 0.497,-1.111 1.111,-1.111c0.613,0 1.111,0.498 1.111,1.111l-0,4.49c-0,0.613 -0.498,1.111 -1.111,1.111Z" style="fill:#ab8da8;fill-rule:nonzero;"/><path d="M50.235,108.678c-0.614,0 -1.112,-0.498 -1.112,-1.111l-0,-12.337c-0,-0.614 0.498,-1.112 1.112,-1.112c0.613,0 1.111,0.498 1.111,1.112l-0,12.337c-0,0.613 -0.498,1.111 -1.111,1.111Z" style="fill:#ab8da8;fill-rule:nonzero;"/><path d="M52.457,110.544c-0.614,0 -1.111,-0.497 -1.111,-1.111l-0,-15.698c-0,-0.614 0.497,-1.112 1.111,-1.112c0.614,0 1.112,0.498 1.112,1.112l-0,15.698c-0,0.614 -0.498,1.111 -1.112,1.111Z" style="fill:#ab8da8;fill-rule:nonzero;"/><path d="M112.748,104.754c0.615,0 1.112,-0.498 1.112,-1.111l-0,-4.49c-0,-0.613 -0.497,-1.111 -1.112,-1.111c-0.613,0 -1.111,0.498 -1.111,1.111l-0,4.49c-0,0.613 0.498,1.111 1.111,1.111Z" style="fill:#ab8da8;fill-rule:nonzero;"/><path d="M110.526,108.678c0.614,0 1.111,-0.498 1.111,-1.111l-0,-12.337c-0,-0.614 -0.497,-1.112 -1.111,-1.112c-0.614,0 -1.112,0.498 -1.112,1.112l-0,12.337c-0,0.613 0.498,1.111 1.112,1.111Z" style="fill:#ab8da8;fill-rule:nonzero;"/><path d="M108.303,110.544c0.614,0 1.111,-0.497 1.111,-1.111l-0,-15.698c-0,-0.614 -0.497,-1.112 -1.111,-1.112c-0.613,0 -1.111,0.498 -1.111,1.112l-0,15.698c-0,0.614 0.498,1.111 1.111,1.111Z" style="fill:#ab8da8;fill-rule:nonzero;"/><path d="M52.344,49.939c-0.386,0.359 -0.797,0.659 -1.222,0.933c-1.096,0.699 -2.297,1.208 -3.355,1.959c-0.137,0.098 -0.274,0.202 -0.405,0.307c-1.54,1.247 -3.147,2.181 -4.897,3.134c-3.885,2.129 -7.515,3.989 -8.906,4.695c-4.812,2.454 -13.61,4.505 -16.751,5.19c-0.725,0.163 -1.152,0.248 -1.152,0.248c-0,0 -1.756,-2.311 -0.189,-4.329c-0,0 13.307,-5.739 15.468,-7.175c2.657,-1.763 5.008,-4.231 7.469,-6.288c0.882,-0.738 1.769,-1.469 2.664,-2.187c1.985,-1.619 3.996,-3.192 6.026,-4.74c1.084,-0.824 2.409,-1.855 3.82,-1.952c0.346,-0.027 0.699,0 1.051,0.104c0.718,0.209 1.325,0.731 1.782,1.338c0.138,0.184 0.255,0.366 0.367,0.549c1.619,2.761 0.457,6.131 -1.77,8.214Z" style="fill:#f5a784;fill-rule:nonzero;"/><path d="M15.454,62.092c0.47,0.181 0.756,0.35 0.756,0.35c-0,0 1.654,2.267 0.598,3.715c-0.012,0.017 -0.328,0.111 -0.832,0.284c-0.455,0.158 -1.068,0.378 -1.746,0.652c-0.498,0.21 -2.45,1.408 -2.883,1.002c-0.096,-0.09 -0.142,-0.221 -0.182,-0.344c-0.167,-0.489 -0.328,-0.988 -0.495,-1.477c-0.278,-0.852 -0.721,-2.277 0.278,-2.781c-0.605,0.082 -2.039,0.287 -2.455,-0.316l-0.034,-0.472c-0,0 2.203,-0.508 3.162,-0.832c1.5,-0.502 2.978,-0.123 3.833,0.219Z" style="fill:#f5a784;fill-rule:nonzero;"/><path d="M59.363,77.328c-14.234,3.004 -31.974,4.747 -31.974,4.747c0.411,1.777 0.065,5.204 -0.588,8.978c-0.992,5.739 -2.683,12.297 -3.447,15.135c-0.104,0.385 -0.392,1.43 -0.392,1.43c-2.605,0.738 -4.544,-0.77 -4.544,-0.77c0.006,-0.118 0.01,-0.242 0.013,-0.366c0.007,-0.314 0.02,-0.64 0.02,-0.993c0.137,-8.592 -1.515,-27.625 2.233,-29.936c6.601,-4.074 30.465,-10.754 34.474,-11.034c2.768,-0.19 5.465,0.26 6.667,2.331c0.503,0.868 0.744,2.043 0.607,3.571c-0.014,0.189 -0.04,0.372 -0.065,0.555c-0.824,5.08 3.545,4.968 -3.004,6.352Z" style="fill:#f5a784;fill-rule:nonzero;"/><path d="M58.643,33.389c0.118,0.146 0.262,0.291 0.463,0.441c0.626,0.47 1.344,0.896 2.126,0.895c0.534,-0.002 1.041,-0.272 1.562,-0.208c0.388,0.047 0.702,0.352 1.138,0.346c0.392,-0.004 0.81,-0.223 0.917,-0.6c0.122,-0.433 -0.188,-0.915 -0.021,-1.332c0.216,-0.544 0.989,-0.516 1.502,-0.796c0.585,-0.318 0.805,-1.034 0.972,-1.679c0.202,-0.78 0.403,-1.56 0.606,-2.341c0.142,-0.551 0.287,-1.116 0.251,-1.685c-0.037,-0.569 -0.285,-1.155 -0.769,-1.457c-0.689,-0.429 -1.685,-0.2 -2.291,-0.741c-0.298,-0.267 -0.442,-0.677 -0.754,-0.928c-0.722,-0.581 -1.768,-0.005 -2.695,0.005c-1.254,0.013 -2.28,-1.051 -3.521,-1.24c-0.951,-0.144 -1.947,0.273 -2.581,0.998c-0.578,0.66 -0.902,1.621 -0.889,2.499c0.01,0.757 0.386,1.167 0.715,1.854c0.58,1.211 0.378,2.781 1.282,3.775c0.45,0.497 1.02,0.801 1.416,1.351c0.229,0.319 0.361,0.585 0.571,0.843Z" style="fill:#3b2645;fill-rule:nonzero;"/><path d="M57.086,29.86c-0,0 -0.866,-1.039 -1.731,0c-0.866,1.039 0.605,3.027 1.731,3.115c-0,0 0.13,-2.668 -0,-3.115Z" style="fill:#e0855c;fill-rule:nonzero;"/><path d="M71.867,45.962c-0.399,1.097 -0.856,2.168 -1.208,3.284c-0.085,0.268 -0.163,0.542 -0.236,0.823c-0.131,0.516 -0.248,1.032 -0.352,1.541c-0.066,0.32 -0.124,0.621 -0.17,0.915c-0.333,2.037 -1.329,11.856 -1.487,13.404c-0.012,0.131 -0.021,0.202 -0.021,0.202c-4.57,1.254 -9.232,1.045 -12.327,0.653c-2.221,-0.281 -3.631,-0.653 -3.631,-0.653c-0,0 -0.013,-0.15 -0.045,-0.437c-0.014,-0.125 -0.026,-0.268 -0.04,-0.438c-0.215,-2.246 -0.796,-8.455 -1.228,-14.384c-0.025,-0.345 -0.124,-1.658 -0.143,-1.965c-0.234,-3.512 -0.392,-6.752 -0.353,-8.762c-0,-0.183 0.112,-0.314 0.288,-0.411c0.536,-0.301 1.73,-0.288 2.619,-0.412c0.202,-0.026 0.411,-0.052 0.613,-0.079c0.209,-0.025 0.412,-0.04 0.62,-0.058c0.472,-0.041 0.934,-0.085 1.358,-0.105c0.699,-0.039 1.299,-0.052 1.678,-0.058c0.072,-0.006 0.138,-0.006 0.196,-0.006l0.242,0l0.104,-1.15c-0,-0.013 0.075,-0.762 0.075,-0.762l0.196,-2.067c0.13,0.027 0.258,0.054 0.388,0.068c0.262,0.045 0.51,0.067 0.758,0.078c0.333,0.013 0.64,0.012 0.934,-0.014c0.15,-0.013 0.294,-0.025 0.43,-0.045c0.204,-0.026 0.399,-0.059 0.588,-0.098c0.321,-0.066 0.624,-0.158 0.914,-0.249c0.091,-0.028 0.177,-0.051 0.262,-0.09c0.025,-0.007 0.052,-0.014 0.071,-0.027c0.066,-0.026 0.138,-0.052 0.202,-0.078c0.425,-0.17 0.785,-0.359 1.079,-0.536c0.188,-0.11 0.352,-0.214 0.482,-0.307c0.046,-0.032 0.065,-0.045 0.085,-0.058c0.073,-0.051 0.131,-0.092 0.177,-0.131c0.065,-0.046 0.104,-0.078 0.117,-0.091c-0.026,0.144 -0.037,0.202 -0.046,0.268c-0.082,0.655 -0.176,1.495 -0.215,2.331c-0.033,0.822 -0.536,1.729 0.215,2.383c0.287,0.242 0.647,0.378 0.999,0.496c0.529,0.176 1.065,0.32 1.607,0.437c0.666,0.144 1.344,0.248 2.024,0.301c0.365,0.025 0.743,0.049 1.103,0.124c0.228,0.048 0.438,0.11 0.626,0.209c0.732,0.372 1.163,1.187 1.247,2.004c0.131,1.247 -0.377,2.788 -0.795,3.95Z" style="fill:#f5a784;fill-rule:nonzero;"/><path d="M65.112,33.45c-1.008,4.573 -5.613,4.258 -6.693,3.654l0.196,-2.067c3.791,0.774 6.497,-1.587 6.497,-1.587Z" style="fill:#e0855c;fill-rule:nonzero;"/><path d="M57.284,26.856c-0.576,0.598 -0.623,1.94 -0.671,3.424c-0.146,4.494 1.201,5.897 3.496,6.145c2.295,0.247 4.695,-0.636 5.19,-4.803c0.247,-2.083 0.511,-4.008 -0.248,-4.907c-1.129,-1.342 -6.002,-1.695 -7.767,0.141Z" style="fill:#f5a784;fill-rule:nonzero;"/><path d="M64.98,31.022c-0,0 0.702,-1.862 1.81,-0.875c1.109,0.986 -0.423,3.797 -2.118,3.588c-0,0 -0.232,-2.077 0.308,-2.713Z" style="fill:#f5a784;fill-rule:nonzero;"/><path d="M66.273,30.993c-0.246,0.042 -0.496,0.274 -0.674,0.44c-0.186,0.174 -0.402,0.388 -0.495,0.63c-0.028,0.075 0.076,0.121 0.127,0.073c0.143,-0.133 0.259,-0.293 0.393,-0.438c0.095,0.104 0.193,0.208 0.326,0.257c0.101,0.037 0.177,-0.09 0.132,-0.173c-0.057,-0.108 -0.164,-0.185 -0.268,-0.257c0.176,-0.135 0.389,-0.243 0.535,-0.401c0.056,-0.06 -0.001,-0.144 -0.076,-0.131Z" style="fill:#e0855c;fill-rule:nonzero;"/><path d="M60.35,32.006c-0.197,-0.029 -0.648,0.088 -0.741,-0.124c-0.077,-0.178 0.24,-1.222 0.284,-1.401c0.161,-0.646 0.332,-1.082 0.453,-1.858c0.006,-0.033 -0.053,-0.053 -0.068,-0.018c-0.456,1.029 -0.625,2.301 -0.902,3.394c-0.014,0.06 0.03,0.123 0.094,0.122c0.288,-0.005 0.568,0.057 0.857,0.058c0.095,0.001 0.124,-0.158 0.023,-0.173Z" style="fill:#e0855c;fill-rule:nonzero;"/><path d="M59.011,28.085c-0.278,-0.141 -0.798,-0.18 -1.001,0.11c-0.036,0.053 0.013,0.132 0.074,0.129c0.139,-0.006 0.261,-0.074 0.4,-0.086c0.15,-0.011 0.292,0.023 0.434,0.068c0.129,0.041 0.216,-0.158 0.093,-0.221Z" style="fill:#3b2645;fill-rule:nonzero;"/><path d="M63.105,28.425c-0.159,-0.395 -0.849,-0.433 -1.143,-0.188c-0.067,0.056 -0.024,0.162 0.049,0.185c0.171,0.053 0.354,-0.012 0.531,0.005c0.157,0.014 0.282,0.083 0.427,0.134c0.074,0.026 0.166,-0.059 0.136,-0.136Z" style="fill:#3b2645;fill-rule:nonzero;"/><path d="M61.689,29.661c0.3,-0.128 0.653,-0.134 0.974,-0.107c0.275,0.024 0.631,0.056 0.818,0.276c0.017,0.022 0.015,0.064 -0.018,0.069c-0.264,0.043 -0.533,-0.08 -0.8,-0.1c-0.314,-0.025 -0.61,0.044 -0.92,0.061c-0.102,0.006 -0.153,-0.157 -0.054,-0.199Z" style="fill:#3b2645;fill-rule:nonzero;"/><path d="M58.272,29.376c0.305,0 0.617,0.091 0.851,0.288c0.138,0.115 -0.038,0.298 -0.179,0.233c-0.24,-0.113 -0.448,-0.201 -0.722,-0.183c-0.213,0.014 -0.401,0.146 -0.61,0.127c-0.087,-0.008 -0.136,-0.088 -0.097,-0.169c0.124,-0.251 0.501,-0.295 0.757,-0.296Z" style="fill:#3b2645;fill-rule:nonzero;"/><path d="M59.164,33.262c0.443,0.093 0.828,0.23 1.29,0.157c0.421,-0.068 0.715,-0.323 1.098,-0.465c0.075,-0.027 0.13,0.067 0.098,0.128c-0.41,0.788 -1.966,0.902 -2.603,0.38c-0.099,-0.082 0.011,-0.222 0.117,-0.2Z" style="fill:#e0855c;fill-rule:nonzero;"/><path d="M105.022,106.43c-0.314,0.96 -0.653,1.926 -1.091,2.84c-0.705,1.463 -2.37,1.339 -3.846,1.305c-0.437,-0.012 -0.9,-0.032 -1.253,-0.294c-0.352,-0.254 -0.494,-0.847 -0.157,-1.123c0.123,-0.099 0.281,-0.143 0.431,-0.195c0.816,-0.301 1.254,-1.052 1.64,-1.782c0.476,-0.914 0.606,-2.227 0.561,-3.252c-0.157,-0.027 -0.921,-0.163 -1.143,-0.202c-9.239,-1.718 -18.51,-4.486 -26.92,-8.73c-12.889,-6.497 -17.577,-29.153 -17.531,-29.362c0.751,-3.357 8.418,-4.473 12.701,0.294c4.284,4.772 6.939,20.351 9.557,21.84c2.742,1.56 18.406,9.807 25.85,12.197c0.411,0.13 0.796,0.248 1.155,0.339c2.044,0.536 0.542,4.616 0.046,6.125Z" style="fill:#f5a784;fill-rule:nonzero;"/><path d="M22.89,110.862c-0.606,0.438 -1.436,0.379 -2.141,0.418c-1.554,0.092 -3.108,0.034 -4.656,-0.019c-1.017,-0.032 -2.03,-0.071 -3.049,-0.13c-0.841,-0.046 -2.168,0.104 -2.879,-0.34c-0.091,-0.058 -0.183,-0.131 -0.209,-0.235c-0.019,-0.091 0.013,-0.183 0.059,-0.261c0.189,-0.32 0.548,-0.476 0.895,-0.595c1.553,-0.542 3.211,-0.73 4.752,-1.305c1.052,-0.392 2.066,-1.026 2.769,-1.913c0.089,-0.113 0.177,-0.229 0.248,-0.353c0.111,-0.183 0.2,-0.38 0.281,-0.568c0.26,-0.61 0.463,-1.195 1.168,-1.508c1.476,-0.659 3.439,0.392 3.226,2.135c-0.037,0.307 -0.066,0.6 -0.085,0.894c-0.013,0.17 -0.025,0.34 -0.032,0.51c-0.066,1.116 0.796,2.455 -0.347,3.27Z" style="fill:#f5a784;fill-rule:nonzero;"/><path d="M74.433,69.646l4.745,6.716c-0.852,0.603 -1.056,1.782 -0.453,2.634c0.602,0.853 1.78,1.055 2.633,0.453l1.997,-1.411c0.852,-0.601 1.055,-1.78 0.453,-2.633c-0.603,-0.852 -1.781,-1.054 -2.634,-0.453l-4.744,-6.717c0.853,-0.602 1.055,-1.781 0.453,-2.633c-0.602,-0.853 -1.781,-1.055 -2.634,-0.453l-1.996,1.411c-0.852,0.601 -1.055,1.78 -0.454,2.633c0.603,0.852 1.781,1.054 2.634,0.453Z" style="fill:#ab8da8;fill-rule:nonzero;"/><path d="M78.657,69.683c0.006,-0.02 0.019,-0.039 0.039,-0.059c-0.006,0.033 -0.02,0.046 -0.039,0.059Zm9.121,-17.335c-0.424,-1.6 -1.593,-2.893 -2.775,-4.048c-0.901,-0.888 -1.828,-1.776 -2.795,-2.625c-3.284,-2.918 -6.962,-5.398 -11.399,-5.87c-0.118,-0.012 -0.223,-0.026 -0.32,-0.032c-1.189,-0.092 -2.403,0.189 -3.324,0.802c-0.823,0.542 -1.419,1.355 -1.541,2.394c-0.046,0.397 -0.026,0.819 0.073,1.276c0.104,0.484 0.273,0.927 0.496,1.338c0.9,1.672 2.67,2.782 4.466,3.663c0.809,0.392 1.626,0.745 2.363,1.072c1.515,0.671 3.068,1.286 4.538,2.043c0.992,0.509 1.945,1.09 2.813,1.795c0.229,0.183 0.452,0.379 0.576,0.64c0.143,0.327 0.117,0.699 0.085,1.058c-0.372,4.094 -0.177,9.246 -2.462,12.83c-0.36,0.561 -0.829,1.057 -1.476,1.475c-0.274,0.17 -0.555,0.34 -0.822,0.517c-0.418,0.268 -0.804,0.574 -1.117,0.953c-0.522,0.626 -0.784,1.554 -0.372,2.259c0.862,1.488 3.558,1.939 4.57,0.568c0.235,-0.32 0.464,-0.646 0.685,-0.979c0.36,-0.535 0.706,-1.104 1.026,-1.658c0.882,-1.522 1.658,-3.102 2.409,-4.657c1.143,-2.363 2.266,-4.746 3.232,-7.188c0.849,-2.148 1.671,-5.327 1.071,-7.626Z" style="fill:#f5a784;fill-rule:nonzero;"/><path d="M22.89,110.862c-0.606,0.438 -1.436,0.379 -2.141,0.418c-1.75,0.104 -3.499,0.016 -5.238,-0.038c-0.847,-0.026 -1.692,-0.08 -2.538,-0.115c-0.845,-0.034 -2.116,0.096 -2.808,-0.336c-0.091,-0.058 -0.183,-0.131 -0.209,-0.235c-0.019,-0.091 0.013,-0.183 0.059,-0.261c0.189,-0.32 0.548,-0.476 0.895,-0.595c1.553,-0.542 3.211,-0.73 4.752,-1.305c0.679,-0.253 1.35,-0.601 1.924,-1.059c0.555,-0.441 0.865,-1.128 0.865,-1.836c0.17,-0.011 0.346,0.015 0.509,0.061c0.739,0.212 1.358,0.842 1.469,1.606c0.698,0.595 1.736,0.085 2.67,-0.058c0.06,-0.013 0.111,-0.02 0.17,-0.027c-0.013,0.17 -0.025,0.34 -0.032,0.51c-0.066,1.116 0.796,2.455 -0.347,3.27Z" style="fill:#3b2645;fill-rule:nonzero;"/><path d="M105.022,106.43c-0.314,0.96 -0.653,1.926 -1.091,2.84c-0.705,1.463 -2.37,1.339 -3.846,1.305c-0.437,-0.012 -0.9,-0.032 -1.253,-0.294c-0.352,-0.254 -0.494,-0.847 -0.157,-1.123c0.123,-0.099 0.281,-0.143 0.431,-0.195c0.816,-0.301 1.254,-1.052 1.64,-1.782c0.476,-0.914 0.606,-2.227 0.561,-3.252c-0.157,-0.027 0.268,-0.81 0.771,-0.914c0.26,-0.053 0.528,-0.059 0.783,-0.137c0.6,-0.196 0.992,-0.816 1.096,-1.443c0.079,-0.484 -0.071,-0.987 -0.136,-1.469c0.411,0.13 0.796,0.248 1.155,0.339c2.044,0.536 0.542,4.616 0.046,6.125Z" style="fill:#3b2645;fill-rule:nonzero;"/><path d="M11.24,60.668l2.212,7.921c-1.006,0.281 -1.593,1.323 -1.313,2.328c0.281,1.005 1.323,1.593 2.328,1.312l2.355,-0.658c1.006,-0.28 1.592,-1.322 1.312,-2.328c-0.281,-1.005 -1.323,-1.591 -2.328,-1.311l-2.211,-7.921c1.005,-0.28 1.592,-1.323 1.312,-2.328c-0.281,-1.005 -1.324,-1.592 -2.328,-1.312l-2.355,0.657c-1.005,0.282 -1.593,1.324 -1.312,2.329c0.281,1.004 1.323,1.591 2.328,1.311Z" style="fill:#ab8da8;fill-rule:nonzero;"/><path d="M13.478,63.378c0.238,0.264 0.393,0.592 0.523,0.923c0.237,0.601 0.406,1.241 0.363,1.884c-0.044,0.643 -0.322,1.292 -0.839,1.675c-0.335,0.25 -0.746,0.374 -1.154,0.459c-0.291,0.062 -0.591,0.106 -0.882,0.048c-0.522,-0.103 -0.935,-0.526 -1.16,-1.007c-0.223,-0.483 -0.289,-1.021 -0.341,-1.55c-0.09,-0.908 -0.026,-1.957 0.823,-2.504c0.768,-0.494 1.992,-0.678 2.667,0.072Z" style="fill:#f5a784;fill-rule:nonzero;"/><path d="M82.208,45.675c-0.855,2.299 -2.232,4.4 -4.002,6.104c-0.209,0.197 -0.424,0.393 -0.646,0.582c-1.47,-0.757 -3.023,-1.372 -4.538,-2.043c-0.737,-0.327 -1.554,-0.68 -2.363,-1.072c-0.085,0.268 -0.163,0.542 -0.236,0.823c-0.131,0.516 -0.248,1.032 -0.352,1.541c-0.066,0.32 -0.124,0.621 -0.17,0.915c-0.333,2.037 -1.329,11.856 -1.487,13.404c-0.012,0.131 -0.021,0.202 -0.021,0.202c-4.57,1.254 -9.232,1.045 -12.327,0.653c-2.221,-0.281 -3.631,-0.653 -3.631,-0.653c-0,0 -0.013,-0.15 -0.045,-0.437c-0.014,-0.125 -0.026,-0.268 -0.04,-0.438c-0.215,-2.246 -0.796,-8.455 -1.228,-14.384c-1.096,0.699 -2.297,1.208 -3.355,1.959c-1.378,-0.425 -2.628,-1.18 -3.729,-2.115c-0.251,-0.214 -0.489,-0.438 -0.717,-0.68c-0.863,-0.9 -1.959,-2.252 -2.253,-3.61c1.985,-1.619 3.996,-3.192 6.026,-4.74c1.084,-0.824 2.409,-1.855 3.82,-1.952c0.536,-0.301 1.73,-0.288 2.619,-0.412c0.202,-0.026 0.411,-0.052 0.613,-0.079c0.209,-0.025 0.411,-0.045 0.62,-0.058c0.092,1.959 0.666,3.924 2.136,5.165c1.762,1.488 4.471,1.514 6.509,0.424c0.849,-0.457 1.585,-1.081 2.213,-1.805c0.625,-0.72 1.136,-1.531 1.541,-2.394c0.176,-0.358 0.327,-0.73 0.463,-1.103c0.014,-0.032 0.027,-0.065 0.034,-0.098c0.666,0.144 1.344,0.248 2.024,0.301c0.365,0.025 0.744,0.045 1.103,0.124c4.459,0.457 8.135,2.958 11.419,5.876Z" style="fill:#e8cee5;fill-rule:nonzero;"/><path d="M18.395,99.923c2.604,1.665 6.476,0.28 6.476,0.28c3.331,-6.163 3.591,-17.374 3.591,-17.374c-0,0 19.085,-1.417 26.64,-1.417c1.639,0 2.879,0.333 3.904,0.921c3.709,2.128 4.604,7.574 11.133,12.667c8.331,6.503 23.838,7.41 23.838,7.41c2.253,-1.672 2.122,-5.556 2.122,-5.556c-0,0 -2.351,-2.872 -6.751,-5.367c-0.804,-0.463 -1.685,-0.908 -2.625,-1.319c-5.895,-2.586 -8.736,-4.779 -8.912,-4.917c-2.926,-9.924 -9.324,-20.012 -9.324,-20.012c-9.233,2.162 -16.205,-0.763 -16.205,-0.763c-4.03,0 -29.409,8.187 -32.739,10.851c-3.336,2.67 -3.754,22.924 -1.148,24.596Z" style="fill:#3b2645;fill-rule:nonzero;"/><path d="M28.462,82.829c-0,0 19.085,-1.417 26.64,-1.417c1.639,0 2.879,0.333 3.904,0.921c-0.032,-0.202 -0.848,-4.44 -8.384,-4.224c-7.716,0.221 -22.16,4.72 -22.16,4.72Z" style="fill:#291b30;fill-rule:nonzero;"/><path d="M82.583,91.114c2.462,0.503 4.93,0.497 6.765,0.373c-0.804,-0.463 -1.685,-0.908 -2.625,-1.319c-5.895,-2.586 -8.736,-4.779 -8.912,-4.917c-0,0 -0.118,4.865 4.772,5.863Z" style="fill:#291b30;fill-rule:nonzero;"/><path d="M51.122,50.872c-1.096,0.699 -2.297,1.208 -3.355,1.959c-1.378,-0.425 -2.645,-1.162 -3.729,-2.115c3.69,-0.889 7.084,0.156 7.084,0.156Z" style="fill:#d6bed3;fill-rule:nonzero;"/><path d="M78.223,8.585c-1.376,1.539 -2.272,3.654 -3.26,5.459c-0.95,1.738 -2.415,3.748 -2.734,5.717c-0.016,0.096 0.093,0.176 0.171,0.099c1.43,-1.399 2.247,-3.691 3.217,-5.434c1.004,-1.81 2.361,-3.635 3.032,-5.593c0.082,-0.238 -0.259,-0.434 -0.426,-0.248Z" style="fill:#e8cee5;fill-rule:nonzero;"/><path d="M94.108,17.873c-3.543,1.768 -6.939,3.942 -10.296,6.037c-3.195,1.994 -6.535,3.98 -9.431,6.4c-0.221,0.184 0.062,0.52 0.3,0.387c3.372,-1.878 6.537,-4.18 9.822,-6.212c3.297,-2.039 6.725,-3.866 10.02,-5.903c0.453,-0.28 0.056,-0.944 -0.415,-0.709Z" style="fill:#e8cee5;fill-rule:nonzero;"/><path d="M90.201,31.092c-2.357,-0.184 -4.865,0.217 -7.226,0.359c-0.537,0.034 -0.542,0.872 -0,0.842c2.396,-0.134 4.967,-0.031 7.321,-0.495c0.421,-0.082 0.285,-0.677 -0.095,-0.706Z" style="fill:#e8cee5;fill-rule:nonzero;"/></g></svg>