<?xml version="1.0" encoding="UTF-8" standalone="no"?><!DOCTYPE svg PUBLIC "-//W3C//DTD SVG 1.1//EN" "http://www.w3.org/Graphics/SVG/1.1/DTD/svg11.dtd"><svg width="100%" height="100%" viewBox="0 0 104 123" version="1.1" xmlns="http://www.w3.org/2000/svg" xmlns:xlink="http://www.w3.org/1999/xlink" xml:space="preserve" xmlns:serif="http://www.serif.com/" style="fill-rule:evenodd;clip-rule:evenodd;stroke-linejoin:round;stroke-miterlimit:2;"><g><path d="M93.048,120.696c-1.095,-0.12 -2.19,-0.207 -3.299,-0.26l-62.941,-0.047c-0.067,0.007 -0.134,0.008 -0.201,0.013c-0.018,0.002 -0.036,0.003 -0.053,0.004c-2.966,-0.004 -9.977,-0.017 -9.977,-0.017c-0.067,0.007 -0.134,0.008 -0.201,0.013c-0.107,0.009 -0.213,0.014 -0.32,0.027c-0.374,0.027 -0.748,0.06 -1.116,0.1c-1.229,0.127 -1.229,1.776 0,1.903c0.374,0.04 1.563,0.14 1.623,0.147c0,0 6.794,-0.013 9.977,-0.018c0.023,0.001 0.045,0.003 0.067,0.005c0.06,0.005 0.127,0.006 0.187,0.013l62.962,-0.053c1.109,-0.054 2.204,-0.141 3.292,-0.261c1.002,-0.113 1.009,-1.456 0,-1.569Z" style="fill:#c6c6c6;fill-rule:nonzero;"/><path d="M29.491,25.755c-1.147,4.929 -2.407,10.082 -5.775,13.858c-3.39,3.8 -8.405,5.637 -12.633,8.476c-4.34,2.915 -7.947,7.042 -9.785,11.938c-1.837,4.895 -1.792,10.565 0.569,15.23c2.042,4.034 5.695,7.239 6.941,11.584c0.664,2.32 0.585,4.802 1.244,7.124c1.896,6.672 9.255,10.218 16.1,11.339c6.846,1.122 14.037,0.697 20.49,3.245c3.802,1.501 7.64,4.052 11.622,3.129c2.866,-0.665 5.03,-3.012 7.735,-4.17c3.876,-1.661 8.329,-0.708 12.516,-1.205c5.75,-0.682 11.065,-4.335 13.763,-9.458c2.231,-4.234 2.676,-9.144 3.795,-13.798c1.715,-7.133 5.069,-13.82 6.44,-21.027c1.371,-7.207 0.268,-15.593 -5.402,-20.249c-2.051,-1.685 -4.547,-2.754 -6.629,-4.402c-8.472,-6.703 -7.485,-20.187 -14.129,-28.706c-4.504,-5.777 -12.092,-8.505 -19.416,-8.656c-5.843,-0.12 -11.808,1.277 -16.642,4.561c-7.494,5.091 -8.89,12.96 -10.804,21.187Z" style="fill:#f6f6f6;fill-rule:nonzero;"/><path d="M55.228,52.857c-0.066,1.422 -0.254,3.083 -0.521,4.886c-0.475,3.219 -1.215,6.881 -2.017,10.434c-1.849,8.167 -4.013,15.713 -4.013,15.713c-0.087,4.414 -0.788,9.583 -1.65,14.352c-0.086,0.52 -0.187,1.028 -0.28,1.536c-0.314,1.643 -0.634,3.225 -0.948,4.688c-1.135,5.202 -2.164,8.949 -2.164,8.949l-4.982,-0.942c-0.234,-2.832 -0.327,-5.523 -0.321,-8.054c0,-1.576 0.041,-3.078 0.107,-4.521c0.034,-0.755 0.08,-1.489 0.127,-2.197c0.588,-8.615 2.077,-14.312 2.091,-15.453c0.04,-5.757 0.374,-10.785 0.841,-15.073c1.282,-11.814 3.566,-17.964 3.566,-17.964c3.219,-7.406 8.052,-6.898 9.65,-1.44c0.409,1.395 0.608,3.103 0.514,5.086Z" style="fill:#f5a784;fill-rule:nonzero;"/><path d="M71.076,106.035c-0.027,2.051 -0.127,4.201 -0.308,6.438l-4.981,0.942c0,0 -0.882,-3.22 -1.911,-7.841c-0.38,-1.696 -0.774,-3.579 -1.155,-5.563c-0.107,-0.567 -0.214,-1.142 -0.32,-1.723c-0.862,-4.781 -1.576,-9.97 -1.656,-14.398c0,0 -2.185,-7.599 -4.034,-15.8c-0.795,-3.52 -1.531,-7.161 -2.004,-10.347c-0.268,-1.809 -0.447,-3.47 -0.514,-4.886c-0.093,-1.983 0.11,-3.697 0.521,-5.086c1.615,-5.46 6.431,-5.96 9.65,1.44c0,0 2.271,6.117 3.546,17.878c0.474,4.3 0.808,9.362 0.855,15.159c0.013,1.135 1.476,6.731 2.077,15.219c0.047,0.708 0.093,1.436 0.127,2.184c0.1,1.997 0.14,4.127 0.107,6.384Z" style="fill:#f5a784;fill-rule:nonzero;"/><path d="M70.842,97.467c-2.625,0.414 -5.49,0.675 -8.441,0.821c-0.862,-4.781 -1.576,-9.97 -1.656,-14.398c0,0 -2.185,-7.599 -4.034,-15.8c-0.795,-3.52 -1.529,-7.161 -2.004,-10.347c-0.474,3.213 -1.215,6.881 -2.017,10.434c-1.849,8.167 -4.013,15.713 -4.013,15.713c-0.087,4.414 -0.788,9.583 -1.65,14.352c-3.112,-0.14 -6.003,-0.341 -8.461,-0.541c0.588,-8.615 2.077,-14.312 2.091,-15.453c0.04,-5.757 0.374,-10.785 0.841,-15.073c1.282,-11.814 3.566,-17.964 3.566,-17.964c3.219,-7.406 8.047,-6.896 9.65,-1.44c1.222,-4.168 4.327,-5.445 7.159,-2.52c0.882,0.908 1.73,2.21 2.491,3.96c0,0 0.721,1.937 1.576,5.73c0.668,2.938 1.416,7.005 1.97,12.148c0.474,4.3 0.808,9.362 0.855,15.159c0.013,1.135 1.476,6.731 2.077,15.219Z" style="fill:#ab8da8;fill-rule:nonzero;"/><path d="M65.94,54.941c-2.805,-3.052 -15.086,-3.847 -15.086,-3.847l11.019,-5.843c0.882,0.908 1.73,2.21 2.491,3.96c0,0 0.721,1.937 1.576,5.73Z" style="fill:#826b80;fill-rule:nonzero;"/><path d="M44.285,118.444c-0.001,0.053 -0.007,0.106 -0.014,0.153c-0.167,2.304 -2.043,1.95 -4.828,1.99c-2.224,0.033 -3.406,-1.235 -3.272,-2.578c0.033,-0.374 0.173,-0.761 0.421,-1.122c0.764,-1.104 1.181,-2.453 1.374,-3.225c0.128,-0.513 0.412,-0.977 0.824,-1.309c1.753,-1.411 3.427,-0.326 4.273,0.452c0.372,0.341 0.628,0.78 0.741,1.271c0.213,0.92 0.513,2.663 0.481,4.368Z" style="fill:#3b2645;fill-rule:nonzero;"/><path d="M69.989,120.587c-2.851,-0.04 -4.795,0.329 -4.842,-2.143c-0.001,-0.074 -0.006,-0.141 0,-0.214c-0.039,-1.566 0.245,-3.135 0.448,-4.038c0.125,-0.558 0.408,-1.068 0.835,-1.448c0.824,-0.733 2.341,-1.667 3.953,-0.579c0.553,0.374 0.935,0.951 1.103,1.598c0.202,0.785 0.616,2.067 1.348,3.124c0.14,0.201 0.247,0.414 0.321,0.621c0.514,1.51 -0.668,3.119 -3.166,3.079Z" style="fill:#3b2645;fill-rule:nonzero;"/><path d="M59.842,13.244c0.291,-0.316 0.441,-0.727 0.506,-1.12c0.107,-0.646 0.065,-1.334 0.353,-1.923c0.148,-0.302 0.38,-0.57 0.455,-0.898c0.076,-0.33 -0.028,-0.695 -0.267,-0.936c-0.174,-0.176 -0.423,-0.301 -0.502,-0.536c-0.048,-0.141 -0.023,-0.295 -0.032,-0.444c-0.026,-0.45 -0.369,-0.831 -0.769,-1.04c-0.399,-0.21 -0.854,-0.281 -1.296,-0.369c-0.442,-0.088 -0.896,-0.2 -1.255,-0.472c-0.167,-0.127 -0.31,-0.286 -0.495,-0.385c-0.32,-0.174 -0.71,-0.139 -1.07,-0.078c-0.678,0.116 -1.342,0.314 -1.974,0.587c-0.236,0.102 -0.472,0.216 -0.727,0.252c-0.383,0.055 -0.778,-0.071 -1.159,0c-0.583,0.109 -0.981,0.644 -1.263,1.165c-0.082,0.151 -0.165,0.312 -0.308,0.41c-0.155,0.106 -0.353,0.119 -0.533,0.175c-0.48,0.149 -0.811,0.609 -0.944,1.094c-0.14,0.513 -0.085,1.016 -0.031,1.53c0.053,0.506 0.044,1 0.169,1.5c1.029,4.121 1.319,2.948 1.319,2.948c1.035,-0.096 2.07,-0.203 3.104,-0.315c1.388,-0.151 2.776,-0.311 4.159,-0.514c0.552,-0.08 1.099,-0.194 1.651,-0.28c0.365,-0.056 0.636,-0.068 0.909,-0.351Z" style="fill:#3b2645;fill-rule:nonzero;"/><path d="M49.761,12.918c0,0 -0.918,-1.035 -1.77,0.055c-0.853,1.089 0.714,3.075 1.867,3.13c0,0 0.05,-2.731 -0.097,-3.185Z" style="fill:#e0855c;fill-rule:nonzero;"/><path d="M66.628,24.735c-0.447,1.162 -1.911,5.109 -2.692,8.875c-0.08,0.388 -0.146,0.762 -0.213,1.136c-0.06,0.334 -0.107,0.641 -0.147,0.942c-0.02,0.18 -0.047,0.42 -0.08,0.707c-0.314,3.052 -0.915,11.587 -1.022,13.043c-0.006,0.133 -0.013,0.207 -0.013,0.207c-7.941,2.451 -16.315,0.501 -16.315,0.501c0,0 -0.013,-0.154 -0.06,-0.448c-0.18,-1.416 -1.903,-16.508 -1.963,-17.116c-0.355,-3.586 -0.615,-6.892 -0.635,-8.949c-0.007,-0.3 0.267,-0.475 0.668,-0.587c0.647,-0.182 1.556,-0.221 2.271,-0.341c1.488,-0.261 3.098,-0.381 4.027,-0.421c0.127,-0.007 0.233,-0.013 0.333,-0.02c0.074,-0.013 0.141,-0.012 0.201,-0.013c0.16,-0.003 0.247,-0.007 0.247,-0.007l0.253,-4.081c0.134,0.027 0.268,0.048 0.401,0.054c0.267,0.04 0.528,0.058 0.781,0.06c0.341,0.004 0.654,-0.014 0.949,-0.046c0.153,-0.017 0.3,-0.034 0.441,-0.06c0.207,-0.034 0.407,-0.067 0.601,-0.114c0.32,-0.08 0.634,-0.174 0.921,-0.287c0.094,-0.027 0.181,-0.054 0.268,-0.1c0.026,-0.007 0.053,-0.014 0.073,-0.027c0.067,-0.027 0.14,-0.06 0.207,-0.087c0.427,-0.187 0.788,-0.394 1.082,-0.581c0.187,-0.12 0.354,-0.234 0.481,-0.327c0.046,-0.04 0.067,-0.053 0.086,-0.067c0.075,-0.052 0.134,-0.094 0.181,-0.14c0.06,-0.047 0.1,-0.08 0.113,-0.094c-0.02,0.147 -0.033,0.207 -0.04,0.274c-0.08,0.668 -0.134,1.536 -0.147,2.391c-0.02,0.588 -0.02,1.169 -0.027,1.676c0,0.875 0.02,1.509 0.02,1.509c0.161,-0.006 0.314,-0.006 0.468,0.007c0.033,0 0.073,0 0.107,0.007c0.02,-0.014 0.046,-0.014 0.067,-0.007c0.874,0.013 1.716,0.094 2.484,0.214c2.197,0.347 3.694,0.745 4.568,1.102c0.227,0.092 0.392,0.176 0.528,0.254c0.191,0.11 0.601,0.761 0.527,0.961Z" style="fill:#f5a784;fill-rule:nonzero;"/><path d="M58.078,16.337c-0.886,4.707 -5.6,4.53 -6.723,3.946l0.133,-2.12c3.901,0.672 6.59,-1.826 6.59,-1.826Z" style="fill:#e0855c;fill-rule:nonzero;"/><path d="M49.869,9.841c-0.57,0.63 -0.576,2.004 -0.579,3.522c-0.007,4.599 1.413,5.991 3.767,6.172c2.354,0.18 4.78,-0.797 5.155,-5.072c0.187,-2.138 0.397,-4.113 -0.406,-5.01c-1.198,-1.336 -6.19,-1.544 -7.937,0.388Z" style="fill:#f5a784;fill-rule:nonzero;"/><path d="M57.867,13.858c0,0 0.66,-1.924 1.824,-0.951c1.164,0.974 -0.314,3.896 -2.053,3.736c0,0 -0.303,-2.117 0.229,-2.785Z" style="fill:#f5a784;fill-rule:nonzero;"/><path d="M59.188,13.789c-0.25,0.051 -0.499,0.296 -0.675,0.47c-0.183,0.184 -0.399,0.411 -0.486,0.66c-0.027,0.077 0.082,0.122 0.132,0.071c0.143,-0.141 0.255,-0.308 0.388,-0.46c0.101,0.103 0.203,0.206 0.341,0.252c0.105,0.036 0.179,-0.096 0.13,-0.181c-0.062,-0.108 -0.173,-0.184 -0.282,-0.254c0.176,-0.144 0.389,-0.26 0.534,-0.426c0.055,-0.064 -0.005,-0.148 -0.082,-0.132Z" style="fill:#e0855c;fill-rule:nonzero;"/><path d="M51.303,13.193c0,0 -0.392,0.16 -0.354,-0.545c0.035,-0.634 0.32,-0.558 0.32,-0.558c0,0 0.276,-0.01 0.252,0.544c-0.025,0.555 -0.218,0.559 -0.218,0.559Z" style="fill:#3b2645;fill-rule:nonzero;"/><path d="M55.328,13.069c0,0 -0.393,0.16 -0.354,-0.545c0.035,-0.634 0.32,-0.557 0.32,-0.557c0,0 0.276,-0.01 0.251,0.544c-0.024,0.554 -0.217,0.558 -0.217,0.558Z" style="fill:#3b2645;fill-rule:nonzero;"/><path d="M53.165,15.01c-0.202,-0.024 -0.66,0.111 -0.761,-0.104c-0.085,-0.178 0.206,-1.256 0.246,-1.441c0.145,-0.665 0.305,-1.117 0.405,-1.913c0.005,-0.034 -0.056,-0.052 -0.071,-0.016c-0.433,1.065 -0.567,2.372 -0.815,3.497c-0.013,0.062 0.034,0.126 0.099,0.122c0.295,-0.013 0.584,0.04 0.878,0.033c0.099,-0.002 0.122,-0.166 0.019,-0.178Z" style="fill:#e0855c;fill-rule:nonzero;"/><path d="M52.091,11.082c-0.236,-0.062 -0.489,-0.007 -0.733,-0.027c-0.259,-0.022 -0.514,-0.128 -0.774,-0.105c-0.125,0.011 -0.206,0.16 -0.107,0.258c0.34,0.334 1.245,0.447 1.66,0.226c0.148,-0.078 0.111,-0.312 -0.046,-0.352Z" style="fill:#3b2645;fill-rule:nonzero;"/><path d="M56.411,10.533c-0.385,0.163 -0.686,0.347 -1.116,0.371c-0.256,0.014 -0.562,-0.047 -0.769,0.126c-0.033,0.027 -0.04,0.091 -0.016,0.126c0.398,0.584 1.703,-0.097 2.015,-0.508c0.057,-0.076 -0.049,-0.142 -0.114,-0.115Z" style="fill:#3b2645;fill-rule:nonzero;"/><path d="M54.689,16.213c-0.413,-0.1 -0.876,-0.049 -1.297,-0.035c-0.301,0.01 -0.718,-0.048 -0.929,0.194c0.234,0.221 0.633,0.127 0.929,0.121c0.426,-0.008 0.879,0.045 1.297,-0.039c0.122,-0.025 0.116,-0.214 0,-0.241Z" style="fill:#e0855c;fill-rule:nonzero;"/><path d="M89.715,69.472l-71.756,0c-0.369,0 -0.668,-0.299 -0.668,-0.668c0,-0.369 0.299,-0.668 0.668,-0.668l71.756,0c0.369,0 0.668,0.299 0.668,0.668c0,0.369 -0.299,0.668 -0.668,0.668Z" style="fill:#3b2645;fill-rule:nonzero;"/><path d="M20.233,72.236c-0.628,0 -1.136,-0.509 -1.136,-1.137l0,-4.591c0,-0.628 0.508,-1.137 1.136,-1.137c0.628,0 1.137,0.509 1.137,1.137l0,4.591c0,0.628 -0.509,1.137 -1.137,1.137Z" style="fill:#3b2645;fill-rule:nonzero;"/><path d="M22.506,76.249c-0.627,0 -1.136,-0.509 -1.136,-1.137l0,-12.617c0,-0.628 0.509,-1.137 1.136,-1.137c0.628,0 1.137,0.509 1.137,1.137l0,12.617c0,0.628 -0.509,1.137 -1.137,1.137Z" style="fill:#291b30;fill-rule:nonzero;"/><path d="M24.78,78.158c-0.628,0 -1.137,-0.508 -1.137,-1.136l0,-16.056c0,-0.628 0.509,-1.137 1.137,-1.137c0.628,0 1.137,0.509 1.137,1.137l0,16.056c0,0.628 -0.509,1.136 -1.137,1.136Z" style="fill:#3b2645;fill-rule:nonzero;"/><path d="M86.447,72.236c0.628,0 1.137,-0.509 1.137,-1.137l0,-4.591c0,-0.628 -0.509,-1.137 -1.137,-1.137c-0.628,0 -1.137,0.509 -1.137,1.137l0,4.591c0,0.628 0.509,1.137 1.137,1.137Z" style="fill:#3b2645;fill-rule:nonzero;"/><path d="M84.174,76.249c0.627,0 1.136,-0.509 1.136,-1.137l0,-12.617c0,-0.628 -0.509,-1.137 -1.136,-1.137c-0.628,0 -1.137,0.509 -1.137,1.137l0,12.617c0,0.628 0.509,1.137 1.137,1.137Z" style="fill:#291b30;fill-rule:nonzero;"/><path d="M81.9,78.158c0.628,0 1.137,-0.508 1.137,-1.136l0,-16.056c0,-0.628 -0.509,-1.137 -1.137,-1.137c-0.628,0 -1.136,0.509 -1.136,1.137l0,16.056c0,0.628 0.508,1.136 1.136,1.136Z" style="fill:#3b2645;fill-rule:nonzero;"/><path d="M47.889,31.36c-0.354,1.476 -1.055,2.845 -1.73,4.201c-0.3,0.614 -1.495,3.212 -1.542,3.312c-1.864,4.107 -4.495,10.111 -4.688,10.825c-0.621,2.311 -1.87,15.707 -1.884,15.721c-1.275,1.923 -3.713,0.995 -3.713,0.995c0,0 -0.046,-0.408 -0.106,-1.102c-0.281,-2.978 -0.936,-11.353 -0.174,-16.295c0.214,-1.376 1.048,-4.695 2.043,-8.454c0.815,-3.113 1.175,-5.977 2.151,-8.969c0.728,-2.251 1.796,-4.582 3.646,-7.132c0.354,-0.495 1.635,-1.355 2.264,-1.416c0.38,-0.037 0.541,0.487 0.862,0.627c0.894,0.401 1.642,1.116 2.076,1.997c0.848,1.716 1.236,3.807 0.795,5.69Z" style="fill:#f5a784;fill-rule:nonzero;"/><path d="M34.09,67.868c0.042,-0.458 0.092,-0.916 0.106,-1.36c0.023,-0.707 0.01,-1.171 0.01,-1.171c0.605,-0.873 2.52,-1.082 3.359,-0.534c0.257,0.167 0.459,0.404 0.68,0.615c0.405,0.386 0.881,0.696 1.261,1.108c0.38,0.411 0.663,0.969 0.557,1.519c-0.495,0.093 -0.939,0.234 -1.264,0.634c-0.381,0.47 -0.221,0.902 -0.399,1.422c-0.141,0.414 -0.634,0.577 -1.068,0.639c-1.306,0.188 -3.184,0.258 -3.29,-1.436c-0.029,-0.465 0.005,-0.95 0.048,-1.436Z" style="fill:#f5a784;fill-rule:nonzero;"/><path d="M75.029,65.312c-0.06,0.694 -0.107,1.102 -0.107,1.102c0,0 -2.437,0.928 -3.719,-0.995c-0.007,-0.014 -1.256,-13.41 -1.877,-15.721c-0.1,-0.387 -0.902,-2.277 -1.903,-4.574c-1.049,-2.404 -4.221,-9.343 -4.328,-9.563c-0.674,-1.356 -1.382,-2.725 -1.729,-4.201c-0.441,-1.883 -0.054,-3.974 0.794,-5.69c0.434,-0.881 1.182,-1.596 2.077,-1.997c0.314,-0.14 0.661,-0.24 1.009,-0.213c0.113,0.006 0.22,0.027 0.327,0.06c0.2,0.061 0.367,0.147 0.528,0.254c0.253,0.16 0.487,0.374 0.701,0.587c1.89,1.897 3.085,4.301 3.953,6.872c1.042,3.065 1.63,6.371 2.404,9.33c0.995,3.759 1.823,7.078 2.037,8.454c0.768,4.942 0.107,13.317 -0.167,16.295Z" style="fill:#f5a784;fill-rule:nonzero;"/><path d="M75.124,67.872c-0.035,-0.506 -0.055,-0.976 -0.068,-1.364c-0.023,-0.707 -0.01,-1.171 -0.01,-1.171c-0.605,-0.873 -2.519,-1.082 -3.359,-0.534c-0.256,0.167 -0.459,0.404 -0.68,0.615c-0.405,0.386 -0.881,0.696 -1.261,1.108c-0.38,0.411 -0.663,0.969 -0.557,1.519c0.008,0.038 1.179,0.303 1.341,0.466c0.386,0.388 0.095,0.733 0.091,1.18c-0.005,0.628 0.436,0.841 0.982,0.946c0.384,0.073 0.769,0.147 1.155,0.205c0.611,0.093 1.271,0.14 1.812,-0.16c0.085,-0.047 0.166,-0.103 0.222,-0.182c0.051,-0.071 0.077,-0.157 0.101,-0.241c0.229,-0.812 0.288,-1.56 0.231,-2.387Z" style="fill:#f5a784;fill-rule:nonzero;"/><path d="M63.936,33.61l0.568,16.008c-9.443,3.686 -19.66,0.247 -19.66,0.247l-0.227,-15.346c-0.1,-0.027 -0.207,-0.055 -0.307,-0.087c-0.458,-0.143 -0.949,-0.301 -1.45,-0.501c-0.294,-0.113 -0.588,-0.234 -0.881,-0.367c-1.282,-0.575 -2.578,-1.282 -3.733,-1.97c0.728,-2.251 1.796,-4.582 3.646,-7.132c0.354,-0.495 1.636,-1.35 2.264,-1.416c0.648,-0.181 1.556,-0.221 2.271,-0.341c1.488,-0.261 3.098,-0.381 4.027,-0.421l3.719,9.196c0,0 2.805,-5.289 4.174,-9.276c0.033,0 0.073,0 0.107,0.007c0.02,-0.014 0.046,-0.014 0.067,-0.007c0.874,0.013 1.716,0.094 2.484,0.214c2.197,0.347 3.693,0.748 4.568,1.102c0.2,0.06 0.367,0.147 0.528,0.254c0.253,0.16 0.487,0.374 0.701,0.587c1.89,1.897 3.085,4.301 3.953,6.872c-1.195,0.561 -2.571,1.068 -3.766,1.462c-1.703,0.568 -3.053,0.915 -3.053,0.915Z" style="fill:#3b2645;fill-rule:nonzero;"/><path d="M44.617,29.23l0,5.289c-0.1,-0.027 -0.207,-0.055 -0.307,-0.087c-0.458,-0.143 -0.949,-0.301 -1.45,-0.501c1.002,-2.257 1.757,-4.701 1.757,-4.701Z" style="fill:#27192e;fill-rule:nonzero;"/><path d="M42.009,114.908c-0.806,-0.448 -2.324,-0.794 -3.119,-0.171c-0.051,0.039 -0.056,0.113 -0.046,0.17c0.004,0.019 0.008,0.038 0.011,0.058c0.015,0.078 0.112,0.104 0.173,0.071c0.034,-0.016 0.046,-0.008 0.073,-0.025c0.18,-0.108 0.378,-0.165 0.587,-0.181c0.264,-0.024 0.53,0.026 0.786,0.076c0.49,0.097 0.964,0.265 1.467,0.25c0.128,-0.004 0.186,-0.182 0.068,-0.248Z" style="fill:#27192e;fill-rule:nonzero;"/><path d="M42.528,116.356c-0.394,-0.443 -1.094,-0.514 -1.656,-0.578c-0.532,-0.061 -1.283,-0.153 -1.735,0.183c-0.08,0.06 -0.116,0.21 0,0.261c0.454,0.202 0.973,0.097 1.463,0.152c0.588,0.066 1.211,0.371 1.797,0.298c0.159,-0.019 0.245,-0.188 0.131,-0.316Z" style="fill:#27192e;fill-rule:nonzero;"/><path d="M70.059,114.362c-0.801,-0.658 -2.838,-0.455 -3.485,0.368c-0.102,0.13 -0.055,0.389 0.153,0.37c0.527,-0.047 1.003,-0.306 1.536,-0.362c0.546,-0.058 1.075,0.143 1.606,0.083c0.203,-0.022 0.39,-0.294 0.19,-0.459Z" style="fill:#27192e;fill-rule:nonzero;"/><path d="M70.494,115.705c-0.638,-0.245 -1.426,-0.13 -2.099,-0.112c-0.484,0.013 -1.016,0.006 -1.347,0.409c-0.147,0.179 -0.016,0.524 0.252,0.431c1.021,-0.356 2.176,0.182 3.194,-0.195c0.264,-0.097 0.259,-0.433 0,-0.533Z" style="fill:#27192e;fill-rule:nonzero;"/><path d="M26.479,102.871c-0.01,0.045 -0.021,0.089 -0.034,0.13c-0.114,0.21 -0.258,0.367 -0.432,0.474c-0.57,0.353 -1.451,0.222 -2.559,-0.12c-1.461,-0.45 -2.308,-0.456 -4.263,0.181c-0.967,0.316 -1.519,0.182 -1.831,-0.03c-0.178,-0.124 -0.278,-0.271 -0.333,-0.378c-0.048,-0.123 -0.085,-0.264 -0.113,-0.418c-0.055,-0.309 -0.065,-0.682 -0.041,-1.125c0.175,-3.062 4.839,-2.744 4.839,-2.744c0,0 4.668,-0.318 4.843,2.744c0.03,0.521 0.006,0.946 -0.076,1.286Zm3.062,4.139c-0.041,-0.075 -0.061,-0.113 -0.082,-0.147c-0.189,-0.374 -0.596,-1.481 -0.223,-3.512c0.045,-0.24 0.096,-0.49 0.165,-0.758c0.312,-1.234 0.737,-6.217 -7.689,-6.303c-8.423,0.086 -8.001,5.069 -7.685,6.303c0.082,0.323 0.144,0.624 0.192,0.909c0.325,1.938 -0.066,3.001 -0.254,3.361c-0.02,0.038 -0.041,0.075 -0.062,0.113c-0.717,1.308 -1.121,2.771 -1.121,4.328c0,4.935 3.999,8.934 8.93,8.934c4.935,0 8.931,-3.999 8.931,-8.934c0,-1.557 -0.403,-3.017 -1.102,-4.294Z" style="fill:#ab8da8;fill-rule:nonzero;"/><path d="M29.401,102.593c-0.069,0.268 -0.12,0.518 -0.165,0.758c-1.08,0.024 -2.064,-0.23 -2.757,-0.48c0.082,-0.34 0.106,-0.765 0.076,-1.286c-0.175,-3.062 -4.843,-2.744 -4.843,-2.744c0,0 -4.664,-0.318 -4.839,2.744c-0.024,0.443 -0.014,0.816 0.041,1.125c-0.939,0.404 -1.899,0.648 -2.695,0.792c-0.048,-0.285 -0.11,-0.586 -0.192,-0.909c-0.316,-1.234 -0.738,-6.217 7.685,-6.303c8.426,0.086 8.001,5.069 7.689,6.303Z" style="fill:#826b80;fill-rule:nonzero;"/><path d="M18.67,111.306c0,-1.68 1.362,-3.043 3.042,-3.043c1.681,0 3.042,1.363 3.042,3.043c0,1.68 -1.361,3.042 -3.042,3.042c-1.68,0 -3.042,-1.362 -3.042,-3.042Z" style="fill:#826b80;fill-rule:nonzero;"/><path d="M16.755,106.776c-1.291,0.812 -1.557,2.948 -1.386,4.318c0.028,0.225 0.383,0.329 0.437,0.06c0.152,-0.77 0.125,-1.559 0.317,-2.324c0.172,-0.682 0.521,-1.219 0.868,-1.817c0.085,-0.147 -0.088,-0.33 -0.236,-0.237Z" style="fill:#e8cee5;fill-rule:nonzero;"/><path d="M27.997,113.794c-0.016,-0.162 -0.247,-0.265 -0.335,-0.091c-0.3,0.587 -0.454,1.18 -0.895,1.694c-0.319,0.371 -0.87,0.69 -0.913,1.204c-0.003,0.041 0.039,0.081 0.079,0.079c0.545,-0.027 1.086,-0.719 1.403,-1.125c0.375,-0.48 0.721,-1.136 0.661,-1.761Z" style="fill:#e8cee5;fill-rule:nonzero;"/><path d="M35.196,15.609c-3.451,0.635 -7.028,0.1 -10.384,1.392c-0.224,0.086 -0.217,0.466 0.061,0.45c2.033,-0.115 4.04,-0.526 6.077,-0.646c1.472,-0.088 3.205,0.223 4.538,-0.505c0.396,-0.217 0.111,-0.766 -0.292,-0.691Z" style="fill:#e8cee5;fill-rule:nonzero;"/><path d="M36.445,10.807c-1.677,-0.84 -3.423,-1.631 -5.194,-2.254c-0.306,-0.108 -0.486,0.356 -0.217,0.515c1.586,0.94 3.283,1.754 4.974,2.487c0.499,0.216 0.945,-0.493 0.437,-0.748Z" style="fill:#e8cee5;fill-rule:nonzero;"/></g></svg>