<?xml version="1.0" encoding="UTF-8" standalone="no"?><!DOCTYPE svg PUBLIC "-//W3C//DTD SVG 1.1//EN" "http://www.w3.org/Graphics/SVG/1.1/DTD/svg11.dtd"><svg width="100%" height="100%" viewBox="0 0 105 107" version="1.1" xmlns="http://www.w3.org/2000/svg" xmlns:xlink="http://www.w3.org/1999/xlink" xml:space="preserve" xmlns:serif="http://www.serif.com/" style="fill-rule:evenodd;clip-rule:evenodd;stroke-linejoin:round;stroke-miterlimit:2;"><g><path d="M103.715,105.888c-1.088,0.12 -2.184,0.207 -3.292,0.261c-0.316,0.013 -89.903,0.053 -89.903,0.053c-0.059,-0.007 -0.127,-0.007 -0.186,-0.013c-0.482,-0.04 -0.955,-0.08 -1.436,-0.134c-1.229,-0.127 -1.229,-1.776 -0,-1.903c0.474,-0.053 0.954,-0.093 1.436,-0.127c0.066,-0.006 0.133,-0.006 0.2,-0.013c-0,0 89.573,0.033 89.882,0.047c1.108,0.053 2.204,0.14 3.299,0.26c1.008,0.113 1.002,1.456 -0,1.569Z" style="fill:#c6c6c6;fill-rule:nonzero;"/><path d="M31.001,96.189c-6.793,0.129 -14.849,-0.39 -18.42,-6.17c-2.859,-4.631 -1.458,-10.565 -1.675,-16.004c-0.219,-5.504 -2.187,-10.775 -3.119,-16.203c-0.934,-5.429 -0.634,-11.551 3.004,-15.687c3.349,-3.808 8.784,-5.109 12.487,-8.574c4.211,-3.941 5.529,-9.97 7.91,-15.223c4.068,-8.972 12.211,-16.395 21.926,-18.027c9.715,-1.632 20.6,3.478 24.228,12.637c2.797,7.063 1.308,15.55 5.299,22.015c2.591,4.199 7.082,6.817 10.382,10.486c6.843,7.608 7.82,18.665 8.459,28.877c0.228,3.637 0.418,7.467 -1.195,10.734c-2.14,4.332 -6.885,6.617 -11.297,8.591c-5.224,2.337 -10.63,4.716 -16.353,4.803c-6.977,0.106 -13.5,-3.131 -20.444,-3.217c-6.935,-0.085 -14.155,0.827 -21.192,0.962Z" style="fill:#f6f6f6;fill-rule:nonzero;"/><path d="M51.527,89.92c-0,0.194 -0.007,0.387 -0.007,0.581c-0.093,7.727 -4.521,8.896 -7.827,8.001c-0.601,-0.161 -1.121,-0.728 -1.561,-1.61c-0.522,-1.008 -0.943,-2.417 -1.29,-4.087c-0.054,-0.254 -0.107,-0.521 -0.16,-0.788c-0.935,-4.928 -1.316,-11.68 -1.61,-16.756c-0.026,-0.501 -0.06,-0.988 -0.086,-1.455c-0.134,-2.258 -0.261,-4.048 -0.435,-4.989c-0.099,-0.521 -0.207,-0.775 -0.334,-0.715c-5.663,2.732 -24.021,5.63 -25.016,7.179c-1.002,1.55 -2.262,2.166 -5.157,1.143c-2.565,-0.906 -5.568,-0.034 -7.532,-0.455c-0.668,-0.147 -0.687,-1.088 -0.026,-1.269c4.614,-1.268 9.816,-2.931 9.816,-2.931c-0,0 13.838,-7.513 21.29,-10.198c1.884,-0.681 4.122,-1.656 6.406,-2.103c0.253,-0.047 0.5,-0.093 0.754,-0.127c0.527,-0.073 1.055,-0.113 1.576,-0.113c4.608,0.006 8.989,3.332 10.578,16.848c0.194,1.663 0.348,3.486 0.454,5.476c0.134,2.511 0.194,5.296 0.167,8.368Z" style="fill:#f5a784;fill-rule:nonzero;"/><path d="M35.693,68.47c-0.194,0.974 -1.002,1.743 -1.903,2.163c-0.013,0.007 -0.033,0.014 -0.047,0.02c-0.334,0.154 -0.681,0.268 -1.035,0.361c-0.594,0.154 -1.201,0.241 -1.81,0.341c-0.18,0.026 -0.36,0.06 -0.541,0.1c-0.393,0.06 -0.781,0.134 -1.168,0.214c-1.042,0.2 -2.07,0.434 -3.093,0.701c-0.36,0.087 -0.72,0.18 -1.082,0.287c-1.007,0.274 -2.009,0.581 -3.005,0.915c-0.386,0.133 -0.774,0.267 -1.155,0.407c-0.454,0.16 -0.908,0.334 -1.355,0.508c-0.234,0.093 -0.494,0.207 -0.768,0.32c-0.341,0.154 -0.702,0.307 -1.075,0.448c-0.95,0.347 -1.95,0.554 -2.731,0.106c-1.156,-0.661 -2.278,-2.337 -3.247,-3.272c-0.547,-0.527 -1.141,-1.289 -0.801,-1.977c0.161,-0.32 0.495,-0.514 0.808,-0.694c0.414,-0.234 7.781,-4.147 7.988,-4.247c0.74,-0.38 3.464,-1.723 3.752,-1.863c0.728,-0.354 1.462,-0.701 2.205,-1.015c0.253,-0.114 0.506,-0.214 0.76,-0.308c1.196,-0.467 2.418,-0.834 3.687,-0.981c0.366,-0.04 0.741,-0.067 1.089,0.053c0.461,0.154 0.807,0.535 1.122,0.908c0.908,1.076 1.736,2.218 2.484,3.407c0.58,0.934 1.135,2.016 0.921,3.098Z" style="fill:#e8cee5;fill-rule:nonzero;"/><path d="M50.906,76.076l-4.515,16.262l-5.709,-0.321c-0.935,-4.928 -1.316,-11.68 -1.61,-16.756c-0.026,-0.501 -0.06,-0.988 -0.086,-1.455c1.909,-7.68 1.616,-12.568 1.342,-14.578c4.608,0.006 8.989,3.332 10.578,16.848Z" style="fill:#e0855c;fill-rule:nonzero;"/><path d="M74.113,83.923c-0.04,0.147 -0.08,0.287 -0.127,0.434c-1.99,7.005 -5.536,12.021 -8.094,14.946c-2.117,2.424 -4.962,4.134 -8.121,4.762c-7.573,1.516 -13.41,-1.403 -16.041,-6.913c-0.988,-2.07 -1.429,-5.075 -1.555,-8.514c-0.381,-10.431 3.061,-25.305 3.004,-30.031c-0.089,-7.412 2.532,-23.728 1.51,-25.264c-1.028,-1.536 -1.51,-3.299 0.641,-5.256c2.004,-1.83 2.618,-5.015 3.793,-6.645c0.401,-0.561 1.269,-0.2 1.176,0.475c-0.682,4.741 -1.236,10.177 -1.236,10.177c-0,0 1.061,15.714 1.883,23.587c0.915,8.802 2.138,19.801 3.139,26.038c0.127,0.768 0.246,1.463 0.361,2.077c0.227,1.209 1.529,-1.743 2.965,-3.172c1.856,-1.843 3.666,-3.018 3.666,-3.018l13.036,6.317Z" style="fill:#f5a784;fill-rule:nonzero;"/><path d="M79.195,74.694c-1.504,2.129 -3.292,5.923 -5.209,9.663c-1.863,3.64 -3.833,7.246 -5.743,9.19c-5.456,1.068 -10.832,-12.923 -10.832,-12.923l3.069,-7.61l0.31,-6.508c0.373,-1.562 1.66,-2.78 3.259,-2.964c0.2,-0.023 0.367,-0.04 0.528,-0.06c0.247,-0.027 0.487,-0.047 0.714,-0.061c1.256,-0.1 2.258,-0.093 2.258,-0.093l1.475,-5.316l4.421,-0.381c-0,0 -0.015,0.241 -0.026,0.628l-0.261,5.283c-0,0.04 0.835,0.1 1.964,0.307c1.689,0.294 4.058,0.902 5.308,2.177c0.875,0.895 0.006,6.911 -1.235,8.668Z" style="fill:#f5a784;fill-rule:nonzero;"/><path d="M79.195,74.694c-0.291,0.418 -0.581,0.874 -0.875,1.369c-1.129,1.883 -2.384,4.447 -3.713,7.072c-0.207,0.408 -0.414,0.815 -0.621,1.222c-1.99,7.005 -5.536,12.021 -8.094,14.946c-2.117,2.424 -4.962,4.134 -8.121,4.762c-7.573,1.516 -13.41,-1.403 -16.041,-6.913c-0.988,-2.07 -1.429,-5.075 -1.555,-8.514c3.479,-0.614 10.792,-4.374 13.91,-6.919c0.127,0.768 0.246,1.463 0.361,2.077c0.227,1.209 1.529,-1.743 2.965,-3.172l1.199,-4.2c-1.295,-0.647 -2.987,-3.307 -1.199,-4.672c2.478,-1.892 3.045,-3.863 3.045,-3.863l0.334,-1.383c0.373,-1.562 1.66,-2.78 3.259,-2.964c0.2,-0.023 0.367,-0.04 0.528,-0.06c0.247,-0.027 0.487,-0.047 0.714,-0.061c-0.895,2.952 -2.25,8.822 1.129,8.909c3.9,0.1 7.46,-5.757 8.702,-8.481c1.689,0.294 4.058,0.902 5.308,2.177c0.875,0.895 -0.007,6.901 -1.235,8.668Z" style="fill:#ff4590;fill-rule:nonzero;"/><path d="M51.807,43.315c0.07,0.677 0.484,5.301 0.526,5.9c0.01,0.308 0.028,0.615 0.034,0.923c0.032,0.904 0.012,1.812 -0.099,2.702c-0.041,0.381 -0.102,0.763 -0.178,1.14c-0.037,0.165 -0.075,0.323 -0.112,0.482c-0.085,0.351 -0.203,0.711 -0.434,0.998c-0.312,0.374 -0.788,0.564 -1.248,0.725c-1.329,0.459 -2.689,0.826 -4.07,1.103c-1.079,0.211 -2.287,0.342 -3.219,-0.24c-0.741,-0.468 -1.164,-1.317 -1.299,-2.19c-0.02,-0.119 -0.038,-0.238 -0.045,-0.358c-0.007,-0.14 -0.011,-0.273 -0.008,-0.415c0.016,-0.852 0.187,-1.705 0.363,-2.541c0.072,-0.35 0.308,-1.643 0.359,-1.937c0.134,-0.779 0.249,-1.563 0.342,-2.345c0.036,-0.252 0.059,-0.503 0.084,-0.754c0.075,-0.721 0.14,-1.44 0.201,-2.169c0.021,-0.264 0.04,-0.527 0.051,-0.79c0.064,-1.034 0.098,-2.071 0.092,-3.105c0.011,-0.222 0.008,-0.45 0.005,-0.671c0.001,-0.061 0.002,-0.115 -0.005,-0.181c-0.012,-0.509 -0.062,-1.128 -0.057,-1.739c0.002,-0.309 0.016,-0.62 0.06,-0.913c0.089,-0.707 0.312,-1.348 0.814,-1.755c1.028,-0.838 2.995,-1.295 4.212,-1.863c0.692,-0.326 1.616,-0.609 2.129,-0.05c0.243,0.263 0.309,0.646 0.358,1.003c0.049,0.338 1.109,8.701 1.144,9.04Z" style="fill:#e8cee5;fill-rule:nonzero;"/><path d="M78.32,76.063c-1.129,1.883 -2.384,4.447 -3.713,7.072c-0.2,-12.782 3.172,-16.088 3.172,-16.088l0.541,9.016Z" style="fill:#eb3f84;fill-rule:nonzero;"/><path d="M95.935,102.341c-2.083,0.171 -3.94,-0.767 -3.94,-0.767c-0,0 -8.632,-10.745 -9.23,-15.033c-0.598,-4.288 0.095,-11.758 -0.984,-17.212c-1.078,-5.454 -3.319,-3.362 -3.319,-3.362c-3.959,2.269 -1.868,18.864 -0.684,24.211c0.995,4.503 8.852,11.772 11.31,13.957c0.466,0.414 1.065,0.641 1.689,0.641l7.507,0c0.418,0 0.669,-0.47 0.43,-0.812c-0.527,-0.749 -1.474,-1.729 -2.779,-1.623Z" style="fill:#f5a784;fill-rule:nonzero;"/><path d="M18.731,74.807c-0.341,0.154 -0.702,0.307 -1.075,0.448c-0.621,-1.089 -1.196,-2.204 -1.87,-3.252c-0.809,-1.249 -1.804,-2.271 -2.846,-3.273c0.288,-0.167 0.582,-0.327 0.869,-0.481c2.024,1.843 3.646,4.114 4.922,6.558Z" style="fill:#ab8da8;fill-rule:nonzero;"/><path d="M22.009,73.572c-0.386,0.133 -0.774,0.267 -1.155,0.407c-0.393,-0.554 -0.761,-1.122 -1.122,-1.662c-1.215,-1.817 -2.531,-3.487 -3.899,-5.149c0.293,-0.161 0.58,-0.314 0.873,-0.468c1.069,0.975 1.925,2.21 2.746,3.392c0.828,1.196 1.682,2.345 2.557,3.48Z" style="fill:#ab8da8;fill-rule:nonzero;"/><path d="M26.096,72.37c-0.36,0.087 -0.72,0.18 -1.082,0.287c-1.015,-0.995 -1.936,-2.104 -2.811,-3.119c-1.109,-1.289 -2.21,-2.624 -3.145,-4.053c0.207,-0.107 0.408,-0.214 0.615,-0.314c1.087,1.382 2.15,2.791 3.325,4.107c0.962,1.075 2.07,2.057 3.098,3.092Z" style="fill:#ab8da8;fill-rule:nonzero;"/><path d="M30.357,71.455c-0.393,0.06 -0.781,0.134 -1.168,0.214c-1.177,-1.263 -2.404,-2.472 -3.7,-3.68c-1.309,-1.215 -2.605,-2.464 -3.586,-3.933c0.214,-0.114 0.434,-0.22 0.654,-0.321c1.416,1.643 2.958,3.119 4.602,4.601c1.088,0.975 2.236,1.983 3.198,3.119Z" style="fill:#ab8da8;fill-rule:nonzero;"/><path d="M33.743,70.653c-0.334,0.154 -0.681,0.268 -1.035,0.361c-0.914,-1.543 -1.857,-3.052 -3.045,-4.467c-1.263,-1.503 -2.671,-2.858 -4.033,-4.254c0.253,-0.114 0.506,-0.214 0.76,-0.308c2.879,2.285 5.79,5.35 7.353,8.668Z" style="fill:#ab8da8;fill-rule:nonzero;"/><path d="M52.268,52.84c-0.041,0.381 -0.102,0.763 -0.178,1.14c-3.257,1.1 -7.304,1.898 -10.382,0.878c-0.02,-0.119 -0.038,-0.238 -0.045,-0.358c-0.007,-0.14 -0.014,-0.273 -0.008,-0.415c3.354,0.77 7.252,-0.241 10.613,-1.245Z" style="fill:#ab8da8;fill-rule:nonzero;"/><path d="M52.333,49.215c0.01,0.308 0.028,0.615 0.034,0.923c-3.356,1.063 -6.937,1.559 -10.148,0.358c0.056,-0.295 0.107,-0.595 0.158,-0.889c3.398,0.866 6.647,0.6 9.956,-0.392Z" style="fill:#ab8da8;fill-rule:nonzero;"/><path d="M52.009,45.355c0.036,0.406 0.077,0.804 0.112,1.211c-3.046,1.131 -6.657,1.791 -9.402,0.696c0.036,-0.252 0.063,-0.503 0.084,-0.754c3.268,0.639 6.161,-0.223 9.206,-1.153Z" style="fill:#ab8da8;fill-rule:nonzero;"/><path d="M51.807,43.315c-2.811,1 -6.002,1.643 -8.803,1.024c0.026,-0.264 0.04,-0.527 0.051,-0.79c1.608,0.083 3.18,0.096 4.801,-0.198c1.319,-0.243 2.58,-0.634 3.841,-1.045c0.041,0.338 0.075,0.67 0.11,1.009Z" style="fill:#ab8da8;fill-rule:nonzero;"/><path d="M51.359,39.413c-2.682,0.618 -5.474,1.019 -8.212,1.031c0.011,-0.222 0.008,-0.45 0.005,-0.671c0.001,-0.061 0.002,-0.115 -0.005,-0.181c2.72,-0.319 5.39,-0.661 8.081,-1.192c0.047,0.337 0.09,0.675 0.131,1.013Z" style="fill:#ab8da8;fill-rule:nonzero;"/><path d="M50.972,36.425c-2.572,0.654 -5.264,1.105 -7.882,1.428c0.002,-0.309 0.016,-0.62 0.06,-0.913c2.529,-0.602 5.099,-1.202 7.658,-1.652c0.059,0.376 0.111,0.754 0.164,1.137Z" style="fill:#ab8da8;fill-rule:nonzero;"/><path d="M61.006,88.492c-1.287,-1.861 -3.244,-3.918 -5.489,-4.538c-0.217,-0.06 -0.393,0.115 -0.424,0.301c-0.064,0.057 -0.103,0.147 -0.083,0.241c0.041,0.197 0.069,0.225 0.239,0.329c0.022,0.013 0.047,0.015 0.069,0.015c1.904,1.897 2.185,5.078 3.276,7.374c0.083,0.173 0.353,0.083 0.351,-0.094c-0.018,-1.473 -0.704,-3 -1.295,-4.334c-0.362,-0.817 -0.771,-1.87 -1.37,-2.673c0.687,0.385 1.339,0.811 1.959,1.337c0.853,0.723 1.564,1.584 2.397,2.327c0.189,0.167 0.53,-0.053 0.37,-0.285Z" style="fill:#eb3f84;fill-rule:nonzero;"/><path d="M73.445,57.631c-0,0 -0.015,0.241 -0.026,0.628l-0.088,1.777c-2.156,1.522 -4.114,1.455 -5.208,1.222l0.901,-3.246l4.421,-0.381Z" style="fill:#e0855c;fill-rule:nonzero;"/><path d="M76.023,46.94c-0.262,0.379 -0.601,0.748 -1.028,1.102c-0.195,-0.247 -1.757,-2.111 -5.343,-1.937c-0.114,0.006 -0.233,0.013 -0.354,0.02c-0,0 -0.034,-0.214 -0.034,-0.541l-0,-0.08c0.007,-1.135 0.414,-3.426 3.58,-3.105c0.347,0.033 0.667,0.086 0.968,0.16c2.745,0.614 3.474,2.547 2.211,4.381Z" style="fill:#3b2645;fill-rule:nonzero;"/><path d="M70.003,47.109c-0,0 -2.461,4.003 -4.307,4.657c-1.847,0.654 0.781,2.291 -1.309,4.41c-0,0 0.875,-1.755 -0.024,-2.307c-0.9,-0.552 -2.991,-4.408 0.144,-5.393c1.673,-0.526 4.216,-6.171 5.496,-1.367Z" style="fill:#3b2645;fill-rule:nonzero;"/><path d="M65.905,53.65c-0,0 -0.993,-8.504 5.051,-8.265c8.308,0.33 7.289,6.768 5.843,8.892c-1.447,2.123 -11.319,2.766 -10.894,-0.627Z" style="fill:#3b2645;fill-rule:nonzero;"/><path d="M66.592,49.545c-0.569,0.724 -0.793,2.118 -0.926,3.76c-0.402,4.971 1.915,6.916 3.545,6.995c1.674,0.082 5.238,-0.452 6.008,-5.044c0.386,-2.295 0.463,-4.235 -0.01,-5.452c-0.993,-2.549 -6.119,-3.434 -8.617,-0.259Z" style="fill:#f5a784;fill-rule:nonzero;"/><path d="M67.951,53.735c-0,0 -0.439,0.14 -0.336,-0.62c0.091,-0.682 0.394,-0.575 0.394,-0.575c-0,0 0.298,0.013 0.223,0.61c-0.072,0.597 -0.281,0.585 -0.281,0.585Z" style="fill:#3b2645;fill-rule:nonzero;"/><path d="M72.022,54.032c-0,0 -0.437,0.139 -0.336,-0.619c0.092,-0.683 0.394,-0.576 0.394,-0.576c-0,0 0.3,0.013 0.225,0.61c-0.074,0.597 -0.283,0.585 -0.283,0.585Z" style="fill:#3b2645;fill-rule:nonzero;"/><path d="M70.104,55.489c-0.217,-0.044 -0.722,0.063 -0.813,-0.178c-0.076,-0.2 0.33,-1.341 0.389,-1.537c0.065,-0.214 0.129,-0.407 0.193,-0.596c-0.019,-0.014 -0.036,-0.03 -0.057,-0.043c-0.045,-0.027 -0.09,-0.046 -0.136,-0.059c-0.242,0.785 -0.427,1.609 -0.655,2.353c-0.018,0.065 0.027,0.138 0.098,0.14c0.32,0.011 0.628,0.093 0.945,0.111c0.107,0.005 0.148,-0.169 0.036,-0.191Z" style="fill:#e0855c;fill-rule:nonzero;"/><path d="M68.535,51.443c-0.301,-0.172 -0.875,-0.242 -1.115,0.068c-0.044,0.057 0.006,0.148 0.075,0.148c0.153,-0.001 0.293,-0.069 0.446,-0.074c0.168,-0.006 0.323,0.04 0.479,0.097c0.14,0.052 0.247,-0.163 0.115,-0.239Z" style="fill:#3b2645;fill-rule:nonzero;"/><path d="M72.761,52.125c-0.154,-0.446 -0.917,-0.525 -1.255,-0.269c-0.078,0.058 -0.037,0.178 0.044,0.207c0.186,0.068 0.392,0.006 0.587,0.034c0.174,0.024 0.308,0.107 0.466,0.171c0.082,0.033 0.189,-0.056 0.158,-0.143Z" style="fill:#3b2645;fill-rule:nonzero;"/><path d="M70.568,56.698c-0.309,0.135 -0.546,0.298 -0.902,0.295c-0.277,-0.002 -0.57,-0.148 -0.835,-0.067c-0.043,0.014 -0.075,0.062 -0.049,0.105c0.187,0.308 0.709,0.362 1.036,0.349c0.354,-0.012 0.774,-0.122 0.97,-0.439c0.093,-0.15 -0.069,-0.31 -0.22,-0.243Z" style="fill:#e0855c;fill-rule:nonzero;"/><path d="M75.49,53.297c-0,0 -1.351,-0.61 -1.215,-2.607c0.138,-1.998 -1.342,-1.853 -2.352,-2.316c-1.011,-0.462 -0.915,-0.872 -0.915,-0.872c-0,0 -0.664,0.545 -1.629,0.562c-0.967,0.016 -1.554,0.413 -1.587,1.239c-0.033,0.826 -1.483,0.477 -1.668,1.187c-0.185,0.71 0.061,-1.264 0.061,-1.264l2.325,-2.521l3.2,-0.259l2.862,1.228l1.805,1.555c-0,0 0.458,2.203 0.453,2.316c-0.006,0.112 -0.994,0.54 -1.34,1.752Z" style="fill:#3b2645;fill-rule:nonzero;"/><path d="M74.275,50.69c0,0 -0.587,3.92 0.784,5.32c1.37,1.399 -1.709,1.713 -0.764,4.536c-0,0 -0.015,-1.962 1.036,-2.062c1.052,-0.1 2.436,-1.067 1.468,-4.207c-0.969,-3.14 -0.553,-6.345 -2.524,-3.587Z" style="fill:#3b2645;fill-rule:nonzero;"/><path d="M76.023,46.94c-0,0 -0.16,-0.141 -0.474,-0.341c-0.053,-0.033 -0.121,-0.067 -0.18,-0.107c-0.074,-0.04 -0.154,-0.087 -0.241,-0.134c-0.18,-0.1 -0.368,-0.193 -0.575,-0.273c-0.106,-0.04 -0.219,-0.087 -0.339,-0.134c-0.722,-0.267 -1.644,-0.501 -2.772,-0.567c-0,0 2.983,0.139 3.156,-1.271c0.087,-0.687 0.042,-1.1 -0.786,-1.554c2.745,0.614 3.48,2.551 2.211,4.381Z" style="fill:#2c1c33;fill-rule:nonzero;"/><path d="M71.385,78.218c-1.09,0.305 -1.918,0.639 -3.054,0.209c-1.096,-0.414 -2.053,-1.191 -2.431,-2.322c-0.089,-0.265 -0.429,-0.194 -0.461,0.063c-0.174,1.377 1.507,2.49 2.611,2.929c1.124,0.447 2.802,0.534 3.566,-0.58c0.102,-0.15 -0.067,-0.344 -0.231,-0.299Z" style="fill:#eb3f84;fill-rule:nonzero;"/><path d="M35.198,35.18c-4.278,1.419 -7.72,3.76 -10.242,7.53c-1.265,1.892 -2.284,3.937 -3.243,5.998c-0.901,1.935 -1.849,3.971 -1.863,6.145c-0.001,0.16 0.255,0.204 0.287,0.039c0.78,-4.03 2.828,-7.98 5.058,-11.415c1.189,-1.834 2.615,-3.549 4.385,-4.851c1.768,-1.302 3.813,-2.127 5.755,-3.122c0.177,-0.091 0.054,-0.388 -0.137,-0.324Z" style="fill:#e8cee5;fill-rule:nonzero;"/><path d="M38.225,39.294c-2.996,1.256 -6.025,3.784 -7.437,6.763c-0.061,0.13 0.105,0.288 0.214,0.165c1.053,-1.199 1.994,-2.454 3.183,-3.531c1.281,-1.16 2.739,-2.102 4.205,-3.006c0.197,-0.121 0.068,-0.488 -0.165,-0.391Z" style="fill:#e8cee5;fill-rule:nonzero;"/></g></svg>