<?xml version="1.0" encoding="UTF-8" standalone="no"?><!DOCTYPE svg PUBLIC "-//W3C//DTD SVG 1.1//EN" "http://www.w3.org/Graphics/SVG/1.1/DTD/svg11.dtd"><svg width="100%" height="100%" viewBox="0 0 101 112" version="1.1" xmlns="http://www.w3.org/2000/svg" xmlns:xlink="http://www.w3.org/1999/xlink" xml:space="preserve" xmlns:serif="http://www.serif.com/" style="fill-rule:evenodd;clip-rule:evenodd;stroke-linejoin:round;stroke-miterlimit:2;"><g><path d="M99.51,110.689c-1.088,0.12 -2.184,0.207 -3.292,0.261c-0.314,0.013 -89.903,0.053 -89.903,0.053c-0.059,-0.007 -0.127,-0.007 -0.186,-0.013c-0.481,-0.04 -0.955,-0.08 -1.436,-0.134c-1.229,-0.127 -1.229,-1.776 0,-1.903c0.474,-0.053 0.955,-0.093 1.436,-0.127c0.066,-0.006 0.133,-0.006 0.2,-0.013c0,0 89.575,0.033 89.882,0.047c1.108,0.053 2.204,0.14 3.299,0.26c1.008,0.113 1.002,1.456 0,1.569Z" style="fill:#c6c6c6;fill-rule:nonzero;"/><path d="M28.424,93.673c-1.991,-1.392 -3.819,-3.214 -6.194,-3.721c-1.771,-0.378 -3.604,0.037 -5.416,0.058c-3.576,0.042 -7.138,-1.551 -9.491,-4.244c-2.353,-2.692 -3.455,-6.436 -2.936,-9.974c0.821,-5.584 5.391,-10.489 4.683,-16.089c-0.463,-3.671 -3.101,-6.619 -5.162,-9.691c-3.304,-4.926 -5.29,-11.41 -2.766,-16.776c2.736,-5.814 9.669,-8.324 13.737,-13.297c2.861,-3.5 4.177,-8.076 7.12,-11.508c2.905,-3.389 7.14,-5.354 11.41,-6.655c5.658,-1.724 11.76,-2.446 17.498,-1.011c6.697,1.675 12.532,6.307 15.98,12.287c3.447,5.981 4.54,13.215 3.349,20.015c-0.628,3.592 -1.859,7.318 -0.732,10.785c1.151,3.543 4.448,5.848 7.154,8.41c2.507,2.373 4.667,5.228 5.643,8.54c0.975,3.311 0.627,7.124 -1.461,9.873c-1.235,1.623 -2.983,2.792 -4.254,4.386c-3.862,4.843 -2.372,12.008 -4.572,17.798c-2.643,6.962 -11.277,10.972 -18.302,8.501c-3.103,-1.092 -5.732,-3.199 -8.647,-4.723c-5.481,-2.866 -11.603,0.559 -16.641,-2.964Z" style="fill:#f6f6f6;fill-rule:nonzero;"/><path d="M32.717,34.556c0,0 -0.27,1.221 -0.731,3.038c-0.805,3.171 -2.19,8.157 -3.74,11.603c-0.519,1.151 -1.054,2.129 -1.598,2.813c-2.879,3.642 -14.434,-4.699 -15.909,-5.783c-0.102,-0.078 -0.219,-0.113 -0.34,-0.115c-0.819,-0.007 -4.063,-0.181 -4.015,-2.44c0.055,-2.461 1.759,-5.559 5.468,-2.063c2.29,2.152 10.382,4.833 10.382,4.833l2.634,-17.032c0.144,-0.926 1.268,-1.318 1.947,-0.673c1.448,1.369 3.679,3.526 5.902,5.819Z" style="fill:#f5a784;fill-rule:nonzero;"/><path d="M31.986,37.594c-0.805,3.171 -2.19,8.157 -3.74,11.603c-0.043,-4.914 -0.164,-11.666 -0.164,-11.666c1.415,-0.695 2.74,-0.522 3.904,0.063Z" style="fill:#e0855c;fill-rule:nonzero;"/><path d="M41.204,64.487c-2.148,1.518 -4.528,2.978 -6.903,4.417c-1.128,0.687 -2.215,1.377 -3.236,2.053c-5.136,3.419 -8.695,6.477 -8.695,6.477c1.192,1.434 2.439,4.727 3.57,8.476c2.263,7.522 4.071,16.908 4.071,16.908c-2.046,1.869 -3.777,1.052 -3.777,1.052c-1.606,-3.125 -5.065,-9.705 -7.975,-15.816c-2.718,-5.707 -4.951,-10.992 -4.739,-12.669c0.208,-1.651 4.645,-6.532 9.242,-11.194c5.082,-5.152 10.361,-10.048 10.361,-10.048c0,0 3.072,-3.386 6.611,-5.482c2.444,-1.439 5.121,-2.264 7.164,-0.92c0.861,0.567 1.618,1.527 2.191,2.987c0.071,0.181 0.135,0.363 0.193,0.545c1.577,5.02 -2.477,9.28 -8.078,13.214Z" style="fill:#f5a784;fill-rule:nonzero;"/><path d="M82.608,84.774c-5.617,0.266 -11.467,0.903 -16.194,1.277c-4.081,0.324 -7.328,0.466 -8.883,0.006c-3.031,-0.878 -7.966,-8.06 -11.234,-13.304c-1.95,-3.131 -3.308,-5.574 -3.308,-5.574c0,0 -0.809,-1.069 -1.785,-2.692c-2.597,-4.329 -6.368,-12.598 1.05,-14.837c3.174,-0.96 5.316,-0.25 7.028,1.623c2.284,2.502 3.79,7.079 5.934,12.546c0.544,1.377 5.879,14.618 5.879,14.618c1.509,-0.355 3.328,-0.492 5.268,-0.48c7.459,0.044 16.667,2.267 16.667,2.267c1.696,2.19 -0.422,4.55 -0.422,4.55Z" style="fill:#f5a784;fill-rule:nonzero;"/><path d="M30.596,18.577c2.154,-0.601 4.302,-1.23 6.426,-1.924c1.248,-0.409 2.626,-0.433 3.091,-1.87c0.371,-1.147 0.06,-2.593 -0.643,-3.532c-0.678,-0.904 -1.72,-1.498 -2.82,-1.759c-1.099,-0.261 -2.256,-0.208 -3.365,0.008c-1.58,0.309 -3.195,1.038 -3.998,2.433c-0.549,0.956 -0.632,2.081 -0.558,3.159c0.075,1.08 0.423,1.734 0.948,2.662c0.066,0.119 0.543,1.096 0.793,1.001c0.066,-0.025 0.112,-0.174 0.126,-0.178Z" style="fill:#3b2645;fill-rule:nonzero;"/><path d="M30.022,16.867c0,0 -1.087,-0.854 -1.731,0.369c-0.644,1.224 1.253,2.899 2.397,2.746c0,0 -0.44,-2.696 -0.666,-3.115Z" style="fill:#e0855c;fill-rule:nonzero;"/><path d="M48.734,25.48c-0.229,1.346 -1.087,6.236 -1.069,10.364c0.001,0.329 0.008,0.63 0.023,0.93c0.107,2.131 1.199,12.169 1.373,13.749c0.014,0.133 0.028,0.205 0.028,0.205c-6.891,3.584 -14.848,3.432 -15.859,3.418c-0.073,-0.001 -0.107,-0.003 -0.107,-0.003c-0.022,-0.085 -0.066,-0.22 -0.136,-0.429c-0.619,-1.851 -2.989,-9.465 -4.905,-16.183c-0.03,-0.104 -0.06,-0.202 -0.09,-0.307c-0.989,-3.466 -2.461,-6.101 -2.852,-8.116c-0.146,-0.743 2.206,-1.603 3.353,-2.017c0.169,-0.063 0.344,-0.121 0.519,-0.179c0.91,-0.316 1.836,-0.581 2.583,-0.774c0.452,-0.111 1.542,-0.359 1.542,-0.359l-0.477,-4.061c0.134,0.001 0.275,0.002 0.407,-0.018c0.268,-0.006 0.527,-0.041 0.771,-0.082c0.336,-0.057 0.645,-0.124 0.932,-0.211c0.15,-0.049 0.293,-0.09 0.423,-0.136c0.194,-0.072 0.388,-0.145 0.568,-0.23c0.302,-0.13 0.596,-0.279 0.863,-0.439c0.083,-0.048 0.166,-0.09 0.24,-0.151c0.026,-0.01 0.052,-0.019 0.064,-0.04c0.063,-0.04 0.126,-0.08 0.189,-0.119c0.384,-0.259 0.707,-0.525 0.959,-0.764c0.166,-0.158 0.307,-0.292 0.423,-0.411c0.036,-0.043 0.055,-0.059 0.072,-0.081c0.061,-0.066 0.109,-0.118 0.145,-0.168c0.054,-0.059 0.094,-0.1 0.098,-0.121l0.006,0.091c0,0.067 0.001,0.127 0.006,0.194c0.053,0.672 0.143,1.529 0.285,2.374c0.084,0.582 0.18,1.156 0.269,1.658c0.158,0.864 0.292,1.481 0.292,1.481c0.184,-0.038 0.375,-0.076 0.568,-0.095c0.013,-0.008 0.038,-0.018 0.059,-0.013c0.106,-0.017 0.212,-0.034 0.311,-0.044c0.754,-0.113 1.486,-0.171 2.176,-0.192c0.308,-0.009 0.602,-0.005 0.892,0c2.328,0.062 4.071,0.537 4.766,0.784c0.209,0.073 0.327,0.278 0.29,0.495Z" style="fill:#f5a784;fill-rule:nonzero;"/><path d="M38.814,18.747c-0.03,4.789 -4.696,5.454 -5.906,5.08l-0.248,-2.109c3.957,-0.036 6.154,-2.971 6.154,-2.971Z" style="fill:#e0855c;fill-rule:nonzero;"/><path d="M29.579,13.82c-0.447,0.721 -0.209,2.074 0.06,3.568c0.815,4.526 2.461,5.642 4.809,5.399c2.349,-0.243 4.562,-1.639 4.166,-5.912c-0.198,-2.136 -0.346,-4.118 -1.296,-4.856c-1.417,-1.101 -6.366,-0.413 -7.739,1.801Z" style="fill:#f5a784;fill-rule:nonzero;"/><path d="M38.167,16.342c0,0 0.304,-2.012 1.624,-1.262c1.319,0.75 0.388,3.889 -1.353,4.042c0,0 -0.676,-2.028 -0.271,-2.78Z" style="fill:#f5a784;fill-rule:nonzero;"/><path d="M31.59,16.86c0,0 -0.358,0.228 -0.447,-0.472c-0.079,-0.63 0.216,-0.606 0.216,-0.606c0,0 0.27,-0.06 0.345,0.49c0.074,0.55 -0.114,0.588 -0.114,0.588Z" style="fill:#3b2645;fill-rule:nonzero;"/><path d="M35.527,16.019c0,0 -0.357,0.228 -0.445,-0.473c-0.079,-0.63 0.215,-0.605 0.215,-0.605c0,0 0.269,-0.06 0.344,0.49c0.075,0.55 -0.114,0.588 -0.114,0.588Z" style="fill:#3b2645;fill-rule:nonzero;"/><path d="M33.746,18.316c-0.203,0.012 -0.629,0.226 -0.768,0.033c-0.115,-0.16 -0.021,-1.273 -0.014,-1.461c0.023,-0.68 0.099,-1.154 0.055,-1.955c-0.002,-0.035 -0.064,-0.042 -0.072,-0.003c-0.236,1.126 -0.134,2.435 -0.176,3.586c-0.003,0.064 0.055,0.118 0.119,0.103c0.288,-0.066 0.581,-0.065 0.87,-0.125c0.096,-0.02 0.09,-0.185 -0.014,-0.178Z" style="fill:#e0855c;fill-rule:nonzero;"/><path d="M31.569,14.68c-0.308,-0.082 -0.837,-0.009 -0.977,0.324c-0.026,0.061 0.041,0.13 0.101,0.114c0.138,-0.037 0.245,-0.13 0.381,-0.171c0.147,-0.045 0.298,-0.041 0.449,-0.026c0.138,0.013 0.183,-0.205 0.046,-0.241Z" style="fill:#3b2645;fill-rule:nonzero;"/><path d="M35.736,14.145c-0.243,-0.361 -0.94,-0.251 -1.182,0.056c-0.056,0.071 0.009,0.167 0.087,0.175c0.183,0.016 0.352,-0.087 0.534,-0.109c0.159,-0.019 0.298,0.023 0.455,0.043c0.08,0.01 0.153,-0.094 0.106,-0.165Z" style="fill:#3b2645;fill-rule:nonzero;"/><path d="M34.989,19.046c-0.439,0.226 -0.674,0.563 -1.195,0.657c-0.263,0.047 -0.519,0.054 -0.778,-0.022c-0.147,-0.043 -0.138,-0.071 -0.29,-0.065c-0.05,0.001 -0.073,0.056 -0.06,0.098c0.122,0.436 0.819,0.364 1.159,0.311c0.539,-0.084 1.025,-0.355 1.276,-0.859c0.033,-0.065 -0.042,-0.156 -0.112,-0.12Z" style="fill:#e0855c;fill-rule:nonzero;"/><path d="M56.764,67.735c-0.3,0.216 -0.594,0.433 -0.884,0.629c-0.239,0.171 -0.471,0.328 -0.704,0.478c-3.815,2.519 -6.925,3.513 -8.879,3.911c-1.95,-3.131 -3.308,-5.574 -3.308,-5.574c0,0 -0.809,-1.069 -1.785,-2.692c-2.148,1.518 -4.528,2.978 -6.903,4.417c-1.128,0.687 -2.215,1.377 -3.236,2.053c-0.97,-0.589 -1.852,-1.168 -2.652,-1.734c-2.933,-2.069 -4.708,-3.902 -5.651,-5.032c5.082,-5.152 10.361,-10.048 10.361,-10.048c0,0 3.072,-3.386 6.611,-5.482c2.453,-0.722 5.064,-1.205 7.164,-0.92c0.861,0.567 1.618,1.527 2.191,2.987c0.071,0.181 0.135,0.363 0.193,0.545c2.284,2.502 3.79,7.079 5.934,12.546c0.544,1.377 1.06,2.688 1.548,3.916Z" style="fill:#ab8da8;fill-rule:nonzero;"/><path d="M30.011,102.818c-2.046,1.869 -3.777,1.052 -3.777,1.052c-1.606,-3.125 -5.065,-9.705 -7.975,-15.816c1.79,-0.289 4.536,-0.892 7.681,-2.144c2.263,7.522 4.071,16.908 4.071,16.908Z" style="fill:#e8cee5;fill-rule:nonzero;"/><path d="M31.083,104.182c0.01,0.1 0.012,0.194 -0.006,0.29c-0.051,0.44 -0.326,0.85 -0.673,1.146c-0.422,0.349 -0.945,0.555 -1.456,0.759c-2.033,0.822 -3.797,2 -5.962,2.58c-1.295,0.341 -3.966,0.957 -4.554,-0.804c0,0 -0.009,-0.033 -0.022,-0.092c-0.024,-0.111 -0.048,-0.303 -0.033,-0.546c0.008,-0.135 0.033,-0.286 0.078,-0.444c0.188,-0.677 0.791,-1.514 2.45,-2.051c0.357,-0.115 0.673,-0.254 0.94,-0.414c0.146,-0.081 0.278,-0.168 0.403,-0.26c0.031,-0.023 0.056,-0.047 0.081,-0.069c0.17,-0.148 0.303,-0.271 0.418,-0.396l0.132,-0.16c0.017,-0.022 0.036,-0.038 0.048,-0.059c0.053,-0.072 0.105,-0.151 0.152,-0.223c0.082,-0.128 0.149,-0.256 0.211,-0.389c0.012,-0.014 0.023,-0.036 0.028,-0.05c0.117,-0.239 0.194,-0.428 0.27,-0.61c0.251,-0.655 0.427,-1.182 0.99,-1.331c1.329,-0.344 3.292,-0.026 3.34,1.352c0,0 1.658,-0.195 1.796,-1.188c0.092,-0.633 0.429,-0.136 0.561,0.187c0.229,0.554 0.196,1.188 0.441,1.761c0.034,0.077 0.068,0.148 0.102,0.225c0.111,0.238 0.22,0.469 0.251,0.721c0.009,0.019 0.012,0.045 0.014,0.065Z" style="fill:#3b2645;fill-rule:nonzero;"/><path d="M82.608,84.774c-5.617,0.266 -11.467,0.903 -16.194,1.277c0.319,-1.682 0.475,-3.388 0.376,-5.09c-0.055,-0.913 -0.112,-2.055 -0.427,-3.004c7.459,0.044 16.667,2.267 16.667,2.267c1.696,2.19 -0.422,4.55 -0.422,4.55Z" style="fill:#e8cee5;fill-rule:nonzero;"/><path d="M87.768,88.914c-0.077,1.336 -0.314,4.07 -2.171,4.083c0,0 -0.034,-0.003 -0.095,-0.01c-0.136,-0.014 -0.374,-0.051 -0.657,-0.191c-0.09,-0.038 -0.182,-0.09 -0.276,-0.155c-0.582,-0.392 -1.193,-1.225 -1.187,-2.963c0.003,-0.376 -0.031,-0.722 -0.101,-1.024c-0.036,-0.164 -0.077,-0.315 -0.125,-0.464c-0.017,-0.032 -0.026,-0.065 -0.037,-0.097c-0.078,-0.187 -0.146,-0.328 -0.219,-0.455c-0.041,-0.083 -0.096,-0.165 -0.143,-0.241c-0.017,-0.026 -0.025,-0.045 -0.04,-0.064c-0.032,-0.044 -0.063,-0.088 -0.1,-0.13c-0.115,-0.15 -0.236,-0.286 -0.369,-0.408c-0.015,-0.011 -0.029,-0.03 -0.037,-0.043c-0.023,-0.018 -0.044,-0.036 -0.06,-0.054c-0.154,-0.14 -0.299,-0.269 -0.44,-0.387c-0.539,-0.452 -0.994,-0.775 -0.957,-1.356c0.081,-1.37 0.996,-3.137 2.314,-2.755c0,0 0.33,-1.636 -0.571,-2.078c-0.571,-0.287 0.003,-0.45 0.349,-0.477c0.599,-0.045 1.193,0.185 1.818,0.131c0.079,-0.014 0.159,-0.022 0.245,-0.031c0.259,-0.031 0.511,-0.063 0.757,-0.013c0.026,-0.002 0.048,0.002 0.068,0.007c0.557,0.131 0.949,0.585 1.153,1.089c0.204,0.51 0.238,1.07 0.271,1.617c0.153,2.193 0.729,4.23 0.61,6.469Z" style="fill:#3b2645;fill-rule:nonzero;"/><path d="M23.81,105.851c-0.454,-0.466 -0.859,-0.97 -1.326,-1.428c-0.052,-0.048 -0.103,-0.097 -0.155,-0.146c0.174,-0.144 0.303,-0.271 0.418,-0.396c0.059,0.061 0.112,0.116 0.171,0.171c0.459,0.439 0.908,0.918 1.261,1.454c0.151,0.227 -0.16,0.559 -0.369,0.345Z" style="fill:#e8cee5;fill-rule:nonzero;"/><path d="M25.007,104.493c0.077,0.167 -0.12,0.354 -0.289,0.27c-0.488,-0.248 -0.84,-0.704 -1.263,-1.045c-0.116,-0.096 -0.246,-0.191 -0.376,-0.279c0.082,-0.128 0.149,-0.256 0.211,-0.389c0.012,-0.014 0.023,-0.036 0.028,-0.05c0.159,0.052 0.296,0.146 0.426,0.241c0.482,0.335 1.028,0.698 1.263,1.252Z" style="fill:#e8cee5;fill-rule:nonzero;"/><path d="M31.077,104.472c-0.051,0.44 -0.326,0.85 -0.673,1.146c-0.422,0.349 -0.945,0.555 -1.456,0.759c-2.033,0.822 -3.797,2 -5.962,2.58c-1.295,0.341 -3.966,0.957 -4.554,-0.804c0,0 -0.009,-0.033 -0.022,-0.092c-0.024,-0.111 -0.05,-0.303 -0.033,-0.546c2.571,1.728 5.035,0.16 7.643,-0.679c1.952,-0.626 3.875,-0.995 5.057,-2.364Z" style="fill:#e8cee5;fill-rule:nonzero;"/><path d="M83.955,85.925c-0.086,0.216 -0.259,0.306 -0.442,0.432c-0.212,0.155 -0.412,0.308 -0.602,0.494c-0.109,0.112 -0.206,0.228 -0.294,0.352c-0.115,-0.15 -0.236,-0.286 -0.369,-0.408c-0.015,-0.011 -0.029,-0.03 -0.037,-0.043c-0.023,-0.018 -0.044,-0.036 -0.06,-0.054c0.071,-0.101 0.144,-0.194 0.228,-0.285c0.308,-0.332 0.906,-0.953 1.404,-0.807c0.145,0.039 0.231,0.172 0.172,0.319Z" style="fill:#e8cee5;fill-rule:nonzero;"/><path d="M84.426,87.106c-0.324,0.408 -0.905,0.639 -1.307,0.987c-0.078,-0.187 -0.146,-0.328 -0.219,-0.455c0.368,-0.358 0.868,-0.803 1.377,-0.812c0.148,-0.001 0.248,0.155 0.149,0.28Z" style="fill:#e8cee5;fill-rule:nonzero;"/><path d="M87.768,88.914c-0.077,1.336 -0.314,4.07 -2.171,4.083c0,0 -0.034,-0.003 -0.095,-0.01c-0.136,-0.014 -0.374,-0.051 -0.657,-0.191c2.729,-1.058 2.121,-4.615 1.867,-7.154c-0.197,-2.014 -0.179,-4.042 -0.95,-5.892c0.528,0.123 0.921,0.574 1.125,1.078c0.204,0.51 0.238,1.07 0.271,1.617c0.153,2.193 0.729,4.23 0.61,6.469Z" style="fill:#e8cee5;fill-rule:nonzero;"/><path d="M55.88,68.364c-0.239,0.171 -0.471,0.328 -0.704,0.478c-2.504,-5.996 -4.764,-12.177 -8.079,-17.752c-0.169,-0.292 0.231,-0.593 0.433,-0.31c2.072,2.817 3.304,6.294 4.746,9.454c1.229,2.692 2.472,5.396 3.604,8.13Z" style="fill:#e8cee5;fill-rule:nonzero;"/><path d="M41.204,64.487c-2.148,1.518 -4.528,2.978 -6.903,4.417c-1.128,0.687 -2.215,1.377 -3.236,2.053c-0.97,-0.589 -1.852,-1.168 -2.652,-1.734c7.323,-4.176 12.638,-4.721 12.791,-4.736Z" style="fill:#826b80;fill-rule:nonzero;"/><path d="M49.089,50.728c-6.891,3.584 -14.848,3.454 -15.859,3.418c-0.041,-0.009 -0.082,-0.019 -0.116,-0.029c-0.013,-0.059 -0.057,-0.194 -0.127,-0.403c-0.619,-1.851 -2.989,-9.465 -4.905,-16.183c1.053,-3.444 0.99,-8.772 0.93,-10.619c0.91,-0.316 1.836,-0.581 2.583,-0.774c0.054,1.799 0.532,6.289 3.986,6.408c4.079,0.139 4.878,-5.642 5.029,-8.153c0.754,-0.113 1.486,-0.171 2.176,-0.192c0.308,-0.009 0.602,-0.005 0.892,0c-0.225,1.888 -0.127,3.583 0.167,5.084c0.71,3.641 2.585,6.149 3.843,7.489c0.052,1.082 0.358,4.152 0.662,7.135c0.307,2.95 0.739,6.819 0.739,6.819Z" style="fill:#3b2645;fill-rule:nonzero;"/><path d="M47.69,36.801c0.05,1.055 0.356,4.125 0.66,7.108c-5.106,-7.299 -4.505,-14.624 -4.505,-14.624c0.71,3.641 2.585,6.149 3.843,7.489l0.002,0.027Z" style="fill:#291b30;fill-rule:nonzero;"/><path d="M12.997,42.819c-0.397,1.437 -1.113,2.737 -1.547,4.153c-0.224,0.731 0.819,1.041 1.248,0.572c1.071,-1.177 1.604,-2.921 2.006,-4.429c0.288,-1.081 -1.414,-1.359 -1.707,-0.296Z" style="fill:#ab8da8;fill-rule:nonzero;"/><path d="M31.045,23.96c0.239,0.337 0.5,0.654 0.759,0.966c0.092,0.112 0.182,0.228 0.264,0.344c1.548,2.169 1.822,4.667 2.59,7.069c0.094,-0.141 0.189,-0.282 0.281,-0.427c-0.226,-0.938 -0.423,-1.878 -0.672,-2.803c0.375,-1.441 0.675,-2.752 1.707,-3.933c0.645,-0.737 1.406,-1.384 1.912,-2.233c0.502,-0.844 0.682,-1.816 0.783,-2.78c0.1,-0.969 0.089,-1.929 0.503,-2.826c0.036,-0.076 0.068,-0.156 0.079,-0.24c0.023,-0.206 -0.097,-0.406 -0.259,-0.535c-0.066,-0.053 -0.144,-0.098 -0.228,-0.105c-0.085,-0.006 -0.177,0.034 -0.21,0.112c-0.022,0.05 -0.017,0.108 -0.013,0.162c0.046,0.598 -0.039,1.198 -0.101,1.791c-0.066,0.629 -0.098,1.262 -0.169,1.891c-0.178,1.599 -0.848,2.668 -1.906,3.818c-1.242,1.352 -2.03,2.648 -2.24,4.376c-0.251,-0.844 -0.561,-1.672 -1.01,-2.463c-0.597,-1.049 -1.416,-1.923 -2.078,-2.925c-0.46,-0.697 -0.758,-1.479 -0.936,-2.292c-0.08,-0.362 -0.201,-0.787 -0.175,-1.159c0.026,-0.383 0.181,-1.162 -0.061,-1.493c-0.374,-0.51 -0.524,0.089 -0.47,0.445c0.12,0.773 0.114,1.562 0.279,2.327c0.196,0.907 0.62,1.791 1.156,2.605c0.068,0.105 0.14,0.207 0.215,0.308Z" style="fill:#ab8da8;fill-rule:nonzero;"/><path d="M39.449,43.728c-0.638,0.73 -0.507,2.008 -0.495,2.906c0.01,0.748 0.235,1.504 0.138,2.252c-0.076,0.574 -0.268,1.409 -0.83,1.7c-0.195,0.102 -0.418,0.135 -0.637,0.155c-0.193,0.018 -0.391,0.026 -0.574,-0.031c-0.284,-0.089 -0.496,-0.32 -0.681,-0.551c-0.719,-0.896 -0.567,-1.697 -0.62,-2.768c-0.05,-1.019 -0.401,-1.619 -1.095,-2.347c-1.872,-1.963 -0.893,-3.637 -0.328,-5.841c0.729,-2.846 0.989,-6.49 -0.223,-9.238c-0.009,-0.021 -0.042,-0.015 -0.04,0.009c0.148,1.801 0.515,3.514 0.437,5.336c-0.087,2.008 -0.616,3.753 -1.155,5.675c-0.296,1.062 -0.517,2.215 0.045,3.234c0.21,0.38 0.534,0.669 0.832,0.975c1.046,1.07 1.052,1.991 1.135,3.395c0.091,1.536 1.603,3.394 3.257,2.211c0.718,-0.513 0.869,-1.45 0.865,-2.267c-0.004,-0.732 -0.156,-1.462 -0.19,-2.195c-0.018,-0.624 -0.097,-1.251 0.079,-1.866c0.035,-0.123 0.081,-0.244 0.161,-0.342c0.144,-0.176 0.374,-0.251 0.591,-0.318c0.121,-0.037 0.248,-0.074 0.372,-0.053c0.157,0.027 0.283,0.143 0.39,0.261c0.296,0.328 0.504,0.716 0.679,1.118c0.041,0.094 0.072,0.29 0.183,0.323c0.112,0.033 0.264,-0.049 0.235,-0.179c-0.229,-1.064 -1.33,-2.929 -2.531,-1.554Z" style="fill:#ab8da8;fill-rule:nonzero;"/><path d="M47.233,51.959l-2.347,1.147c-0.537,0.262 -1.184,0.039 -1.446,-0.497l-2.838,-5.809c-0.261,-0.537 -0.039,-1.184 0.497,-1.446l2.348,-1.146c0.536,-0.262 1.184,-0.04 1.445,0.496l2.837,5.809c0.263,0.537 0.04,1.184 -0.496,1.446Z" style="fill:#e8cee5;fill-rule:nonzero;"/><path d="M47.977,24.996c0.327,-0.072 0.671,0.028 0.912,0.261c2.002,1.933 11.836,11.602 12.709,15.823c0.91,4.399 -12.452,7.79 -14.175,8.208c-0.116,0.029 -0.218,0.091 -0.295,0.181c-0.512,0.6 -2.656,2.902 -4.299,1.464c-1.797,-1.571 -3.034,-4.758 1.863,-5.342c3.022,-0.36 10.035,-4.698 10.035,-4.698l-8.424,-6.46c0,0 -2.745,-8.462 1.674,-9.437Z" style="fill:#f5a784;fill-rule:nonzero;"/><path d="M58.858,78.46c-4.013,-0.234 -8.086,-0.033 -12.105,-0.016c-4.019,0.017 -8.097,-0.159 -12.107,0.125c-0.114,0.009 -0.114,0.17 0,0.177c4.01,0.285 8.087,0.108 12.107,0.126c4.019,0.017 8.092,0.218 12.105,-0.016c0.255,-0.015 0.256,-0.382 0,-0.396Z" style="fill:#e8cee5;fill-rule:nonzero;"/><path d="M87.845,62.243c-4.449,-0.23 -8.932,-0.07 -13.385,-0.062c-4.427,0.008 -8.974,-0.277 -13.385,0.115c-0.211,0.019 -0.211,0.31 0,0.328c4.41,0.392 8.958,0.108 13.385,0.116c4.453,0.007 8.936,0.168 13.385,-0.063c0.278,-0.015 0.279,-0.419 0,-0.434Z" style="fill:#e8cee5;fill-rule:nonzero;"/><path d="M19.642,56.465c-3.026,-0.175 -6.091,-0.043 -9.123,-0.038c-3.013,0.004 -6.125,-0.199 -9.122,0.145c-0.117,0.013 -0.117,0.169 0,0.182c2.998,0.344 6.108,0.14 9.122,0.145c3.032,0.005 6.097,0.136 9.123,-0.038c0.255,-0.014 0.255,-0.382 0,-0.396Z" style="fill:#e8cee5;fill-rule:nonzero;"/><path d="M22.711,58.707c-3.133,-0.183 -6.627,-0.361 -9.733,0.122c-0.049,0.008 -0.049,0.093 0,0.101c3.106,0.483 6.6,0.306 9.733,0.122c0.221,-0.013 0.221,-0.331 0,-0.345Z" style="fill:#e8cee5;fill-rule:nonzero;"/><path d="M76.08,18.418c-4.218,-0.231 -8.481,-0.067 -12.703,-0.06c-4.219,0.007 -8.492,-0.137 -12.702,0.159c-0.159,0.011 -0.159,0.234 0,0.246c4.21,0.296 8.483,0.151 12.702,0.158c4.222,0.008 8.485,0.172 12.703,-0.059c0.285,-0.016 0.285,-0.428 0,-0.444Z" style="fill:#e8cee5;fill-rule:nonzero;"/></g></svg>