<?xml version="1.0" encoding="UTF-8" standalone="no"?><!DOCTYPE svg PUBLIC "-//W3C//DTD SVG 1.1//EN" "http://www.w3.org/Graphics/SVG/1.1/DTD/svg11.dtd"><svg width="100%" height="100%" viewBox="0 0 115 132" version="1.1" xmlns="http://www.w3.org/2000/svg" xmlns:xlink="http://www.w3.org/1999/xlink" xml:space="preserve" xmlns:serif="http://www.serif.com/" style="fill-rule:evenodd;clip-rule:evenodd;stroke-linejoin:round;stroke-miterlimit:2;"><g><path d="M114.091,130c-1.075,-0.12 -2.15,-0.207 -3.239,-0.254c-0.02,-0.006 -0.04,-0.006 -0.06,-0.006c-0.307,-0.007 -0.621,-0.027 -0.935,-0.04c-0.861,0.013 -72.292,-0.007 -72.292,-0.007c-0.067,0.007 -0.133,0.007 -0.2,0.013c-0.067,0.007 -0.134,0.014 -0.201,0.02c-5.055,-0.006 -16.254,-0.033 -16.254,-0.033c-0.067,0.007 -0.134,0.007 -0.201,0.013c-0.073,0.007 -0.153,0.014 -0.227,0.02l-17.924,-0.033c-0.066,0.007 -0.133,0.007 -0.2,0.013l-0.24,0.02c-0.401,0.027 -0.802,0.06 -1.196,0.107c-1.229,0.127 -1.229,1.777 -0,1.904c0.408,0.047 0.815,0.08 1.222,0.113c0.067,0.007 0.141,0.014 0.214,0.019c0.06,0.007 0.127,0.007 0.187,0.014c-0,0 12.107,-0.026 17.944,-0.033c0.073,0.007 0.147,0.014 0.22,0.019c0.06,0.007 0.127,0.007 0.187,0.014c-0,0 10.993,-0.026 16.275,-0.033c0.067,0.007 0.127,0.014 0.194,0.019c0.06,0.007 0.127,0.007 0.187,0.014c-0,0 72.933,-0.047 73.247,-0.053c0.02,-0.001 0.047,0 0.067,-0.006c1.088,-0.054 2.157,-0.134 3.225,-0.254c1.002,-0.114 1.008,-1.456 -0,-1.57Z" style="fill:#c6c6c6;fill-rule:nonzero;"/><path d="M25.775,3.301c-7.053,2.118 -13.599,7.613 -14.709,14.893c-1.187,7.789 3.852,14.974 6.484,22.401c1.958,5.524 2.607,11.507 1.878,17.323c-0.765,6.095 -2.994,11.892 -4.763,17.776c-1.769,5.882 -3.093,12.101 -1.985,18.143c1.107,6.043 5.134,11.885 11.046,13.556c4.112,1.162 8.577,0.226 12.724,1.261c6.629,1.652 11.36,8.019 18.045,9.435c3.523,0.746 7.346,-0.047 10.283,-2.132c3.51,-2.492 5.559,-6.514 8.451,-9.704c3.753,-4.139 8.828,-6.778 13.514,-9.821c4.685,-3.044 9.277,-6.854 11.106,-12.133c2.436,-7.037 -0.604,-14.714 -0.438,-22.159c0.166,-7.471 3.556,-14.449 6.977,-21.093c3.423,-6.644 7.019,-13.465 7.653,-20.911c0.634,-7.447 -2.511,-15.772 -9.332,-18.828c-4.609,-2.066 -9.986,-1.4 -14.828,0.038c-4.842,1.438 -9.481,3.606 -14.451,4.508c-8.557,1.552 -16.791,-0.843 -25,-2.927c-7.051,-1.789 -15.629,-1.735 -22.655,0.374Z" style="fill:#f6f6f6;fill-rule:nonzero;"/><path d="M59.241,27.434c0.438,-0.237 0.701,-0.695 1.018,-1.08c0.501,-0.609 1.182,-1.066 1.935,-1.299c0.344,-0.107 0.71,-0.167 1.068,-0.117c0.555,0.079 1.037,0.416 1.567,0.601c1.402,0.49 2.925,-0.119 4.408,-0.196c1.442,-0.076 2.906,0.378 4.052,1.257c0.779,0.598 1.451,1.606 1.076,2.512c-0.134,0.325 -0.388,0.587 -0.656,0.814c-0.528,0.448 -1.137,0.8 -1.789,1.034c-0.584,0.21 -1.213,0.329 -1.73,0.672c-0.46,0.303 -0.795,0.758 -1.189,1.143c-0.918,0.896 -2.168,1.411 -3.441,1.561c-1.274,0.15 -2.571,-0.049 -3.793,-0.438c-0.491,-0.156 -0.984,-0.35 -1.366,-0.696c-0.567,-0.512 -0.879,-1.2 -1.509,-1.662c-0.555,-0.406 -1.277,-0.703 -1.633,-1.33c-0.298,-0.526 -0.208,-1.073 0.078,-1.586c0.468,-0.841 1.146,-0.779 1.904,-1.19Z" style="fill:#ab8da8;fill-rule:nonzero;"/><path d="M70.596,21.312c0.127,-0.298 0.259,-0.595 0.401,-0.891c0.637,-1.321 0.507,-3.225 -0.376,-4.405c-0.606,-0.809 -1.548,-1.295 -2.49,-1.662c-1.297,-0.504 -2.799,-0.822 -4.046,-0.206c-0.108,0.053 -0.216,0.114 -0.336,0.132c-0.159,0.024 -0.318,-0.03 -0.475,-0.065c-0.963,-0.214 -1.971,0.317 -2.596,1.08c-0.572,0.697 -1.104,1.769 -1.231,2.668c-0.082,0.583 0.043,1.168 0.193,1.73c0.124,0.466 0.203,1.101 0.423,1.528c0.419,0.811 1.599,1.205 2.429,1.376c0.855,0.177 1.739,0.23 2.567,0.506c1.197,0.398 1.743,1.292 2.34,2.311c0.525,0.893 0.862,2.477 1.815,3.014c0.487,0.273 1.09,0.25 1.628,0.1c0.725,-0.201 1.472,-0.777 1.409,-1.527c-0.066,-0.775 -0.916,-1.197 -1.645,-1.469c-0.453,-0.169 -0.907,-0.338 -1.361,-0.507c-0.047,-0.018 -0.096,-0.037 -0.128,-0.076c-0.071,-0.086 -0.022,-0.215 0.03,-0.314c0.574,-1.097 0.975,-2.212 1.449,-3.323Z" style="fill:#3b2645;fill-rule:nonzero;"/><path d="M60.575,20.241c-0,0 -0.832,-1.106 -1.769,-0.088c-0.937,1.017 0.465,3.123 1.61,3.27c-0,0 0.268,-2.719 0.159,-3.182Z" style="fill:#e0855c;fill-rule:nonzero;"/><path d="M76.441,33.373c-0.596,1.235 -2.68,5.739 -3.7,9.746c-0.083,0.324 -0.159,0.627 -0.22,0.925c-0.443,2.064 -1.962,12.045 -2.201,13.618c-0.02,0.133 -0.03,0.206 -0.03,0.206c-8.113,1.803 -16.302,-0.81 -16.302,-0.81c-0,0 -0.004,-0.155 -0.023,-0.45c-0.089,-1.977 -0.466,-10.159 -0.59,-17.22c-0.062,-3.6 -0.058,-6.916 0.084,-8.968c0.051,-0.753 1.795,-0.587 3.01,-0.693c1.7,-0.156 3.544,-0.125 4.378,-0.09c0.073,-0.003 0.14,0 0.2,0.003c0.16,0.008 0.246,0.013 0.246,0.013l0.166,-1.169c0.001,-0.014 0.113,-0.776 0.113,-0.776l0.304,-2.101c0.132,0.033 0.264,0.069 0.397,0.089c0.264,0.06 0.516,0.095 0.769,0.118c0.34,0.032 0.653,0.046 0.955,0.034c0.154,-0.005 0.301,-0.012 0.442,-0.024c0.209,-0.017 0.411,-0.04 0.606,-0.071c0.33,-0.051 0.646,-0.129 0.946,-0.207c0.094,-0.025 0.183,-0.044 0.272,-0.08c0.026,-0.006 0.054,-0.011 0.074,-0.023c0.068,-0.023 0.143,-0.047 0.211,-0.07c0.442,-0.152 0.819,-0.327 1.128,-0.492c0.199,-0.104 0.371,-0.202 0.509,-0.289c0.048,-0.031 0.069,-0.043 0.09,-0.056c0.077,-0.048 0.138,-0.086 0.186,-0.125c0.069,-0.043 0.111,-0.074 0.125,-0.087c-0.034,0.146 -0.048,0.205 -0.06,0.272c-0.117,0.665 -0.256,1.518 -0.339,2.37c-0.069,0.585 -0.118,1.164 -0.163,1.67c-0.07,0.872 -0.101,1.505 -0.101,1.505c0.194,0.01 0.386,0.027 0.572,0.056c0.02,-0.006 0.047,-0.004 0.066,0.003c0.873,0.084 1.701,0.232 2.461,0.41c2.689,0.655 4.587,1.746 5.266,2.214c0.182,0.123 0.244,0.353 0.153,0.549Z" style="fill:#f5a784;fill-rule:nonzero;"/><path d="M68.591,24.315c-1.261,4.62 -5.946,4.066 -7.019,3.393l0.304,-2.101c3.833,0.983 6.715,-1.292 6.715,-1.292Z" style="fill:#e0855c;fill-rule:nonzero;"/><path d="M60.929,17.182c-0.618,0.581 -0.735,1.951 -0.859,3.464c-0.376,4.583 0.927,6.085 3.259,6.454c2.332,0.369 4.83,-0.411 5.546,-4.642c0.358,-2.116 0.725,-4.069 -0.004,-5.027c-1.085,-1.427 -6.045,-2.035 -7.942,-0.249Z" style="fill:#f5a784;fill-rule:nonzero;"/><path d="M68.58,21.827c-0,0 0.812,-1.865 1.894,-0.801c1.082,1.064 -0.625,3.858 -2.347,3.558c-0,0 -0.131,-2.134 0.453,-2.757Z" style="fill:#f5a784;fill-rule:nonzero;"/><path d="M69.902,21.864c-0.253,0.031 -0.521,0.255 -0.711,0.415c-0.197,0.168 -0.43,0.377 -0.537,0.618c-0.033,0.075 0.072,0.128 0.126,0.082c0.154,-0.129 0.279,-0.287 0.424,-0.427c0.092,0.11 0.186,0.222 0.319,0.278c0.102,0.044 0.186,-0.082 0.144,-0.17c-0.053,-0.113 -0.158,-0.197 -0.261,-0.276c0.187,-0.129 0.409,-0.227 0.567,-0.382c0.06,-0.059 0.007,-0.148 -0.071,-0.138Z" style="fill:#e0855c;fill-rule:nonzero;"/><path d="M62.09,20.638c-0,0 -0.404,0.127 -0.309,-0.572c0.086,-0.629 0.364,-0.53 0.364,-0.53c-0,0 0.276,0.012 0.207,0.562c-0.069,0.551 -0.262,0.54 -0.262,0.54Z" style="fill:#3b2645;fill-rule:nonzero;"/><path d="M66.112,20.837c-0,0 -0.404,0.128 -0.309,-0.572c0.086,-0.628 0.364,-0.529 0.364,-0.529c-0,0 0.276,0.011 0.206,0.562c-0.069,0.55 -0.261,0.539 -0.261,0.539Z" style="fill:#3b2645;fill-rule:nonzero;"/><path d="M63.8,22.598c-0.199,-0.04 -0.666,0.058 -0.75,-0.165c-0.07,-0.184 0.306,-1.235 0.361,-1.416c0.197,-0.651 0.394,-1.089 0.557,-1.874c0.007,-0.034 -0.052,-0.057 -0.069,-0.023c-0.518,1.028 -0.756,2.32 -1.093,3.422c-0.018,0.06 0.024,0.127 0.089,0.13c0.295,0.009 0.579,0.086 0.872,0.102c0.099,0.006 0.135,-0.155 0.033,-0.176Z" style="fill:#e0855c;fill-rule:nonzero;"/><path d="M62.632,18.525c-0.278,-0.158 -0.807,-0.223 -1.029,0.062c-0.04,0.052 0.006,0.135 0.07,0.135c0.141,0 0.269,-0.062 0.412,-0.066c0.154,-0.006 0.298,0.037 0.44,0.09c0.13,0.048 0.229,-0.15 0.107,-0.221Z" style="fill:#3b2645;fill-rule:nonzero;"/><path d="M66.796,19.08c-0.142,-0.412 -0.845,-0.485 -1.157,-0.25c-0.072,0.054 -0.034,0.164 0.04,0.191c0.172,0.063 0.361,0.007 0.543,0.032c0.159,0.022 0.282,0.099 0.428,0.159c0.075,0.03 0.173,-0.052 0.146,-0.132Z" style="fill:#3b2645;fill-rule:nonzero;"/><path d="M62.732,23.972c-0,0 1.42,0.286 2.535,-0.309c-0,0 -0.42,0.921 -1.315,1.118c-0.896,0.196 -1.22,-0.809 -1.22,-0.809Z" style="fill:#fff;fill-rule:nonzero;"/><path d="M52.965,91.62c-2.485,4.288 -4.001,9.017 -5.877,13.571c-1.817,4.414 -4.234,8.314 -6.992,12.187c-1.616,2.278 -4.521,5.39 -4.334,8.388c-0,0.026 -0,0.047 0.006,0.073c0.081,1.082 0.308,2.184 0.147,3.266c-0.32,2.023 -2.03,1.282 -3.526,1.289c-1.562,0.007 -3.119,0.014 -4.675,0.02c-2.063,0.006 -4.741,0.46 -6.751,-0.034c-1.029,-0.247 0.227,-1.415 0.581,-1.582c1.509,-0.708 3.105,-1.209 4.628,-1.89c1.415,-0.627 2.784,-1.456 3.76,-2.624c0.086,-0.094 0.167,-0.194 0.24,-0.294c1.543,-2.064 4.902,-11.754 6.665,-16.783c0.327,-0.948 0.608,-1.729 0.808,-2.27c4.762,-12.876 8.568,-26.119 13.109,-39.141c0.808,-2.298 3.166,-10.024 4.882,-11.761c2.424,-2.451 4.648,3.032 7.132,5.45c0.695,0.674 1.143,1.589 1.403,2.604c2.738,10.578 -6.278,21.024 -11.206,29.531Z" style="fill:#f5a784;fill-rule:nonzero;"/><path d="M86.296,129.82c-0.167,0.153 -0.414,0.167 -0.634,0.18c-3.713,0.133 -7.366,-0.007 -11.06,-0.007c-0.761,-0.067 -1.623,-0.213 -2.037,-0.848c-0.247,-0.374 -0.28,-0.841 -0.314,-1.289c-0.046,-0.688 -0.113,-1.349 -0.207,-1.984c-0.287,-2.063 -0.808,-3.926 -1.542,-6.037c-1.61,-4.661 -2.879,-9.249 -3.406,-14.171c-0.548,-5.089 -0.695,-10.244 -1.917,-15.239c-0.975,-3.974 -2.511,-8.441 -3.633,-13.003c-1.576,-6.437 -2.324,-13.055 0.508,-18.719c0.16,-0.327 0.334,-0.654 0.521,-0.975c1.456,-2.484 3.833,-3.218 6.444,-1.916c1.71,0.848 2.678,2.684 3.332,4.481c0.588,1.629 1.016,3.332 1.343,5.069c0.781,4.147 0.962,8.507 1.322,12.594c0.528,6.091 0.588,12.155 0.835,18.259c0.214,5.269 0.682,21.076 0.782,23.714c0.047,1.296 0.027,2.972 0.528,4.341c0.247,0.681 0.627,1.289 1.201,1.736c0.615,0.468 1.376,0.675 2.124,0.875c1.656,0.447 3.146,1.162 4.828,1.596c0.327,0.087 0.675,0.181 0.922,0.428c0.24,0.24 0.314,0.687 0.06,0.915Z" style="fill:#f5a784;fill-rule:nonzero;"/><path d="M30.426,19.999c-0.017,-0.025 -0.013,-0.045 -0.009,-0.066c0.005,0.018 0.007,0.042 0.009,0.066Zm25.645,10.528c-1.918,-1.427 -6.474,0.035 -8.331,0.604c-2.713,0.83 -5.418,1.866 -8.254,1.957c-0.296,0.009 -0.602,0.007 -0.872,-0.116c-0.332,-0.15 -0.56,-0.459 -0.774,-0.756c-2.457,-3.416 -6.057,-7.265 -6.689,-11.569c-0.099,-0.675 -0.069,-1.375 0.153,-2.131c0.098,-0.313 0.198,-0.631 0.29,-0.947c0.141,-0.487 0.24,-0.982 0.23,-1.485c-0.017,-0.834 -0.439,-1.726 -1.228,-1.996c-1.661,-0.573 -4.054,0.886 -3.918,2.62c0.033,0.408 0.075,0.813 0.126,1.216c0.085,0.658 0.196,1.324 0.317,1.972c0.341,1.763 0.8,3.509 1.261,5.209c0.695,2.596 1.424,5.186 2.312,7.723c0.782,2.235 2.272,5.239 4.28,6.612c1.399,0.958 3.166,1.171 4.859,1.273c4.042,0.245 8.113,0.015 12.102,-0.681c1.053,-0.185 2.129,-0.412 3.024,-0.996c1.312,-0.854 1.214,-1.813 1.495,-3.127c0.35,-1.637 1.042,-2.94 0.245,-4.618c-0.15,-0.316 -0.364,-0.567 -0.628,-0.764Z" style="fill:#f5a784;fill-rule:nonzero;"/><path d="M31.151,20.647c-1.469,-0.656 -3.094,-0.758 -4.03,-0.751c-0.121,-0.648 -0.232,-1.314 -0.317,-1.972l4.79,-0.355c-0.092,0.316 -0.192,0.634 -0.29,0.947c-0.222,0.756 -0.252,1.456 -0.153,2.131Z" style="fill:#e0855c;fill-rule:nonzero;"/><path d="M33.483,15.659l-8.378,0.752c-0.095,-1.064 -1.034,-1.848 -2.097,-1.752c-1.063,0.095 -1.847,1.034 -1.752,2.097l0.223,2.491c0.095,1.063 1.035,1.847 2.098,1.752c1.063,-0.095 1.847,-1.034 1.752,-2.098l8.377,-0.751c0.096,1.063 1.035,1.847 2.098,1.752c1.063,-0.095 1.847,-1.035 1.752,-2.098l-0.224,-2.49c-0.095,-1.063 -1.034,-1.847 -2.097,-1.752c-1.063,0.096 -1.847,1.034 -1.752,2.097Z" style="fill:#3b2645;fill-rule:nonzero;"/><path d="M28.34,17.848c0.046,0.433 0.209,0.902 0.598,1.097c0.198,0.099 0.426,0.111 0.647,0.123c0.487,0.024 0.995,0.045 1.442,-0.148c0.553,-0.239 0.935,-0.785 1.075,-1.371c0.14,-0.585 0.061,-1.205 -0.114,-1.781c-0.116,-0.379 -0.285,-0.762 -0.601,-1.001c-0.186,-0.142 -0.412,-0.223 -0.638,-0.283c-0.867,-0.233 -1.806,-0.189 -2.647,0.123c-0.714,0.264 -1.062,0.698 -0.553,1.259c0.628,0.69 0.692,1.038 0.791,1.982Z" style="fill:#f5a784;fill-rule:nonzero;"/><path d="M92.874,19.933c0.004,0.021 0.008,0.041 0.012,0.062c-0.019,-0.02 -0.017,-0.044 -0.012,-0.062Zm-26.283,11.358c-0.797,1.678 -0.104,2.981 0.245,4.618c0.281,1.314 0.183,2.273 1.495,3.127c0.895,0.584 1.971,0.811 3.024,0.996c3.99,0.696 8.06,0.926 12.103,0.681c1.692,-0.102 3.459,-0.315 4.859,-1.273c2.007,-1.373 3.497,-4.377 4.28,-6.612c0.888,-2.537 1.617,-5.127 2.313,-7.723c0.46,-1.7 0.918,-3.446 1.26,-5.209c0.12,-0.648 0.232,-1.314 0.317,-1.972c0.05,-0.403 0.092,-0.808 0.126,-1.216c0.136,-1.734 -2.257,-3.193 -3.918,-2.62c-0.789,0.27 -1.211,1.162 -1.228,1.996c-0.011,0.503 0.089,0.998 0.23,1.485c0.091,0.316 0.192,0.634 0.29,0.947c0.221,0.756 0.252,1.456 0.153,2.131c-0.632,4.304 -4.232,8.153 -6.69,11.569c-0.213,0.297 -0.441,0.606 -0.773,0.756c-0.27,0.123 -0.577,0.125 -0.872,0.116c-2.836,-0.091 -5.541,-1.127 -8.254,-1.957c-1.858,-0.569 -6.414,-2.031 -8.332,-0.604c-0.264,0.197 -0.478,0.448 -0.628,0.764Z" style="fill:#f5a784;fill-rule:nonzero;"/><path d="M92.14,20.647c1.469,-0.656 3.094,-0.758 4.03,-0.751c0.12,-0.648 0.232,-1.314 0.317,-1.972l-4.79,-0.355c0.091,0.316 0.192,0.634 0.29,0.947c0.221,0.756 0.252,1.456 0.153,2.131Z" style="fill:#e0855c;fill-rule:nonzero;"/><path d="M89.807,15.659l8.379,0.752c0.095,-1.064 1.034,-1.848 2.097,-1.752c1.063,0.095 1.847,1.034 1.752,2.097l-0.223,2.491c-0.096,1.063 -1.035,1.847 -2.098,1.752c-1.063,-0.095 -1.847,-1.034 -1.752,-2.098l-8.378,-0.751c-0.095,1.063 -1.034,1.847 -2.097,1.752c-1.063,-0.095 -1.847,-1.035 -1.752,-2.098l0.223,-2.49c0.096,-1.063 1.035,-1.847 2.098,-1.752c1.063,0.096 1.847,1.034 1.751,2.097Z" style="fill:#3b2645;fill-rule:nonzero;"/><path d="M94.951,17.848c-0.046,0.433 -0.21,0.902 -0.598,1.097c-0.198,0.099 -0.426,0.111 -0.648,0.123c-0.487,0.024 -0.994,0.045 -1.441,-0.148c-0.553,-0.239 -0.936,-0.785 -1.075,-1.371c-0.14,-0.585 -0.061,-1.205 0.114,-1.781c0.115,-0.379 0.285,-0.762 0.6,-1.001c0.187,-0.142 0.412,-0.223 0.639,-0.283c0.867,-0.233 1.806,-0.189 2.647,0.123c0.714,0.264 1.062,0.698 0.553,1.259c-0.628,0.69 -0.692,1.038 -0.791,1.982Z" style="fill:#f5a784;fill-rule:nonzero;"/><path d="M76.913,120.524c-0.075,0.112 -0.16,0.2 -0.253,0.266c-0.154,0.108 -0.328,0.201 -0.508,0.275c-0.354,0.146 -0.741,0.226 -1.149,0.273c-0.321,0.04 -0.641,0.047 -0.962,0.033c-1.523,-0.033 -3.035,-0.006 -3.035,-0.006c-1.743,-3.259 -5.82,-14.665 -5.48,-22.286c0.341,-7.612 -4.327,-20.975 -4.327,-20.975c-0.014,0.04 -0.02,0.087 -0.04,0.133c-1.022,3.446 -11.013,23.1 -12.795,27.167c-0.041,0.1 -0.081,0.187 -0.114,0.267c-1.917,4.588 -10.718,15.206 -10.718,15.206c-1.937,0.114 -4.969,-1.95 -4.969,-1.95c-0,0 -0.795,-3.252 0.567,-10.298c1.363,-7.045 9.544,-18.264 11.594,-28.074c2.05,-9.817 9.241,-23.947 9.241,-23.947c4.628,0.855 8.717,0.693 11.675,0.305c0.107,-0.013 0.213,-0.026 0.314,-0.046c0.554,-0.074 1.068,-0.16 1.536,-0.247c0.18,-0.034 0.354,-0.067 0.514,-0.1c1.65,-0.334 2.591,-0.661 2.591,-0.661c4.161,5.89 5.163,16.168 5.163,19.693c-0,3.52 1.476,25.117 1.476,29.211c-0,3.88 1.085,13.672 -0.321,15.761Z" style="fill:#3b2645;fill-rule:nonzero;"/><path d="M76.913,120.524c-0.073,0.113 -0.16,0.2 -0.253,0.266c-0.154,0.108 -0.328,0.201 -0.508,0.275c0.447,-10.505 -1.57,-20.962 -2.405,-31.442c-0.48,-6.049 -0.106,-12.161 -0.694,-18.191c-0.535,-5.496 -2.685,-10.218 -5.563,-14.812c0.18,-0.034 0.354,-0.067 0.514,-0.1c3.119,3.766 4.942,8.742 5.597,13.53c0.821,6.024 0.213,12.207 0.661,18.272c0.454,6.29 1.289,12.548 1.93,18.818c0.454,4.361 0.982,8.923 0.721,13.384Z" style="fill:#e8cee5;fill-rule:nonzero;"/><path d="M61.172,78.117c-0,0.027 -0.007,0.067 -0.013,0.12c-1.022,3.446 -11.013,23.1 -12.795,27.167c1.362,-5.623 1.468,-10.238 4.093,-16.616c3.159,-7.693 8.308,-10.464 8.715,-10.671Z" style="fill:#291b30;fill-rule:nonzero;"/><path d="M95.291,23.663c-0,0 -0.841,9.463 -3.592,13.964c-2.758,4.508 -17.731,2.791 -17.731,2.791c-0,0 -3.253,12.148 -1.717,15.441c1.543,3.292 -5.202,3.813 -7.339,3.719c-2.144,-0.093 -13.537,0.154 -13.45,-1.97c0.08,-2.117 1.703,-2.885 1.53,-5.87c-0.167,-2.985 -0.254,-11.339 -0.254,-11.339c-0,0 -9.63,2.203 -15.687,0.847c-6.051,-1.362 -8.643,-12.508 -8.669,-16.141l3.793,-1.442c-0,0 4.936,6.758 6.071,7.84c1.135,1.082 11.767,-2.07 14.605,-1.99c2.845,0.08 8.442,0.14 8.442,0.14c-0,0 0.4,3.526 2.677,3.179c2.271,-0.34 3.953,-2.691 3.953,-2.691c-0,0 2.579,-0.741 5.377,-0.174c0.1,0.02 0.2,0.04 0.307,0.067c1.269,0.28 3.112,0.837 4.916,1.309c2.389,0.625 4.675,1.108 5.422,0.674c1.362,-0.801 7.64,-9.242 7.64,-9.242l3.706,0.888Z" style="fill:#ab8da8;fill-rule:nonzero;"/><path d="M62.322,34.597c-1.228,-0.137 -1.026,2.562 -1.015,3.2c0.012,0.772 0.045,1.533 -0.197,2.285c-0.218,0.68 -0.685,1.258 -0.97,1.905c-0.356,0.807 -0.497,1.433 -0.185,2.269c0.072,0.191 0.332,0.114 0.302,-0.084c-0.272,-1.804 1.098,-2.899 1.421,-4.534c0.176,-0.894 -0.408,-4.399 0.685,-4.738c0.174,-0.054 0.126,-0.284 -0.041,-0.303Z" style="fill:#3b2645;fill-rule:nonzero;"/><path d="M63.922,34.746c-0.754,0.976 -0.634,2.033 -0.476,3.19c0.162,1.188 0.099,2.134 -0.261,3.259c-0.238,0.744 -0.376,1.232 -0.288,2.015c0.016,0.138 0.197,0.136 0.214,0c0.154,-1.185 0.771,-2.249 0.896,-3.43c0.181,-1.698 -0.722,-3.241 0.167,-4.886c0.092,-0.171 -0.14,-0.293 -0.252,-0.148Z" style="fill:#3b2645;fill-rule:nonzero;"/><path d="M44.899,41.555c-0,0 7.243,-3.794 8.096,-5.587c0.852,-1.793 -0.251,4.84 -0.251,4.84l-7.845,0.747Z" style="fill:#826b80;fill-rule:nonzero;"/><path d="M73.607,30.034c1.269,0.28 3.113,0.834 4.916,1.309c-0.287,-0.074 -3.099,-0.695 -5.223,1.489c-2.117,2.19 -7.179,1.576 -7.7,1.509c3.439,0.368 7.333,-3.593 8.007,-4.307Z" style="fill:#826b80;fill-rule:nonzero;"/><path d="M35.915,129.105c-0.32,2.023 -2.03,1.282 -3.526,1.289c-1.562,0.007 -3.119,0.014 -4.675,0.02c-2.063,0.006 -4.741,0.46 -6.751,-0.034c-1.029,-0.247 0.227,-1.415 0.581,-1.582c1.509,-0.708 3.105,-1.209 4.628,-1.89c1.415,-0.627 2.784,-1.456 3.76,-2.624c0.066,-0.021 0.147,-0.034 0.22,-0.047c1.049,-0.167 2.157,0.64 2.311,1.696c0.861,0.727 2.217,-0.167 3.305,-0.094c0.081,1.082 0.308,2.184 0.147,3.266Z" style="fill:#3b2645;fill-rule:nonzero;"/><path d="M86.296,129.82c-0.167,0.153 -0.414,0.167 -0.634,0.18c-3.713,0.133 -7.366,-0.007 -11.06,-0.007c-0.761,-0.067 -1.623,-0.213 -2.037,-0.848c-0.247,-0.374 -0.28,-0.841 -0.314,-1.289c-0.046,-0.688 -0.113,-1.349 -0.207,-1.984c1.116,-0.24 2.605,0.842 3.534,0.061c0.12,-0.809 0.801,-1.469 1.583,-1.663c0.247,0.681 0.627,1.289 1.201,1.736c0.615,0.468 1.376,0.675 2.124,0.875c1.656,0.447 3.146,1.162 4.828,1.596c0.327,0.087 0.675,0.181 0.922,0.428c0.24,0.24 0.314,0.687 0.06,0.915Z" style="fill:#3b2645;fill-rule:nonzero;"/></g></svg>