<?xml version="1.0" encoding="UTF-8" standalone="no"?><!DOCTYPE svg PUBLIC "-//W3C//DTD SVG 1.1//EN" "http://www.w3.org/Graphics/SVG/1.1/DTD/svg11.dtd"><svg width="100%" height="100%" viewBox="0 0 85 137" version="1.1" xmlns="http://www.w3.org/2000/svg" xmlns:xlink="http://www.w3.org/1999/xlink" xml:space="preserve" xmlns:serif="http://www.serif.com/" style="fill-rule:evenodd;clip-rule:evenodd;stroke-linejoin:round;stroke-miterlimit:2;"><g><path d="M82.329,135.963c-1.089,0.12 -2.184,0.207 -3.292,0.26l-62.962,0.053c-0.061,-0.007 -0.127,-0.008 -0.187,-0.013c-0.107,-0.009 -0.221,-0.02 -0.328,-0.027c-0.367,-0.033 -0.734,-0.066 -1.108,-0.106c-1.229,-0.127 -1.229,-1.777 0,-1.904c0.367,-0.04 0.741,-0.073 1.115,-0.1c0.107,-0.013 0.214,-0.018 0.321,-0.027c0.066,-0.005 0.133,-0.006 0.2,-0.013l62.942,0.047c1.109,0.053 2.204,0.14 3.299,0.26c1.008,0.114 1.001,1.456 0,1.57Z" style="fill:#c6c6c6;fill-rule:nonzero;"/><path d="M27.288,22.419c-1.314,3.934 -3.204,8.073 -6.89,9.976c-2.498,1.29 -5.486,1.351 -8.001,2.609c-2.855,1.427 -4.757,4.205 -6.404,6.94c-1.365,2.265 -2.67,4.661 -2.973,7.289c-0.421,3.654 1.135,7.201 2.319,10.684c1.825,5.37 2.82,11.021 2.938,16.692c0.143,6.896 -0.984,13.947 0.833,20.602c2.707,9.911 12.731,17.53 22.975,16.75c3.312,-0.252 6.516,-1.287 9.809,-1.727c4.504,-0.599 9.156,-0.057 13.402,1.563c3.675,1.402 7.271,3.636 11.194,3.339c4.313,-0.328 7.857,-3.745 9.795,-7.612c4.036,-8.051 2.504,-17.727 -0.043,-26.365c-2.548,-8.638 -6.057,-17.264 -5.71,-26.264c0.462,-12 7.773,-23.568 5.403,-35.342c-0.73,-3.626 -2.358,-7.02 -4.305,-10.166c-1.821,-2.944 -3.987,-5.762 -6.866,-7.683c-3.114,-2.078 -6.867,-2.979 -10.582,-3.442c-6.037,-0.752 -12.977,-0.082 -16.858,4.603c-4.507,5.439 -7.797,10.85 -10.036,17.554Z" style="fill:#f6f6f6;fill-rule:nonzero;"/><path d="M51.541,28.912c0.01,0.152 0.04,0.301 0.103,0.445c0.486,1.104 1.527,1.026 1.265,2.462c-0.158,0.869 -0.707,1.681 -1.496,2.095c-1.417,0.743 -3.491,0.382 -4.357,1.728c-0.212,0.328 -0.316,0.726 -0.578,1.017c-0.789,0.876 -2.241,0.206 -3.4,0.428c-1.354,0.258 -2.249,1.758 -3.621,1.896c-0.956,0.095 -1.832,-0.508 -2.773,-0.705c-1.156,-0.243 -2.338,0.136 -3.494,0.383c-1.156,0.246 -2.474,0.326 -3.407,-0.4c-0.785,-0.609 -1.094,-1.581 -1.596,-2.397c-0.541,-0.879 -1.379,-1.187 -1.982,-1.972c-0.94,-1.225 0.532,-2.575 0.961,-3.676c0.315,-0.809 0.146,-1.649 0.409,-2.471c0.176,-0.552 0.707,-0.904 1.227,-1.167c0.819,-0.413 1.225,-0.616 1.522,-1.464c0.332,-0.947 0.412,-1.918 0.703,-2.868c0.42,-1.34 1.371,-2.401 2.344,-3.377c1.263,-1.265 3.088,-1.817 4.804,-2.094c1.907,-0.299 3.635,0.263 5.33,1.179c1.179,0.641 2.25,1.57 2.824,2.787c0.153,0.325 0.282,0.68 0.46,0.988c0.144,0.252 0.318,0.473 0.572,0.625c0.463,0.275 1.084,0.242 1.477,0.606c0.553,0.503 0.31,1.309 0.637,1.906c0.301,0.552 0.827,0.754 1.242,1.188c0.391,0.409 0.67,0.784 0.826,1.349c0.132,0.483 -0.037,1.013 -0.002,1.509Z" style="fill:#3b2645;fill-rule:nonzero;"/><path d="M44.251,22.713c0,0 0.091,8.895 4.524,9.819c0,0 -0.934,6.948 -4.161,8.198c-3.227,1.251 -4.267,-6.706 -4.267,-6.706l-0.457,-6.058l4.361,-5.253Z" style="fill:#25182b;fill-rule:nonzero;"/><path d="M61.131,25.095c-1.068,-3.946 -2.684,-7.752 -4.347,-11.479c-0.755,-1.703 -1.55,-3.446 -2.451,-5.102c-0.468,-0.855 -0.969,-1.69 -1.523,-2.484c-0.173,-0.254 -0.394,-0.448 -0.654,-0.588c-1.243,-0.688 -3.266,-0.214 -4.034,1.008c-0.441,0.708 -0.207,1.67 0.301,2.324c0.14,0.18 0.287,0.334 0.447,0.481c0.447,0.414 0.975,0.741 1.489,1.082c0.514,0.347 0.908,0.755 1.229,1.202c0.969,1.369 1.182,3.112 1.643,4.828c0.781,2.959 1.576,5.924 2.364,8.889c0,0 -0.955,1.102 -2.331,2.418c-1.124,1.085 -2.343,2.053 -3.463,3.134c-0.457,0.442 -1.008,0.773 -1.532,1.133c-0.192,0.131 -0.381,0.267 -0.568,0.404c-0.783,0.573 -1.544,1.183 -2.393,1.656c-0.415,0.231 -0.851,0.429 -1.307,0.563c-0.497,0.146 -0.837,0.444 -1.242,0.769c-0.652,0.522 -1.298,1.076 -1.825,1.727c-0.184,0.226 -0.355,0.466 -0.489,0.725c-0.078,0.15 -0.131,0.534 -0.243,0.647l-0.014,0.08c-0.087,0.535 1.263,0.595 3.112,0.435c0.708,-0.061 1.496,-0.154 2.304,-0.268c0.421,-0.06 0.849,-0.126 1.276,-0.193c0.207,-0.034 0.401,-0.054 0.588,-0.06c1.976,-0.127 2.944,0.814 3.292,1.262c0.107,0.133 0.153,0.227 0.153,0.227c0,0 5.77,-6.785 6.539,-7.754c0.153,-0.193 0.307,-0.38 0.454,-0.574c1.949,-2.511 3.626,-5.176 3.225,-6.492Z" style="fill:#f5a784;fill-rule:nonzero;"/><path d="M51.508,55.735c0.06,0.207 0.12,0.414 0.187,0.615c-1.423,0.394 -2.858,0.748 -4.301,1.061c-0.28,0.067 -0.561,0.127 -0.841,0.187c-1.223,0.267 -2.311,0.301 -3.192,1.062c-0.127,0.107 -0.254,0.214 -0.374,0.321c-0.368,0.314 -0.722,0.614 -1.096,0.895c-0.34,0.26 -0.708,0.507 -1.128,0.741c-1.623,0.908 -3.319,2.217 -4.02,3.974c-0.321,0.801 -0.435,1.436 -0.976,2.157c-0.26,0.347 -2.097,1.803 -2.097,2.09c-0.033,-1.523 0.113,-2.959 0.374,-4.368c0.346,-1.856 0.895,-3.626 1.49,-5.482c0.053,-0.161 0.107,-0.321 0.16,-0.488c0.093,-0.281 0.167,-0.574 0.227,-0.868c0.541,-2.458 0.187,-5.316 -0.154,-7.72c-0.02,-0.167 -0.064,-0.328 -0.093,-0.487c-0.257,-1.394 -0.561,-2.752 -0.922,-4.108c-0.013,-0.053 -0.027,-0.113 -0.04,-0.167c-0.059,-0.234 -0.12,-0.447 -0.18,-0.661c-0.214,-0.774 -0.454,-1.536 -0.742,-2.304c-0.554,-1.509 -1.335,-3.172 -1.255,-4.841c0.04,-0.822 0.613,-1.273 1.342,-1.543c0.64,-0.237 1.346,-0.34 1.917,-0.468c0.107,-0.024 0.214,-0.047 0.314,-0.06c0.027,-0.013 0.06,-0.02 0.087,-0.02c0.227,-0.047 0.447,-0.087 0.641,-0.12c0.18,-0.033 0.34,-0.06 0.488,-0.087c0.053,-0.013 0.1,-0.02 0.146,-0.027c0.428,-0.073 0.661,-0.12 0.661,-0.167l-1.001,-6.223c0,0 0.709,-0.187 1.611,-0.273c1.302,-0.121 2.984,-0.008 3.265,1.281l1.381,4.528c0,0 0.06,0 0.167,-0.007c0.174,-0.007 1.149,-0.04 1.269,-0.04c0.474,-0.007 1.022,-0.007 1.556,0.007c0.14,0.006 0.301,0.02 0.468,0.026c0.274,0.014 0.574,0.021 0.874,0.034c0.842,0.06 1.63,0.24 1.923,1.062c0.455,1.288 0.615,2.544 1.229,3.826c0.094,0.187 0.183,0.38 0.268,0.575c0.469,1.071 0.781,2.243 0.42,3.332c-0.147,0.461 -0.424,0.87 -0.628,1.309c-0.119,0.258 -0.22,0.587 -0.3,0.975c-0.454,2.19 -0.239,6.234 0.648,9.664c0.072,0.28 0.147,0.547 0.227,0.807Z" style="fill:#f5a784;fill-rule:nonzero;"/><path d="M20.368,14.604c-0.007,-0.033 0,-0.047 0.013,-0.067c0,0.02 -0.007,0.04 -0.013,0.067Zm18.531,21.945c-0.007,-0.034 -0.013,-0.067 -0.027,-0.094c-0.053,-0.14 -0.116,-0.272 -0.193,-0.4c-0.139,-0.231 -0.321,-0.441 -0.554,-0.622c-0.201,-0.147 -0.408,-0.287 -0.635,-0.4c-0.073,-0.054 -5.295,-1.483 -7.486,-1.89c-0.374,-0.067 -0.755,-0.133 -1.155,-0.207c-0.635,-0.113 -1.229,-0.247 -1.777,-0.394c-4.341,-1.162 -5.983,-3.192 -5.983,-3.192c-0.114,-3.066 -0.221,-6.131 -0.334,-9.196c-0.06,-1.616 -0.321,-3.206 0.04,-4.675c0.16,-0.668 0.454,-1.302 0.941,-1.917c0.207,-0.253 0.421,-0.514 0.621,-0.774c0.314,-0.394 0.595,-0.815 0.775,-1.289c0.301,-0.775 0.24,-1.763 -0.387,-2.311c-1.322,-1.155 -4.087,-0.701 -4.615,0.955c-0.127,0.394 -0.24,0.782 -0.341,1.176c-0.167,0.641 -0.314,1.302 -0.447,1.95c-0.347,1.756 -0.581,3.546 -0.788,5.295c-0.507,4.054 -0.935,8.161 -0.815,12.248c0.007,1.596 4.649,4.728 9.056,7.34c0.621,0.367 1.236,0.728 1.837,1.068c2.778,1.596 5.943,2.678 7.766,5.423c0.067,0.1 0.136,0.199 0.194,0.3c0.034,0.06 0.073,0.127 0.113,0.187c0.167,0.247 0.381,0.488 0.642,0.514c0.04,0.007 0.08,0.007 0.12,0c0.3,-0.04 0.487,-0.333 0.641,-0.594c0.962,-1.696 3.573,-6.043 2.791,-8.501Z" style="fill:#f5a784;fill-rule:nonzero;"/><path d="M58.226,129.816c-0.14,0.068 0,1.543 0.007,1.691l0.007,0.073c-0.474,0.019 -0.949,0.047 -1.423,0.099c-0.454,-0.006 -0.915,-0.019 -1.369,-0.066c-0.094,-0.007 -0.174,0 -0.261,0c-0.046,-0.768 -0.126,-1.536 -0.274,-2.284c-0.133,-0.661 -0.26,-1.322 -0.373,-1.977c-0.695,-3.793 -11.734,-69.433 -11.734,-69.433c0.314,-0.013 0.714,-0.111 1.175,-0.234c0.594,-0.158 1.283,-0.374 1.991,-0.594c0.334,-0.1 0.674,-0.208 1.015,-0.307c0.233,-0.068 0.454,-0.127 0.668,-0.181c1.582,-0.414 3.002,-2.415 3.626,-1.675c0.186,0.22 0.367,0.454 0.548,0.707c0.434,0.594 0.868,1.296 1.295,2.057c0.975,1.716 1.923,3.747 2.711,5.623c0.221,0.508 0.421,1.008 0.608,1.483c0.127,0.32 0.247,0.628 0.361,0.928c0.788,2.077 1.246,4.681 1.482,7.419c0.319,3.693 0.234,7.627 0.034,10.846c-0.1,1.569 -0.234,2.972 -0.361,4.101c-0.053,0.454 -0.107,0.861 -0.153,1.214c-0.608,4.414 -0.708,10.432 0.287,20.163c0.18,1.802 0.307,3.625 0.38,5.416c0.194,4.621 0.074,8.955 -0.053,11.752c-0.094,1.971 -0.194,3.179 -0.194,3.179Z" style="fill:#f5a784;fill-rule:nonzero;"/><path d="M47.421,57.077c0,0 -0.007,0.114 -0.027,0.334c0,0.094 -0.006,0.207 -0.02,0.341c-0.207,2.358 -5.556,70.862 -5.629,71.53c-0.081,0.762 -0.094,1.529 -0.074,2.305c-0.087,0.006 -0.167,0.005 -0.254,0.019c-0.456,0.078 -0.908,0.141 -1.362,0.188c-0.475,-0.007 -0.949,0.006 -1.423,0.026l0,-0.073c-0.013,-0.148 0,-1.63 -0.147,-1.684c0,0 -0.207,-1.195 -0.474,-3.144c-0.38,-2.812 -0.894,-7.194 -1.115,-11.881c-0.08,-1.73 -0.12,-3.5 -0.1,-5.249c0.127,-9.784 -0.508,-15.768 -1.509,-20.109c-0.074,-0.346 -0.167,-0.748 -0.261,-1.195c-0.127,-0.6 -0.26,-1.308 -0.394,-2.103c-1.009,-5.864 -2.166,-16.265 -0.588,-21.912c0.432,-1.543 1.015,-1.255 1.483,-2.491c0.614,-1.649 1.229,-3.038 1.756,-4.14c0.034,-0.06 0.062,-0.126 0.094,-0.187c0.911,-1.741 1.489,-2.724 1.489,-2.724c0,0 0.547,0.747 2.184,1.362c0.321,0.12 0.688,0.233 1.095,0.34c0.214,0.06 0.434,0.116 0.668,0.16c0.52,0.099 1.056,0.167 1.649,0.221c0.261,0.023 0.528,0.046 0.808,0.06c0.227,0.013 0.461,0.02 0.702,0.02c0.454,0.013 0.935,0.007 1.449,-0.014Z" style="fill:#f5a784;fill-rule:nonzero;"/><path d="M37.574,132.793c0.197,-0.287 0.431,-0.574 0.516,-0.848c0.142,-0.465 0.028,-0.963 -0.033,-1.444c-0.018,-0.139 -0.03,-0.284 0.024,-0.412c0.088,-0.205 0.315,-0.305 0.522,-0.386c0.675,-0.264 1.383,-0.532 2.102,-0.452c0.895,0.098 1.41,0.719 1.44,1.571c0.014,0.38 -0.036,0.576 0.119,0.924c0.207,0.463 0.565,0.745 0.63,1.292c0.068,0.568 -0.213,1.207 -0.75,1.407c-0.255,0.095 -0.537,0.085 -0.81,0.074c-0.802,-0.032 -1.605,-0.064 -2.407,-0.096c-0.453,-0.019 -0.937,-0.047 -1.301,-0.318c-0.568,-0.421 -0.355,-0.869 -0.052,-1.312Z" style="fill:#3b2645;fill-rule:nonzero;"/><path d="M54.587,132.82c0.17,-0.304 0.378,-0.609 0.438,-0.891c0.1,-0.475 -0.058,-0.96 -0.162,-1.435c-0.03,-0.137 -0.055,-0.28 -0.013,-0.413c0.069,-0.211 0.287,-0.331 0.486,-0.431c0.648,-0.322 1.329,-0.653 2.054,-0.638c0.898,0.019 1.467,0.591 1.573,1.437c0.048,0.377 0.016,0.577 0.201,0.909c0.248,0.444 0.63,0.693 0.744,1.231c0.118,0.56 -0.105,1.22 -0.622,1.468c-0.246,0.119 -0.527,0.133 -0.8,0.147c-0.802,0.039 -1.604,0.079 -2.407,0.118c-0.452,0.022 -0.937,0.037 -1.323,-0.199c-0.604,-0.368 -0.431,-0.834 -0.169,-1.303Z" style="fill:#3b2645;fill-rule:nonzero;"/><path d="M42.842,32.377c-2.17,0.417 -3.99,-0.08 -5.212,-0.636l-0.348,-2.144l1.459,-1.241c1.31,-0.122 2.985,-0.011 3.265,1.281l0.836,2.74Z" style="fill:#e0855c;fill-rule:nonzero;"/><path d="M44.36,24.021c-0.325,-1.616 -0.712,-2.973 -1.362,-3.625c-2.853,-2.861 -7.839,-1.38 -8.526,1.268c-0.223,0.86 -0.148,2.027 0.124,3.385c-0.667,-0.012 -1.883,0.171 -1.409,1.766c0.395,1.327 1.507,1.43 2.304,1.314c1.525,3.425 4.658,3.508 6.169,3.255c1.61,-0.27 3.682,-2.473 2.7,-7.363Z" style="fill:#f5a784;fill-rule:nonzero;"/><path d="M42.141,24.716c0,0 0.451,0.087 0.261,-0.655c-0.171,-0.667 -0.459,-0.525 -0.459,-0.525c0,0 -0.296,0.048 -0.152,0.632c0.144,0.585 0.35,0.548 0.35,0.548Z" style="fill:#3b2645;fill-rule:nonzero;"/><path d="M38.132,25.489c0,0 0.452,0.087 0.261,-0.655c-0.171,-0.667 -0.459,-0.525 -0.459,-0.525c0,0 -0.295,0.047 -0.151,0.632c0.143,0.584 0.349,0.548 0.349,0.548Z" style="fill:#3b2645;fill-rule:nonzero;"/><path d="M40.207,26.71c0.21,-0.068 0.726,-0.022 0.789,-0.272c0.051,-0.207 -0.486,-1.292 -0.568,-1.48c-0.09,-0.206 -0.176,-0.389 -0.262,-0.57c0.017,-0.016 0.033,-0.034 0.052,-0.049c0.041,-0.033 0.084,-0.056 0.128,-0.075c0.333,0.751 0.613,1.548 0.925,2.26c0.028,0.063 -0.009,0.141 -0.079,0.151c-0.317,0.048 -0.613,0.166 -0.927,0.221c-0.105,0.018 -0.165,-0.151 -0.058,-0.186Z" style="fill:#e0855c;fill-rule:nonzero;"/><path d="M41.292,22.509c0.279,-0.206 0.841,-0.343 1.115,-0.063c0.05,0.05 0.011,0.147 -0.057,0.154c-0.153,0.018 -0.299,-0.033 -0.452,-0.02c-0.167,0.014 -0.317,0.077 -0.464,0.153c-0.133,0.068 -0.265,-0.134 -0.142,-0.224Z" style="fill:#3b2645;fill-rule:nonzero;"/><path d="M37.175,23.681c0.101,-0.461 0.848,-0.628 1.215,-0.414c0.084,0.049 0.056,0.172 -0.019,0.211c-0.178,0.089 -0.39,0.052 -0.581,0.102c-0.169,0.045 -0.293,0.143 -0.442,0.225c-0.077,0.042 -0.193,-0.034 -0.173,-0.124Z" style="fill:#3b2645;fill-rule:nonzero;"/><path d="M39.89,27.966c0.322,0.097 0.577,0.232 0.93,0.187c0.275,-0.035 0.548,-0.214 0.822,-0.164c0.043,0.007 0.082,0.052 0.061,0.098c-0.15,0.328 -0.663,0.442 -0.99,0.469c-0.351,0.028 -0.782,-0.031 -1.014,-0.323c-0.109,-0.139 0.031,-0.315 0.191,-0.267Z" style="fill:#e0855c;fill-rule:nonzero;"/><path d="M34.854,19.474l-1.61,1.756c-0.088,1.004 -0.269,1.952 0.041,2.913c0.1,0.311 0.236,0.627 0.49,0.833c0.219,0.178 0.546,0.244 0.791,0.123c0.039,-0.02 0.076,-0.044 0.11,-0.073c0.222,-0.192 0.253,-0.521 0.259,-0.815c0.013,-0.561 0,-1.127 0.094,-1.68c0.099,-0.588 0.373,-1.238 0.767,-1.688c0.453,-0.518 1.202,-0.639 1.771,-0.984c0.397,-0.242 0.627,-0.769 0.992,-0.962c0.44,-0.232 1.323,0.121 1.77,0.233c0.727,0.182 1.681,0.435 2.213,1.004c0.617,0.661 1.374,1.742 1.709,2.579c0.037,0.091 0.328,0.619 0.419,0.656c0.504,0.205 0.194,-1.674 0.22,-1.951c0.073,-0.795 -0.114,-1.616 -0.545,-2.29c-0.706,-1.101 -1.816,-1.536 -3.061,-1.656c-0.672,-0.064 -1.205,0.101 -1.875,0.161c-0.868,0.075 -1.822,0.171 -2.609,0.632c-0.661,0.388 -1.273,0.821 -1.946,1.209Z" style="fill:#3b2645;fill-rule:nonzero;"/><path d="M58.32,83.991c-3.734,1.449 -7.313,2.27 -10.599,2.685c-0.16,-0.962 -1.369,-8.221 -1.83,-10.886c-0.2,2.498 -0.774,10.031 -0.854,11.139c-4.187,0.274 -7.767,-0.086 -10.405,-0.547c-0.608,-3.553 -1.276,-8.783 -1.356,-13.611c-0.047,-3.125 0.154,-6.077 0.768,-8.301c0.347,-1.856 0.895,-3.626 1.49,-5.482c0.053,-0.161 0.107,-0.321 0.16,-0.488c0.093,-0.281 0.167,-0.574 0.227,-0.868c0.494,0.013 0.982,0.02 1.456,0.02c2.958,-0.007 5.616,-0.247 7.893,-0.581c0.601,-0.087 1.169,-0.187 1.717,-0.287c0.06,-0.007 0.107,-0.014 0.147,-0.027c1.756,-0.321 3.225,-0.688 4.374,-1.022c0.107,-0.033 0.214,-0.066 0.321,-0.1c0.34,0.461 0.674,0.995 1.015,1.563c0.093,0.16 0.567,1.008 0.714,1.275c0.821,1.537 1.603,3.246 2.277,4.842c0.214,0.508 0.421,1.008 0.608,1.483c0.127,0.32 0.247,0.628 0.361,0.928c0.788,2.077 1.246,4.681 1.482,7.419c0.319,3.693 0.234,7.627 0.034,10.846Z" style="fill:#3b2645;fill-rule:nonzero;"/><path d="M81.486,60.35c-0.728,-6.304 -13.824,-9.951 -30.866,-9.009c0.053,0.441 0.12,0.888 0.187,1.336c1.643,-0.087 3.252,-0.127 4.821,-0.127c13.571,0 23.975,3.105 24.529,7.954c0.702,6.097 -14.405,13.055 -32.99,15.192c-9.269,1.068 -18.111,0.842 -24.903,-0.634c-6.458,-1.402 -10.358,-3.833 -10.678,-6.672c-0.328,-2.831 2.911,-6.083 8.889,-8.921c4.327,-2.058 9.743,-3.747 15.727,-4.949c-0.007,-0.454 -0.027,-0.902 -0.067,-1.356c-6.171,1.229 -11.761,2.979 -16.235,5.102c-6.618,3.139 -10.044,6.792 -9.643,10.278c0.4,3.493 4.568,6.271 11.726,7.827c4.061,0.882 8.829,1.322 13.978,1.322c3.633,0 7.46,-0.221 11.36,-0.668c19.453,-2.237 34.199,-9.249 34.199,-16.127c0,-0.187 -0.014,-0.368 -0.034,-0.548Z" style="fill:#ff4590;fill-rule:nonzero;"/><path d="M53.558,58.473c-2.792,1.109 -7.62,2.738 -12.301,2.959c-7.173,0.34 -7.974,11.373 -7.974,11.373c-0.054,-3.159 0.147,-6.111 0.761,-8.335c0.347,-1.856 0.895,-3.626 1.49,-5.482c0.053,-0.161 0.107,-0.321 0.16,-0.488c0.093,-0.281 0.167,-0.574 0.227,-0.868c0.494,0.013 0.982,0.02 1.456,0.02c2.958,-0.007 5.616,-0.247 7.893,-0.581c0.601,-0.087 1.169,-0.187 1.717,-0.287c0.06,-0.007 0.107,-0.014 0.147,-0.027l5.71,0.441c0.093,0.16 0.567,1.008 0.714,1.275Z" style="fill:#25182b;fill-rule:nonzero;"/><path d="M57.906,31.587c-0.147,0.194 -0.301,0.381 -0.454,0.574c-0.435,0.541 -6.185,7.346 -6.311,7.487c0.227,0.534 0.414,1.081 0.507,1.629c0.107,0.574 0.094,1.149 -0.087,1.703c-0.147,0.461 -0.414,0.875 -0.628,1.309c-0.113,0.26 -0.22,0.588 -0.3,0.975c-0.627,3.03 -0.087,6.231 1.43,8.936c0.63,1.123 1.933,3.22 0.235,3.948c-1.468,0.63 -3.491,0.881 -5.064,1.187c-1.269,0.247 -2.652,0.427 -4.094,0.501c-0.407,0.027 -0.828,0.04 -1.249,0.04c-1.75,0 -3.403,-0.27 -5.125,-0.531c-1.505,-0.228 -1.627,-0.796 -1.53,-2.37c0.238,-3.86 -0.415,-7.772 -1.891,-11.346c-0.661,-1.599 -1.51,-2.865 -2.768,-4.041c-1.186,-1.107 -2.54,-1.572 -3.945,-2.368c-0.601,-0.34 -1.216,-0.701 -1.837,-1.068l2.277,-5.61c0.548,0.147 1.142,0.281 1.777,0.394c0.4,0.074 0.781,0.14 1.155,0.207c1.283,0.241 7.299,1.456 8.041,1.509c0.046,0.267 0.52,1.149 0.634,1.403c0.067,0.16 0.147,0.327 0.22,0.494c0.915,1.997 2.204,4.374 3.226,4.594c0.614,0.134 0.968,-0.854 1.175,-2.196c0.121,-0.789 0.174,-1.59 0.207,-2.385c0.02,-0.414 0.034,-0.828 0.04,-1.242c0.007,-0.401 -0.093,-0.755 -0.113,-1.155c0,0 1.469,-0.501 1.603,-0.561c2.117,-0.942 7.099,-4.842 8.227,-5.93l4.642,3.913Z" style="fill:#e8cee5;fill-rule:nonzero;"/><path d="M55.962,33.991c-0.427,0.514 -4.695,5.516 -4.821,5.657l-1.316,-2.638c0,0 2.979,-1.009 6.137,-3.019Z" style="fill:#ab8da8;fill-rule:nonzero;"/><path d="M41.966,44.689c-0.739,0.509 -1.41,0.987 -2.304,1.192c-0.893,0.205 -1.706,-0.046 -2.583,0.04c-0.058,0.006 -0.097,0.074 -0.05,0.12c1.344,1.304 4.279,0.276 5.247,-1.042c0.134,-0.182 -0.129,-0.436 -0.31,-0.31Z" style="fill:#ab8da8;fill-rule:nonzero;"/><path d="M17.367,49.907c-4.309,1.494 -8.606,3.812 -12.03,6.838c-1.564,1.383 -2.975,2.966 -4.053,4.759c-0.44,0.732 -1.863,2.63 -1.025,3.435c0.137,0.131 0.316,-0.062 0.203,-0.203c-0.437,-0.549 0.947,-2.464 1.277,-2.966c0.527,-0.802 1.118,-1.568 1.752,-2.289c1.231,-1.401 2.632,-2.645 4.141,-3.739c3.088,-2.24 6.551,-3.671 9.908,-5.424c0.222,-0.117 0.069,-0.495 -0.173,-0.411Z" style="fill:#e8cee5;fill-rule:nonzero;"/><path d="M83.649,69.653c-2.564,2.313 -4.947,4.591 -8.003,6.279c-3.026,1.672 -6.236,2.642 -9.589,3.397c-0.161,0.036 -0.129,0.307 0.04,0.292c6.498,-0.563 14.091,-4.274 17.937,-9.671c0.169,-0.236 -0.188,-0.474 -0.385,-0.297Z" style="fill:#e8cee5;fill-rule:nonzero;"/></g></svg>