<?xml version="1.0" encoding="UTF-8" standalone="no"?><!DOCTYPE svg PUBLIC "-//W3C//DTD SVG 1.1//EN" "http://www.w3.org/Graphics/SVG/1.1/DTD/svg11.dtd"><svg width="100%" height="100%" viewBox="0 0 136 118" version="1.1" xmlns="http://www.w3.org/2000/svg" xmlns:xlink="http://www.w3.org/1999/xlink" xml:space="preserve" xmlns:serif="http://www.serif.com/" style="fill-rule:evenodd;clip-rule:evenodd;stroke-linejoin:round;stroke-miterlimit:2;"><g><path d="M119.539,115.426c-1.094,-0.12 -2.19,-0.207 -3.299,-0.26c-0.306,-0.014 -0.621,-0.027 -0.934,-0.04c-0.861,0.013 -3.556,0.047 -4.046,0.049c-0.052,-0.003 -0.103,-0.006 -0.154,-0.009c-0.308,-0.014 -84.747,-0.047 -84.747,-0.047c-0.039,0.004 -0.079,0.006 -0.119,0.008c-1.311,-0.003 -5.016,-0.008 -5.016,-0.008c-0.068,0.007 -0.134,0.007 -0.201,0.013c-0.481,0.034 -0.961,0.074 -1.436,0.127c-1.228,0.127 -1.228,1.777 0,1.904c0.481,0.053 0.955,0.092 1.436,0.133c0.06,0.006 0.127,0.006 0.187,0.013c0,-0 3.482,-0.005 5.009,-0.009c0.043,0.003 0.086,0.005 0.126,0.009c0,-0 84.453,-0.04 84.767,-0.054c0.051,-0.002 0.102,-0.006 0.153,-0.008c0.484,0.002 3.18,0.036 4.041,0.049c0.313,-0.013 0.628,-0.027 0.941,-0.041c1.109,-0.052 2.204,-0.139 3.292,-0.259c1.002,-0.114 1.009,-1.456 0,-1.57Z" style="fill:#c6c6c6;fill-rule:nonzero;"/><path d="M92.046,0.887c5.33,2.666 5.542,10.156 8.906,15.075c6.278,9.181 21.225,6.988 29.348,14.585c4.29,4.013 5.945,10.394 4.893,16.173c-1.052,5.779 -4.568,10.928 -9.086,14.681c-2.986,2.479 -6.823,5.258 -6.359,9.111c0.166,1.373 0.892,2.603 1.403,3.888c2.286,5.762 0.007,12.592 -4.278,17.069c-4.285,4.479 -10.23,6.978 -16.177,8.721c-5.226,1.532 -10.595,2.573 -16.014,3.107c-2.985,0.294 -6.051,0.45 -8.812,1.622c-2.762,1.175 -5.02,3.287 -7.676,4.687c-6.347,3.347 -14.02,2.256 -21.091,1.041c-9.102,-1.563 -18.208,-3.192 -27.114,-5.637c-3.335,-0.915 -6.739,-1.996 -9.392,-4.216c-2.654,-2.22 -4.404,-5.855 -3.458,-9.183c0.795,-2.797 3.217,-4.757 5.198,-6.887c1.98,-2.131 3.684,-5.129 2.614,-7.833c-1.258,-3.18 -5.345,-3.866 -8.271,-5.636c-3.122,-1.888 -5.092,-5.299 -5.968,-8.841c-0.876,-3.542 -0.777,-7.246 -0.572,-10.89c0.182,-3.23 0.467,-6.542 1.876,-9.453c2.688,-5.557 8.976,-8.539 15.09,-9.396c4.951,-0.694 7.454,-0.876 10.133,-5.869c3.255,-6.065 5.382,-12.779 9.501,-18.293c4.12,-5.513 11.125,-9.73 17.747,-7.852c4.167,1.182 7.398,4.528 11.45,6.059c4.619,1.747 8.373,0.912 11.94,-2.004c3.761,-3.075 9.182,-6.324 14.169,-3.829Z" style="fill:#f6f6f6;fill-rule:nonzero;"/><path d="M66.786,81.712c14.56,3.074 32.709,4.861 32.709,4.861c-0.425,1.816 -0.067,5.32 0.6,9.178c1.342,7.74 3.926,16.941 3.926,16.941c2.666,0.758 4.644,-0.783 4.644,-0.783c-0.379,-7.913 1.741,-29.511 -2.311,-32.012c-6.753,-4.168 -31.16,-10.994 -35.264,-11.285c-2.829,-0.194 -5.593,0.266 -6.818,2.383c-0.516,0.892 -0.764,2.09 -0.622,3.651c0.017,0.194 0.041,0.386 0.07,0.574c0.837,5.195 -3.631,5.078 3.066,6.492Z" style="fill:#f5a784;fill-rule:nonzero;"/><path d="M70.226,32.419c-0.12,0.328 -0.347,0.582 -0.481,0.889c-0.16,0.381 -0.14,0.835 -0.3,1.229c-0.047,0.107 -0.401,0.881 -0.528,0.421c-0.087,-0.007 -0.174,-0.014 -0.254,-0.021c-2.176,-0.14 -4.354,-0.3 -6.517,-0.527c-0.615,-0.067 -1.23,-0.094 -1.837,-0.187c-0.534,-0.087 -0.762,-0.194 -1.022,-0.575c-0.047,-0.06 -0.086,-0.127 -0.127,-0.2c-0.527,-0.92 -0.741,-2.004 -0.728,-3.052c0.007,-0.42 0.04,-0.841 0.167,-1.242c0.127,-0.427 0.354,-0.821 0.621,-1.182c0.809,-1.082 1.977,-1.857 3.239,-2.337c-0.066,-0.348 -0.654,-0.561 -0.868,-0.848c-0.254,-0.354 -0.407,-0.788 -0.374,-1.229c0.026,-0.321 0.141,-0.621 0.301,-0.902c0.447,-0.781 1.275,-1.349 2.177,-1.436c0.801,-0.073 1.623,0.247 2.157,0.835c0.066,0.073 0.134,0.154 0.193,0.24c0.515,0.749 0.555,1.797 0.074,2.558c-0.133,0.214 -0.307,0.494 -0.154,0.695c0.067,0.087 0.174,0.127 0.274,0.16c0.834,0.294 1.663,0.628 2.364,1.162c0.928,0.701 1.59,1.757 1.823,2.899c0.181,0.874 0.107,1.802 -0.2,2.65Z" style="fill:#3b2645;fill-rule:nonzero;"/><path d="M69.118,33.163c0,-0 0.885,-1.062 1.771,-0c0.886,1.063 -0.619,3.096 -1.771,3.186c0,-0 -0.132,-2.728 0,-3.186Z" style="fill:#e0855c;fill-rule:nonzero;"/><path d="M75.362,52.648c-0.021,0.314 -0.04,0.634 -0.067,0.948c-0.448,6.365 -1.102,13.343 -1.336,15.774c-0.013,0.174 -0.087,0.895 -0.087,0.895c0,-0 -1.442,0.381 -3.706,0.668c-3.173,0.402 -7.94,0.614 -12.615,-0.668c0,-0 -0.008,-0.074 -0.021,-0.208c-0.161,-1.583 -1.181,-11.626 -1.522,-13.71c-0.047,-0.3 -0.108,-0.606 -0.174,-0.921c-0.109,-0.534 -0.226,-1.062 -0.36,-1.59c-0.908,-3.599 -2.384,-7.238 -2.852,-8.34c-0.08,-0.201 -0.007,-0.428 0.181,-0.541c0.654,-0.408 2.41,-1.303 4.861,-1.85c0.167,-0.034 0.334,-0.067 0.508,-0.101c0.487,-0.086 1.002,-0.167 1.536,-0.213c0.307,-0.034 0.621,-0.06 0.942,-0.074c0.019,-0.006 0.047,-0.006 0.066,-0c0.188,-0.02 0.381,-0.027 0.574,-0.027c0,-0 0,-0.634 -0.026,-1.509c-0.021,-0.507 -0.04,-1.088 -0.08,-1.676c-0.04,-0.855 -0.137,-1.714 -0.221,-2.384c-0.008,-0.066 -0.019,-0.127 -0.033,-0.187c0,-0.073 0.04,-0.04 0.106,0.007c0.047,0.04 0.107,0.082 0.181,0.133c0.02,0.014 0.04,0.027 0.061,0.047c0.16,0.107 0.327,0.214 0.52,0.327c0.301,0.18 0.668,0.374 1.102,0.548c0.067,0.027 0.14,0.053 0.207,0.08c0.02,0.013 0.047,0.02 0.074,0.027c0.086,0.04 0.174,0.064 0.267,0.093c0.295,0.093 0.607,0.187 0.934,0.254c0.194,0.04 0.395,0.073 0.602,0.1c0.14,0.02 0.287,0.034 0.44,0.047c0.301,0.027 0.614,0.027 0.936,0.013c0.273,-0.012 0.527,-0.033 0.788,-0.08c0.139,-0.013 0.272,-0.043 0.406,-0.069l0.274,2.881c0,0.013 0.107,1.188 0.107,1.188l0.248,-0c0.059,-0 0.126,-0 0.2,0.007c0.387,0.007 1.001,0.02 1.716,0.06c0.621,0.033 1.322,0.087 2.023,0.167c0.207,0.027 0.421,0.053 0.628,0.08c1.209,0.167 2.959,0.087 2.972,0.842c0.04,2.057 -0.12,5.369 -0.36,8.962Z" style="fill:#f5a784;fill-rule:nonzero;"/><path d="M60.909,36.836c1.031,4.676 5.737,4.355 6.841,3.737l-0.196,-2.112c-3.878,0.791 -6.645,-1.625 -6.645,-1.625Z" style="fill:#e0855c;fill-rule:nonzero;"/><path d="M68.916,30.091c0.588,0.612 0.637,1.985 0.686,3.503c0.148,4.596 -1.228,6.031 -3.575,6.283c-2.348,0.253 -4.803,-0.649 -5.309,-4.911c-0.253,-2.13 -0.522,-4.099 0.253,-5.02c1.155,-1.372 6.14,-1.733 7.945,0.145Z" style="fill:#f5a784;fill-rule:nonzero;"/><path d="M61.044,34.351c0,-0 -0.718,-1.903 -1.851,-0.894c-1.134,1.008 0.432,3.883 2.167,3.67c0,-0 0.237,-2.125 -0.316,-2.776Z" style="fill:#f5a784;fill-rule:nonzero;"/><path d="M59.722,34.322c0.251,0.044 0.508,0.281 0.688,0.45c0.191,0.177 0.413,0.398 0.507,0.644c0.03,0.077 -0.078,0.124 -0.13,0.075c-0.147,-0.136 -0.264,-0.3 -0.402,-0.447c-0.098,0.105 -0.196,0.212 -0.332,0.262c-0.105,0.039 -0.183,-0.091 -0.137,-0.177c0.06,-0.11 0.168,-0.189 0.276,-0.263c-0.181,-0.138 -0.398,-0.247 -0.548,-0.409c-0.057,-0.062 0.001,-0.148 0.078,-0.135Z" style="fill:#e0855c;fill-rule:nonzero;"/><path d="M65.78,35.358c0.201,-0.03 0.663,0.09 0.757,-0.127c0.079,-0.181 -0.245,-1.25 -0.291,-1.433c-0.164,-0.66 -0.339,-1.107 -0.463,-1.899c-0.004,-0.035 0.055,-0.055 0.071,-0.019c0.466,1.052 0.639,2.353 0.922,3.471c0.015,0.061 -0.031,0.127 -0.096,0.125c-0.295,-0.004 -0.582,0.058 -0.876,0.06c-0.099,-0 -0.127,-0.162 -0.024,-0.178Z" style="fill:#e0855c;fill-rule:nonzero;"/><path d="M67.149,31.348c0.285,-0.145 0.816,-0.183 1.023,0.113c0.038,0.054 -0.012,0.135 -0.075,0.132c-0.142,-0.007 -0.267,-0.076 -0.408,-0.088c-0.154,-0.012 -0.3,0.022 -0.445,0.069c-0.131,0.041 -0.22,-0.162 -0.095,-0.226Z" style="fill:#3b2645;fill-rule:nonzero;"/><path d="M62.962,31.695c0.162,-0.403 0.868,-0.442 1.169,-0.192c0.068,0.058 0.025,0.166 -0.05,0.189c-0.175,0.055 -0.362,-0.011 -0.544,0.005c-0.16,0.015 -0.287,0.085 -0.436,0.138c-0.076,0.026 -0.17,-0.061 -0.139,-0.14Z" style="fill:#3b2645;fill-rule:nonzero;"/><path d="M64.41,32.96c-0.306,-0.13 -0.669,-0.138 -0.997,-0.109c-0.28,0.024 -0.644,0.057 -0.836,0.282c-0.017,0.022 -0.015,0.065 0.019,0.07c0.27,0.043 0.545,-0.081 0.817,-0.102c0.322,-0.025 0.624,0.045 0.942,0.063c0.103,0.006 0.157,-0.161 0.055,-0.204Z" style="fill:#3b2645;fill-rule:nonzero;"/><path d="M67.906,32.669c-0.313,-0.001 -0.631,0.093 -0.872,0.294c-0.14,0.118 0.039,0.305 0.184,0.238c0.245,-0.115 0.459,-0.204 0.738,-0.187c0.218,0.014 0.411,0.15 0.624,0.13c0.089,-0.008 0.14,-0.09 0.099,-0.172c-0.126,-0.258 -0.512,-0.303 -0.773,-0.303Z" style="fill:#3b2645;fill-rule:nonzero;"/><path d="M66.992,36.643c-0.453,0.094 -0.846,0.236 -1.318,0.16c-0.432,-0.069 -0.732,-0.329 -1.124,-0.474c-0.077,-0.029 -0.133,0.067 -0.1,0.13c0.419,0.806 2.011,0.922 2.662,0.389c0.102,-0.084 -0.011,-0.228 -0.12,-0.205Z" style="fill:#e0855c;fill-rule:nonzero;"/><path d="M125.268,42.203c-2.983,-0.401 -11.007,0.081 -11.18,0.215c-2.135,0.446 -14.161,2.941 -16.52,3.032c-1.964,0.069 -9.93,-0.786 -15.593,-1.416c-1.154,-0.133 -2.212,-0.25 -3.107,-0.355c-0.498,-0.052 -5.479,-0.815 -5.479,-0.815c-3.233,-0.359 -1.921,1.425 -2.208,3.775c-0.058,0.458 -0.016,0.958 0.133,1.504c0.265,0.95 0.978,1.702 1.865,2.124c1.028,0.478 4.336,0.882 8.261,1.169c0.476,0.041 0.964,0.068 1.46,0.101c6.322,0.406 13.677,0.523 15.845,0.2c5.327,-0.786 13.698,-4.105 16.745,-5.362c0.031,-0.006 0.061,-0.006 0.092,-0.017c2.556,-0.867 4.985,-0.362 7.597,-0.649c0.107,-0.012 0.235,-0.04 0.274,-0.142c0.021,-0.052 0.011,-0.112 -0.007,-0.165c-0.224,-0.634 -1.205,-0.332 -1.612,-0.697c0.344,-0.303 0.954,-0.36 1.377,-0.569c0.785,-0.387 1.498,-0.938 2.227,-1.421c0.093,-0.063 0.198,-0.144 0.198,-0.257c0,-0.164 -0.206,-0.233 -0.368,-0.255Z" style="fill:#f5a784;fill-rule:nonzero;"/><path d="M6.977,42.203c2.982,-0.401 11.007,0.081 11.179,0.215c2.135,0.446 14.162,2.941 16.521,3.032c1.964,0.069 9.93,-0.786 15.593,-1.416c1.154,-0.133 2.212,-0.25 3.106,-0.355c0.498,-0.052 5.48,-0.815 5.48,-0.815c3.234,-0.359 1.921,1.425 2.208,3.775c0.057,0.458 0.015,0.958 -0.133,1.504c-0.266,0.95 -0.979,1.702 -1.865,2.124c-1.029,0.478 -4.335,0.882 -8.261,1.169c-0.477,0.041 -0.964,0.068 -1.459,0.101c-6.322,0.406 -13.679,0.523 -15.846,0.2c-5.327,-0.786 -13.698,-4.105 -16.746,-5.362c-0.03,-0.006 -0.06,-0.006 -0.092,-0.017c-2.555,-0.867 -4.984,-0.362 -7.595,-0.649c-0.109,-0.012 -0.237,-0.04 -0.276,-0.142c-0.021,-0.052 -0.01,-0.112 0.008,-0.165c0.224,-0.634 1.204,-0.332 1.612,-0.697c-0.344,-0.303 -0.955,-0.36 -1.378,-0.569c-0.785,-0.387 -1.498,-0.938 -2.226,-1.421c-0.094,-0.063 -0.198,-0.144 -0.198,-0.257c0,-0.164 0.206,-0.233 0.368,-0.255Z" style="fill:#f5a784;fill-rule:nonzero;"/><path d="M70.522,69.757c0.046,0.208 -4.748,23.382 -17.934,30.033c-8.596,4.336 -18.079,7.168 -27.531,8.925c-0.389,0.073 -0.781,0.146 -1.171,0.205c-0.046,1.053 0.086,2.391 0.575,3.325c0.393,0.75 0.844,1.519 1.677,1.826c0.151,0.056 0.314,0.099 0.439,0.203c0.344,0.284 0.203,0.886 -0.158,1.149c-0.359,0.264 -0.836,0.286 -1.282,0.295c-1.508,0.035 -3.215,0.164 -3.933,-1.336c-0.444,-0.928 -0.798,-1.922 -1.118,-2.9c-0.507,-1.547 -2.038,-5.717 0.048,-6.267c6.991,-1.844 24.661,-11.137 27.622,-12.822c2.676,-1.522 5.394,-17.458 9.774,-22.336c4.38,-4.879 12.227,-3.733 12.992,-0.3Z" style="fill:#f5a784;fill-rule:nonzero;"/><path d="M103.622,111.23c0.056,0.477 0.095,0.957 0.121,1.437c0.062,1.146 -0.819,2.511 0.348,3.35c0.623,0.447 1.473,0.382 2.195,0.425c1.585,0.094 3.174,0.031 4.759,-0.019c1.039,-0.032 2.079,-0.078 3.117,-0.132c0.865,-0.046 2.217,0.105 2.95,-0.35c0.092,-0.058 0.185,-0.133 0.211,-0.238c0.021,-0.093 -0.014,-0.19 -0.062,-0.272c-0.189,-0.322 -0.561,-0.483 -0.912,-0.606c-1.588,-0.553 -3.286,-0.745 -4.861,-1.333c-1.208,-0.45 -2.401,-1.2 -3.086,-2.322c-0.491,-0.8 -0.535,-1.699 -1.484,-2.122c-1.512,-0.673 -3.506,0.399 -3.296,2.182Z" style="fill:#f5a784;fill-rule:nonzero;"/><path d="M75.295,53.596c-0.448,6.365 -1.102,13.343 -1.336,15.774c-0.975,0.427 -2.284,0.982 -3.793,1.563c-3.173,0.401 -7.94,0.614 -12.615,-0.668c0,-0 -0.008,-0.074 -0.021,-0.208c-0.161,-1.583 -1.181,-11.626 -1.522,-13.71c-0.047,-0.3 -0.108,-0.606 -0.174,-0.921c-0.109,-0.534 -0.226,-1.062 -0.36,-1.59c1.009,-1.422 2.524,-4.607 2.19,-10.731c0.167,-0.034 0.334,-0.067 0.508,-0.101c0.487,-0.086 1.002,-0.167 1.536,-0.213c0.281,2.398 1.403,8.782 5.329,8.688c4.488,-0.106 5.022,-5.663 5.062,-8.882c0.621,0.033 1.322,0.087 2.023,0.167c0.007,2.358 0.282,8.869 3.173,10.832Z" style="fill:#e8cee5;fill-rule:nonzero;"/><path d="M108.693,104.825c-2.665,1.703 -6.625,0.287 -6.625,0.287c-3.407,-6.305 -3.673,-17.771 -3.673,-17.771c0,-0 -19.521,-1.449 -27.247,-1.449c-1.677,-0 -2.946,0.341 -3.994,0.942c-3.793,2.176 -4.708,7.747 -11.386,12.956c-8.522,6.651 -24.382,7.579 -24.382,7.579c-2.305,-1.709 -2.171,-5.683 -2.171,-5.683c0,-0 2.404,-2.938 6.905,-5.489c0.822,-0.475 1.723,-0.929 2.685,-1.35c6.03,-2.644 8.935,-4.888 9.116,-5.028c2.991,-10.151 9.536,-20.469 9.536,-20.469c9.444,2.211 16.575,-0.781 16.575,-0.781c4.121,-0 30.08,8.374 33.485,11.099c3.413,2.731 3.84,23.447 1.176,25.157Z" style="fill:#ab8da8;fill-rule:nonzero;"/><path d="M98.395,87.341c0,-0 -19.521,-1.449 -27.247,-1.449c-1.677,-0 -2.946,0.341 -3.994,0.942c0.034,-0.207 0.868,-4.541 8.575,-4.321c7.893,0.227 22.666,4.828 22.666,4.828Z" style="fill:#826b80;fill-rule:nonzero;"/><path d="M38.469,99.911c-0.613,-0.212 -1.367,-0.006 -2.013,0.011c-0.57,0.015 -1.253,-0.116 -1.744,0.214c-0.086,0.058 -0.124,0.194 -0.035,0.271c0.463,0.401 1.195,0.332 1.779,0.331c0.67,-0.001 1.499,0.09 2.086,-0.264c0.238,-0.143 0.174,-0.477 -0.073,-0.563Z" style="fill:#e8cee5;fill-rule:nonzero;"/><path d="M48.072,97.13c-0.665,-0.086 -1.2,0.931 -1.512,1.414c-0.442,0.683 -0.793,1.439 -0.892,2.249c-0.038,0.314 0.446,0.417 0.584,0.157c0.352,-0.659 0.625,-1.35 1.039,-1.978c0.301,-0.458 1.094,-1.012 1.026,-1.596c-0.017,-0.146 -0.1,-0.226 -0.245,-0.246Z" style="fill:#e8cee5;fill-rule:nonzero;"/><path d="M52.932,89.409c-0.552,-0.162 -1.068,0.237 -1.563,0.463c-0.649,0.297 -1.275,0.611 -1.854,1.032c-0.245,0.179 -0.106,0.571 0.211,0.501c0.651,-0.147 1.258,-0.387 1.869,-0.653c0.509,-0.222 1.263,-0.382 1.512,-0.914c0.08,-0.17 0.018,-0.372 -0.175,-0.429Z" style="fill:#e8cee5;fill-rule:nonzero;"/><path d="M60.099,86.337c-0.381,0.508 -0.635,1.112 -0.914,1.68c-0.26,0.526 -0.539,1.049 -0.742,1.601c-0.157,0.425 0.51,0.694 0.724,0.305c0.283,-0.513 0.491,-1.072 0.718,-1.612c0.244,-0.58 0.534,-1.165 0.666,-1.783c0.062,-0.286 -0.287,-0.412 -0.452,-0.191Z" style="fill:#e8cee5;fill-rule:nonzero;"/><path d="M57.206,76.888c-0.043,-0.216 -0.348,-0.186 -0.407,-0c-0.425,1.351 -0.4,2.911 -0.47,4.316c-0.028,0.578 0.866,0.575 0.898,-0c0.079,-1.402 0.259,-2.932 -0.021,-4.316Z" style="fill:#e8cee5;fill-rule:nonzero;"/><path d="M65.149,75.182c-0.241,-0.576 -0.917,-0.944 -1.425,-1.28c-0.433,-0.286 -1.119,-0.813 -1.663,-0.643c-0.111,0.035 -0.176,0.146 -0.148,0.26c0.124,0.492 0.788,0.817 1.179,1.09c0.481,0.337 0.987,0.938 1.566,1.063c0.262,0.058 0.618,-0.188 0.491,-0.49Z" style="fill:#e8cee5;fill-rule:nonzero;"/><path d="M74.531,78.453c-1.353,0.028 -2.863,0.196 -4.177,0.529c-0.312,0.079 -0.227,0.519 0.072,0.538c1.361,0.088 2.87,-0.028 4.216,-0.248c0.469,-0.076 0.351,-0.829 -0.111,-0.819Z" style="fill:#e8cee5;fill-rule:nonzero;"/><path d="M78.614,71.971c-0.515,-0.349 -1.227,-0.232 -1.83,-0.262c-0.655,-0.034 -1.337,-0.123 -1.985,0.006c-0.174,0.036 -0.195,0.29 -0.049,0.372c0.596,0.333 1.308,0.415 1.976,0.503c0.615,0.082 1.331,0.268 1.888,-0.06c0.219,-0.13 0.197,-0.425 0,-0.559Z" style="fill:#e8cee5;fill-rule:nonzero;"/><path d="M84.61,78.383c-0.123,-0.54 -0.533,-1.036 -0.826,-1.5c-0.295,-0.468 -0.586,-0.987 -0.977,-1.381c-0.215,-0.216 -0.602,0.002 -0.515,0.299c0.156,0.535 0.468,1.04 0.735,1.525c0.264,0.481 0.499,1.079 0.912,1.448c0.3,0.269 0.761,0.008 0.671,-0.391Z" style="fill:#e8cee5;fill-rule:nonzero;"/><path d="M93.917,78.199c-1.118,-0.382 -2.467,-0.492 -3.605,-0.143c-0.309,0.096 -0.227,0.508 0.073,0.538c1.125,0.117 2.187,0.219 3.288,0.491c0.578,0.142 0.801,-0.696 0.244,-0.886Z" style="fill:#e8cee5;fill-rule:nonzero;"/><path d="M97.658,84.466c-0.242,-0.464 -0.851,-0.726 -1.281,-0.999c-0.485,-0.307 -0.957,-0.608 -1.491,-0.823c-0.278,-0.113 -0.456,0.286 -0.276,0.475c0.398,0.418 0.872,0.745 1.338,1.083c0.429,0.311 0.867,0.738 1.407,0.794c0.283,0.03 0.415,-0.315 0.303,-0.53Z" style="fill:#e8cee5;fill-rule:nonzero;"/><path d="M104.585,81.894c-0.269,-0.558 -1.101,-0.697 -1.647,-0.892c-0.707,-0.25 -1.435,-0.563 -2.191,-0.596c-0.175,-0.008 -0.296,0.247 -0.151,0.365c0.541,0.444 1.216,0.684 1.856,0.95c0.579,0.24 1.375,0.769 1.993,0.518c0.147,-0.06 0.211,-0.196 0.14,-0.345Z" style="fill:#e8cee5;fill-rule:nonzero;"/><path d="M103.902,86.75c-0.536,1.268 -1.362,3.004 -0.98,4.403c0.054,0.198 0.324,0.226 0.429,0.057c0.374,-0.607 0.43,-1.327 0.574,-2.012c0.162,-0.769 0.316,-1.542 0.515,-2.301c0.093,-0.358 -0.404,-0.469 -0.538,-0.147Z" style="fill:#e8cee5;fill-rule:nonzero;"/><path d="M103.988,99.884c-0.17,-0.533 -0.645,-0.968 -0.997,-1.395c-0.417,-0.505 -0.833,-1.023 -1.347,-1.432c-0.205,-0.163 -0.482,0.034 -0.364,0.281c0.281,0.591 0.692,1.114 1.088,1.63c0.337,0.441 0.654,1.006 1.133,1.29c0.241,0.144 0.575,-0.095 0.487,-0.374Z" style="fill:#e8cee5;fill-rule:nonzero;"/><path d="M108.018,93.245c-0.021,-0.891 -0.068,-1.776 -0.155,-2.662c-0.033,-0.332 -0.484,-0.332 -0.517,-0c-0.088,0.887 -0.134,1.771 -0.154,2.662c-0.019,0.785 -0.113,1.605 0.129,2.361c0.088,0.279 0.478,0.279 0.568,-0c0.24,-0.752 0.146,-1.579 0.129,-2.361Z" style="fill:#e8cee5;fill-rule:nonzero;"/><path d="M43.039,95.816c-2.517,0.514 -5.042,0.508 -6.919,0.381c0.822,-0.475 1.723,-0.929 2.685,-1.35c6.03,-2.644 8.935,-4.888 9.116,-5.028c0,-0 0.12,4.975 -4.882,5.997Z" style="fill:#826b80;fill-rule:nonzero;"/><path d="M40.691,29.997c-3.666,-0.516 -7.349,-0.816 -11.002,-1.453c-1.772,-0.309 -3.535,-0.66 -5.293,-1.039c-1.626,-0.351 -3.276,-0.835 -4.951,-0.674c-0.186,0.018 -0.264,0.316 -0.048,0.354c7.03,1.243 14.02,3.243 21.201,3.494c0.382,0.013 0.485,-0.627 0.093,-0.682Z" style="fill:#e8cee5;fill-rule:nonzero;"/><path d="M46.964,24.553c-2.294,-1.693 -4.808,-3.158 -7.237,-4.647c-0.269,-0.164 -0.49,0.238 -0.243,0.414c2.324,1.656 4.66,3.4 7.119,4.85c0.406,0.239 0.722,-0.35 0.361,-0.617Z" style="fill:#e8cee5;fill-rule:nonzero;"/><path d="M86.266,15.575c-1.649,1.112 -3.119,2.552 -4.595,3.879c-1.427,1.282 -3.182,2.586 -4.194,4.232c-0.089,0.146 0.086,0.309 0.228,0.229c1.609,-0.907 2.929,-2.458 4.303,-3.684c1.54,-1.374 3.235,-2.638 4.681,-4.107c0.27,-0.275 -0.085,-0.778 -0.423,-0.549Z" style="fill:#e8cee5;fill-rule:nonzero;"/><path d="M101.128,27.6c-3.21,0.181 -6.42,0.356 -9.629,0.547c-2.983,0.177 -6.086,0.163 -9.03,0.699c-0.284,0.052 -0.192,0.458 0.064,0.476c3.066,0.218 6.232,-0.152 9.298,-0.305c3.1,-0.154 6.199,-0.324 9.297,-0.488c0.595,-0.031 0.598,-0.963 0,-0.929Z" style="fill:#e8cee5;fill-rule:nonzero;"/><path d="M62.953,23.458c-0.265,1.322 1.156,2.07 1.356,2.17c-1.088,-0.207 -1.85,0.007 -1.85,0.007c-0.066,-0.348 -0.654,-0.561 -0.868,-0.848c-0.254,-0.354 -0.407,-0.788 -0.374,-1.229c0.026,-0.321 0.141,-0.621 0.301,-0.902c0.447,-0.781 1.275,-1.349 2.177,-1.436c0.801,-0.073 1.623,0.247 2.157,0.835c-1.443,-0.301 -2.636,0.097 -2.899,1.403Z" style="fill:#291b30;fill-rule:nonzero;"/><path d="M68.037,61.238c-0.525,-0.027 -1.098,0.208 -1.571,0.391c-0.322,0.126 -0.628,0.286 -0.946,0.419c-0.292,0.118 -0.583,0.235 -0.875,0.351c-0.807,-0.487 -0.976,-0.961 -0.508,-1.421c0.613,-1.282 2.505,-2.001 3.574,-2.853c1.282,-1.022 2.544,-3.021 0.13,-3.46c-2.403,-0.437 -6.333,0.874 -7.672,2.973c-0.065,0.104 0.061,0.205 0.157,0.157c1.252,-0.623 2.219,-1.521 3.571,-2.001c0.493,-0.175 1.002,-0.314 1.516,-0.41c0.664,-0.124 3.691,-0.73 2.833,1.426c-0.31,0.779 -1.608,1.359 -2.282,1.82c-0.709,0.487 -1.452,0.979 -2.013,1.642c-0.477,0.564 -1.299,1.79 -0.566,2.471c0.535,0.496 1.29,0.161 1.855,-0.061c0.331,-0.129 0.647,-0.302 0.971,-0.442c0.989,-0.721 1.703,-0.334 2.14,1.158c-0.331,0.331 -0.705,0.601 -1.106,0.838c-0.265,0.157 -0.017,0.582 0.243,0.414c0.7,-0.451 2.055,-1.334 1.957,-2.335c-0.073,-0.729 -0.75,-1.044 -1.408,-1.077Z" style="fill:#ab8da8;fill-rule:nonzero;"/></g></svg>