<?xml version="1.0" encoding="UTF-8" standalone="no"?><!DOCTYPE svg PUBLIC "-//W3C//DTD SVG 1.1//EN" "http://www.w3.org/Graphics/SVG/1.1/DTD/svg11.dtd"><svg width="100%" height="100%" viewBox="0 0 97 123" version="1.1" xmlns="http://www.w3.org/2000/svg" xmlns:xlink="http://www.w3.org/1999/xlink" xml:space="preserve" xmlns:serif="http://www.serif.com/" style="fill-rule:evenodd;clip-rule:evenodd;stroke-linejoin:round;stroke-miterlimit:2;"><g><path d="M95.738,122.389c-1.088,0.12 -2.183,0.207 -3.293,0.26c-0.313,0.013 -89.901,0.053 -89.901,0.053c-0.06,-0.007 -0.127,-0.007 -0.187,-0.013c-0.481,-0.04 -0.955,-0.08 -1.436,-0.133c-1.228,-0.127 -1.228,-1.777 -0,-1.904c0.475,-0.053 0.955,-0.093 1.436,-0.127c0.067,-0.006 0.133,-0.006 0.201,-0.013c0,-0 89.574,0.033 89.882,0.047c1.108,0.053 2.203,0.14 3.298,0.26c1.008,0.114 1.001,1.456 0,1.57Z" style="fill:#c6c6c6;fill-rule:nonzero;"/><path d="M49.523,98.197c-5.987,-0.831 -12.079,-0.887 -18.08,-0.167c-4.064,0.489 -8.146,1.332 -12.215,0.893c-4.07,-0.44 -8.262,-2.466 -9.98,-6.181c-2.637,-5.704 1.418,-12.019 4.095,-17.705c3.7,-7.861 4.858,-16.894 3.261,-25.433c-0.847,-4.523 -2.446,-8.944 -2.532,-13.544c-0.136,-7.357 3.626,-14.262 8.247,-19.989c5.166,-6.402 11.72,-11.932 19.519,-14.55c7.798,-2.618 16.939,-1.982 23.565,2.892c5.003,3.679 8.204,9.432 9.75,15.447c1.548,6.014 1.571,12.316 1.188,18.514c-0.344,5.545 -0.987,11.245 0.651,16.553c1.88,6.086 6.543,10.927 9.001,16.803c2.294,5.487 2.552,11.577 2.779,17.519c0.152,3.995 0.29,8.1 -1.016,11.879c-1.567,4.539 -5.067,8.152 -8.847,11.114c-1.948,1.528 -4.224,2.991 -6.691,2.784c-1.714,-0.143 -3.25,-1.079 -4.665,-2.055c-3.534,-2.437 -6.808,-5.289 -9.671,-8.491c-2.859,-3.196 -3.706,-5.636 -8.359,-6.283Z" style="fill:#f6f6f6;fill-rule:nonzero;"/><path d="M55.467,72.589c0.126,8.782 -6.458,10.204 -13.684,11.239c-7.219,1.035 -13.062,5.042 -13.062,5.042c0,-0 1.215,5.616 -0.081,11.246c-0.674,2.919 -1.088,5.604 -1.335,7.934c-0.602,5.563 -0.268,9.116 -0.268,9.116l-4.647,-0c0,-0 -0.708,-4.441 -1.263,-10.138c-0.654,-6.724 -1.089,-15.199 0.101,-20.228c2.197,-9.303 25.711,-19.514 25.711,-19.514c0,-0 8.401,-3.485 8.528,5.303Z" style="fill:#f5a784;fill-rule:nonzero;"/><path d="M58.265,83.02c-5.884,4.709 -8.682,9.037 -8.682,9.037c1.316,2.978 1.149,10.183 0.715,14.671c-0.054,0.561 -0.08,1.148 -0.08,1.75c-0.047,4.24 0.954,9.149 0.954,9.149l-5.068,0.687c0,-0 -4.115,-24.18 -4.508,-27.08c-1.069,-7.886 9.944,-25.237 9.944,-25.237c0,-0 6.798,-10.477 10.211,-1.469c3.419,9.002 2.391,13.778 -3.486,18.492Z" style="fill:#f5a784;fill-rule:nonzero;"/><path d="M47.212,45.796c0,-0 -7.399,5.566 -11.896,12.557c-4.497,6.989 -3.915,7.143 -3.915,7.143c0,-0 5.977,-1.005 13.251,-7.483c7.275,-6.479 4.389,-13.792 2.56,-12.217Z" style="fill:#e0855c;fill-rule:nonzero;"/><path d="M63.388,51.493c-0.245,1.022 -0.423,2.03 -0.562,3.052c-0.204,1.443 -0.318,2.892 -0.435,4.354c-0.013,0.167 -0.027,0.328 -0.04,0.495c-0.032,0.394 -0.063,5.403 0.226,6.578c0.041,0.16 0.08,0.249 0.133,0.249c-0.333,0.08 -0.667,0.162 -0.987,0.229c-1.722,0.391 -3.319,0.633 -4.787,0.77c-1.69,0.157 -3.205,0.172 -4.548,0.101c-0.541,-0.033 -1.082,-0.077 -1.623,-0.135c-0.181,-0.081 -0.354,-0.167 -0.528,-0.248c-1.129,-0.538 -1.785,-0.991 -1.785,-0.991c-0.027,-0.02 -0.052,-0.082 -0.066,-0.162c-0.08,-0.334 -0.083,-1.059 -0.104,-1.2c-0.129,-1.008 -0.285,-2.015 -0.441,-3.023c-0.317,-2.017 -0.079,-4.102 -1.218,-5.936c-0.261,-0.407 -0.578,-0.788 -0.779,-1.228c-0.576,-1.228 -0.225,-2.677 0.214,-3.961c0.458,-1.343 0.469,-2.611 0.767,-3.947c0.258,-1.142 1.562,-1.246 2.663,-1.422c0.147,-0.027 0.306,-0.056 0.447,-0.08c1.43,-0.246 2.97,-0.313 2.97,-0.313l0.834,-4.662c0.21,-2.211 4.726,-1.585 4.726,-1.585l-0.257,6.297c0,0.087 0.703,0.072 1.905,0.163c0.02,-0 0.047,0.007 0.067,0.007c0.026,-0 0.06,-0 0.087,0.006c0.106,0.007 0.214,0.016 0.32,0.027c0.601,0.059 1.322,0.075 1.957,0.235c0.755,0.185 1.382,0.56 1.518,1.374c0.276,1.642 -0.303,3.386 -0.674,4.956Z" style="fill:#f5a784;fill-rule:nonzero;"/><path d="M58.465,38.428l-0.075,1.838c-1.738,2.948 -4.094,3.32 -5.283,3.289l0.632,-3.542c0.21,-2.211 4.726,-1.585 4.726,-1.585Z" style="fill:#e0855c;fill-rule:nonzero;"/><path d="M60.996,27.499c-0.34,0.447 -0.76,0.789 -1.219,1.017c-0.381,0.194 -0.834,0.309 -1.302,0.35c-1.57,0.15 -3.361,-0.562 -3.691,-2.13c-0.343,-1.676 0.313,-3.928 2.062,-4.552c0.433,-0.155 0.901,-0.189 1.362,-0.19l0.441,-0c0.48,-0.001 0.975,0.018 1.409,0.224c0.274,0.126 0.502,0.326 0.709,0.546c1.165,1.26 1.262,3.37 0.229,4.735Z" style="fill:#3b2645;fill-rule:nonzero;"/><path d="M60.996,27.499c-0.34,0.447 -0.76,0.789 -1.219,1.017c-0.381,0.194 -0.834,0.309 -1.302,0.35l-1.906,-1.272c0,-0 2.364,-0.065 2.895,-1.769c0.432,-1.37 0.436,-2.946 -0.815,-3.831c0.48,-0.001 0.975,0.018 1.409,0.224c0.274,0.126 0.502,0.326 0.709,0.546c1.165,1.26 1.262,3.37 0.229,4.735Z" style="fill:#25182b;fill-rule:nonzero;"/><path d="M49.841,35.598c-0.013,-0.611 -0.062,-1.211 -0.135,-1.817c-0.061,-0.508 -0.244,-0.978 -0.304,-1.49c-0.121,-1.041 0.162,-2.134 0.809,-2.964c0.648,-0.828 1.669,-1.416 2.668,-1.715c0.811,-0.242 1.702,-0.341 2.563,-0.268c0.795,0.068 1.684,0.213 2.445,0.453c1.139,0.36 2.215,0.987 2.925,1.968c1.097,1.517 1.118,3.579 0.5,5.291c-0.146,0.401 -0.326,0.793 -0.567,1.147c-0.437,0.646 -1.325,0.959 -2.034,1.181c-1.08,0.339 -2.219,0.505 -3.348,0.565c-1.112,0.059 -2.256,0.02 -3.341,-0.248c-0.746,-0.185 -1.652,-0.511 -2.028,-1.242c-0.133,-0.259 -0.146,-0.508 -0.151,-0.793c-0.001,-0.022 -0.001,-0.045 -0.002,-0.068Z" style="fill:#3b2645;fill-rule:nonzero;"/><path d="M60.775,34.544c-0.361,-0.575 -0.884,-0.398 -1.31,-0.09c0.04,-1.095 -0.048,-2.028 -0.318,-2.72c-0.998,-2.547 -6.126,-3.423 -8.618,-0.243c-0.567,0.725 -0.79,2.119 -0.919,3.761c-0.392,4.973 1.928,6.913 3.558,6.99c1.542,0.071 4.677,-0.39 5.762,-4.043c1.203,-0.67 2.408,-2.755 1.845,-3.655Z" style="fill:#f5a784;fill-rule:nonzero;"/><path d="M51.896,35.678c0,-0 -0.438,0.141 -0.337,-0.618c0.091,-0.683 0.392,-0.577 0.392,-0.577c0,-0 0.3,0.012 0.227,0.61c-0.073,0.597 -0.282,0.585 -0.282,0.585Z" style="fill:#3b2645;fill-rule:nonzero;"/><path d="M55.968,35.968c0,-0 -0.438,0.14 -0.337,-0.619c0.091,-0.683 0.393,-0.577 0.393,-0.577c0,-0 0.298,0.013 0.226,0.61c-0.073,0.597 -0.282,0.586 -0.282,0.586Z" style="fill:#3b2645;fill-rule:nonzero;"/><path d="M54.053,37.428c-0.216,-0.043 -0.723,0.064 -0.815,-0.176c-0.076,-0.2 0.329,-1.341 0.388,-1.538c0.064,-0.215 0.128,-0.407 0.192,-0.596c-0.02,-0.014 -0.037,-0.031 -0.058,-0.043c-0.045,-0.028 -0.09,-0.046 -0.136,-0.059c-0.241,0.785 -0.424,1.609 -0.649,2.354c-0.02,0.066 0.026,0.138 0.096,0.141c0.321,0.009 0.628,0.091 0.948,0.108c0.106,0.005 0.145,-0.169 0.034,-0.191Z" style="fill:#e0855c;fill-rule:nonzero;"/><path d="M52.476,33.385c-0.302,-0.171 -0.876,-0.24 -1.115,0.071c-0.043,0.056 0.006,0.147 0.076,0.147c0.153,-0.001 0.292,-0.069 0.446,-0.075c0.167,-0.006 0.323,0.04 0.478,0.097c0.141,0.052 0.248,-0.164 0.115,-0.24Z" style="fill:#3b2645;fill-rule:nonzero;"/><path d="M56.703,34.059c-0.155,-0.446 -0.918,-0.523 -1.256,-0.267c-0.077,0.059 -0.035,0.178 0.044,0.207c0.188,0.068 0.393,0.006 0.589,0.033c0.173,0.024 0.308,0.106 0.466,0.17c0.081,0.033 0.188,-0.057 0.157,-0.143Z" style="fill:#3b2645;fill-rule:nonzero;"/><path d="M54.519,38.636c-0.309,0.135 -0.545,0.3 -0.902,0.298c-0.276,-0.002 -0.57,-0.148 -0.836,-0.066c-0.042,0.013 -0.075,0.062 -0.047,0.105c0.187,0.308 0.71,0.36 1.038,0.347c0.352,-0.013 0.773,-0.124 0.967,-0.442c0.092,-0.149 -0.067,-0.309 -0.22,-0.242Z" style="fill:#e0855c;fill-rule:nonzero;"/><path d="M59.374,34.536c-0.013,0.019 -0.024,0.039 -0.035,0.06c-0.04,0.075 -0.068,0.156 -0.119,0.224c-0.051,0.068 -0.133,0.121 -0.217,0.107c-0.098,-0.017 -0.246,-0.168 -0.309,-0.242c-0.486,-0.567 -0.526,-1.358 -0.479,-2.064c0.133,-1.998 -1.346,-1.851 -2.357,-2.311c-1.012,-0.46 -0.917,-0.87 -0.917,-0.87c0,-0 -0.662,0.546 -1.628,0.564c-0.967,0.018 -1.553,0.417 -1.584,1.243c-0.032,0.826 -1.483,0.48 -1.665,1.19c-0.184,0.71 0.058,-1.265 0.058,-1.265l2.321,-2.525l3.198,-0.265l2.864,1.223l1.809,1.551c0.174,0.835 0.818,2.35 -0.189,2.898c-0.161,0.088 -0.344,0.132 -0.498,0.23c-0.101,0.064 -0.188,0.151 -0.253,0.252Z" style="fill:#3b2645;fill-rule:nonzero;"/><path d="M64.048,48.567c-0.141,0.995 -0.433,1.991 -0.66,2.926c-0.24,1.022 -0.421,2.03 -0.562,3.052c-0.2,1.442 -0.322,2.892 -0.435,4.354c-0.014,0.167 -0.027,0.328 -0.04,0.495c-0.006,0.086 -0.013,0.406 -0.013,0.853c-0.019,1.583 0.013,4.81 0.239,5.725c-0.28,0.2 -0.553,0.358 -0.854,0.478c-1.448,0.614 -3.351,0.64 -4.747,0.77c-1.549,0.144 -3.073,0.187 -4.588,0.101c-0.541,-0.034 -1.082,-0.076 -1.623,-0.135c-0.18,-0.081 -0.356,-0.164 -0.528,-0.248c-0.937,-0.455 -1.61,-0.965 -1.851,-1.153c-0.06,-0.047 -0.092,-0.068 -0.092,-0.068c-0.146,-0.1 -0.293,-3.147 -0.453,-4.155c-0.314,-2.017 -0.082,-4.1 -1.218,-5.936c-0.26,-0.407 -0.578,-0.787 -0.779,-1.228c-0.574,-1.229 -0.221,-2.678 0.214,-3.961c0.461,-1.342 0.467,-2.611 0.767,-3.947c0.26,-1.142 1.562,-1.248 2.663,-1.422c1.911,1.182 4.229,1.336 6.399,1.028c1.089,-0.153 2.157,-0.427 3.206,-0.774c0.353,-0.114 0.693,-0.267 1.02,-0.434c0.02,-0 0.046,0.007 0.067,0.007c0.026,-0 0.06,-0 0.087,0.006c0.106,0.007 0.214,0.015 0.32,0.027c0.601,0.06 1.322,0.081 1.957,0.235c0.755,0.187 1.384,0.559 1.518,1.374c0.113,0.668 0.087,1.349 -0.014,2.03Z" style="fill:#ff4590;fill-rule:nonzero;"/><path d="M36.492,47.358c0.005,-0.02 0.005,-0.04 0.01,-0.061c0.001,0.02 0.009,0.04 0.01,0.06l-0.02,0.001Zm3.597,-4.351c-0.597,-1.09 -2.095,-1.852 -3.327,-1.617c-0.079,0.017 -0.159,0.034 -0.232,0.057c-0.797,0.243 -1.253,1.118 -1.303,1.949c-0.043,0.838 0.226,1.648 0.436,2.455c0.643,2.438 -0.751,4.311 -1.787,6.423c-0.589,1.189 -1.184,2.386 -1.773,3.581c-0.846,1.723 -2.25,3.824 -2.425,5.756c-0.031,0.35 -0.023,0.703 0.02,1.056c0.091,0.691 0.334,1.369 0.735,1.946c0.25,0.364 0.579,0.697 1.006,0.824c0.481,0.146 1.016,0.009 1.438,-0.271c1.507,-0.989 1.974,-2.668 2.612,-4.254c1.109,-2.736 2.013,-5.55 2.871,-8.376c0.829,-2.711 1.673,-5.522 1.99,-8.33c0.048,-0.417 -0.051,-0.827 -0.261,-1.199Z" style="fill:#f5a784;fill-rule:nonzero;"/><path d="M27.745,118.608l-0.007,0.067c-0.006,0.073 -0.032,0.147 -0.053,0.214c-0.139,0.436 -0.514,0.767 -0.928,0.975c-0.134,0.053 -0.279,0.111 -0.421,0.16c-0.391,0.137 -0.808,0.173 -1.228,0.22c-2.177,0.281 -4.181,0.969 -6.418,0.976c-1.336,-0 -4.08,-0.087 -4.201,-1.944c0,-0 0,-0.033 0.007,-0.093l0,-0.061c0.013,-0.193 0.08,-0.52 0.293,-0.888c0.355,-0.601 1.156,-1.255 2.899,-1.355c0.207,-0.014 0.408,-0.027 0.588,-0.061c0.147,-0.026 0.293,-0.059 0.42,-0.099c0.081,-0.021 0.154,-0.04 0.227,-0.061c0.061,-0.019 0.114,-0.04 0.174,-0.06c0.02,-0.006 0.04,-0.02 0.06,-0.027c0.04,-0.019 0.087,-0.04 0.12,-0.059c0.054,-0.028 0.107,-0.047 0.161,-0.08c0.18,-0.087 0.34,-0.202 0.487,-0.308c0.02,-0.007 0.047,-0.02 0.061,-0.04c0.08,-0.066 0.153,-0.127 0.219,-0.188c0.08,-0.08 0.148,-0.16 0.214,-0.247c0.033,-0.012 0.054,-0.04 0.073,-0.066c0.014,-0.007 0.035,-0.026 0.041,-0.04c0.013,-0.014 0.027,-0.026 0.039,-0.04c0.134,-0.167 0.254,-0.32 0.374,-0.481c0.415,-0.568 0.722,-1.029 1.303,-1.035c0.221,-0 0.447,0.027 0.675,0.067c1.215,0.214 2.464,0.962 2.203,2.096c0,-0 1.656,0.235 2.037,-0.687c0.16,-0.374 0.301,-0.28 0.395,-0.087c0.052,0.12 0.087,0.28 0.106,0.407c0.08,0.595 -0.113,1.196 -0.019,1.817c0.006,0.08 0.026,0.16 0.033,0.24c0.053,0.261 0.093,0.514 0.066,0.768Z" style="fill:#826b80;fill-rule:nonzero;"/><path d="M52.054,119.029c0,0.074 -0.014,0.147 -0.027,0.22c-0.086,0.448 -0.401,0.828 -0.788,1.089c-0.127,0.073 -0.26,0.146 -0.394,0.221c-0.374,0.172 -0.781,0.273 -1.182,0.38c-2.124,0.568 -4.02,1.523 -6.237,1.823c-1.322,0.18 -4.054,0.467 -4.421,-1.356c0,-0 0,-0.033 -0.007,-0.094l-0.007,-0.059c-0.013,-0.193 0.007,-0.527 0.174,-0.922c0.267,-0.641 0.975,-1.395 2.685,-1.729c0.207,-0.04 0.4,-0.087 0.581,-0.141c0.033,-0.013 0.059,-0.02 0.094,-0.033c0.106,-0.033 0.206,-0.075 0.306,-0.12c0.126,-0.056 0.24,-0.109 0.355,-0.167c0.039,-0.021 0.059,-0.034 0.08,-0.04c0.04,-0.027 0.08,-0.054 0.113,-0.081c0.16,-0.093 0.308,-0.207 0.44,-0.333c0.054,-0.041 0.101,-0.087 0.148,-0.134c0.019,-0.013 0.04,-0.027 0.053,-0.053c0.074,-0.074 0.14,-0.147 0.201,-0.221c0.059,-0.087 0.12,-0.167 0.173,-0.26c0.027,-0.027 0.047,-0.053 0.06,-0.081c0.014,-0.006 0.033,-0.033 0.04,-0.046c0.127,-0.201 0.238,-0.379 0.341,-0.568c0.338,-0.615 0.567,-1.122 1.149,-1.202c0.213,-0.026 0.44,-0.033 0.68,-0.026c1.23,0.047 2.565,0.621 2.465,1.783c0.047,-0 1.676,-0.007 1.923,-0.955c0.107,-0.395 0.261,-0.32 0.381,-0.141c0.067,0.108 0.12,0.268 0.153,0.388c0.167,0.581 0.065,1.199 0.228,1.803c0.021,0.08 0.047,0.16 0.066,0.233c0.087,0.248 0.16,0.495 0.167,0.755l0.007,0.067Z" style="fill:#826b80;fill-rule:nonzero;"/><path d="M55.467,72.589c0.093,6.698 -3.707,9.115 -8.729,10.338c-1.562,0.386 -3.239,0.654 -4.955,0.901c-0.982,0.141 -1.937,0.334 -2.852,0.567c-5.843,1.483 -10.21,4.475 -10.21,4.475c0,-0 1.215,5.616 -0.081,11.246c-0.674,2.919 -1.088,5.604 -1.335,7.934c-1.69,-0.127 -4.121,-0.414 -6.178,-1.022c-0.654,-6.724 -1.089,-15.199 0.101,-20.228c2.197,-9.303 25.711,-19.514 25.711,-19.514c0,-0 8.401,-3.485 8.528,5.303Z" style="fill:#ff4590;fill-rule:nonzero;"/><path d="M46.738,82.927c-1.562,0.386 -3.239,0.654 -4.955,0.901c-0.982,0.141 -1.937,0.334 -2.852,0.567c1.67,-2.744 8.255,-13.269 12.442,-15.88c3.139,-1.956 -1.209,7.526 -4.635,14.412Z" style="fill:#de3c7c;fill-rule:nonzero;"/><path d="M58.265,83.02c-5.884,4.709 -8.682,9.037 -8.682,9.037c1.316,2.978 1.149,10.183 0.715,14.671c-0.054,0.561 -0.08,1.148 -0.08,1.75c-1.964,0.113 -3.968,-0.228 -5.924,-0.662c-1.075,-6.31 -2.305,-13.682 -2.698,-16.582c-1.069,-7.886 9.944,-25.237 9.944,-25.237c0,-0 7.02,-10.726 10.433,-1.717c3.419,9.002 2.169,14.026 -3.708,18.74Z" style="fill:#ff4590;fill-rule:nonzero;"/><path d="M64.048,48.567c-0.141,0.995 -0.433,1.991 -0.66,2.926c-0.24,1.022 -0.421,2.03 -0.562,3.052c-0.2,1.442 -0.322,2.892 -0.435,4.354c-0.014,0.167 -0.027,0.328 -0.04,0.495c-0.006,0.086 -0.013,0.406 -0.013,0.853c-5.355,4.709 -9.228,6.117 -9.228,6.117c0,-0 7.526,-17.429 10.59,-17.79c0.121,-0.013 0.242,-0.013 0.348,-0.007Z" style="fill:#de3c7c;fill-rule:nonzero;"/><path d="M44.602,48.635c0.006,-0.023 0.009,-0.04 0.014,-0.063c0.001,0.019 0.003,0.04 0.006,0.064l-0.02,-0.001Zm15.628,9.739c1.528,-2.253 2.886,-4.629 3.93,-7.111c0.427,-1.014 0.802,-2.087 0.735,-3.183c-0.083,-1.349 -1.068,-2.856 -2.58,-2.75c-1.171,0.083 -2.616,1.302 -3.345,2.156c-0.727,0.85 -1.267,1.84 -1.817,2.813c-1.836,3.251 -3.848,6.412 -6.182,9.325c-0.418,0.522 -0.861,1.05 -1.449,1.37c-0.584,-1.051 -0.898,-2.362 -1.326,-3.49c-0.473,-1.245 -0.954,-2.488 -1.427,-3.734c-0.836,-2.196 -2.049,-4.193 -1.181,-6.561c0.286,-0.782 0.631,-1.564 0.662,-2.397c0.031,-0.833 -0.343,-1.748 -1.112,-2.066c-1.62,-0.669 -4.099,0.647 -4.064,2.389c0.057,2.828 0.632,5.707 1.203,8.483c0.594,2.891 1.23,5.778 2.077,8.608c0.571,1.909 1.006,4.294 2.891,5.371c2.068,1.179 5.354,-0.699 6.972,-2.052c2.374,-1.985 4.3,-4.647 6.013,-7.171Z" style="fill:#f5a784;fill-rule:nonzero;"/><path d="M21.275,118.014c-0.562,-0.307 -1.042,-0.735 -1.623,-1.029c-0.235,-0.12 -0.482,-0.233 -0.729,-0.327c0.061,-0.019 0.114,-0.04 0.174,-0.06c0.02,-0.006 0.04,-0.02 0.06,-0.027c0.04,-0.019 0.087,-0.04 0.12,-0.059c0.054,-0.028 0.107,-0.047 0.161,-0.08c0.781,0.306 1.543,0.767 2.03,1.335c0.12,0.133 -0.026,0.34 -0.193,0.247Z" style="fill:#3b2645;fill-rule:nonzero;"/><path d="M22.529,117.119c-0.56,-0.301 -1.061,-0.687 -1.635,-0.955c-0.221,-0.106 -0.454,-0.193 -0.689,-0.268c0.08,-0.08 0.148,-0.16 0.214,-0.247c0.033,-0.012 0.054,-0.04 0.073,-0.066c0.014,-0.007 0.035,-0.026 0.041,-0.04c0.013,-0.014 0.027,-0.026 0.039,-0.04c0.842,0.273 1.67,0.774 2.164,1.343c0.134,0.146 -0.033,0.367 -0.207,0.273Z" style="fill:#3b2645;fill-rule:nonzero;"/><path d="M45.276,119.944c-0.541,-0.267 -0.982,-0.695 -1.516,-0.989c-0.401,-0.22 -0.816,-0.38 -1.235,-0.527c0.106,-0.033 0.206,-0.075 0.306,-0.12c0.126,-0.056 0.24,-0.107 0.355,-0.167c0.941,0.28 1.896,0.821 2.343,1.556c0.101,0.167 -0.093,0.327 -0.253,0.247Z" style="fill:#3b2645;fill-rule:nonzero;"/><path d="M46.257,118.882c-0.574,-0.207 -1.102,-0.574 -1.656,-0.841c-0.26,-0.12 -0.521,-0.241 -0.782,-0.354c0.054,-0.041 0.101,-0.087 0.148,-0.134c0.019,-0.013 0.04,-0.027 0.053,-0.053c0.074,-0.074 0.14,-0.147 0.201,-0.221c0.848,0.268 1.696,0.675 2.264,1.222c0.153,0.154 -0.007,0.454 -0.228,0.381Z" style="fill:#3b2645;fill-rule:nonzero;"/><path d="M62.901,92.173c-0.046,-2.056 -0.067,-4.146 -0.453,-6.172c-0.016,-0.088 -0.143,-0.061 -0.148,0.02c-0.139,2.152 0.042,4.324 0.076,6.476c0.034,2.157 -0.08,4.326 0.007,6.481c0.012,0.292 0.422,0.285 0.448,-0c0.209,-2.249 0.119,-4.55 0.07,-6.805Z" style="fill:#e8cee5;fill-rule:nonzero;"/><path d="M69.133,82.609c0.003,-3.106 0.004,-6.214 0.002,-9.32c-0.003,-6.2 0.198,-12.45 -0.149,-18.643c-0.015,-0.285 -0.427,-0.285 -0.443,-0c-0.347,6.193 -0.145,12.443 -0.149,18.643c-0.001,3.106 -0.001,6.214 0.002,9.32c0.003,3.089 -0.168,6.243 0.069,9.323c0.029,0.384 0.57,0.385 0.6,-0c0.237,-3.081 0.066,-6.233 0.068,-9.323Z" style="fill:#e8cee5;fill-rule:nonzero;"/><path d="M24.565,49.419c-0.004,-0.107 -0.164,-0.108 -0.167,-0c-0.195,8.098 -0.12,16.238 0.344,24.327c0.022,0.38 0.604,0.386 0.595,-0c-0.183,-8.108 -0.48,-16.222 -0.772,-24.327Z" style="fill:#e8cee5;fill-rule:nonzero;"/><path d="M79.769,113.065c0,4.428 -3.586,8.014 -8.014,8.014c-0.481,-0 -0.948,-0.04 -1.409,-0.127c-0.301,-0.047 -0.595,-0.12 -0.889,-0.207c-0.687,-0.207 -1.342,-0.501 -1.943,-0.875c-0.24,-0.153 -0.474,-0.313 -0.695,-0.487c-0.614,-0.481 -1.155,-1.048 -1.602,-1.689c-0.22,-0.307 -0.414,-0.629 -0.588,-0.969c-0.06,-0.114 -0.12,-0.234 -0.174,-0.354c-0.16,-0.348 -0.294,-0.701 -0.393,-1.075c-0.061,-0.181 -0.104,-0.361 -0.141,-0.548c-0.108,-0.543 -0.18,-1.107 -0.18,-1.682c0,-4.421 3.586,-8.013 8.014,-8.013c0.722,-0 1.416,0.092 2.084,0.273c0.273,0.073 0.541,0.16 0.801,0.268c0.614,0.233 1.18,0.557 1.722,0.926c0.132,0.09 0.27,0.186 0.395,0.289c0.048,0.039 0.093,0.072 0.133,0.113c0.047,0.033 0.087,0.066 0.134,0.106c0.207,0.187 0.414,0.381 0.601,0.588c0.1,0.107 0.194,0.207 0.28,0.321c0.121,0.14 0.234,0.287 0.334,0.434c0.962,1.321 1.53,2.944 1.53,4.694Z" style="fill:#826b80;fill-rule:nonzero;"/><path d="M78.234,111.437c0,4.428 -3.586,8.014 -8.014,8.014c-0.482,-0 -0.948,-0.04 -1.409,-0.127c-0.301,-0.047 -0.595,-0.12 -0.889,-0.207c-0.687,-0.207 -1.342,-0.5 -1.943,-0.874c-0.241,-0.154 -0.474,-0.314 -0.695,-0.488c-0.019,-0.02 -0.047,-0.034 -0.067,-0.061c-0.935,-1.308 -1.476,-2.905 -1.476,-4.628c0,-4.421 3.586,-8.013 8.014,-8.013c0.722,-0 1.416,0.092 2.084,0.273c0.273,0.073 0.541,0.16 0.801,0.268c0.768,0.293 1.482,0.707 2.117,1.215c0.928,1.308 1.477,2.906 1.477,4.628Z" style="fill:#ab8da8;fill-rule:nonzero;"/><path d="M76.89,106.922c-2.191,1.108 -4.374,2.189 -6.457,3.539c-2.258,1.463 -4.295,3.152 -6.371,4.835c-0.061,-0.181 -0.108,-0.36 -0.141,-0.548c1.85,-1.696 3.967,-3.179 6.037,-4.541c2.024,-1.329 4.167,-2.658 6.404,-3.687c0.134,0.087 0.27,0.186 0.395,0.289c0.048,0.039 0.093,0.072 0.133,0.113Z" style="fill:#fff;fill-rule:nonzero;"/><path d="M78.239,108.371c-1.796,0.895 -3.573,1.822 -5.309,2.838c-2.878,1.689 -5.576,3.6 -8.301,5.516c-0.06,-0.114 -0.12,-0.234 -0.174,-0.354c4.04,-3.246 8.675,-6.178 13.45,-8.434c0.121,0.14 0.234,0.287 0.334,0.434Z" style="fill:#fff;fill-rule:nonzero;"/></g></svg>