<?xml version="1.0" encoding="UTF-8" standalone="no"?><!DOCTYPE svg PUBLIC "-//W3C//DTD SVG 1.1//EN" "http://www.w3.org/Graphics/SVG/1.1/DTD/svg11.dtd"><svg width="100%" height="100%" viewBox="0 0 100 126" version="1.1" xmlns="http://www.w3.org/2000/svg" xmlns:xlink="http://www.w3.org/1999/xlink" xml:space="preserve" xmlns:serif="http://www.serif.com/" style="fill-rule:evenodd;clip-rule:evenodd;stroke-linejoin:round;stroke-miterlimit:2;"><g><path d="M90.845,123.881c-1.095,-0.12 -2.191,-0.207 -3.299,-0.261l-62.943,-0.047c-0.067,0.007 -0.133,0.009 -0.2,0.014c-0.086,0.007 -0.172,0.013 -0.257,0.022c-1.174,0 -21.258,-0.036 -21.258,-0.036c-0.066,0.007 -0.133,0.009 -0.2,0.014c-0.107,0.009 -0.214,0.014 -0.321,0.026c-0.374,0.028 -0.748,0.061 -1.115,0.101c-1.229,0.127 -1.229,1.776 0,1.903c0.374,0.04 1.563,0.141 1.623,0.147c0,0 14.306,-0.029 21.245,-0.036c0.094,0.007 0.41,0.03 0.47,0.036l62.962,-0.053c1.109,-0.054 2.204,-0.141 3.293,-0.261c1.001,-0.113 1.008,-1.456 0,-1.569Z" style="fill:#c6c6c6;fill-rule:nonzero;"/><path d="M79.859,96.592c-0.964,2.08 -1.282,4.398 -2.075,6.549c-1.571,4.261 -4.966,7.674 -8.874,9.99c-3.907,2.315 -8.32,3.633 -12.742,4.673c-5.982,1.408 -12.19,2.353 -18.265,1.432c-6.076,-0.922 -12.054,-3.925 -15.449,-9.047c-0.943,-1.423 -1.673,-2.98 -2.653,-4.376c-2.196,-3.129 -5.323,-4.737 -8.291,-6.959c-2.551,-1.91 -4.563,-4.999 -6.175,-7.752c-3.49,-5.959 -5.389,-12.859 -5.334,-19.771c0.024,-3.138 0.453,-6.331 1.81,-9.161c1.44,-3.003 3.835,-5.427 6.228,-7.744c3.49,-3.378 7.152,-6.771 9.252,-11.149c2.134,-4.451 2.463,-9.519 3.683,-14.301c2.685,-10.517 9.994,-19.765 19.607,-24.808c8.436,-4.426 18.727,-5.568 27.66,-2.256c8.933,3.314 16.192,11.298 17.817,20.686c1.679,9.696 -2.35,20.283 1.791,29.21c1.65,3.557 4.366,7.018 6.941,9.962c2.656,3.035 4.03,6.668 4.486,10.726c0.112,0.996 0.161,2.006 0.02,2.998c-1.511,10.625 -15.333,12.246 -19.437,21.098Z" style="fill:#f6f6f6;fill-rule:nonzero;"/><path d="M69.424,25.247c-0.267,0.421 -0.641,0.736 -1.075,0.969c-0.394,0.227 -0.835,0.388 -1.276,0.514c-1.162,0.328 -2.511,0.414 -3.479,-0.307c-0.554,-0.414 -0.948,-1.075 -1.603,-1.31c-1.035,-0.367 -2.083,0.501 -3.179,0.642c-0.747,0.101 -1.515,-0.167 -2.136,-0.607c-0.615,-0.448 -1.089,-1.056 -1.497,-1.704c-0.447,-0.714 -0.848,-1.522 -1.576,-1.95c-0.647,-0.381 -1.435,-0.393 -2.19,-0.381c-0.935,0.028 -1.984,0.134 -2.578,0.862c-0.254,0.307 -0.474,0.835 -0.788,1.142c-0.227,0.227 -0.501,0.334 -0.874,0.187c-1.049,-0.414 -0.568,-1.549 -0.161,-2.217c0.955,-1.576 2.718,-2.671 4.575,-2.705c0.761,-0.02 1.516,0.127 2.277,0.147c0.801,0.02 1.603,-0.093 2.364,-0.34c0.842,-0.281 1.623,-0.708 2.471,-0.969c1.649,-0.507 3.626,-0.24 4.788,1.035c0.347,0.381 0.615,0.835 1.009,1.169c0.654,0.548 1.542,0.675 2.344,0.941c1.015,0.334 1.963,0.949 2.511,1.857c0.554,0.908 0.647,2.131 0.073,3.025Z" style="fill:#3b2645;fill-rule:nonzero;"/><path d="M68.349,26.216c-0.394,0.227 -0.835,0.388 -1.276,0.514c-1.162,0.328 -2.511,0.414 -3.479,-0.307c-0.554,-0.414 -0.948,-1.075 -1.603,-1.31c-1.035,-0.367 -2.083,0.501 -3.179,0.642c-0.747,0.101 -1.515,-0.167 -2.136,-0.607c-0.615,-0.448 -1.089,-1.056 -1.497,-1.704c-0.447,-0.714 -0.848,-1.522 -1.576,-1.95c-0.647,-0.381 -1.435,-0.393 -2.19,-0.381c-0.935,0.028 -1.984,0.134 -2.578,0.862c-0.254,0.307 -0.474,0.835 -0.788,1.142c-0.574,-2.585 2.732,-3.446 4.675,-3.352c1.302,0.066 2.604,0.594 3.479,1.562c0.528,0.595 0.915,1.356 1.623,1.71c0.655,0.327 1.429,0.24 2.15,0.147c1.169,-0.154 2.478,-0.254 3.4,0.481c0.741,0.594 1.082,1.643 1.943,2.05c0.928,0.435 2.124,-0.047 3.005,0.48l0.027,0.021Z" style="fill:#2c1c33;fill-rule:nonzero;"/><path d="M50.972,74.299c-0.841,0.888 -1.803,1.743 -2.845,2.544c-1.008,0.781 -2.083,1.51 -3.179,2.171c-4.293,2.591 -11.52,7.272 -13.81,8.935c-0.414,0.301 -0.554,0.855 -0.32,1.302c0.914,1.757 1.843,5.416 2.677,9.517c1.657,8.208 2.912,18.184 2.912,18.184c-1.168,1.684 -4.127,0.949 -4.127,0.949c0,0 -3.8,-8.996 -7.012,-17.284c-2.425,-6.284 -4.508,-12.167 -4.327,-13.403c0.433,-3.024 10.257,-12.487 17.283,-19.072c3.96,-3.72 7.032,-6.518 7.032,-6.732c0,0 1.022,-0.14 2.404,0.127c1.696,0.334 3.94,1.288 5.523,3.887c1.763,2.904 0.42,6.063 -2.211,8.875Z" style="fill:#f5a784;fill-rule:nonzero;"/><path d="M96.445,92.029c0.046,0.655 -0.127,1.323 -0.334,1.857c-0.254,0.675 -0.568,1.148 -0.568,1.148c0,0 -9.623,0.668 -18.712,0.863c-7.24,0.146 -14.138,0 -15.541,-1.03c-1.843,-1.348 -5.556,-9.442 -8.795,-16.996c-0.527,-1.215 -1.035,-2.417 -1.523,-3.572c-2.364,-5.604 -4.213,-10.157 -4.434,-10.218c0,0 0.241,-1.188 1.122,-2.544c0.915,-1.423 2.531,-3.018 5.296,-3.606c5.396,-1.143 10.351,6.404 10.625,12.508c0.047,1.155 0.187,2.498 0.374,3.92c0.627,4.775 1.836,10.431 2.337,12.689c0.113,0.514 0.608,0.861 1.129,0.781c2.043,-0.307 5.984,-0.067 10.298,0.387c8.428,0.895 18.298,2.604 18.298,2.604c0.274,0.374 0.394,0.789 0.428,1.209Z" style="fill:#f5a784;fill-rule:nonzero;"/><path d="M18.575,62.221c-0.022,-0.011 -0.036,-0.015 -0.059,-0.031c0.021,0.003 0.043,0.013 0.063,0.016l-0.004,0.015Zm24.309,-13.95c-0.609,-3.326 -1.435,-6.732 -2.189,-6.325c-1.447,0.779 -3.013,4.981 -4.151,11.024c-1.134,6.034 -3.256,7.904 -3.256,7.904c-3.059,0.237 -6.117,0.475 -9.175,0.712c-2.343,0.187 -4.602,0.787 -6.632,-0.71c-0.671,-0.497 -1.324,-1.045 -2.115,-1.307c-0.791,-0.263 -1.775,-0.165 -2.297,0.484c-1.092,1.365 -0.531,4.117 1.155,4.572c2.729,0.739 5.655,0.995 8.475,1.228c4.066,0.336 8.195,0.595 12.272,0.301c1.484,-0.06 3.637,-2.915 5.451,-5.818c1.884,-3.016 3.396,-6.081 3.396,-6.081c0,0 -0.378,-2.962 -0.934,-5.984Z" style="fill:#f5a784;fill-rule:nonzero;"/><path d="M43.818,54.255c0,0 -1.512,3.065 -3.396,6.081c0.319,-5.787 -0.635,-9.855 -0.635,-9.855c-0.35,-2.258 1.966,-2.313 3.097,-2.21c0.556,3.022 0.934,5.984 0.934,5.984Z" style="fill:#e0855c;fill-rule:nonzero;"/><path d="M58.559,60.248c-4.762,1.99 -8.709,2.652 -11.654,2.758c-1.536,-0.414 -1.783,-0.795 -1.783,-0.795c-0.16,-0.073 -0.661,-1.302 -0.708,-1.469c-0.28,-0.982 -0.941,-1.877 -1.249,-2.851c-0.621,-1.944 -0.701,-4.041 -2.103,-5.684c-0.321,-0.36 -0.688,-0.687 -0.955,-1.095c-0.715,-1.062 -0.641,-2.444 -0.428,-3.719c0.014,-0.074 0.027,-0.155 0.04,-0.228c0.248,-1.395 0.067,-2.651 0.161,-4.02c0.067,-0.982 0.975,-1.342 1.883,-1.636c0.174,-0.054 0.828,-0.268 0.962,-0.314c0.554,-0.173 1.121,-0.328 1.616,-0.448c0.734,-0.193 1.275,-0.313 1.275,-0.313l0.121,-4.735c-0.127,-2.217 4.835,-3.239 4.835,-3.239l0.293,7.219c0.007,0.054 0.281,0.027 0.782,-0.02c0.314,-0.033 0.715,-0.067 1.195,-0.107c0.027,-0.007 0.054,-0.013 0.087,-0.007c0.107,-0.013 0.207,-0.019 0.321,-0.026c0.2,-0.014 0.407,-0.027 0.627,-0.04c0.441,-0.04 0.902,-0.06 1.342,-0.02c0.775,0.073 1.45,0.34 1.71,1.128c0.521,1.583 0.214,3.393 0.08,5.002c-0.086,1.049 -0.106,2.07 -0.093,3.099c0.007,0.321 0.013,0.634 0.02,0.955c0.047,1.142 0.12,2.277 0.207,3.42c0.013,0.167 0.02,0.327 0.033,0.494c0.034,0.447 0.962,6.691 1.383,6.691Z" style="fill:#f5a784;fill-rule:nonzero;"/><path d="M70.508,67.749c-0.013,0.019 -0.023,0.034 -0.037,0.054c0.006,-0.02 0.012,-0.038 0.018,-0.063l0.019,0.009Zm-17.401,-21.204c15.485,4.512 17.443,6.429 17.443,6.429c-0.051,3.067 -0.105,6.135 -0.153,9.202c-0.037,2.351 0.351,4.654 -1.333,6.532c-0.668,0.745 -1.413,1.461 -1.67,2.463c-0.173,0.675 -0.032,1.423 0.482,1.894c1.277,1.171 4.008,0.854 4.614,-0.758c0.995,-2.649 1.525,-5.535 2.023,-8.325c0.717,-4.016 1.453,-8.098 1.453,-12.184c0.001,-5.885 -15.464,-10.834 -19.515,-12.028c-0.593,-0.176 -1.053,0.247 -1.615,0.506c-2.184,1.007 -3.262,5.822 -1.729,6.269Z" style="fill:#f5a784;fill-rule:nonzero;"/><path d="M63.955,74.359c-0.688,-0.04 -1.368,-0.022 -2.024,0.027c-0.347,0.025 -0.694,0.053 -1.028,0.106c-3.686,0.522 -6.725,2.238 -8.408,3.379c-0.527,-1.215 -1.035,-2.417 -1.523,-3.572c-0.841,0.888 -1.803,1.743 -2.845,2.544c-0.454,-0.701 -1.028,-1.415 -1.689,-2.123c-2.498,-2.672 -6.144,-5.223 -8.214,-6.578c3.96,-3.72 7.032,-6.518 7.032,-6.732c0,0 1.022,-0.14 2.404,0.127c0.915,-1.423 2.531,-3.018 5.296,-3.606c5.396,-1.143 10.351,6.404 10.625,12.508c0.047,1.155 0.187,2.498 0.374,3.92Z" style="fill:#ab8da8;fill-rule:nonzero;"/><path d="M37.309,119.544c0.006,0.554 -0.361,1.048 -0.815,1.362c-0.454,0.307 -0.995,0.46 -1.523,0.615c-2.104,0.621 -3.973,1.623 -6.184,1.99c-1.322,0.214 -4.04,0.567 -4.454,-1.242c0,0 -0.007,-0.034 -0.013,-0.094c-0.02,-0.174 -0.034,-0.548 0.14,-0.981c0.254,-0.656 0.935,-1.43 2.638,-1.804c0.367,-0.08 0.692,-0.192 0.975,-0.321c0.152,-0.069 0.295,-0.136 0.427,-0.22c0.041,-0.026 0.08,-0.053 0.114,-0.08c0.227,-0.147 0.414,-0.314 0.574,-0.481c0.02,-0.02 0.04,-0.033 0.053,-0.053c0.167,-0.187 0.308,-0.374 0.421,-0.575c0.014,-0.013 0.027,-0.033 0.034,-0.047c0.126,-0.207 0.227,-0.393 0.327,-0.581c0.314,-0.628 0.541,-1.134 1.115,-1.228c1.356,-0.214 3.279,0.294 3.192,1.67c0,0 1.67,-0.034 1.904,-1.009c0.153,-0.621 0.44,-0.094 0.541,0.24c0.173,0.574 0.08,1.202 0.267,1.797c0.026,0.08 0.053,0.153 0.08,0.234c0.087,0.247 0.173,0.487 0.18,0.741c0.007,0.02 0.007,0.047 0.007,0.067Z" style="fill:#ff4590;fill-rule:nonzero;"/><path d="M98.121,100.217c-0.1,0.394 -0.247,0.894 -0.454,1.389c-0.013,0.02 -0.02,0.046 -0.034,0.074c-0.18,0.433 -0.42,0.861 -0.714,1.181c-0.341,0.381 -0.762,0.622 -1.283,0.608c0,0 -0.033,0 -0.093,-0.006c-0.14,-0.02 -0.414,-0.087 -0.715,-0.261c-0.614,-0.354 -1.342,-1.188 -1.268,-3.138c0.013,-0.408 -0.02,-0.774 -0.074,-1.103c-0.022,-0.14 -0.053,-0.267 -0.093,-0.387c-0.04,-0.12 -0.08,-0.234 -0.127,-0.34c-0.087,-0.194 -0.187,-0.374 -0.287,-0.528c-0.127,-0.194 -0.247,-0.334 -0.367,-0.468c-0.034,-0.046 -0.074,-0.093 -0.114,-0.133c-0.167,-0.174 -0.324,-0.318 -0.481,-0.46c-0.517,-0.474 -0.962,-0.816 -0.908,-1.39c0.14,-1.362 1.122,-3.099 2.424,-2.671c0,0 0.394,-1.616 -0.494,-2.098c-0.675,-0.36 0.227,-0.407 0.507,-0.44c0.621,-0.066 2.084,-0.24 2.191,-0.254c0.18,-0.019 0.367,-0.04 0.547,-0.019c0.06,0.005 0.114,0.012 0.174,0.026c0.427,0.12 0.721,0.508 0.935,0.901c0.635,1.202 0.761,2.598 0.875,3.948c0.153,1.849 0.314,3.753 -0.147,5.569Z" style="fill:#ff4590;fill-rule:nonzero;"/><path d="M49.361,21.417c-0.319,-0.491 -0.908,-0.544 -1.455,-0.591c-0.561,-0.049 -1.119,0.016 -1.652,0.196c-0.733,0.247 -0.432,1.277 0.317,1.146c0.409,-0.071 0.834,-0.105 1.249,-0.059c0.418,0.045 0.794,0.264 1.21,0.121c0.321,-0.112 0.537,-0.495 0.331,-0.813Z" style="fill:#ff4590;fill-rule:nonzero;"/><path d="M50.665,34.811c-1.476,2.564 -3.533,3.406 -5.002,3.653l0.074,-2.765c-0.127,-2.217 4.835,-3.239 4.835,-3.239l0.093,2.351Z" style="fill:#e0855c;fill-rule:nonzero;"/><path d="M41.593,30.995c0,0 -2.139,-8.291 3.882,-8.874c8.277,-0.802 9.008,5.853 6.944,8.933c-1.892,2.823 -10.786,3.36 -10.826,-0.059Z" style="fill:#3b2645;fill-rule:nonzero;"/><path d="M52.635,29.439c-0.204,-1.379 -1.106,-0.804 -1.624,-0.342c-0.084,-1.324 -0.305,-2.424 -0.723,-3.175c-1.33,-2.391 -6.529,-2.572 -8.571,0.913c-0.466,0.794 -0.499,2.205 -0.408,3.851c0.277,4.98 2.836,6.591 4.462,6.449c1.481,-0.13 4.361,-0.946 5.095,-4.369c0.683,-0.572 1.985,-1.869 1.769,-3.327Z" style="fill:#f5a784;fill-rule:nonzero;"/><path d="M43.632,30.802c0,0 -0.416,0.197 -0.418,-0.568c-0.001,-0.689 0.312,-0.624 0.312,-0.624c0,0 0.298,-0.029 0.306,0.574c0.008,0.601 -0.2,0.618 -0.2,0.618Z" style="fill:#3b2645;fill-rule:nonzero;"/><path d="M47.706,30.543c0,0 -0.416,0.197 -0.418,-0.568c-0.001,-0.689 0.312,-0.623 0.312,-0.623c0,0 0.299,-0.03 0.306,0.573c0.008,0.602 -0.2,0.618 -0.2,0.618Z" style="fill:#3b2645;fill-rule:nonzero;"/><path d="M46.003,32.246c-0.22,-0.013 -0.707,0.161 -0.83,-0.065c-0.103,-0.188 0.145,-1.373 0.177,-1.575c0.035,-0.222 0.073,-0.421 0.11,-0.618c-0.02,-0.011 -0.04,-0.025 -0.062,-0.035c-0.048,-0.02 -0.096,-0.032 -0.143,-0.039c-0.133,0.811 -0.204,1.652 -0.328,2.419c-0.011,0.069 0.044,0.134 0.115,0.127c0.319,-0.033 0.634,0.007 0.952,-0.019c0.107,-0.009 0.122,-0.188 0.009,-0.195Z" style="fill:#e0855c;fill-rule:nonzero;"/><path d="M43.899,28.451c-0.322,-0.129 -0.9,-0.12 -1.096,0.22c-0.035,0.062 0.026,0.145 0.095,0.135c0.152,-0.021 0.28,-0.107 0.432,-0.133c0.165,-0.028 0.326,-0.005 0.488,0.031c0.146,0.032 0.222,-0.195 0.081,-0.253Z" style="fill:#3b2645;fill-rule:nonzero;"/><path d="M48.178,28.553c-0.213,-0.421 -0.979,-0.396 -1.28,-0.096c-0.069,0.069 -0.011,0.181 0.072,0.199c0.194,0.042 0.39,-0.047 0.588,-0.046c0.174,0.001 0.319,0.064 0.484,0.106c0.085,0.021 0.178,-0.081 0.136,-0.163Z" style="fill:#3b2645;fill-rule:nonzero;"/><path d="M46.627,33.382c-0.288,0.175 -0.501,0.369 -0.854,0.415c-0.275,0.035 -0.585,-0.07 -0.837,0.047c-0.04,0.018 -0.066,0.071 -0.034,0.11c0.228,0.281 0.753,0.262 1.076,0.205c0.347,-0.06 0.749,-0.226 0.9,-0.567c0.071,-0.161 -0.109,-0.297 -0.251,-0.21Z" style="fill:#e0855c;fill-rule:nonzero;"/><path d="M51.361,25.199c0.921,0.927 0.27,2.382 -0.169,3.392c-0.037,0.086 -0.107,0.189 -0.199,0.165c-0.081,-0.325 -0.098,-0.663 -0.187,-0.986c-0.089,-0.323 -0.269,-0.644 -0.57,-0.789c-0.406,-0.196 -0.915,-0.103 -1.344,-0.213c-1.045,-0.272 -1.07,-1.675 -2.008,-1.981c-1.018,-0.333 -2.258,0.601 -2.862,1.3c-0.692,0.801 -1.255,1.766 -2.18,2.281c-0.626,0.35 -1.358,0.454 -2.073,0.505c-0.678,0.049 -1.379,0.052 -2.011,-0.194c-0.54,-0.211 -1.608,-1.054 -0.996,-1.493c0.292,-0.21 1.046,-0.167 1.404,-0.244c0.43,-0.093 0.853,-0.211 1.245,-0.415c1.013,-0.529 1.267,-1.395 1.943,-2.208c0.632,-0.762 1.594,-1.369 2.534,-1.651c0.929,-0.278 2.069,-0.282 2.999,0.01c1.088,0.342 2.074,0.928 3.024,1.548c0.439,0.288 1.05,0.571 1.45,0.973Z" style="fill:#3b2645;fill-rule:nonzero;"/><path d="M98.121,100.217c-0.1,0.394 -0.247,0.894 -0.454,1.389c-0.013,0.02 -0.02,0.046 -0.034,0.074c-0.207,0.414 -0.447,0.807 -0.714,1.181c-0.341,0.381 -0.762,0.622 -1.283,0.608c0,0 -0.033,0 -0.093,-0.006c-0.14,-0.02 -0.414,-0.087 -0.715,-0.261c3.927,-3.265 2.685,-9.123 1.456,-13.429c0.06,0.005 0.114,0.012 0.174,0.026c0.427,0.12 0.721,0.508 0.935,0.901c0.635,1.202 0.761,2.598 0.875,3.948c0.153,1.849 0.314,3.753 -0.147,5.569Z" style="fill:#de3c7c;fill-rule:nonzero;"/><path d="M95.029,95.989c-0.555,0.308 -1.049,0.522 -1.496,0.996c-0.2,0.213 -0.401,0.447 -0.581,0.688c-0.1,-0.161 -0.22,-0.301 -0.34,-0.435c0.167,-0.213 0.347,-0.4 0.44,-0.513c0.454,-0.541 1.109,-1.162 1.85,-1.19c0.24,-0.007 0.334,0.341 0.127,0.454Z" style="fill:#de3c7c;fill-rule:nonzero;"/><path d="M95.496,97.179c-0.053,0.28 -0.267,0.347 -0.494,0.48c-0.294,0.167 -0.568,0.348 -0.828,0.561c-0.24,0.207 -0.461,0.488 -0.688,0.741c-0.02,-0.14 -0.053,-0.267 -0.093,-0.387c-0.04,-0.12 -0.08,-0.234 -0.127,-0.34c0.174,-0.194 0.36,-0.368 0.527,-0.508c0.354,-0.307 1.134,-1.05 1.616,-0.754c0.075,0.045 0.1,0.127 0.087,0.207Z" style="fill:#de3c7c;fill-rule:nonzero;"/><path d="M37.309,119.544c0.006,0.554 -0.361,1.048 -0.815,1.362c-0.454,0.307 -0.995,0.46 -1.523,0.615c-2.104,0.621 -3.973,1.623 -6.184,1.99c-1.322,0.214 -4.04,0.567 -4.454,-1.242c0,0 -0.007,-0.034 -0.013,-0.094c-0.02,-0.174 -0.034,-0.548 0.14,-0.981c0.013,0.019 0.033,0.046 0.04,0.073c1.022,3.225 6.812,1.054 8.868,0.254c1.383,-0.548 2.645,-1.329 3.934,-2.044c0.007,0.02 0.007,0.047 0.007,0.067Z" style="fill:#de3c7c;fill-rule:nonzero;"/><path d="M30.644,120.345c-0.601,-0.14 -1.149,-0.561 -1.703,-0.835c-0.294,-0.147 -0.588,-0.28 -0.868,-0.441c0.153,-0.066 0.295,-0.136 0.427,-0.22c0.041,-0.026 0.08,-0.053 0.114,-0.08c0.166,0.067 0.327,0.14 0.494,0.214c0.581,0.267 1.309,0.521 1.756,0.981c0.167,0.167 0,0.435 -0.22,0.381Z" style="fill:#de3c7c;fill-rule:nonzero;"/><path d="M31.792,119.49c-0.654,-0.033 -1.228,-0.527 -1.796,-0.821c-0.24,-0.127 -0.534,-0.24 -0.808,-0.381c0.02,-0.02 0.04,-0.033 0.053,-0.053c0.167,-0.187 0.308,-0.374 0.421,-0.575c0.214,0.094 0.421,0.207 0.608,0.294c0.601,0.281 1.402,0.541 1.756,1.129c0.1,0.167 -0.026,0.414 -0.234,0.407Z" style="fill:#de3c7c;fill-rule:nonzero;"/><path d="M50.972,74.299c-0.841,0.888 -1.803,1.743 -2.845,2.544c-0.454,-0.701 -1.028,-1.415 -1.689,-2.123l4.534,-0.421Z" style="fill:#826b80;fill-rule:nonzero;"/><path d="M61.931,74.386c-0.347,0.019 -0.694,0.053 -1.028,0.106c-0.675,-5.162 -1.496,-9.95 -4.849,-14.358c-0.14,-0.187 0.147,-0.347 0.294,-0.227c3.873,3.073 5.243,9.249 5.583,14.479Z" style="fill:#826b80;fill-rule:nonzero;"/><path d="M74.21,65.954c-0.795,-0.576 -2.073,-0.697 -3.02,-0.844c-0.465,-0.073 -1.014,-0.127 -1.431,0.145c-0.318,0.208 -0.578,0.701 -0.351,1.069c0.368,0.593 1.144,0.601 1.76,0.771c0.621,0.173 1.486,0.254 1.999,0.643c1.051,0.797 2.118,-1.004 1.043,-1.784Z" style="fill:#826b80;fill-rule:nonzero;"/><path d="M20.248,61.31c-0.259,-0.756 -1.469,-0.886 -1.667,0c-0.15,0.67 -0.134,1.355 -0.218,2.035c-0.086,0.684 -0.353,1.397 -0.263,2.084c0.124,0.948 1.322,1.449 1.896,0.513c0.411,-0.671 0.435,-1.524 0.464,-2.297c0.029,-0.772 0.041,-1.598 -0.212,-2.335Z" style="fill:#826b80;fill-rule:nonzero;"/><path d="M58.799,59.941c-6.411,3.639 -14.191,2.19 -14.191,2.19c-0.161,-0.073 -0.501,-1.148 -0.548,-1.315c-0.28,-0.982 -0.587,-1.951 -0.895,-2.925c-0.621,-1.944 -0.701,-4.041 -2.103,-5.684c-0.321,-0.36 -0.688,-0.687 -0.955,-1.095c-0.715,-1.062 -0.641,-2.444 -0.428,-3.719l2.084,-5.884c0.174,-0.054 0.828,-0.268 0.962,-0.314c0.554,-0.173 1.121,-0.328 1.616,-0.448c-0.448,2.058 -0.962,6.505 1.823,6.639c3.179,0.146 4.962,-4.588 5.483,-7.727c0.314,-0.033 0.715,-0.067 1.195,-0.107c0.027,-0.007 0.054,-0.013 0.087,-0.007c0.107,-0.013 0.207,-0.019 0.321,-0.026c0.2,-0.014 0.407,-0.027 0.627,-0.04c-0.113,1.155 -0.238,3.271 0.107,5.309c0.35,2.07 1.169,4.04 2.952,4.855c0.047,1.142 0.12,2.277 0.207,3.42c0.013,0.167 0.02,0.327 0.033,0.494c0.007,0.08 0.047,0.334 0.121,0.701c0.307,1.676 1.155,5.683 1.502,5.683Z" style="fill:#ff4590;fill-rule:nonzero;"/><path d="M57.297,54.258c-3.74,-2.672 -3.313,-9.13 -3.313,-9.457c0.347,2.058 1.169,4.027 2.952,4.842c0.047,1.142 0.12,2.277 0.207,3.42c0.013,0.167 0.02,0.327 0.033,0.494c0.007,0.08 0.047,0.334 0.121,0.701Z" style="fill:#de3c7c;fill-rule:nonzero;"/><path d="M31.006,44.496c-6.718,-0.382 -13.565,-0.106 -20.291,0.013c-0.185,0.004 -0.185,0.284 0,0.287c6.726,0.119 13.573,0.395 20.291,0.013c0.201,-0.011 0.201,-0.301 0,-0.313Z" style="fill:#e8cee5;fill-rule:nonzero;"/><path d="M29.983,47.032c-2.739,-0.27 -5.611,-0.048 -8.355,0.097c-0.104,0.006 -0.104,0.156 0,0.162c2.743,0.146 5.617,0.367 8.355,0.097c0.227,-0.023 0.228,-0.333 0,-0.356Z" style="fill:#e8cee5;fill-rule:nonzero;"/><path d="M94.094,79.204c-3.588,-0.243 -7.233,-0.086 -10.828,-0.072c-3.608,0.014 -7.223,-0.027 -10.827,0.189c-0.147,0.009 -0.148,0.221 0,0.23c3.604,0.217 7.219,0.176 10.827,0.189c3.596,0.013 7.24,0.17 10.828,-0.072c0.298,-0.019 0.299,-0.444 0,-0.464Z" style="fill:#e8cee5;fill-rule:nonzero;"/><path d="M66.69,101.426c-4.021,-0.232 -8.093,-0.061 -12.12,-0.042c-3.831,0.018 -7.687,-0.076 -11.51,0.179c-0.126,0.007 -0.107,0.208 0.013,0.216c3.914,0.264 7.864,0.164 11.784,0.183c3.921,0.021 7.883,0.186 11.798,-0.037c0.312,-0.018 0.367,-0.481 0.035,-0.499Z" style="fill:#e8cee5;fill-rule:nonzero;"/><path d="M86.762,13.624c-5.643,-0.261 -11.318,-0.113 -16.966,-0.109c-5.628,0.003 -11.35,-0.282 -16.966,0.114c-0.207,0.015 -0.208,0.309 0,0.323c5.616,0.397 11.338,0.112 16.966,0.116c5.648,0.002 11.323,0.15 16.966,-0.11c0.215,-0.011 0.215,-0.324 0,-0.334Z" style="fill:#e8cee5;fill-rule:nonzero;"/><path d="M78.963,16.563c-2.676,-0.472 -5.481,-0.209 -8.131,0.325c-0.193,0.039 -0.152,0.375 0.048,0.348c2.694,-0.348 5.328,-0.295 8.034,-0.31c0.201,-0.001 0.261,-0.326 0.049,-0.363Z" style="fill:#e8cee5;fill-rule:nonzero;"/></g></svg>