<?xml version="1.0" encoding="UTF-8" standalone="no"?><!DOCTYPE svg PUBLIC "-//W3C//DTD SVG 1.1//EN" "http://www.w3.org/Graphics/SVG/1.1/DTD/svg11.dtd"><svg width="100%" height="100%" viewBox="0 0 97 125" version="1.1" xmlns="http://www.w3.org/2000/svg" xmlns:xlink="http://www.w3.org/1999/xlink" xml:space="preserve" xmlns:serif="http://www.serif.com/" style="fill-rule:evenodd;clip-rule:evenodd;stroke-linejoin:round;stroke-miterlimit:2;"><g><path d="M95.739,123.866c-1.089,0.12 -2.184,0.207 -3.292,0.261c-0.314,0.013 -89.902,0.053 -89.902,0.053c-0.06,-0.006 -0.127,-0.006 -0.187,-0.013c-0.481,-0.04 -0.955,-0.08 -1.436,-0.134c-1.229,-0.127 -1.229,-1.776 -0,-1.903c0.474,-0.054 0.955,-0.094 1.436,-0.127c0.067,-0.007 0.133,-0.007 0.2,-0.014c-0,0 89.575,0.035 89.882,0.047c1.109,0.054 2.204,0.141 3.299,0.261c1.008,0.113 1.002,1.456 -0,1.569Z" style="fill:#c6c6c6;fill-rule:nonzero;"/><path d="M18.186,25.978c-2.876,2.412 -4.983,5.614 -6.741,8.93c-1.907,3.597 -3.485,7.636 -2.832,11.655c0.839,5.161 5.132,9.096 6.743,14.071c2.62,8.087 -2.291,16.625 -2.383,25.125c-0.044,4.062 1.052,8.13 3.131,11.619c1.334,2.237 3.237,4.348 5.771,4.949c3.425,0.814 6.788,-1.303 10.236,-2.014c4.135,-0.852 8.656,0.474 11.675,3.425c1.598,1.563 2.773,3.518 4.385,5.065c5.427,5.202 14.831,4.288 20.575,-0.563c5.743,-4.849 8.318,-12.573 8.95,-20.064c0.202,-2.394 0.233,-4.819 -0.218,-7.179c-0.458,-2.401 -1.404,-4.686 -1.896,-7.081c-1.766,-8.613 2.461,-17.152 5.427,-25.431c3.275,-9.141 5.075,-19.25 2.255,-28.542c-2.821,-9.292 -11.255,-17.354 -20.966,-17.268c-1.915,0.017 -3.852,0.336 -5.733,-0.026c-1.613,-0.311 -3.086,-1.104 -4.627,-1.673c-3.244,-1.199 -6.937,-1.375 -10.139,-0.069c-5.459,2.227 -6.102,8.628 -8.399,13.304c-2.922,5.949 -10.356,7.691 -15.214,11.767Z" style="fill:#f6f6f6;fill-rule:nonzero;"/><path d="M42.925,31.656c-0,0 -3.139,3.636 -14.77,8.328c1.546,1.178 9.086,8.294 9.621,8.94c1.211,1.464 0.328,2.657 -0.064,4.237c-0.298,1.203 -0.448,2.276 -1.122,3.374c-0.065,0.107 -0.136,0.215 -0.246,0.274c-0.293,0.156 -0.629,-0.133 -0.793,-0.422c-0.565,-0.994 -0.466,-2.213 -0.579,-3.352c-0.276,-2.773 -2.947,-3.082 -4.991,-4.327c-5.987,-3.649 -11.261,-6.642 -9.529,-10.499c2.006,-4.469 13.373,-13.517 16.542,-13.898c3.169,-0.38 8.833,5.53 5.931,7.345Z" style="fill:#f5a784;fill-rule:nonzero;"/><path d="M41.451,14.213c-0.288,-0.271 -0.348,-0.686 -0.399,-1.333c-0.095,-1.21 -0.165,-2.522 0.502,-3.536c0.673,-1.026 2.084,-1.497 3.238,-1.081c0.494,-1.123 1.565,-1.965 2.766,-2.216c1.2,-0.251 2.501,0.079 3.461,0.842c0.493,0.391 0.904,0.89 1.454,1.197c0.548,0.308 1.32,0.359 1.741,-0.107c0.158,0.468 0.314,0.986 0.13,1.445c-0.209,0.523 -0.784,0.789 -1.164,1.205c-0.577,0.633 -0.489,1.495 -0.56,2.303c-0.041,0.459 -0.183,0.769 -0.365,1.178c-0.204,0.46 -0.288,0.966 -0.559,1.406c-0.082,0.134 -0.346,0.538 -0.435,0.177c-0.525,-0.048 -1.048,-0.1 -1.572,-0.154c-1.776,-0.179 -3.55,-0.373 -5.318,-0.621c-0.732,-0.102 -1.47,-0.203 -2.191,-0.369c-0.339,-0.078 -0.569,-0.185 -0.729,-0.336Z" style="fill:#3b2645;fill-rule:nonzero;"/><path d="M51.518,13.908c-0,0 0.918,-1.035 1.77,0.054c0.853,1.089 -0.714,3.076 -1.867,3.131c-0,0 -0.049,-2.732 0.097,-3.185Z" style="fill:#e0855c;fill-rule:nonzero;"/><path d="M34.65,25.726c0.495,1.278 2.211,5.935 2.907,10.011c0.056,0.33 0.107,0.638 0.145,0.94c0.276,2.093 0.989,12.164 1.101,13.751c0.009,0.134 0.014,0.207 0.014,0.207c7.942,2.448 16.314,0.5 16.314,0.5c-0,0 0.018,-0.152 0.06,-0.445c0.247,-1.964 1.278,-10.09 1.968,-17.118c0.351,-3.584 0.612,-6.889 0.635,-8.947c0.01,-0.755 -1.741,-0.728 -2.944,-0.932c-1.682,-0.292 -3.522,-0.409 -4.356,-0.441c-0.073,-0.009 -0.14,-0.011 -0.2,-0.013c-0.16,-0.004 -0.249,-0.006 -0.249,-0.006l-0.069,-1.179c-0,-0.014 -0.051,-0.782 -0.051,-0.782l-0.134,-2.119c-0.134,0.023 -0.269,0.047 -0.402,0.056c-0.269,0.039 -0.523,0.054 -0.777,0.057c-0.342,0.004 -0.655,-0.007 -0.954,-0.043c-0.154,-0.018 -0.3,-0.035 -0.44,-0.06c-0.206,-0.033 -0.405,-0.073 -0.597,-0.119c-0.325,-0.076 -0.634,-0.181 -0.927,-0.282c-0.092,-0.031 -0.178,-0.059 -0.264,-0.102c-0.027,-0.008 -0.053,-0.014 -0.073,-0.028c-0.066,-0.029 -0.138,-0.059 -0.204,-0.087c-0.428,-0.186 -0.79,-0.392 -1.085,-0.581c-0.19,-0.119 -0.354,-0.23 -0.484,-0.329c-0.046,-0.034 -0.066,-0.048 -0.085,-0.063c-0.073,-0.054 -0.131,-0.097 -0.176,-0.139c-0.065,-0.048 -0.104,-0.083 -0.118,-0.097c0.022,0.148 0.033,0.208 0.039,0.275c0.064,0.672 0.134,1.535 0.148,2.39c0.021,0.589 0.023,1.17 0.028,1.678c-0,0.875 -0.021,1.509 -0.021,1.509c-0.193,-0.006 -0.386,-0.005 -0.574,0.009c-0.019,-0.006 -0.046,-0.007 -0.066,-0.002c-0.876,0.013 -1.714,0.095 -2.486,0.211c-2.733,0.438 -4.712,1.372 -5.426,1.785c-0.191,0.108 -0.271,0.333 -0.197,0.535Z" style="fill:#f5a784;fill-rule:nonzero;"/><path d="M43.201,17.327c0.887,4.706 5.601,4.529 6.724,3.945l-0.134,-2.119c-3.9,0.672 -6.59,-1.826 -6.59,-1.826Z" style="fill:#e0855c;fill-rule:nonzero;"/><path d="M51.411,10.831c0.569,0.629 0.576,2.003 0.578,3.523c0.008,4.597 -1.412,5.99 -3.766,6.171c-2.354,0.18 -4.781,-0.797 -5.156,-5.073c-0.187,-2.136 -0.396,-4.113 0.407,-5.009c1.197,-1.336 6.189,-1.544 7.937,0.388Z" style="fill:#f5a784;fill-rule:nonzero;"/><path d="M43.413,14.848c-0,0 -0.661,-1.925 -1.824,-0.951c-1.164,0.973 0.313,3.895 2.053,3.735c-0,0 0.302,-2.116 -0.229,-2.784Z" style="fill:#f5a784;fill-rule:nonzero;"/><path d="M42.092,14.778c0.249,0.051 0.498,0.296 0.674,0.471c0.184,0.183 0.399,0.41 0.486,0.659c0.028,0.078 -0.081,0.122 -0.132,0.072c-0.143,-0.141 -0.255,-0.308 -0.388,-0.46c-0.101,0.102 -0.203,0.206 -0.34,0.252c-0.106,0.035 -0.179,-0.097 -0.131,-0.181c0.063,-0.108 0.173,-0.185 0.282,-0.254c-0.175,-0.144 -0.389,-0.26 -0.534,-0.427c-0.055,-0.063 0.006,-0.147 0.083,-0.132Z" style="fill:#e0855c;fill-rule:nonzero;"/><path d="M49.976,14.182c-0,0 0.393,0.16 0.354,-0.545c-0.035,-0.634 -0.32,-0.557 -0.32,-0.557c-0,0 -0.276,-0.011 -0.251,0.544c0.025,0.554 0.217,0.558 0.217,0.558Z" style="fill:#3b2645;fill-rule:nonzero;"/><path d="M45.951,14.059c-0,0 0.393,0.16 0.354,-0.545c-0.035,-0.634 -0.32,-0.558 -0.32,-0.558c-0,0 -0.276,-0.01 -0.251,0.544c0.025,0.555 0.217,0.559 0.217,0.559Z" style="fill:#3b2645;fill-rule:nonzero;"/><path d="M48.115,15.999c0.202,-0.023 0.659,0.111 0.76,-0.103c0.085,-0.179 -0.206,-1.256 -0.246,-1.441c-0.144,-0.665 -0.305,-1.118 -0.404,-1.913c-0.005,-0.035 0.056,-0.053 0.07,-0.016c0.433,1.065 0.567,2.372 0.815,3.497c0.013,0.062 -0.034,0.126 -0.099,0.123c-0.295,-0.014 -0.584,0.039 -0.878,0.032c-0.098,-0.003 -0.122,-0.166 -0.018,-0.179Z" style="fill:#e0855c;fill-rule:nonzero;"/><path d="M49.606,12.033c0.289,-0.135 0.822,-0.158 1.019,0.144c0.037,0.056 -0.016,0.136 -0.079,0.13c-0.141,-0.012 -0.264,-0.084 -0.405,-0.1c-0.153,-0.017 -0.3,0.013 -0.447,0.055c-0.133,0.038 -0.216,-0.168 -0.088,-0.229Z" style="fill:#3b2645;fill-rule:nonzero;"/><path d="M45.411,12.252c0.174,-0.398 0.88,-0.415 1.173,-0.156c0.067,0.059 0.02,0.166 -0.055,0.187c-0.177,0.049 -0.362,-0.022 -0.544,-0.011c-0.16,0.009 -0.29,0.076 -0.44,0.124c-0.077,0.024 -0.168,-0.066 -0.134,-0.144Z" style="fill:#3b2645;fill-rule:nonzero;"/><path d="M49.069,17.455c-0,0 -1.439,0.17 -2.502,-0.512c-0,0 0.345,0.952 1.221,1.219c0.877,0.269 1.281,-0.707 1.281,-0.707Z" style="fill:#fff;fill-rule:nonzero;"/><path d="M89.378,101.718l-0,0.06c-0,0.699 -0.035,1.386 -0.101,2.064c-0.036,0.361 -0.082,0.713 -0.138,1.064c-0.163,1.08 -0.413,2.129 -0.739,3.143c-0.117,0.382 -0.249,0.754 -0.392,1.121c-2.97,7.696 -10.437,13.151 -19.178,13.151c-10.309,0 -18.846,-7.594 -20.318,-17.502c-0.036,-0.244 -0.072,-0.488 -0.097,-0.738c-0.086,-0.754 -0.127,-1.523 -0.127,-2.303c-0,-0.09 -0,-0.188 0.005,-0.279c-0,-0.24 0.005,-0.474 0.02,-0.714c0.051,-1.105 0.188,-2.19 0.413,-3.244c0.066,-0.31 0.137,-0.616 0.214,-0.922c0.448,-1.737 1.12,-3.387 1.986,-4.911c3.046,-5.414 8.481,-9.306 14.874,-10.243c0.988,-0.152 2.002,-0.229 3.03,-0.229c10.906,0 19.825,8.497 20.508,19.223c0.025,0.418 0.04,0.836 0.04,1.259Z" style="fill:#ab8da8;fill-rule:nonzero;"/><path d="M88.4,108.049c-0.117,0.382 -0.249,0.754 -0.392,1.121c-1.925,-0.662 -3.856,-1.324 -5.827,-1.844c-4.162,-1.1 -8.399,-1.91 -12.673,-2.42c-3.999,-0.478 -8.033,-0.698 -12.062,-0.657c-2.99,0.036 -5.959,0.372 -8.934,0.57c-0.036,-0.244 -0.072,-0.488 -0.097,-0.738c7.121,-1.289 15.052,-0.698 22.015,0.163c5.807,0.713 12.204,1.763 17.97,3.805Z" style="fill:#e8cee5;fill-rule:nonzero;"/><path d="M89.277,103.842c-0.036,0.361 -0.082,0.713 -0.138,1.064c-5.837,-1.905 -11.736,-3.402 -17.96,-4.085c-7.671,-0.84 -15.322,-0.616 -22.886,0.678c-0,-0.24 0.005,-0.474 0.02,-0.714c2.965,-0.835 6.23,-0.957 9.199,-1.12c4.554,-0.255 9.128,-0.128 13.667,0.352c6.051,0.641 12.245,1.839 18.098,3.825Z" style="fill:#e8cee5;fill-rule:nonzero;"/><path d="M89.378,101.718c-2.47,-0.805 -4.935,-1.65 -7.452,-2.313c-4.024,-1.059 -8.114,-1.889 -12.24,-2.42c-3.993,-0.514 -8.027,-0.728 -12.051,-0.565c-3.031,0.122 -5.965,0.607 -8.909,1.121c0.066,-0.31 0.137,-0.616 0.214,-0.922c6.713,-1.569 14.196,-1.294 20.787,-0.505c6.459,0.77 13.31,2.13 19.611,4.345c0.025,0.418 0.04,0.836 0.04,1.259Z" style="fill:#e8cee5;fill-rule:nonzero;"/><path d="M47.72,55.168c-0.067,1.423 -0.255,3.082 -0.521,4.886c-0.476,3.219 -1.216,6.882 -2.017,10.434c-1.85,8.167 -4.014,15.714 -4.014,15.714c-0.093,4.895 -0.948,10.712 -1.93,15.887c-0.313,1.644 -0.634,3.226 -0.948,4.688c-1.135,5.203 -2.164,8.95 -2.164,8.95l-4.982,-0.943c-0.233,-2.831 -0.327,-5.522 -0.32,-8.053c-0,-1.577 0.04,-3.079 0.107,-4.522c0.454,-9.837 2.204,-16.414 2.217,-17.65c0.04,-5.756 0.374,-10.785 0.841,-15.073c1.282,-11.813 3.567,-17.964 3.567,-17.964c3.218,-7.406 8.052,-6.897 9.649,-1.439c0.409,1.396 0.608,3.102 0.515,5.085Z" style="fill:#f5a784;fill-rule:nonzero;"/><path d="M63.567,108.347c-0.027,2.05 -0.127,4.201 -0.307,6.437l-4.982,0.943c-0,0 -0.882,-3.22 -1.91,-7.841c-0.381,-1.696 -0.775,-3.579 -1.155,-5.563c-1.002,-5.229 -1.883,-11.152 -1.977,-16.121c-0,0 -2.184,-7.599 -4.034,-15.8c-0.794,-3.52 -1.531,-7.163 -2.003,-10.348c-0.268,-1.81 -0.448,-3.47 -0.515,-4.886c-0.093,-1.983 0.11,-3.695 0.521,-5.085c1.615,-5.459 6.432,-5.961 9.65,1.439c-0,0 2.271,6.118 3.547,17.878c0.474,4.3 0.808,9.363 0.854,15.159c0.013,1.229 1.73,7.7 2.204,17.404c0.1,1.996 0.141,4.127 0.107,6.384Z" style="fill:#f5a784;fill-rule:nonzero;"/><path d="M52.971,23.607c-0,0 4.35,-2.038 16.883,-1.573c-0,0 -3.976,-7.29 -4.071,-9.183c-0,0 -1.854,1.761 -3.261,0.226c-1.045,-1.139 -0.929,-2.531 1.059,-3.667c1.989,-1.136 4.19,-1.862 8.167,3.914c3.977,5.776 7.569,10.661 4.415,13.474c-3.657,3.261 -17.727,6.882 -20.776,5.936c-3.048,-0.948 -5.806,-8.654 -2.416,-9.127Z" style="fill:#f5a784;fill-rule:nonzero;"/><path d="M56.895,43.081c-0.681,-2.811 -3.752,-2.512 -3.752,-2.512c0.106,-0.92 0.126,-1.922 0.073,-2.971c-0.007,-0.12 -0.013,-0.234 -0.02,-0.354c-0.047,-0.687 -0.12,-1.395 -0.214,-2.11c-0.013,-0.127 -0.03,-0.261 -0.047,-0.395c-0.5,-4.131 -1.85,-8.32 -2.491,-10.317c-0.247,-0.755 -0.399,-1.189 -0.399,-1.189l-0.188,-3.125c-0,0 0.667,-0.234 2.183,0.881c0.428,0.307 0.922,0.728 1.49,1.289c1.863,1.85 4.18,8.322 5.683,13.284c0.047,0.167 0.1,0.333 0.147,0.5c0.294,0.982 0.548,1.897 0.761,2.691c0.047,0.181 0.094,0.355 0.134,0.522c0.24,0.908 0.407,1.616 0.474,2.016c0.427,2.471 -3.152,4.602 -3.834,1.79Z" style="fill:#ab8da8;fill-rule:nonzero;"/><path d="M39.973,45.044c-0.554,-4.687 -3.286,-3.84 -3.286,-3.84c-0.073,-1.108 -0.12,-2.15 -0.133,-3.145c-0,-0.12 -0.007,-0.241 -0.007,-0.361c-0,-0.534 0.007,-1.048 0.013,-1.549c-0,-0.127 0.007,-0.254 0.014,-0.38c0.441,-13.805 6.818,-15.768 6.818,-15.768l0.007,3.187c-0,0 0.254,10.156 0.674,16.567c0.007,0.181 0.02,0.355 0.034,0.527c0.08,1.196 0.181,2.23 0.26,3.019c0.017,0.167 0.034,0.321 0.054,0.461c0.04,0.261 0.073,0.481 0.113,0.654c0.681,3.126 -4.007,5.317 -4.561,0.628Z" style="fill:#ab8da8;fill-rule:nonzero;"/><path d="M52.04,20.989c-1.022,0.949 -1.429,2.398 -1.596,3.433c-0.247,-0.755 -0.399,-1.189 -0.399,-1.189l-0.188,-3.125c-0,0 0.667,-0.234 2.183,0.881Z" style="fill:#826b80;fill-rule:nonzero;"/><path d="M44.421,43.762c-0.695,-0.113 -1.369,-0.441 -1.937,-0.982c-1.082,-1.048 -1.276,-2.644 -2.471,-3.613c-1.015,-0.821 -2.224,-1.028 -3.459,-1.108c-0,-0.12 -0.007,-0.241 -0.007,-0.361c1.409,0.06 2.838,0.421 3.88,1.349c0.848,0.755 1.129,1.797 1.73,2.718c0.581,0.875 1.362,1.369 2.21,1.536c0.014,0.167 0.034,0.321 0.054,0.461Z" style="fill:#e8cee5;fill-rule:nonzero;"/><path d="M44.107,40.282c-0.387,-0.16 -0.775,-0.393 -1.169,-0.714c-1.162,-0.935 -2.164,-1.963 -3.533,-2.611c-0.928,-0.441 -1.876,-0.668 -2.845,-0.808c-0,-0.127 0.007,-0.254 0.014,-0.38c1.322,0.106 2.638,0.54 3.779,1.168c0.889,0.481 1.617,1.115 2.372,1.776c0.414,0.355 0.848,0.769 1.348,1.042c0.007,0.181 0.02,0.355 0.034,0.527Z" style="fill:#e8cee5;fill-rule:nonzero;"/><path d="M60.255,39.275c-0.588,0.193 -1.216,0.28 -1.837,0.226c-1.342,-0.113 -3.459,-1.616 -5.202,-1.903c-0.007,-0.12 -0.013,-0.234 -0.02,-0.354c0.601,0.074 1.209,0.254 1.663,0.434c1.041,0.401 2.016,1.022 3.125,1.242c0.782,0.154 1.489,0.067 2.137,-0.167c0.047,0.181 0.094,0.355 0.134,0.522Z" style="fill:#e8cee5;fill-rule:nonzero;"/><path d="M59.36,36.062c-0.494,0.047 -0.988,0.02 -1.476,-0.067c-1.349,-0.24 -2.451,-0.828 -3.867,-0.875c-0.347,-0.012 -0.687,-0.007 -1.035,0.014c-0.013,-0.127 -0.033,-0.261 -0.047,-0.395c0.875,-0.099 1.75,-0.099 2.632,0.075c1.075,0.213 2.023,0.727 3.145,0.76c0.174,0.007 0.341,0 0.501,-0.012c0.047,0.167 0.1,0.333 0.147,0.5Z" style="fill:#e8cee5;fill-rule:nonzero;"/><path d="M62.438,80.853c-2.631,1.71 -6.15,2.331 -8.801,2.545c-2.191,0.172 -3.78,0.066 -3.78,0.066l-2.645,-21.431l-2.945,20.789c-5.176,1.877 -12.341,-0.961 -12.341,-0.961c1.088,-23.614 7.125,-33.157 7.125,-33.157c6.939,2.257 16.509,0.067 16.509,0.067c4.882,6.578 6.878,32.082 6.878,32.082Z" style="fill:#3b2645;fill-rule:nonzero;"/><path d="M47.027,51.11c-0.378,0.279 -0.639,0.551 -0.82,0.993c-0.345,0.845 0.122,1.781 -0.263,2.615c-0.279,0.604 -0.822,1.007 -1.032,1.668c-0.186,0.583 -0.168,1.159 -0.007,1.744c0.049,0.178 0.352,0.15 0.333,-0.045c-0.08,-0.826 -0.03,-1.547 0.436,-2.275c0.27,-0.423 0.629,-0.711 0.789,-1.199c0.107,-0.328 0.077,-0.557 0.072,-0.892c-0.014,-0.939 0.006,-1.615 0.649,-2.404c0.085,-0.105 -0.028,-0.301 -0.157,-0.205Z" style="fill:#291b30;fill-rule:nonzero;"/><path d="M48.798,53.992c-0.393,-0.978 -0.382,-1.681 -0.149,-2.7c0.022,-0.097 -0.103,-0.148 -0.157,-0.066c-0.347,0.522 -0.486,1.034 -0.436,1.674c0.061,0.78 0.63,1.482 0.332,2.249c-0.465,1.193 -1.041,2.174 -0.132,3.366c0.094,0.123 0.283,0.02 0.212,-0.124c-0.517,-1.043 -0.363,-1.932 0.165,-2.911c0.116,-0.218 0.308,-0.4 0.353,-0.653c0.075,-0.427 -0.011,-0.394 -0.188,-0.835Z" style="fill:#291b30;fill-rule:nonzero;"/><path d="M53.637,83.398c-2.191,0.172 -3.78,0.066 -3.78,0.066l-2.645,-21.431c-0,0 4.539,10.319 6.425,21.365Z" style="fill:#291b30;fill-rule:nonzero;"/><path d="M38.29,106.777c-1.135,5.203 -2.164,8.95 -2.164,8.95l-4.982,-0.943c-0.233,-2.831 -0.327,-5.522 -0.32,-8.053c2.01,0.247 5.055,0.481 7.466,0.046Z" style="fill:#e8cee5;fill-rule:nonzero;"/><path d="M63.567,108.347c-0.027,2.05 -0.127,4.201 -0.307,6.437l-4.982,0.943c-0,0 -0.882,-3.22 -1.91,-7.841c2.324,0.555 5.229,0.555 7.199,0.461Z" style="fill:#e8cee5;fill-rule:nonzero;"/><path d="M36.774,120.755c-0.001,0.054 -0.006,0.107 -0.013,0.153c-0.167,2.305 -2.043,1.951 -4.828,1.991c-2.224,0.033 -3.406,-1.236 -3.272,-2.578c0.033,-0.374 0.173,-0.761 0.42,-1.122c1.142,-1.649 1.509,-3.846 1.509,-3.846c2.745,-3.292 5.536,0.374 5.536,0.374c-0,0 0.695,2.556 0.648,5.028Z" style="fill:#3b2645;fill-rule:nonzero;"/><path d="M62.479,122.899c-2.852,-0.04 -4.795,0.329 -4.842,-2.144c-0.001,-0.073 -0.007,-0.14 -0,-0.214c-0.06,-2.404 0.641,-4.814 0.641,-4.814c-0,0 2.799,-3.666 5.536,-0.374c-0,0 0.368,2.197 1.51,3.846c0.14,0.201 0.247,0.414 0.32,0.621c0.515,1.509 -0.668,3.119 -3.165,3.079Z" style="fill:#3b2645;fill-rule:nonzero;"/><path d="M34.759,117.133c-0.792,-0.494 -2.519,-0.708 -3.325,-0.154c-0.086,0.058 -0.05,0.179 0.051,0.189c0.497,0.047 0.993,-0.106 1.5,-0.073c0.58,0.039 1.066,0.264 1.619,0.405c0.223,0.057 0.35,-0.246 0.155,-0.367Z" style="fill:#291b30;fill-rule:nonzero;"/><path d="M34.407,118.236c-0.997,-0.273 -2.307,-0.486 -3.277,-0.039c-0.167,0.077 -0.114,0.339 0.05,0.381c0.454,0.117 0.916,0.104 1.38,0.13c0.56,0.031 1.101,0.138 1.648,0.248c0.467,0.094 0.667,-0.591 0.199,-0.72Z" style="fill:#291b30;fill-rule:nonzero;"/><path d="M62.531,116.993c-0.978,-0.318 -2.157,-0.233 -3.024,0.345c-0.276,0.184 -0.107,0.713 0.241,0.572c0.881,-0.355 1.663,-0.487 2.593,-0.227c0.446,0.124 0.626,-0.548 0.19,-0.69Z" style="fill:#291b30;fill-rule:nonzero;"/><path d="M63.059,118.252c-0.662,-0.269 -1.49,-0.24 -2.185,-0.118c-0.452,0.08 -1.173,0.199 -1.281,0.736c-0.022,0.106 0.029,0.217 0.139,0.246c0.445,-0.025 0.871,-0.231 1.285,-0.285c0.671,-0.087 1.288,0.033 1.953,0.077c0.407,0.028 0.409,-0.525 0.089,-0.656Z" style="fill:#291b30;fill-rule:nonzero;"/></g></svg>