<?xml version="1.0" encoding="UTF-8" standalone="no"?><!DOCTYPE svg PUBLIC "-//W3C//DTD SVG 1.1//EN" "http://www.w3.org/Graphics/SVG/1.1/DTD/svg11.dtd"><svg width="100%" height="100%" viewBox="0 0 87 111" version="1.1" xmlns="http://www.w3.org/2000/svg" xmlns:xlink="http://www.w3.org/1999/xlink" xml:space="preserve" xmlns:serif="http://www.serif.com/" style="fill-rule:evenodd;clip-rule:evenodd;stroke-linejoin:round;stroke-miterlimit:2;"><g><path d="M78.431,110.638c-1.028,0.114 -2.07,0.201 -3.118,0.247c-0.047,0.007 -0.094,0.013 -0.14,0.013c-0.348,0.007 -0.662,0.028 -0.975,0.041c-0.815,-0.013 -59.797,-0.027 -62.422,-0.027c-0.374,-0.033 -0.741,-0.067 -1.115,-0.107c-1.229,-0.127 -1.229,-1.776 0,-1.903c0.374,-0.04 0.741,-0.08 1.122,-0.107c2.625,-0 63.042,0.006 63.35,0.013c0.073,0.002 0.12,0.007 0.173,0.014c1.048,0.047 2.09,0.133 3.125,0.247c1.009,0.113 1.002,1.455 0,1.569Z" style="fill:#c6c6c6;fill-rule:nonzero;"/><path d="M2.45,85.627c-3.396,-5.506 -3.249,-12.993 0.361,-18.362c1.574,-2.341 3.764,-4.349 4.644,-7.03c1.685,-5.136 -1.943,-10.302 -3.743,-15.398c-2.723,-7.705 -1.137,-16.536 3.128,-23.508c4.263,-6.971 10.966,-12.206 18.288,-15.836c11.546,-5.725 25.522,-7.614 37.38,-2.567c11.856,5.048 20.616,18 18.506,30.713c-0.871,5.251 -3.442,10.269 -3.175,15.585c0.359,7.179 5.731,13.044 7.99,19.868c2.862,8.65 0.152,18.865 -6.594,24.989c-6.747,6.124 -17.147,7.842 -25.52,4.25c-3.273,-1.404 -6.339,-3.564 -9.885,-3.881c-3.812,-0.342 -7.297,1.408 -10.879,2.379c-4.792,1.3 -6.943,0.469 -11.206,-1.624c-6.992,-3.433 -14.472,-1.761 -19.295,-9.578Z" style="fill:#f6f6f6;fill-rule:nonzero;"/><path d="M57.054,71.424c-0.401,0.935 -0.955,1.796 -1.282,2.758c-0.214,0.621 -0.321,1.276 -0.595,1.869c-0.247,0.535 -0.621,0.996 -1.082,1.363c-0.46,0.368 -1.007,0.628 -1.583,0.748c-1.956,0.394 -4.207,-0.741 -5.87,0.354c-0.066,0.047 -0.132,0.095 -0.2,0.147c-0.316,0.246 -0.594,0.541 -0.921,0.768c-1.429,1.008 -3.413,0.535 -4.996,-0.22c-1.576,-0.755 -3.139,-1.777 -4.894,-1.757c-0.615,0.007 -1.229,0.147 -1.837,0.081c-1.109,-0.108 -2.043,-0.862 -2.751,-1.717c-2.899,-3.513 -2.505,-9.39 0.139,-12.929c0.482,-0.648 1.036,-1.282 1.203,-2.07c0.16,-0.755 -0.06,-1.543 0.06,-2.304c0.16,-1.048 0.941,-1.877 1.576,-2.731c0.801,-1.075 1.415,-2.291 1.817,-3.573c0.133,-0.428 0.24,-0.862 0.327,-1.296c0.287,-1.502 0.334,-3.152 1.296,-4.334c1.649,-2.01 5.228,-2.431 7.626,-1.984c2.717,0.522 5.202,1.744 6.097,4.588c0.448,1.443 0.387,2.986 0.488,4.489c0.099,1.502 0.414,3.091 1.449,4.186c0.48,0.508 1.101,0.902 1.416,1.517c0.5,0.967 0.093,2.13 0.026,3.218c-0.033,0.495 0.013,0.996 0.12,1.483c0.154,0.635 0.421,1.242 0.801,1.769c0.108,0.148 0.221,0.294 0.335,0.435c0.58,0.701 1.275,1.335 1.563,2.19c0.32,0.961 0.073,2.024 -0.328,2.952Z" style="fill:#3b2645;fill-rule:nonzero;"/><path d="M55.819,66.282c0,0.019 0,0.047 -0.007,0.066c-0.16,0.815 -0.621,1.53 -0.995,2.264c-1.155,2.265 -1.516,4.915 -1.022,7.399c0.093,0.461 0.214,0.929 0.3,1.403c-0.46,0.368 -1.007,0.628 -1.583,0.748c-1.956,0.394 -4.207,-0.741 -5.87,0.354c-0.066,0.047 -0.132,0.094 -0.2,0.147c-0.36,-1.629 -0.14,-3.386 0.254,-5.035c0.061,-0.247 0.101,-0.561 -0.106,-0.708c-0.127,-0.087 -0.294,-0.067 -0.448,-0.067c-1.142,0.013 -2.144,-0.882 -2.564,-1.943c-0.421,-1.063 -0.368,-2.251 -0.194,-3.379c0.173,-1.122 0.454,-2.244 0.467,-3.387c0.007,-1.716 -0.607,-3.412 -0.434,-5.115c0.167,-1.656 1.109,-3.212 2.491,-4.127c0.4,-0.268 2.004,-1.142 2.444,-0.635c0.247,0.287 -0.301,1.944 -0.327,2.358c-0.113,1.71 0.274,3.5 1.396,4.835c1.175,1.396 2.965,2.131 4.748,2.498c0.174,0.033 0.347,0.066 0.514,0.12c0.154,0.635 0.421,1.242 0.801,1.769c0.108,0.148 0.221,0.294 0.335,0.435Z" style="fill:#291b30;fill-rule:nonzero;"/><path d="M63.183,93.105c-5.182,1.97 -11.573,3.6 -16.655,4.367c-0.661,0.315 -4.828,4.802 -7.433,0.548c-0.1,-0.167 -0.201,-0.354 -0.3,-0.548c-1.209,-0.179 -2.485,-0.414 -3.807,-0.68c-4.901,-1.016 -10.358,-2.605 -14.645,-4.408c-4.822,-2.024 -8.161,-4.328 -7.574,-6.398c0.494,-1.75 4.435,-2.344 9.423,-2.351c6.933,-0.006 15.901,1.102 20.469,1.737c3.7,-0.515 10.285,-1.343 16.349,-1.63c6.791,-0.327 12.916,0.027 13.549,2.244c0.655,2.317 -3.612,4.929 -9.376,7.119Z" style="fill:#3b2645;fill-rule:nonzero;"/><path d="M50.328,77.237c-0.067,2.933 0.254,5.63 0.614,7.239c-1.175,0.949 -3.946,1.364 -8.107,1.364c-4.16,-0 -7.386,-1.364 -7.386,-1.364c0.548,-3.612 0.307,-7.893 -0.428,-10.11c-0.127,-0.374 -0.266,-0.688 -0.414,-0.929c-0.261,-0.407 -0.574,-0.788 -0.774,-1.228c-0.574,-1.229 -0.221,-2.678 0.22,-3.96c0.04,-0.114 0.074,-0.228 0.107,-0.341c0.36,-1.215 0.393,-2.384 0.668,-3.607c0.193,-0.847 0.954,-1.125 1.783,-1.275c0.3,-0.055 0.594,-0.094 0.868,-0.14c0.16,-0.027 0.32,-0.056 0.461,-0.08c0.665,-0.113 1.349,-0.167 1.89,-0.22c0.433,-0.04 0.781,-0.067 0.955,-0.074c0.08,-0.013 0.127,-0.016 0.127,-0.016c0.007,-0.021 0.047,-0.258 0.047,-0.258c0,-0.02 0.153,-0.861 0.153,-0.861l0.641,-3.539c0.127,-1.316 1.783,-1.625 3.092,-1.657c0.902,-0.021 1.636,0.08 1.636,0.08l-0.266,6.298c0,0.02 0.039,0.04 0.126,0.046c0.194,0.034 0.601,0.04 1.195,0.08c0.194,0.014 0.414,0.028 0.648,0.047c0.027,-0 0.06,-0 0.087,0.007c0.107,0.007 0.213,0.016 0.321,0.027c0.586,0.06 1.295,0.079 1.922,0.234c0.789,0.193 1.416,0.567 1.55,1.382c0.274,1.643 -0.307,3.386 -0.681,4.956c-0.248,1.021 -0.427,2.03 -0.568,3.051c-0.007,0.054 -0.013,0.114 -0.019,0.167c-0.195,1.389 -0.315,2.779 -0.428,4.188c-0.014,0.166 -0.04,0.327 -0.04,0.493Z" style="fill:#f5a784;fill-rule:nonzero;"/><path d="M61.393,45.763c-1.108,-1.67 -2.711,-3.105 -4.313,-4.467c-0.816,-0.702 -1.63,-1.376 -2.378,-2.051c-1.442,-1.309 -2.878,-2.624 -4.24,-4.02c-1.116,-1.149 -2.826,-2.625 -3.34,-4.161c-0.107,-0.306 -0.126,-0.64 -0.154,-0.968c-0.106,-1.082 -0.367,-2.157 -0.767,-3.172c-0.073,-0.194 -0.167,-0.401 -0.348,-0.521c-0.174,-0.113 -0.457,-0.089 -0.548,0.101c-0.034,0.072 -0.033,0.153 -0.033,0.233c-0.007,1.897 -0.554,4.729 0.28,6.471c0.489,1.035 1.457,1.977 2.098,2.932c1.149,1.696 2.123,3.426 3.353,5.055c0.781,1.035 4.186,5.623 5.122,6.879c0,-0 -1.162,3.893 -3.92,7.96c-0.235,0.348 -0.548,0.614 -0.795,0.922c-2.672,3.326 -4.281,4.715 -5.069,5.649c-0.46,0.548 -0.641,0.948 -0.601,1.484c0.52,6.577 5.075,8.3 5.075,8.3c0,-0 13.337,-22.452 10.578,-26.626Zm-14.357,-10.097c0.019,0.013 0.04,0.026 0.059,0.04c-0.013,-0.027 -0.033,-0.033 -0.059,-0.04Z" style="fill:#f5a784;fill-rule:nonzero;"/><path d="M36.343,41.195c1.236,-1.629 2.211,-3.359 3.353,-5.055c0.642,-0.955 1.616,-1.897 2.104,-2.932c0.835,-1.742 0.28,-4.574 0.274,-6.471c0,-0.08 0,-0.16 -0.034,-0.233c-0.086,-0.188 -0.369,-0.218 -0.547,-0.101c-0.177,0.116 -0.268,0.327 -0.348,0.521c-0.393,1.015 -0.654,2.09 -0.761,3.172c-0.034,0.328 -0.053,0.662 -0.154,0.968c-0.52,1.536 -2.223,3.012 -3.345,4.161c-1.356,1.396 -2.798,2.711 -4.235,4.02c-0.54,0.488 -1.114,0.975 -1.702,1.47c-1.811,1.543 -3.733,3.145 -4.989,5.048c-1.95,2.946 4.335,15.193 8.201,22.145c1.616,2.898 2.805,4.875 2.805,4.875c0,-0 3.944,-2.098 4.634,-8.538c0.006,-0.054 0.008,-0.104 0.014,-0.156c0.059,-0.568 -0.161,-0.976 -0.682,-1.57c-0.841,-0.962 -2.423,-2.371 -4.988,-5.563c-0.247,-0.308 -0.561,-0.574 -0.802,-0.922c-2.751,-4.067 -3.92,-7.96 -3.92,-7.96c1.022,-1.362 4.421,-5.95 5.122,-6.879Zm3.908,-5.509c0.026,0.006 0.047,-0.007 0.059,-0.02c-0.019,0.007 -0.04,0.013 -0.059,0.02Z" style="fill:#f5a784;fill-rule:nonzero;"/><path d="M50.942,84.476c-1.175,0.949 -3.946,1.364 -8.107,1.364c-4.16,-0 -7.386,-1.364 -7.386,-1.364c0.548,-3.612 0.307,-7.893 -0.428,-10.11c-0.127,-0.374 -0.266,-0.688 -0.414,-0.929c-0.261,-0.407 -0.574,-0.788 -0.774,-1.228c-0.574,-1.229 -0.221,-2.678 0.22,-3.96c0.04,-0.114 0.074,-0.228 0.107,-0.341c-3.866,-6.952 -10.151,-19.199 -8.201,-22.145c1.256,-1.903 3.178,-3.505 4.989,-5.048c0.614,0.593 3.045,2.998 3.318,3.265c-1.014,1.356 -2.016,2.725 -3.038,4.08c-0.007,0.021 1.162,3.907 3.913,7.974c0.241,0.348 0.555,0.614 0.802,0.922c2.565,3.192 4.148,4.604 4.969,5.54c0.22,0.54 0.466,1.139 0.687,1.749c0.404,1.105 0.762,2.234 0.862,2.922l3.759,-4.828l-0.005,0.22c0,0.02 0.039,0.04 0.126,0.046c0.788,-0.934 2.397,-2.323 5.069,-5.649c0.247,-0.308 0.56,-0.574 0.795,-0.922c2.758,-4.067 3.92,-7.96 3.92,-7.96c-0.936,-1.256 -1.864,-2.511 -2.799,-3.767l3.754,-3.011c1.602,1.362 3.205,2.797 4.313,4.467c2.759,4.174 -10.578,26.626 -10.578,26.626c-0.007,0.054 -0.013,0.114 -0.019,0.167c-0.195,1.389 -0.315,2.779 -0.428,4.188c-0.014,0.166 -0.04,0.327 -0.04,0.493c-0.067,2.933 0.254,5.63 0.614,7.239Z" style="fill:#ff4590;fill-rule:nonzero;"/><path d="M46.481,56.261l-0.127,2.918c-2.07,1.543 -4.067,1.543 -5.095,1.403l0.494,-2.744c0.127,-1.316 1.783,-1.625 3.092,-1.657c0.902,-0.021 1.636,0.08 1.636,0.08Z" style="fill:#e0855c;fill-rule:nonzero;"/><path d="M49.577,52.868c-0.336,-0.79 -0.932,-0.661 -1.422,-0.363c0.1,-1.334 0.031,-2.463 -0.282,-3.269c-0.993,-2.55 -6.119,-3.435 -8.616,-0.26c-0.57,0.724 -0.794,2.117 -0.927,3.76c-0.402,4.972 1.914,6.916 3.545,6.996c1.473,0.071 4.407,-0.337 5.616,-3.562c1.016,-0.128 2.645,-1.988 2.086,-3.302Z" style="fill:#f5a784;fill-rule:nonzero;"/><path d="M42.768,54.92c-0.216,-0.043 -0.722,0.063 -0.813,-0.177c-0.076,-0.201 0.33,-1.341 0.389,-1.537c0.065,-0.215 0.129,-0.407 0.193,-0.597c-0.019,-0.014 -0.036,-0.03 -0.057,-0.043c-0.045,-0.027 -0.091,-0.046 -0.136,-0.058c-0.242,0.785 -0.427,1.608 -0.654,2.352c-0.019,0.066 0.027,0.139 0.097,0.141c0.32,0.01 0.628,0.092 0.946,0.11c0.107,0.006 0.147,-0.169 0.035,-0.191Z" style="fill:#e0855c;fill-rule:nonzero;"/><path d="M41.199,50.875c-0.301,-0.172 -0.875,-0.242 -1.115,0.068c-0.044,0.057 0.006,0.148 0.075,0.147c0.153,-0 0.292,-0.068 0.446,-0.074c0.168,-0.006 0.323,0.04 0.479,0.098c0.14,0.052 0.248,-0.164 0.115,-0.239Z" style="fill:#3b2645;fill-rule:nonzero;"/><path d="M45.426,51.556c-0.155,-0.446 -0.917,-0.525 -1.256,-0.269c-0.077,0.058 -0.036,0.178 0.044,0.207c0.187,0.068 0.392,0.007 0.588,0.034c0.173,0.024 0.307,0.107 0.465,0.171c0.081,0.033 0.189,-0.056 0.159,-0.143Z" style="fill:#3b2645;fill-rule:nonzero;"/><path d="M43.232,56.13c-0.309,0.134 -0.546,0.297 -0.902,0.295c-0.277,-0.002 -0.57,-0.149 -0.835,-0.067c-0.042,0.013 -0.075,0.062 -0.049,0.105c0.188,0.307 0.709,0.361 1.037,0.349c0.353,-0.012 0.774,-0.123 0.969,-0.44c0.093,-0.15 -0.067,-0.309 -0.22,-0.242Z" style="fill:#e0855c;fill-rule:nonzero;"/><path d="M41.297,52.592c-0.349,0.125 -0.687,0.23 -1.056,0.105c-0.234,-0.079 -0.391,-0.271 -0.616,-0.36c-0.027,0.31 0.297,0.501 0.551,0.595c0.392,0.145 0.856,0.089 1.219,-0.106c0.126,-0.067 0.04,-0.283 -0.098,-0.234Z" style="fill:#3b2645;fill-rule:nonzero;"/><path d="M45.686,52.955c-0.491,0.146 -1.313,0.478 -1.578,-0.221c-0.042,-0.111 -0.185,-0.087 -0.2,0.027c-0.051,0.392 0.432,0.602 0.747,0.653c0.391,0.063 0.873,-0.009 1.125,-0.336c0.046,-0.06 -0.029,-0.142 -0.094,-0.123Z" style="fill:#3b2645;fill-rule:nonzero;"/><path d="M48.251,46.713c-0.552,-0.44 -1.149,-0.838 -1.819,-1.06c-1.098,-0.363 -2.291,-0.226 -3.44,-0.092c-1.216,0.142 -2.475,0.287 -3.53,0.906c-0.954,0.56 -2.284,2.279 -1.406,3.419c0.853,1.109 3.005,-0.979 3.628,-1.613c0.289,0.793 1.231,1.134 2.073,1.195c0.841,0.062 1.72,-0.05 2.505,0.259c0.526,0.207 0.906,0.64 1.27,1.056c0.144,0.165 0.291,0.332 0.394,0.526c0.185,0.348 0.219,0.753 0.25,1.146c0.148,-0.227 0.451,-0.283 0.72,-0.302c0.271,-0.018 0.566,-0.027 0.769,-0.206c0.146,-0.13 0.214,-0.325 0.269,-0.513c0.19,-0.649 0.017,-1.453 -0.008,-2.129c-0.046,-1.208 -0.753,-1.859 -1.675,-2.592Z" style="fill:#3b2645;fill-rule:nonzero;"/><path d="M41.686,98.801l-21.343,-6.417c-4.822,-2.024 -8.161,-4.328 -7.574,-6.398c0.494,-1.75 4.435,-2.344 9.423,-2.351c4.729,1.683 11.342,6.282 19.494,15.166Z" style="fill:#291b30;fill-rule:nonzero;"/><path d="M63.183,93.105c-4.461,-0.327 -8.514,-1.369 -8.514,-1.369c0,-0 4.948,-3.513 4.341,-7.994c6.791,-0.327 12.916,0.027 13.549,2.244c0.655,2.317 -3.612,4.929 -9.376,7.119Z" style="fill:#291b30;fill-rule:nonzero;"/><path d="M64.432,97.293c-1.797,0.941 -4.465,1.805 -7.83,2.624c-3.64,0.884 -8.077,1.71 -13.092,2.51c-5.55,0.882 -9.584,2.264 -9.891,-0.273c-0.287,-2.391 6.858,-3.152 9.062,-3.5c0.434,-0.066 1.262,-0.487 2.365,-1.148c4.414,-2.645 13.142,-9.129 17.964,-11.861c3.459,-1.956 6.197,-1.663 7.893,-1.061c1.557,0.553 2.792,2.077 2.919,3.96c0.34,5.028 -7.1,7.552 -9.39,8.749Z" style="fill:#f5a784;fill-rule:nonzero;"/><path d="M56.602,99.917c-3.633,0.888 -8.077,1.71 -13.092,2.51c-5.55,0.882 -9.584,2.264 -9.891,-0.273c-0.287,-2.391 6.858,-3.152 9.062,-3.5c0.434,-0.066 1.262,-0.487 2.365,-1.148c2.53,0.961 7.302,2.511 11.556,2.411Z" style="fill:#e0855c;fill-rule:nonzero;"/><path d="M11.354,88.547c0.129,-1.887 1.363,-3.407 2.921,-3.961c1.696,-0.605 4.429,-0.901 7.89,1.061c6.015,3.41 18.132,12.67 20.332,13.011c2.201,0.341 9.349,1.107 9.06,3.495c-0.306,2.542 -4.339,1.156 -9.889,0.273c-9.665,-1.54 -17.182,-3.171 -20.924,-5.132c-2.288,-1.2 -9.732,-3.724 -9.39,-8.747Z" style="fill:#f5a784;fill-rule:nonzero;"/><path d="M47.329,72.426c-0.943,1.445 -3.531,0.641 -4.792,0.335c-0.12,-0.028 -0.213,0.097 -0.156,0.204c0.499,0.944 1.921,0.911 2.844,0.867c1.017,-0.047 2.065,-0.164 2.666,-1.077c0.232,-0.351 -0.334,-0.68 -0.562,-0.329Z" style="fill:#de3c7c;fill-rule:nonzero;"/><path d="M56.125,48.074c-0.936,-1.256 -1.864,-2.511 -2.799,-3.767l1.383,-1.108c0.727,1.015 1.736,2.858 1.416,4.875Z" style="fill:#de3c7c;fill-rule:nonzero;"/><path d="M34.266,43.98c-1.014,1.356 -2.016,2.725 -3.038,4.08c0.087,-0.219 1.309,-3.265 1.984,-5.122c0.407,0.407 0.781,0.775 1.054,1.042Z" style="fill:#de3c7c;fill-rule:nonzero;"/><path d="M32.177,28.252c-1.155,-0.04 -2.326,0.235 -3.465,0.417c-1.29,0.204 -2.641,0.325 -3.878,0.743c-0.242,0.082 -0.204,0.442 0.061,0.451c1.152,0.035 2.323,-0.198 3.465,-0.355c1.291,-0.178 2.663,-0.25 3.897,-0.672c0.314,-0.108 0.265,-0.573 -0.08,-0.584Z" style="fill:#e8cee5;fill-rule:nonzero;"/><path d="M35.095,21.38c-1.597,-0.746 -2.901,-1.536 -4.318,-2.589c-1.161,-0.864 -2.376,-1.726 -3.852,-1.868c-0.249,-0.025 -0.362,0.378 -0.13,0.48c1.592,0.709 2.882,1.614 4.262,2.674c1.131,0.868 2.39,1.851 3.853,1.988c0.357,0.033 0.511,-0.534 0.185,-0.685Z" style="fill:#e8cee5;fill-rule:nonzero;"/><path d="M43.2,11.989c-0.151,-1.931 -0.148,-3.878 -0.338,-5.804c-0.035,-0.354 -0.519,-0.356 -0.553,-0c-0.193,2.021 -0.052,4.105 0.094,6.126c0.133,1.834 0.218,3.76 0.682,5.545c0.1,0.386 0.716,0.313 0.702,-0.095c-0.065,-1.922 -0.438,-3.849 -0.587,-5.772Z" style="fill:#e8cee5;fill-rule:nonzero;"/><path d="M54.715,14.261c-1.994,1.518 -4.015,3.282 -5.735,5.103c-0.261,0.275 0.087,0.789 0.423,0.549c2.036,-1.454 4.065,-3.206 5.836,-4.972c0.336,-0.335 -0.123,-0.985 -0.524,-0.68Z" style="fill:#e8cee5;fill-rule:nonzero;"/><path d="M65.012,28.145c-1.609,-0.523 -3.525,-0.412 -5.21,-0.478c-1.679,-0.066 -3.549,-0.291 -5.175,0.185c-0.164,0.048 -0.163,0.283 0,0.332c1.624,0.483 3.49,0.325 5.175,0.408c1.708,0.084 3.519,0.444 5.21,0.207c0.357,-0.05 0.287,-0.561 0,-0.654Z" style="fill:#e8cee5;fill-rule:nonzero;"/></g></svg>