<?xml version="1.0" encoding="UTF-8" standalone="no"?><!DOCTYPE svg PUBLIC "-//W3C//DTD SVG 1.1//EN" "http://www.w3.org/Graphics/SVG/1.1/DTD/svg11.dtd"><svg width="100%" height="100%" viewBox="0 0 120 116" version="1.1" xmlns="http://www.w3.org/2000/svg" xmlns:xlink="http://www.w3.org/1999/xlink" xml:space="preserve" xmlns:serif="http://www.serif.com/" style="fill-rule:evenodd;clip-rule:evenodd;stroke-linejoin:round;stroke-miterlimit:2;"><g><path d="M116.357,113.498c-1.095,-0.12 -2.191,-0.207 -3.299,-0.261c-0.307,-0.012 -89.882,-0.047 -89.882,-0.047c-0.067,0.007 -0.134,0.007 -0.2,0.014c-0.078,0.006 -0.156,0.015 -0.234,0.021c-0.529,-0 -19.323,-0.035 -19.323,-0.035c-0.066,0.007 -0.133,0.007 -0.2,0.014c-0.481,0.033 -0.961,0.073 -1.436,0.127c-1.228,0.127 -1.228,1.776 -0,1.903c0.481,0.054 0.955,0.094 1.436,0.134c0.06,0.007 0.127,0.007 0.187,0.013c-0,-0 13.035,-0.028 19.338,-0.034c0.077,0.006 0.155,0.014 0.232,0.021c0.059,0.007 0.127,0.007 0.186,0.013c-0,-0 89.589,-0.04 89.903,-0.053c1.108,-0.054 2.204,-0.141 3.292,-0.261c1.002,-0.113 1.008,-1.456 -0,-1.569Z" style="fill:#c6c6c6;fill-rule:nonzero;"/><path d="M63.288,3.121c-3.252,-3.289 -9.796,-4.023 -13.884,-1.989c-8.03,3.997 -7.752,14.492 -9.786,21.891c-1.3,4.729 -3.722,9.187 -7.217,12.626c-6.118,6.02 -14.917,8.491 -21.611,13.862c-7.302,5.859 -11.703,15.42 -10.629,24.72c1.074,9.3 7.951,17.869 17.014,20.221c5.589,1.45 11.589,0.631 17.151,2.18c4.241,1.181 7.987,3.673 12.062,5.337c5.609,2.29 11.724,2.969 17.753,3.567c6.117,0.606 12.471,1.121 18.253,-0.966c7.113,-2.568 12.419,-8.86 15.314,-15.846c2.35,-5.669 3.31,-11.909 2.772,-18.021c-0.357,-4.05 -1.358,-8.065 -1.149,-12.126c0.274,-5.314 2.595,-10.294 3.625,-15.515c1.487,-7.539 0.165,-15.598 -3.651,-22.267c-0.942,-1.646 -2.089,-3.264 -3.75,-4.177c-1.64,-0.9 -3.584,-1.011 -5.454,-1.036c-3.984,-0.055 -7.997,0.182 -11.931,-0.454c-3.933,-0.636 -7.88,-2.265 -10.377,-5.369c-1.679,-2.089 -2.621,-4.733 -4.505,-6.638Z" style="fill:#f6f6f6;fill-rule:nonzero;"/><path d="M118.589,104.38l-71.754,-0c-0.369,-0 -0.668,-0.299 -0.668,-0.668c-0,-0.369 0.299,-0.668 0.668,-0.668l71.754,-0c0.369,-0 0.668,0.299 0.668,0.668c-0,0.369 -0.299,0.668 -0.668,0.668Z" style="fill:#ab8da8;fill-rule:nonzero;"/><path d="M49.108,107.144c-0.627,-0 -1.137,-0.508 -1.137,-1.136l-0,-4.592c-0,-0.628 0.51,-1.137 1.137,-1.137c0.627,-0 1.136,0.509 1.136,1.137l-0,4.592c-0,0.628 -0.509,1.136 -1.136,1.136Z" style="fill:#ab8da8;fill-rule:nonzero;"/><path d="M51.381,111.157c-0.627,-0 -1.137,-0.509 -1.137,-1.137l-0,-12.617c-0,-0.628 0.51,-1.136 1.137,-1.136c0.628,-0 1.137,0.508 1.137,1.136l-0,12.617c-0,0.628 -0.509,1.137 -1.137,1.137Z" style="fill:#ab8da8;fill-rule:nonzero;"/><path d="M53.654,113.066c-0.627,-0 -1.136,-0.508 -1.136,-1.136l-0,-16.056c-0,-0.628 0.509,-1.137 1.136,-1.137c0.628,-0 1.137,0.509 1.137,1.137l-0,16.056c-0,0.628 -0.509,1.136 -1.137,1.136Z" style="fill:#ab8da8;fill-rule:nonzero;"/><path d="M115.322,107.144c0.627,-0 1.136,-0.508 1.136,-1.136l-0,-4.592c-0,-0.628 -0.509,-1.137 -1.136,-1.137c-0.628,-0 -1.136,0.509 -1.136,1.137l-0,4.592c-0,0.628 0.508,1.136 1.136,1.136Z" style="fill:#ab8da8;fill-rule:nonzero;"/><path d="M113.049,111.157c0.627,-0 1.137,-0.509 1.137,-1.137l-0,-12.617c-0,-0.628 -0.51,-1.136 -1.137,-1.136c-0.628,-0 -1.137,0.508 -1.137,1.136l-0,12.617c-0,0.628 0.509,1.137 1.137,1.137Z" style="fill:#ab8da8;fill-rule:nonzero;"/><path d="M110.776,113.066c0.626,-0 1.136,-0.508 1.136,-1.136l-0,-16.056c-0,-0.628 -0.51,-1.137 -1.136,-1.137c-0.628,-0 -1.137,0.509 -1.137,1.137l-0,16.056c-0,0.628 0.509,1.136 1.137,1.136Z" style="fill:#ab8da8;fill-rule:nonzero;"/><path d="M53.539,51.078c-0.394,0.367 -0.814,0.675 -1.249,0.955c-1.122,0.715 -2.35,1.236 -3.432,2.004c-0.141,0.1 -0.281,0.207 -0.415,0.314c-1.576,1.275 -3.218,2.23 -5.008,3.205c-3.974,2.177 -7.687,4.081 -9.11,4.801c-4.921,2.511 -13.92,4.609 -17.133,5.31c-0.741,0.167 -1.178,0.254 -1.178,0.254c-0,-0 -1.796,-2.364 -0.194,-4.428c-0,-0 13.611,-5.87 15.821,-7.34c2.718,-1.802 5.122,-4.327 7.64,-6.43c0.902,-0.755 1.81,-1.503 2.725,-2.238c2.03,-1.656 4.087,-3.265 6.164,-4.848c1.108,-0.841 2.464,-1.897 3.906,-1.996c0.355,-0.028 0.715,-0 1.075,0.106c0.735,0.214 1.356,0.748 1.824,1.369c0.14,0.187 0.26,0.374 0.374,0.561c1.656,2.825 0.468,6.271 -1.81,8.401Z" style="fill:#f5a784;fill-rule:nonzero;"/><path d="M15.809,63.509c0.479,0.184 0.772,0.357 0.772,0.357c-0,-0 1.693,2.32 0.611,3.801c-0.011,0.018 -0.335,0.113 -0.851,0.29c-0.466,0.162 -1.093,0.386 -1.785,0.667c-0.51,0.215 -2.506,1.44 -2.949,1.024c-0.099,-0.091 -0.146,-0.225 -0.186,-0.351c-0.171,-0.501 -0.336,-1.01 -0.506,-1.511c-0.285,-0.871 -0.738,-2.328 0.283,-2.844c-0.618,0.084 -2.086,0.294 -2.51,-0.324l-0.036,-0.482c-0,-0 2.253,-0.52 3.236,-0.851c1.533,-0.514 3.045,-0.126 3.921,0.224Z" style="fill:#f5a784;fill-rule:nonzero;"/><path d="M60.718,79.093c-14.559,3.072 -32.703,4.855 -32.703,4.855c0.421,1.817 0.067,5.322 -0.601,9.183c-1.015,5.87 -2.745,12.577 -3.526,15.48c-0.107,0.394 -0.401,1.462 -0.401,1.462c-2.665,0.755 -4.648,-0.788 -4.648,-0.788c0.007,-0.12 0.011,-0.247 0.014,-0.374c0.006,-0.32 0.019,-0.654 0.019,-1.015c0.141,-8.789 -1.549,-28.255 2.284,-30.62c6.752,-4.167 31.161,-10.998 35.261,-11.286c2.832,-0.193 5.59,0.268 6.818,2.385c0.515,0.888 0.762,2.09 0.622,3.652c-0.013,0.195 -0.04,0.381 -0.067,0.569c-0.842,5.195 3.626,5.082 -3.072,6.497Z" style="fill:#f5a784;fill-rule:nonzero;"/><path d="M59.982,34.151c0.121,0.15 0.268,0.297 0.473,0.451c0.641,0.481 1.374,0.917 2.175,0.915c0.546,-0.001 1.064,-0.277 1.599,-0.212c0.395,0.048 0.716,0.36 1.163,0.354c0.4,-0.005 0.828,-0.229 0.937,-0.614c0.125,-0.442 -0.192,-0.936 -0.022,-1.362c0.222,-0.557 1.011,-0.528 1.538,-0.814c0.598,-0.326 0.823,-1.058 0.994,-1.718c0.206,-0.798 0.412,-1.596 0.619,-2.394c0.146,-0.565 0.293,-1.141 0.256,-1.724c-0.037,-0.582 -0.29,-1.181 -0.785,-1.49c-0.705,-0.44 -1.724,-0.205 -2.344,-0.759c-0.305,-0.272 -0.453,-0.692 -0.771,-0.948c-0.739,-0.595 -1.809,-0.005 -2.756,0.005c-1.283,0.013 -2.333,-1.074 -3.602,-1.268c-0.972,-0.147 -1.992,0.28 -2.639,1.02c-0.592,0.676 -0.923,1.658 -0.911,2.555c0.012,0.776 0.396,1.195 0.732,1.898c0.594,1.239 0.387,2.845 1.31,3.861c0.461,0.508 1.045,0.82 1.45,1.382c0.235,0.326 0.369,0.598 0.584,0.862Z" style="fill:#3b2645;fill-rule:nonzero;"/><path d="M58.39,30.541c-0,-0 -0.886,-1.063 -1.772,-0c-0.885,1.062 0.62,3.097 1.772,3.187c-0,-0 0.133,-2.729 -0,-3.187Z" style="fill:#e0855c;fill-rule:nonzero;"/><path d="M73.507,47.011c-0.407,1.122 -0.875,2.217 -1.235,3.359c-0.087,0.274 -0.167,0.555 -0.241,0.842c-0.133,0.527 -0.254,1.055 -0.361,1.576c-0.066,0.327 -0.127,0.634 -0.174,0.935c-0.34,2.084 -1.359,12.128 -1.519,13.711c-0.014,0.132 -0.023,0.207 -0.023,0.207c-4.675,1.282 -9.443,1.068 -12.608,0.667c-2.271,-0.288 -3.713,-0.667 -3.713,-0.667c-0,-0 -0.014,-0.155 -0.047,-0.449c-0.014,-0.127 -0.027,-0.273 -0.04,-0.447c-0.221,-2.297 -0.815,-8.648 -1.256,-14.712c-0.026,-0.353 -0.127,-1.696 -0.146,-2.01c-0.242,-3.593 -0.402,-6.905 -0.362,-8.962c-0,-0.187 0.115,-0.321 0.294,-0.42c0.548,-0.308 1.77,-0.294 2.678,-0.421c0.207,-0.028 0.421,-0.054 0.628,-0.08c0.214,-0.028 0.421,-0.042 0.635,-0.061c0.481,-0.042 0.955,-0.087 1.388,-0.106c0.715,-0.04 1.329,-0.054 1.717,-0.061c0.073,-0.007 0.14,-0.007 0.2,-0.007l0.247,-0l0.107,-1.175c-0,-0.013 0.077,-0.78 0.077,-0.78l0.199,-2.113c0.134,0.026 0.265,0.055 0.399,0.068c0.267,0.047 0.521,0.07 0.774,0.08c0.341,0.015 0.654,0.014 0.955,-0.013c0.154,-0.013 0.301,-0.027 0.442,-0.046c0.207,-0.028 0.407,-0.061 0.6,-0.101c0.327,-0.066 0.639,-0.161 0.935,-0.254c0.093,-0.029 0.18,-0.053 0.267,-0.093c0.027,-0.006 0.054,-0.013 0.074,-0.027c0.067,-0.026 0.14,-0.054 0.207,-0.08c0.434,-0.174 0.801,-0.367 1.102,-0.548c0.194,-0.113 0.36,-0.22 0.494,-0.313c0.047,-0.033 0.067,-0.047 0.086,-0.061c0.075,-0.052 0.134,-0.093 0.181,-0.133c0.067,-0.047 0.106,-0.081 0.12,-0.093c-0.026,0.146 -0.038,0.207 -0.047,0.273c-0.083,0.67 -0.18,1.529 -0.22,2.385c-0.034,0.841 -0.547,1.769 0.22,2.436c0.294,0.248 0.661,0.388 1.023,0.508c0.54,0.181 1.087,0.327 1.642,0.447c0.681,0.148 1.376,0.254 2.07,0.308c0.375,0.026 0.761,0.05 1.128,0.127c0.234,0.049 0.449,0.113 0.642,0.214c0.748,0.38 1.188,1.215 1.275,2.05c0.134,1.275 -0.387,2.851 -0.814,4.04Z" style="fill:#f5a784;fill-rule:nonzero;"/><path d="M66.598,34.214c-1.031,4.677 -5.739,4.354 -6.845,3.736l0.199,-2.113c3.878,0.791 6.646,-1.623 6.646,-1.623Z" style="fill:#e0855c;fill-rule:nonzero;"/><path d="M58.592,27.469c-0.589,0.612 -0.638,1.985 -0.687,3.503c-0.148,4.595 1.228,6.031 3.576,6.284c2.347,0.253 4.803,-0.651 5.308,-4.911c0.253,-2.131 0.523,-4.1 -0.253,-5.021c-1.155,-1.372 -6.138,-1.733 -7.944,0.145Z" style="fill:#f5a784;fill-rule:nonzero;"/><path d="M66.463,31.729c-0,-0 0.719,-1.903 1.852,-0.894c1.133,1.009 -0.433,3.884 -2.166,3.671c-0,-0 -0.239,-2.125 0.314,-2.777Z" style="fill:#f5a784;fill-rule:nonzero;"/><path d="M67.785,31.7c-0.251,0.044 -0.507,0.28 -0.688,0.45c-0.19,0.177 -0.411,0.398 -0.506,0.644c-0.03,0.077 0.077,0.124 0.13,0.076c0.146,-0.137 0.264,-0.301 0.401,-0.448c0.098,0.105 0.197,0.212 0.333,0.263c0.104,0.038 0.182,-0.092 0.136,-0.177c-0.06,-0.111 -0.168,-0.191 -0.274,-0.264c0.179,-0.139 0.397,-0.247 0.546,-0.409c0.057,-0.063 -0.001,-0.149 -0.078,-0.135Z" style="fill:#e0855c;fill-rule:nonzero;"/><path d="M61.728,32.736c-0.202,-0.03 -0.663,0.09 -0.758,-0.127c-0.079,-0.181 0.245,-1.25 0.291,-1.432c0.165,-0.66 0.339,-1.108 0.463,-1.9c0.006,-0.035 -0.055,-0.054 -0.071,-0.019c-0.465,1.052 -0.639,2.353 -0.92,3.471c-0.016,0.061 0.029,0.126 0.094,0.125c0.295,-0.004 0.582,0.058 0.876,0.06c0.099,-0 0.128,-0.162 0.025,-0.178Z" style="fill:#e0855c;fill-rule:nonzero;"/><path d="M60.359,28.727c-0.285,-0.146 -0.817,-0.184 -1.024,0.112c-0.038,0.054 0.012,0.136 0.075,0.132c0.142,-0.007 0.267,-0.076 0.408,-0.087c0.155,-0.013 0.3,0.021 0.446,0.068c0.132,0.041 0.22,-0.162 0.095,-0.225Z" style="fill:#3b2645;fill-rule:nonzero;"/><path d="M64.545,29.073c-0.162,-0.403 -0.867,-0.442 -1.168,-0.191c-0.069,0.056 -0.025,0.165 0.05,0.188c0.175,0.055 0.361,-0.011 0.543,0.005c0.16,0.015 0.288,0.085 0.436,0.138c0.077,0.026 0.17,-0.061 0.139,-0.14Z" style="fill:#3b2645;fill-rule:nonzero;"/><path d="M63.097,30.338c0.306,-0.13 0.669,-0.138 0.997,-0.11c0.28,0.025 0.645,0.058 0.836,0.284c0.018,0.021 0.015,0.064 -0.019,0.069c-0.27,0.043 -0.545,-0.081 -0.817,-0.103c-0.321,-0.025 -0.624,0.045 -0.942,0.064c-0.103,0.006 -0.156,-0.161 -0.055,-0.204Z" style="fill:#3b2645;fill-rule:nonzero;"/><path d="M59.602,30.047c0.312,-0.001 0.632,0.093 0.871,0.294c0.14,0.118 -0.038,0.305 -0.183,0.238c-0.246,-0.115 -0.459,-0.204 -0.739,-0.186c-0.218,0.013 -0.41,0.149 -0.624,0.129c-0.089,-0.007 -0.139,-0.09 -0.099,-0.172c0.126,-0.257 0.513,-0.303 0.774,-0.303Z" style="fill:#3b2645;fill-rule:nonzero;"/><path d="M60.515,34.021c0.453,0.094 0.846,0.236 1.318,0.161c0.432,-0.07 0.733,-0.33 1.124,-0.475c0.077,-0.029 0.133,0.067 0.1,0.13c-0.419,0.807 -2.011,0.922 -2.661,0.39c-0.103,-0.084 0.01,-0.228 0.119,-0.206Z" style="fill:#e0855c;fill-rule:nonzero;"/><path d="M107.419,108.858c-0.321,0.982 -0.668,1.97 -1.115,2.905c-0.722,1.496 -2.425,1.369 -3.934,1.336c-0.447,-0.014 -0.922,-0.034 -1.282,-0.301c-0.36,-0.26 -0.506,-0.867 -0.16,-1.149c0.125,-0.102 0.287,-0.146 0.44,-0.2c0.835,-0.307 1.283,-1.075 1.676,-1.823c0.488,-0.935 0.621,-2.277 0.575,-3.326c-0.161,-0.027 -0.942,-0.166 -1.169,-0.207c-9.45,-1.756 -18.932,-4.588 -27.534,-8.929c-13.182,-6.645 -17.977,-29.817 -17.931,-30.031c0.768,-3.433 8.611,-4.575 12.992,0.301c4.381,4.88 7.096,20.815 9.774,22.337c2.805,1.597 18.826,10.032 26.439,12.475c0.42,0.134 0.815,0.254 1.182,0.348c2.09,0.548 0.554,4.721 0.047,6.264Z" style="fill:#f5a784;fill-rule:nonzero;"/><path d="M23.413,113.393c-0.62,0.447 -1.469,0.387 -2.19,0.427c-1.589,0.093 -3.179,0.033 -4.761,-0.02c-1.042,-0.033 -2.077,-0.073 -3.119,-0.134c-0.861,-0.047 -2.217,0.107 -2.945,-0.347c-0.094,-0.06 -0.187,-0.133 -0.214,-0.24c-0.02,-0.094 0.013,-0.187 0.06,-0.268c0.194,-0.327 0.561,-0.487 0.915,-0.607c1.589,-0.555 3.285,-0.748 4.862,-1.336c1.075,-0.4 2.113,-1.049 2.832,-1.957c0.09,-0.115 0.179,-0.233 0.254,-0.36c0.113,-0.187 0.204,-0.388 0.287,-0.581c0.266,-0.624 0.473,-1.222 1.195,-1.543c1.509,-0.674 3.517,0.402 3.299,2.184c-0.038,0.314 -0.067,0.615 -0.087,0.915c-0.014,0.173 -0.026,0.347 -0.033,0.521c-0.068,1.141 0.814,2.511 -0.355,3.346Z" style="fill:#f5a784;fill-rule:nonzero;"/><path d="M76.132,71.234l4.853,6.871c-0.872,0.616 -1.08,1.822 -0.463,2.694c0.615,0.871 1.821,1.079 2.693,0.463l2.042,-1.443c0.872,-0.615 1.08,-1.821 0.464,-2.693c-0.616,-0.871 -1.821,-1.079 -2.694,-0.463l-4.852,-6.871c0.871,-0.615 1.079,-1.821 0.463,-2.693c-0.615,-0.871 -1.821,-1.08 -2.694,-0.463l-2.042,1.442c-0.872,0.615 -1.079,1.821 -0.463,2.693c0.616,0.872 1.821,1.08 2.693,0.463Z" style="fill:#ab8da8;fill-rule:nonzero;"/><path d="M80.452,71.273c0.007,-0.02 0.02,-0.04 0.04,-0.06c-0.007,0.033 -0.02,0.047 -0.04,0.06Zm9.329,-17.731c-0.433,-1.636 -1.629,-2.958 -2.838,-4.14c-0.921,-0.908 -1.87,-1.816 -2.858,-2.684c-3.359,-2.986 -7.121,-5.523 -11.66,-6.004c-0.12,-0.013 -0.227,-0.028 -0.327,-0.033c-1.216,-0.094 -2.458,0.193 -3.4,0.821c-0.841,0.554 -1.451,1.386 -1.576,2.447c-0.048,0.407 -0.026,0.838 0.073,1.306c0.108,0.494 0.282,0.948 0.508,1.369c0.922,1.709 2.732,2.845 4.569,3.746c0.828,0.401 1.662,0.762 2.417,1.096c1.549,0.687 3.138,1.315 4.641,2.09c1.015,0.521 1.99,1.115 2.878,1.837c0.234,0.186 0.461,0.386 0.588,0.654c0.147,0.334 0.12,0.715 0.087,1.082c-0.381,4.187 -0.181,9.456 -2.518,13.122c-0.367,0.574 -0.848,1.082 -1.508,1.51c-0.282,0.174 -0.569,0.347 -0.842,0.527c-0.428,0.273 -0.822,0.588 -1.143,0.976c-0.534,0.64 -0.801,1.589 -0.38,2.31c0.881,1.523 3.64,1.984 4.675,0.581c0.24,-0.327 0.474,-0.661 0.701,-1.002c0.367,-0.548 0.721,-1.129 1.048,-1.696c0.902,-1.557 1.696,-3.172 2.465,-4.762c1.168,-2.417 2.317,-4.855 3.306,-7.352c0.868,-2.198 1.709,-5.449 1.094,-7.801Z" style="fill:#f5a784;fill-rule:nonzero;"/><path d="M23.413,113.393c-0.62,0.447 -1.469,0.387 -2.19,0.427c-1.789,0.105 -3.578,0.016 -5.358,-0.04c-0.866,-0.027 -1.73,-0.082 -2.595,-0.117c-0.864,-0.035 -2.164,0.098 -2.872,-0.344c-0.094,-0.06 -0.187,-0.133 -0.214,-0.24c-0.02,-0.094 0.013,-0.187 0.06,-0.268c0.194,-0.327 0.561,-0.487 0.915,-0.607c1.589,-0.555 3.285,-0.748 4.862,-1.336c0.694,-0.259 1.38,-0.615 1.967,-1.083c0.568,-0.451 0.884,-1.153 0.884,-1.878c0.174,-0.011 0.355,0.015 0.522,0.063c0.756,0.216 1.388,0.861 1.502,1.642c0.714,0.609 1.776,0.087 2.731,-0.059c0.061,-0.014 0.114,-0.021 0.174,-0.027c-0.014,0.173 -0.026,0.347 -0.033,0.521c-0.068,1.141 0.814,2.511 -0.355,3.346Z" style="fill:#3b2645;fill-rule:nonzero;"/><path d="M107.419,108.858c-0.321,0.982 -0.668,1.97 -1.115,2.905c-0.722,1.496 -2.425,1.369 -3.934,1.336c-0.447,-0.014 -0.922,-0.034 -1.282,-0.301c-0.36,-0.26 -0.506,-0.867 -0.16,-1.149c0.125,-0.102 0.287,-0.146 0.44,-0.2c0.835,-0.307 1.283,-1.075 1.676,-1.823c0.488,-0.935 0.621,-2.277 0.575,-3.326c-0.161,-0.027 0.274,-0.828 0.788,-0.935c0.267,-0.054 0.54,-0.059 0.801,-0.139c0.614,-0.202 1.016,-0.835 1.122,-1.477c0.08,-0.494 -0.073,-1.008 -0.14,-1.503c0.42,0.134 0.815,0.254 1.182,0.348c2.09,0.548 0.554,4.721 0.047,6.264Z" style="fill:#3b2645;fill-rule:nonzero;"/><path d="M11.497,62.053l2.262,8.101c-1.028,0.287 -1.629,1.354 -1.342,2.381c0.287,1.028 1.353,1.629 2.381,1.342l2.409,-0.672c1.027,-0.287 1.628,-1.353 1.341,-2.381c-0.286,-1.028 -1.353,-1.629 -2.381,-1.342l-2.262,-8.102c1.029,-0.287 1.629,-1.353 1.342,-2.381c-0.287,-1.027 -1.352,-1.628 -2.381,-1.341l-2.408,0.672c-1.028,0.287 -1.629,1.354 -1.342,2.381c0.287,1.028 1.353,1.629 2.381,1.342Z" style="fill:#ab8da8;fill-rule:nonzero;"/><path d="M13.786,64.824c0.243,0.271 0.403,0.606 0.535,0.945c0.243,0.613 0.414,1.268 0.371,1.926c-0.044,0.658 -0.329,1.322 -0.858,1.714c-0.343,0.254 -0.763,0.381 -1.181,0.47c-0.296,0.062 -0.604,0.107 -0.902,0.049c-0.533,-0.106 -0.955,-0.539 -1.184,-1.032c-0.23,-0.493 -0.296,-1.043 -0.35,-1.585c-0.093,-0.928 -0.026,-2.001 0.841,-2.56c0.786,-0.507 2.039,-0.693 2.728,0.073Z" style="fill:#f5a784;fill-rule:nonzero;"/><path d="M84.085,46.718c-0.875,2.35 -2.284,4.501 -4.094,6.244c-0.214,0.2 -0.433,0.4 -0.661,0.594c-1.503,-0.775 -3.092,-1.403 -4.641,-2.09c-0.755,-0.334 -1.589,-0.695 -2.417,-1.096c-0.087,0.274 -0.167,0.555 -0.241,0.842c-0.133,0.527 -0.254,1.055 -0.361,1.576c-0.066,0.327 -0.127,0.634 -0.174,0.935c-0.34,2.084 -1.359,12.128 -1.519,13.711c-0.014,0.132 -0.023,0.207 -0.023,0.207c-4.675,1.282 -9.443,1.068 -12.608,0.667c-2.271,-0.288 -3.713,-0.667 -3.713,-0.667c-0,-0 -0.014,-0.155 -0.047,-0.449c-0.014,-0.127 -0.027,-0.273 -0.04,-0.447c-0.221,-2.297 -0.815,-8.648 -1.256,-14.712c-1.122,0.715 -2.35,1.236 -3.432,2.004c-1.41,-0.434 -2.689,-1.208 -3.814,-2.164c-0.257,-0.219 -0.501,-0.447 -0.734,-0.694c-0.882,-0.922 -2.003,-2.305 -2.304,-3.694c2.03,-1.656 4.087,-3.265 6.164,-4.848c1.108,-0.841 2.464,-1.897 3.906,-1.996c0.548,-0.308 1.77,-0.294 2.678,-0.421c0.207,-0.028 0.421,-0.054 0.628,-0.08c0.214,-0.028 0.421,-0.047 0.635,-0.061c0.093,2.004 0.68,4.014 2.183,5.282c1.803,1.524 4.575,1.55 6.659,0.435c0.868,-0.468 1.621,-1.107 2.263,-1.847c0.64,-0.736 1.162,-1.566 1.576,-2.447c0.181,-0.367 0.334,-0.748 0.475,-1.129c0.013,-0.033 0.026,-0.066 0.033,-0.101c0.681,0.148 1.376,0.254 2.07,0.308c0.375,0.026 0.761,0.047 1.128,0.127c4.562,0.468 8.322,3.025 11.681,6.011Z" style="fill:#e8cee5;fill-rule:nonzero;"/><path d="M18.816,102.203c2.664,1.702 6.624,0.287 6.624,0.287c3.406,-6.304 3.672,-17.77 3.672,-17.77c-0,-0 19.521,-1.45 27.247,-1.45c1.677,-0 2.946,0.34 3.995,0.942c3.793,2.177 4.708,7.746 11.385,12.955c8.522,6.652 24.383,7.58 24.383,7.58c2.304,-1.71 2.17,-5.683 2.17,-5.683c-0,-0 -2.404,-2.938 -6.905,-5.49c-0.821,-0.473 -1.723,-0.928 -2.685,-1.348c-6.03,-2.645 -8.935,-4.889 -9.115,-5.029c-2.992,-10.151 -9.537,-20.469 -9.537,-20.469c-9.442,2.21 -16.575,-0.781 -16.575,-0.781c-4.12,-0 -30.078,8.374 -33.485,11.099c-3.412,2.731 -3.839,23.447 -1.174,25.157Z" style="fill:#3b2645;fill-rule:nonzero;"/><path d="M29.112,84.72c-0,-0 19.521,-1.45 27.247,-1.45c1.677,-0 2.946,0.34 3.995,0.942c-0.034,-0.207 -0.869,-4.541 -8.576,-4.321c-7.893,0.227 -22.666,4.829 -22.666,4.829Z" style="fill:#291b30;fill-rule:nonzero;"/><path d="M84.469,93.194c2.517,0.514 5.042,0.507 6.918,0.38c-0.821,-0.473 -1.723,-0.928 -2.685,-1.348c-6.03,-2.645 -8.935,-4.889 -9.115,-5.029c-0,-0 -0.12,4.975 4.882,5.997Z" style="fill:#291b30;fill-rule:nonzero;"/><path d="M52.29,52.033c-1.122,0.715 -2.35,1.236 -3.432,2.004c-1.41,-0.434 -2.706,-1.189 -3.814,-2.164c3.773,-0.908 7.246,0.16 7.246,0.16Z" style="fill:#d6bed3;fill-rule:nonzero;"/><path d="M80.009,8.781c-1.407,1.574 -2.325,3.738 -3.335,5.584c-0.972,1.778 -2.47,3.833 -2.796,5.847c-0.016,0.099 0.095,0.18 0.175,0.101c1.463,-1.43 2.299,-3.775 3.289,-5.558c1.029,-1.851 2.416,-3.717 3.102,-5.72c0.084,-0.244 -0.264,-0.445 -0.435,-0.254Z" style="fill:#e8cee5;fill-rule:nonzero;"/><path d="M96.256,18.281c-3.624,1.808 -7.097,4.031 -10.53,6.175c-3.269,2.04 -6.685,4.07 -9.647,6.545c-0.226,0.188 0.063,0.533 0.307,0.397c3.449,-1.921 6.686,-4.276 10.046,-6.353c3.373,-2.087 6.878,-3.955 10.248,-6.038c0.464,-0.287 0.057,-0.966 -0.424,-0.726Z" style="fill:#e8cee5;fill-rule:nonzero;"/><path d="M92.259,31.802c-2.41,-0.189 -4.975,0.221 -7.39,0.368c-0.55,0.033 -0.554,0.891 -0,0.86c2.45,-0.137 5.08,-0.032 7.489,-0.506c0.429,-0.085 0.291,-0.692 -0.099,-0.722Z" style="fill:#e8cee5;fill-rule:nonzero;"/></g></svg>