<?xml version="1.0" encoding="UTF-8" standalone="no"?><!DOCTYPE svg PUBLIC "-//W3C//DTD SVG 1.1//EN" "http://www.w3.org/Graphics/SVG/1.1/DTD/svg11.dtd"><svg width="100%" height="100%" viewBox="0 0 150 146" version="1.1" xmlns="http://www.w3.org/2000/svg" xmlns:xlink="http://www.w3.org/1999/xlink" xml:space="preserve" xmlns:serif="http://www.serif.com/" style="fill-rule:evenodd;clip-rule:evenodd;stroke-linejoin:round;stroke-miterlimit:2;"><g><path d="M104.352,29.688c0,-16.385 -13.303,-29.688 -29.687,-29.688c-16.385,0 -29.688,13.303 -29.688,29.688l0,29.537c0,16.385 13.303,29.687 29.688,29.687c16.384,0 29.687,-13.302 29.687,-29.687l0,-29.537Zm-10,-0l0,29.537c0,10.865 -8.822,19.687 -19.687,19.687c-10.866,0 -19.688,-8.822 -19.688,-19.687c0,-0 0,-29.537 0,-29.537c0,-10.866 8.822,-19.688 19.688,-19.688c10.865,0 19.687,8.822 19.687,19.688Z" style="fill:url(#_Linear1);"/><path d="M51.941,129.324c-11.707,-11.655 -24.105,-23.998 -26.868,-26.747c-6.367,-6.149 -10.328,-14.773 -10.328,-24.315c-0,-18.658 15.148,-33.806 33.806,-33.806c10.512,0 19.91,4.808 26.114,12.345l0.145,-0.176c6.205,-7.435 15.538,-12.169 25.968,-12.169c18.658,0 33.806,15.148 33.806,33.806c0,9.542 -3.961,18.166 -10.328,24.315c-3.692,3.672 -24.581,24.47 -38.044,37.875c-6.386,6.357 -16.71,6.357 -23.095,-0.001c-5.618,-5.593 -11.176,-11.127 -11.176,-11.127Zm70.448,-94.386c14.403,9.345 23.94,25.568 23.94,44.001c0,0.827 0.672,1.5 1.5,1.5c0.828,-0 1.5,-0.673 1.5,-1.5c0,-19.487 -10.08,-36.638 -25.307,-46.518c-0.695,-0.451 -1.624,-0.253 -2.075,0.442c-0.45,0.694 -0.252,1.624 0.442,2.075Zm-97.082,-2.517c-15.227,9.88 -25.307,27.031 -25.307,46.518c0,0.827 0.672,1.5 1.5,1.5c0.828,-0 1.5,-0.673 1.5,-1.5c-0,-18.433 9.537,-34.656 23.94,-44.001c0.694,-0.451 0.892,-1.381 0.442,-2.075c-0.451,-0.695 -1.38,-0.893 -2.075,-0.442Zm97.082,13.293c9.922,6.438 16.491,17.612 16.491,30.309c-0,0.828 0.672,1.5 1.5,1.5c0.828,0 1.5,-0.672 1.5,-1.5c-0,-13.751 -7.113,-25.854 -17.858,-32.825c-0.695,-0.451 -1.624,-0.253 -2.075,0.442c-0.45,0.694 -0.252,1.624 0.442,2.074Zm-97.082,-2.516c-10.745,6.971 -17.858,19.074 -17.858,32.825c0,0.828 0.672,1.5 1.5,1.5c0.828,0 1.5,-0.672 1.5,-1.5c0,-12.697 6.569,-23.871 16.491,-30.309c0.694,-0.45 0.892,-1.38 0.442,-2.074c-0.451,-0.695 -1.38,-0.893 -2.075,-0.442Z" style="fill:url(#_Linear2);"/><path d="M56.329,94.2l14,14c1.953,1.953 5.118,1.953 7.071,0l29.4,-29.4c1.951,-1.951 1.951,-5.119 0,-7.071c-1.951,-1.951 -5.12,-1.951 -7.071,0l-25.865,25.865c0.001,-0 -10.464,-10.465 -10.464,-10.465c-1.951,-1.951 -5.12,-1.951 -7.071,0c-1.951,1.952 -1.951,5.12 -0,7.071Z" style="fill:#fff;"/></g><defs><linearGradient id="_Linear1" x1="0" y1="0" x2="1" y2="0" gradientUnits="userSpaceOnUse" gradientTransform="matrix(1.36498e-15,78.9121,-22.2918,4.83197e-15,74.6645,5)"><stop offset="0" style="stop-color:#ff5627;stop-opacity:1"/><stop offset="0.49" style="stop-color:#d61532;stop-opacity:1"/><stop offset="1" style="stop-color:#c90035;stop-opacity:1"/></linearGradient><linearGradient id="_Linear2" x1="0" y1="0" x2="1" y2="0" gradientUnits="userSpaceOnUse" gradientTransform="matrix(6.95268e-15,113.546,-113.546,6.95268e-15,76.1978,35.7278)"><stop offset="0" style="stop-color:#ff5627;stop-opacity:1"/><stop offset="0.52" style="stop-color:#d71731;stop-opacity:1"/><stop offset="1" style="stop-color:#c90035;stop-opacity:1"/></linearGradient></defs></svg>