<?xml version="1.0" encoding="UTF-8" standalone="no"?><!DOCTYPE svg PUBLIC "-//W3C//DTD SVG 1.1//EN" "http://www.w3.org/Graphics/SVG/1.1/DTD/svg11.dtd"><svg width="100%" height="100%" viewBox="0 0 150 146" version="1.1" xmlns="http://www.w3.org/2000/svg" xmlns:xlink="http://www.w3.org/1999/xlink" xml:space="preserve" xmlns:serif="http://www.serif.com/" style="fill-rule:evenodd;clip-rule:evenodd;stroke-linejoin:round;stroke-miterlimit:2;"><path d="M44.977,44.643l-0,-14.955c-0,-16.385 13.303,-29.688 29.688,-29.688c16.384,0 29.687,13.303 29.687,29.688l-0,14.955c16.981,1.788 30.232,16.168 30.232,33.619c-0,9.542 -3.961,18.166 -10.328,24.315c-3.692,3.672 -24.581,24.47 -38.044,37.875c-6.386,6.357 -16.71,6.357 -23.095,-0.001c-5.618,-5.593 -11.176,-11.127 -11.176,-11.127c-11.707,-11.655 -24.105,-23.998 -26.868,-26.747c-6.367,-6.149 -10.328,-14.773 -10.328,-24.315c-0,-17.451 13.251,-31.831 30.232,-33.619Zm11.352,49.557l14,14c1.953,1.953 5.118,1.953 7.071,0l29.4,-29.4c1.951,-1.951 1.951,-5.119 0,-7.071c-1.951,-1.951 -5.12,-1.951 -7.071,0l-25.865,25.865c0.001,0 -10.464,-10.465 -10.464,-10.465c-1.951,-1.951 -5.12,-1.951 -7.071,-0c-1.951,1.952 -1.951,5.12 0,7.071Zm66.06,-59.262c14.403,9.345 23.94,25.568 23.94,44.001c0,0.827 0.672,1.5 1.5,1.5c0.828,0 1.5,-0.673 1.5,-1.5c0,-19.487 -10.08,-36.638 -25.307,-46.518c-0.695,-0.451 -1.624,-0.253 -2.075,0.442c-0.45,0.694 -0.252,1.624 0.442,2.075Zm-97.082,-2.517c-15.227,9.88 -25.307,27.031 -25.307,46.518c0,0.827 0.672,1.5 1.5,1.5c0.828,0 1.5,-0.673 1.5,-1.5c0,-18.433 9.537,-34.656 23.94,-44.001c0.694,-0.451 0.892,-1.381 0.442,-2.075c-0.451,-0.695 -1.38,-0.893 -2.075,-0.442Zm97.082,13.293c9.922,6.438 16.491,17.612 16.491,30.309c0,0.828 0.672,1.5 1.5,1.5c0.828,-0 1.5,-0.672 1.5,-1.5c0,-13.751 -7.113,-25.854 -17.858,-32.825c-0.695,-0.451 -1.624,-0.253 -2.075,0.442c-0.45,0.694 -0.252,1.624 0.442,2.074Zm-97.082,-2.516c-10.745,6.971 -17.858,19.074 -17.858,32.825c0,0.828 0.672,1.5 1.5,1.5c0.828,-0 1.5,-0.672 1.5,-1.5c0,-12.697 6.569,-23.871 16.491,-30.309c0.694,-0.45 0.892,-1.38 0.442,-2.074c-0.451,-0.695 -1.38,-0.893 -2.075,-0.442Zm69.045,1.869l-0,-15.379c-0,-10.866 -8.822,-19.688 -19.687,-19.688c-10.866,-0 -19.688,8.822 -19.688,19.688l-0,15.379c7.875,1.518 14.781,5.772 19.688,11.734l0.145,-0.176c4.898,-5.869 11.746,-10.055 19.542,-11.558Z" style="fill:#fff;"/></svg>