<?xml version="1.0" encoding="UTF-8" standalone="no"?><!DOCTYPE svg PUBLIC "-//W3C//DTD SVG 1.1//EN" "http://www.w3.org/Graphics/SVG/1.1/DTD/svg11.dtd"><svg width="100%" height="100%" viewBox="0 0 91 136" version="1.1" xmlns="http://www.w3.org/2000/svg" xmlns:xlink="http://www.w3.org/1999/xlink" xml:space="preserve" xmlns:serif="http://www.serif.com/" style="fill-rule:evenodd;clip-rule:evenodd;stroke-linejoin:round;stroke-miterlimit:2;"><g><path d="M27.207,22.353c-1.31,3.922 -3.195,8.049 -6.869,9.946c-2.491,1.286 -5.47,1.348 -7.978,2.601c-2.847,1.423 -4.743,4.193 -6.385,6.919c-1.361,2.26 -2.662,4.648 -2.964,7.268c-0.42,3.643 1.132,7.18 2.312,10.653c1.82,5.354 2.811,10.988 2.929,16.642c0.143,6.876 -0.981,13.907 0.831,20.541c2.699,9.882 12.693,17.478 22.907,16.701c3.302,-0.252 6.496,-1.284 9.779,-1.722c4.492,-0.598 9.13,-0.057 13.363,1.557c3.665,1.398 7.25,3.627 11.161,3.33c4.301,-0.326 7.833,-3.733 9.767,-7.589c4.024,-8.027 2.497,-17.675 -0.044,-26.287c-2.54,-8.612 -6.039,-17.213 -5.693,-26.186c0.46,-11.965 7.75,-23.498 5.388,-35.237c-0.728,-3.616 -2.352,-6.999 -4.293,-10.137c-1.815,-2.935 -3.975,-5.744 -6.846,-7.66c-3.104,-2.072 -6.846,-2.97 -10.55,-3.431c-6.019,-0.751 -12.939,-0.082 -16.809,4.589c-4.493,5.423 -7.774,10.817 -10.006,17.502Z" style="fill:#f6f6f6;fill-rule:nonzero;"/><path d="M81.823,134.951c-1.085,0.12 -2.177,0.207 -3.283,0.26l-62.775,0.053c-0.06,-0.007 -0.126,-0.008 -0.187,-0.014c-0.106,-0.008 -0.219,-0.02 -0.326,-0.026c-0.366,-0.033 -0.733,-0.066 -1.105,-0.106c-1.225,-0.127 -1.225,-1.772 0,-1.898c0.366,-0.04 0.739,-0.074 1.112,-0.1c0.106,-0.013 0.213,-0.018 0.319,-0.027c0.067,-0.005 0.133,-0.006 0.2,-0.013l62.756,0.046c1.106,0.054 2.197,0.141 3.289,0.26c1.006,0.114 0.999,1.452 0,1.565Z" style="fill:#c6c6c6;fill-rule:nonzero;"/><path d="M51.388,28.827c0.011,0.151 0.04,0.3 0.103,0.443c0.485,1.101 1.523,1.023 1.262,2.455c-0.158,0.867 -0.706,1.676 -1.492,2.088c-1.414,0.742 -3.481,0.381 -4.345,1.724c-0.21,0.327 -0.314,0.724 -0.575,1.014c-0.788,0.873 -2.235,0.206 -3.39,0.427c-1.35,0.257 -2.243,1.753 -3.611,1.889c-0.953,0.095 -1.826,-0.505 -2.764,-0.702c-1.153,-0.242 -2.332,0.136 -3.484,0.381c-1.153,0.246 -2.467,0.325 -3.397,-0.398c-0.782,-0.608 -1.091,-1.576 -1.592,-2.391c-0.539,-0.876 -1.375,-1.182 -1.976,-1.965c-0.937,-1.222 0.53,-2.568 0.958,-3.666c0.314,-0.806 0.146,-1.644 0.408,-2.463c0.176,-0.551 0.705,-0.901 1.224,-1.164c0.816,-0.411 1.221,-0.613 1.517,-1.459c0.33,-0.945 0.41,-1.913 0.701,-2.859c0.419,-1.337 1.367,-2.394 2.338,-3.368c1.259,-1.261 3.078,-1.812 4.788,-2.087c1.903,-0.299 3.625,0.262 5.315,1.175c1.176,0.639 2.244,1.566 2.816,2.779c0.152,0.324 0.282,0.677 0.458,0.985c0.144,0.251 0.318,0.472 0.57,0.623c0.462,0.274 1.082,0.241 1.473,0.604c0.551,0.502 0.309,1.305 0.635,1.901c0.3,0.55 0.825,0.751 1.239,1.184c0.389,0.407 0.668,0.781 0.823,1.345c0.132,0.482 -0.036,1.01 -0.002,1.505Z" style="fill:#3b2645;fill-rule:nonzero;"/><path d="M44.121,22.645c0,-0 0.089,8.87 4.51,9.791c0,-0 -0.932,6.927 -4.15,8.174c-3.217,1.246 -4.254,-6.687 -4.254,-6.687l-0.456,-6.04l4.35,-5.238Z" style="fill:#25182b;fill-rule:nonzero;"/><path d="M60.95,25.021c-1.065,-3.935 -2.677,-7.73 -4.334,-11.445c-0.753,-1.698 -1.545,-3.436 -2.444,-5.087c-0.466,-0.853 -0.966,-1.685 -1.518,-2.477c-0.174,-0.253 -0.393,-0.447 -0.653,-0.586c-1.238,-0.686 -3.256,-0.213 -4.022,1.005c-0.439,0.706 -0.206,1.665 0.3,2.317c0.14,0.18 0.286,0.333 0.447,0.48c0.445,0.413 0.971,0.739 1.484,1.078c0.513,0.346 0.906,0.753 1.225,1.199c0.966,1.365 1.179,3.103 1.638,4.814c0.779,2.95 1.571,5.906 2.357,8.862c0,-0 -0.952,1.099 -2.324,2.411c-1.121,1.081 -2.335,2.047 -3.452,3.125c-0.456,0.441 -1.006,0.77 -1.528,1.129c-0.191,0.131 -0.379,0.267 -0.567,0.403c-0.78,0.571 -1.539,1.18 -2.385,1.651c-0.414,0.231 -0.848,0.428 -1.303,0.562c-0.496,0.145 -0.834,0.442 -1.239,0.767c-0.649,0.52 -1.294,1.073 -1.82,1.721c-0.183,0.226 -0.353,0.465 -0.487,0.723c-0.077,0.15 -0.13,0.533 -0.243,0.645l-0.013,0.08c-0.086,0.533 1.259,0.593 3.103,0.433c0.706,-0.06 1.492,-0.153 2.297,-0.266c0.42,-0.06 0.846,-0.127 1.272,-0.193c0.207,-0.034 0.4,-0.054 0.586,-0.06c1.971,-0.126 2.937,0.812 3.283,1.258c0.106,0.134 0.153,0.227 0.153,0.227c0,-0 5.753,-6.765 6.518,-7.731c0.154,-0.193 0.307,-0.38 0.453,-0.572c1.944,-2.504 3.616,-5.161 3.216,-6.473Z" style="fill:#f5a784;fill-rule:nonzero;"/><path d="M51.355,55.571c0.06,0.206 0.12,0.412 0.187,0.612c-1.419,0.393 -2.85,0.746 -4.288,1.059c-0.28,0.067 -0.56,0.126 -0.839,0.186c-1.219,0.267 -2.304,0.3 -3.183,1.059c-0.127,0.107 -0.253,0.213 -0.373,0.32c-0.366,0.313 -0.719,0.612 -1.092,0.892c-0.339,0.259 -0.706,0.506 -1.125,0.739c-1.618,0.905 -3.31,2.21 -4.008,3.962c-0.32,0.799 -0.433,1.431 -0.972,2.15c-0.26,0.346 -2.091,1.798 -2.091,2.084c-0.034,-1.518 0.111,-2.949 0.372,-4.354c0.345,-1.852 0.893,-3.616 1.485,-5.467c0.053,-0.16 0.107,-0.319 0.16,-0.486c0.093,-0.28 0.167,-0.573 0.226,-0.866c0.54,-2.45 0.187,-5.299 -0.152,-7.697c-0.02,-0.166 -0.064,-0.327 -0.094,-0.486c-0.256,-1.389 -0.559,-2.743 -0.919,-4.094c-0.013,-0.054 -0.026,-0.114 -0.04,-0.167c-0.059,-0.233 -0.119,-0.446 -0.179,-0.659c-0.214,-0.773 -0.453,-1.532 -0.74,-2.297c-0.552,-1.505 -1.331,-3.163 -1.251,-4.828c0.039,-0.819 0.611,-1.269 1.338,-1.538c0.638,-0.236 1.342,-0.339 1.911,-0.466c0.107,-0.024 0.213,-0.046 0.313,-0.06c0.027,-0.013 0.06,-0.02 0.086,-0.02c0.227,-0.046 0.447,-0.087 0.64,-0.12c0.18,-0.033 0.339,-0.06 0.486,-0.086c0.053,-0.014 0.099,-0.02 0.146,-0.027c0.427,-0.073 0.66,-0.12 0.66,-0.167l-1,-6.205c0,-0 0.713,-0.187 1.612,-0.273c1.299,-0.12 2.971,-0.007 3.251,1.278l1.377,4.515c0,-0 0.06,-0 0.166,-0.007c0.173,-0.007 1.145,-0.04 1.265,-0.04c0.473,-0.007 1.019,-0.007 1.552,0.007c0.139,0.006 0.299,0.02 0.465,0.026c0.274,0.014 0.573,0.02 0.873,0.033c0.839,0.061 1.625,0.24 1.918,1.06c0.453,1.284 0.612,2.536 1.225,3.814c0.093,0.187 0.181,0.379 0.266,0.573c0.468,1.069 0.779,2.238 0.42,3.323c-0.147,0.459 -0.423,0.867 -0.626,1.305c-0.119,0.257 -0.22,0.586 -0.3,0.972c-0.453,2.184 -0.237,6.215 0.646,9.635c0.072,0.28 0.146,0.546 0.226,0.806Z" style="fill:#f5a784;fill-rule:nonzero;"/><path d="M20.307,14.561c-0.007,-0.033 0,-0.046 0.013,-0.066c0,0.02 -0.007,0.04 -0.013,0.066Zm18.477,21.88c-0.007,-0.033 -0.013,-0.067 -0.027,-0.093c-0.052,-0.14 -0.115,-0.272 -0.193,-0.4c-0.138,-0.23 -0.319,-0.439 -0.552,-0.619c-0.2,-0.146 -0.407,-0.287 -0.633,-0.4c-0.073,-0.053 -5.28,-1.478 -7.464,-1.884c-0.373,-0.067 -0.752,-0.133 -1.152,-0.207c-0.632,-0.112 -1.225,-0.246 -1.771,-0.392c-4.328,-1.159 -5.966,-3.183 -5.966,-3.183c-0.113,-3.056 -0.22,-6.113 -0.333,-9.169c-0.06,-1.611 -0.32,-3.196 0.04,-4.66c0.16,-0.666 0.453,-1.299 0.939,-1.912c0.206,-0.252 0.419,-0.512 0.619,-0.772c0.313,-0.393 0.593,-0.813 0.772,-1.285c0.3,-0.773 0.24,-1.758 -0.386,-2.304c-1.318,-1.152 -4.075,-0.699 -4.601,0.952c-0.126,0.393 -0.239,0.779 -0.339,1.172c-0.167,0.639 -0.313,1.298 -0.447,1.944c-0.346,1.751 -0.579,3.536 -0.785,5.281c-0.506,4.041 -0.932,8.136 -0.812,12.211c0.006,1.591 4.634,4.715 9.029,7.318c0.619,0.366 1.231,0.726 1.831,1.065c2.77,1.592 5.925,2.67 7.743,5.407c0.067,0.1 0.135,0.198 0.194,0.3c0.034,0.059 0.073,0.126 0.112,0.186c0.167,0.246 0.38,0.486 0.64,0.513c0.04,0.006 0.08,0.006 0.12,-0c0.3,-0.04 0.486,-0.333 0.639,-0.593c0.959,-1.691 3.562,-6.026 2.783,-8.476Z" style="fill:#f5a784;fill-rule:nonzero;"/><path d="M58.054,129.433c-0.14,0.066 0,1.538 0.006,1.684l0.007,0.073c-0.473,0.02 -0.945,0.047 -1.418,0.1c-0.453,-0.006 -0.912,-0.02 -1.365,-0.066c-0.094,-0.007 -0.173,-0 -0.26,-0c-0.047,-0.766 -0.126,-1.532 -0.273,-2.278c-0.133,-0.659 -0.259,-1.318 -0.373,-1.97c-0.692,-3.783 -11.698,-69.228 -11.698,-69.228c0.312,-0.014 0.711,-0.11 1.172,-0.233c0.591,-0.158 1.278,-0.373 1.983,-0.593c0.333,-0.1 0.673,-0.208 1.013,-0.306c0.233,-0.068 0.452,-0.127 0.666,-0.18c1.577,-0.413 2.993,-2.408 3.615,-1.671c0.186,0.22 0.366,0.453 0.546,0.706c0.433,0.592 0.865,1.292 1.292,2.05c0.972,1.712 1.917,3.736 2.703,5.607c0.22,0.506 0.419,1.005 0.606,1.478c0.126,0.32 0.246,0.626 0.36,0.926c0.785,2.071 1.242,4.667 1.478,7.397c0.318,3.682 0.233,7.604 0.033,10.814c-0.1,1.564 -0.233,2.963 -0.359,4.088c-0.054,0.453 -0.107,0.859 -0.154,1.211c-0.606,4.401 -0.705,10.401 0.286,20.102c0.181,1.798 0.307,3.616 0.38,5.4c0.193,4.608 0.073,8.929 -0.053,11.719c-0.093,1.964 -0.193,3.17 -0.193,3.17Z" style="fill:#f5a784;fill-rule:nonzero;"/><path d="M47.28,56.909c0,-0 -0.006,0.113 -0.026,0.333c0,0.093 -0.007,0.206 -0.02,0.34c-0.207,2.35 -5.54,70.652 -5.613,71.318c-0.08,0.759 -0.094,1.524 -0.074,2.297c-0.086,0.007 -0.166,0.005 -0.253,0.02c-0.454,0.078 -0.905,0.14 -1.358,0.186c-0.473,-0.007 -0.945,0.007 -1.418,0.027l0,-0.073c-0.014,-0.147 0,-1.625 -0.146,-1.678c0,-0 -0.207,-1.192 -0.474,-3.137c-0.379,-2.803 -0.892,-7.17 -1.111,-11.845c-0.081,-1.724 -0.12,-3.489 -0.1,-5.233c0.126,-9.755 -0.506,-15.721 -1.505,-20.049c-0.073,-0.346 -0.166,-0.745 -0.26,-1.191c-0.126,-0.6 -0.259,-1.306 -0.393,-2.098c-1.005,-5.846 -2.16,-16.216 -0.586,-21.846c0.43,-1.539 1.013,-1.252 1.479,-2.484c0.612,-1.645 1.225,-3.029 1.751,-4.128c0.033,-0.06 0.061,-0.126 0.093,-0.187c0.908,-1.736 1.485,-2.716 1.485,-2.716c0,-0 0.546,0.746 2.177,1.358c0.32,0.12 0.686,0.233 1.092,0.34c0.213,0.059 0.433,0.115 0.666,0.16c0.519,0.098 1.053,0.166 1.645,0.219c0.26,0.024 0.526,0.047 0.805,0.06c0.227,0.013 0.46,0.02 0.699,0.02c0.454,0.014 0.933,0.007 1.445,-0.013Z" style="fill:#f5a784;fill-rule:nonzero;"/><path d="M37.463,132.399c0.196,-0.286 0.43,-0.57 0.514,-0.844c0.142,-0.463 0.028,-0.96 -0.033,-1.441c-0.018,-0.137 -0.03,-0.283 0.025,-0.41c0.087,-0.204 0.313,-0.304 0.52,-0.385c0.673,-0.263 1.378,-0.531 2.096,-0.451c0.891,0.098 1.405,0.717 1.435,1.567c0.014,0.378 -0.036,0.574 0.119,0.92c0.206,0.463 0.563,0.744 0.628,1.289c0.068,0.567 -0.212,1.203 -0.748,1.403c-0.255,0.095 -0.535,0.085 -0.807,0.075c-0.8,-0.033 -1.6,-0.065 -2.401,-0.098c-0.451,-0.018 -0.933,-0.046 -1.296,-0.315c-0.567,-0.42 -0.354,-0.867 -0.052,-1.31Z" style="fill:#8695c2;fill-rule:nonzero;"/><path d="M54.425,132.426c0.17,-0.302 0.377,-0.607 0.437,-0.887c0.1,-0.474 -0.058,-0.958 -0.162,-1.432c-0.03,-0.135 -0.055,-0.279 -0.012,-0.411c0.069,-0.211 0.286,-0.33 0.484,-0.429c0.646,-0.322 1.326,-0.652 2.048,-0.637c0.896,0.019 1.463,0.59 1.569,1.433c0.047,0.376 0.015,0.575 0.2,0.906c0.247,0.442 0.628,0.691 0.741,1.227c0.118,0.559 -0.104,1.218 -0.619,1.465c-0.246,0.117 -0.526,0.132 -0.798,0.146c-0.8,0.039 -1.6,0.078 -2.399,0.118c-0.452,0.022 -0.935,0.036 -1.32,-0.199c-0.602,-0.368 -0.43,-0.832 -0.169,-1.3Z" style="fill:#8695c2;fill-rule:nonzero;"/><path d="M42.715,32.281c-2.163,0.416 -3.978,-0.08 -5.197,-0.633l-0.346,-2.138l1.449,-1.238c1.307,-0.121 2.981,-0.01 3.261,1.277l0.833,2.732Z" style="fill:#e0855c;fill-rule:nonzero;"/><path d="M44.228,23.95c-0.323,-1.611 -0.709,-2.964 -1.357,-3.615c-2.844,-2.852 -7.816,-1.375 -8.501,1.265c-0.223,0.857 -0.148,2.021 0.124,3.375c-0.665,-0.012 -1.877,0.171 -1.405,1.76c0.394,1.325 1.502,1.427 2.297,1.31c1.52,3.416 4.644,3.499 6.151,3.246c1.605,-0.269 3.67,-2.465 2.691,-7.341Z" style="fill:#f5a784;fill-rule:nonzero;"/><path d="M42.016,24.643c0,-0 0.45,0.087 0.26,-0.653c-0.171,-0.665 -0.457,-0.523 -0.457,-0.523c0,-0 -0.295,0.047 -0.152,0.63c0.144,0.583 0.349,0.546 0.349,0.546Z" style="fill:#3b2645;fill-rule:nonzero;"/><path d="M38.019,25.414c0,-0 0.45,0.086 0.261,-0.653c-0.171,-0.665 -0.458,-0.524 -0.458,-0.524c0,-0 -0.295,0.048 -0.151,0.63c0.143,0.583 0.348,0.547 0.348,0.547Z" style="fill:#3b2645;fill-rule:nonzero;"/><path d="M40.088,26.631c0.21,-0.068 0.723,-0.022 0.786,-0.271c0.052,-0.207 -0.484,-1.289 -0.566,-1.476c-0.089,-0.205 -0.175,-0.388 -0.26,-0.568c0.016,-0.016 0.032,-0.034 0.051,-0.049c0.041,-0.033 0.084,-0.056 0.128,-0.074c0.331,0.749 0.611,1.542 0.922,2.253c0.028,0.062 -0.009,0.14 -0.079,0.151c-0.316,0.047 -0.611,0.165 -0.924,0.219c-0.105,0.018 -0.165,-0.15 -0.058,-0.185Z" style="fill:#e0855c;fill-rule:nonzero;"/><path d="M41.17,22.442c0.277,-0.205 0.838,-0.341 1.112,-0.063c0.049,0.051 0.011,0.147 -0.057,0.155c-0.153,0.017 -0.298,-0.034 -0.452,-0.021c-0.166,0.014 -0.315,0.077 -0.462,0.152c-0.133,0.069 -0.264,-0.132 -0.141,-0.223Z" style="fill:#3b2645;fill-rule:nonzero;"/><path d="M37.064,23.611c0.101,-0.459 0.847,-0.626 1.212,-0.413c0.084,0.049 0.056,0.172 -0.019,0.21c-0.177,0.09 -0.388,0.052 -0.579,0.103c-0.168,0.044 -0.292,0.141 -0.441,0.224c-0.076,0.042 -0.192,-0.034 -0.173,-0.124Z" style="fill:#3b2645;fill-rule:nonzero;"/><path d="M39.771,27.883c0.322,0.097 0.576,0.231 0.928,0.187c0.274,-0.035 0.547,-0.214 0.82,-0.164c0.042,0.008 0.081,0.052 0.06,0.098c-0.149,0.327 -0.661,0.441 -0.987,0.467c-0.35,0.029 -0.78,-0.031 -1.011,-0.322c-0.108,-0.137 0.031,-0.314 0.19,-0.266Z" style="fill:#e0855c;fill-rule:nonzero;"/><path d="M34.751,19.416l-1.606,1.751c-0.087,1.001 -0.268,1.946 0.041,2.905c0.1,0.31 0.236,0.625 0.489,0.83c0.218,0.177 0.544,0.244 0.788,0.123c0.039,-0.02 0.076,-0.044 0.11,-0.073c0.222,-0.192 0.252,-0.519 0.259,-0.812c0.013,-0.56 -0.001,-1.124 0.093,-1.676c0.099,-0.586 0.372,-1.234 0.765,-1.683c0.452,-0.516 1.199,-0.636 1.766,-0.981c0.395,-0.241 0.625,-0.767 0.989,-0.959c0.438,-0.231 1.319,0.121 1.764,0.232c0.725,0.182 1.677,0.434 2.207,1.002c0.615,0.659 1.371,1.737 1.705,2.57c0.036,0.092 0.326,0.618 0.417,0.655c0.502,0.204 0.193,-1.67 0.219,-1.945c0.073,-0.793 -0.113,-1.612 -0.544,-2.283c-0.704,-1.098 -1.81,-1.532 -3.051,-1.651c-0.67,-0.064 -1.201,0.1 -1.87,0.16c-0.865,0.075 -1.816,0.17 -2.601,0.63c-0.66,0.387 -1.269,0.819 -1.94,1.205Z" style="fill:#3b2645;fill-rule:nonzero;"/><path d="M58.147,83.743c-3.722,1.444 -7.291,2.263 -10.567,2.676c-0.16,-0.959 -1.365,-8.196 -1.824,-10.853c-0.2,2.49 -0.773,10.001 -0.853,11.106c-4.175,0.273 -7.743,-0.087 -10.374,-0.546c-0.606,-3.542 -1.271,-8.755 -1.351,-13.57c-0.047,-3.116 0.153,-6.059 0.765,-8.276c0.346,-1.851 0.893,-3.616 1.485,-5.467c0.053,-0.16 0.107,-0.319 0.16,-0.486c0.093,-0.28 0.167,-0.573 0.226,-0.866c0.493,0.014 0.979,0.02 1.452,0.02c2.95,-0.006 5.6,-0.246 7.87,-0.579c0.6,-0.086 1.166,-0.186 1.712,-0.286c0.06,-0.007 0.106,-0.013 0.146,-0.027c1.751,-0.319 3.216,-0.686 4.361,-1.018c0.107,-0.034 0.213,-0.067 0.32,-0.1c0.34,0.459 0.673,0.992 1.012,1.558c0.093,0.159 0.186,0.326 0.28,0.492c0.146,0.253 0.286,0.513 0.432,0.78c0.82,1.531 1.599,3.236 2.271,4.827c0.213,0.506 0.419,1.005 0.606,1.478c0.126,0.32 0.246,0.626 0.36,0.926c0.785,2.071 1.242,4.667 1.478,7.397c0.318,3.682 0.233,7.604 0.033,10.814Z" style="fill:#3b2645;fill-rule:nonzero;"/><path d="M81.245,60.171c-0.726,-6.285 -13.783,-9.921 -30.775,-8.982c0.053,0.44 0.12,0.886 0.186,1.332c1.638,-0.086 3.243,-0.126 4.808,-0.126c13.53,-0 23.904,3.096 24.456,7.93c0.699,6.079 -14.362,13.017 -32.893,15.148c-9.241,1.065 -18.057,0.838 -24.829,-0.633c-6.439,-1.398 -10.327,-3.822 -10.647,-6.652c-0.326,-2.823 2.903,-6.065 8.863,-8.896c4.314,-2.05 9.714,-3.735 15.68,-4.933c-0.007,-0.453 -0.027,-0.899 -0.066,-1.352c-6.153,1.225 -11.726,2.97 -16.187,5.087c-6.599,3.13 -10.014,6.772 -9.615,10.247c0.399,3.483 4.554,6.253 11.692,7.804c4.049,0.879 8.803,1.318 13.936,1.318c3.623,-0 7.438,-0.219 11.327,-0.665c19.396,-2.231 34.097,-9.222 34.097,-16.08c0,-0.187 -0.013,-0.366 -0.033,-0.547Z" style="fill:#ff4590;fill-rule:nonzero;"/><path d="M41.124,130.995c-0.21,-0.363 -0.725,-0.4 -1.109,-0.423c-0.452,-0.027 -0.898,0.012 -1.236,0.33c-0.023,0.022 -0.003,0.056 0.024,0.058c0.408,0.041 0.804,-0.055 1.212,-0.014c0.358,0.036 0.701,0.243 1.058,0.175c0.055,-0.011 0.077,-0.081 0.051,-0.126Z" style="fill:#6b779c;fill-rule:nonzero;"/><path d="M40.77,131.717c-0.617,-0.122 -1.632,-0.51 -2.183,-0.054c-0.107,0.089 -0.015,0.259 0.109,0.262c0.374,0.007 0.69,-0.035 1.068,0.043c0.316,0.064 0.628,0.156 0.951,0.158c0.229,0.002 0.291,-0.362 0.055,-0.409Z" style="fill:#6b779c;fill-rule:nonzero;"/><path d="M57.901,130.898c-0.565,-0.501 -1.882,-0.578 -2.455,-0.057c-0.098,0.09 -0.022,0.272 0.111,0.267c0.352,-0.015 0.682,-0.144 1.041,-0.137c0.404,0.007 0.728,0.175 1.111,0.258c0.18,0.038 0.35,-0.191 0.192,-0.331Z" style="fill:#6b779c;fill-rule:nonzero;"/><path d="M57.882,131.738c-0.664,-0.228 -1.679,-0.368 -2.267,0.117c-0.061,0.051 -0.008,0.15 0.063,0.151c0.337,0.004 0.664,-0.104 1.004,-0.109c0.381,-0.004 0.745,0.069 1.102,0.198c0.223,0.08 0.323,-0.279 0.098,-0.357Z" style="fill:#6b779c;fill-rule:nonzero;"/><path d="M53.399,58.301c-2.783,1.105 -7.597,2.729 -12.264,2.949c-7.152,0.34 -7.95,11.339 -7.95,11.339c-0.054,-3.149 0.146,-6.092 0.758,-8.309c0.346,-1.851 0.893,-3.616 1.485,-5.467c0.053,-0.16 0.107,-0.319 0.16,-0.486c0.093,-0.28 0.167,-0.573 0.226,-0.866c0.493,0.014 0.979,0.02 1.452,0.02c2.95,-0.006 5.6,-0.246 7.87,-0.579c0.6,-0.086 1.166,-0.186 1.712,-0.286c0.06,-0.007 0.106,-0.013 0.146,-0.027l5.693,0.44c0.093,0.159 0.186,0.326 0.28,0.492c0.146,0.253 0.286,0.513 0.432,0.78Z" style="fill:#25182b;fill-rule:nonzero;"/><path d="M57.734,31.494c-0.146,0.192 -0.299,0.379 -0.453,0.572c-0.432,0.539 -6.165,7.325 -6.292,7.464c0.226,0.533 0.413,1.079 0.506,1.625c0.107,0.573 0.093,1.145 -0.086,1.698c-0.147,0.459 -0.413,0.872 -0.626,1.305c-0.114,0.259 -0.22,0.586 -0.3,0.972c-0.625,3.021 -0.087,6.213 1.426,8.91c0.628,1.119 1.926,3.21 0.234,3.937c-1.463,0.627 -3.48,0.877 -5.049,1.183c-1.265,0.246 -2.643,0.425 -4.082,0.499c-0.406,0.027 -0.826,0.04 -1.245,0.04c-1.745,-0 -3.393,-0.269 -5.109,-0.529c-1.502,-0.227 -1.623,-0.794 -1.527,-2.364c0.237,-3.848 -0.413,-7.748 -1.885,-11.311c-0.659,-1.596 -1.506,-2.857 -2.76,-4.03c-1.182,-1.104 -2.532,-1.567 -3.933,-2.361c-0.6,-0.339 -1.212,-0.699 -1.831,-1.065l2.27,-5.593c0.546,0.146 1.139,0.28 1.771,0.392c0.4,0.074 0.779,0.14 1.152,0.207c1.278,0.24 7.278,1.452 8.017,1.505c0.046,0.266 0.519,1.145 0.632,1.398c0.067,0.16 0.147,0.326 0.22,0.493c0.912,1.991 2.197,4.361 3.216,4.581c0.613,0.133 0.966,-0.853 1.172,-2.191c0.12,-0.786 0.173,-1.584 0.206,-2.377c0.02,-0.413 0.034,-0.826 0.04,-1.238c0.007,-0.4 -0.093,-0.753 -0.113,-1.152c0,-0 1.465,-0.5 1.598,-0.56c2.111,-0.939 7.078,-4.827 8.203,-5.912l4.628,3.902Z" style="fill:#8695c2;fill-rule:nonzero;"/><path d="M55.796,33.891c-0.425,0.512 -4.68,5.5 -4.807,5.639l-1.312,-2.63c0,-0 2.97,-1.005 6.119,-3.009Z" style="fill:#6b779c;fill-rule:nonzero;"/><path d="M41.841,44.557c-0.736,0.507 -1.406,0.984 -2.297,1.189c-0.889,0.203 -1.7,-0.047 -2.575,0.039c-0.057,0.006 -0.096,0.074 -0.05,0.12c1.34,1.301 4.267,0.275 5.232,-1.039c0.133,-0.181 -0.129,-0.434 -0.31,-0.309Z" style="fill:#6b779c;fill-rule:nonzero;"/><path d="M17.315,49.76c-4.296,1.489 -8.581,3.8 -11.994,6.817c-1.559,1.379 -2.966,2.958 -4.042,4.745c-0.438,0.729 -1.856,2.622 -1.021,3.425c0.136,0.13 0.315,-0.062 0.202,-0.203c-0.436,-0.547 0.945,-2.456 1.273,-2.956c0.526,-0.8 1.116,-1.564 1.747,-2.283c1.227,-1.397 2.625,-2.637 4.129,-3.728c3.079,-2.233 6.532,-3.661 9.879,-5.408c0.221,-0.116 0.069,-0.493 -0.173,-0.409Z" style="fill:#c1cae3;fill-rule:nonzero;"/><path d="M83.402,69.447c-2.557,2.306 -4.933,4.578 -7.98,6.261c-3.017,1.666 -6.217,2.634 -9.56,3.386c-0.161,0.036 -0.129,0.306 0.039,0.292c6.478,-0.561 14.05,-4.261 17.885,-9.642c0.168,-0.236 -0.188,-0.474 -0.384,-0.297Z" style="fill:#c1cae3;fill-rule:nonzero;"/><path d="M89.965,67.197c-1.426,4.547 -4.206,7.643 -7.99,10.456c-0.259,0.193 -0.013,0.633 0.257,0.441c3.631,-2.582 7.629,-6.125 8.188,-10.835c0.031,-0.268 -0.38,-0.3 -0.455,-0.062Z" style="fill:#c1cae3;fill-rule:nonzero;"/></g></svg>