<?xml version="1.0" encoding="UTF-8" standalone="no"?><!DOCTYPE svg PUBLIC "-//W3C//DTD SVG 1.1//EN" "http://www.w3.org/Graphics/SVG/1.1/DTD/svg11.dtd"><svg width="100%" height="100%" viewBox="0 0 111 131" version="1.1" xmlns="http://www.w3.org/2000/svg" xmlns:xlink="http://www.w3.org/1999/xlink" xml:space="preserve" xmlns:serif="http://www.serif.com/" style="fill-rule:evenodd;clip-rule:evenodd;stroke-linejoin:round;stroke-miterlimit:2;"><g><path d="M105.953,130.402c-1.085,0.12 -2.178,0.206 -3.282,0.26c-0.314,0.013 -89.637,0.053 -89.637,0.053c-0.059,-0.007 -0.126,-0.007 -0.186,-0.013c-0.48,-0.04 -0.953,-0.08 -1.432,-0.134c-1.225,-0.126 -1.225,-1.77 0,-1.897c0.473,-0.054 0.952,-0.093 1.432,-0.127c0.066,-0.006 0.133,-0.006 0.2,-0.013c0,0 89.309,0.034 89.616,0.047c1.105,0.053 2.197,0.14 3.289,0.26c1.005,0.112 0.999,1.451 0,1.564Z" style="fill:#c6c6c6;fill-rule:nonzero;"/><path d="M34.802,109.701c-3.041,-0.24 -6.161,-0.501 -8.911,-1.821c-2.261,-1.086 -4.135,-2.825 -5.925,-4.582c-3.49,-3.423 -7.001,-7.424 -7.366,-12.3c-0.574,-7.636 6.785,-14.735 4.696,-22.102c-1.244,-4.389 -5.427,-7.139 -8.67,-10.346c-8.628,-8.53 -11.122,-22.647 -5.939,-33.616c5.184,-10.969 17.673,-18.006 29.741,-16.756c3.108,0.322 6.186,1.137 9.306,0.98c6.096,-0.306 11.325,-4.201 16.937,-6.6c6.973,-2.98 15.181,-3.614 22.105,-0.52c6.925,3.094 12.157,10.3 11.784,17.875c-0.209,4.253 -2.04,8.675 -0.417,12.612c1.118,2.711 3.636,4.526 5.849,6.449c6.483,5.634 11.192,13.55 11.997,22.1c0.806,8.551 -2.643,17.62 -9.563,22.707c-3.703,2.723 -8.407,4.446 -10.796,8.37c-1.539,2.529 -1.856,5.588 -2.777,8.401c-2.918,8.92 -12.77,14.987 -22.049,13.579c-10.151,-1.54 -19.668,-3.614 -30.002,-4.43Z" style="fill:#f6f6f6;fill-rule:nonzero;"/><path d="M63.053,25.798c-0.313,0.359 -0.726,0.659 -1.179,0.799c-0.332,0.106 -0.692,0.126 -1.031,0.027c-0.553,-0.161 -1.02,-0.633 -1.599,-0.626c-0.412,0.006 -0.772,0.259 -1.144,0.426c-0.64,0.299 -1.479,0.426 -2.159,0.186c-0.752,-0.26 -1.371,-0.979 -2.243,-0.712c-0.406,0.12 -0.712,0.469 -1.112,0.572c-0.512,0.132 -0.64,-0.073 -1.026,-0.199c-0.912,-0.3 -1.984,-0.14 -2.83,0.306c-0.805,0.419 -1.477,1.132 -2.37,1.318c-0.899,0.187 -1.811,-0.186 -2.603,-0.639c-0.553,-0.313 -1.192,-0.679 -1.784,-0.453c-0.26,0.1 -0.46,0.3 -0.687,0.466c-0.592,0.446 -1.385,0.653 -2.097,0.446c-0.765,-0.226 -1.459,-1.138 -1.358,-1.964c0.046,-0.379 0.266,-0.719 0.579,-0.939c0.199,-0.146 0.44,-0.246 0.619,-0.419c0.626,-0.626 0.114,-1.744 0.48,-2.55c0.239,-0.527 0.805,-0.813 1.351,-1.012c0.86,-0.313 1.285,-0.467 1.678,-1.272c0.439,-0.899 0.633,-1.851 1.032,-2.757c0.573,-1.278 1.638,-2.217 2.717,-3.069c1.398,-1.105 3.27,-1.438 5,-1.512c1.925,-0.073 3.569,0.686 5.141,1.791c1.091,0.773 2.044,1.818 2.47,3.09c0.114,0.339 0.2,0.706 0.339,1.032c0.114,0.266 0.26,0.506 0.493,0.686c0.426,0.326 1.045,0.366 1.392,0.772c0.526,0.606 0.127,1.618 0.553,2.297c0.345,0.546 1.098,0.673 1.557,1.126c0.74,0.718 0.487,2.01 -0.179,2.783Z" style="fill:#ff4590;fill-rule:nonzero;"/><path d="M61.874,26.597c-0.332,0.106 -0.692,0.126 -1.031,0.027c-0.553,-0.161 -1.02,-0.633 -1.599,-0.626c-0.412,0.006 -0.772,0.259 -1.144,0.426c-0.64,0.299 -1.479,0.426 -2.159,0.186c-0.752,-0.26 -1.371,-0.979 -2.243,-0.712c-0.406,0.12 -0.713,0.466 -1.112,0.572c-0.087,-0.606 0.04,-1.232 0.42,-1.711c0.179,-0.22 0.405,-0.406 0.579,-0.632c0.173,-0.227 0.293,-0.52 0.22,-0.793c-0.047,-0.18 -0.167,-0.326 -0.274,-0.473c-0.546,-0.759 -0.839,-1.711 -0.745,-2.636c0.119,-1.179 1.617,-3.523 3.049,-2.43c0.446,0.332 0.467,1.011 0.533,1.511c0.119,0.872 0.126,1.897 0.659,2.643c0.213,0.3 0.52,0.566 0.559,0.932c0.054,0.513 -0.459,0.979 -0.36,1.485c0.074,0.393 0.506,0.633 0.907,0.666c0.399,0.034 0.792,-0.087 1.198,-0.126c0.399,-0.04 0.846,0.013 1.118,0.306c0.227,0.246 0.28,0.612 0.493,0.872c0.227,0.266 0.6,0.373 0.932,0.513Z" style="fill:#eb3f84;fill-rule:nonzero;"/><path d="M91.512,32.097c-0.78,-0.293 -1.672,0.126 -2.218,0.752c-0.147,0.167 -0.267,0.34 -0.38,0.526c-0.319,0.52 -0.539,1.099 -0.772,1.671c-0.24,0.566 -0.559,1.033 -0.932,1.432c-1.152,1.212 -2.817,1.764 -4.401,2.544c-2.744,1.344 -5.487,2.696 -8.237,4.041c0,0 -4.195,-2.39 -6.738,-5.06c-0.026,-0.02 -0.047,-0.046 -0.066,-0.067c-5.134,-5.303 -7.425,-7.35 -9.063,-7.357l-0.093,0c-0.852,0.033 0.166,3.375 1.331,6.538c1.052,2.877 -0.612,4.221 -0.612,4.221c0,0 7.757,4.322 8.849,4.888c3.03,1.571 6.326,2.923 7.63,2.224c3.649,-1.818 7.058,-4.135 10.381,-6.486c1.512,-1.071 3.063,-2.183 4.508,-3.389c0.745,-0.626 1.465,-1.278 2.137,-1.97c0.214,-0.22 0.36,-0.473 0.446,-0.76c0.433,-1.344 -0.426,-3.236 -1.77,-3.748Z" style="fill:#f5a784;fill-rule:nonzero;"/><path d="M61.475,39.734c-0.2,0.439 -0.513,0.819 -0.773,1.225c-0.146,0.24 -0.286,0.553 -0.412,0.926c-0.806,2.423 -1.013,7.33 -0.247,11.099c0,0 -3.595,0.566 -7.623,0.832c-3.09,0.207 -6.433,0.233 -8.604,-0.299c0.101,0 0.22,-0.22 0.354,-0.613c0.432,-1.305 0.938,-4.547 0.858,-8.156c0,-0.167 -0.026,-0.327 -0.04,-0.493c-0.113,-1.405 -0.232,-2.79 -0.426,-4.175c-0.006,-0.053 -0.013,-0.113 -0.02,-0.166c-0.14,-1.019 -0.319,-2.024 -0.566,-3.043c-0.373,-1.565 -0.952,-3.303 -0.679,-4.941c0.134,-0.812 0.759,-1.187 1.512,-1.371c0.659,-0.162 1.366,-0.181 1.951,-0.24c0.106,-0.011 0.213,-0.02 0.319,-0.027c0.027,-0.006 0.061,-0.006 0.087,-0.006c0.233,-0.02 0.453,-0.033 0.645,-0.047c0.839,-0.053 1.319,-0.053 1.319,-0.127l-0.266,-6.278c0,0 0.733,-0.101 1.624,-0.081c1.312,0.032 2.963,0.34 3.09,1.652l0.839,4.647c0,0 0.446,0.027 1.079,0.087c0.539,0.053 1.22,0.107 1.884,0.22c0.14,0.024 1.025,0.167 1.311,0.22c0.839,0.154 1.599,0.425 1.791,1.271c0.3,1.332 0.314,2.597 0.773,3.936c0.439,1.278 0.793,2.723 0.22,3.948Z" style="fill:#f5a784;fill-rule:nonzero;"/><path d="M16.936,31.424c-0.026,-0.013 -0.033,-0.033 -0.04,-0.053c0.014,0.013 0.027,0.033 0.04,0.053Zm28.585,-0.819c-0.219,-0.046 -0.442,-0.07 -0.682,-0.053c-1.404,0.098 -3.279,1.365 -7.475,4.98c-0.286,0.247 -0.579,0.5 -0.885,0.766c-4.335,3.775 -7.637,3.782 -7.637,3.782c-2.45,-1.824 -4.901,-3.662 -7.351,-5.486c-1.292,-0.966 -2.69,-1.758 -3.609,-2.957c-0.413,-0.539 -0.726,-1.165 -0.899,-1.931c-0.066,-0.319 -0.133,-0.645 -0.207,-0.965c-0.113,-0.493 -0.265,-0.972 -0.518,-1.405c-0.42,-0.719 -1.219,-1.292 -2.038,-1.145c-1.725,0.306 -3.103,2.736 -2.144,4.181c0.227,0.34 0.459,0.673 0.699,0.999c0.393,0.532 0.812,1.059 1.232,1.565c1.152,1.371 2.397,2.67 3.622,3.928c2.83,2.923 5.753,5.827 9.002,8.284c1.419,1.138 8.17,-1.166 13.344,-3.197c1.831,-0.712 3.462,-1.391 4.587,-1.871c0.993,-0.426 1.592,-0.692 1.592,-0.692c0,0 0.958,-8.423 -0.633,-8.783Z" style="fill:#f5a784;fill-rule:nonzero;"/><path d="M64.338,68.152c-0.02,5.494 -0.952,11.44 -1.652,14.815c-0.092,0.446 -0.186,0.846 -0.259,1.192c-0.998,4.328 -1.631,10.294 -1.511,20.049c0.019,1.804 -0.021,3.629 -0.106,5.406c-0.22,4.608 -0.72,8.903 -1.099,11.673c-0.267,1.944 -0.474,3.136 -0.474,3.136c-0.146,0.053 -0.139,1.531 -0.146,1.678l0,0.073c-0.473,-0.02 -0.946,-0.033 -1.418,-0.026c-0.453,-0.047 -0.905,-0.109 -1.359,-0.187c-0.086,-0.015 -0.166,-0.014 -0.253,-0.02c0.021,-0.772 0.007,-1.539 -0.073,-2.297c-0.073,-0.666 -0.139,-1.331 -0.193,-1.997c-0.353,-3.83 -5.473,-69.995 -5.473,-69.995c0.313,0.014 0.719,-0.043 1.192,-0.126c1.071,-0.188 2.45,-0.539 3.742,-0.746c1.611,-0.273 3.09,-0.319 3.642,0.473c1.771,2.523 3.649,5.893 4.634,9.402c0.593,2.131 0.813,4.754 0.806,7.497Z" style="fill:#f5a784;fill-rule:nonzero;"/><path d="M54.464,51.593c0,0 -5.587,71.325 -5.66,71.991c-0.08,0.759 -0.093,1.524 -0.074,2.297c-0.086,0.007 -0.167,0.005 -0.253,0.02c-0.454,0.079 -0.905,0.14 -1.358,0.187c-0.473,-0.007 -0.945,0.006 -1.418,0.026l0,-0.073c-0.014,-0.146 0,-1.625 -0.146,-1.678c0,0 -0.206,-1.192 -0.473,-3.136c-0.38,-2.803 -0.893,-7.171 -1.112,-11.846c-0.08,-1.724 -0.12,-3.488 -0.1,-5.233c0.126,-9.754 -0.506,-15.721 -1.505,-20.048c-0.073,-0.347 -0.167,-0.746 -0.26,-1.193c-1.045,-5.067 -2.629,-15.926 -0.845,-22.312c0.426,-1.511 0.879,-2.883 1.344,-4.115c0.614,-1.644 1.226,-3.03 1.752,-4.128c0.912,-1.878 1.578,-2.903 1.578,-2.903c0,0 0.546,0.745 2.177,1.358c0.32,0.12 0.686,0.233 1.092,0.34c0.213,0.06 0.433,0.115 0.666,0.159c0.519,0.099 1.053,0.167 1.645,0.22c0.867,0.078 1.837,0.113 2.95,0.067Z" style="fill:#f5a784;fill-rule:nonzero;"/><path d="M44.644,127.083c0.197,-0.287 0.43,-0.571 0.514,-0.845c0.143,-0.464 0.028,-0.96 -0.032,-1.44c-0.018,-0.138 -0.03,-0.283 0.024,-0.411c0.087,-0.204 0.314,-0.304 0.521,-0.385c0.672,-0.263 1.378,-0.53 2.096,-0.451c0.891,0.098 1.405,0.718 1.435,1.567c0.014,0.379 -0.036,0.574 0.118,0.921c0.207,0.462 0.564,0.743 0.629,1.288c0.068,0.568 -0.213,1.203 -0.748,1.404c-0.255,0.094 -0.535,0.085 -0.808,0.074c-0.799,-0.032 -1.599,-0.065 -2.4,-0.097c-0.451,-0.018 -0.933,-0.047 -1.297,-0.316c-0.566,-0.42 -0.353,-0.867 -0.052,-1.309Z" style="fill:#3b2645;fill-rule:nonzero;"/><path d="M55.355,127.083c0.196,-0.287 0.429,-0.571 0.514,-0.845c0.143,-0.464 0.027,-0.96 -0.033,-1.44c-0.018,-0.138 -0.029,-0.283 0.024,-0.411c0.087,-0.204 0.315,-0.304 0.521,-0.385c0.673,-0.263 1.378,-0.53 2.096,-0.451c0.891,0.098 1.405,0.718 1.435,1.567c0.014,0.379 -0.036,0.574 0.119,0.921c0.206,0.462 0.564,0.743 0.628,1.288c0.067,0.568 -0.212,1.203 -0.748,1.404c-0.255,0.094 -0.535,0.085 -0.807,0.074c-0.8,-0.032 -1.6,-0.065 -2.401,-0.097c-0.451,-0.018 -0.934,-0.047 -1.297,-0.316c-0.566,-0.42 -0.353,-0.867 -0.051,-1.309Z" style="fill:#3b2645;fill-rule:nonzero;"/><path d="M64.338,68.152c-0.02,5.494 -0.952,11.44 -1.652,14.815c-0.092,0.446 -0.186,0.846 -0.259,1.192c-0.998,4.328 -1.631,10.294 -1.511,20.049c0.019,1.804 -0.021,3.629 -0.106,5.406c-2.045,0.327 -4.069,0.487 -6,0.534c-0.034,-0.314 -2.224,-30.31 -2.417,-32.894c-0.2,2.551 -2.377,32.493 -2.404,32.8c-2.317,-0.14 -4.375,-0.406 -6.019,-0.673c-0.08,-1.724 -0.12,-3.488 -0.1,-5.233c0.126,-9.754 -0.506,-15.721 -1.505,-20.048c-0.073,-0.347 -0.167,-0.746 -0.26,-1.193c-1.045,-5.067 -2.629,-15.926 -0.845,-22.312c0.426,-1.511 0.879,-2.883 1.344,-4.115l6.599,-5.333c0.213,0.06 0.433,0.115 0.666,0.159c0.519,0.099 1.052,0.174 1.645,0.22c1.072,-0.18 2.45,-0.539 3.742,-0.746c1.991,2.351 4.907,6.332 7.531,11.926c0.639,1.358 1.145,3.229 1.551,5.446Z" style="fill:#b8c3e3;fill-rule:nonzero;"/><path d="M68.246,76.982c-0.412,0.12 -0.852,0.073 -1.278,0.019c-1.172,-0.14 -2.576,-0.199 -3.276,0.746c-0.12,0.16 -0.219,0.346 -0.399,0.446c-0.187,0.107 -0.42,0.081 -0.633,0.053c-1.997,-0.253 -4.161,-0.326 -5.886,0.72c-0.433,0.26 -0.833,0.593 -1.292,0.792c-0.992,0.439 -2.144,0.26 -3.182,-0.047c-1.039,-0.312 -2.065,-0.745 -3.143,-0.785c-1.925,-0.073 -3.829,1.085 -5.693,0.605c-1.678,-0.425 -2.916,-2.103 -4.641,-2.197c-0.713,-0.04 -1.438,0.207 -2.131,0.04c-0.193,-0.04 -0.348,-0.117 -0.472,-0.213c-0.928,-0.714 -0.114,-2.769 0.086,-3.716c0.959,-4.654 2.343,-9.254 4.022,-13.696c0.1,-0.266 0.372,-1.085 0.752,-2.071c0.806,-2.137 2.084,-5.053 3.09,-4.774c1.031,0.287 5.859,0.28 9.921,0.22c3.216,-0.053 5.952,-0.14 5.952,-0.14c0.8,-0.026 1.991,2.237 2.305,2.784c2.056,3.542 3.315,7.59 4.494,11.492c0.552,1.851 1.072,3.709 1.551,5.573c0.287,1.099 1.471,3.669 -0.147,4.149Z" style="fill:#3b2645;fill-rule:nonzero;"/><path d="M54.084,28.215c-2.197,0.16 -3.941,-0.546 -5.087,-1.239l-0.094,-2.164l1.585,-1.059c1.312,0.034 2.963,0.34 3.09,1.652l0.506,2.81Z" style="fill:#e0855c;fill-rule:nonzero;"/><path d="M56.564,20.119c-0.132,-1.637 -0.356,-3.027 -0.923,-3.749c-2.491,-3.166 -7.601,-2.283 -8.591,0.258c-0.322,0.826 -0.385,1.99 -0.274,3.367c-0.659,-0.09 -1.883,-0.051 -1.601,1.583c0.235,1.361 1.324,1.592 2.127,1.571c1.109,3.57 4.201,4.019 5.727,3.945c1.626,-0.079 3.936,-2.018 3.535,-6.975Z" style="fill:#f5a784;fill-rule:nonzero;"/><path d="M54.286,20.548c0,0 0.437,0.139 0.335,-0.618c-0.092,-0.68 -0.393,-0.573 -0.393,-0.573c-0,0 -0.298,0.012 -0.224,0.607c0.074,0.596 0.282,0.584 0.282,0.584Z" style="fill:#3b2645;fill-rule:nonzero;"/><path d="M50.226,20.844c0,0 0.437,0.139 0.335,-0.618c-0.091,-0.681 -0.392,-0.574 -0.392,-0.574c0,0 -0.299,0.013 -0.225,0.608c0.074,0.596 0.282,0.584 0.282,0.584Z" style="fill:#3b2645;fill-rule:nonzero;"/><path d="M52.139,22.296c0.215,-0.043 0.72,0.063 0.811,-0.177c0.075,-0.199 -0.33,-1.337 -0.389,-1.532c-0.064,-0.214 -0.128,-0.406 -0.192,-0.595c0.019,-0.014 0.036,-0.03 0.057,-0.043c0.045,-0.027 0.09,-0.045 0.135,-0.058c0.242,0.782 0.426,1.603 0.653,2.345c0.019,0.066 -0.027,0.139 -0.097,0.141c-0.319,0.01 -0.626,0.092 -0.943,0.109c-0.107,0.006 -0.147,-0.168 -0.035,-0.19Z" style="fill:#e0855c;fill-rule:nonzero;"/><path d="M53.703,18.263c0.301,-0.172 0.873,-0.241 1.112,0.068c0.043,0.056 -0.006,0.147 -0.075,0.147c-0.153,-0.001 -0.292,-0.069 -0.445,-0.074c-0.167,-0.005 -0.322,0.04 -0.477,0.097c-0.14,0.052 -0.247,-0.163 -0.115,-0.238Z" style="fill:#3b2645;fill-rule:nonzero;"/><path d="M49.489,18.942c0.154,-0.444 0.914,-0.523 1.252,-0.268c0.077,0.058 0.036,0.177 -0.044,0.206c-0.186,0.068 -0.39,0.007 -0.587,0.034c-0.172,0.025 -0.305,0.107 -0.464,0.171c-0.081,0.033 -0.187,-0.056 -0.157,-0.143Z" style="fill:#3b2645;fill-rule:nonzero;"/><path d="M51.676,23.502c0.308,0.134 0.545,0.297 0.899,0.294c0.276,-0.002 0.568,-0.147 0.834,-0.066c0.041,0.013 0.074,0.062 0.048,0.105c-0.187,0.306 -0.707,0.359 -1.034,0.348c-0.352,-0.013 -0.772,-0.123 -0.966,-0.439c-0.092,-0.15 0.066,-0.308 0.219,-0.242Z" style="fill:#e0855c;fill-rule:nonzero;"/><path d="M47.685,14.505l-1.8,1.55c-0.205,0.984 -0.495,1.902 -0.301,2.889c0.062,0.32 0.16,0.649 0.388,0.882c0.195,0.202 0.511,0.306 0.768,0.215c0.041,-0.015 0.081,-0.035 0.118,-0.06c0.243,-0.164 0.311,-0.486 0.352,-0.776c0.079,-0.555 0.132,-1.116 0.289,-1.654c0.167,-0.569 0.515,-1.181 0.958,-1.581c0.509,-0.459 1.265,-0.491 1.868,-0.767c0.421,-0.193 0.711,-0.688 1.095,-0.836c0.463,-0.178 1.296,0.275 1.725,0.438c0.699,0.264 1.614,0.627 2.074,1.253c0.534,0.727 1.157,1.886 1.391,2.753c0.026,0.095 0.251,0.651 0.337,0.699c0.476,0.262 0.389,-1.635 0.446,-1.906c0.167,-0.778 0.077,-1.614 -0.272,-2.331c-0.57,-1.173 -1.618,-1.734 -2.836,-1.998c-0.658,-0.142 -1.205,-0.041 -1.876,-0.061c-0.868,-0.026 -1.824,-0.043 -2.656,0.321c-0.701,0.307 -1.358,0.665 -2.068,0.97Z" style="fill:#ff4590;fill-rule:nonzero;"/><path d="M17.882,31.637c-1.598,0.14 -3.063,0.839 -3.875,1.299c-0.42,-0.506 -0.839,-1.033 -1.232,-1.565l4.001,-2.63c0.074,0.32 0.141,0.646 0.207,0.965c0.173,0.766 0.486,1.392 0.899,1.931Z" style="fill:#e0855c;fill-rule:nonzero;"/><path d="M17.497,26.161l-6.936,4.715c-0.598,-0.88 -1.796,-1.109 -2.676,-0.511c-0.88,0.598 -1.109,1.797 -0.511,2.677l1.402,2.062c0.598,0.88 1.796,1.108 2.676,0.51c0.881,-0.598 1.109,-1.796 0.511,-2.676l6.936,-4.715c0.598,0.88 1.796,1.109 2.676,0.51c0.881,-0.598 1.11,-1.796 0.511,-2.676l-1.401,-2.062c-0.599,-0.88 -1.797,-1.109 -2.677,-0.511c-0.88,0.599 -1.109,1.797 -0.511,2.677Z" style="fill:#3b2645;fill-rule:nonzero;"/><path d="M14.077,30.561c0.249,0.354 0.619,0.684 1.052,0.665c0.221,-0.009 0.426,-0.109 0.624,-0.206c0.435,-0.215 0.888,-0.442 1.184,-0.828c0.367,-0.476 0.435,-1.137 0.273,-1.715c-0.162,-0.578 -0.531,-1.079 -0.963,-1.496c-0.284,-0.274 -0.618,-0.526 -1.009,-0.582c-0.23,-0.033 -0.467,0.006 -0.693,0.063c-0.867,0.217 -1.664,0.71 -2.246,1.39c-0.494,0.576 -0.588,1.123 0.128,1.364c0.882,0.298 1.106,0.57 1.65,1.345Z" style="fill:#f5a784;fill-rule:nonzero;"/><path d="M93.282,35.845c-0.086,0.287 -0.232,0.54 -0.446,0.76c-0.672,0.692 -1.392,1.344 -2.137,1.97c-0.939,-0.905 -1.91,-1.481 -2.797,-1.844c-0.246,-0.101 -0.472,-0.186 -0.692,-0.253c0.373,-0.399 0.692,-0.866 0.932,-1.432c0.233,-0.572 0.453,-1.151 0.772,-1.671l4.368,2.47Z" style="fill:#e0855c;fill-rule:nonzero;"/><path d="M87.781,31.941l6.936,4.715c0.598,-0.88 1.797,-1.109 2.676,-0.51c0.88,0.598 1.109,1.796 0.511,2.676l-1.401,2.062c-0.599,0.88 -1.797,1.109 -2.677,0.511c-0.88,-0.599 -1.108,-1.797 -0.511,-2.677l-6.935,-4.715c-0.599,0.88 -1.797,1.109 -2.677,0.511c-0.88,-0.598 -1.108,-1.797 -0.511,-2.677l1.403,-2.062c0.597,-0.88 1.796,-1.108 2.675,-0.51c0.88,0.598 1.109,1.796 0.511,2.676Z" style="fill:#3b2645;fill-rule:nonzero;"/><path d="M91.201,36.34c-0.249,0.355 -0.618,0.685 -1.052,0.666c-0.22,-0.009 -0.425,-0.108 -0.624,-0.206c-0.435,-0.215 -0.887,-0.442 -1.184,-0.828c-0.366,-0.475 -0.435,-1.137 -0.273,-1.715c0.162,-0.578 0.532,-1.08 0.963,-1.496c0.284,-0.274 0.618,-0.526 1.009,-0.582c0.231,-0.033 0.467,0.006 0.693,0.063c0.868,0.217 1.665,0.71 2.247,1.39c0.495,0.577 0.587,1.123 -0.128,1.365c-0.881,0.298 -1.107,0.569 -1.651,1.343Z" style="fill:#f5a784;fill-rule:nonzero;"/><path d="M53.934,53.706c-4.934,0.81 -10.324,2.448 -12.854,3.972c0.806,-2.137 2.084,-5.053 3.09,-4.774c1.031,0.287 6.166,-0.878 10.227,-0.938c0.919,0.559 1.409,1.433 -0.463,1.74Z" style="fill:#25182b;fill-rule:nonzero;"/><path d="M60.29,41.885c-0.806,2.423 -0.699,7.424 0.066,11.193c0,0 -3.795,0.459 -7.756,0.725c-0.121,0.007 -0.241,0.013 -0.361,0.007c-3.362,-0.12 -6.585,-0.599 -8.343,-0.926c0.433,-1.305 1.212,-4.527 1.132,-8.136c0,-0.167 -0.026,-0.327 -0.04,-0.493c-0.113,-1.405 -0.232,-2.79 -0.426,-4.175c-1.125,0.48 -2.756,1.159 -4.587,1.871c-0.979,-1.671 -1.964,-4.441 -2.611,-6.419c4.196,-3.615 6.076,-4.9 7.475,-4.98c0.633,-0.153 1.336,-0.174 1.921,-0.233c0.106,-0.011 0.213,-0.02 0.319,-0.027c0.027,-0.006 0.061,-0.006 0.087,-0.006c0.233,-0.02 0.453,-0.033 0.645,-0.047l4.834,5.067l2.851,-5.167c0.539,0.053 1.22,0.107 1.884,0.22c0.14,0.024 1.025,0.166 1.311,0.22c1.652,0.013 3.943,2.054 9.077,7.357c0.019,0.021 0.04,0.047 0.066,0.067c-1.092,2.557 -2.657,4.92 -3.523,6.132c-1.564,-0.865 -3.083,-1.718 -4.021,-2.25Z" style="fill:#8695c2;fill-rule:nonzero;"/><path d="M60.29,41.885c1.371,-3.283 -0.406,-5.607 -0.753,-6.013c2.377,2.657 4.774,8.263 4.774,8.263c-1.564,-0.865 -3.083,-1.718 -4.021,-2.25Z" style="fill:#6b779c;fill-rule:nonzero;"/><path d="M45.645,59.717c-0.625,1.978 -0.926,4.068 -1.383,6.093c-0.396,1.755 -0.892,3.498 -1.115,5.284c-0.023,0.182 0.254,0.2 0.307,0.042c0.6,-1.831 0.901,-3.768 1.324,-5.647c0.422,-1.881 0.99,-3.756 1.249,-5.667c0.033,-0.245 -0.302,-0.356 -0.382,-0.105Z" style="fill:#27192e;fill-rule:nonzero;"/><path d="M52.622,57.955c-0.004,-0.05 -0.081,-0.067 -0.093,-0.012c-1.1,5.123 -0.567,10.928 -0.146,16.108c0.027,0.338 0.559,0.34 0.53,0c-0.463,-5.38 0.044,-10.746 -0.291,-16.096Z" style="fill:#27192e;fill-rule:nonzero;"/><path d="M58.796,61.373c-0.023,-0.051 -0.095,-0.021 -0.097,0.026c-0.116,2.518 0.596,5.63 1.434,7.983c0.047,0.132 0.26,0.12 0.255,-0.034c-0.08,-2.506 -0.568,-5.679 -1.592,-7.975Z" style="fill:#27192e;fill-rule:nonzero;"/><path d="M33.331,111.811c-0.011,0.045 -0.021,0.089 -0.034,0.13c-0.113,0.208 -0.257,0.366 -0.431,0.472c-0.568,0.352 -1.446,0.222 -2.551,-0.12c-1.457,-0.447 -2.301,-0.455 -4.251,0.182c-0.963,0.314 -1.514,0.18 -1.825,-0.032c-0.178,-0.123 -0.277,-0.269 -0.332,-0.376c-0.048,-0.123 -0.086,-0.262 -0.113,-0.417c-0.055,-0.307 -0.065,-0.68 -0.041,-1.121c0.175,-3.053 4.825,-2.736 4.825,-2.736c0,0 4.653,-0.317 4.828,2.736c0.03,0.52 0.007,0.944 -0.075,1.282Zm3.053,4.128c-0.041,-0.076 -0.061,-0.114 -0.081,-0.148c-0.189,-0.373 -0.596,-1.477 -0.223,-3.501c0.044,-0.239 0.096,-0.489 0.164,-0.756c0.312,-1.231 0.735,-6.199 -7.666,-6.285c-8.398,0.086 -7.977,5.054 -7.663,6.285c0.082,0.322 0.144,0.622 0.191,0.907c0.326,1.931 -0.065,2.991 -0.253,3.35c-0.019,0.038 -0.041,0.075 -0.061,0.113c-0.715,1.304 -1.118,2.763 -1.118,4.315c0,4.921 3.987,8.907 8.904,8.907c4.92,0 8.903,-3.986 8.903,-8.907c0,-1.552 -0.401,-3.008 -1.097,-4.28Z" style="fill:#b8c3e3;fill-rule:nonzero;"/><path d="M36.244,111.534c-0.068,0.267 -0.12,0.517 -0.164,0.756c-1.077,0.024 -2.059,-0.229 -2.749,-0.479c0.082,-0.338 0.105,-0.762 0.075,-1.282c-0.175,-3.053 -4.828,-2.736 -4.828,-2.736c0,0 -4.65,-0.317 -4.825,2.736c-0.024,0.441 -0.014,0.814 0.041,1.121c-0.937,0.404 -1.894,0.647 -2.688,0.791c-0.047,-0.285 -0.109,-0.585 -0.191,-0.907c-0.314,-1.231 -0.735,-6.199 7.663,-6.285c8.401,0.086 7.978,5.054 7.666,6.285Z" style="fill:#8695c2;fill-rule:nonzero;"/><path d="M25.545,120.221c0,-1.675 1.357,-3.033 3.033,-3.033c1.675,0 3.033,1.358 3.033,3.033c0,1.676 -1.358,3.033 -3.033,3.033c-1.676,0 -3.033,-1.357 -3.033,-3.033Z" style="fill:#8695c2;fill-rule:nonzero;"/><path d="M23.635,115.705c-1.286,0.809 -1.551,2.939 -1.381,4.305c0.028,0.224 0.382,0.328 0.435,0.058c0.153,-0.766 0.125,-1.553 0.317,-2.315c0.172,-0.681 0.519,-1.216 0.865,-1.812c0.084,-0.146 -0.088,-0.33 -0.236,-0.236Z" style="fill:#d4defa;fill-rule:nonzero;"/><path d="M34.844,122.701c-0.016,-0.161 -0.245,-0.263 -0.334,-0.091c-0.298,0.586 -0.451,1.177 -0.892,1.69c-0.318,0.37 -0.868,0.687 -0.91,1.2c-0.004,0.041 0.039,0.081 0.079,0.079c0.543,-0.027 1.082,-0.717 1.398,-1.122c0.374,-0.477 0.719,-1.133 0.659,-1.756Z" style="fill:#d4defa;fill-rule:nonzero;"/><path d="M71.692,116.097l8.356,-0.016c-0.002,-1.06 0.856,-1.922 1.916,-1.924c1.06,-0.002 1.922,0.857 1.924,1.916l0.005,2.485c0.001,1.059 -0.857,1.921 -1.917,1.923c-1.06,0.002 -1.921,-0.856 -1.923,-1.916l-8.356,0.016c0.002,1.06 -0.855,1.921 -1.916,1.923c-1.059,0.002 -1.921,-0.855 -1.923,-1.916l-0.005,-2.484c-0.002,-1.06 0.856,-1.921 1.916,-1.923c1.06,-0.002 1.921,0.855 1.923,1.916Z" style="fill:#8695c2;fill-rule:nonzero;"/><path d="M88.63,116.097l8.355,-0.016c-0.002,-1.06 0.857,-1.922 1.916,-1.924c1.061,-0.002 1.921,0.857 1.923,1.916l0.005,2.485c0.002,1.059 -0.855,1.921 -1.916,1.923c-1.06,0.002 -1.921,-0.856 -1.923,-1.916l-8.355,0.016c0.002,1.06 -0.857,1.921 -1.916,1.923c-1.061,0.002 -1.921,-0.855 -1.923,-1.916l-0.005,-2.484c-0.002,-1.06 0.855,-1.921 1.916,-1.923c1.06,-0.002 1.921,0.855 1.923,1.916Z" style="fill:#8695c2;fill-rule:nonzero;"/><path d="M71.692,124.649l8.356,-0.015c-0.002,-1.06 0.856,-1.921 1.916,-1.923c1.06,-0.002 1.922,0.855 1.924,1.916l0.005,2.483c0.001,1.061 -0.857,1.922 -1.917,1.924c-1.06,0.002 -1.921,-0.856 -1.923,-1.916l-8.356,0.016c0.002,1.06 -0.855,1.921 -1.916,1.923c-1.059,0.003 -1.921,-0.856 -1.923,-1.915l-0.005,-2.485c-0.002,-1.06 0.856,-1.921 1.916,-1.923c1.06,-0.002 1.921,0.856 1.923,1.915Z" style="fill:#8695c2;fill-rule:nonzero;"/><path d="M88.63,124.649l8.355,-0.015c-0.002,-1.06 0.857,-1.921 1.916,-1.923c1.061,-0.002 1.921,0.855 1.923,1.916l0.005,2.483c0.002,1.061 -0.855,1.922 -1.916,1.924c-1.06,0.002 -1.921,-0.856 -1.923,-1.916l-8.355,0.016c0.002,1.06 -0.857,1.921 -1.916,1.923c-1.061,0.003 -1.921,-0.856 -1.923,-1.915l-0.005,-2.485c-0.002,-1.06 0.855,-1.921 1.916,-1.923c1.06,-0.002 1.921,0.856 1.923,1.915Z" style="fill:#8695c2;fill-rule:nonzero;"/><path d="M99.976,122.26l-31.27,0c-0.471,0 -0.853,-0.382 -0.853,-0.854c-0,-0.514 0.382,-0.896 0.853,-0.896l31.27,0c0.471,0 0.853,0.382 0.853,0.852c0,0.516 -0.382,0.898 -0.853,0.898Z" style="fill:#c6c6c6;fill-rule:nonzero;"/></g></svg>