<?xml version="1.0" encoding="UTF-8" standalone="no"?><!DOCTYPE svg PUBLIC "-//W3C//DTD SVG 1.1//EN" "http://www.w3.org/Graphics/SVG/1.1/DTD/svg11.dtd"><svg width="100%" height="100%" viewBox="0 0 143 118" version="1.1" xmlns="http://www.w3.org/2000/svg" xmlns:xlink="http://www.w3.org/1999/xlink" xml:space="preserve" xmlns:serif="http://www.serif.com/" style="fill-rule:evenodd;clip-rule:evenodd;stroke-linejoin:round;stroke-miterlimit:2;"><g><path d="M142.151,115.354c-1.092,-0.12 -2.184,-0.207 -3.29,-0.26c-0.306,-0.013 -89.616,-0.047 -89.616,-0.047c-0.067,0.007 -0.134,0.007 -0.2,0.014c-0.029,0.002 -0.057,0.005 -0.085,0.008c-3.475,-0.006 -11.502,-0.022 -11.502,-0.022c-0.067,0.007 -0.133,0.007 -0.2,0.014c-0.083,0.006 -0.166,0.015 -0.248,0.022c-1.663,-0 -22.672,-0.036 -22.672,-0.036c-0.067,0.007 -0.134,0.007 -0.2,0.014c-0.029,0.002 -0.057,0.005 -0.086,0.008c-3.475,-0.006 -11.502,-0.022 -11.502,-0.022c-0.066,0.007 -0.132,0.007 -0.199,0.014c-0.48,0.033 -0.959,0.073 -1.432,0.126c-1.225,0.127 -1.225,1.772 -0,1.898c0.48,0.053 0.952,0.093 1.432,0.133c0.06,0.007 0.126,0.007 0.186,0.014c-0,-0 7.815,-0.016 11.51,-0.022c0.03,0.002 0.06,0.005 0.091,0.008c0.06,0.007 0.126,0.007 0.186,0.014c-0,-0 15.258,-0.031 22.674,-0.038c0.087,0.009 0.173,0.016 0.26,0.024c0.06,0.007 0.127,0.007 0.186,0.014c-0,-0 7.815,-0.016 11.51,-0.022c0.031,0.002 0.061,0.005 0.091,0.008c0.06,0.007 0.127,0.007 0.187,0.014c-0,-0 77.536,-0.04 77.849,-0.054c0.042,-0.002 0.083,-0.007 0.125,-0.008c2.051,-0.055 11.349,0.022 11.662,0.008c1.106,-0.053 2.198,-0.139 3.283,-0.26c0.999,-0.113 1.005,-1.451 -0,-1.564Z" style="fill:#c6c6c6;fill-rule:nonzero;"/><path d="M29.646,106.406c-4.485,-0.1 -9.476,-0.618 -12.43,-3.995c-3.315,-3.79 -2.698,-9.589 -4.762,-14.183c-2.17,-4.827 -7.178,-8.034 -8.927,-13.029c-1.955,-5.58 0.725,-11.724 4.163,-16.533c3.438,-4.811 7.76,-9.164 9.732,-14.737c1.916,-5.411 1.39,-11.354 2.357,-17.012c2.374,-13.878 14.766,-25.409 28.779,-26.777c5.832,-0.569 12,0.565 16.685,4.083c7.758,5.827 10.224,16.986 18.306,22.355c7.639,5.075 18.073,3.507 26.226,7.706c6.405,3.299 10.769,10.24 10.965,17.442c0.175,6.388 -2.666,12.732 -1.563,19.026c0.631,3.604 2.51,6.858 3.589,10.353c2.02,6.548 1.056,13.953 -2.573,19.766c-3.628,5.811 -9.858,9.929 -16.628,10.989c-12.879,2.016 -24.509,-5.989 -36.995,-7.399c-6.826,-0.77 -12.286,2.94 -18.745,2.875c-5.95,-0.059 -12.126,-0.796 -18.179,-0.93Z" style="fill:#f6f6f6;fill-rule:nonzero;"/><path d="M9.229,100.215c-0,-0 -1.565,0.883 -2.583,2.304c-0.714,0.996 -2.607,2.926 -3.48,3.148c-0,-0 -0.172,0.001 -0.427,-0.054c-0.036,-0.008 -0.075,-0.017 -0.113,-0.031c-0.225,-0.065 -0.496,-0.174 -0.76,-0.378c-0.019,-0.014 -0.041,-0.031 -0.062,-0.048c-0.185,-0.148 -0.37,-0.342 -0.519,-0.596c-0.013,-0.021 -0.025,-0.043 -0.037,-0.064c-0.114,-0.196 -0.216,-0.422 -0.297,-0.689c-0,-0 2.013,-1.857 2.424,-2.683c-0,-0 -1.492,0.793 -1.934,0.503l-0.157,-0.328c-0,-0 1.509,-1.037 2.138,-1.56c1.531,-1.274 3.547,-1.226 3.547,-1.226c-0,-0 2.686,0.332 2.26,1.702Z" style="fill:#f5a784;fill-rule:nonzero;"/><path d="M1.285,104.56c-0.012,-0.021 -0.025,-0.043 -0.037,-0.064c0.966,-0.758 1.783,-1.654 2.65,-2.543c0.016,-0.017 0.048,0.005 0.036,0.026c-0.663,1.067 -1.617,1.884 -2.649,2.581Z" style="fill:#e0855c;fill-rule:nonzero;"/><path d="M1.866,105.204c-0.019,-0.014 -0.041,-0.031 -0.062,-0.048c0.969,-0.759 1.782,-1.653 2.651,-2.54c0.017,-0.017 0.049,0.005 0.034,0.024c-0.656,1.06 -1.6,1.872 -2.623,2.564Z" style="fill:#e0855c;fill-rule:nonzero;"/><path d="M2.739,105.613c-0.036,-0.008 -0.075,-0.017 -0.113,-0.031c0.903,-0.728 1.676,-1.576 2.498,-2.414c0.014,-0.019 0.046,0.002 0.033,0.024c-0.586,1.004 -1.475,1.761 -2.418,2.421Z" style="fill:#e0855c;fill-rule:nonzero;"/><path d="M34.183,73.326c-1.359,2.756 -3.256,5.326 -4.968,7.697c-0.272,0.379 -0.552,0.766 -0.832,1.145c-1.804,2.444 -3.715,4.828 -5.753,7.078c-0.486,0.533 -1.111,1.138 -1.831,1.791c-2.463,2.244 -6.039,5.027 -8.789,7.104c-2.344,1.765 -4.102,3.03 -4.102,3.03l-0.939,-2.658c-0,-0 0.753,-0.691 2.777,-2.555c2.517,-2.325 5.806,-5.434 7.87,-7.644c0.573,-0.62 1.053,-1.166 1.392,-1.605c1.565,-2.018 2.643,-4.681 3.669,-7.011c0.599,-1.359 1.318,-2.657 2.098,-3.922c0.772,-1.259 1.604,-2.483 2.45,-3.695c1.697,-2.431 3.922,-5.42 5.406,-9.009c0.107,-0 2.064,4.287 2.424,5.792c0.426,1.778 -0.087,2.856 -0.872,4.462Z" style="fill:#3b2645;fill-rule:nonzero;"/><path d="M114.884,107.477c-0,4.414 -3.576,7.989 -7.99,7.989c-0.48,-0 -0.946,-0.039 -1.405,-0.126c-0.3,-0.047 -0.593,-0.12 -0.886,-0.206c-0.686,-0.207 -1.338,-0.5 -1.937,-0.873c-0.24,-0.152 -0.473,-0.312 -0.693,-0.485c-0.613,-0.48 -1.152,-1.046 -1.598,-1.685c-0.932,-1.305 -1.472,-2.896 -1.472,-4.614c-0,-4.408 3.576,-7.99 7.991,-7.99c0.719,-0 1.411,0.093 2.077,0.272c0.273,0.074 0.539,0.16 0.799,0.267c0.766,0.293 1.476,0.709 2.111,1.212c0.093,0.073 0.181,0.144 0.266,0.22c0.21,0.182 0.413,0.378 0.6,0.585c1.324,1.425 2.137,3.336 2.137,5.434Z" style="fill:#8695c2;fill-rule:nonzero;"/><path d="M113.352,105.852c-0,4.414 -3.575,7.99 -7.99,7.99c-0.479,-0 -0.945,-0.04 -1.405,-0.127c-0.299,-0.046 -0.592,-0.119 -0.885,-0.206c-0.686,-0.206 -1.339,-0.5 -1.938,-0.872c-0.239,-0.153 -0.473,-0.313 -0.693,-0.486c-0.02,-0.02 -0.046,-0.033 -0.066,-0.06c-0.932,-1.305 -1.472,-2.896 -1.472,-4.614c-0,-4.408 3.576,-7.99 7.991,-7.99c0.719,-0 1.411,0.093 2.077,0.272c0.273,0.074 0.539,0.16 0.799,0.267c0.766,0.293 1.478,0.706 2.111,1.212c0.925,1.305 1.471,2.896 1.471,4.614Z" style="fill:#b8c3e3;fill-rule:nonzero;"/><path d="M128.3,33.214c-1.205,1.599 -4.061,3.123 -5.213,5.568c-1.232,2.623 -3.05,2.689 -4.814,2.157c-0.899,-0.267 -5.18,1.505 -10.094,3.575c-4.735,1.998 -10.054,4.281 -13.53,5.307c-4.515,1.332 -17.672,8.996 -27.72,11.706c-2.211,0.593 -4.268,0.998 -6.066,1.099c-0.905,0.059 -1.744,0.04 -2.503,-0.074c-6.026,-0.885 -6.719,-11.253 -5.5,-11.392c0.1,-0.014 0.606,-0.154 1.385,-0.38c3.888,-1.146 14.535,-4.454 15.175,-4.541c6.238,-0.886 17.072,-2.956 25.728,-4.681c2.723,-0.546 23.025,-5.154 23.025,-5.154c-0,-0 5.014,-2.124 9.329,-4.175c0.619,-0.286 1.218,0.434 0.798,0.985Z" style="fill:#f5a784;fill-rule:nonzero;"/><path d="M127.941,86.436c-0.792,1.591 -4.761,1.811 -7.145,1.997c-1.397,0.113 -5.892,2.371 -6.571,0.553c-0.679,-1.811 -2.378,-3.556 -2.378,-3.556c-0,-0 -3.928,-3.256 -8.742,-7.697c-3.835,-3.549 -8.237,-7.85 -11.659,-11.865c-2.51,-2.95 -23.857,3.543 -30.176,-4.348c-2.917,-3.643 -2.917,-6.492 -2.078,-8.503c0.985,-2.35 3.123,-3.562 3.123,-3.562c0.18,-0.1 4.767,0.619 10.547,1.804c8.709,1.784 20.142,4.634 23.345,7.351c1.971,1.684 5.22,5.4 8.529,9.415c1.132,1.372 9.409,11.865 9.635,12.165c1.258,1.459 4.122,4.068 8.749,4.435c3.955,0.313 5.613,0.219 4.821,1.811Z" style="fill:#f5a784;fill-rule:nonzero;"/><path d="M108.106,72.18l-5.001,5.553c-3.835,-3.549 -8.237,-7.85 -11.659,-11.865c-0.073,-0.086 -0.158,-0.161 -0.259,-0.233c-3.431,-2.417 -23.785,3.549 -29.917,-4.115c-2.917,-3.643 -2.917,-6.492 -2.078,-8.503c0.985,-2.35 3.123,-3.562 3.123,-3.562c0.18,-0.1 4.767,0.619 10.547,1.804c8.709,1.784 20.142,4.634 23.345,7.351c1.971,1.684 5.22,5.4 8.529,9.415c1.132,1.372 2.271,2.783 3.37,4.155Z" style="fill:#ff4590;fill-rule:nonzero;"/><path d="M108.179,44.514c-4.735,1.998 -10.054,4.281 -13.53,5.307c-1.938,0.573 -5.453,2.306 -9.642,4.314c-5.585,2.68 -12.338,5.847 -18.078,7.392c-2.211,0.593 -4.268,0.998 -6.066,1.099l-6.618,-11.846c3.888,-1.146 14.535,-4.454 15.175,-4.541c6.238,-0.886 17.072,-2.956 25.728,-4.681c2.723,-0.546 6.379,-1.339 9.975,-2.144c0.758,0.985 1.651,2.284 2.443,3.822c0.213,0.413 0.419,0.839 0.613,1.278Z" style="fill:#ff4590;fill-rule:nonzero;"/><path d="M61.27,61.52c-0,-0 -13.957,6.166 -16.453,9.108c-0.24,0.288 -0.547,0.546 -0.899,0.78c-1.958,1.311 -5.401,1.991 -8.33,3.602c-0.42,0.227 -0.833,0.48 -1.219,0.752c-0.805,0.56 -1.545,1.226 -2.157,2.025c-0.473,0.626 -0.866,1.298 -1.145,2.024c-0,-0 -4.568,-2.624 -2.511,-6.665c0.666,-1.306 1.658,-2.444 2.311,-3.769c0.206,-0.413 0.386,-0.826 0.546,-1.232c0.566,-1.411 0.885,-2.81 1.112,-4.401c0.279,-1.951 0.832,-4.102 2.503,-5.147c1.385,-0.866 3.15,-0.732 4.701,-1.232c1.019,-0.326 6.14,-3.928 16.015,-6.405c1.304,-0.333 5.585,8.323 5.526,10.56Z" style="fill:#f5a784;fill-rule:nonzero;"/><path d="M32.212,77.787c-0.473,0.626 -0.866,1.298 -1.145,2.024c-0,-0 -4.568,-2.624 -2.511,-6.665c-0,-0 0.284,-0.343 1.163,-1.734c0.973,0.886 2.904,2.63 2.493,6.375Z" style="fill:#e0855c;fill-rule:nonzero;"/><path d="M61.29,60.547c-0.007,0.328 -0.014,0.647 -0.02,0.973c-0,-0 -8.217,3.629 -13.171,6.651c-1.498,0.913 -2.703,1.772 -3.282,2.457c-0.24,0.288 -0.547,0.546 -0.899,0.78c-0.413,-1.172 -1.718,-4.468 -4.894,-3.729c-0.467,0.107 -0.866,0.32 -1.212,0.613c-0.08,0.066 -0.12,0.113 -0.12,0.113c-1.751,1.611 -2.018,5.266 -2.357,6.745c-0.42,0.227 -0.58,0.34 -0.966,0.612c-0.253,-2.783 -1.565,-5.472 -2.956,-7.617c0.566,-1.411 0.885,-2.81 1.112,-4.401c0.279,-1.951 0.832,-4.102 2.503,-5.147c1.385,-0.866 3.15,-0.732 4.701,-1.232c1.019,-0.326 7.957,-5.113 17.832,-7.591c0.013,0.014 0.02,0.027 0.033,0.04c2.464,3.023 3.775,6.832 3.696,10.733Z" style="fill:#3b2645;fill-rule:nonzero;"/><path d="M108.179,44.514c-4.735,1.998 -10.054,4.281 -13.53,5.307c-1.938,0.573 -5.454,2.304 -9.642,4.314l-17.958,-2.363c-0,-0 14.96,1.188 24.51,-2.684c6.538,-2.65 13.91,-4.966 16.007,-5.852c0.213,0.413 0.419,0.839 0.613,1.278Z" style="fill:#de3c7c;fill-rule:nonzero;"/><path d="M104.49,76.195l-1.385,1.538c-3.835,-3.549 -8.237,-7.85 -11.659,-11.865c-0.073,-0.086 -0.16,-0.159 -0.259,-0.233c0.106,0.006 1.378,0.173 5.639,3.935c2.803,2.471 5.813,5.047 7.664,6.625Z" style="fill:#de3c7c;fill-rule:nonzero;"/><path d="M29.502,80.942c-0,-0 1.056,1.818 2.085,0.14c1.029,-1.678 -0.977,-3.321 -0.977,-3.321l-1.108,3.181Z" style="fill:#f5a784;fill-rule:nonzero;"/><path d="M90.4,88.353l-0,0.08c-0,0.912 -0.046,1.812 -0.132,2.697c-0.047,0.473 -0.107,0.932 -0.181,1.392c-0.212,1.411 -0.539,2.783 -0.965,4.108c-0.153,0.499 -0.326,0.986 -0.513,1.465c-3.881,10.061 -13.643,17.192 -25.069,17.192c-13.477,-0 -24.637,-9.928 -26.561,-22.878c-0.046,-0.321 -0.093,-0.64 -0.126,-0.966c-0.113,-0.985 -0.167,-1.99 -0.167,-3.01c-0,-0.119 -0,-0.246 0.007,-0.366c-0,-0.313 0.007,-0.619 0.027,-0.932c0.066,-1.445 0.246,-2.863 0.539,-4.241c0.086,-0.406 0.18,-0.807 0.28,-1.206c0.586,-2.27 1.465,-4.428 2.596,-6.418c3.982,-7.078 11.087,-12.165 19.443,-13.391c1.292,-0.2 2.617,-0.299 3.962,-0.299c14.256,-0 25.915,11.106 26.807,25.129c0.033,0.545 0.053,1.092 0.053,1.644Z" style="fill:#8695c2;fill-rule:nonzero;"/><path d="M89.122,96.63c-0.153,0.499 -0.326,0.986 -0.513,1.465c-2.517,-0.866 -5.041,-1.731 -7.617,-2.411c-5.44,-1.437 -10.98,-2.496 -16.567,-3.162c-5.226,-0.626 -10.5,-0.912 -15.767,-0.859c-3.908,0.047 -7.79,0.486 -11.679,0.746c-0.046,-0.321 -0.093,-0.64 -0.126,-0.966c9.308,-1.685 19.675,-0.912 28.778,0.213c7.59,0.932 15.953,2.304 23.491,4.974Z" style="fill:#b8c3e3;fill-rule:nonzero;"/><path d="M90.268,91.13c-0.047,0.473 -0.107,0.932 -0.181,1.392c-7.63,-2.49 -15.341,-4.448 -23.477,-5.34c-10.028,-1.099 -20.029,-0.806 -29.917,0.885c-0,-0.313 0.007,-0.619 0.027,-0.932c3.875,-1.092 8.143,-1.252 12.025,-1.465c5.952,-0.333 11.932,-0.167 17.865,0.459c7.91,0.839 16.006,2.405 23.658,5.001Z" style="fill:#b8c3e3;fill-rule:nonzero;"/><path d="M90.4,88.353c-3.229,-1.052 -6.452,-2.157 -9.741,-3.022c-5.26,-1.385 -10.607,-2.471 -16.001,-3.163c-5.22,-0.672 -10.493,-0.953 -15.754,-0.74c-3.961,0.16 -7.796,0.793 -11.645,1.466c0.086,-0.406 0.18,-0.807 0.28,-1.206c8.776,-2.051 18.557,-1.69 27.173,-0.659c8.443,1.006 17.398,2.783 25.635,5.68c0.033,0.545 0.053,1.092 0.053,1.644Z" style="fill:#b8c3e3;fill-rule:nonzero;"/><path d="M35.468,74.47c-0.046,0.26 -0.087,0.487 -0.133,0.68c-0.027,0.013 -0.054,0.033 -0.08,0.047c0.066,-0.253 0.14,-0.493 0.213,-0.727Z" style="fill:#3b2645;fill-rule:nonzero;"/><path d="M28.383,82.168c-1.804,2.444 -3.715,4.828 -5.753,7.078c-0.486,0.533 -1.111,1.138 -1.831,1.791c-0.739,-1.731 -2.004,-2.457 -3.183,-2.723c0.573,-0.62 1.053,-1.166 1.392,-1.605c1.565,-2.018 2.643,-4.681 3.669,-7.011c0.599,-1.359 1.318,-2.657 2.098,-3.922l3.608,6.392Z" style="fill:#291b30;fill-rule:nonzero;"/><path d="M29.122,88.926c-0.013,0.673 -0.372,1.652 -0.692,2.257c-0.506,0.952 -1.438,1.678 -2.497,1.932c-0.16,0.033 -0.32,0.063 -0.486,0.079c-0.287,0.028 -0.586,0.02 -0.872,-0.033c-1.186,-0.227 -2.118,-1.219 -2.584,-2.33c-0.659,-1.565 -0.932,-3.943 -0.206,-5.534l0.033,-0.073c0.133,-0.293 0.253,-0.472 0.253,-0.472c0.107,0.052 0.213,0.106 0.313,0.159c0.106,0.06 0.22,0.113 0.326,0.167c1.678,0.805 3.563,1.065 5.294,0.319c0.859,1.065 1.145,2.171 1.118,3.529Z" style="fill:#ff4590;fill-rule:nonzero;"/><path d="M29.122,88.926c-0.013,0.673 -0.372,1.652 -0.692,2.257c-0.506,0.952 -1.438,1.678 -2.497,1.932c-0.16,0.033 -0.32,0.066 -0.486,0.079c0.513,-0.659 0.952,-1.591 0.992,-2.876c0.1,-3.23 -2.703,-4.375 -2.703,-4.375c-0,-0 -0.919,-0.413 -1.026,-0.865c1.678,0.805 3.563,1.065 5.294,0.319c0.859,1.065 1.145,2.171 1.118,3.529Z" style="fill:#de3c7c;fill-rule:nonzero;"/><path d="M22.117,76.518c-0,-0 -5.809,6.468 1.15,9.589c7.565,3.393 9.417,-3.111 8.987,-5.637c-0.431,-2.525 -9.114,-7.204 -10.137,-3.952Z" style="fill:#ff4590;fill-rule:nonzero;"/><path d="M21.037,80.525c-0.216,-0.893 0.158,-2.249 0.72,-3.793c1.699,-4.674 4.605,-5.476 6.117,-4.871c1.552,0.621 4.561,2.584 3.355,7.065c-0.603,2.242 -1.339,4.033 -2.273,4.939c-1.958,1.899 -6.972,0.575 -7.919,-3.34Z" style="fill:#f5a784;fill-rule:nonzero;"/><path d="M24.007,77.291c-0,-0 -0.339,-0.309 -0.562,0.421c-0.2,0.658 0.119,0.685 0.119,0.685c-0,-0 0.276,0.113 0.457,-0.459c0.18,-0.572 -0.014,-0.647 -0.014,-0.647Z" style="fill:#3b2645;fill-rule:nonzero;"/><path d="M27.822,78.71c-0,-0 -0.34,-0.308 -0.562,0.422c-0.2,0.658 0.118,0.686 0.118,0.686c-0,-0 0.276,0.112 0.457,-0.46c0.181,-0.572 -0.013,-0.648 -0.013,-0.648Z" style="fill:#3b2645;fill-rule:nonzero;"/><path d="M26.687,76.594c-0.214,-0.051 -0.629,-0.357 -0.811,-0.176c-0.152,0.149 -0.257,1.352 -0.285,1.554c-0.03,0.222 -0.051,0.423 -0.072,0.62c-0.023,0.006 -0.046,0.014 -0.07,0.016c-0.052,0.007 -0.101,0.004 -0.148,-0.003c0.106,-0.812 0.281,-1.636 0.384,-2.404c0.009,-0.068 0.081,-0.115 0.146,-0.087c0.295,0.123 0.607,0.176 0.904,0.293c0.099,0.039 0.062,0.213 -0.048,0.187Z" style="fill:#e0855c;fill-rule:nonzero;"/><path d="M23.586,79.611c-0.345,0.03 -0.894,-0.145 -0.983,-0.526c-0.016,-0.069 0.067,-0.13 0.129,-0.101c0.139,0.063 0.237,0.183 0.375,0.252c0.149,0.074 0.309,0.098 0.474,0.109c0.149,0.012 0.156,0.251 0.005,0.266Z" style="fill:#3b2645;fill-rule:nonzero;"/><path d="M27.7,80.746c-0.325,0.34 -1.049,0.095 -1.25,-0.277c-0.046,-0.085 0.042,-0.176 0.126,-0.17c0.198,0.016 0.358,0.158 0.548,0.214c0.167,0.05 0.322,0.03 0.493,0.037c0.087,0.004 0.146,0.13 0.083,0.196Z" style="fill:#3b2645;fill-rule:nonzero;"/><path d="M27.609,75.69c-0.224,-0.251 -0.371,-0.497 -0.695,-0.643c-0.252,-0.112 -0.578,-0.101 -0.785,-0.285c-0.033,-0.029 -0.043,-0.088 -0.001,-0.116c0.298,-0.201 0.793,-0.032 1.086,0.114c0.314,0.158 0.65,0.433 0.695,0.801c0.022,0.174 -0.189,0.253 -0.3,0.129Z" style="fill:#e0855c;fill-rule:nonzero;"/><path d="M30.66,80.815c-0,-0 -1.477,-0.007 -2.182,1.86c-0.705,1.868 -1.986,1.123 -3.094,1.123c-1.108,-0 -1.192,0.412 -1.192,0.412c-0,-0 -0.374,-0.769 -1.244,-1.185c-0.869,-0.417 -1.236,-1.021 -0.924,-1.782c0.313,-0.763 -1.146,-1.049 -1.019,-1.769c0.127,-0.72 -0.47,1.172 -0.47,1.172l1.063,3.25l2.792,1.563l3.105,0.073l2.281,-0.66c-0,-0 1.33,-1.808 1.372,-1.912c0.042,-0.105 -0.678,-0.903 -0.488,-2.145Z" style="fill:#ff4590;fill-rule:nonzero;"/><path d="M59.578,61.879c-12.524,2.77 -18.304,15.934 -18.304,15.934c-0,-0 -0.546,-1.012 -1.139,-2.543c3.982,-7.078 11.087,-12.165 19.443,-13.391Z" style="fill:#6b779c;fill-rule:nonzero;"/><path d="M24.771,108.296c-0,-0 -1.315,1.312 -1.936,3.01c-0.434,1.189 -1.787,3.634 -2.594,4.096c-0,-0 -0.172,0.049 -0.44,0.064c-0.038,0.003 -0.079,0.005 -0.122,0.001c-0.241,-0.002 -0.541,-0.036 -0.86,-0.166c-0.023,-0.008 -0.05,-0.019 -0.076,-0.03c-0.224,-0.097 -0.462,-0.239 -0.681,-0.45c-0.019,-0.018 -0.036,-0.036 -0.055,-0.055c-0.168,-0.162 -0.332,-0.359 -0.486,-0.603c-0,-0 1.491,-2.406 1.672,-3.343c-0,-0 -1.267,1.203 -1.788,1.036l-0.246,-0.282c-0,-0 1.215,-1.45 1.697,-2.146c1.172,-1.691 3.192,-2.202 3.192,-2.202c-0,-0 2.768,-0.411 2.723,1.07Z" style="fill:#f5a784;fill-rule:nonzero;"/><path d="M18.062,114.821c-0.018,-0.019 -0.036,-0.036 -0.055,-0.055c0.753,-1.02 1.318,-2.139 1.935,-3.264c0.012,-0.022 0.049,-0.008 0.043,0.016c-0.365,1.246 -1.089,2.323 -1.923,3.303Z" style="fill:#e0855c;fill-rule:nonzero;"/><path d="M18.819,115.301c-0.023,-0.008 -0.049,-0.019 -0.076,-0.03c0.755,-1.024 1.318,-2.14 1.938,-3.263c0.012,-0.021 0.049,-0.008 0.04,0.015c-0.36,1.236 -1.076,2.307 -1.902,3.278Z" style="fill:#e0855c;fill-rule:nonzero;"/><path d="M19.801,115.466c-0.038,0.003 -0.079,0.005 -0.122,0.001c0.699,-0.974 1.234,-2.032 1.82,-3.094c0.009,-0.024 0.047,-0.01 0.041,0.014c-0.306,1.162 -0.983,2.161 -1.739,3.079Z" style="fill:#e0855c;fill-rule:nonzero;"/><path d="M43.974,70.209c-1.092,1.583 -1.719,3.364 -2.134,5.307c-0.02,0.107 -0.04,0.199 -0.06,0.293c-0.02,0.093 -0.04,0.173 -0.06,0.26c-0.013,0.053 -0.02,0.093 -0.033,0.126c-0.007,0.04 -0.013,0.08 -0.027,0.12c-1.485,6.232 -5.007,14.229 -6.578,17.352c-1.485,2.943 -5.32,8.143 -8.117,11.798c-1.844,2.405 -3.242,4.149 -3.242,4.149l-1.843,-2.338c-0,-0 0.73,-0.944 2.229,-3.361c2.377,-3.849 5.66,-9.316 6.665,-11.773c0.737,-1.802 1.051,-3.834 1.442,-5.73c0.507,-2.464 0.962,-4.939 1.399,-7.416c0.173,-0.982 0.318,-1.971 0.507,-2.949c0.062,-0.318 0.207,-0.576 0.281,-0.886c0.328,-1.365 -0.115,-2.975 -0.218,-4.349c-0.113,-1.508 0.008,-3.137 0.929,-4.335c0.701,-0.91 1.861,-1.464 2.742,-2.196c0.974,-0.81 2.191,-1.561 3.503,-1.535c1.33,0.026 2.499,0.865 3.482,1.76c0.819,0.746 1.642,1.785 1.336,2.849c-0.166,0.578 -0.633,1.011 -1.051,1.444c-0.433,0.451 -0.814,0.92 -1.152,1.41Z" style="fill:#3b2645;fill-rule:nonzero;"/><path d="M57.89,28.192c-4.872,0.215 -9.91,1.671 -14.457,3.353c-4.6,1.703 -9.242,3.893 -13.159,6.874c-0.16,0.122 -0.021,0.387 0.163,0.279c4.349,-2.571 8.637,-5.013 13.41,-6.738c4.627,-1.672 9.293,-2.454 14.1,-3.349c0.236,-0.044 0.182,-0.429 -0.057,-0.419Z" style="fill:#c1cae3;fill-rule:nonzero;"/><path d="M69.105,34.874c-3.995,-0.261 -8.315,0.561 -12.174,1.539c-3.982,1.008 -7.809,2.481 -11.406,4.464c-0.164,0.09 -0.02,0.324 0.144,0.247c3.67,-1.728 7.476,-3.172 11.419,-4.143c3.994,-0.984 7.954,-1.189 12.017,-1.598c0.323,-0.033 0.332,-0.488 -0,-0.509Z" style="fill:#c1cae3;fill-rule:nonzero;"/></g></svg>