<?xml version="1.0" encoding="UTF-8" standalone="no"?><!DOCTYPE svg PUBLIC "-//W3C//DTD SVG 1.1//EN" "http://www.w3.org/Graphics/SVG/1.1/DTD/svg11.dtd"><svg width="100%" height="100%" viewBox="0 0 104 130" version="1.1" xmlns="http://www.w3.org/2000/svg" xmlns:xlink="http://www.w3.org/1999/xlink" xml:space="preserve" xmlns:serif="http://www.serif.com/" style="fill-rule:evenodd;clip-rule:evenodd;stroke-linejoin:round;stroke-miterlimit:2;"><g><path d="M95.456,128.834c-1.086,0.121 -2.177,0.207 -3.282,0.26c-0.314,0.014 -89.637,0.054 -89.637,0.054c-0.06,-0.007 -0.126,-0.007 -0.187,-0.014c-0.48,-0.04 -0.952,-0.08 -1.43,-0.133c-1.227,-0.126 -1.227,-1.771 -0,-1.898c0.472,-0.053 0.95,-0.093 1.43,-0.126c0.067,-0.007 0.134,-0.007 0.201,-0.014c-0,-0 89.309,0.034 89.616,0.047c1.104,0.054 2.197,0.14 3.289,0.26c1.006,0.113 0.999,1.451 -0,1.564Z" style="fill:#c6c6c6;fill-rule:nonzero;"/><path d="M23.308,114.75c-5.492,-3.47 -9.84,-9.511 -9.427,-15.995c0.415,-6.52 5.305,-11.778 7.773,-17.829c0.569,-1.398 1.019,-2.906 0.814,-4.402c-0.219,-1.611 -1.163,-3.016 -2.025,-4.396c-3.544,-5.675 -6.142,-12.204 -5.823,-18.887c0.318,-6.685 4.042,-13.47 10.217,-16.05c4.804,-2.008 10.938,-1.602 14.352,-5.532c2.381,-2.739 2.565,-6.671 3.366,-10.208c2.715,-11.987 14.631,-21.193 26.914,-20.793c4.343,0.141 8.772,1.431 12.03,4.307c5.493,4.848 6.559,12.974 6.288,20.295c-0.24,6.491 -1.167,13.364 1.736,19.172c1.953,3.908 5.414,6.818 8.044,10.307c4.728,6.273 6.645,14.587 5.143,22.298c-1.502,7.711 -6.4,14.696 -13.137,18.737c-3.225,1.934 -7.158,3.571 -8.414,7.114c-0.819,2.31 -0.244,4.877 -0.643,7.295c-0.685,4.16 -4.254,7.403 -8.229,8.806c-3.977,1.401 -8.319,1.265 -12.517,0.875c-3.577,-0.333 -6.915,-0.608 -10.374,0.512c-3.079,0.996 -4.912,2.489 -8.186,1.678c-5.657,-1.4 -12.974,-4.191 -17.902,-7.304Z" style="fill:#f6f6f6;fill-rule:nonzero;"/><path d="M54.986,61.408l-1.705,9.282c-0.159,0.633 -0.446,1.39 -0.825,2.249c-3.293,7.438 -13.843,22.174 -14.303,25.363c-0.426,2.956 -2.396,6.046 -3.755,8.683c-0.041,0.08 -0.073,0.153 -0.113,0.226c-1.945,3.863 -3.982,7.677 -6.053,11.473c-0.825,1.518 -1.845,2.656 -1.731,4.501c0.066,1.072 0.306,2.157 0.145,3.223c-0.304,1.951 -1.936,1.238 -3.361,1.245c-1.484,0.007 -2.971,0.014 -4.454,0.02c-1.965,0.006 -4.515,0.446 -6.433,-0.034c-0.978,-0.239 0.22,-1.364 0.553,-1.524c1.438,-0.686 2.962,-1.165 4.415,-1.824c1.451,-0.66 2.862,-1.532 3.809,-2.817c1.47,-1.991 4.667,-11.34 6.35,-16.187c0.315,-0.918 6.306,-17.345 9.064,-24.922c1.984,-5.441 5.313,-15.255 7.943,-20.988c0.16,-0.346 0.319,-0.679 0.473,-0.999c1.671,-3.429 7.125,0.684 9.195,2.357c0.151,0.123 0.28,0.226 0.387,0.32c0.253,0.22 0.399,0.353 0.399,0.353Z" style="fill:#f5a784;fill-rule:nonzero;"/><path d="M91.201,127.639c-1.917,0.48 -4.475,0.04 -6.432,0.034c-1.485,-0.006 -2.969,-0.013 -4.455,-0.02c-1.425,-0.007 -3.056,0.706 -3.362,-1.245c-0.166,-1.066 0.08,-2.151 0.146,-3.223c0.114,-1.845 -0.905,-2.983 -1.731,-4.501c-1.943,-3.562 -3.855,-7.138 -5.687,-10.754c-0.126,-0.239 -0.246,-0.479 -0.366,-0.719c-1.358,-2.69 -3.435,-5.866 -3.868,-8.909c-0.46,-3.189 -9.935,-17.925 -12.99,-25.363c-0.356,-0.865 -0.619,-1.616 -0.78,-2.249l-1.358,-9.315l11.039,-1.818c0.081,0.153 0.181,0.426 0.306,0.792c1.134,3.322 4.097,14.575 5.987,19.776c2.763,7.577 4.888,15.394 7.657,22.971c0.274,0.753 0.713,2.018 1.239,3.543c1.752,5.06 4.535,13.017 5.88,14.835c0.944,1.285 2.357,2.157 3.808,2.817c1.451,0.659 2.976,1.138 4.414,1.824c0.333,0.16 1.532,1.285 0.553,1.524Z" style="fill:#f5a784;fill-rule:nonzero;"/><path d="M80.635,58.671c-1.08,1.305 -2.871,1.931 -4.39,2.531c-1.71,0.678 -3.454,1.285 -5.194,1.89c-0.691,0.241 -1.384,0.499 -2.076,0.746c-0.552,0.194 -1.098,0.379 -1.652,0.546c-1.636,0.498 -1.535,2.962 -1.321,4.331c0.134,0.865 0.049,3.879 -1.447,2.538c-0.401,-0.359 -0.483,-1.42 -0.673,-1.911c-0.353,-0.908 -0.823,-1.764 -1.159,-2.68c-1.019,-2.75 1.991,-4.196 3.888,-5.527c0.174,-0.127 0.354,-0.247 0.533,-0.366c1.113,-0.772 2.251,-1.499 3.423,-2.178c0.419,-0.246 3.975,-2.383 4.348,-2.131c-0.227,-0.232 -3.65,-3.754 -7.917,-8.961c-0.246,-0.293 -0.493,-0.6 -0.74,-0.906c-1.205,-1.492 -1.464,-3.503 -1.018,-5.014c0.419,-1.438 1.472,-2.423 2.956,-2.091c0.105,0.02 0.22,0.054 0.34,0.094c0.113,0.04 0.233,0.086 0.351,0.146c0,-0 7.979,5.307 12.213,16.992c0.246,0.659 -0.019,1.406 -0.465,1.951Z" style="fill:#f5a784;fill-rule:nonzero;"/><path d="M69.775,6.641c0,-0 1.44,-1.175 2.228,-2.802c0.55,-1.139 2.139,-3.438 2.989,-3.816c-0,-0 0.175,-0.031 0.444,-0.021c0.037,0.001 0.079,0.003 0.121,0.011c0.241,0.027 0.536,0.09 0.839,0.251c0.023,0.012 0.047,0.025 0.073,0.038c0.214,0.118 0.435,0.284 0.633,0.516c0.017,0.019 0.033,0.04 0.048,0.059c0.151,0.179 0.296,0.391 0.425,0.65c-0,-0 -1.724,2.245 -1.996,3.159c-0,-0 1.38,-1.07 1.881,-0.852l0.216,0.305c0,-0 -1.353,1.321 -1.902,1.966c-1.335,1.565 -3.395,1.872 -3.395,1.872c-0,-0 -2.795,0.134 -2.604,-1.336Z" style="fill:#f5a784;fill-rule:nonzero;"/><path d="M77.102,0.818c0.017,0.019 0.033,0.04 0.048,0.059c-0.849,0.942 -1.523,1.998 -2.25,3.056c-0.014,0.02 -0.05,0.003 -0.041,-0.02c0.457,-1.216 1.316,-2.204 2.243,-3.095Z" style="fill:#e0855c;fill-rule:nonzero;"/><path d="M76.396,0.264c0.023,0.012 0.047,0.025 0.073,0.038c-0.853,0.944 -1.524,1.997 -2.254,3.054c-0.013,0.02 -0.049,0.003 -0.039,-0.019c0.483,-1.194 1.301,-2.188 2.22,-3.073Z" style="fill:#e0855c;fill-rule:nonzero;"/><path d="M75.436,0.002c0.037,-0 0.079,0.003 0.121,0.011c-0.792,0.901 -1.43,1.9 -2.119,2.899c-0.012,0.021 -0.048,0.005 -0.039,-0.019c0.419,-1.126 1.194,-2.053 2.037,-2.891Z" style="fill:#e0855c;fill-rule:nonzero;"/><path d="M49.848,44.661c-0,-0 3.248,4.151 4.819,-1.164c2.021,-6.831 5.503,-17.568 7.526,-21.381c2.024,-3.813 10.845,-14.958 10.845,-14.958l-2.093,-1.721c-0,-0 -9.693,10.335 -12.625,14.941c-2.933,4.607 -11.407,20.805 -8.472,24.283Z" style="fill:#f5a784;fill-rule:nonzero;"/><path d="M68.568,39.449c-0.006,0.046 -0.018,0.086 -0.032,0.133c-0.353,1.651 -1.085,3.355 -1.252,5.006c-0.1,0.953 -0.147,1.938 -0.286,2.911c-0.167,1.165 -0.473,2.296 -1.172,3.282c-0.859,1.205 -1.831,2.031 -2.424,3.423c-0.938,2.176 -1.684,4.434 -1.558,6.844c0.006,0.1 0.013,0.206 0.02,0.313c0.047,0.766 0.087,1.571 -0.353,2.184c-0.913,1.272 -3.443,1.066 -4.84,1.066c-1.825,0.006 -3.643,-0.193 -5.441,-0.46c-0.432,-0.06 -6.626,-0.985 -6.619,-1.285c0.015,-0.513 0.061,-1.026 0.101,-1.538c0.186,-2.497 0.533,-5.021 0.972,-7.484c0.052,-0.3 0.107,-0.599 0.166,-0.892c0.466,-2.491 1.019,-4.901 1.592,-7.118c0.119,-0.466 1.151,-4.162 1.232,-4.435c0.319,-1.092 0.631,-2.097 0.924,-2.989c0.048,-0.16 0.097,-0.315 0.147,-0.466c0.056,-0.168 0.573,-1.712 0.627,-1.859c0.199,-0.572 0.765,-2.13 0.778,-2.169c0.306,-0.087 6.608,-1.09 6.952,0.199c0.103,0.386 0.266,0.586 0.459,0.652c0.473,0.174 1.145,-0.406 1.658,-0.959c0.407,-0.445 0.713,-0.879 0.713,-0.879c0.892,-1.591 5,1.186 5,1.186l-1.459,3.343l4.095,1.991Z" style="fill:#f5a784;fill-rule:nonzero;"/><path d="M76.546,106.639c-2.331,0.532 -4.621,0.958 -6.866,1.291c-0.126,-0.239 -0.246,-0.479 -0.366,-0.719c-1.358,-2.69 -3.535,-6.039 -4.64,-8.909c-1.166,-3.009 -5.173,-10.693 -8.577,-17.598c-1.191,-2.423 -2.309,-4.754 -3.202,-6.751c-0.113,-0.247 -0.217,-0.478 -0.314,-0.706c-0.04,-0.1 -0.086,-0.208 -0.125,-0.308c-0.194,0.433 -0.414,0.894 -0.653,1.373c-3.841,7.737 -11.499,19.397 -13.084,23.69c-1.032,2.804 -2.962,6.346 -4.321,8.983c-2.723,-0.566 -5.041,-1.165 -6.873,-1.698c0.315,-0.918 16.654,-45.151 17.007,-45.91c0.22,0.086 0.447,0.169 0.673,0.247c2.419,0.829 4.928,1.264 7.303,1.391c0.713,0.038 1.405,0.053 2.079,0.04c2.996,-0.02 5.579,-0.42 7.076,-0.706c0.154,0.453 0.347,1.059 0.56,1.778c1.366,4.507 3.796,13.51 5.427,17.998c2.763,7.577 4.888,15.394 7.657,22.971c0.274,0.753 0.713,2.018 1.239,3.543Z" style="fill:#3b2645;fill-rule:nonzero;"/><path d="M65.932,34.115l-0.64,1.465c-2.788,-0.107 -4.38,-1.159 -5.073,-1.772c0.407,-0.445 0.713,-0.879 0.713,-0.879c0.892,-1.591 5,1.186 5,1.186Z" style="fill:#e0855c;fill-rule:nonzero;"/><path d="M62.452,26.336c0.521,-1.439 0.862,-3.078 2.04,-4.135c1.272,-1.141 3.137,-1.825 4.845,-1.603c0.359,0.047 0.71,0.139 1.055,0.245c0.528,-0 1.293,0.471 1.758,0.699c0.586,0.285 1.15,0.617 1.683,0.991c0.708,0.497 1.33,1.046 1.88,1.711c0.271,0.33 0.548,0.666 0.736,1.052c0.168,0.348 0.401,0.778 0.451,1.162c0.016,0.118 0.022,0.238 -0.007,0.352c-0.243,-0.018 -0.332,-0.405 -0.653,-0.387c0.162,0.671 0.539,1.243 0.613,1.95c0.039,0.374 -0.054,0.68 -0.105,1.042c-0.023,0.161 -0.158,1.131 -0.381,1.145c-0.025,0.002 -0.053,0.004 -0.077,0.005c-0.071,-0.492 -0.362,-0.743 -0.642,-1.11c0.163,0.796 0.195,1.601 0.057,2.404c-0.068,0.392 -0.206,0.767 -0.29,1.152c-0.08,0.365 -0.153,0.741 -0.423,1.018c-0.062,0.061 -0.155,0.116 -0.225,0.067c-0.045,-0.031 -0.057,-0.092 -0.063,-0.146c-0.106,-0.789 -0.232,-1.604 -0.53,-2.347c-0.05,-0.123 -0.382,-0.503 -0.379,-0.587c-0.033,0.862 -0.331,1.712 -0.846,2.405c-0.144,-0.323 -0.366,-1.248 -0.695,-1.413c-0.477,-0.238 -0.744,0.373 -1.062,0.636c-0.78,0.645 -1.932,0.101 -2.781,-0.083c-1.091,-0.235 -2.11,-0.887 -3.043,-1.479c-1.472,-0.936 -3.727,-2.535 -3,-4.514c0.028,-0.077 0.057,-0.154 0.084,-0.232Z" style="fill:#ff4590;fill-rule:nonzero;"/><path d="M65.343,23.321c-0.871,0.29 -1.823,1.327 -2.835,2.621c-3.062,3.918 -2.201,6.808 -0.888,7.768c1.207,0.882 3.937,2.171 6.76,0.015c0.444,0.184 1.138,0.304 1.819,-0.266c0.86,-0.721 1.027,-1.482 0.389,-2.028c0.939,-1.168 1.588,-2.246 1.786,-3.166c0.572,-2.667 -3.209,-6.218 -7.031,-4.944Z" style="fill:#f5a784;fill-rule:nonzero;"/><path d="M64.176,27.554c-0,-0 -0.442,-0.125 0.059,-0.7c0.451,-0.518 0.644,-0.263 0.644,-0.263c-0,-0 0.241,0.175 -0.148,0.631c-0.388,0.456 -0.555,0.332 -0.555,0.332Z" style="fill:#3b2645;fill-rule:nonzero;"/><path d="M67.4,30.036c0,-0 -0.44,-0.124 0.062,-0.701c0.451,-0.517 0.643,-0.262 0.643,-0.262c-0,-0 0.242,0.175 -0.147,0.631c-0.39,0.457 -0.558,0.332 -0.558,0.332Z" style="fill:#3b2645;fill-rule:nonzero;"/><path d="M65.006,30.196c-0.158,-0.154 -0.636,-0.344 -0.58,-0.595c0.046,-0.208 1.01,-0.934 1.167,-1.065c0.172,-0.143 0.332,-0.268 0.488,-0.391c-0.008,-0.022 -0.013,-0.045 -0.024,-0.066c-0.022,-0.048 -0.049,-0.088 -0.081,-0.124c-0.633,0.52 -1.238,1.104 -1.835,1.599c-0.052,0.044 -0.054,0.129 0.003,0.17c0.26,0.185 0.472,0.422 0.728,0.611c0.084,0.064 0.213,-0.06 0.134,-0.139Z" style="fill:#e0855c;fill-rule:nonzero;"/><path d="M65.919,25.966c-0.157,-0.307 -0.596,-0.68 -0.967,-0.554c-0.066,0.023 -0.074,0.126 -0.017,0.164c0.128,0.084 0.282,0.103 0.412,0.183c0.143,0.087 0.247,0.211 0.345,0.344c0.087,0.12 0.296,-0 0.227,-0.137Z" style="fill:#3b2645;fill-rule:nonzero;"/><path d="M69.063,28.854c0.116,-0.456 -0.475,-0.94 -0.897,-0.914c-0.098,0.007 -0.128,0.129 -0.077,0.197c0.117,0.159 0.323,0.221 0.471,0.352c0.131,0.114 0.197,0.257 0.293,0.397c0.05,0.073 0.188,0.057 0.21,-0.032Z" style="fill:#3b2645;fill-rule:nonzero;"/><path d="M64.728,31.457c-0.332,-0.058 -0.619,-0.051 -0.914,-0.249c-0.229,-0.154 -0.392,-0.437 -0.658,-0.514c-0.042,-0.013 -0.097,0.01 -0.099,0.06c-0.012,0.359 0.394,0.69 0.673,0.86c0.299,0.183 0.711,0.323 1.048,0.166c0.159,-0.074 0.113,-0.294 -0.05,-0.323Z" style="fill:#e0855c;fill-rule:nonzero;"/><path d="M74.045,27.278c0.049,-0.372 0.075,-0.753 -0.007,-1.119c-0.078,-0.35 -0.251,-0.672 -0.44,-0.977c-0.846,-1.369 -2.094,-2.526 -3.609,-3.071c-1.516,-0.545 -3.303,-0.417 -4.619,0.511c-0.365,0.257 -0.69,0.57 -1.011,0.88c-0.153,0.149 -0.391,0.291 -0.384,0.51c0.864,-0.063 1.619,-0.572 2.517,-0.334c1.561,0.44 1.902,2.794 3.45,3.278c-0.181,-0.389 -0.305,-0.804 -0.361,-1.229c0.607,0.434 0.836,1.242 0.819,1.988c-0.01,0.544 -0.198,1.068 -0.25,1.608c-0.052,0.564 0.102,1.2 0.266,1.737c0.066,0.221 0.213,0.429 0.426,0.516c0.616,0.25 1.217,-0.523 1.525,-0.949c0.768,-1.066 1.494,-2.012 1.678,-3.349Z" style="fill:#ff4590;fill-rule:nonzero;"/><path d="M56.097,80.704c-1.191,-2.423 -2.309,-4.754 -3.202,-6.751c-0.113,-0.247 -0.213,-0.48 -0.314,-0.706l0.081,-3.376l6.531,-4.714c-0.405,0.392 -4.054,4.215 -3.096,15.547Z" style="fill:#291b30;fill-rule:nonzero;"/><path d="M50.025,69.944c-2.363,-2.724 -5.359,-4.022 -7.957,-4.628c0.46,-1.205 0.926,-2.37 1.379,-3.455c0.373,-0.886 0.732,-1.725 1.085,-2.484c0.22,0.086 0.446,0.173 0.673,0.247c3.176,3.308 4.82,10.32 4.82,10.32Z" style="fill:#291b30;fill-rule:nonzero;"/><path d="M80.635,58.671c-1.08,1.305 -2.871,1.931 -4.39,2.531c-1.71,0.678 -3.454,1.285 -5.194,1.89c-0.691,0.241 -1.384,0.499 -2.076,0.746l-1.831,-3.069c1.113,-0.772 2.251,-1.499 3.423,-2.178c0.419,-0.246 3.975,-2.383 4.348,-2.131c-0.127,-0.126 -1.213,-1.245 -2.87,-3.089c-1.366,-1.511 -3.123,-3.522 -5.047,-5.872c-0.167,1.165 -0.473,2.296 -1.172,3.282c-0.859,1.205 -1.831,2.031 -2.424,3.423c-0.373,0.872 -0.719,1.757 -0.992,2.663c-0.18,0.606 -0.326,1.218 -0.426,1.844c-0.114,0.712 -0.167,1.438 -0.14,2.184c0.114,0.359 0.24,0.766 0.379,1.232c-3.341,2.796 -9.634,11.138 -9.767,10.812c-0.194,0.433 -6.1,-8.521 -9.009,-11.078c0.126,-0.307 0.253,-0.6 0.379,-0.893c0.507,-1.444 0.892,-2.729 1.199,-4.002c0.112,-0.452 0.22,-0.898 0.319,-1.358c0.121,-0.572 0.233,-1.158 0.34,-1.764c0.052,-0.3 0.107,-0.599 0.166,-0.892c0.466,-2.491 1.019,-4.901 1.592,-7.118c0.119,-0.466 1.151,-4.162 1.232,-4.435c0.319,-1.092 0.631,-2.097 0.924,-2.989c0.048,-0.16 0.097,-0.315 0.147,-0.466c0.056,-0.168 0.573,-1.712 0.627,-1.859c0.199,-0.572 0.764,-2.13 0.778,-2.169c2.146,-6.037 6.773,-13.484 8.723,-16.38c1.845,-2.731 6.305,-7.405 9.549,-10.681c0.818,0.64 1.843,1.425 2.636,1.904c-2.849,3.516 -6.798,8.523 -8.103,10.833c-1.505,2.658 -5.587,15.109 -5.394,15.175c-0.666,1.958 -1.791,6.559 1.865,7.617c1.618,0.473 3.302,0.007 4.814,-0.805c1.112,-0.592 2.124,-1.365 2.956,-2.091c0.053,-0.053 0.207,-0.199 0.26,-0.246c-0,-0 8.41,5.793 12.644,17.478c0.246,0.659 -0.019,1.406 -0.465,1.951Z" style="fill:#8695c2;fill-rule:nonzero;"/><path d="M72.124,53.405l-0.079,-0.034c-1.366,-1.511 -3.123,-3.522 -5.047,-5.872c-0,-0 -0.24,-2.564 0.605,-3.244c-0,-0 2.171,5.214 4.521,9.15Z" style="fill:#6b779c;fill-rule:nonzero;"/><path d="M57.361,48.211c-1.176,0.143 -2.185,0.306 -3.261,-0.351c-0.86,-0.526 -1.116,-1.483 -1.849,-2.084c-0.366,1.028 0.741,2.139 1.524,2.639c1.054,0.671 2.602,0.943 3.731,0.33c0.234,-0.128 0.144,-0.569 -0.145,-0.534Z" style="fill:#6b779c;fill-rule:nonzero;"/><path d="M62.41,56.867c-0.18,0.606 -0.326,1.218 -0.426,1.844c-5.515,0.906 -11.952,0.626 -16.959,-1.745c0.112,-0.452 0.22,-0.898 0.319,-1.358c2.483,0.586 4.921,1.625 7.504,1.885c3.216,0.319 6.426,0.066 9.562,-0.626Z" style="fill:#6b779c;fill-rule:nonzero;"/><path d="M50.254,113.031l-0,2.977c-0,0.302 -0.078,0.6 -0.22,0.867c-0.177,0.327 -0.354,0.654 -0.506,0.918c-0.512,0.883 -0.286,2.182 0.319,2.994c0.243,0.326 0.407,0.704 0.407,1.11l-0,4.158c-0,0.763 -0.619,1.381 -1.382,1.381l-6.06,-0c-0.762,-0 -1.382,-0.618 -1.382,-1.381l-0,-4.143c-0,-0.411 0.166,-0.79 0.412,-1.119c0.612,-0.814 0.834,-2.114 0.323,-3c-0.155,-0.271 -0.338,-0.606 -0.517,-0.943c-0.142,-0.266 -0.218,-0.561 -0.218,-0.862l-0,-2.957c-0,-0.395 0.035,-0.763 0.095,-1.109c0.508,-2.954 2.943,-4.134 2.943,-4.134l-0,-1.273l2.747,-0l0,1.273c0,-0 2.414,1.169 2.938,4.094c0.065,0.357 0.101,0.74 0.101,1.149Z" style="fill:#8695c2;fill-rule:nonzero;"/><path d="M46.413,107.243l-1.142,-0c-0.673,-0 -1.218,-0.545 -1.218,-1.218l-0,-0.064c-0,-0.672 0.545,-1.217 1.218,-1.217l1.142,-0c0.672,-0 1.219,0.545 1.219,1.217l-0,0.064c-0,0.673 -0.547,1.218 -1.219,1.218Z" style="fill:#6b779c;fill-rule:nonzero;"/><path d="M50.254,113.031l-0,2.389l-8.824,-0l-0,-2.389c-0,-0.395 0.035,-0.763 0.095,-1.109c1.584,-0.737 4.947,-1.823 8.628,-0.04c0.065,0.357 0.101,0.74 0.101,1.149Z" style="fill:#aebce8;fill-rule:nonzero;"/><path d="M50.254,122.135l-0,0.464c-1.213,-0.012 -2.428,-0.046 -3.631,-0.026c-1.132,0.02 -4.59,0.153 -5.193,0.176l-0,-0.343c0.556,-0.031 1.112,-0.043 1.657,-0.069c1.131,-0.051 5.902,-0.196 7.167,-0.202Z" style="fill:#6b779c;fill-rule:nonzero;"/><path d="M50.254,123.625l-0,0.402c-1.348,0.035 -2.699,0.032 -4.044,0.035c-1.594,0.003 -3.187,-0.023 -4.78,-0.078l-0,-0.276c1.595,-0.003 7.476,-0.061 8.824,-0.083Z" style="fill:#6b779c;fill-rule:nonzero;"/><path d="M60.909,116.882l-0,2.144c-0,0.218 -0.055,0.433 -0.158,0.624c-0.127,0.235 -0.254,0.471 -0.365,0.662c-0.371,0.639 -0.206,1.579 0.237,2.164c0.178,0.237 0.286,0.52 0.286,0.817l-0,2.772c-0,0.658 -0.533,1.191 -1.191,1.191l-3.973,-0c-0.656,-0 -1.19,-0.533 -1.19,-1.191l-0,-2.763c-0,-0.299 0.108,-0.582 0.288,-0.82c0.447,-0.586 0.612,-1.528 0.241,-2.17c-0.112,-0.196 -0.242,-0.436 -0.372,-0.68c-0.103,-0.191 -0.157,-0.404 -0.157,-0.621l-0,-2.129c-0,-0.284 0.025,-0.549 0.069,-0.798c0.365,-2.127 2.119,-2.978 2.119,-2.978l-0,-0.916l1.978,-0l-0,0.916c-0,-0 1.738,0.842 2.114,2.948c0.048,0.258 0.074,0.533 0.074,0.828Z" style="fill:#8695c2;fill-rule:nonzero;"/><path d="M58.143,112.714l-0.822,-0c-0.484,-0 -0.878,-0.393 -0.878,-0.878c0,-0.53 0.394,-0.922 0.878,-0.922l0.822,-0c0.485,-0 0.877,0.392 0.877,0.877c-0,0.53 -0.392,0.923 -0.877,0.923Z" style="fill:#6b779c;fill-rule:nonzero;"/><path d="M60.909,116.882l-0,1.721l-6.354,-0l-0,-1.721c-0,-0.284 0.025,-0.549 0.069,-0.798c1.14,-0.531 3.562,-1.313 6.211,-0.03c0.048,0.258 0.074,0.533 0.074,0.828Z" style="fill:#aebce8;fill-rule:nonzero;"/><path d="M60.909,123.439l-0,0.334c-0.873,-0.009 -1.748,-0.033 -2.615,-0.02c-0.815,0.015 -3.305,0.111 -3.739,0.127l-0,-0.247c0.401,-0.022 0.8,-0.031 1.193,-0.049c0.814,-0.038 4.251,-0.141 5.161,-0.145Z" style="fill:#6b779c;fill-rule:nonzero;"/><path d="M60.909,124.51l-0,0.291c-0.971,0.025 -1.944,0.023 -2.911,0.025c-1.15,0.002 -2.296,-0.017 -3.443,-0.056l-0,-0.199c1.149,-0.002 5.383,-0.044 6.354,-0.061Z" style="fill:#6b779c;fill-rule:nonzero;"/></g></svg>