<?xml version="1.0" encoding="UTF-8" standalone="no"?><!DOCTYPE svg PUBLIC "-//W3C//DTD SVG 1.1//EN" "http://www.w3.org/Graphics/SVG/1.1/DTD/svg11.dtd"><svg width="100%" height="100%" viewBox="0 0 103 130" version="1.1" xmlns="http://www.w3.org/2000/svg" xmlns:xlink="http://www.w3.org/1999/xlink" xml:space="preserve" xmlns:serif="http://www.serif.com/" style="fill-rule:evenodd;clip-rule:evenodd;stroke-linejoin:round;stroke-miterlimit:2;"><g><path d="M93.603,128.806c-1.063,0.117 -2.134,0.202 -3.218,0.254c-0.307,0.013 -87.897,0.052 -87.897,0.052c-0.058,-0.007 -0.124,-0.007 -0.182,-0.013c-0.47,-0.039 -0.934,-0.079 -1.405,-0.13c-1.201,-0.124 -1.201,-1.737 -0,-1.861c0.464,-0.052 0.935,-0.092 1.405,-0.125c0.065,-0.006 0.13,-0.006 0.195,-0.012c-0,0 87.577,0.033 87.877,0.045c1.084,0.052 2.155,0.137 3.225,0.255c0.987,0.111 0.98,1.423 -0,1.535Z" style="fill:#c6c6c6;fill-rule:nonzero;"/><path d="M18.254,3.227c-6.896,2.071 -13.296,7.443 -14.38,14.56c-1.161,7.617 3.766,14.641 6.339,21.902c1.914,5.401 2.548,11.251 1.836,16.937c-0.747,5.959 -2.928,11.627 -4.657,17.379c-1.73,5.752 -3.024,11.832 -1.941,17.739c1.082,5.907 5.02,11.619 10.799,13.253c4.02,1.137 8.387,0.222 12.44,1.232c6.482,1.616 11.108,7.842 17.643,9.225c3.445,0.729 7.183,-0.045 10.054,-2.083c3.432,-2.437 5.435,-6.37 8.262,-9.487c3.669,-4.048 8.631,-6.628 13.212,-9.604c4.581,-2.975 9.072,-6.7 10.859,-11.862c2.382,-6.879 -0.591,-14.385 -0.429,-21.664c0.163,-7.305 3.477,-14.127 6.823,-20.623c3.346,-6.496 6.862,-13.164 7.482,-20.445c0.62,-7.28 -2.455,-15.42 -9.123,-18.408c-4.507,-2.019 -9.765,-1.368 -14.498,0.038c-4.735,1.406 -9.271,3.526 -14.129,4.407c-8.366,1.518 -16.416,-0.824 -24.443,-2.862c-6.892,-1.749 -15.28,-1.696 -22.149,0.366Z" style="fill:#f6f6f6;fill-rule:nonzero;"/><path d="M50.974,26.822c0.428,-0.232 0.685,-0.68 0.995,-1.057c0.489,-0.594 1.156,-1.042 1.891,-1.27c0.338,-0.104 0.696,-0.163 1.044,-0.113c0.544,0.077 1.015,0.406 1.533,0.587c1.371,0.479 2.86,-0.116 4.309,-0.192c1.41,-0.074 2.843,0.37 3.963,1.23c0.761,0.584 1.418,1.569 1.051,2.456c-0.131,0.318 -0.379,0.572 -0.641,0.795c-0.517,0.439 -1.112,0.783 -1.749,1.011c-0.571,0.205 -1.185,0.322 -1.691,0.657c-0.451,0.296 -0.778,0.741 -1.163,1.118c-0.897,0.876 -2.12,1.38 -3.365,1.526c-1.245,0.147 -2.513,-0.048 -3.708,-0.429c-0.479,-0.152 -0.962,-0.342 -1.335,-0.68c-0.555,-0.501 -0.859,-1.173 -1.475,-1.624c-0.543,-0.398 -1.249,-0.688 -1.597,-1.302c-0.291,-0.514 -0.203,-1.048 0.076,-1.55c0.457,-0.822 1.12,-0.762 1.862,-1.163Z" style="fill:#ab8da8;fill-rule:nonzero;"/><path d="M62.076,20.836c0.124,-0.291 0.253,-0.581 0.392,-0.871c0.622,-1.291 0.496,-3.153 -0.368,-4.306c-0.593,-0.791 -1.513,-1.267 -2.435,-1.625c-1.268,-0.494 -2.735,-0.804 -3.955,-0.202c-0.107,0.052 -0.212,0.112 -0.329,0.129c-0.155,0.024 -0.311,-0.029 -0.464,-0.063c-0.942,-0.21 -1.927,0.31 -2.539,1.056c-0.559,0.681 -1.078,1.729 -1.202,2.608c-0.081,0.57 0.041,1.142 0.187,1.692c0.122,0.456 0.199,1.075 0.414,1.493c0.409,0.793 1.563,1.178 2.374,1.346c0.836,0.173 1.701,0.225 2.511,0.494c1.17,0.389 1.703,1.264 2.288,2.26c0.513,0.873 0.843,2.422 1.775,2.946c0.475,0.268 1.065,0.245 1.59,0.099c0.709,-0.197 1.441,-0.76 1.378,-1.493c-0.064,-0.759 -0.894,-1.171 -1.607,-1.437c-0.444,-0.165 -0.888,-0.33 -1.331,-0.496c-0.046,-0.017 -0.095,-0.036 -0.126,-0.074c-0.069,-0.084 -0.021,-0.21 0.03,-0.307c0.561,-1.072 0.953,-2.162 1.417,-3.249Z" style="fill:#3b2645;fill-rule:nonzero;"/><path d="M52.277,19.788c-0,0 -0.812,-1.08 -1.728,-0.086c-0.917,0.995 0.455,3.054 1.574,3.198c-0,0 0.262,-2.658 0.154,-3.112Z" style="fill:#e0855c;fill-rule:nonzero;"/><path d="M67.79,32.629c-0.583,1.206 -2.619,5.611 -3.618,9.528c-0.08,0.316 -0.154,0.613 -0.215,0.904c-0.434,2.018 -1.918,11.777 -2.151,13.314c-0.02,0.13 -0.03,0.201 -0.03,0.201c-7.932,1.764 -15.938,-0.791 -15.938,-0.791c-0,0 -0.004,-0.152 -0.023,-0.44c-0.087,-1.933 -0.456,-9.932 -0.577,-16.835c-0.06,-3.52 -0.055,-6.763 0.083,-8.769c0.05,-0.736 1.754,-0.573 2.943,-0.678c1.662,-0.153 3.464,-0.122 4.28,-0.088c0.071,-0.003 0.137,0 0.195,0.003c0.157,0.008 0.241,0.013 0.241,0.013l0.163,-1.143c-0,-0.013 0.11,-0.758 0.11,-0.758l0.297,-2.055c0.129,0.033 0.258,0.067 0.387,0.087c0.259,0.059 0.506,0.093 0.753,0.116c0.332,0.031 0.639,0.045 0.934,0.033c0.15,-0.006 0.294,-0.011 0.433,-0.024c0.203,-0.016 0.4,-0.039 0.591,-0.069c0.323,-0.049 0.631,-0.126 0.925,-0.202c0.092,-0.024 0.179,-0.044 0.266,-0.079c0.026,-0.005 0.053,-0.01 0.073,-0.022c0.066,-0.023 0.139,-0.045 0.206,-0.068c0.432,-0.148 0.8,-0.32 1.103,-0.481c0.194,-0.102 0.363,-0.197 0.497,-0.283c0.048,-0.03 0.068,-0.042 0.088,-0.054c0.075,-0.048 0.134,-0.085 0.182,-0.122c0.068,-0.042 0.111,-0.078 0.124,-0.09c-0.033,0.142 -0.05,0.205 -0.06,0.27c-0.115,0.65 -0.251,1.484 -0.331,2.317c-0.068,0.572 -0.116,1.138 -0.161,1.633c-0.068,0.853 -0.098,1.472 -0.098,1.472c0.189,0.009 0.378,0.025 0.559,0.054c0.02,-0.005 0.046,-0.004 0.065,0.004c0.852,0.081 1.663,0.226 2.406,0.4c2.629,0.641 4.485,1.707 5.149,2.165c0.176,0.12 0.237,0.345 0.149,0.537Z" style="fill:#f5a784;fill-rule:nonzero;"/><path d="M60.112,23.777c-1.232,4.517 -5.81,3.97 -6.859,3.313l0.297,-2.055c3.748,0.961 6.562,-1.258 6.562,-1.258Z" style="fill:#e0855c;fill-rule:nonzero;"/><path d="M52.624,16.798c-0.604,0.569 -0.718,1.907 -0.84,3.387c-0.368,4.481 0.906,5.95 3.187,6.31c2.28,0.361 4.721,-0.401 5.422,-4.539c0.35,-2.067 0.709,-3.977 -0.003,-4.914c-1.063,-1.396 -5.912,-1.99 -7.766,-0.244Z" style="fill:#f5a784;fill-rule:nonzero;"/><path d="M60.103,21.34c-0,0 0.794,-1.824 1.853,-0.784c1.058,1.041 -0.611,3.772 -2.294,3.48c-0,0 -0.129,-2.086 0.441,-2.696Z" style="fill:#f5a784;fill-rule:nonzero;"/><path d="M61.396,21.376c-0.247,0.031 -0.508,0.249 -0.694,0.406c-0.193,0.164 -0.421,0.369 -0.525,0.604c-0.033,0.074 0.069,0.125 0.123,0.08c0.15,-0.126 0.273,-0.28 0.414,-0.418c0.09,0.108 0.181,0.217 0.312,0.273c0.1,0.043 0.182,-0.08 0.141,-0.166c-0.052,-0.111 -0.154,-0.194 -0.255,-0.27c0.183,-0.127 0.4,-0.223 0.554,-0.374c0.059,-0.058 0.007,-0.144 -0.07,-0.135Z" style="fill:#e0855c;fill-rule:nonzero;"/><path d="M53.76,20.177c-0,0 -0.396,0.125 -0.303,-0.559c0.084,-0.615 0.355,-0.518 0.355,-0.518c-0,0 0.271,0.012 0.203,0.55c-0.068,0.538 -0.255,0.527 -0.255,0.527Z" style="fill:#3b2645;fill-rule:nonzero;"/><path d="M57.691,20.372c-0,0 -0.395,0.125 -0.301,-0.559c0.083,-0.615 0.355,-0.518 0.355,-0.518c-0,0 0.27,0.012 0.202,0.55c-0.067,0.538 -0.256,0.527 -0.256,0.527Z" style="fill:#3b2645;fill-rule:nonzero;"/><path d="M55.431,22.094c-0.195,-0.039 -0.652,0.056 -0.734,-0.161c-0.068,-0.181 0.3,-1.208 0.354,-1.385c0.193,-0.637 0.384,-1.065 0.544,-1.832c0.007,-0.034 -0.05,-0.056 -0.068,-0.022c-0.506,1.005 -0.738,2.267 -1.068,3.345c-0.018,0.058 0.023,0.124 0.087,0.126c0.289,0.01 0.565,0.085 0.853,0.101c0.096,0.005 0.132,-0.152 0.032,-0.172Z" style="fill:#e0855c;fill-rule:nonzero;"/><path d="M54.289,18.112c-0.271,-0.156 -0.789,-0.219 -1.006,0.06c-0.039,0.051 0.006,0.133 0.069,0.133c0.137,0 0.263,-0.062 0.402,-0.066c0.15,-0.005 0.291,0.036 0.431,0.088c0.126,0.048 0.223,-0.146 0.104,-0.215Z" style="fill:#3b2645;fill-rule:nonzero;"/><path d="M58.359,18.654c-0.138,-0.402 -0.825,-0.474 -1.131,-0.244c-0.07,0.052 -0.032,0.16 0.04,0.187c0.168,0.062 0.354,0.006 0.531,0.031c0.155,0.022 0.276,0.097 0.419,0.155c0.073,0.03 0.169,-0.051 0.141,-0.129Z" style="fill:#3b2645;fill-rule:nonzero;"/><path d="M54.387,23.438c-0,0 1.388,0.279 2.478,-0.302c-0,0 -0.411,0.899 -1.286,1.091c-0.876,0.193 -1.192,-0.789 -1.192,-0.789Z" style="fill:#fff;fill-rule:nonzero;"/><path d="M44.838,89.576c-2.43,4.192 -3.911,8.814 -5.746,13.269c-1.777,4.314 -4.14,8.127 -6.836,11.915c-1.58,2.226 -4.421,5.268 -4.238,8.201c-0,0.025 -0,0.045 0.006,0.071c0.078,1.058 0.301,2.135 0.144,3.192c-0.314,1.979 -1.984,1.254 -3.447,1.261c-1.528,0.007 -3.049,0.013 -4.571,0.02c-2.017,0.007 -4.635,0.45 -6.6,-0.033c-1.006,-0.242 0.221,-1.384 0.567,-1.547c1.476,-0.693 3.036,-1.182 4.526,-1.848c1.383,-0.614 2.722,-1.424 3.675,-2.566c0.085,-0.091 0.163,-0.19 0.235,-0.288c1.508,-2.017 4.793,-11.491 6.516,-16.408c0.321,-0.926 0.594,-1.69 0.79,-2.219c4.656,-12.588 8.377,-25.537 12.817,-38.269c0.79,-2.245 3.095,-9.8 4.773,-11.497c2.37,-2.397 4.544,2.964 6.973,5.328c0.68,0.659 1.117,1.554 1.371,2.546c2.678,10.343 -6.137,20.554 -10.955,28.872Z" style="fill:#f5a784;fill-rule:nonzero;"/><path d="M77.425,126.924c-0.163,0.15 -0.406,0.163 -0.62,0.175c-3.631,0.131 -7.203,-0.005 -10.813,-0.005c-0.744,-0.066 -1.587,-0.209 -1.991,-0.83c-0.242,-0.366 -0.274,-0.823 -0.307,-1.26c-0.046,-0.672 -0.111,-1.319 -0.203,-1.94c-0.28,-2.016 -0.79,-3.839 -1.508,-5.902c-1.574,-4.557 -2.814,-9.043 -3.33,-13.855c-0.535,-4.975 -0.678,-10.015 -1.874,-14.9c-0.953,-3.885 -2.455,-8.253 -3.552,-12.712c-1.541,-6.294 -2.272,-12.764 0.497,-18.301c0.156,-0.32 0.326,-0.64 0.509,-0.954c1.423,-2.428 3.747,-3.147 6.3,-1.873c1.672,0.829 2.618,2.624 3.259,4.381c0.574,1.593 0.992,3.258 1.312,4.955c0.764,4.055 0.94,8.319 1.292,12.315c0.517,5.954 0.576,11.882 0.817,17.85c0.209,5.152 0.666,20.607 0.764,23.186c0.045,1.266 0.026,2.905 0.516,4.244c0.241,0.666 0.613,1.26 1.175,1.697c0.6,0.457 1.345,0.659 2.076,0.856c1.619,0.437 3.075,1.135 4.721,1.56c0.32,0.085 0.659,0.176 0.901,0.418c0.235,0.235 0.307,0.673 0.059,0.895Z" style="fill:#f5a784;fill-rule:nonzero;"/><path d="M22.802,19.553c-0.017,-0.024 -0.013,-0.044 -0.01,-0.065c0.006,0.018 0.008,0.041 0.01,0.065Zm25.073,10.293c-1.875,-1.395 -6.33,0.034 -8.147,0.59c-2.652,0.812 -5.296,1.825 -8.069,1.913c-0.289,0.01 -0.589,0.007 -0.852,-0.113c-0.325,-0.147 -0.548,-0.449 -0.756,-0.739c-2.404,-3.34 -5.923,-7.103 -6.541,-11.311c-0.097,-0.659 -0.067,-1.344 0.15,-2.083c0.095,-0.306 0.193,-0.617 0.283,-0.926c0.138,-0.476 0.236,-0.96 0.225,-1.452c-0.017,-0.815 -0.429,-1.687 -1.2,-1.952c-1.624,-0.559 -3.964,0.866 -3.831,2.562c0.032,0.399 0.073,0.795 0.124,1.189c0.082,0.643 0.191,1.294 0.309,1.928c0.333,1.724 0.782,3.431 1.233,5.093c0.679,2.538 1.392,5.07 2.26,7.551c0.765,2.185 2.222,5.121 4.185,6.464c1.368,0.936 3.096,1.144 4.75,1.245c3.952,0.239 7.933,0.015 11.833,-0.666c1.029,-0.181 2.081,-0.403 2.956,-0.974c1.283,-0.835 1.188,-1.772 1.462,-3.057c0.342,-1.601 1.019,-2.875 0.239,-4.515c-0.146,-0.309 -0.355,-0.555 -0.613,-0.747Z" style="fill:#f5a784;fill-rule:nonzero;"/><path d="M23.51,20.186c-1.436,-0.642 -3.025,-0.741 -3.94,-0.734c-0.118,-0.634 -0.227,-1.285 -0.309,-1.928l4.682,-0.347c-0.09,0.309 -0.188,0.62 -0.283,0.926c-0.217,0.739 -0.247,1.424 -0.15,2.083Z" style="fill:#e0855c;fill-rule:nonzero;"/><path d="M25.79,15.31l-8.19,0.734c-0.094,-1.039 -1.012,-1.806 -2.051,-1.713c-1.039,0.094 -1.807,1.012 -1.713,2.051l0.218,2.435c0.093,1.039 1.011,1.806 2.05,1.713c1.039,-0.093 1.807,-1.011 1.713,-2.05l8.192,-0.735c0.093,1.039 1.011,1.806 2.051,1.713c1.039,-0.093 1.805,-1.011 1.712,-2.051l-0.218,-2.435c-0.093,-1.039 -1.011,-1.806 -2.051,-1.713c-1.039,0.093 -1.806,1.011 -1.713,2.051Z" style="fill:#3b2645;fill-rule:nonzero;"/><path d="M20.763,17.45c0.044,0.422 0.204,0.881 0.584,1.072c0.193,0.096 0.417,0.109 0.632,0.12c0.477,0.024 0.972,0.044 1.411,-0.145c0.54,-0.233 0.914,-0.767 1.05,-1.339c0.136,-0.573 0.06,-1.179 -0.112,-1.742c-0.112,-0.37 -0.278,-0.745 -0.587,-0.979c-0.182,-0.138 -0.402,-0.217 -0.624,-0.277c-0.848,-0.227 -1.765,-0.184 -2.588,0.121c-0.698,0.258 -1.038,0.682 -0.541,1.23c0.614,0.676 0.677,1.016 0.775,1.939Z" style="fill:#f5a784;fill-rule:nonzero;"/><path d="M83.855,19.488c0.004,0.021 0.008,0.041 0.012,0.061c-0.018,-0.02 -0.016,-0.043 -0.012,-0.061Zm-25.696,11.105c-0.778,1.64 -0.101,2.914 0.24,4.515c0.275,1.285 0.179,2.222 1.462,3.057c0.875,0.571 1.927,0.793 2.956,0.974c3.901,0.681 7.881,0.905 11.833,0.666c1.655,-0.101 3.382,-0.309 4.75,-1.245c1.963,-1.343 3.42,-4.279 4.185,-6.464c0.868,-2.481 1.582,-5.013 2.262,-7.551c0.45,-1.663 0.898,-3.369 1.231,-5.093c0.118,-0.634 0.228,-1.285 0.31,-1.928c0.049,-0.394 0.09,-0.79 0.123,-1.189c0.133,-1.696 -2.206,-3.121 -3.83,-2.562c-0.772,0.265 -1.184,1.137 -1.201,1.952c-0.01,0.492 0.087,0.976 0.225,1.452c0.09,0.309 0.188,0.62 0.283,0.926c0.217,0.739 0.247,1.424 0.151,2.083c-0.619,4.208 -4.138,7.971 -6.541,11.311c-0.208,0.29 -0.432,0.592 -0.756,0.739c-0.264,0.12 -0.564,0.123 -0.853,0.113c-2.772,-0.088 -5.418,-1.101 -8.07,-1.913c-1.816,-0.556 -6.271,-1.985 -8.146,-0.59c-0.257,0.192 -0.466,0.438 -0.614,0.747Z" style="fill:#f5a784;fill-rule:nonzero;"/><path d="M83.139,20.186c1.435,-0.642 3.024,-0.741 3.939,-0.734c0.118,-0.634 0.228,-1.285 0.31,-1.928l-4.683,-0.347c0.09,0.309 0.188,0.62 0.283,0.926c0.217,0.739 0.247,1.424 0.151,2.083Z" style="fill:#e0855c;fill-rule:nonzero;"/><path d="M80.858,15.31l8.191,0.734c0.094,-1.039 1.011,-1.806 2.051,-1.713c1.039,0.094 1.806,1.012 1.712,2.051l-0.217,2.435c-0.094,1.039 -1.012,1.806 -2.051,1.713c-1.039,-0.093 -1.807,-1.011 -1.713,-2.05l-8.191,-0.735c-0.094,1.039 -1.012,1.806 -2.051,1.713c-1.039,-0.093 -1.806,-1.011 -1.713,-2.051l0.219,-2.435c0.092,-1.039 1.01,-1.806 2.05,-1.713c1.04,0.093 1.806,1.011 1.713,2.051Z" style="fill:#3b2645;fill-rule:nonzero;"/><path d="M85.886,17.45c-0.044,0.422 -0.204,0.881 -0.584,1.072c-0.194,0.096 -0.417,0.109 -0.633,0.12c-0.477,0.024 -0.972,0.044 -1.41,-0.145c-0.54,-0.233 -0.914,-0.767 -1.051,-1.339c-0.137,-0.573 -0.06,-1.179 0.112,-1.742c0.113,-0.37 0.279,-0.745 0.587,-0.979c0.183,-0.138 0.403,-0.217 0.624,-0.277c0.848,-0.227 1.766,-0.184 2.588,0.121c0.698,0.258 1.038,0.682 0.541,1.23c-0.614,0.676 -0.677,1.016 -0.774,1.939Z" style="fill:#f5a784;fill-rule:nonzero;"/><path d="M68.251,117.835c-0.073,0.109 -0.156,0.196 -0.248,0.261c-0.151,0.104 -0.319,0.196 -0.496,0.268c-0.346,0.144 -0.725,0.222 -1.123,0.268c-0.314,0.039 -0.627,0.046 -0.941,0.032c-1.488,-0.032 -2.966,-0.007 -2.966,-0.007c-1.705,-3.186 -5.691,-14.338 -5.358,-21.788c0.333,-7.443 -4.231,-20.508 -4.231,-20.508c-0.013,0.039 -0.02,0.085 -0.039,0.131c-0.999,3.369 -10.767,22.584 -12.51,26.561c-0.039,0.098 -0.078,0.182 -0.112,0.26c-1.874,4.487 -10.479,14.868 -10.479,14.868c-1.894,0.111 -4.857,-1.907 -4.857,-1.907c-0,0 -0.778,-3.179 0.554,-10.068c1.332,-6.887 9.33,-17.858 11.335,-27.448c2.005,-9.599 9.035,-23.413 9.035,-23.413c4.525,0.836 8.523,0.678 11.414,0.299c0.105,-0.013 0.209,-0.026 0.308,-0.046c0.542,-0.072 1.044,-0.156 1.501,-0.241c0.177,-0.033 0.347,-0.066 0.503,-0.098c1.613,-0.327 2.533,-0.647 2.533,-0.647c4.069,5.759 5.048,15.808 5.048,19.255c-0,3.44 1.442,24.557 1.442,28.56c-0,3.793 1.061,13.365 -0.313,15.408Z" style="fill:#3b2645;fill-rule:nonzero;"/><path d="M68.251,117.835c-0.071,0.111 -0.156,0.196 -0.248,0.261c-0.151,0.104 -0.319,0.196 -0.496,0.268c0.437,-10.27 -1.534,-20.496 -2.351,-30.74c-0.47,-5.915 -0.104,-11.89 -0.679,-17.785c-0.522,-5.374 -2.625,-9.991 -5.439,-14.482c0.177,-0.033 0.347,-0.066 0.503,-0.098c3.05,3.682 4.832,8.547 5.472,13.228c0.802,5.889 0.209,11.936 0.646,17.863c0.444,6.152 1.26,12.269 1.887,18.4c0.444,4.264 0.96,8.723 0.705,13.085Z" style="fill:#e8cee5;fill-rule:nonzero;"/><path d="M52.862,76.374c-0,0.026 -0.007,0.065 -0.013,0.118c-0.999,3.369 -10.767,22.584 -12.51,26.561c1.332,-5.498 1.436,-10.009 4.002,-16.246c3.089,-7.521 8.123,-10.23 8.521,-10.433Z" style="fill:#291b30;fill-rule:nonzero;"/><path d="M86.22,23.135c-0,0 -0.824,9.252 -3.513,13.652c-2.696,4.408 -17.335,2.729 -17.335,2.729c-0,0 -3.18,11.877 -1.678,15.096c1.508,3.219 -5.087,3.728 -7.176,3.637c-2.096,-0.091 -13.235,0.15 -13.15,-1.926c0.078,-2.07 1.665,-2.821 1.495,-5.739c-0.163,-2.919 -0.248,-11.087 -0.248,-11.087c-0,0 -9.415,2.155 -15.337,0.829c-5.916,-1.332 -8.449,-12.229 -8.475,-15.781l3.709,-1.41c-0,0 4.825,6.608 5.935,7.665c1.11,1.058 11.504,-2.024 14.28,-1.946c2.781,0.079 8.253,0.137 8.253,0.137c-0,0 0.391,3.448 2.618,3.108c2.219,-0.333 3.864,-2.63 3.864,-2.63c-0,0 2.521,-0.726 5.257,-0.171c0.097,0.02 0.196,0.04 0.3,0.066c1.241,0.274 3.042,0.818 4.806,1.279c2.336,0.611 4.57,1.084 5.302,0.66c1.331,-0.784 7.469,-9.037 7.469,-9.037l3.624,0.869Z" style="fill:#ab8da8;fill-rule:nonzero;"/><path d="M53.985,33.825c-1.2,-0.133 -1.002,2.504 -0.992,3.128c0.012,0.756 0.044,1.5 -0.192,2.235c-0.213,0.664 -0.669,1.229 -0.949,1.862c-0.347,0.789 -0.485,1.401 -0.18,2.218c0.07,0.187 0.324,0.113 0.295,-0.081c-0.266,-1.764 1.074,-2.835 1.389,-4.434c0.173,-0.873 -0.398,-4.301 0.669,-4.632c0.171,-0.053 0.124,-0.277 -0.04,-0.296Z" style="fill:#3b2645;fill-rule:nonzero;"/><path d="M55.55,33.971c-0.738,0.955 -0.619,1.987 -0.465,3.119c0.158,1.161 0.097,2.086 -0.255,3.185c-0.233,0.728 -0.368,1.205 -0.281,1.971c0.014,0.135 0.191,0.133 0.209,0c0.149,-1.159 0.753,-2.199 0.876,-3.354c0.176,-1.66 -0.707,-3.168 0.163,-4.777c0.09,-0.166 -0.138,-0.286 -0.247,-0.144Z" style="fill:#3b2645;fill-rule:nonzero;"/><path d="M36.952,40.628c-0,0 7.081,-3.71 7.914,-5.463c0.834,-1.753 -0.245,4.732 -0.245,4.732l-7.669,0.731Z" style="fill:#826b80;fill-rule:nonzero;"/><path d="M65.019,29.364c1.241,0.274 3.042,0.816 4.806,1.279c-0.281,-0.071 -3.03,-0.679 -5.106,1.456c-2.07,2.142 -7.019,1.541 -7.529,1.476c3.364,0.359 7.169,-3.513 7.829,-4.211Z" style="fill:#826b80;fill-rule:nonzero;"/><path d="M28.168,126.224c-0.314,1.979 -1.984,1.254 -3.447,1.261c-1.528,0.007 -3.049,0.013 -4.571,0.02c-2.017,0.007 -4.635,0.45 -6.6,-0.033c-1.006,-0.242 0.221,-1.384 0.567,-1.547c1.476,-0.693 3.036,-1.182 4.526,-1.848c1.383,-0.614 2.722,-1.424 3.675,-2.566c0.066,-0.02 0.144,-0.033 0.215,-0.046c1.026,-0.163 2.11,0.627 2.26,1.659c0.842,0.711 2.167,-0.163 3.231,-0.092c0.078,1.058 0.301,2.135 0.144,3.192Z" style="fill:#3b2645;fill-rule:nonzero;"/><path d="M77.425,126.924c-0.163,0.15 -0.406,0.163 -0.62,0.175c-3.631,0.131 -7.203,-0.005 -10.813,-0.005c-0.744,-0.066 -1.587,-0.209 -1.991,-0.83c-0.242,-0.366 -0.274,-0.823 -0.307,-1.26c-0.046,-0.672 -0.111,-1.319 -0.203,-1.94c1.091,-0.234 2.547,0.824 3.454,0.06c0.117,-0.79 0.783,-1.437 1.548,-1.626c0.241,0.666 0.613,1.26 1.175,1.697c0.6,0.457 1.345,0.659 2.076,0.856c1.619,0.437 3.075,1.135 4.721,1.56c0.32,0.085 0.659,0.176 0.901,0.418c0.235,0.235 0.307,0.673 0.059,0.895Z" style="fill:#3b2645;fill-rule:nonzero;"/></g></svg>