<?xml version="1.0" encoding="UTF-8" standalone="no"?><!DOCTYPE svg PUBLIC "-//W3C//DTD SVG 1.1//EN" "http://www.w3.org/Graphics/SVG/1.1/DTD/svg11.dtd"><svg width="100%" height="100%" viewBox="0 0 95 140" version="1.1" xmlns="http://www.w3.org/2000/svg" xmlns:xlink="http://www.w3.org/1999/xlink" xml:space="preserve" xmlns:serif="http://www.serif.com/" style="fill-rule:evenodd;clip-rule:evenodd;stroke-linejoin:round;stroke-miterlimit:2;"><g><path d="M31.265,11.7c-2.959,3.886 -4.203,8.783 -5.22,13.561c-1.018,4.778 -1.917,9.691 -4.346,13.93c-3.958,6.907 -11.441,11.117 -15.916,17.701c-2.881,4.237 -4.38,9.276 -5.22,14.332c-0.775,4.665 -0.989,9.632 0.942,13.949c2.244,5.021 7.183,8.705 8.443,14.059c0.695,2.954 0.163,6.038 0.095,9.072c-0.069,3.034 0.478,6.363 2.756,8.37c1.671,1.473 4.008,1.967 6.237,1.96c5.566,-0.018 11.119,-2.787 16.523,-1.452c4.297,1.061 7.521,4.484 10.993,7.23c3.47,2.747 8.153,4.978 12.208,3.203c3.042,-1.332 4.773,-4.519 7.258,-6.724c3.4,-3.018 8.116,-4.106 11.777,-6.801c3.814,-2.805 6.249,-7.254 7.107,-11.911c0.859,-4.656 0.231,-9.503 -1.247,-14.002c-1.663,-5.063 -4.405,-9.859 -4.891,-15.166c-0.598,-6.537 2.296,-12.816 3.806,-19.205c1.124,-4.751 1.482,-9.75 0.415,-14.514c-1.068,-4.763 -3.65,-9.28 -7.604,-12.142c-4.396,-3.183 -10.237,-4.229 -14.025,-8.114c-2.377,-2.436 -3.707,-5.779 -6.239,-8.055c-3.024,-2.721 -8.268,-4.068 -12.216,-4.776c-4.412,-0.79 -9.046,2.093 -11.636,5.495Z" style="fill:#f6f6f6;fill-rule:nonzero;"/><path d="M83.429,122.589c-0,8.259 -6.689,14.948 -14.948,14.948c-0.897,0 -1.769,-0.074 -2.629,-0.236c-0.56,-0.088 -1.108,-0.224 -1.657,-0.387c-1.282,-0.385 -2.504,-0.933 -3.625,-1.631c-0.448,-0.287 -0.884,-0.585 -1.295,-0.91c-1.146,-0.896 -2.155,-1.956 -2.99,-3.151c-1.744,-2.442 -2.753,-5.419 -2.753,-8.633c-0,-8.247 6.689,-14.949 14.949,-14.949c1.345,0 2.641,0.175 3.887,0.511c0.511,0.136 1.009,0.299 1.494,0.498c1.433,0.548 2.762,1.326 3.949,2.267c0.174,0.138 0.339,0.272 0.498,0.411c0.392,0.343 0.773,0.71 1.121,1.096c2.48,2.666 3.999,6.241 3.999,10.166Z" style="fill:#826b80;fill-rule:nonzero;"/><path d="M80.564,119.549c-0,8.259 -6.689,14.949 -14.948,14.949c-0.897,0 -1.77,-0.075 -2.629,-0.237c-0.56,-0.087 -1.108,-0.224 -1.657,-0.386c-1.282,-0.386 -2.504,-0.934 -3.625,-1.631c-0.448,-0.288 -0.884,-0.586 -1.295,-0.91c-0.038,-0.038 -0.088,-0.062 -0.125,-0.112c-1.744,-2.442 -2.753,-5.419 -2.753,-8.633c-0,-8.247 6.689,-14.949 14.949,-14.949c1.345,0 2.641,0.175 3.887,0.511c0.511,0.136 1.009,0.299 1.494,0.498c1.433,0.548 2.766,1.32 3.949,2.267c1.732,2.442 2.753,5.419 2.753,8.633Z" style="fill:#ab8da8;fill-rule:nonzero;"/><path d="M53.62,46.341c-0.026,0.301 -0.078,0.608 -0.241,0.856c-0.222,0.333 -0.608,0.509 -0.98,0.659c-1.671,0.685 -3.539,-0.059 -4.877,-1.143c-1.084,-0.875 -1.924,-2.013 -2.644,-3.216c-0.067,-0.11 -0.131,-0.218 -0.197,-0.322c-0.378,-0.64 -0.744,-1.385 -0.535,-2.097c0.027,-0.09 0.059,-0.182 0.105,-0.267c0.039,-0.085 0.078,-0.17 0.124,-0.255c0.052,-0.104 0.104,-0.209 0.143,-0.313c0.51,-1.292 -0.202,-3.487 -0.522,-4.799c-0.411,-1.665 -0.888,-3.324 -1.345,-4.982c-0.47,-1.704 -0.882,-3.473 -1.436,-5.171c-0.209,-0.633 -0.438,-1.26 -0.699,-1.867c-0.999,-2.331 -8.755,-14.28 -8.755,-14.28c-0.197,-2.455 2.441,-3.284 2.441,-3.284c-0,0 0.301,0.307 0.809,0.842c2.188,2.298 8.221,8.828 10.827,13.438c0.306,0.542 0.737,1.501 1.233,2.735c1.222,2.997 2.847,7.6 4.159,11.792c0.144,0.463 0.287,0.914 0.418,1.365c0.503,1.658 1.113,3.493 1.529,5.34c0.379,1.691 0.6,3.376 0.443,4.969Z" style="fill:#f5a784;fill-rule:nonzero;"/><path d="M35.01,6.67c-0,0 -0.764,-0.916 -1.593,-2.153c-0.825,-1.239 -2.62,-3.972 -3.596,-4.466c-0,0 -0.204,-0.048 -0.52,-0.051c-0.045,0 -0.093,0 -0.143,0.006c-0.284,0.017 -0.634,0.074 -1.001,0.246c-0.027,0.012 -0.058,0.026 -0.088,0.04c-0.258,0.126 -0.528,0.308 -0.774,0.569c-0.021,0.021 -0.04,0.045 -0.061,0.067c-0.187,0.2 -0.369,0.441 -0.536,0.737c-0,0 1.892,2.739 2.159,3.829c-0,0 -1.558,-1.338 -2.16,-1.113l-0.272,0.347c-0,0 1.511,1.633 2.118,2.421c1.475,1.919 4.016,2.123 4.016,2.123c-0,0 2.59,-0.864 2.451,-2.602Z" style="fill:#f5a784;fill-rule:nonzero;"/><path d="M27.295,0.861c-0.021,0.022 -0.04,0.045 -0.061,0.067c0.944,1.155 1.673,2.436 2.464,3.722c0.015,0.024 0.059,0.007 0.05,-0.022c-0.502,-1.442 -1.415,-2.666 -2.453,-3.767Z" style="fill:#e0855c;fill-rule:nonzero;"/><path d="M28.157,0.252c-0.027,0.012 -0.058,0.026 -0.088,0.04c0.946,1.16 1.673,2.436 2.467,3.72c0.016,0.024 0.058,0.007 0.047,-0.019c-0.495,-1.432 -1.399,-2.648 -2.426,-3.741Z" style="fill:#e0855c;fill-rule:nonzero;"/><path d="M29.301,0c-0.045,-0.001 -0.093,0 -0.143,0.006c0.877,1.105 1.567,2.317 2.318,3.529c0.012,0.028 0.055,0.01 0.046,-0.019c-0.427,-1.347 -1.28,-2.481 -2.221,-3.516Z" style="fill:#e0855c;fill-rule:nonzero;"/><path d="M93.641,139.342c-1.064,0.117 -2.134,0.202 -3.218,0.254c-0.307,0.014 -87.897,0.053 -87.897,0.053c-0.058,-0.007 -0.124,-0.007 -0.182,-0.013c-0.471,-0.04 -0.934,-0.079 -1.405,-0.131c-1.201,-0.124 -1.201,-1.737 -0,-1.861c0.464,-0.052 0.934,-0.091 1.405,-0.124c0.065,-0.006 0.129,-0.006 0.195,-0.013c-0,0 87.577,0.032 87.877,0.046c1.084,0.052 2.155,0.137 3.225,0.254c0.987,0.111 0.98,1.424 -0,1.535Z" style="fill:#c6c6c6;fill-rule:nonzero;"/><path d="M32.642,37.916c-0.227,-0.21 -0.457,-0.422 -0.728,-0.609c-1.183,-0.811 -1.998,-2.488 -1.822,-3.919c0.121,-0.981 0.682,-1.852 1.303,-2.621c0.855,-1.058 1.974,-2.058 3.331,-2.142c0.118,-0.007 0.24,-0.008 0.35,-0.05c0.146,-0.058 0.255,-0.181 0.371,-0.287c1.743,-1.591 4.084,0.321 4.955,1.907c0.556,1.011 0.733,2.257 0.334,3.34c-0.358,0.976 -1.116,1.707 -1.771,2.484c-0.641,0.76 -0.952,1.185 -1.227,2.112c-0.172,0.583 -0.791,0.838 -1.339,0.945c-0.864,0.167 -1.777,0.05 -2.581,-0.304c-0.482,-0.213 -0.826,-0.531 -1.176,-0.856Z" style="fill:#3b2645;fill-rule:nonzero;"/><path d="M63.532,70.428c0.006,0.438 -0.06,0.868 -0.248,1.26c-0.386,0.79 -1.222,1.247 -2.031,1.593c-2.494,1.057 -5.302,1.514 -7.94,0.888c-3.167,-0.751 -4.799,-3.291 -5.987,-6.007c-0.314,-0.718 -0.601,-1.45 -0.875,-2.168c-1.554,-4.035 -4.048,-6.784 -7.364,-9.5c-0.112,-0.091 -0.229,-0.189 -0.34,-0.287c-2.403,-2.031 -4.283,-4.309 -6.582,-6.504c-0.156,-0.143 -0.183,-0.377 -0.065,-0.554c0.183,-0.275 0.509,-0.712 0.993,-1.254c0.691,-0.771 1.684,-1.736 2.99,-2.663c0.627,-0.438 1.325,-0.875 2.089,-1.267c0.013,-0.013 0.033,-0.02 0.059,-0.026c0.117,-0.072 0.242,-0.135 0.372,-0.196c0.039,-0.019 0.085,-0.04 0.124,-0.059c0.183,-0.085 -1.906,-3.467 -2.141,-3.748c-0.268,-0.307 -0.572,-0.64 -0.581,-1.044c-0.001,-0.046 -0,-0.099 0.025,-0.138c0.007,-0.019 0.021,-0.032 0.04,-0.046c0.025,-0.019 0.065,-0.032 0.098,-0.032c0.051,-0.007 0.097,0 0.143,0.013c0.066,0.019 0.124,0.039 0.183,0.053c0.058,0.012 0.118,0.019 0.183,0.032c0.118,0.013 0.242,0.026 0.373,0.039c0.11,0.014 0.227,0.026 0.352,0.033c0.229,0.013 0.483,0.02 0.75,0.013c0.033,0 0.066,-0.007 0.099,-0.007c0.065,0 0.143,-0.006 0.215,-0.013c0.019,0.007 0.052,0 0.079,-0.007c0.091,0 0.175,-0.005 0.273,-0.025c0.151,-0.014 0.308,-0.033 0.457,-0.06c0.157,-0.025 0.32,-0.051 0.477,-0.09c0.189,-0.046 0.379,-0.098 0.575,-0.158c0.3,-0.09 0.652,-0.326 0.973,-0.372c0.072,-0.019 0.143,-0.019 0.215,-0.006c0.412,0.072 0.777,0.594 1.005,0.901c0.17,0.228 0.66,0.868 0.732,0.96c0.182,0.241 0.368,0.485 0.62,0.659c0.139,0.096 0.261,0.153 0.379,0.17c0.051,0.008 0.111,0.007 0.17,0c0.17,-0.006 0.34,-0.078 0.548,-0.151c0.745,-0.333 2.41,-1.031 4.009,-1.5c1.143,-0.347 2.664,-1.13 2.984,-0.464c0.424,0.887 0.828,1.783 1.215,2.676c1.626,3.764 3.016,7.575 4.818,11.27c2.547,5.236 4.375,10.825 5.393,16.559c0.065,0.404 0.137,0.815 0.144,1.227Z" style="fill:#f5a784;fill-rule:nonzero;"/><path d="M43.037,39.702c-1.392,1.004 -4.597,2.062 -6.967,-0.994c-0.019,-0.019 -0.04,-0.039 -0.053,-0.065c0.02,0 0.073,0.014 0.151,0.033c0.078,0.02 0.189,0.046 0.326,0.066c0.058,0.012 0.117,0.02 0.183,0.032c0.202,0.036 0.451,0.058 0.725,0.072c0.229,0.013 0.483,0.02 0.75,0.013c0.353,-0.007 0.726,-0.039 1.123,-0.112c0.34,-0.051 0.693,-0.129 1.052,-0.248c0.319,-0.097 0.646,-0.221 0.973,-0.372c0.072,-0.019 0.143,-0.019 0.215,-0.006c0.412,0.072 0.777,0.594 1.005,0.901c0.17,0.228 0.347,0.451 0.517,0.68Z" style="fill:#e0855c;fill-rule:nonzero;"/><path d="M38.879,29.663c0.806,0.194 1.571,1.298 2.413,2.522c2.548,3.704 2.172,5.611 0.374,7.059c-1.799,1.447 -4.296,2 -6.962,-1.241c-1.332,-1.621 -2.593,-3.098 -2.441,-4.265c0.227,-1.74 4.138,-4.666 6.616,-4.075Z" style="fill:#f5a784;fill-rule:nonzero;"/><path d="M34.648,37.325c-0,0 -1.596,-1.188 -1.996,0.241c-0.4,1.428 2.406,2.968 3.721,1.877c-0,0 -0.926,-1.874 -1.725,-2.118Z" style="fill:#f5a784;fill-rule:nonzero;"/><path d="M33.545,37.998c0.229,-0.096 0.565,-0.037 0.804,0.007c0.249,0.046 0.548,0.111 0.756,0.263c0.066,0.048 0.002,0.143 -0.066,0.131c-0.194,-0.035 -0.377,-0.108 -0.568,-0.156c-0.024,0.137 -0.049,0.278 -0.135,0.391c-0.066,0.086 -0.198,0.021 -0.205,-0.074c-0.01,-0.122 0.038,-0.245 0.088,-0.361c-0.222,-0.019 -0.458,0.005 -0.667,-0.049c-0.081,-0.021 -0.078,-0.121 -0.007,-0.152Z" style="fill:#e0855c;fill-rule:nonzero;"/><path d="M39.574,33.16c-0,0 0.405,-0.088 -0.016,-0.635c-0.379,-0.492 -0.566,-0.273 -0.566,-0.273c-0,0 -0.229,0.144 0.098,0.577c0.327,0.434 0.484,0.331 0.484,0.331Z" style="fill:#3b2645;fill-rule:nonzero;"/><path d="M36.26,35.285c-0,0 0.405,-0.088 -0.016,-0.635c-0.378,-0.492 -0.567,-0.273 -0.567,-0.273c-0,0 -0.227,0.144 0.099,0.577c0.326,0.434 0.484,0.331 0.484,0.331Z" style="fill:#3b2645;fill-rule:nonzero;"/><path d="M39.077,35.655c0.15,-0.132 0.594,-0.277 0.557,-0.505c-0.031,-0.191 -0.862,-0.9 -0.996,-1.026c-0.484,-0.457 -0.863,-0.733 -1.383,-1.319c-0.023,-0.025 0.016,-0.073 0.047,-0.053c0.939,0.62 1.769,1.6 2.59,2.371c0.046,0.042 0.043,0.12 -0.011,0.154c-0.246,0.151 -0.449,0.353 -0.691,0.51c-0.08,0.053 -0.189,-0.066 -0.113,-0.132Z" style="fill:#e0855c;fill-rule:nonzero;"/><path d="M38.088,31.631c0.158,-0.269 0.575,-0.582 0.902,-0.447c0.06,0.024 0.061,0.117 0.007,0.148c-0.12,0.069 -0.259,0.078 -0.382,0.144c-0.134,0.07 -0.234,0.176 -0.33,0.291c-0.086,0.103 -0.267,-0.017 -0.197,-0.136Z" style="fill:#3b2645;fill-rule:nonzero;"/><path d="M34.826,34.126c-0.08,-0.418 0.48,-0.821 0.859,-0.774c0.087,0.011 0.109,0.123 0.059,0.182c-0.115,0.137 -0.304,0.181 -0.444,0.291c-0.124,0.096 -0.192,0.221 -0.287,0.342c-0.048,0.063 -0.172,0.041 -0.187,-0.041Z" style="fill:#3b2645;fill-rule:nonzero;"/><path d="M40.651,36.3c-0,0 -1.065,0.933 -2.3,0.971c-0,0 0.804,0.576 1.659,0.307c0.855,-0.268 0.641,-1.278 0.641,-1.278Z" style="fill:#fff;fill-rule:nonzero;"/><path d="M14.029,137.862c1.966,0.483 4.584,0.039 6.602,0.032c1.52,-0.006 3.042,-0.013 4.57,-0.02c1.462,-0.005 3.134,0.719 3.447,-1.259c0.156,-1.058 -0.065,-2.135 -0.143,-3.193c-0.007,-0.026 -0.006,-0.047 -0.006,-0.072c-0.099,-1.606 0.71,-3.252 1.721,-4.779c0.831,-1.247 1.803,-2.416 2.514,-3.422c2.697,-3.787 5.061,-7.6 6.837,-11.916c1.834,-4.452 3.316,-9.075 5.745,-13.267c2.331,-4.029 5.603,-8.495 8.051,-13.209c0.111,-0.222 0.228,-0.444 0.34,-0.673c2.409,-4.825 3.886,-9.891 2.567,-14.991c-0.255,-0.992 -0.692,-1.887 -1.371,-2.546c-0.235,-0.228 -0.471,-0.483 -0.699,-0.764c-0.378,-0.444 -0.745,-0.94 -1.111,-1.443c-1.737,-2.383 -3.394,-4.91 -5.164,-3.121c-0.469,0.47 -0.987,1.398 -1.502,2.533c-1.339,2.951 -2.704,7.346 -3.272,8.965c-4.439,12.733 -8.161,25.68 -12.816,38.268c-0.197,0.529 -0.471,1.293 -0.79,2.22c-1.065,3.03 -2.716,7.783 -4.179,11.458c-0.914,2.292 -1.755,4.173 -2.336,4.95c-0.072,0.097 -0.151,0.196 -0.236,0.288c-0.954,1.142 -2.292,1.952 -3.676,2.565c-1.488,0.666 -3.049,1.156 -4.525,1.848c-0.346,0.164 -1.574,1.305 -0.568,1.548Z" style="fill:#f5a784;fill-rule:nonzero;"/><path d="M53.707,86.084c1.096,4.46 2.597,8.828 3.551,12.713c1.195,4.884 1.338,9.924 1.875,14.9c0.515,4.812 1.755,9.297 3.33,13.855c0.175,0.509 0.345,1.005 0.489,1.495c0.47,1.482 0.81,2.893 1.019,4.407c0.091,0.621 0.157,1.267 0.203,1.94c0.032,0.437 0.065,0.893 0.306,1.26c0.406,0.62 1.247,0.763 1.991,0.829c3.612,0 7.183,0.136 10.813,0.007c0.216,-0.014 0.457,-0.027 0.621,-0.177c0.248,-0.222 0.176,-0.659 -0.06,-0.895c-0.241,-0.241 -0.581,-0.333 -0.9,-0.418c-1.645,-0.423 -3.101,-1.123 -4.721,-1.56c-0.731,-0.196 -1.475,-0.398 -2.076,-0.855c-0.561,-0.437 -0.933,-1.032 -1.176,-1.698c-0.384,-1.058 -0.458,-2.298 -0.49,-3.401c-0.007,-0.294 -0.581,-18.876 -0.79,-24.029c-0.241,-5.966 -0.301,-11.895 -0.816,-17.85c-0.353,-3.996 -0.529,-8.26 -1.293,-12.315c-0.32,-1.697 -0.738,-3.362 -1.312,-4.955c-0.561,-1.548 -1.346,-3.147 -2.69,-4.049c-0.181,-0.12 -0.364,-0.234 -0.567,-0.333c-2.343,-1.168 -4.5,-0.659 -5.936,1.32c-0.131,0.17 -0.247,0.359 -0.364,0.554c-0.183,0.314 -0.353,0.634 -0.51,0.954c-2.769,5.537 -2.038,12.007 -0.497,18.301Z" style="fill:#f5a784;fill-rule:nonzero;"/><path d="M68.482,128.486c-0.15,0.104 -0.321,0.196 -0.498,0.267c-0.346,0.144 -0.724,0.222 -1.122,0.268c-0.314,0.039 -0.627,0.046 -0.94,0.033c-1.49,-0.033 -2.97,-0.007 -2.97,-0.007c-0.144,-0.49 -0.314,-0.986 -0.489,-1.495c-1.575,-4.558 -2.815,-9.043 -3.33,-13.855c-0.243,-2.266 -0.415,-4.55 -0.635,-6.823c-0.265,-2.728 -0.594,-5.426 -1.24,-8.077c-0.954,-3.885 -2.455,-8.253 -3.551,-12.713l-0.34,0.673c-2.448,4.714 -5.72,9.18 -8.051,13.209c-2.429,4.192 -3.911,8.815 -5.745,13.267c-1.776,4.316 -4.14,8.129 -6.837,11.916c-0.711,1.006 -1.683,2.175 -2.514,3.422c-1.893,0.104 -4.85,-1.908 -4.85,-1.908c1.462,-3.675 3.114,-8.428 4.179,-11.458c0.319,-0.927 0.593,-1.691 0.79,-2.22c4.655,-12.588 8.377,-25.535 12.816,-38.268c0.568,-1.619 1.933,-6.014 3.272,-8.965c2.402,0.438 4.655,0.595 6.666,0.588c0.692,0 1.358,-0.026 1.985,-0.065c0.953,-0.052 1.833,-0.137 2.63,-0.241c0.104,-0.013 0.209,-0.027 0.306,-0.046c0.542,-0.072 1.045,-0.157 1.502,-0.242c0.176,-0.033 0.346,-0.065 0.503,-0.097c0.626,-0.131 1.157,-0.255 1.562,-0.361c1.325,0.928 2.129,2.501 2.69,4.049c0.574,1.593 0.992,3.258 1.312,4.955c0.764,4.055 0.94,8.319 1.293,12.315c0.515,5.955 0.575,11.884 0.816,17.85c0.209,5.153 0.783,23.735 0.79,24.029Z" style="fill:#e8cee5;fill-rule:nonzero;"/><path d="M28.648,136.615c-0.313,1.978 -1.985,1.254 -3.447,1.259c-1.528,0.007 -3.05,0.014 -4.57,0.02c-2.018,0.007 -4.636,0.451 -6.602,-0.032c-1.006,-0.242 0.222,-1.384 0.568,-1.548c1.476,-0.692 3.037,-1.182 4.525,-1.848c1.384,-0.613 2.722,-1.423 3.676,-2.565c0.065,-0.02 0.143,-0.032 0.214,-0.046c1.026,-0.163 2.11,0.627 2.26,1.658c0.842,0.712 2.168,-0.163 3.233,-0.091c0.078,1.058 0.299,2.135 0.143,3.193Z" style="fill:#3b2645;fill-rule:nonzero;"/><path d="M77.905,137.313c-0.164,0.15 -0.405,0.163 -0.621,0.177c-3.63,0.13 -7.201,-0.007 -10.813,-0.007c-0.744,-0.066 -1.585,-0.209 -1.991,-0.829c-0.241,-0.366 -0.274,-0.824 -0.306,-1.26c-0.046,-0.673 -0.112,-1.319 -0.203,-1.94c1.09,-0.235 2.546,0.824 3.454,0.059c0.117,-0.79 0.784,-1.436 1.547,-1.626c0.243,0.666 0.615,1.261 1.176,1.698c0.601,0.457 1.345,0.659 2.076,0.855c1.62,0.437 3.076,1.137 4.721,1.56c0.319,0.085 0.659,0.177 0.9,0.418c0.236,0.236 0.308,0.673 0.06,0.895Z" style="fill:#3b2645;fill-rule:nonzero;"/><path d="M47.163,77.029c0.019,-0.02 0.039,-0.02 0.058,-0.007c-0.019,0.007 -0.039,0.007 -0.058,0.007Zm5.778,-0.098c-0.255,-0.777 -1.123,-1.195 -1.932,-1.228c-0.497,-0.019 -0.978,0.074 -1.457,0.203c-0.311,0.084 -0.626,0.176 -0.933,0.267c-0.744,0.202 -1.424,0.223 -2.083,0.118c-2.73,-0.444 -5.119,-2.037 -7.28,-3.663c-1.117,-0.836 -2.167,-1.796 -3.317,-2.586c-1.208,-0.822 -1.548,-1.064 -1.012,-2.65c0.02,-0.053 0.033,-0.105 0.052,-0.157c1.254,-3.676 3.872,-11.335 3.924,-11.491c0.327,-0.954 0.66,-1.926 0.692,-2.939c0.118,-3.141 -3.753,-7.123 -6.502,-4.91c-0.282,0.223 -0.549,0.51 -0.804,0.869c-0.516,0.737 -0.777,1.619 -1.031,2.487c-0.96,3.357 -1.816,6.745 -2.573,10.154c-0.281,1.259 -0.542,2.526 -0.731,3.799c-0.092,0.581 -0.163,1.163 -0.216,1.75c-0.13,1.501 -0.392,3.708 0.294,5.086c1.13,2.273 4.355,3.696 6.588,4.519c2.462,0.907 4.988,1.651 7.516,2.376c1.658,0.477 3.355,0.947 5.073,1.307c0.627,0.129 1.286,0.248 1.919,0.338c0.398,0.053 0.797,0.105 1.188,0.138c1.698,0.163 3.16,-2.148 2.625,-3.787Z" style="fill:#f5a784;fill-rule:nonzero;"/><path d="M62.912,66.079c-0.04,0.112 -0.092,0.209 -0.151,0.3c-0.391,0.595 -1.168,0.882 -1.886,1.045c-2.136,0.484 -4.349,0.457 -6.536,0.425c-2.397,-0.039 -4.819,-0.079 -7.13,-0.692c-0.406,-0.112 -0.817,-0.242 -1.13,-0.51c-0.275,-0.235 -0.454,-0.542 -0.598,-0.875c-0.097,-0.228 -0.185,-0.477 -0.263,-0.711c-1.242,-3.571 -3.246,-6.203 -6.131,-8.567c-0.112,-0.091 -0.229,-0.189 -0.34,-0.287c-1.254,3.669 -2.514,7.352 -3.768,11.028c-2.05,-0.241 -4.067,-0.771 -5.98,-1.547c-0.353,-0.144 -0.699,-0.301 -1.045,-0.484c0.189,-1.273 0.45,-2.54 0.731,-3.799c0.757,-3.409 1.613,-6.797 2.573,-10.154c0.254,-0.868 0.515,-1.75 1.031,-2.487c0.255,-0.359 0.522,-0.646 0.804,-0.869c0.691,-0.771 1.684,-1.736 2.99,-2.663c0.627,-0.438 1.325,-0.875 2.089,-1.267c0.013,-0.013 0.033,-0.02 0.059,-0.026c0.117,-0.072 0.241,-0.138 0.372,-0.196c1.234,0.509 2.082,1.351 3.499,1.567c0.954,0.15 2.122,-0.007 2.579,-0.856c0.158,-0.294 0.204,-0.61 0.197,-0.957c-0.007,-0.299 -0.059,-0.61 -0.112,-0.903c-0.11,-0.595 -0.379,-1.953 -0.391,-2.038c0.052,-0.104 0.104,-0.209 0.143,-0.313c0.51,-1.292 -0.202,-3.487 -0.522,-4.799c-0.411,-1.665 -0.888,-3.324 -1.345,-4.982c-0.47,-1.704 -0.882,-3.473 -1.436,-5.171c0.581,-1.012 1.861,-1.684 3.048,-2.031c0.902,-0.267 1.874,-0.443 2.808,-0.385c1.222,2.997 2.847,7.6 4.159,11.792c0.144,0.463 0.288,0.914 0.418,1.365c1.6,5.282 3.879,10.336 6.249,15.337c1.991,4.205 3.584,8.5 4.897,12.967c0.163,0.568 0.326,1.189 0.118,1.743Z" style="fill:#ab8da8;fill-rule:nonzero;"/><path d="M22.724,16.081c-6.46,7.303 -13.997,16.726 -14.052,26.992c-0.001,0.191 0.313,0.247 0.345,0.046c0.81,-5.12 2.371,-9.86 4.981,-14.362c2.583,-4.456 5.877,-8.39 8.951,-12.503c0.097,-0.129 -0.118,-0.294 -0.225,-0.173Z" style="fill:#e8cee5;fill-rule:nonzero;"/><path d="M19.178,32.569c-2.978,3.615 -4.808,8.443 -5.928,12.943c-1.149,4.615 -1.605,9.558 -0.791,14.263c0.038,0.221 0.398,0.169 0.39,-0.053c-0.174,-4.738 -0.047,-9.393 1.061,-14.027c1.122,-4.693 3.242,-8.751 5.429,-13.002c0.049,-0.098 -0.083,-0.218 -0.161,-0.124Z" style="fill:#e8cee5;fill-rule:nonzero;"/><path d="M45.481,65.772c-0.104,-0.228 -0.185,-0.477 -0.263,-0.711c-1.242,-3.571 -3.246,-6.203 -6.131,-8.567c-0.112,-0.091 -0.229,-0.189 -0.34,-0.287l0.848,-3.402c-0,0 5.038,3.787 5.886,12.967Z" style="fill:#826b80;fill-rule:nonzero;"/><path d="M58.498,106.854c-0.255,-2.709 -0.594,-5.406 -1.24,-8.057c-0.954,-3.885 -2.455,-8.253 -3.551,-12.713l0.906,-4.4c-0,0 3.832,8.226 4.25,15.487c0.17,2.958 -0.046,6.51 -0.365,9.683Z" style="fill:#d6bed3;fill-rule:nonzero;"/><path d="M32.696,59.573c-0.377,0.164 -0.721,0.442 -1.064,0.67c-0.328,0.216 -0.646,0.439 -0.949,0.69c-0.245,0.203 0.068,0.539 0.323,0.416c0.378,-0.183 0.733,-0.401 1.09,-0.624c0.332,-0.207 0.692,-0.394 0.984,-0.656c0.288,-0.26 -0.079,-0.629 -0.384,-0.496Z" style="fill:#e8cee5;fill-rule:nonzero;"/><path d="M34.362,53.235c-0.229,-0.414 -0.479,-0.809 -0.744,-1.201c-0.095,-0.142 -0.359,-0.058 -0.293,0.124c0.15,0.408 0.303,0.81 0.488,1.206c0.174,0.372 0.313,0.876 0.64,1.137c0.141,0.114 0.401,0.055 0.391,-0.163c-0.018,-0.404 -0.289,-0.756 -0.482,-1.103Z" style="fill:#e8cee5;fill-rule:nonzero;"/><path d="M42.274,48.192c-0.777,-0.291 -1.843,-0.346 -2.669,-0.353c-0.209,-0.002 -0.232,0.285 -0.048,0.351c0.794,0.279 1.793,0.583 2.64,0.573c0.343,-0.004 0.376,-0.46 0.077,-0.571Z" style="fill:#e8cee5;fill-rule:nonzero;"/><path d="M44.111,56.477c-0.286,-0.026 -0.587,0.037 -0.875,0.048c-0.293,0.01 -0.585,0.003 -0.878,-0.016c-0.421,-0.026 -0.416,0.621 -0,0.653c0.566,0.043 1.294,0.116 1.834,-0.084c0.329,-0.122 0.268,-0.568 -0.081,-0.601Z" style="fill:#e8cee5;fill-rule:nonzero;"/><path d="M49.08,61.352c-0.08,-0.407 -0.122,-0.817 -0.218,-1.222c-0.04,-0.169 -0.306,-0.171 -0.345,0c-0.1,0.451 -0.088,0.886 -0.029,1.343c0.051,0.4 0.052,0.825 0.389,1.08c0.131,0.099 0.289,-0.017 0.337,-0.138c0.135,-0.337 -0.067,-0.72 -0.134,-1.063Z" style="fill:#e8cee5;fill-rule:nonzero;"/><path d="M50.371,51.601c-0.355,-0.213 -0.719,-0.173 -1.115,-0.253c-0.442,-0.089 -0.881,-0.249 -1.285,-0.447c-0.198,-0.098 -0.447,0.167 -0.252,0.328c0.62,0.514 1.871,1.214 2.652,0.697c0.118,-0.077 0.127,-0.25 -0,-0.325Z" style="fill:#e8cee5;fill-rule:nonzero;"/><path d="M56.194,57.262c-0.128,-0.464 -0.219,-0.938 -0.336,-1.406c-0.077,-0.307 -0.512,-0.223 -0.531,0.072c-0.031,0.493 0.025,0.967 0.13,1.448c0.082,0.375 0.155,0.909 0.545,1.074c0.106,0.044 0.238,0.036 0.3,-0.08c0.194,-0.361 -0.006,-0.738 -0.108,-1.108Z" style="fill:#e8cee5;fill-rule:nonzero;"/><path d="M56.764,63.022c-0.373,-0.411 -1.169,-0.471 -1.694,-0.46c-0.176,0.004 -1.056,0.028 -0.84,0.447c0.164,0.317 0.669,0.271 0.972,0.323c0.426,0.074 0.9,0.314 1.327,0.26c0.283,-0.035 0.444,-0.34 0.235,-0.57Z" style="fill:#e8cee5;fill-rule:nonzero;"/><path d="M51.406,46.309c-0.233,-0.373 -0.735,-0.529 -1.119,-0.722c-0.207,-0.103 -0.413,-0.195 -0.627,-0.286c-0.107,-0.046 -0.539,-0.127 -0.578,-0.244c-0.021,-0.063 -0.129,-0.077 -0.143,0c-0.067,0.399 0.307,0.599 0.597,0.796c0.284,0.193 0.575,0.373 0.871,0.548c0.261,0.154 0.461,0.307 0.77,0.307c0.197,0 0.336,-0.226 0.229,-0.399Z" style="fill:#e8cee5;fill-rule:nonzero;"/><path d="M47.959,37.769c-0.455,0.577 -0.643,1.477 -0.801,2.183c-0.059,0.261 0.31,0.359 0.398,0.109c0.124,-0.349 0.253,-0.695 0.384,-1.042c0.129,-0.341 0.328,-0.676 0.389,-1.034c0.032,-0.191 -0.218,-0.41 -0.37,-0.216Z" style="fill:#e8cee5;fill-rule:nonzero;"/><path d="M46.799,32.739c-0.204,-0.316 -0.578,-0.482 -0.898,-0.66c-0.336,-0.185 -0.698,-0.409 -1.076,-0.485c-0.152,-0.031 -0.234,0.132 -0.144,0.247c0.238,0.303 0.608,0.53 0.923,0.746c0.308,0.211 0.615,0.459 0.993,0.5c0.176,0.02 0.289,-0.211 0.202,-0.348Z" style="fill:#e8cee5;fill-rule:nonzero;"/><path d="M46.618,27.577c-0.063,-0.524 -0.114,-1.047 -0.156,-1.572c-0.031,-0.372 -0.606,-0.381 -0.587,0c0.028,0.562 0.065,1.123 0.118,1.683c0.043,0.455 0.028,0.953 0.27,1.348c0.105,0.173 0.379,0.144 0.434,-0.056c0.124,-0.453 -0.023,-0.943 -0.079,-1.403Z" style="fill:#e8cee5;fill-rule:nonzero;"/></g></svg>