<?xml version="1.0" encoding="UTF-8" standalone="no"?><!DOCTYPE svg PUBLIC "-//W3C//DTD SVG 1.1//EN" "http://www.w3.org/Graphics/SVG/1.1/DTD/svg11.dtd"><svg width="100%" height="100%" viewBox="0 0 134 104" version="1.1" xmlns="http://www.w3.org/2000/svg" xmlns:xlink="http://www.w3.org/1999/xlink" xml:space="preserve" xmlns:serif="http://www.serif.com/" style="fill-rule:evenodd;clip-rule:evenodd;stroke-linejoin:round;stroke-miterlimit:2;"><g><path d="M0.828,74.841c-0.54,-1.673 -1.068,-3.437 -0.713,-5.158c0.363,-1.763 1.599,-3.216 2.357,-4.855c2.493,-5.387 -0.439,-11.52 -1.318,-17.369c-1.326,-8.828 2.572,-18.23 9.81,-23.666c7.237,-5.435 17.524,-6.684 25.891,-3.143c6.476,2.74 11.769,8.062 18.642,9.624c4.403,1.001 8.995,0.341 13.514,0.208c6.582,-0.193 13.302,0.787 19.183,3.68c5.88,2.893 10.857,7.833 12.921,13.95c1.674,4.961 1.408,10.444 3.436,15.277c3.064,7.302 10.59,11.614 17.161,16.193c4.197,2.925 8.55,6.905 8.393,11.947c-0.13,4.147 -3.468,7.327 -7.154,8.895c-4.691,1.995 -9.157,1.209 -14.131,1.279c-16.228,0.228 -32.458,0.456 -48.686,0.684c-1.685,0.023 -3.42,0.039 -4.989,-0.565c-1.199,-0.461 -2.225,-1.256 -3.3,-1.949c-3.156,-2.037 -5.831,-2.459 -9.405,-2.801c-3.763,-0.36 -7.362,-1.641 -11.194,-1.862c-6.393,-0.367 -14.439,-0.854 -20.045,-4.136c-5.848,-3.424 -8.424,-10.189 -10.373,-16.233Z" style="fill:#f6f6f6;fill-rule:nonzero;"/><path d="M132.281,101.857c-1.095,-0.12 -2.19,-0.207 -3.298,-0.26c-0.308,-0.014 -89.883,-0.047 -89.883,-0.047c-0.067,0.007 -0.134,0.007 -0.2,0.013c-0.101,0.007 -0.202,0.019 -0.303,0.027c-0.038,-0 -34.508,-0.04 -34.508,-0.04c-0.066,0.007 -0.133,0.007 -0.2,0.013c-0.481,0.034 -0.962,0.074 -1.436,0.127c-1.229,0.127 -1.229,1.776 0,1.903c0.481,0.054 0.955,0.094 1.436,0.134c0.06,0.006 0.127,0.006 0.187,0.013c0,-0 34.445,-0.047 34.465,-0.047c0.119,0.011 0.238,0.024 0.359,0.034c0.06,0.006 0.127,0.006 0.187,0.013c0,-0 89.588,-0.04 89.902,-0.053c1.109,-0.054 2.204,-0.141 3.292,-0.261c1.002,-0.113 1.009,-1.456 0,-1.569Z" style="fill:#c6c6c6;fill-rule:nonzero;"/><path d="M52.314,58.011c-1.819,5.262 -7.446,13.336 -7.446,13.336l-19.327,-8.027c0.051,-0.695 -0.911,-4.536 -0.746,-5.896c0.01,-0.12 0.035,-0.221 0.067,-0.295c0.063,-0.155 0.133,-0.31 0.197,-0.459c0.326,-0.714 0.659,-1.376 0.916,-1.856c0.257,-0.486 0.438,-0.791 0.438,-0.791c0,-0 -0.462,-0.958 -1.879,-1.643c-0.817,-0.403 -1.945,-0.707 -3.482,-0.701c-0.1,0.002 -0.187,-0.003 -0.273,-0.008c-1.625,-0.099 -1.029,-1.26 0.127,-2.501c1.371,-1.498 3.541,-3.107 3.541,-3.107l4.971,3.214c0.284,0.148 0.771,-0.21 1.279,-0.815c0.476,-0.551 0.967,-1.316 1.358,-2.106c0.256,-0.513 0.466,-1.039 0.596,-1.516c0.161,-0.597 2.694,1.039 5.902,3.349c3.303,2.375 7.323,5.463 10.219,7.539c1.675,1.207 2.97,2.075 3.542,2.283Z" style="fill:#f5a784;fill-rule:nonzero;"/><path d="M122.655,100.455c-0.463,2.741 -5.162,-0.232 -6.278,-0.903c-0.677,-0.406 -1.277,-0.661 -2.017,-0.926c-0.135,-0.05 -1.509,-0.623 -1.607,-0.5c0,-0 -1.456,-0.323 -3.754,-0.923c-3.835,-1.008 -10.025,-2.8 -15.666,-5.179c-9.012,-3.804 -14.792,-5.479 -19.189,-6.187c-0.583,-0.094 -1.294,-0.226 -2.112,-0.389c-5.38,-1.075 -15.18,-3.64 -20.13,-7.483c-3.023,-2.341 -5.248,-4.605 -6.678,-6.211c-1.273,-1.436 -1.907,-2.351 -1.907,-2.351c0,-0 0.89,-0.226 2.086,-1.507c0.927,-1.002 2.061,-2.639 3.04,-5.341c0.038,-0.107 0.069,-0.189 0.094,-0.263c0,-0 0.33,0.114 0.875,0.316c2.451,0.91 9.255,3.644 9.45,5.912c0,-0 0.014,0.012 0.047,0.025c0.9,0.366 18.241,8.124 18.295,8.15c3.467,1.603 35.492,17.818 36.053,18.114c1.784,0.957 3.813,1.509 5.692,2.257c1.185,0.463 3.99,1.673 3.706,3.389Z" style="fill:#f5a784;fill-rule:nonzero;"/><path d="M38.543,8.959c0,-0 -0.595,-1.765 -0.395,-3.567c0.14,-1.262 0.018,-4.062 -0.501,-4.837c0,-0 -0.132,-0.12 -0.367,-0.254c-0.032,-0.019 -0.068,-0.04 -0.108,-0.055c-0.218,-0.106 -0.502,-0.209 -0.847,-0.235c-0.025,-0.003 -0.053,-0.005 -0.082,-0.007c-0.244,-0.014 -0.522,0.008 -0.813,0.1c-0.025,0.007 -0.048,0.016 -0.073,0.024c-0.223,0.072 -0.459,0.175 -0.706,0.325c0,-0 0.265,2.827 0.009,3.749c0,-0 -0.601,-1.645 -1.143,-1.729l-0.347,0.145c0,-0 0.444,1.844 0.566,2.684c0.298,2.042 1.884,3.403 1.884,3.403c0,-0 2.302,1.605 2.923,0.254Z" style="fill:#f5a784;fill-rule:nonzero;"/><path d="M35.43,0.104c-0.024,0.008 -0.048,0.016 -0.073,0.024c0.22,1.254 0.229,2.51 0.28,3.796c0.001,0.025 0.041,0.03 0.047,0.005c0.227,-1.282 0.058,-2.573 -0.254,-3.825Z" style="fill:#e0855c;fill-rule:nonzero;"/><path d="M36.325,0.011c-0.025,-0.003 -0.053,-0.005 -0.082,-0.007c0.221,1.257 0.228,2.51 0.284,3.795c0.001,0.025 0.041,0.031 0.043,0.006c0.228,-1.272 0.063,-2.553 -0.245,-3.794Z" style="fill:#e0855c;fill-rule:nonzero;"/><path d="M37.28,0.301c-0.032,-0.02 -0.068,-0.04 -0.108,-0.055c0.192,1.187 0.2,2.376 0.253,3.591c-0.003,0.025 0.037,0.031 0.042,0.005c0.246,-1.18 0.083,-2.379 -0.187,-3.541Z" style="fill:#e0855c;fill-rule:nonzero;"/><path d="M35.93,51.896c0,-0 -5.732,1.776 -4.23,-3.577c1.931,-6.879 4.705,-17.854 5.022,-22.172c0.318,-4.318 -1.225,-18.49 -1.225,-18.49l2.697,-0.344c0,-0 3.046,13.913 3.077,19.389c0.031,5.477 -0.993,23.807 -5.341,25.194Z" style="fill:#f5a784;fill-rule:nonzero;"/><path d="M28.49,48.676c-0.7,2.232 -2.583,3.241 -3.956,3.704c-0.817,-0.403 -1.945,-0.707 -3.482,-0.701c-0.1,0.002 -0.187,-0.003 -0.273,-0.008l-0.622,-0.314c0,-0 0.274,-0.947 0.749,-2.187c1.371,-1.498 3.541,-3.107 3.541,-3.107l4.043,2.613Z" style="fill:#e0855c;fill-rule:nonzero;"/><path d="M23.34,48.671c-0.207,0.593 -0.45,1.152 -0.713,1.659c-0.629,1.222 -1.37,2.453 -1.442,3.824c-0.094,1.872 1.082,3.785 0.445,5.542c-0.309,0.868 -1.017,1.531 -1.386,2.367c-0.02,0.034 -0.032,0.067 -0.045,0.101c-0.521,1.28 -0.143,2.714 0.126,4.065c0.263,1.35 0.369,2.911 -0.544,3.946c-0.528,0.605 -1.33,0.916 -2.129,1.047c-1.791,0.278 -3.877,-0.473 -4.548,-2.162c-0.952,-2.384 1.237,-5.35 -0.093,-7.552c-0.457,-0.745 -1.242,-1.23 -1.764,-1.926c-2.344,-3.131 1.103,-6.29 0.908,-9.498c-0.081,-1.294 -0.788,-2.495 -0.782,-3.791c0.011,-2.312 1.935,-5.185 3.894,-6.328c1.921,-1.11 4.126,-1.063 6.032,-0.021c1.061,0.579 1.801,1.472 2.25,2.504c0.801,1.853 0.497,4.218 -0.209,6.223Z" style="fill:#3b2645;fill-rule:nonzero;"/><path d="M21.185,54.154c-0.094,1.872 1.082,3.785 0.445,5.542c-0.309,0.868 -1.017,1.531 -1.386,2.367c-0.497,-0.738 -0.743,-1.647 -0.615,-2.525c0.088,-0.597 0.33,-1.17 0.417,-1.766c0.181,-1.24 -0.3,-2.485 -0.93,-3.561c-0.395,-0.659 -1.288,-1.803 -0.998,-2.637c0.283,-0.827 1.448,-0.097 1.593,-1.129c0.034,-0.268 -0.018,-0.541 -0.017,-0.815c-0.01,-0.441 0.107,-0.897 0.401,-1.224c0.378,-0.429 0.996,-0.589 1.572,-0.541c0.635,0.053 1.223,0.362 1.673,0.806c-0.207,0.593 -0.45,1.152 -0.713,1.659c-0.629,1.222 -1.37,2.453 -1.442,3.824Z" style="fill:#2c1c33;fill-rule:nonzero;"/><path d="M23.307,42.112c-1.454,-0.775 -2.749,-1.338 -3.665,-1.249c-4.021,0.389 -6.042,5.182 -4.432,7.394c0.596,0.819 1.742,1.593 3.224,2.326c-0.373,0.233 -0.847,0.68 -0.527,1.337c0.384,0.789 2.136,0.45 3.204,-0.279c3.455,0.816 5.427,-1.472 6.172,-2.769c0.813,-1.415 0.426,-4.415 -3.976,-6.76Z" style="fill:#f5a784;fill-rule:nonzero;"/><path d="M22.436,44.268c0,-0 0.354,-0.294 -0.34,-0.617c-0.624,-0.292 -0.697,0.021 -0.697,0.021c0,-0 -0.151,0.258 0.392,0.518c0.543,0.26 0.645,0.078 0.645,0.078Z" style="fill:#3b2645;fill-rule:nonzero;"/><path d="M20.488,47.856c0,-0 0.354,-0.293 -0.339,-0.617c-0.625,-0.291 -0.697,0.021 -0.697,0.021c0,-0 -0.152,0.259 0.391,0.518c0.543,0.26 0.645,0.078 0.645,0.078Z" style="fill:#3b2645;fill-rule:nonzero;"/><path d="M22.75,47.027c0.08,-0.205 0.443,-0.574 0.29,-0.78c-0.128,-0.173 -1.307,-0.446 -1.505,-0.502c-0.215,-0.061 -0.412,-0.111 -0.605,-0.16c-0.002,-0.023 -0.006,-0.046 -0.006,-0.07c0.001,-0.053 0.01,-0.101 0.024,-0.147c0.791,0.22 1.584,0.508 2.333,0.719c0.066,0.019 0.103,0.097 0.067,0.158c-0.164,0.275 -0.261,0.578 -0.418,0.856c-0.053,0.093 -0.221,0.032 -0.18,-0.074Z" style="fill:#e0855c;fill-rule:nonzero;"/><path d="M20.191,43.522c0.018,-0.345 0.269,-0.867 0.66,-0.901c0.071,-0.006 0.12,0.085 0.083,0.143c-0.083,0.129 -0.216,0.209 -0.303,0.336c-0.095,0.137 -0.141,0.294 -0.176,0.455c-0.032,0.147 -0.271,0.12 -0.264,-0.033Z" style="fill:#3b2645;fill-rule:nonzero;"/><path d="M18.484,47.449c-0.292,-0.371 0.053,-1.055 0.451,-1.202c0.091,-0.035 0.17,0.066 0.151,0.148c-0.043,0.194 -0.206,0.334 -0.289,0.514c-0.073,0.159 -0.076,0.316 -0.107,0.484c-0.016,0.087 -0.149,0.128 -0.206,0.056Z" style="fill:#3b2645;fill-rule:nonzero;"/><path d="M23.518,48.07c0.281,-0.187 0.546,-0.299 0.736,-0.6c0.147,-0.234 0.182,-0.559 0.394,-0.739c0.033,-0.028 0.093,-0.03 0.115,0.016c0.158,0.323 -0.079,0.792 -0.266,1.062c-0.201,0.289 -0.521,0.585 -0.894,0.578c-0.176,-0.004 -0.223,-0.224 -0.085,-0.317Z" style="fill:#e0855c;fill-rule:nonzero;"/><path d="M14.095,48.93c0.921,0.902 1.976,2.112 3.286,2.356c2.685,0.5 -0.144,-3.584 -0.371,-4.302c-0.212,-0.675 -0.221,-1.397 -0.388,-2.085c-0.092,-0.38 -0.741,-1.142 -0.695,-1.455c0.05,-0.335 0.764,-0.735 0.964,-1.035c0.535,-0.805 1.186,-1.084 1.9,-0.666c0.713,0.417 1.202,-0.992 1.899,-0.764c0.697,0.228 -1.098,-0.631 -1.098,-0.631l-3.376,0.597l-1.945,2.554l-0.511,3.072l0.335,2.359Z" style="fill:#3b2645;fill-rule:nonzero;"/><path d="M30.025,63.426c0.108,6.042 -0.742,13.261 -1.258,16.331c-0.457,2.702 -1.991,7.824 -3.42,12.283c-1.429,4.452 -2.738,8.233 -2.738,8.233l-0.163,0.605c-0.178,0.656 -0.778,1.108 -1.458,1.098l-7.374,-0.114c-0.387,-0.006 -0.523,-0.505 -0.199,-0.716c1.473,-0.959 5.184,-1.558 5.593,-1.852c0.14,-0.1 0.361,-0.575 0.609,-1.201c0,-0 4.194,-14.21 4.571,-18.52c0.383,-4.316 -1.265,-14.942 -0.466,-20.443c0.111,-0.75 0.264,-1.395 0.44,-1.94c0.433,-1.304 1.018,-2.072 1.583,-2.531c0.932,-0.741 1.804,-0.626 1.804,-0.626c0.668,0.34 1.172,1.111 1.549,2.192c0.612,1.77 0.88,4.356 0.927,7.201Z" style="fill:#f5a784;fill-rule:nonzero;"/><path d="M48.772,55.728c-1.07,2.447 -2.981,6.695 -5.847,10.924c-0.088,0.131 -0.175,0.265 -0.266,0.393c-0.187,0.285 -0.382,0.57 -0.583,0.854c-0.116,0.177 -0.233,0.346 -0.356,0.516c-0.292,0.42 -0.597,0.834 -0.909,1.248l-10.748,-4.462c-0.073,-0.265 -0.031,-1.819 -1.54,-3.961c-0.857,-1.216 -2.213,-2.605 -4.361,-4.05c0.433,-1.304 1.018,-2.072 1.583,-2.531c0.075,0.052 0.149,0.104 0.23,0.155c0.759,0.499 1.881,1.116 3.123,1.411c1.403,0.324 2.964,0.231 4.315,-0.94c2.44,-2.122 -0.617,-5.157 -2.716,-6.823c0.476,-0.551 0.967,-1.316 1.358,-2.106c1.431,0.705 3.816,1.656 6.498,1.833c3.303,2.375 7.323,5.463 10.219,7.539Z" style="fill:#ff4590;fill-rule:nonzero;"/><path d="M124.601,96.486c-1.093,1.366 -3.859,0.075 -5,-0.489c-1.809,-0.904 -3.576,-2.042 -5.482,-2.736c-0.633,-0.227 -1.258,-0.461 -1.884,-0.702c-3.906,-1.474 -7.774,-3.061 -11.705,-4.481c-0.31,-0.114 -53.828,-21.285 -53.828,-21.285c0.893,-1.669 1.436,-3.075 1.741,-4.238c0.187,-0.718 0.285,-1.322 0.335,-1.837c0.163,-1.74 -0.268,-2.56 -0.268,-2.56c0,-0 1.219,-0.153 3.31,-0.15c2.137,0.008 5.193,0.171 8.794,0.823c6.538,1.19 15.64,7.383 19.755,10.549c0.36,0.28 0.679,0.534 0.958,0.755c3.466,2.799 8.57,5.984 17.422,10.152c5.87,2.768 11.645,6.426 14.877,8.582c1.639,1.094 2.623,1.802 2.623,1.802c-0.017,0.154 1.319,0.793 1.447,0.864c0.697,0.373 1.284,0.648 2.043,0.885c1.237,0.382 6.593,1.892 4.862,4.066Z" style="fill:#f5a784;fill-rule:nonzero;"/><path d="M80.369,69.38c-1.119,2.663 -2.251,5.078 -3.34,7.231c-0.302,0.595 -0.597,1.176 -0.893,1.729c-4.185,-1.755 -22.053,-8.691 -27.703,-10.876c0.722,-1.204 1.48,-2.67 2.191,-4.387c0.616,-1.496 1.196,-3.179 1.663,-5.065c2.105,0.029 4.981,0.215 8.327,0.819c6.538,1.19 15.64,7.383 19.755,10.549Z" style="fill:#3b2645;fill-rule:nonzero;"/><path d="M77.029,76.611c-4.041,-1.851 -18.167,-8.091 -18.167,-8.091c-0.168,-1.961 -5.274,-4.271 -8.238,-5.443c-0.711,1.717 -1.469,3.183 -2.191,4.387c-1.717,2.869 -3.209,4.29 -3.209,4.29c1.43,1.606 3.655,3.87 6.678,6.211c4.95,3.843 14.75,6.408 20.13,7.483c1.072,-1.684 2.378,-3.872 3.792,-6.522c-6.387,-3.767 -16.171,-9.909 -16.915,-10.381c0.891,0.389 14.214,6.279 18.12,8.066Z" style="fill:#3b2645;fill-rule:nonzero;"/><path d="M110.691,93.467c-3.452,-1.777 -6.948,-3.473 -10.366,-5.312c-3.426,-1.838 -23.236,-11.511 -23.296,-11.544c-0.302,0.595 -0.597,1.176 -0.893,1.729c-0.105,0.201 -0.208,0.391 -0.312,0.586c1.578,0.93 2.951,1.718 3.926,2.237c5.006,2.659 30.159,12.013 30.941,12.304Z" style="fill:#e0855c;fill-rule:nonzero;"/><path d="M77.029,76.611c-3.906,-1.787 -17.229,-7.677 -18.12,-8.066c0.744,0.472 10.528,6.614 16.915,10.381c0.104,-0.195 0.207,-0.385 0.312,-0.586c0.296,-0.553 0.591,-1.134 0.893,-1.729Z" style="fill:#291b30;fill-rule:nonzero;"/><path d="M57.498,68.527c-2.347,0.075 -4.33,-1.497 -6.451,-2.262c-0.17,-0.061 -0.308,0.196 -0.171,0.309c1.05,0.863 2.391,1.41 3.644,1.913c0.977,0.392 2.007,0.872 3.06,0.561c0.286,-0.085 0.221,-0.531 -0.082,-0.521Z" style="fill:#291b30;fill-rule:nonzero;"/><path d="M36.859,59.718c-0.021,-0.248 -0.372,-0.301 -0.442,-0.05c-0.243,0.867 -0.352,1.699 -0.941,2.43c-0.534,0.662 -1.315,1.107 -2.162,1.2c-0.388,0.043 -0.387,0.642 0.013,0.615c2.031,-0.133 3.706,-2.151 3.532,-4.195Z" style="fill:#de3c7c;fill-rule:nonzero;"/><path d="M41.515,51.971c-0.085,-0.337 -0.647,-0.259 -0.613,0.096c0.079,0.825 -0.026,1.557 -0.492,2.261c-0.483,0.731 -1.143,0.889 -1.806,1.36c-0.243,0.173 -0.076,0.513 0.206,0.461c1.847,-0.337 3.17,-2.342 2.705,-4.178Z" style="fill:#de3c7c;fill-rule:nonzero;"/><path d="M122.655,100.455c-0.463,2.741 -5.162,-0.232 -6.278,-0.903c-0.677,-0.406 -1.277,-0.661 -2.017,-0.926c-0.135,-0.05 -1.509,-0.623 -1.607,-0.5c0,-0 -1.456,-0.323 -3.754,-0.923c0.595,-0.62 1.284,-1.222 1.744,-1.9c0.298,-0.447 0.575,-0.907 0.826,-1.381c0.567,0.296 1.127,0.591 1.688,0.887c1.784,0.957 3.813,1.509 5.692,2.257c1.185,0.463 3.99,1.673 3.706,3.389Z" style="fill:#ff4590;fill-rule:nonzero;"/><path d="M124.601,96.486c-1.093,1.366 -3.859,0.075 -5,-0.489c-1.809,-0.904 -3.576,-2.042 -5.482,-2.736c-0.633,-0.227 -1.258,-0.461 -1.884,-0.702c0.535,-1.2 0.968,-2.445 1.391,-3.69c1.639,1.094 2.623,1.802 2.623,1.802c-0.017,0.154 1.319,0.793 1.447,0.864c0.697,0.373 1.284,0.648 2.043,0.885c1.237,0.382 6.593,1.892 4.862,4.066Z" style="fill:#ff4590;fill-rule:nonzero;"/><path d="M33.917,66.803l-3.854,-1.602c-0.073,-0.265 -0.026,-1.823 -1.54,-3.961c0,-0 2.972,1.567 5.394,5.563Z" style="fill:#de3c7c;fill-rule:nonzero;"/><path d="M29.762,28.496c-0.839,-2.871 -2.091,-5.649 -3.072,-8.476c-0.828,-2.383 -1.358,-5.251 -2.968,-7.261c-0.103,-0.129 -0.377,-0.108 -0.353,0.103c0.038,0.336 0.017,0.306 0.259,0.552c-0.03,0.163 0.054,0.326 0.292,0.504c0.226,0.475 0.422,0.961 0.59,1.459c0.182,0.519 0.337,1.049 0.5,1.574c0.432,1.387 0.877,2.768 1.347,4.141c0.871,2.55 1.711,5.21 2.965,7.6c0.13,0.247 0.516,0.063 0.44,-0.196Z" style="fill:#e8cee5;fill-rule:nonzero;"/><path d="M68.95,14.41c-3.098,2.252 -5.839,5.102 -8.619,7.729c-2.937,2.776 -5.913,5.555 -8.632,8.548c-0.201,0.221 0.114,0.514 0.331,0.317c2.928,-2.642 5.708,-5.452 8.577,-8.159c2.85,-2.689 5.975,-5.202 8.613,-8.101c0.159,-0.175 -0.063,-0.485 -0.27,-0.334Z" style="fill:#e8cee5;fill-rule:nonzero;"/><path d="M72.785,30.238c-2.558,0.732 -4.951,2.118 -7.324,3.297c-2.548,1.264 -5.181,2.486 -7.595,3.995c-0.214,0.135 -0.064,0.523 0.188,0.421c2.474,-1.004 4.854,-2.287 7.255,-3.451c2.544,-1.233 5.303,-2.303 7.63,-3.917c0.173,-0.121 0.06,-0.407 -0.154,-0.345Z" style="fill:#e8cee5;fill-rule:nonzero;"/><path d="M76.127,44.486c-3.847,-0.687 -8.167,-0.982 -12.05,-0.519c-0.273,0.033 -0.262,0.398 0.009,0.423c3.971,0.365 7.971,0.564 11.948,0.913c0.464,0.041 0.552,-0.735 0.093,-0.817Z" style="fill:#e8cee5;fill-rule:nonzero;"/></g></svg>