<?xml version="1.0" encoding="UTF-8" standalone="no"?><!DOCTYPE svg PUBLIC "-//W3C//DTD SVG 1.1//EN" "http://www.w3.org/Graphics/SVG/1.1/DTD/svg11.dtd"><svg width="100%" height="100%" viewBox="0 0 274 271" version="1.1" xmlns="http://www.w3.org/2000/svg" xmlns:xlink="http://www.w3.org/1999/xlink" xml:space="preserve" xmlns:serif="http://www.serif.com/" style="fill-rule:evenodd;clip-rule:evenodd;stroke-linejoin:round;stroke-miterlimit:2;"><path id="calendar" d="M207,28l-143,-0l0,-20.5c0,-4.139 -3.361,-7.5 -7.5,-7.5c-4.139,-0 -7.5,3.361 -7.5,7.5l0,20.675c-27.618,2.117 -49,23.201 -49,48.365c0,0 0,145.92 0,145.92c0,26.538 23.782,48.54 53.58,48.54l62.253,-0c4.14,0 7.5,-3.361 7.5,-7.5c0,-4.139 -3.36,-7.5 -7.5,-7.5l-62.253,-0c-21.07,-0 -38.58,-14.775 -38.58,-33.54l-0,-118.127l241,0l-0,27.651c0,4.14 3.361,7.5 7.5,7.5c4.139,0 7.5,-3.36 7.5,-7.5l-0,-55.444c-0,-25.164 -21.382,-46.248 -49,-48.365l-0,-20.675c-0,-4.139 -3.361,-7.5 -7.5,-7.5c-4.139,-0 -7.5,3.361 -7.5,7.5l-0,20.5Zm-6.125,97.25c-40.221,-0 -72.875,32.654 -72.875,72.875c-0,40.221 32.654,72.875 72.875,72.875c40.221,-0 72.875,-32.654 72.875,-72.875c0,-40.221 -32.654,-72.875 -72.875,-72.875Zm0,15c31.942,-0 57.875,25.933 57.875,57.875c0,31.942 -25.933,57.875 -57.875,57.875c-31.942,-0 -57.875,-25.933 -57.875,-57.875c-0,-31.942 25.933,-57.875 57.875,-57.875Zm-7.862,60.879l-13.183,-10.124c-3.283,-2.521 -7.995,-1.903 -10.516,1.38c-2.521,3.283 -1.903,7.995 1.38,10.516c-0,0 12.818,9.844 17.501,13.441c2.033,1.562 4.607,2.246 7.147,1.9c2.541,-0.346 4.837,-1.693 6.379,-3.741c5.966,-7.923 30.759,-40.855 30.759,-40.855c2.489,-3.307 1.826,-8.013 -1.481,-10.503c-3.307,-2.489 -8.013,-1.826 -10.503,1.481l-27.483,36.505Zm-127.888,-0.941c0,-2.381 -1.932,-4.313 -4.312,-4.313l-8.625,0c-2.381,0 -4.313,1.932 -4.313,4.313l0,8.625c0,2.38 1.932,4.312 4.313,4.312l8.625,0c2.38,0 4.312,-1.932 4.312,-4.312l0,-8.625Zm38,-0c0,-2.381 -1.932,-4.313 -4.312,-4.313l-8.625,0c-2.381,0 -4.313,1.932 -4.313,4.313l0,8.625c0,2.38 1.932,4.312 4.313,4.312l8.625,0c2.38,0 4.312,-1.932 4.312,-4.312l0,-8.625Zm-38,-34c0,-2.381 -1.932,-4.313 -4.312,-4.313l-8.625,0c-2.381,0 -4.313,1.932 -4.313,4.313l0,8.625c0,2.38 1.932,4.312 4.313,4.312l8.625,0c2.38,0 4.312,-1.932 4.312,-4.312l0,-8.625Zm38,-0c0,-2.381 -1.932,-4.313 -4.312,-4.313l-8.625,0c-2.381,0 -4.313,1.932 -4.313,4.313l0,8.625c0,2.38 1.932,4.312 4.313,4.312l8.625,0c2.38,0 4.312,-1.932 4.312,-4.312l0,-8.625Zm-38,-35.001c0,-2.38 -1.932,-4.312 -4.312,-4.312l-8.625,-0c-2.381,-0 -4.313,1.932 -4.313,4.312l0,8.626c0,2.38 1.932,4.312 4.313,4.312l8.625,0c2.38,0 4.312,-1.932 4.312,-4.312l0,-8.626Zm38,0c0,-2.38 -1.932,-4.312 -4.312,-4.312l-8.625,-0c-2.381,-0 -4.313,1.932 -4.313,4.312l0,8.626c0,2.38 1.932,4.312 4.313,4.312l8.625,0c2.38,0 4.312,-1.932 4.312,-4.312l0,-8.626Zm38,0c0,-2.38 -1.932,-4.312 -4.312,-4.312l-8.625,-0c-2.381,-0 -4.313,1.932 -4.313,4.312l0,8.626c0,2.38 1.932,4.312 4.313,4.312l8.625,0c2.38,0 4.312,-1.932 4.312,-4.312l0,-8.626Zm65.875,-88.187l-143,-0l0,17.833c0,4.14 -3.361,7.5 -7.5,7.5c-4.139,0 -7.5,-3.36 -7.5,-7.5l0,-17.598c-18.969,1.958 -34,15.919 -34,33.305l-0,12.793l241,0l-0,-12.793c-0,-17.386 -15.031,-31.347 -34,-33.305l-0,17.598c-0,4.14 -3.361,7.5 -7.5,7.5c-4.139,0 -7.5,-3.36 -7.5,-7.5l-0,-17.833Z" style="fill:#fff;"/></svg>